<svg xmlns="http://www.w3.org/2000/svg" xml:space="preserve" viewBox="0 0 250.78 300"><!-- Source: https://football-logos.cc --><path d="m125.2 25.214-9.41 6.858c-.534.419-1.372-.19-1.143-.838l3.657-11.05-.038-.267-9.258-6.972c-.534-.381-.229-1.334.457-1.334l11.392.077.19-.229L124.707.486c.19-.648 1.18-.648 1.371 0l3.658 10.973.19.229 11.393-.077c.685 0 .99.953.457 1.334l-9.259 6.972-.038.267 3.658 11.05c.229.647-.61 1.257-1.143.838l-9.411-6.858zM125.391 300c-31.89-11.05-59.4-31.243-79.327-58.524-19.012-25.985-31.586-57.494-35.243-89.461L0 57.257c21.375-6.82 43.207-11.812 65.267-15.698 39.893-6.973 80.356-6.973 120.248 0 22.06 3.886 43.893 8.878 65.268 15.698l-10.821 94.758c-3.658 31.967-16.231 63.476-35.244 89.461-19.927 27.281-47.436 47.475-79.327 58.524" data-source="https://football-logos.cc"></path><path d="m203.575 191.83-.38-.076a23 23 0 0 1-1.22-.114c-.343-.038-.762-.114-1.22-.152-1.028-.153-2.057-.381-3.086-.61-1.905-.495-3.733-1.105-5.448-1.677-1.867 0-4.267 0-5.868-1.066-1.295 0-2.667-.305-3.81-.953h-.076c-2.02 0-3.81-.228-5.677-1.181-1.79-.914-4.648-3.505-4.572-5.791a5.4 5.4 0 0 1 .305-1.486c-.343.647-.8 1.257-1.22 2.057-.152.305-.304.61-.457.953.114.343.305.762.495 1.105.534.99 1.639 2.095 2.668 2.933 1.41 1.181 2.667 2.058 2.438 3.544-.42 0-1.105-1.143-1.448-1.448-.914-.915-2.324-1.486-3.315-2.439-.61-.533-1.143-1.295-1.524-2.019-.838 2.172-1.562 4.382-2.972 6.21-1.486 1.906-3.886 3.125-7.963 3.468-.076.038-.152.038-.228.038 1.486 3.124 2.133 6.02 1.867 9.601.99-.838 1.828-1.867 2.552-2.933 2.363-3.468 4.153-3.544 7.697-4.84a22 22 0 0 0 2.59-1.142c2.554-1.41 4.078-.267 6.668-.42 1.715-.076 3.087-.761 4.877-.647 1.867.076 3.582.686 5.41.99 2.897.534 5.22 1.258 8.04 2.172-.152 0-.076-1.028.19-1.143.8 1.029 1.906 2.02 3.125 2.248 1.143.229 1.79-.305 2.21-.952.724-1.181.457-3.125-.648-4.23M172.79 178.228c.114-.19.266-.38.418-.533.648-.724 1.563-1.067 2.477-1.22 1.22-.19 4.915.305 6.363.763 1.181.38 2.362.99 3.43 1.676.723.457.8.953 1.447.457.038-.038.114-.076.152-.114.686-.42 1.067.229 1.372.762.343.572.838 1.22 1.562 1.296.8.114 1.257.114 2.058.495.228.114.495.19.8.19.61 0 1.257.19 1.752.648.915.914 1.677-.99 3.087 1.029.914 1.333 1.333.343 1.79-.457 1.067-2.058 2.325-2.363 3.239.152.724 1.981 2.057 4.115 4.496 3.886 2.553-.19 5.334-1.295 6.934-3.39.953-1.296 1.41-3.01 1.41-4.611.343.343.533.762.648 1.448.457-2.21 1.371-4.039 2.248-5.563 1.029-1.753 1.676-2.095 1.067-4.267 1.752-1.41.114-2.553-1.296-3.277-1.638-.838-3.581-1.067-5.41-.99-1.753-1.106-3.582-2.096-5.334-2.972-1.41-.686-2.02.457-3.544.61-.19-.458.381-1.258 1.181-1.677-1.524-.648-1.98-.115-3.543.152.152-.38.419-.914.838-1.257-1.448-.572-2.934-1.067-4.42-1.562-4-1.334-8.039-2.4-12.192-3.43-2.058-.533-3.391-1.41-4.534-2.629.343.953.495 1.944 1.181 2.972-.876-.533-1.486-1.447-1.867-2.171-.152-.229-.419-.381-.648-.496.038.877.305 2.4.229 3.544-.038.647-.114 1.333-.953 1.18-.19 0-.495-.037-1.028.115-1.753.495-5.182 2.21-6.173-.152 1.029.038 1.22.38 1.677.495.419.114.99-.038 1.905-.229 0-.038-.038-.038-.038-.076-.343-.419-.572-.99-.8-1.486.419.077 1.638.229 2.4-.571a.55.55 0 0 0 .076-.267c-.876.229-1.714.114-2.02-.038 1.334.076 1.753-.724 1.525-1.41-.076-.152-.114-.343-.19-.457-.115.762-.496 1.562-1.296 1.334-1.524-.534 1.867-3.049 2.4-3.544-1.981-.114-3.543 3.505-6.02 4.191.038.038 3.087-3.315 3.391-3.734.496-.495 1.029-.914 1.639-1.18-1.791-.649-4.725 4.61-6.897 5.181.724-.838 1.639-1.905 2.515-2.972.914-1.181 1.79-2.362 2.781-3.086-.762-.42-1.486-1.029-1.828-2.02 1.943 1.22 4.42 1.525 6.324 2.706-2.895-4.077-7.2-5.868-10.935-1.181-.114-.496-.076-.915.153-1.296 1.371-1.981 4.153-2.553 5.83-2.476-3.544-1.639-7.43-.039-11.355 4.038-.038-.533-.152-.99.114-1.448.953-1.676 3.696-3.314 5.982-4.153-1.943-1.028-3.467.343-5.22 1.067-.266-1.105 1.41-1.905 2.667-2.286-1.98-.724-2.095-.19-3.238.305-.114-.762.343-1.143.99-1.334-5.372-2.438-11.316-5.143-14.973-9.144-.839 2.591-1.372 5.106-.534 7.849-.571-.229-1.105-.457-1.486-1.029-.38 1.6-.914 2.972-1.981 4.191l-.762-.838c0 .305-.114.572-.19.876-.953-.457-1.715-.533-2.553-1.905-.229 1.105-.343 2.4-.229 3.544-.457-.229-1.181-.534-1.562-.838 0 .228 0 .457.076.8.267.99.762 2.171 1.296 3.39 1.028 2.325-1.524 1.182-2.591.534-.42-.267-.839-.495-1.22-.762-.114 6.554 2.477 8.687 6.02 11.583 2.172.61 4.306 1.22 6.44 1.943 4.572 1.562 10.554 3.582 14.707 6.554 1.98-.039 3.962.342 5.715 1.219 1.676.876 4.153 3.048 2.21 4.991.266.99.114 1.715-.153 2.362M157.054 195.221c.571-.61 1.066-1.333 1.562-2.095-1.562-.038-2.744-.8-3.658-1.867-.038.381-.076.838-.19 1.257v.076c.723.305 1.447 1.372 1.904 1.982.153.228.267.419.382.647M158.616 195.564c-.305.42-.61.762-.953 1.105.457 1.486.457 3.125-.19 4.306-.915 1.714-2.934 2.667-5.296 1.524a23 23 0 0 0-2.477-1.067c-3.162 4.153-9.906 10.097-8.23 14.821.762-.952 1.257-2.286 1.715-3.39 1.943-4.725 6.096-8.307 10.973-9.64 4.039-1.105 7.049-.915 4.458-7.659" style="fill:#ed1c24"></path><path d="M135.298 198.727c-1.03 1.524-2.515 2.705-5.487 4.305-4.724 2.553-6.325 11.012-6.363 15.927 0 5.296-1.714 5.562-3.353 9.106-.571 1.295 0 1.371.8.533 2.248-2.4 3.125-5.334 5.868-7.391 3.924-2.896 8.725-4.725 13.183-6.63.42-5.182 4.382-8.42 7.468-12.154.419-.534.8-.991 1.067-1.41-1.982-.648-4-1.029-6.173-1.448-1.79-.305-3.429-.876-5.22-.99-.647-.039-1.219.037-1.79.152M120.362 201.851c3.2.99 5.144 2.515 8.84-.038 1.828-.99 3.048-1.79 3.962-2.667-.305.038-.572.076-.838.076-2.286.153-3.848-.99-6.096.267-.877.495-1.83.914-2.744 1.257-1.18.42-2.21.724-3.124 1.105M122.458 148.738c-.381-.42-.724-.876-1.067-1.372a6 6 0 0 1-.343.686c.457.229.952.457 1.41.686M140.784 160.359c-2.02-1.791-3.353-4-3.962-6.744-3.353-1.143-6.706-3.163-8.573-6.21-.305 1.028-.305 2.019-.229 2.971.762.457 1.448 1.067 2.096 1.753 1.676.419 3.353.914 4.496 2.324 1.905 2.324 1.638 4.763 4.572 5.487.572.152 1.105.266 1.6.419" style="fill:#ed1c24"></path><path d="M126.115 204.709c-2.629.114-4.991-1.296-7.544-1.905-.724.495-1.41 1.219-2.133 2.248-1.486 2.21-2.896 3.505-5.297 4.686.115-.686.191-1.372.23-2.02-.915.42-1.906.687-2.859.915-2.476 4.23-4.381 8.763-5.486 13.564-1.22 5.106-2.286 9.983-2.02 14.707.077 1.334.42 2.324.686 3.696 1.03-1.257 1.372-2.286 2.63-3.162 3.086-2.134 6.515-4.077 9.639-6.363 4.42-3.2 8.077-6.401 8.154-12.04.076-4.915 1.143-10.288 4-14.326M138.346 142.26c-.877.153-1.486-.609-1.943-1.6-.115 1.296.228 2.363 1.638 3.315.686.496 1.333.572 1.333-.495.42.229.839.419 1.22.686.076-1.83.647-2.972 1.905-4.306.305.953.419 2.02 1.105 2.858.114-.534.38-1.029.61-1.486l1.295 1.448c.838-1.448 1.067-3.2 1.333-4.801l.458.533c-.115-2.514.914-4.877 1.714-7.2 2.362-6.973 3.62-14.365 2.858-21.642l-1.867-.115a36 36 0 0 1-1.029 5.068c-1.181 4.077-3.391 7.315-5.639 10.554-.876 1.257-1.676 2.515-2.515 3.81-1.6 2.477-1.105 6.706.534 9.564-2.096.038-2.439-4.382-2.477-6.097-1.067 2.4.19 5.449 1.562 7.468-1.486-.38-2.324-2.172-2.743-3.962-.495 1.676.648 3.924 1.638 5.067-1.143.038-1.905-1.257-2.4-2.59-.457 1.104.8 3.276 1.41 3.924M153.053 135.06c.686-1.067 1.372-2.21 1.943-3.391 1.334-2.744 1.638-5.373 2.096-8.345.38-2.629.8-5.296 1.447-7.925.381-1.41.762-2.781 1.067-4.19-.038 0-.076.037-.076.037-1.524 1.181-3.239 2.4-4.839 3.658-.914.762-1.257 1.981-1.371 3.315-.458 4.839-1.41 8.84-3.049 13.411-.076.229-.114.458-.19.648a15.8 15.8 0 0 0 2.972 2.782M183.724 154.224c-1.105-1.866-1.828-3.924-4.038-4.724 1.143 1.6 2.286 3.658 4.038 4.724" style="fill:#ed1c24"></path><path d="M136.593 152.09c-.19-1.714.114-3.162.267-4.876 1.105.838 1.981 1.448 3.162 2.134-.457-1.067-1.067-2.363-1.105-3.582-1.943-.61-3.01-1.486-3.543-2.705s-.381-2.705.076-4.458c.229-.914.648-1.79.838-2.705q.344-1.485.915-2.858c.343-.914.724-1.752 1.18-2.59 1.144-2.21 2.477-4.154 3.85-6.135 2.17-3.162 4.305-6.287 5.41-10.173q.686-2.286 1.028-4.8l-3.048-.23a11.6 11.6 0 0 1-1.22 1.563c-3.466 3.924-8.153 7.544-12.23 10.744-4.496 3.506-9.754 6.782-13.64 10.935-3.239 3.544-5.83 9.145-2.934 13.107 1.41.648 2.82 1.334 4.23 1.981.152-.19.266-.495.419-.838.419-.952.61-1.18 1.447-1.676.648 1.41 1.296 2.629 2.515 3.62a8 8 0 0 0 1.524.914c.305.076.572.19.877.267-.077-2.134.647-3.391 1.6-5.297 1.6 3.925 4.496 6.173 8.382 7.659" style="fill:#ed1c24"></path><path d="m155.453 196.326-.38-.076a28 28 0 0 1-1.22-.114c-.343-.038-.762-.114-1.22-.152-1.028-.153-2.057-.381-3.085-.61-1.906-.495-3.734-1.105-5.449-1.677-1.867 0-4.267 0-5.868-1.066-1.295 0-2.667-.305-3.772-.953h-.076c-2.057 0-3.848-.229-5.677-1.181-1.829-.914-4.648-3.505-4.534-5.791.038-1.105.381-1.944.953-2.515.61-.724 1.524-1.067 2.476-1.22 1.181-.19 4.877.305 6.325.763 1.22.38 2.362.99 3.43 1.676.723.457.8.953 1.447.457.038-.038.114-.076.152-.114.724-.42 1.067.229 1.372.762.343.572.838 1.22 1.562 1.295.8.115 1.258.115 2.058.496.228.114.495.19.8.19.647 0 1.295.19 1.752.648.953.914 1.677-.99 3.087 1.029.952 1.333 1.371.343 1.79-.457 1.067-2.058 2.325-2.363 3.239.152.724 1.981 2.057 4.115 4.496 3.886 2.553-.19 5.372-1.295 6.934-3.39.953-1.296 1.41-3.01 1.448-4.611.305.343.496.762.61 1.448.457-2.21 1.372-4.039 2.248-5.563 1.067-1.753 1.714-2.096 1.067-4.267 1.79-1.41.152-2.553-1.296-3.277-1.6-.838-3.581-1.067-5.41-.99-1.753-1.106-3.582-2.096-5.334-2.973-1.372-.685-2.02.458-3.544.61-.19-.457.381-1.295 1.181-1.676-1.486-.648-1.98-.115-3.543.152.152-.381.42-.914.838-1.257a87 87 0 0 0-4.42-1.6c-4-1.296-8-2.363-12.192-3.392-2.057-.533-3.391-1.41-4.534-2.629.343.953.533 1.944 1.181 2.972-.838-.533-1.486-1.448-1.867-2.171-.152-.229-.419-.381-.648-.496.039.877.305 2.4.229 3.544-.038.647-.076 1.333-.952 1.18-.191 0-.496-.075-1.03.077-1.752.533-5.143 2.248-6.134-.114 1.03.038 1.22.38 1.639.495s.99-.076 1.905-.229c0-.038-.038-.038-.038-.076-.343-.419-.572-.99-.8-1.486.419.076 1.638.229 2.4-.571.076-.076.076-.153.076-.267-.876.229-1.714.114-2.02-.038 1.334.076 1.754-.724 1.525-1.41-.076-.19-.152-.38-.19-.533-.115.762-.42 1.562-1.22 1.41-1.6-.572 1.753-3.01 2.324-3.544-1.98-.114-3.543 3.505-5.982 4.191.039.038 3.049-3.315 3.353-3.734.496-.495 1.03-.914 1.639-1.18-1.791-.649-4.687 4.61-6.859 5.18.724-.837 1.639-1.904 2.515-2.97.915-1.182 1.753-2.363 2.743-3.087-.762-.42-1.447-1.067-1.752-2.058 1.867 1.258 4.343 1.563 6.248 2.744-2.895-4.115-7.163-5.906-10.858-1.181-.153-.534-.115-.953.114-1.334 1.41-1.981 4.153-2.553 5.791-2.477-3.505-1.6-7.391-.038-11.316 4.077-.038-.533-.152-1.028.114-1.486.953-1.676 3.696-3.315 5.982-4.115-1.943-1.028-3.467.343-5.22 1.03-.266-1.106 1.41-1.868 2.668-2.249-1.982-.724-2.096-.19-3.239.305-.114-.762.343-1.143 1.029-1.334-5.41-2.438-11.354-5.143-15.012-9.144-.838 2.591-1.334 5.106-.534 7.849-.571-.229-1.105-.457-1.486-1.067-.38 1.638-.914 3.01-1.943 4.23l-.8-.839c0 .305-.114.572-.19.876-.953-.457-1.715-.533-2.515-1.905-.267 1.105-.381 2.4-.267 3.506-.457-.229-1.18-.534-1.562-.839 0 .23.038.458.114.8.229.991.762 2.172 1.258 3.392 1.028 2.362-1.524 1.219-2.591.571-.42-.267-.8-.533-1.22-.8-.114 7.468 3.24 9.22 7.507 12.878-8.84.648-8.42 6.058-12.307 11.812a20.5 20.5 0 0 1-3.2 3.81c2.019.61 4.038.495 6.02-.19 2.666-.915 4.343-1.449 7.162-.725-1.447 3.087-2.057 6.02-2.019 9.411.914-.228 1.829-.419 2.781-.343 2.477.153 4.61.077 7.087-.457-1.295 3.506-1.219 5.715-.38 9.373.266 1.257.418 2.515.418 3.81 3.734-.99 5.906-2.857 7.925-6.134 1.6 3.277 2.325 6.21 2.058 9.944.99-.838 1.79-1.867 2.515-2.933 2.362-3.468 4.153-3.544 7.696-4.84a19 19 0 0 0 2.553-1.142c2.553-1.41 4.077-.305 6.668-.42 1.714-.076 3.086-.761 4.877-.647 1.866.076 3.581.686 5.41.99 2.896.534 5.22 1.22 8.04 2.172-.153 0-.077-1.028.19-1.143.8 1.029 1.905 2.02 3.124 2.248 1.143.229 1.829-.305 2.21-.952.762-1.181.457-3.125-.648-4.23" style="fill:#ed1c24;fill-opacity:1"></path><path d="M110.57 200.06c-2.134 2.744-4.953 3.925-8.116 4.725-2.59 4.153-10.897 10.783-9.068 15.964.762-.952 1.258-2.286 1.715-3.39 1.943-4.725 6.096-8.307 10.973-9.64 4.039-1.105 7.049-.915 4.496-7.659" style="fill:#ed1c24"></path><path d="M101.083 199.908c-.61-2.781-1.143-5.144-.343-7.925-1.715.228-3.43.152-5.144.038-3.658-.229-5.144 4.039-6.287 6.896-1.79 4.344-2.4 5.83-7.582 8.611-4.762 2.553-6.363 11.011-6.363 15.927-.038 5.296-1.752 5.562-3.39 9.106-.572 1.257 0 1.371.8.533 2.247-2.4 3.162-5.334 5.905-7.391 3.963-2.896 8.725-4.725 13.183-6.63.42-5.182 4.382-8.42 7.468-12.154 2.172-2.63 2.515-3.582 1.753-7.011" style="fill:#ed1c24"></path><path d="M91.634 191.411c-.077-3.048.228-5.982 1.41-8.84-1.715-.152-3.24.534-4.801 1.068-2.172.724-4.04.8-5.944.38-2.02-.457-2.858-.342-4.572.991-1.677 1.296-3.239 2.706-4.534 4.153-3.353 3.734-4.61 8.611-6.516 13.145a26.7 26.7 0 0 1-2.172 3.963c1.334-.42 2.706-.686 4.115-.61 5.678.267 7.583 4 12.498.648 4.724-2.515 5.258-3.886 6.934-7.887.99-2.477 2.248-4.725 3.582-7.01M80.47 181.848c1.257-1.143 2.4-2.4 3.39-3.848 3.049-4.572 3.697-10.935 10.136-12.155-2.705-1.905-4.534-4.457-5.258-7.734-3.353-1.143-6.706-3.163-8.573-6.249-.419 1.372-.267 2.667-.114 4.039-1.791-.267-3.315-.686-4.801-1.829a9.5 9.5 0 0 1-1.981-2.248c-.229.534-.496.99-.838 1.296.647 1.066 1.295 2.133 2.019 3.124 2.172 3.01-.114 2.743-2.439 2.4-1.257-.19-2.933-.457-4.19-.076-2.477.724-4.42.686-7.011.42-2.286-.268-4.306-.496-6.706.952 3.2 1.486 5.6 4.115 7.544 6.934 4.915 7.24 10.783 12.002 18.822 14.974" style="fill:#ed1c24"></path><path d="M71.25 153.73c-.648.075-1.41-.115-2.21-.61-1.753-1.105-2.896-2.439-3.544-3.887-.419-.266-1.029-.495-1.22-.571.077 1.028.763.686.915 1.333-.647.534-1.79.457-2.514.19-.115.496-.267.991-.572 1.372-2.629-.19-5.563-.495-8.154.267.229.915.877 1.981 1.296 2.858-3.658.38-6.44 1.524-9.792 2.857-2.553 1.029-4.572 1.067-7.506.038-1.829-.647-3.582-.876-5.525-.571.915 1.257 1.639 2.667 2.667 3.81 1.334 1.486 6.173 1.829 8.154 1.79 4.572-.266 7.773-3.466 11.735-4.8 1.79-.61 3.658-.572 5.982-.19 2.439.304 4.153.304 6.515-.343 1.448-.42 3.239-.153 4.725.038 1.143.152 1.41.076 1.22-.267-.496-1.067-1.487-2.21-2.173-3.315M78.031 209.205c-3.314.114-6.172-2.058-9.487-2.21-1.638-.038-3.315.38-4.839 1.029-4.076 5.6-7.239 11.887-8.801 18.67-.152.609-.267 1.18-.42 1.79.534.762 1.106 1.486 1.64 2.248a120 120 0 0 0 5.943 7.392c1.257-.839 2.553-1.639 3.772-2.553 4.42-3.2 8.077-6.401 8.154-12.04.076-4.915 1.18-10.288 4.038-14.326M65.42 201.775c1.333-3.2 2.324-6.592 3.886-9.64-6.744 2.286-12.002-2.133-16.726-6.553-6.554 1.562-8.611 7.43-10.44 12.726-.648 1.905-1.372 3.772-2.248 5.562l.8 1.6c.686-.228 1.334-.38 1.943-.533 5.83-1.18 9.716 2.363 15.127 3.048 4.457.572 6.096-2.514 7.658-6.21" style="fill:#ed1c24"></path><path d="M78.565 182.61c-6.782-2.629-12.269-7.24-16.727-12.916-3.772 2.667-8 3.162-12.344 4.038a49 49 0 0 0-7.773 2.21c4 .915 7.963 4.991 10.973 7.735 4.382 4 9.754 8.725 14.898 7.2 4.077-1.218 6.82-5.943 10.973-8.267M90.262 146.757c-.876.152-1.486-.61-1.943-1.6-.115 1.295.228 2.362 1.638 3.314.686.457 1.334.572 1.334-.495.419.228.838.419 1.219.686.076-1.83.686-2.972 1.905-4.306.305.953.457 2.02 1.105 2.82.114-.496.419-.99.61-1.448l1.295 1.448c.838-1.448 1.067-3.2 1.372-4.801l.419.495c-.115-2.476.952-4.839 1.714-7.163 3.087-9.182 4.344-19.012 1.486-28.385-.343 1.448-.114 3.581-.305 5.143a39 39 0 0 1-1.219 6.554c-1.18 4.077-3.39 7.315-5.639 10.554-.838 1.257-1.676 2.515-2.514 3.81-1.6 2.477-1.105 6.706.533 9.564-2.096.038-2.439-4.382-2.477-6.097-1.066 2.4.19 5.449 1.563 7.468-1.486-.38-2.287-2.172-2.744-3.962-.495 1.676.648 3.924 1.677 5.067-1.181 0-1.943-1.257-2.439-2.59-.457 1.104.8 3.276 1.41 3.924M104.969 139.556c.686-1.067 1.372-2.21 1.943-3.392 1.334-2.743 1.639-5.372 2.096-8.344.419-2.629.8-5.296 1.448-7.925.38-1.41.762-2.781 1.066-4.19-.038 0-.038.037-.076.037-1.524 1.181-3.238 2.4-4.839 3.658-.914.762-1.257 1.981-1.371 3.315-.457 4.8-1.372 8.84-3.01 13.411-.076.229-.153.458-.229.648a15.8 15.8 0 0 0 2.972 2.781M135.602 158.72c-1.104-1.867-1.828-3.924-4.038-4.762 1.143 1.638 2.286 3.696 4.038 4.762" style="fill:#ed1c24"></path><path d="M88.51 156.587c-.191-1.715.152-3.2.304-4.915a25 25 0 0 0 3.124 2.133c-.457-1.066-1.066-2.362-1.105-3.581-1.905-.572-3.01-1.448-3.543-2.667-.495-1.22-.381-2.705.076-4.458.229-.915.648-1.79.838-2.705.267-.99.534-1.943.915-2.858.343-.914.724-1.753 1.181-2.59 1.143-2.21 2.477-4.154 3.848-6.135 2.172-3.162 4.344-6.287 5.449-10.173a40 40 0 0 0 1.18-6.287c.191-1.638.268-3.315.23-5.105-1.753 2.705-2.363 5.372-4.687 7.925-3.467 3.924-8.154 7.544-12.23 10.744-4.458 3.506-9.793 6.782-13.64 10.935-3.887 4.191-6.82 11.354-.687 15.127 1.334.8 1.791.457 2.363-.915.419-.952.61-1.143 1.486-1.638.61 1.371 1.257 2.59 2.476 3.581.762.572 1.562.99 2.439 1.22-.076-2.134.647-3.43 1.6-5.297 1.638 3.887 4.496 6.173 8.382 7.659" style="fill:#ed1c24"></path><path d="m20.194 111.856.266 2.286c7.811-2.477 15.698-4.648 23.661-6.592l3.925 10.63c-8.84 2.02-17.641 4.344-26.29 7.05l.267 2.247c16.878-5.22 34.214-9.106 51.627-12.192a308 308 0 0 1 23.28-3.2c1.295-2.21 2.057-4.496 3.62-6.63.952-1.296 1.98-2.02 2.666.038.686 1.943 1.182 3.924 1.563 5.906 12.459-.877 24.88-.953 37.339-.229.457-.457.876-.914 1.295-1.372 2.477-2.82 3.125-5.982 5.22-8.84.915-1.295 1.981-2.018 2.667.039 1.258 3.543 1.905 7.277 2.096 11.011.876.115 1.752.19 2.629.267.343-.19.647-.42.952-.648 1.22-.952 4.84-4.42 3.925-.152-.076.457-.19.914-.305 1.333 5.525.686 11.011 1.486 16.536 2.477 17.412 3.086 34.71 6.973 51.627 12.192l.267-2.248c-8.65-2.705-17.45-5.029-26.29-7.048l3.924-10.63c7.964 1.943 15.85 4.114 23.661 6.59l.267-2.285c-17.412-5.487-35.282-9.525-53.266-12.726-34.748-6.21-69.115-6.172-103.864 0-17.984 3.2-35.853 7.24-53.265 12.726" style="fill:#ed1c24"></path><path d="M120.476 279.235c1.639.648 3.277 1.22 4.915 1.79 1.296-.419 2.591-.914 3.887-1.371l-1.372-2.096v-.762c-1.372.038-2.667.038-4.039.038-.952 1.105-2.095 1.944-3.39 2.4M71.973 58.819c-19.05 3.238-37.949 7.43-56.428 13.145l4.649 39.892c17.412-5.487 35.281-9.525 53.265-12.726 34.749-6.172 69.116-6.21 103.864 0 17.984 3.2 35.854 7.24 53.266 12.726l4.648-39.892c-18.479-5.715-37.377-9.907-56.428-13.145a314.3 314.3 0 0 0-106.836 0" style="fill:#fff"></path><path d="m57.266 63.353 13.374-2.477c1.219-.228 2.667.762 2.857 1.982l1.182 6.4c.228 1.22-.763 2.668-1.982 2.896l-.533.077 2.438 13.106.61-.114c1.181-.229 2.629.8 2.858 1.981l1.18 6.401c.23 1.22-.8 2.667-2.019 2.896l-13.297 2.477c-1.22.228-2.667-.762-2.896-1.982l-1.18-6.4c-.23-1.22.761-2.668 2.018-2.896l.534-.077-2.439-13.106-.61.114c-1.18.19-2.628-.762-2.857-1.981l-1.219-6.401c-.229-1.22.762-2.667 1.981-2.896"></path><path d="m57.495 64.572 13.373-2.476c.61-.115 1.334.38 1.448.99l1.143 6.401c.115.61-.38 1.334-.99 1.448l-1.753.305 2.896 15.545 1.79-.343c.61-.114 1.334.381 1.448.99l1.181 6.402c.115.61-.38 1.333-.99 1.448l-13.336 2.476c-.61.115-1.333-.38-1.448-.99l-1.18-6.401c-.115-.61.38-1.334.99-1.448l1.79-.305-2.895-15.545-1.79.343c-.61.114-1.334-.381-1.449-.991l-1.219-6.401c-.114-.61.381-1.334.99-1.448" style="fill:#fff"></path><path d="m142.92 165.654 2.232 12.096-25.2 4.68-2.232-12.096 5.688-1.008-6.336-33.912-5.688 1.008-2.304-12.096 25.272-4.68 2.232 12.096-5.688 1.008 6.336 33.912z" style="fill:#ed1c24" transform="matrix(.52918 0 0 .52918 0 0)"></path><path d="m95.253 65.258-.457-4.725c-.114-1.219 1.029-2.59 2.248-2.705l13.488-1.295c1.22-.115 2.59.99 2.705 2.248l.648 6.477c.114 1.257-1.029 2.59-2.248 2.705l-.572.076 2.134 22.175c.114 1.22-.99 2.591-2.248 2.706l-6.477.61c-.534.075-1.791-.458-2.134-.877l-5.03-6.02.496 5.03c.152 1.257-.99 2.59-2.248 2.742L82.07 95.701c-1.257.114-2.59-1.029-2.705-2.248l-.61-6.515c-.114-1.22 1.03-2.591 2.248-2.706l.534-.038-1.258-13.22-.571.037c-1.257.115-2.591-1.028-2.705-2.248l-.61-6.477c-.114-1.22 1.029-2.553 2.248-2.705l9.83-.953c.534-.038 1.79.496 2.134.915z"></path><path d="m89.767 60.343 10.592 13.107-.572-5.601-1.79.152c-.61.076-1.296-.495-1.334-1.105l-.61-6.477c-.076-.61.496-1.295 1.105-1.333l13.488-1.334c.61-.038 1.296.533 1.372 1.143l.61 6.477c.076.648-.496 1.296-1.106 1.372l-1.79.152 2.21 23.433c.076.61-.496 1.295-1.105 1.333l-6.478.648c-.266 0-.914-.229-1.066-.457l-11.05-13.221.534 5.753 1.79-.19c.648-.077 1.296.495 1.372 1.104l.648 6.477c.038.648-.496 1.334-1.143 1.372l-13.488 1.296c-.61.076-1.296-.496-1.372-1.105l-.571-6.516c-.077-.61.495-1.295 1.105-1.333l1.79-.19-1.524-15.698-1.79.152c-.648.076-1.296-.495-1.372-1.105l-.61-6.477c-.038-.61.534-1.258 1.143-1.334l9.907-.952c.38-.038.876.152 1.105.457" style="fill:#fff"></path><path d="m210.528 123.75-5.76.576 4.464 46.584-12.24 1.152-25.704-30.744 1.944 20.736 5.76-.648 1.152 12.312-25.488 2.448-1.152-12.312 5.76-.504-3.384-34.416-5.688.576-1.152-12.168 18.576-1.872 25.128 30.888-2.016-20.736-5.76.576-1.152-12.24 25.488-2.448z" style="fill:#ed1c24" transform="matrix(.52918 0 0 .52918 0 0)"></path><path d="m172.751 61.753 1.334 12.306 4.991-11.354c.381-.838 1.715-1.6 2.629-1.448l13.64 2.096c1.22.152 2.248 1.562 2.096 2.781l-.99 6.44c-.191 1.257-1.601 2.286-2.82 2.095l-.305-.076-2.02 13.183.343.038c1.22.229 2.248 1.638 2.058 2.858l-.99 6.439c-.191 1.219-1.601 2.248-2.82 2.057l-12.307-1.905c-.838-.114-1.562-.8-1.905-1.638-.571.647-1.638 1.143-2.362 1.028l-5.068-.762c-.762-.114-1.676-.952-1.981-1.752-.572.724-1.524 1.219-2.362 1.067l-12.307-1.867c-1.22-.19-2.286-1.6-2.096-2.82l.953-6.439c.19-1.22 1.6-2.248 2.82-2.096l.342.077 2.02-13.183-.343-.038c-1.22-.191-2.286-1.6-2.096-2.82l.953-6.44c.19-1.218 1.6-2.247 2.82-2.095l13.678 2.096c.914.114 1.98 1.257 2.095 2.172"></path><path d="m171.532 61.867 1.867 16.917 6.82-15.583c.19-.42.876-.8 1.296-.724l13.64 2.095c.61.076 1.143.762 1.029 1.372l-.953 6.439c-.076.648-.8 1.143-1.41 1.067l-1.524-.267-2.4 15.622 1.562.266c.61.076 1.143.8 1.029 1.41l-.99 6.44c-.077.609-.801 1.104-1.41 1.028l-12.307-1.905c-.61-.076-1.143-.8-1.03-1.41l.877-5.868-2.82 5.944c-.19.42-.876.762-1.295.724l-5.067-.8c-.457-.038-.99-.61-1.067-1.029l-.953-6.82-.952 6.173c-.076.61-.8 1.105-1.41 1.028l-12.268-1.867c-.61-.114-1.144-.8-1.067-1.41l.952-6.438c.115-.61.8-1.144 1.41-1.067l1.562.266 2.4-15.621-1.562-.229c-.647-.114-1.143-.8-1.066-1.41l.99-6.439c.076-.61.762-1.143 1.372-1.028l13.678 2.057c.457.076.99.61 1.067 1.067m-5.296 23.813-1.22-8.42-1.142 7.582 1.562.267c.305.038.61.266.8.571m12.04 1.715a1.18 1.18 0 0 1 .838-.229l1.6.229 1.105-7.506z" style="fill:#fff"></path><path d="m361.368 135.63-5.184 34.128 5.256.864-1.872 12.168-23.256-3.6 1.8-12.168 5.328.792 4.824-32.184-20.016 42.408-9.576-1.512-6.768-46.368-4.896 32.112 5.256.864-1.872 12.168-23.256-3.6 1.872-12.096 5.184.72 5.256-34.128-5.328-.72 1.872-12.168 25.776 3.888 4.536 40.608 16.416-37.44 25.704 3.96-1.8 12.168z" style="fill:#ed1c24" transform="matrix(.52918 0 0 .52918 0 0)"></path><path d="M105.693 260.832c-.61-.381-1.22-.762-1.79-1.181.152-.267.266-.534.38-.838.915.19 1.83.266 2.705.228.877 0 1.715-.152 2.515-.343-.229 3.848-.114 7.773-.114 11.66.038 1.218.076 2.971.114 4.19l-3.239-1.714c-.19-.305-.38-1.448-.571-1.753q.114-2.571.114-5.144c0-.8 0-1.6-.038-2.438s-.038-1.753-.076-2.667" style="fill:#fff"></path><path d="M117.047 273.482h.991v.686h-.991z" style="fill:none;stroke:#000;stroke-width:.11430386"></path><path d="M119.638 272.529c-2.286.686-5.41-.953-6.706-2.59-.99-1.296-1.448-2.706-1.448-4.306 0-5.868 7.583-6.63 10.821-2.4 2.782 3.505 2.096 10.439-1.638 12.992-2.058 1.486-5.601 1.029-7.354-.762-.152-.648-.266-1.296-.419-1.943 1.905 2.248 6.02 2.59 6.744-.991m.152-1.41c.343-2.476.077-8.04-2.629-9.182-2.171 1.6-2.057 5.372-.61 7.391.801.953 1.982 1.791 3.24 1.791M126.268 271.767c1.524 0 2.781 0 4.305-.152v-5.64c-1.524 1.982-2.705 3.887-4.305 5.792m-.839 2.438c-.304-.99-.61-1.905-.952-2.895a499 499 0 0 0 7.658-10.059c.343 0 1.143 0 2.058-.267-.115 3.353 0 6.744 0 10.097.419-.076.876-.19 1.333-.267-.152.8-.305 1.6-.457 2.363-.305.076-.571.152-.876.228 0 1.296.076 2.591.076 3.887l-2.896 1.257c-.152-.19-.686-1.067-.838-1.257 0-1.143.038-2.21.038-3.315q-2.571.228-5.144.228M142.499 272.377c1.143-.877 2.324-2.515 2.324-4.001 0-1.334-1.181-1.715-2.362-1.6-1.22.952-2.248 2.095-2.248 3.696 0 1.41.914 2.095 2.286 1.905m0-7.011c1.029-.724 2.057-2.02 2.057-3.315 0-1.181-.876-1.6-2.057-1.6-1.067.686-2.058 1.714-2.058 3.01 0 1.181.877 1.981 2.058 1.905m2.629-7.087c1.524-.114 3.01.153 3.01 1.905 0 1.6-.953 3.124-2.096 4.115 1.524-.19 2.477.153 2.477 1.79.038 4.04-5.449 9.145-9.45 8.955-1.714-.077-2.857-1.067-2.552-3.468 0-2.019.838-3.314 2.438-4.534-2.248-.343-2.59-2.324-1.98-4.076.99-2.934 5.333-4.42 8.153-4.687M229.027 125.23l1.295-11.088c-7.81-2.477-15.697-4.648-23.66-6.592l-3.925 10.63c8.84 2.02 17.64 4.344 26.29 7.05" style="fill:#fff"></path><path d="m145.966 105.417.572.114c.152-1.295.304-2.553.457-3.848h-.686q.172-1.83.457-3.658c2.439.152 4.915.343 7.354.495-.229 1.6-.42 3.049-.648 4.61-.457 0-.876-.037-1.334-.076-.114.648-.19 1.258-.266 1.906.419.038.876.076 1.333.076-.228 1.562-.419 3.048-.647 4.61-2.363-.19-4.725-.343-7.087-.533.114-1.258.266-2.477.495-3.696"></path><path d="M146.576 106.331c.152.038.38.038.61.038.114-.914.228-1.829.342-2.705.076-.914.19-1.79.305-2.705-.267 0-.495-.038-.724-.038.076-.724.152-1.41.267-2.096 1.943.115 3.962.267 5.905.42-.076.495-.152 1.028-.228 1.523-.076.534-.153 1.067-.229 1.563-.571-.039-1.18-.077-1.752-.115l.114-1.029-1.257-.114c-.077.61-.153 1.105-.23 1.677.534.038 1.106.114 1.716.152-.115.686-.191 1.372-.305 2.096-.572-.038-1.143-.077-1.677-.153-.076.572-.152 1.143-.19 1.677.419.038.838.038 1.219.076.038-.305.076-.648.152-.99.572.037 1.143.114 1.715.152-.076.533-.152.99-.229 1.524-.076.533-.114 1.067-.19 1.524-1.867-.115-3.734-.229-5.601-.381.076-.686.152-1.41.267-2.096" style="fill:#fff"></path><path d="m180.524 110.332.686.114c.266-.952.571-1.867.838-2.82a37 37 0 0 1-2.02-.266c.382-1.638.877-3.277 1.41-4.877 2.553.305 5.106.724 7.697 1.105l-1.6 4.915a40 40 0 0 0-2.096-.305c-.305.915-.61 1.829-.876 2.743l.8.077c-.381 1.219-.8 2.438-1.181 3.657-1.6-.266-3.125-.533-4.687-.8a62 62 0 0 1 1.029-3.543"></path><path d="M181.057 111.17c.229.038.496.038.724.076a91 91 0 0 1 1.677-5.486c-.267-.077-.534-.115-.762-.153-.153.42-.267.877-.381 1.296-.458-.038-.915-.115-1.372-.153.267-1.143.648-2.324 1.029-3.467 2.057.267 4.115.648 6.172.953l-1.143 3.429c-.419-.038-.876-.153-1.333-.19.114-.458.266-.877.419-1.334-.267-.038-.496-.077-.762-.115-.572 1.83-1.181 3.696-1.715 5.525.229.076.457.114.762.114-.228.724-.495 1.448-.724 2.172-1.105-.19-2.172-.38-3.238-.533.19-.724.419-1.448.647-2.134" style="fill:#fff"></path><path d="M195.955 112.923c.267.076.495.114.724.19.495-1.371.99-2.705 1.486-4.077l-.724-.19c.419-1.181.8-2.362 1.257-3.544 1.6.381 3.163.724 4.763 1.03-.457 1.18-.876 2.4-1.334 3.58-.228-.076-.457-.114-.724-.19a49 49 0 0 0-.762 2.172h-.038c-.076.229 0 .038-.038.19-.228.572-.457 1.144-.648 1.753l.724.19c-.457 1.182-.876 2.363-1.333 3.506-1.524-.343-3.086-.648-4.61-1.067a56 56 0 0 0 1.257-3.543"></path><path d="M196.45 113.837c.229.038.457.114.724.153.305-.915.648-1.83.953-2.744.343-.952.686-1.867.99-2.781-.228 0-.457-.076-.685-.153.228-.685.457-1.41.723-2.133 1.105.266 2.21.495 3.315.724-.305.724-.533 1.41-.8 2.133-.267-.076-.495-.114-.724-.19-.343.914-.686 1.829-1.029 2.781-.342.915-.685 1.83-.99 2.744.228.038.457.114.724.152-.267.686-.534 1.41-.8 2.134-1.067-.267-2.134-.42-3.125-.686.267-.686.496-1.41.724-2.134" style="fill:#fff"></path><path d="M165.321 111.322c-.914-.152-1.79-.228-2.705-.342.229-1.525.572-3.125.915-4.649.419.076.876.114 1.295.19-1.143-1.257-.99-3.124-.228-4.495.914-1.6 2.59-2.324 4.229-1.524.914.152 1.79.266 2.705.38-.343 1.449-.724 2.782-.953 4.23a21 21 0 0 1-1.524-.19c.724.647 1.105 1.41 1.143 2.247.115 1.83-.914 3.734-2.667 4.268-.724.228-1.562.228-2.21-.115"></path><path d="M165.017 110.522c-.534-.076-1.03-.114-1.562-.19.076-.534.228-1.067.342-1.6s.19-1.03.305-1.563c.61.077 1.22.153 1.791.229-.038.152-.114.61.038.99a.76.76 0 0 0 1.334-.114c.419-.876-.534-1.371-.839-1.524-1.333-.686-1.905-1.638-1.6-3.2.457-2.058 2.324-3.506 4.267-2.02.039-.076.039-.152.077-.19.495.038.952.076 1.41.152-.115.496-.23.953-.305 1.41-.115.457-.229.914-.305 1.372-.572-.077-1.105-.153-1.639-.229.039-.114.039-.533-.152-.762-.648-.952-2.02.381-.61 1.448 1.41 1.029 2.21 1.638 1.791 3.658-.228.838-.686 1.524-1.257 1.943-.876.648-2.286.8-2.972-.153z" style="fill:#fff"></path><path d="M91.329 99.092v-.114c1.029-.077 2.02-.153 3.048-.305.152 1.562.343 3.124.495 4.686-1.067.115-2.133.229-3.2.381-.381-.495-.686-.914-1.372-.914-.762.038-1.143.724-1.181 1.41-.076.762.267 1.6.952 2.019 1.143.686 1.639-.267 1.905-1.295 1.22-.115 2.4-.23 3.582-.381-.152 1.866-.42 3.505-1.981 4.762-1.334 1.029-3.086 1.22-4.61.572-1.258-.572-2.325-1.677-2.934-3.43-1.296-3.848 1.028-8.382 5.296-7.391"></path><path d="M92.243 100.273c-.038-.19-.038-.38-.076-.61.495-.038 1.029-.076 1.524-.152.114 1.067.267 2.134.381 3.2-.686.077-1.41.153-2.095.23-.8-1.068-2.477-1.22-3.24.037-.456.724-.494 1.677-.19 2.477.762 2.057 3.43 2.515 4.04.19.685-.076 1.447-.114 2.133-.228-.343 4.877-6.287 5.753-7.963.838-.534-1.6-.496-3.391.343-4.725 1.143-1.867 3.39-2.248 5.143-1.257" style="fill:#fff"></path><path d="M73.612 105.074c.266 1.067.495 2.172.8 3.238.305 1.105.419 2.248-.114 3.43-.877 2.057-3.277 2.438-4.992.99v.038c-.952-.8-1.486-1.867-1.829-3.048a112 112 0 0 1-.99-3.353l-.61.076c-.343-1.18-.686-2.362-1.029-3.505 2.82-.571 5.64-1.029 8.459-1.524.267 1.181.571 2.362.876 3.505zm-3.81.686c.19.61.38 1.257.571 1.905.076.38.19.762.381 1.371.305 1.03.61 1.03.381-.114-.152-.61-.305-1.181-.457-1.753a23 23 0 0 1-.42-1.524z"></path><path d="M72.697 104.464c.343 1.448.724 2.896 1.067 4.382.305.952.19 1.905-.152 2.59-.724 1.715-2.553 1.83-3.81.725-.686-.534-1.22-1.334-1.525-2.286-.38-1.448-.838-2.934-1.257-4.382-.19.038-.38.076-.61.114-.19-.686-.38-1.41-.61-2.095.992-.19 2.02-.381 3.01-.572.23.724.42 1.41.61 2.096l-.571.114c.457 1.448.838 2.896 1.257 4.344.42 1.524 2.248 1.257 1.83-.343a91 91 0 0 0-1.144-4.344c-.152.038-.343.038-.533.076-.229-.686-.381-1.371-.572-2.095 1.029-.153 1.982-.343 3.048-.534.19.724.343 1.41.534 2.096z" style="fill:#fff"></path><path d="M114.685 101.035c.038.457.076.953.076 1.41.038.419.076.914.114 1.41.115 1.943-.152 3.962-2.248 4.838-1.333.572-2.857.153-3.81-.876-.838-.876-1.257-2.02-1.333-3.2-.076-1.105-.229-2.21-.343-3.277h-.648c-.114-1.22-.229-2.362-.343-3.505.8-.077 1.6-.115 2.4-.153l6.478-.228c.114 1.143.19 2.324.343 3.467zm-4.039.114.114 1.372c.077.495.077.8.115 1.105s.038 1.486.38 1.524c.344.038.153-1.22.115-1.448-.038-.343-.076-.686-.076-1.105-.038-.495-.076-.952-.114-1.448z"></path><path d="M113.847 100.311c.076.724.152 1.448.19 2.172l.114 2.172a3.27 3.27 0 0 1-.685 2.438c-.458.648-1.143 1.105-1.982 1.105-.762.038-1.562-.305-2.133-.914-.572-.572-.99-1.448-1.105-2.4-.038-.725-.153-1.449-.19-2.172q-.115-1.029-.23-2.172c-.228.038-.418.038-.647.038a41 41 0 0 0-.19-2.058c1.028-.076 2.133-.114 3.238-.152.038.686.114 1.41.19 2.057-.19.039-.419.039-.61.039.077.723.115 1.447.191 2.133.115.724.153 1.486.229 2.172.038.648.533 1.143 1.067 1.143.571-.038.952-.571.914-1.22-.038-.723-.114-1.447-.152-2.171a37 37 0 0 1-.19-2.134h-.61c-.038-.647-.076-1.371-.153-2.057l3.239-.114c.114.724.114 1.41.19 2.057-.228.038-.457.038-.685.038" style="fill:#fff"></path><path d="M135.183 100.425c.229 1.448-.304 3.049-1.447 4.001l.076.076c.152.19.266.343.343.496h1.105c0 1.143-.039 2.286-.115 3.467l-2.934-.076-.685-1.03-.038 1.03-4.649-.077c0-1.143.038-2.286.038-3.429h.8c0-1.333.039-2.629.039-3.924h-.763v-3.734c1.6.076 3.544-.076 5.068.114 1.753.267 2.896 1.296 3.162 3.086"></path><path d="M132.326 101.378c.038-1.181-.953-1.22-1.753-1.181 0 .762-.038 1.524-.038 2.286.762 0 1.79.19 1.79-1.105m-.915-3.353c1.905 0 3.163 1.372 3.087 3.239-.077 1.219-.724 2.438-1.83 2.934.344.533.725 1.028 1.106 1.485.228.039.495.039.762.039 0 .647-.038 1.333-.077 1.98l-1.828-.075c-.724-1.067-1.448-2.096-2.134-3.2-.038.418-.038.837-.038 1.256h.38l-.075 1.944-3.163-.038c0-.648.038-1.296.038-1.982h.762c0-1.79.077-3.62.077-5.41h-.762v-2.21c1.219 0 2.476 0 3.695.038" style="fill:#fff"></path><path d="M38.978 67.392c4.267-1.105 8.725-.343 12.344 1.829 3.849 2.286 6.478 5.943 7.544 10.249l.724 2.895c1.03 4.268.648 8.459-1.752 12.498-2.134 3.62-5.677 6.477-9.983 7.582l-15.736 3.962c-1.18.305-2.705-.61-3.01-1.79l-1.562-6.21c-.343-1.22.572-2.706 1.791-3.01l.343-.077-3.277-13.069-.343.076c-1.219.305-2.705-.571-3.01-1.79l-1.6-6.21c-.305-1.182.61-2.706 1.79-3.01zm2.933 11.582c-.914-.038-1.905.191-3.01.572l3.087 12.307c1.447-.267 2.59-.724 3.429-1.41 2.324-1.867 2.133-5.601.952-8.04-.914-1.79-2.362-3.276-4.458-3.429"></path><path d="M46.026 91.586c2.439-1.867 2.896-5.182 2.172-7.963-.952-3.772-4.115-6.744-8.306-5.715l-2.515.647 3.696 14.784c1.677-.42 3.544-.686 4.953-1.753m-6.744-23.013c3.963-.99 8.04-.305 11.393 1.714 3.81 2.248 6.058 5.677 7.087 9.907l.457 1.79c2.21 9.107-2.248 17.146-11.507 19.47l-14.897 3.734c-.572.153-1.334-.305-1.486-.876l-1.6-6.21c-.153-.61.304-1.372.914-1.525l1.562-.343-3.886-15.507-1.563.42c-.61.152-1.371-.306-1.524-.915l-1.562-6.21c-.152-.572.267-1.334.877-1.487z" style="fill:#fff"></path><path d="M39.587 69.792c7.163-1.829 14.86 2.439 16.803 9.983l.838 3.429c1.981 7.125-2.705 14.973-9.982 16.84l-15.736 3.963-1.562-6.21 2.743-.686-4.496-17.908-2.743.724-1.6-6.21zm4.344 24.118c6.744-1.714 7.125-9.792 3.696-14.326-1.982-2.59-4.915-3.658-8.002-2.858l-3.772.953 4.344 17.184c1.22-.305 2.476-.648 3.734-.953" style="fill:#ed1c24"></path><path d="M203.575 68.84c4.763-2.058 10.326-2.172 15.164-.305 14.974 5.715 15.317 28.004.61 34.29-4.763 2.02-10.287 2.135-15.126.268-14.936-5.716-15.355-28.005-.648-34.253m5.563 22.403c1.524.572 3.353.533 4.839-.114 4.42-1.867 4.305-9.03-.153-10.783-1.524-.61-3.314-.571-4.838.076-4.382 1.905-4.306 9.068.152 10.821"></path><path d="M204.07 69.944c4.458-1.867 9.678-1.98 14.212-.266 13.907 5.334 14.25 26.175.61 32.005-4.458 1.905-9.716 2.02-14.212.267-13.907-5.335-14.288-26.138-.61-32.006m4.649 22.442c1.79.724 3.962.686 5.753-.114 5.41-2.324 5.296-10.897-.19-13.069-1.83-.724-3.963-.686-5.792.076-5.372 2.363-5.296 10.935.229 13.107" style="fill:#fff"></path><path d="M203.27 85.947c.19 11.126 16.574 10.82 16.422-.305-.19-11.125-16.574-10.82-16.422.305m-7.963.152c-.457-21.45 32.005-22.06 32.348-.647.457 21.527-31.967 22.213-32.348.647" style="fill:#ed1c24"></path><path d="m117.428 81.184 5.334-13.297c-1.028-.305-1.905-1.372-1.905-2.4l.115-6.554c.038-1.22 1.295-2.476 2.552-2.438l11.545.228c.8 0 2.02.877 2.286 1.639l8.42 23.318 1.334.038c1.22.038 2.477 1.257 2.439 2.514l-.077 6.478c0 1.257-1.257 2.476-2.514 2.476l-13.526-.266c-.8 0-1.6-.572-2.058-1.296-.495.724-1.333 1.257-2.133 1.22l-13.526-.23c-1.22-.037-2.439-1.295-2.439-2.514l.114-6.515c.039-1.258 1.296-2.477 2.553-2.439z"></path><path d="m118.266 82.442 6.249-15.66-1.181-.038c-.61 0-1.22-.648-1.22-1.257l.115-6.516c0-.647.648-1.257 1.257-1.219l11.583.19c.381 0 .99.458 1.143.839l8.687 24.118 2.21.038c.61.038 1.22.648 1.22 1.257l-.077 6.516c0 .61-.648 1.219-1.257 1.219l-13.526-.267c-.61 0-1.22-.61-1.22-1.257l.115-6.477c0-.648.648-1.258 1.257-1.22h1.143l-.076-.19-6.287-.076-.038.19h1.067c.61 0 1.22.648 1.22 1.258l-.115 6.515c-.038.61-.648 1.22-1.295 1.22l-13.488-.268c-.648 0-1.258-.647-1.22-1.257l.115-6.515c0-.61.647-1.22 1.257-1.22zm14.022-8.383-.496-1.828c-.228.61-.419 1.219-.61 1.79z" style="fill:#fff"></path><path d="m119.105 83.699 7.2-18.174h-2.971l.114-6.554 11.583.229 9.03 24.918 3.01.076-.076 6.516-13.526-.267.152-6.515 2.782.038-.762-2.667-8.116-.115-.876 2.667 2.743.038-.114 6.478-13.526-.229.114-6.515zm14.821-8.382-2.02-7.278c-.838 2.4-1.638 4.801-2.438 7.202z" style="fill:#ed1c24"></path><path d="M199.194 55.39c.685-3.086-.572-6.63-3.887-7.506a5 5 0 0 0-4.039.648c-.266.152-.61-.077-.571-.381.305-1.563.571-3.125.876-4.687-1.41-.267-2.781-.571-4.19-.762-.115.495-.191.953-.268 1.448l-.228 1.257c.076 0 .19.038.267.038.228.038.495.077.723.153.191.038.343.266.305.419a540 540 0 0 0-.952 5.03c-.267 1.409-.572 3.2-.877 5.029a.42.42 0 0 1-.457.304c-.305-.076-.61-.114-.952-.19-.153.99-.343 1.943-.496 2.896 1.334.228 2.667.495 4.001.723.076-.342.114-.647.19-.952.039-.343.496-.42.686-.152.839 1.18 2.02 1.905 3.315 2.095 3.353.457 5.906-2.438 6.554-5.41m-5.373 2.362c-.914.267-1.905.038-2.667-.533-2.362-1.715-1.486-6.058 1.334-6.744.952-.229 1.981 0 2.743.61 2.248 1.676 1.295 5.981-1.41 6.667M102.873 47.808c-.228-3.125-2.476-6.135-5.905-6.02a5.2 5.2 0 0 0-3.658 1.79c-.229.229-.61.115-.648-.19-.19-1.562-.38-3.124-.533-4.687-1.41.153-2.82.267-4.23.458.039.495.115.99.153 1.447.076.42.114.839.152 1.258h.267c.267-.038.495-.076.724-.115.19 0 .42.153.42.343q.285 2.572.57 5.03c.153 1.41.382 3.2.572 4.991.038.19-.114.381-.305.42-.342.037-.647.075-.952.113l.343 2.858c1.333-.152 2.705-.305 4.039-.457a67 67 0 0 0-.115-.953c-.038-.343.381-.533.61-.343 1.143.877 2.515 1.22 3.81 1.03 3.315-.534 4.953-3.963 4.686-6.973m-4.42 3.772c-.838.495-1.828.571-2.743.266-2.743-.952-3.2-5.296-.685-6.744.876-.495 1.905-.61 2.82-.266 2.628.99 2.971 5.334.609 6.744M60.314 43.235c-3.695.686-7.391 1.372-11.087 2.134.19.99.419 1.943.648 2.934.419-.114.838-.19 1.257-.305.19-.038.419.114.457.305a304 304 0 0 0 2.134 9.868c.038.153-.114.381-.267.42-.419.114-.838.228-1.22.304.191.914.382 1.829.572 2.781 2.02-.457 4.077-.8 6.058-1.219a36 36 0 0 0-.571-2.934c-.343.077-.724.153-1.105.229a.42.42 0 0 1-.457-.305 91 91 0 0 0-.648-3.124c-.038-.19.114-.381.305-.457 1.029-.19 2.057-.42 3.086-.61-.229-1.029-.419-2.095-.61-3.124-1.028.228-2.095.457-3.124.686-.152.038-.38-.115-.419-.305-.229-.953-.42-1.981-.61-2.972-.038-.153.115-.381.267-.42.915-.228 1.829-.38 2.743-.609.19-.038.42.114.458.305.114.495.228.99.304 1.524.915-.19 1.791-.381 2.706-.533a193 193 0 0 1-.877-4.573M154.806 38.93c-.039.267-.343.42-.572.267-3.162-1.867-8.116-1.715-10.935.724-3.43 2.933-3.239 8.382-.42 11.62 2.782 3.163 7.354 3.773 10.822 1.448a8.27 8.27 0 0 0 3.162-3.848l-3.886-.343a5 5 0 0 1-1.753 1.6c-1.79.953-3.848.686-5.372-.685-1.105-1.03-1.791-2.515-1.677-4.077.153-2.743 2.324-4.687 5.03-4.534 1.447.114 2.857.8 3.772 1.905 1.257.114 2.552.267 3.81.343.152-1.6.343-3.163.457-4.763l-2.4-.229c0 .191 0 .381-.038.572M159.873 52.494c-.076.914-.19 1.829-.305 2.781 1.981.23 3.963.496 5.906.724.152-.914.267-1.867.38-2.781a5.7 5.7 0 0 0-1.104-.114c-.19-.038-.381-.229-.343-.42.229-1.943.42-3.771.648-5.638.305-2.515.61-5.068.914-7.544-.838-.077-1.638-.191-2.438-.267-.724-.076-1.486-.19-2.172-.267-.114.915-.19 1.829-.267 2.705.381.038.724.076 1.105.115.19.038.343.266.305.419-.152 1.295-.267 2.552-.381 3.772q-.343 3.2-.686 6.286a.446.446 0 0 1-.419.343 5 5 0 0 0-.762-.076c-.114-.038-.229-.038-.381-.038M180.562 55.39c-.152-.076-.305-.267-.267-.457.496-3.087 1.029-6.211 1.562-9.297-1.486-.267-2.933-.534-4.42-.8-.114.914-.228 1.829-.38 2.781.152 0 .304.038.457.076.229.038.457.076.648.115.19.038.343.228.343.419-.115.61-.191 1.257-.305 1.943-.076.533-.153 1.067-.267 1.638-.152.838-.533 1.677-1.105 2.21-1.333 1.181-3.62.534-3.886-1.295-.115-.8.076-1.715.19-2.553.267-1.943.534-3.925.838-5.868-1.562-.266-3.162-.495-4.724-.724-.114.953-.267 1.867-.381 2.782.076 0 .152 0 .19.038.42.038.839.076 1.143.152.153 0 .343.229.305.42-.038.495-.114.99-.19 1.523-.305 2.172-1.41 6.363.8 7.887 1.486 1.03 4.115 1.03 5.486-.19.23-.229.648 0 .61.343-.076.419-.114.8-.152 1.143 1.333.228 2.667.495 4 .762a75 75 0 0 1 .496-2.858c-.115-.038-.229-.038-.305-.076zM84.852 53.218c-.19.038-.42-.152-.458-.343-.114-1.029-.266-2.096-.38-3.124a85 85 0 0 1-.305-3.086c-.039-.191.114-.381.304-.42l.8-.114c.115 0 .23 0 .381-.038-.114-.876-.228-1.79-.342-2.705-.381.076-.762.114-1.182.152-.19 0-.38-.152-.38-.343-.115-.762-.191-1.41-.267-2.057-.077-.495-.115-.953-.19-1.372-.991.115-1.982.267-3.01.381.152 1.105.304 2.134.456 3.2.039.267.077.648-.304.725-.42.038-.839.114-1.258.152.115.915.267 1.829.381 2.705.42-.038.838-.114 1.258-.152.19-.038.38.152.419.343.152 1.448.343 2.895.571 4.381 0 .039 0 0 .038.496.229 1.486.381 2.972.61 4.458 1.334-.19 2.629-.381 3.962-.572a64 64 0 0 1-.304-2.82c-.267.039-.534.077-.8.153M71.364 58.095c3.581-.686 5.791-4.267 5.296-7.735-.457-3.353-3.582-6.096-7.087-5.6-2.553.38-4.725 2.4-5.372 5.067a7.12 7.12 0 0 0 .876 5.334c1.334 2.096 3.772 3.43 6.287 2.934m-2.82-9.602a3.4 3.4 0 0 1 2.782-.457c2.781.724 3.2 4.915.876 6.44-.8.495-1.79.685-2.743.457-2.782-.762-3.315-4.877-.915-6.44M124.515 50.703v2.744c1.981 0 3.963 0 5.982.038.038-.915.038-1.83.038-2.782h-1.143a.41.41 0 0 1-.381-.38c.076-4.382.114-8.764.19-13.146h-4.61v2.667h1.067c.152 0 .343.19.343.381v2.515c0 .838 0 1.677-.038 2.515v5.067a.41.41 0 0 1-.381.381zM116.133 52.304c.228-.191.61-.039.61.266v.648c0 .076 0 .152.037.267 1.41-.038 2.858-.077 4.268-.077-.038-.952-.038-1.866-.038-2.819-.343 0-.686 0-.991.038-.229.038-.42-.152-.42-.38a338 338 0 0 1-.075-6.25c0-.19.19-.38.38-.38h.991c0-.915 0-1.83-.038-2.744-1.448.038-2.934.038-4.42.076v1.03c0 .304-.342.456-.61.304-1.218-.99-2.704-1.41-4.152-1.257a5.62 5.62 0 0 0-3.81 2.057c-1.677 2.02-1.905 4.763-.877 7.049 1.563 3.581 5.944 4.991 9.145 2.172m-6.44-3.506c-.19-.533-.304-1.105-.266-1.676.038-.572.19-1.143.457-1.639 1.067-2.019 3.848-2.362 5.449-.8 1.447 1.448 1.333 4.268-.229 5.601-1.79 1.448-4.572.724-5.41-1.486" style="fill:#fff" data-source="https://football-logos.cc"></path><path d="M65.687 43.807c-1.448.229-2.896.495-4.344.762.19 1.143.42 2.286.648 3.467.038.19-.115.381-.305.42l-3.43.685a.42.42 0 0 1-.456-.305c-.077-.495-.153-.99-.267-1.486-.686.115-1.334.267-2.02.42.153.723.267 1.485.458 2.21a75 75 0 0 1 3.124-.648c.19-.038.381.114.42.304.228 1.258.495 2.553.761 3.81a.42.42 0 0 1-.305.458c-1.028.228-2.019.419-3.048.648l.458 2.4c.38-.076.762-.19 1.143-.267.19-.038.419.114.457.305l.343 1.829c2.324-.457 4.61-.876 6.896-1.296a7.3 7.3 0 0 1-1.753-1.98c-1.105-1.754-1.447-3.887-.99-5.907.686-2.971 3.162-5.22 6.02-5.6 3.924-.572 7.391 2.476 7.925 6.21.267 2.02-.267 4-1.372 5.601 1.677-.267 3.315-.495 4.991-.724-.114-1.029-.266-2.02-.38-3.01v-.038.038-.038c-.039-.152-.039-.19-.077-.457-.19-1.372-.38-2.705-.533-4.039-.305.038-.572.077-.838.114-.115 0-.267.038-.381.038-.191.038-.381-.114-.42-.304-.152-1.143-.342-2.325-.495-3.468-.038-.19.153-.38.305-.419.114-.038.495-.114.838-.152.457-.038.457 0 .42-.457-.077-.42-.115-.839-.191-1.258-4.534.61-9.068 1.334-13.602 2.134m-16.88 3.162c.153.648.267 1.258.42 1.867.076.19.305.343.457.267.42-.076.838-.19 1.257-.267.572 2.896 1.22 5.792 1.867 8.687.115.496.19.42-.343.572-.266.038-.495.114-.762.152a.42.42 0 0 0-.304.458c.152.533.266 1.104.38 1.638-13.03 2.743-25.946 6.058-38.71 10.02l9.601 82.223c3.353 28.652 14.44 56.352 31.662 79.48 17.413 23.394 43.131 42.52 71.06 51.36 27.928-8.84 53.646-27.966 71.058-51.36 17.222-23.128 28.31-50.828 31.662-79.48l9.602-82.222c-13.297-4.153-26.747-7.545-40.35-10.364a8.13 8.13 0 0 0 2.553-4.458c.762-3.467-.723-7.43-4.42-8.382a5.65 5.65 0 0 0-3.924.343c.153-.8.305-1.639.457-2.477 19.013 3.544 37.873 7.963 56.314 13.831l-10.63 92.929c-3.582 31.548-16.079 62.715-34.787 88.357-19.012 26.023-46.826 47.245-77.536 57.457-30.71-10.212-58.523-31.434-77.536-57.457-18.708-25.642-31.205-56.81-34.786-88.357L2.439 58.857c15.202-4.839 30.71-8.687 46.369-11.888m137.584-2.933c-.457-.077-.876-.153-1.295-.229a307 307 0 0 0-18.555-2.743l-1.372 11.316c.381.038.762.076 1.143.152.19 0 .343.229.305.42a26 26 0 0 1-.19 1.714 73 73 0 0 1 2.857.38c-.648-2.057.038-4.8.267-6.629.076-.419.114-.8.152-1.18-.228-.039-.495-.077-.724-.115-.267-.038-.457-.038-.571-.076-.19 0-.343-.229-.343-.42.152-1.143.343-2.324.457-3.505 0-.19.229-.38.42-.343 1.866.267 3.695.534 5.524.838.19.039.343.23.305.42a176 176 0 0 0-.915 6.248c-.076.648-.267 1.486-.19 2.21.152 1.372 1.829 1.829 2.781.838.42-.419.648-1.028.724-1.638.076-.572.19-1.105.305-1.638.076-.496.152-1.03.228-1.563-.114-.038-.228-.038-.343-.076a20 20 0 0 0-.8-.115.42.42 0 0 1-.304-.457 97 97 0 0 0 .495-3.505.42.42 0 0 1 .457-.305c1.715.267 3.43.61 5.144.914.19.039.343.267.305.458a681 681 0 0 0-1.563 9.335c.115 0 .19.038.267.038l.686.114c.19.038.343.267.305.457-.115.572-.19 1.143-.305 1.715l1.943.343c.114-.572.19-1.143.305-1.715a.42.42 0 0 1 .457-.305c.19.038.457.076.686.153.305.038.229.038.267-.267.266-1.334.495-2.705.8-4.382.267-1.562.571-3.124.838-4.648-.114 0-.229-.038-.343-.038h.038a22 22 0 0 1-.648-.114.42.42 0 0 1-.304-.458c.114-.533.19-1.066.304-1.6m-25.946-3.658c-.839-.076-1.715-.153-2.591-.267-.115 1.22-.229 2.439-.343 3.696 0 .152-.229.343-.42.343-1.447-.114-2.895-.267-4.343-.381-.038 0-.229-.114-.267-.153-.762-1.066-2.019-1.676-3.314-1.752-2.287-.153-4.115 1.486-4.268 3.848-.076 1.22.42 2.439 1.296 3.315 1.257 1.257 3.124 1.562 4.648.724a3.86 3.86 0 0 0 1.6-1.524c.076-.115.267-.19.381-.19 1.524.114 3.048.266 4.61.418.23 0 .382.267.305.496-.61 1.79-1.752 3.276-3.2 4.381 1.486.153 2.972.267 4.458.457.076-.61.114-1.18.19-1.752 0-.19.19-.343.381-.343.229 0 .496.038.762.076.153 0 .267.038.381.038.343-3.086.686-6.21 1.029-9.296-.381-.077-.724-.077-1.105-.115-.19 0-.343-.228-.343-.419.076-.533.114-1.067.153-1.6m-17.298-1.334a306 306 0 0 0-13.222-.419c-.038 3.772-.114 7.544-.152 11.316.381 0 .762.038 1.143.038.19 0 .381.19.381.381v1.677c3.81.076 7.62.228 11.43.419-.152-.114-.266-.267-.38-.42-3.125-3.543-3.277-9.486.457-12.687.114-.114.228-.19.343-.305m-19.318-.457c-10.25.038-20.536.572-30.786 1.524.077.8.19 1.6.267 2.4 1.067-.914 2.324-1.41 3.62-1.447 3.848-.153 6.4 3.162 6.705 6.667a8.32 8.32 0 0 1-1.257 5.106q2.629-.228 5.258-.343c-.495-.571-.952-1.181-1.295-1.905-1.181-2.553-.953-5.715.952-8.001 1.105-1.372 2.667-2.134 4.306-2.286a6.5 6.5 0 0 1 4.077.914v-.648c0-.152.19-.343.342-.343 1.753-.038 3.468-.038 5.22-.114.19 0 .381.19.381.381 0 1.181.038 2.324.038 3.505a.41.41 0 0 1-.38.381h-.991c0 1.83.038 3.658.076 5.487.305-.038.648-.038.99-.038.191 0 .382.19.382.381.038.61.038 1.181.038 1.79h1.981v-1.676c0-.19.19-.38.381-.38h1.143v-4.687c0-.838 0-1.677.038-2.515v-2.134h-1.105a.41.41 0 0 1-.38-.38zm-36.5 2.134c-1.182.114-2.363.266-3.544.38.038.42.076.8.152 1.22.038.495-.038.457.42.381.266-.038.533-.076.761-.114.19-.038.42.152.457.343.153 1.143.23 2.286.381 3.467.039.152-.114.38-.304.419-.267.038-.496.038-.762.076-.153.038-.267.038-.42.038.115.915.191 1.83.305 2.744.077.914.229 1.828.343 2.705l.8-.115c.19-.038.42.153.42.343.076.61.114 1.181.19 1.753.8-.076 1.6-.19 2.4-.267-.076-.571-.152-1.143-.228-1.753-.038-.19.152-.38.343-.419.228 0 .457-.038.724-.076.304-.038.228 0 .19-.305-.152-1.334-.343-2.705-.533-4.344-.19-1.6-.343-3.162-.534-4.648-.114 0-.228.038-.343.038-.19.038-.419.038-.61.076-.19 0-.418-.152-.418-.343a23 23 0 0 1-.19-1.6m107.445 10.935c-.572-.457-1.372-.61-2.134-.42-2.21.534-2.896 4.04-1.067 5.411.61.42 1.372.572 2.096.381 2.057-.533 2.857-4.039 1.105-5.372m-80.165-1.981c1.257-.991 1.333-3.315.19-4.458-1.22-1.22-3.429-.953-4.267.61-.19.418-.305.876-.343 1.333s.038.952.19 1.372c.648 1.714 2.82 2.324 4.23 1.143m-17.032-4.153c-.685-.267-1.524-.191-2.171.19-1.944 1.143-1.6 4.686.533 5.449a2.61 2.61 0 0 0 2.134-.23c1.829-1.104 1.562-4.647-.496-5.41M69.65 54.209c-2.172-.572-2.553-3.887-.724-5.106.648-.381 1.448-.533 2.21-.343 2.172.572 2.439 3.925.648 5.068-.61.419-1.41.533-2.134.38" style="fill:#ed1c24"></path><path d="m20.46 114.142 1.296 11.087c8.649-2.705 17.45-5.029 26.29-7.048l-3.925-10.63c-7.963 1.943-15.85 4.114-23.66 6.59" style="fill:#fff"></path><path d="M54.409 106.14c1.18.877 1.905 2.668 1.486 4.116 1.105.647 1.79 1.98 1.867 3.238.152 2.591-1.867 3.163-3.925 3.62l-2.057.495c-.458-1.257-.915-2.476-1.372-3.734l.686-.076c-.457-1.295-.915-2.629-1.372-3.924l-.686.114a93 93 0 0 1-1.295-3.467c.876-.19 1.753-.381 2.667-.572 1.448-.343 2.629-.838 4 .19"></path><path d="M52.465 110.294c-.228-.534-.38-1.105-.61-1.677.306-.076.801-.228 1.22-.114.534.114.8 1.029.42 1.448-.115.114-.763.38-1.03.343m-.19-4q-1.771.398-3.543.8c.266.685.495 1.37.762 2.057.228-.038.495-.077.685-.115.343.877.648 1.791.991 2.667.305.877.648 1.753.953 2.668-.23.038-.42.114-.686.152.266.762.533 1.448.8 2.172l1.448-.305c1.829-.42 3.429-.8 3.315-2.858-.077-1.219-.839-2.59-2.096-2.857.381-.534.495-1.41.19-2.286-.419-1.258-1.371-2.248-2.819-2.096m1.524 7.734c-.267-.61-.457-1.182-.648-1.753.572-.152 1.41-.457 1.791.229.686 1.18-.343 1.257-1.143 1.524" style="fill:#fff"></path><path d="M123.867 181.01c-1.105.152-1.752.914-2.095 1.829-.953 2.705 0 5.41 1.829 7.086.99.953 2.362 1.524 3.276 2.439.343.305 1.067 1.448 1.448 1.448.229-1.486-1.029-2.363-2.438-3.544-.953-.838-2.096-1.943-2.63-2.933-1.333-2.363-.38-4.306.61-6.325"></path><path d="M121.124 182.343c-.533.42-.762.877-.953 1.372a5.8 5.8 0 0 0 .23 3.924c.075.115.151.42.342.42.305-.115.495-.267.533-.42.115-.762-.228-1.524-.266-2.21-.077-1.066.114-2.095.114-3.086M168.712 172.246c-2.247 0-3.238 1.982-2.247 3.887.266.533.61 1.143 1.143 1.448.114.076.61.342.61.152-.039-1.295-.458-1.676-.458-3.048.724.114.571.838 1.41.61 1.6-.686.419-2.248-.458-3.049M163.53 171.027c-1.18-.114-2.514.229-2.476 1.981.267-.076 1.105-.61 1.143-.61.076.191-.114 1.068.267 1.106.305.038.876-2.21 1.067-2.477M134.688 163.216c-2.134 0-3.543 1.334-4.953 2.591-1.372 1.181-2.82 2.248-4.8 2.248 0 .153-.039.724.075.724 1.715.076 2.324-.076 3.887-.686-1.6 2.667-4.077 2.286-5.373 4.115 1.677.8 3.277-.38 4.458-1.524 1.448-1.257 4.153-5.905 5.982-6.096-.076.229-.648 1.829-.114 1.829.343-.153 1.752-2.324 1.562-2.667-.038-.153-.572-.496-.724-.534M118.838 164.13c-1.143.877.8 1.868 1.486 1.715l.267-.038c-.496-.8-1.105-1.295-1.753-1.676"></path><path d="M151.415 193.66c.38.19.99.304 1.524-.115.533-.495.762-2.438.647-3.239-.076-.838-.266-1.828-.495-1.828-.19 0-.19.495-.343 1.066-.19.648-.724 1.334-1.143 1.791-.381.495-.762.762-.914.953-.42.533.266 1.18.724 1.371M146.576 191.945c.19.228.419.419.724.343.342-.038.838-.724.914-1.562s-.038-1.486-.343-1.41-.648.647-1.067 1.029c-.343.342-.571.533-.61.571-.228.343.153.724.382 1.029M145.013 187.792s.458-.038.915.19c.419.229.38.572.38.572s-.151.533-.609.762-.647.228-.686-.076c0-.267.039-.572-.038-.8-.038-.191-.076-.305-.076-.458 0-.114.114-.19.114-.19M142.308 190.954c-.076.305.343.8.953.686.648-.114.838-.876.762-1.448-.038-.61-.343-.914-.457-.61-.19.267-.534.686-.8.839-.191.152-.42.266-.458.533" style="fill:#fff"></path><path d="M141.241 189.964s.077.19.458.114c.419-.038.876-.19 1.067-.42.266-.19.152-.457 0-.495-.115-.038-.42-.038-.686-.038h-.61c-.38.153-.229.381-.229.839" style="fill:#ed1c24"></path><path d="M142.232 187.106s.343-.076.648-.076c.305.076.724.38.724.571s-.343.61-.572.762-.305.229-.571.19c-.19 0-.077-.38-.115-.57-.038-.191-.114-.572-.152-.648 0-.077.038-.23.038-.23" style="fill:#fff"></path><path d="M140.86 186.725c.115.114.877 1.029.534 1.029-.19.076-.42.076-.572 0-.61-.267-.724-.915.038-1.03" style="fill:#ed1c24"></path><path d="M138.841 185.925s.381-.267.762-.115c.305.153.572.61.381.839-.19.19-.457.533-.686.647-.228.115-.419.153-.495.039-.076-.153 0-.686 0-.839-.038-.114.038-.571.038-.571M136.707 186.687s.115-.61.039-.838c-.077-.305-.23-.8-.23-.953 0-.19.153-.381.458-.343.343 0 .762.42.838.686.038.19.077.648-.19.952-.19.191-.915.458-.915.496M134.269 183.753s.076-.533.533-.495c.458.076.686.38.724.61.038.266-.038.8-.19 1.104-.153.267-.381.381-.534.381-.19 0-.228 0-.228-.266-.038-.191-.115-.572-.19-.648-.039-.076-.077-.267-.115-.381-.038-.038 0-.305 0-.305M132.592 182.61c.267.076.8.42.839.61 0 .228 0 .457-.496.419-.495 0-.876-.458-.914-.572-.152-.457.114-.571.571-.457M135.564 189.354s.115.571.61.571c.572 0 .724-.533.762-.838s0-1.105-.229-1.143c-.228 0-.342.572-.61.762-.266.19-.342.19-.456.343-.077.114-.077.305-.077.305" style="fill:#fff"></path><path d="M138.193 189.201c.077.191.115.343-.038.343-.114 0-.457.038-.571 0-.076 0-.076-.19-.076-.266 0-.038-.039-.19-.039-.229 0-.457.686 0 .724.152" style="fill:#ed1c24"></path><path d="M138.612 189.964s.153.457.458.495c.343.076.61.038.724-.038.114-.038.495-.648.343-1.334-.153-.686-.381-.38-.648-.076-.19.305-.572.571-.724.61-.114.114-.153.343-.153.343" style="fill:#fff"></path><path d="M150.729 190.04c.114.038.076.343-.115.533-.19.19-.419.267-.533.267s-.152-.076-.076-.19a3 3 0 0 0 .152-.344c0-.152 0-.457.572-.266M145.47 192.821c.191.038.344.076.572.114.648.115 1.448.458 1.83.61.266.114.57.229.8.305.228.076.495.114.723.19.114-.038.19-.038.229-.114.19-.19.114-.457 0-.571-.038-.115-.305-.381-.343-.458-.076-.152-.153-.266-.153-.266l-1.028-.077s-.267.077-.839.115c-.61.038-.838-.19-1.143-.381-.304-.229-.685-.572-.914-.61-.19 0-.305.076-.457.152-.153.077-.724.23-.877.305-.342.076-.533.076-.647.115.419.038.838.038 1.219.114.343.152.686.343 1.029.457M153.32 194.421c.342-.076.533-.343.61-.457.075-.114.304-.228.57.114.267.343.458.61.572.686l.153.153c-.8-.077-1.6-.19-2.4-.267.19-.114.38-.19.495-.229M128.744 188.973c.19.152.381.228.572.343 1.638.838 3.238.99 5.067 1.029h.229l.343.076c1.028.61 2.286.876 3.467.838l.42.152c.837.648 1.904.8 3.01.839.075-.115.113-.19.113-.267 0-.114 0-.343-.152-.381a.56.56 0 0 1-.343-.229c-.114-.152-.038-.19-.343-.19-.267-.038-1.714.038-2.057-.076-.343-.115-.724-.343-1.105-.686-.381-.305-.496-.42-.686-.42-.229 0-.305.305-.724.305-.42 0-.762-.114-.99-.266-.915-.61-1.563-.42-2.744-.458-.99 0-1.867-.038-2.667-.152-.457-.038-.914-.229-1.41-.457M135.526 188.554a12.8 12.8 0 0 1-3.162-.534c-1.22-.343-2.362-.8-3.544-1.295-.762-.343-1.562-.42-2.4-.42-.152.115-.152.306.152.572.572.229 1.105.534 1.639.8.762.42 1.486.8 2.057.877.762.114 1.6.114 2.553.114.533.038 2.515.343 2.705-.114M131.297 183.486c.152.381.648.648.8.686.495.229 1.6-.076 1.6.838.153 1.486 1.334.724 1.944.953.266.228-.115 1.067 1.105 1.105 1.257.114.838-.038 1.295.571.114.038.686.343.267.572-.42.267-.991-.305-.991-.305s-.457-.495-.686-.571c-.419-.039-.686.342-1.295.304-.915-.038-1.83-.228-2.744-.495-1.143-.305-2.286-.762-3.429-1.257-.952-.42-1.98-.496-3.01-.496-1.486-1.41 1.867-2.743 2.972-2.895 1.334-.19 1.715-.077 2.172.99M99.559 237.971c-.343-2.476.076-5.22 1.295-12.078-1.372 1.105-3.505 1.981-4.686 3.01-2.21 1.867-3.391 4.534-5.068 7.43-1.676 2.934-4.496 6.896-1.905 10.135 1.334 1.714 2.553 3.62 3.658 5.258.038-.153.114-.305.152-.458.343-.99.496-2.019.724-3.048 1.486 1.524 3.048 3.163 5.106 3.925-.153-2.591-.115-5.258.19-7.85.305-2.476.877-3.885.534-6.324M78.527 227.608c-1.486 1.486-2.439 3.39-3.696 5.105 1.22-1.41 2.59-2.667 4.23-3.62-.306-.457-.458-.952-.534-1.485" style="fill:#ed1c24"></path><path d="M106.722 209.014c-.038 0-.076.038-.153.038-4.534 1.067-8.42 4.458-10.21 8.802-.687 1.676-1.487 4.115-3.468 4.648-.495-.61-.8-1.181-.953-1.981-4.115 1.714-8.496 3.467-12.154 6.058.038.686.114 1.333.457 1.867 3.43-1.791 7.125-2.172 10.897-2.286-1.676 3.2-1.79 7.087-1.867 10.63l.686-1.143c1.79-3.124 3.239-5.982 5.753-8.001 2.4-1.905 5.068-1.791 5.982-5.754 1.067-4.534 2.782-8.84 5.03-12.878" style="fill:#ed1c24"></path><path d="M142.118 111.17a291 291 0 0 0-37.34.229c.42 2.4.61 4.839.61 7.277 1.143-.876 2.324-1.715 3.505-2.59 1.22-.915 4.877-4.383 3.925-.115-.305 1.448-.686 2.82-1.029 4.229-.648 2.59-1.029 5.22-1.448 7.81-.457 3.125-.8 5.83-2.21 8.764-.61 1.257-1.333 2.4-2.057 3.544 1.448.952 2.934 1.79 4.458 2.629.952-.153 1.79-.191 2.59.038-.685-3.925 1.525-8.42 4.42-11.545 3.925-4.23 9.26-7.544 13.793-11.088 3.544-2.781 7.544-5.867 10.783-9.182M156.025 112.275a61 61 0 0 1-2.63-.267c.039.724.039 1.448.039 2.172.838-.648 1.753-1.257 2.59-1.905M78.984 254.964c7.468 6.249 15.545 11.697 24.156 16.346l-.076-.305c.114-2.934.076-5.791.038-8.725-.914-.572-1.79-1.22-2.667-1.83.99-1.79 1.448-2.704 2.134-4.647 4.076.952 5.982.571 9.792-.648-.077 1.371-.153 2.743-.229 4.077 2.02-1.296 4.61-1.639 6.973-1.03 3.505.877 5.943 3.392 6.934 6.745 1.6-2.096 3.2-4.23 4.8-6.363 2.21 0 4.001-.42 6.173-.838l-.076.952c1.067-.876 2.743-1.752 4.534-2.324 2.4-.762 5.03-1.067 6.858-.229 2.744 1.334 2.858 4.534 1.791 7.011 1.638 1.677 1.029 4.458-.19 6.896 17.412-9.792 32.576-23.05 44.73-39.32 17.032-22.86 27.929-50.218 31.244-78.527l2.857-24.728c-16.917-5.22-34.215-9.106-51.627-12.192-5.525-.99-11.011-1.79-16.536-2.477-.229.991-.495 1.944-.724 2.934-.648 2.553-1.067 5.182-1.448 7.773-.457 3.124-.8 5.83-2.21 8.763-.61 1.257-1.333 2.4-2.057 3.544 4.496 2.971 9.64 5.143 14.555 7.544.038-.038.076-.038.114-.038v.076c.914.457 1.79.914 2.667 1.371 2.629-.152 4.991.991 6.744 2.896 1.676.42 3.353.915 4.458 2.324 1.943 2.286 1.676 4.725 4.61 5.449 3.81.952 7.506 1.981 11.126 3.162 4.572 1.562 10.515 3.582 14.707 6.554 1.943-.039 3.962.342 5.715 1.219 1.676.876 4.153 3.048 2.21 4.991.533 2.21-.724 3.086-1.639 4.915-1.524 3.01-2.133 6.287-4.115 8.84-1.486 1.943-3.886 3.124-7.963 3.505-1.867.152-3.238-.648-4.267-1.867-.038.42-.114.838-.19 1.257v.077c.723.304 1.447 1.371 1.904 1.98 1.258 1.792 1.791 4.611.8 6.402-.914 1.714-2.933 2.705-5.296 1.524-3.314-1.6-6.362-2.286-9.906-2.934-1.753-.305-3.39-.876-5.22-.99-1.714-.077-3.086.571-4.724.647-2.286.153-3.849-.99-6.097.267-.914.495-1.866.914-2.78 1.257-3.087 1.105-4.954 1.258-7.05 4.306-1.486 2.21-2.895 3.505-5.296 4.686.076-.686.153-1.372.229-2.02-1.562.725-3.2.953-4.8 1.334-4.573 1.067-8.421 4.458-10.212 8.802-.686 1.676-1.524 4.153-3.467 4.686-.496-.648-.838-1.22-.953-2.02-4.229 1.753-8.763 3.544-12.459 6.287-2.515 1.867-3.581 4.954-5.677 7.202-1.067 1.143-3.048 1.562-3.277-.381a50 50 0 0 1-3.848 3.048c-2.667 1.943-5.563 3.467-8.04 5.639-1.98.914-3.314 3.086-4.076 4.61a2.92 2.92 0 0 1-1.41 1.295c-.19-.533-.343-1.028-.533-1.486-.724 3.849-.686 7.773-.42 11.66-2.324-.496-3.962-1.334-5.753-2.972a19 19 0 0 1-.228.762c-.343.99-.8 1.905-1.258 2.82-1.371-2.096-2.705-4.23-4.19-6.25-1.715 4.84-5.64 5.906-9.869 6.706" style="fill:#fff"></path><path d="M69.154 245.896c2.743 2.782 5.6 5.41 8.535 7.963 4.457-.8 8.61-1.562 10.173-6.896-1.83-2.667-.8-4.877-.343-7.696.647-3.925.266-7.887 1.486-11.66-4.115.267-7.05 1.22-9.411 2.744-2.63 1.6-4.61 3.924-6.478 7.01-1.714 2.591-2.705 5.678-3.962 8.535M62.943 239.152a148 148 0 0 0 5.182 5.677c1.181-2.743 2.172-5.715 3.886-8.191a34 34 0 0 1 1.83-2.706l-.077.077c-1.067 1.143-3.048 1.562-3.277-.381a50 50 0 0 1-3.848 3.048c-1.22.876-2.476 1.676-3.696 2.476M41.378 206.842a160.4 160.4 0 0 0 12.04 20.118c.076-.153.114-.381.152-.572 1.486-6.248 4.23-12.116 7.811-17.412a9.04 9.04 0 0 1-3.772.343c-5.486-.686-9.754-4.305-15.583-2.667a3.2 3.2 0 0 0-.648.19M37.301 198.155c.61 1.448 1.257 2.858 1.905 4.268.648-1.486 1.143-3.048 1.639-4.534.152-.458.304-.877.457-1.334q-2.058 1.143-4 1.6M30.481 179.41c1.753 5.981 3.886 11.81 6.287 17.526 2.895-.61 5.067-2.286 6.515-5.182 1.677-3.238 4-6.02 8.116-7.239-3.506-3.353-8.726-9.259-13.984-6.706-2.286 1.105-4.61 1.715-6.934 1.6M25.718 158.34a173 173 0 0 0 4.344 19.698c2.286.19 4.534-.381 6.744-1.448 3.962-1.905 8.115-3.353 12.42-4.191 4.192-.838 8.307-1.258 11.927-3.887-2.058-3.276-4.725-6.324-8.42-7.696-2.897 1.524-6.135 3.048-9.488 3.124-2.439.077-7.468-.343-9.144-2.21-1.905-2.095-2.172-2.895-5.487-3.276-.914-.115-1.867-.115-2.896-.115" style="fill:#ed1c24"></path><path d="m22.023 127.477 2.857 24.728c.19 1.6.42 3.2.648 4.8 1.105-.037 2.21 0 3.238.115.877.076 1.677.267 2.439.496-.381-.534-.8-1.03-1.22-1.563 3.087-.571 5.373-.838 8.421.229 2.63.952 4.344.876 6.63-.038 2.743-1.105 5.181-2.21 8.153-2.705-.457-.953-.647-1.639-.571-2.667 2.934-1.03 5.715-.877 8.801-.686.115-.305.267-1.143.19-1.448.153 0 1.144.457 1.068.305-.381-.61-.458-.877-.534-1.562 1.029-.153 1.981-.267 2.858 0-.686-3.925 1.524-8.42 4.42-11.545 3.924-4.23 9.296-7.544 13.83-11.088 4.039-3.124 8.687-6.744 12.078-10.554.648-.724 1.143-1.486 1.6-2.21a308 308 0 0 0-23.28 3.201c-17.412 3.086-34.748 6.973-51.626 12.192" style="fill:#fff"></path><path d="M216.834 167.75c-2.248 0-3.238 1.982-2.248 3.887.267.533.61 1.143 1.105 1.448.115.076.648.343.648.152-.038-1.295-.495-1.676-.495-3.048.762.114.61.838 1.448.61 1.6-.686.419-2.248-.458-3.049M211.653 166.531c-1.22-.114-2.553.229-2.477 1.981.267-.076 1.105-.61 1.143-.61.076.191-.114 1.068.267 1.106.305.038.876-2.172 1.067-2.477M182.81 158.759c-2.134-.039-3.543 1.295-4.991 2.552-1.334 1.181-2.82 2.248-4.801 2.248 0 .153-.076.724.076.724 1.715.076 2.362-.076 3.925-.686-1.6 2.668-4.153 2.286-5.449 4.115 1.715.8 3.353-.38 4.496-1.524 1.486-1.257 4.191-5.905 6.02-6.096-.076.229-.648 1.829-.114 1.829.343-.152 1.752-2.324 1.562-2.667-.038-.153-.572-.495-.724-.495M166.922 159.635c-1.143.876.8 1.867 1.486 1.714l.228-.038c-.457-.8-1.067-1.295-1.714-1.676"></path><path d="M199.536 189.163c.381.19.991.305 1.524-.114.496-.495.763-2.438.648-3.239-.076-.838-.267-1.828-.495-1.828-.19 0-.19.495-.381 1.066-.153.648-.686 1.334-1.105 1.83-.42.457-.762.723-.914.914-.42.571.266 1.18.723 1.371M194.698 187.449c.19.228.419.419.723.38.343-.037.839-.761.915-1.6.076-.838-.038-1.485-.343-1.41-.305.077-.648.649-1.067 1.03-.38.342-.571.533-.61.571-.228.343.153.724.382 1.029M193.135 183.296s.458-.038.915.19c.419.229.38.572.38.572s-.19.533-.647.762c-.419.267-.61.228-.648-.076 0-.267.039-.572-.038-.8-.038-.191-.076-.305-.076-.458 0-.114.114-.19.114-.19M190.43 186.458c-.076.305.343.8.953.686.647-.114.838-.838.762-1.448-.038-.61-.343-.914-.457-.61-.19.267-.572.686-.8.839-.191.152-.458.266-.458.533" style="fill:#fff"></path><path d="M189.363 185.506s.077.152.458.076c.38-.038.876-.19 1.066-.42.267-.19.153-.456 0-.495-.114-.038-.419-.038-.723-.038h-.61c-.343.19-.19.381-.19.877" style="fill:#ed1c24"></path><path d="M190.354 182.61s.343-.076.648-.076c.305.076.724.38.724.571s-.343.61-.572.762-.343.229-.571.19c-.19 0-.077-.38-.115-.57-.038-.191-.114-.572-.152-.648s.038-.229.038-.229" style="fill:#fff"></path><path d="M188.982 182.229c.115.114.877 1.029.496 1.029-.153.076-.381.076-.572 0-.571-.267-.724-.915.076-1.03" style="fill:#ed1c24"></path><path d="M186.925 181.429s.419-.267.762-.114c.343.152.61.61.42.838-.191.19-.458.533-.687.647-.228.115-.419.153-.495.039-.076-.153 0-.686 0-.839-.038-.114 0-.571 0-.571M184.83 182.19s.114-.609.037-.837c-.076-.305-.228-.8-.228-.953 0-.19.114-.38.457-.343.343 0 .762.42.838.686.038.229.076.648-.228.953-.153.19-.877.457-.877.495M182.39 179.257s.077-.533.534-.495c.457.076.686.38.724.61.038.266-.038.838-.19 1.104-.153.267-.381.381-.534.381-.19 0-.228 0-.228-.266-.038-.19-.115-.572-.19-.648-.039-.076-.115-.267-.115-.381-.038-.038 0-.305 0-.305M180.714 178.114c.267.076.8.42.839.61 0 .228 0 .457-.496.419-.495 0-.914-.457-.952-.572-.115-.457.152-.571.61-.457M183.686 184.858s.115.571.61.571c.571 0 .724-.533.762-.838s0-1.105-.229-1.143c-.266 0-.343.572-.61.762-.304.19-.342.19-.456.343-.077.114-.077.305-.077.305" style="fill:#fff"></path><path d="M186.315 184.706c.076.19.115.342-.038.342-.114 0-.457.039-.571 0-.077 0-.077-.19-.077-.266 0-.038-.038-.19-.038-.229 0-.457.686 0 .724.153" style="fill:#ed1c24"></path><path d="M186.696 185.468s.19.457.496.533c.304.038.61 0 .685-.038.115-.076.534-.686.381-1.372-.152-.686-.38-.38-.647-.076-.19.305-.572.572-.724.61-.153.114-.19.343-.19.343" style="fill:#fff"></path><path d="M198.85 185.582c.115 0 .077.305-.114.495-.19.19-.419.267-.533.267s-.153-.076-.076-.19c.038-.077.114-.23.152-.344 0-.152 0-.457.572-.228M193.593 188.325q.228.057.571.114c.648.115 1.448.458 1.829.61.267.114.572.229.8.305s.457.114.724.19q.17 0 .229-.114c.19-.19.114-.457 0-.571-.038-.115-.305-.381-.343-.458-.076-.152-.153-.266-.153-.266l-1.028-.077s-.267.077-.877.115c-.571.038-.8-.19-1.105-.381-.304-.229-.724-.572-.914-.61-.19 0-.305.114-.457.153-.153.076-.724.228-.915.304-.305.077-.495.077-.61.115.42.038.839.038 1.22.114q.514.285 1.029.457M201.442 189.964c.304-.115.533-.382.61-.496.075-.114.304-.228.57.114q.4.572.572.686c.038.077.114.115.114.153-.8-.076-1.562-.19-2.362-.267.19-.114.381-.19.495-.19M176.866 184.477c.19.152.381.267.534.343 1.676.838 3.238.99 5.105 1.029h.229l.343.076c1.028.61 2.286.876 3.467.838l.419.152c.838.648 1.905.8 3.01.839.076-.077.076-.19.076-.267 0-.114 0-.343-.152-.381a.6.6 0 0 1-.305-.229c-.114-.152-.038-.19-.343-.19-.267-.038-1.714.038-2.057-.076-.343-.115-.724-.343-1.105-.686-.381-.305-.496-.42-.724-.42-.229 0-.267.305-.686.305s-.762-.114-.99-.228c-.915-.648-1.563-.457-2.744-.495-.99 0-1.867-.039-2.705-.153-.42-.038-.877-.228-1.372-.457M183.648 184.058c-1.067-.038-2.133-.229-3.2-.534-1.181-.343-2.363-.8-3.506-1.295-.762-.343-1.562-.42-2.4-.42-.152.115-.152.306.114.572.61.229 1.143.534 1.677.8.762.42 1.486.8 2.057.877.762.114 1.6.114 2.553.114.533.038 2.515.343 2.705-.114M179.419 178.99c.152.381.648.648.8.686.495.229 1.562-.076 1.562.838.19 1.486 1.372.724 1.981.953.267.229-.114 1.067 1.105 1.105 1.22.114.8-.038 1.296.571.114.038.686.343.267.572-.42.267-.991-.305-.991-.305s-.457-.495-.686-.571c-.419-.039-.686.342-1.333.304-.915-.038-1.791-.228-2.706-.495-1.143-.305-2.286-.762-3.429-1.257-.952-.42-1.981-.496-3.01-.496-1.524-1.41 1.867-2.743 2.972-2.895 1.334-.19 1.715-.076 2.172.99" style="fill:#ed1c24"></path><path d="m228.96 23.454 1.08-1.008 6.912-21.096 6.912 21.096 1.08 1.008 22.104-.072-18.072 13.464-.072 1.512 7.056 21.096-18.144-13.248h-1.728l-18.144 13.248L225 38.358l-.072-1.512-18.072-13.464z" style="fill:#ffcb05" transform="matrix(.52918 0 0 .52918 0 0)"></path><path d="m229.176 23.958 1.296-1.224 6.48-19.728 6.48 19.728 1.296 1.224 20.808-.072-17.064 12.744-.072 1.8 6.552 19.728-16.992-12.456h-2.016l-16.992 12.456 6.552-19.728-.144-1.8-16.992-12.744z" style="fill:#ffcd1a" transform="matrix(.52918 0 0 .52918 0 0)"></path><path d="m229.392 24.462 1.512-1.512 6.048-18.36L243 22.95l1.512 1.512 19.512-.072-15.984 11.952-.144 2.16 6.12 18.288-15.912-11.592H235.8L219.888 56.79l6.12-18.288-.144-2.16L209.88 24.39z" style="fill:#ffcf2e" transform="matrix(.52918 0 0 .52918 0 0)"></path><path d="m229.536 25.038 1.8-1.8 5.616-17.064 5.616 17.064 1.8 1.8 18.144-.144-14.976 11.232-.144 2.448 5.616 16.92-14.76-10.8h-2.664l-14.688 10.8 5.616-16.92-.144-2.448-14.976-11.232z" style="fill:#ffcf3a" transform="matrix(.52918 0 0 .52918 0 0)"></path><path d="m229.752 25.542 2.016-2.016 5.184-15.768 5.184 15.768 2.016 2.016 16.776-.144-13.896 10.44-.144 2.808 5.184 15.48-13.608-9.936h-3.024l-13.608 9.936 5.184-15.48-.144-2.808-13.896-10.44z" style="fill:#ffd449" transform="matrix(.52918 0 0 .52918 0 0)"></path><path d="m229.968 26.046 2.232-2.232 4.752-14.4 4.752 14.4 2.232 2.232 15.48-.144-12.888 9.648-.144 3.168 4.68 14.112-12.456-9.144h-3.312L222.84 52.83l4.68-14.112-.144-3.168-12.888-9.648z" style="fill:#ffd454" transform="matrix(.52918 0 0 .52918 0 0)"></path><path d="m230.184 26.55 2.448-2.52 4.32-13.032 4.32 13.032 2.448 2.52 14.184-.144-11.88 8.928-.144 3.456 4.176 12.672-11.304-8.28h-3.6l-11.376 8.28 4.248-12.672-.144-3.456L216 26.406z" style="fill:#ffd661" transform="matrix(.52918 0 0 .52918 0 0)"></path><path d="m230.4 27.054 2.664-2.736 3.888-11.736 3.816 11.736 2.736 2.736 12.888-.144-10.8 8.136-.216 3.816 3.744 11.304-10.152-7.488h-4.032l-10.152 7.488 3.744-11.304-.216-3.816-10.8-8.136z" style="fill:#ffd96d" transform="matrix(.52918 0 0 .52918 0 0)"></path><path d="m230.616 27.558 2.952-2.952 3.384-10.44 3.384 10.44 2.952 2.952 11.592-.072-9.792 7.272-.216 4.176 3.24 9.864-9-6.624h-4.32l-9 6.624 3.24-9.864-.216-4.176-9.792-7.272z" style="fill:#ffdb76" transform="matrix(.52918 0 0 .52918 0 0)"></path><path d="M230.832 28.062 234 24.894l2.952-9.072 2.952 9.072 3.168 3.168 10.296-.072-8.784 6.552-.216 4.464 2.808 8.496-7.92-5.832h-4.608l-7.92 5.832 2.808-8.496-.216-4.464-8.784-6.552z" style="fill:#ffdd81" transform="matrix(.52918 0 0 .52918 0 0)"></path><path d="m230.976 28.566 3.456-3.384 2.52-7.776 2.52 7.776 3.384 3.384 8.928-.072-7.704 5.76-.216 4.824 2.304 7.056-6.768-4.968h-4.968l-6.696 4.968 2.304-7.056-.216-4.824-7.704-5.76z" style="fill:#ffdf89" transform="matrix(.52918 0 0 .52918 0 0)"></path><path d="m231.192 29.07 3.672-3.672 2.088-6.408 2.088 6.408 3.672 3.672 7.56-.072-6.696 4.968-.216 5.184 1.872 5.688-5.616-4.176h-5.328l-5.616 4.176 1.872-5.688-.216-5.184-6.696-4.968z" style="fill:#ffe293" transform="matrix(.52918 0 0 .52918 0 0)"></path><path d="m231.408 29.574 3.888-3.888 1.656-5.112 1.656 5.112 3.888 3.888 6.264-.072-5.688 4.248-.216 5.472 1.368 4.248-4.464-3.312h-5.616l-4.464 3.312 1.368-4.248-.288-5.472-5.616-4.248z" style="fill:#ffe49d" transform="matrix(.52918 0 0 .52918 0 0)"></path><path d="m231.624 30.078 4.104-4.104 1.224-3.744 1.224 3.744 4.104 4.104 4.968-.072-4.608 3.456-.288 5.832.936 2.808-3.384-2.448H234l-3.384 2.448.936-2.808-.288-5.832-4.608-3.456z" style="fill:#ffe7a5" transform="matrix(.52918 0 0 .52918 0 0)"></path><path d="m231.84 30.582 4.32-4.32.792-2.448.792 2.448 4.32 4.32 3.672-.072-3.6 2.736-.288 6.048.432 1.512-2.16-1.656h-6.336l-2.16 1.656.432-1.512-.288-6.048-3.6-2.736z" style="fill:#ffe9af" transform="matrix(.52918 0 0 .52918 0 0)"></path><path d="m232.056 31.086 4.536-4.536.36-1.152.36 1.152 4.536 4.536 2.304-.072-2.52 1.944-.36 6.408.072.072-1.08-.792h-6.624l-1.08.792v-.072l-.288-6.408-2.52-1.944z" style="fill:#ffeab7" transform="matrix(.52918 0 0 .52918 0 0)"></path><path d="m233.496 38.142-.432.36-.288-5.832-1.512-1.08h1.008l4.68-4.752 4.68 4.752h1.008l-1.512 1.08-.288 5.832-.432-.36z" style="fill:#ffeec2" transform="matrix(.52918 0 0 .52918 0 0)"></path><path d="m233.28 32.454-.72-.504 4.392-4.392 4.392 4.392-.72.504-.216 5.256h-6.912z" style="fill:#ffefca" transform="matrix(.52918 0 0 .52918 0 0)"></path><path d="m233.712 32.166-.36-.288 3.6-3.6 3.6 3.6-.36.288-.288 5.04H234z" style="fill:#fff2d4" transform="matrix(.52918 0 0 .52918 0 0)"></path><path d="m234.216 31.878-.072-.072 2.808-2.808 2.808 2.808-.072.072-.288 4.824h-4.896z" style="fill:#fff4dc" transform="matrix(.52918 0 0 .52918 0 0)"></path><path d="m234.936 36.198-.216-4.248 2.232-2.232 2.232 2.232-.216 4.248z" style="fill:#fff7e7" transform="matrix(.52918 0 0 .52918 0 0)"></path><path d="m235.44 35.694-.216-3.528 1.728-1.728 1.728 1.728-.216 3.528z" style="fill:#fffaf0" transform="matrix(.52918 0 0 .52918 0 0)"></path><path d="m235.872 35.19-.144-2.88 1.224-1.224 1.152 1.224-.144 2.88z" style="fill:#fff" transform="matrix(.52918 0 0 .52918 0 0)" data-source="https://football-logos.cc"></path><!-- source: https://football-logos.cc --></svg>