<svg xmlns="http://www.w3.org/2000/svg" viewBox="11.18 156.22 572.91 529.46"><!-- Source: https://football-logos.cc --><path d="M158.537 174.742c19.377 11.44 41.068 19.736 62.762 25.392 25.516 6.652 50.972 9.67 72.703 9.869 25.426.233 51.22-2.343 76.52-8.733 22.767-5.75 45.074-14.586 66.267-27.242l6.005-3.586 4.98 4.897 45.75 45 4.472 4.4-2.524 5.699c-6.45 14.559-11.525 28.731-14.946 42.332-3.222 12.812-4.988 25.052-5.06 36.553-.287 45.691 12.208 73.044 23.343 97.418 4.91 10.746 9.57 20.949 12.976 32l.008-.001c8.894 27.392 11.512 51.456 7.885 73.346-3.682 22.224-13.685 41.907-29.977 60.227-8.615 9.688-19.852 18.124-32.836 25.625-12.595 7.276-26.895 13.692-42.047 19.535-17.779 6.856-37.906 14.933-57.664 23.793-19.574 8.778-38.802 18.337-55.008 28.249l-4.702 2.876-4.723-2.876c-29.61-18.03-61.046-30.783-91.896-43.296q-4.97-2.015-9.918-4.031a2598 2598 0 0 0-7.618-3.103c-32.785-13.249-65.927-26.643-83.439-53.335-12.095-18.437-20.168-36.923-23.209-57.553-3.022-20.499-.998-42.85 7.084-69.065 3.879-12.582 8.935-24.294 14.114-36.294 10.634-24.634 21.816-50.54 22.185-83.12.166-14.706-1.352-30.282-4.963-46.117a197 197 0 0 0-15.491-43.558l-2.97-6.002 4.883-4.593 46.247-43.501 4.954-4.66zm58.227 42.896c-21.089-5.498-42.201-13.337-61.505-23.927l-36.573 34.402a215.5 215.5 0 0 1 14.021 41.52 215.5 215.5 0 0 1 5.388 50.227c-.412 36.413-12.299 63.95-23.602 90.135-5.056 11.714-9.992 23.147-13.477 34.452-7.235 23.47-9.083 43.24-6.446 61.129 2.618 17.757 9.737 33.93 20.445 50.253 14.418 21.976 44.877 34.285 75.005 46.46 4.428 1.79 6.628 2.67 7.69 3.103q4.947 2.016 9.918 4.031c29.866 12.114 60.272 24.45 89.8 41.82 15.796-9.29 33.937-18.23 52.356-26.49 20.092-9.009 40.503-17.2 58.514-24.147 14.295-5.512 27.738-11.538 39.496-18.33 11.368-6.568 21.095-13.83 28.37-22.01 14.005-15.749 22.568-32.45 25.655-51.086 3.144-18.972.738-40.249-7.247-64.842l-.035-.142c-3.096-10.083-7.514-19.755-12.169-29.943-11.914-26.08-25.285-55.35-24.972-105 .082-13.146 2.02-26.82 5.555-40.876 3.228-12.835 7.78-26.041 13.456-39.499l-36.41-35.814c-21.003 11.778-42.868 20.171-65.08 25.78-26.744 6.755-54.072 9.478-81.057 9.23-23.115-.213-50.12-3.403-77.096-10.436" style="fill:#1b1918;fill-rule:evenodd" data-source="https://football-logos.cc"></path><path d="M362.199 298.159c16.626 16.273 26.952 38.739 26.952 63.55 0 24.845-10.359 47.485-27.03 63.91-16.645 16.398-39.584 26.596-64.78 26.596-25.168 0-47.967-10.177-64.496-26.548C216.262 409.24 206 386.58 206 361.71c0-24.839 10.235-47.33 26.782-63.614 16.532-16.267 39.358-26.33 64.56-26.33 25.228 0 48.2 10.089 64.857 26.393" style="fill:#00f;fill-rule:evenodd"></path><path d="M362.74 297.585c8.579 8.397 15.47 18.41 20.16 29.469a88.6 88.6 0 0 1 7.034 34.659 89.2 89.2 0 0 1-7.06 34.798c-4.703 11.12-11.611 21.211-20.208 29.68a93.5 93.5 0 0 1-30.076 19.88 92.7 92.7 0 0 1-35.246 6.94c-12.064 0-23.976-2.332-35.134-6.924a92.7 92.7 0 0 1-29.912-19.852c-8.555-8.473-15.408-18.564-20.07-29.67a89.9 89.9 0 0 1-7.01-34.852 89.3 89.3 0 0 1 6.99-34.716c4.65-11.049 11.492-21.067 20.032-29.472a92.45 92.45 0 0 1 29.905-19.689c11.185-4.561 23.122-6.865 35.199-6.865 12.115 0 24.092 2.319 35.316 6.886a93.3 93.3 0 0 1 30.08 19.728m17.035 30.793c-4.515-10.646-11.151-20.285-19.41-28.369a89.9 89.9 0 0 0-28.984-19.007c-10.817-4.402-22.36-6.635-34.037-6.635-11.638 0-23.14 2.218-33.918 6.614a89 89 0 0 0-28.805 18.964c-8.222 8.09-14.808 17.733-19.286 28.37-4.457 10.587-6.721 21.911-6.721 33.398a86.5 86.5 0 0 0 6.745 33.537c4.49 10.696 11.09 20.415 19.328 28.575a89.3 89.3 0 0 0 28.815 19.123c10.748 4.424 22.22 6.667 33.842 6.667a89.3 89.3 0 0 0 33.957-6.684 90.1 90.1 0 0 0 28.984-19.158c8.279-8.157 14.933-17.873 19.463-28.583a85.8 85.8 0 0 0 6.79-33.477 85.2 85.2 0 0 0-6.763-33.335" style="fill:#af9f86;fill-rule:evenodd"></path><path d="M361.749 298.598c8.417 8.239 15.21 18.078 19.846 29.01a87.1 87.1 0 0 1 6.921 34.105 87.7 87.7 0 0 1-6.947 34.246c-4.65 10.993-11.46 20.91-19.897 29.223a92.1 92.1 0 0 1-29.62 19.577 91.2 91.2 0 0 1-34.708 6.835c-12.247 0-23.93-2.428-34.594-6.818a91.2 91.2 0 0 1-29.455-19.547c-8.388-8.309-15.147-18.223-19.76-29.213a88.4 88.4 0 0 1-6.9-34.303c0-12.098 2.447-23.638 6.879-34.166 4.602-10.933 11.348-20.773 19.72-29.011a91 91 0 0 1 29.446-19.387c10.681-4.356 22.39-6.76 34.664-6.76 12.292 0 24.045 2.412 34.781 6.78a91.9 91.9 0 0 1 29.624 19.429m19.33 29.226c-4.606-10.86-11.356-20.638-19.722-28.827a91.3 91.3 0 0 0-29.442-19.308c-10.671-4.342-22.353-6.74-34.571-6.74-12.201 0-23.838 2.39-34.454 6.72a90.4 90.4 0 0 0-29.263 19.266c-8.321 8.188-15.025 17.966-19.598 28.83-4.402 10.456-6.832 21.923-6.832 33.948a87.9 87.9 0 0 0 6.855 34.085c4.586 10.925 11.303 20.778 19.638 29.034a90.7 90.7 0 0 0 29.273 19.427c10.595 4.361 22.207 6.773 34.38 6.773a90.7 90.7 0 0 0 34.496-6.79 91.5 91.5 0 0 0 29.44-19.46c8.386-8.261 15.154-18.117 19.775-29.04a87.2 87.2 0 0 0 6.901-34.03 86.6 86.6 0 0 0-6.876-33.888" style="fill:#1b1918;fill-rule:evenodd"></path><path d="M296.778 308.06c4.537 8.934 8.574 17.805 11.861 27.927 9.951.23 21.653 1.584 30.854 2.813-7.92 6.523-14.964 12.422-23.633 18.695 3.369 10.326 5.931 19.344 6.854 30.389-9.252-4.893-17.75-9.94-25.999-17.17-8.32 6.956-17.467 12.634-26.623 17.92 2.14-10.33 3.214-21.143 7.854-31.139-8.67-6.273-16.34-12.421-25.009-18.695 10.827-2.229 21.028-2.709 31.48-2.688 3.287-10.184 6.699-18.118 12.36-28.051" style="fill:none"></path><path d="M368.008 353.683c-.257-2.89-.6-5.76-1.043-8.483-7.667-3.542-16.708-5.334-25.062-7.188l17.5-14c-5.871-10.166-13.17-18.774-20.875-26.937 3.691.4 20.257 11.966 25.812 19.937l1.627-3.34.748-1.535 15.188 24.313.125 24.624-.253-.364-5.81-8.386c-.464 12.522-3.453 21.188-7.75 26.126.55-5.406.644-15.195-.207-24.767m-82.792-64.922c-16.082.532-28.461 8.883-30.813 8.562 1.39-3.207 13.582-12.428 24.437-14.875l-2.247-.774-1.565-.539 19.562-4.623 26.25 4.562-2.844.569-3.718.743c10.778 3.811 22.286 10.98 24.313 15.376-9.959-4.313-20.042-7.376-31-9.189l-11.126 17.875zm48.407 106.112c14.707-9.65 26.263-23.962 33.662-39.627.335 4.244.499 8.517.502 12.773.003 3.417-.072 6.942-.418 10.344l-.12 1.17c-.55.612-1.088 1.37-1.452 1.867-1.284 1.753-2.533 3.526-3.834 5.268-4.488 6.01-9.371 11.621-14.649 16.947zm-7.118 4.167a80 80 0 0 0 6.334-3.659l14.595 9.32c14.268-14.288 19.242-24.027 21.156-25.251.275 3.804-4.377 21.487-10.437 30.437l6.073 2.359 1.49.578-6.33 6.288q-1.226.665-2.468 1.315c-3.402 1.78-6.882 3.442-10.403 4.753a53 53 0 0 1-4.489 1.458l-33.374.25 5.191-2.58 16.434-8.17zm-58.442 2.145c8.138 4.074 16.67 6.285 25.239 6.195 11.786-.124 22.673-3.031 32.42-7.94l3.58 16.232-17.326 8.614-7 3.48 37.168-.279.107-.029a57 57 0 0 0 6.39-2.188 88 88 0 0 0 6.096-2.772c1.71-.85 3.394-1.739 5.053-2.638l.108-.058 7.345-7.296-2.474-.961-5.33-2.07c2.07-3.272 3.731-7.062 5.093-10.633a101 101 0 0 0 3.681-11.735c.5-2.025 1.375-5.647 1.226-7.718l-.072-.992c4.967-6.175 6.783-15.58 7.318-23.54l5.095 7.353 1.112 1.605-.14-27.611-16.129-25.82-1.227 2.52-1.206 2.475c-2.584-3.314-6.221-6.518-9.367-9.074-2.88-2.34-12.477-9.601-16.142-10.068-3.416-4.892-13.838-10.322-18.48-12.393q-1.411-.63-2.846-1.206l2.528-.505 5.587-1.118-30.906-5.37-22.59 5.338 3.13 1.078.842.29c-1.922.602-3.805 1.363-5.615 2.207a61 61 0 0 0-10.943 6.603c-1.643 1.248-4.934 3.905-5.766 5.824l-.058.135-.106-.015c-1.488-.209-5.314 2.105-6.565 2.867-3.472 2.116-6.87 4.586-9.985 7.195-2.949 2.469-6.208 5.525-8.459 8.772l-.556-.675-1.169-1.419-11.64 19.69-4.038 28.623 2.381-3.522 2.677-3.958c.335 4.531 1.36 9.051 2.93 13.292 1.263 3.41 3.06 7.13 5.307 10.106l.218 1.79c1.281 10.516 4.31 20.868 9.798 29.97-1.521.346-3.025.775-4.528 1.2-.714.2-1.428.402-2.144.592l-1.462.389 1.092 1.047c2.75 2.638 4.93 5.73 7.685 8.375l.174.166.236.051c1.755.379 3.766 1.013 5.778 1.774a63 63 0 0 1 4.76 2.03c.907.432 1.766.87 2.544 1.298l.17.094.195.01c13.369.708 26.757.98 40.126 1.687l5.666.3-5.33-1.948a213 213 0 0 1-6.66-2.56c-6.152-2.485-12.182-5.268-18.035-8.397 1.108-4.928 2.28-9.842 3.439-14.759m-8.234-4.84a73 73 0 0 0 7.454 4.444c-1.224 5.19-2.46 10.372-3.63 15.599a185 185 0 0 0 16.843 7.986 212 212 0 0 0 8.532 3.326c-13.375-.708-26.751-.979-40.126-1.687a42 42 0 0 0-1.2-.634c-2.481-1.26-5.448-2.49-8.088-3.392-1.496-.511-2.888-.917-4.025-1.162-3.062-2.938-4.624-5.437-7.686-8.375.82-.218 1.648-.452 2.477-.686 1.781-.503 3.573-1.004 5.336-1.345-4.624-7.335-8.688-17.321-10.313-30.656 6.618 8.542 13.549 17.333 21 24.875 4.437-2.663 8.936-5.49 13.426-8.294m-34.004-40.404c8.422 16.738 20.077 30.732 33.239 39.878-4.163 2.6-8.32 5.212-12.525 7.744-7.092-7.246-13.453-15.284-19.666-23.293l-.286-1.918c-1.01-6.767-1.166-13.907-.85-20.735q.038-.838.088-1.676m7.826-31.806 17.875 14c-9.014 1.774-17.823 3.805-25.5 7.25-.42 2.922-.74 5.96-.955 9.033-.583 8.328-.393 16.9.674 24.06-4.057-4.849-8.743-15.157-8.906-26.406l-3.335 4.932-1.103 1.63 3.5-24.811 10.938-18.501.554.672 1.133 1.375c5.547-8.94 22.454-19.753 24.813-19.422-.748 1.21-14.523 15.208-19.688 26.188" style="fill:#fefefe;fill-rule:evenodd"></path><path d="m369.367 378.397.071.992c.15 2.071-.726 5.693-1.225 7.718a101 101 0 0 1-3.681 11.735c-1.362 3.57-3.023 7.36-5.093 10.633l7.804 3.03-7.345 7.297-.108.058c-5.566 3.016-11.418 5.923-17.54 7.598l-.106.03-37.169.278 24.328-12.094-6.049-27.419 24.06 15.362c5.278-5.326 10.16-10.937 14.65-16.947 1.3-1.742 2.55-3.515 3.833-5.268.364-.496.902-1.255 1.453-1.866l.119-1.17c.346-3.402.421-6.928.418-10.345-.004-4.465-.183-8.95-.552-13.4a121 121 0 0 0-1.038-8.835c-7.638-3.447-16.332-5.134-24.479-6.942l-1.733-.385 18.313-14.65c-5.363-9.135-12.028-17.191-19.227-24.91l-.818-.355c-9.767-4.23-19.748-7.253-30.241-9.036l-11.539 18.54-11.713-18.417c-6.85.295-13.424 2.032-19.79 4.525-2.26.885-4.458 1.869-6.687 2.823-.948.406-2.968 1.329-3.995 1.188l-.077-.01-.149.24c-.349.565-1.128 1.359-1.58 1.865-1.072 1.2-2.145 2.396-3.206 3.606-3.022 3.447-5.97 6.987-8.683 10.683-2.138 2.912-4.271 6.076-5.879 9.339l18.799 14.722-1.823.36c-8.353 1.643-17.062 3.56-24.888 7-.539 3.86-.886 7.755-1.065 11.647-.316 6.828-.16 13.968.85 20.735l.286 1.918c6.213 8.01 12.574 16.047 19.666 23.293 7.629-4.595 15.101-9.447 22.738-14.03l1.701-1.02-.433 1.935c-1.906 8.515-4.006 16.984-5.922 25.496 7.952 4.25 16.23 7.863 24.697 10.957l5.33 1.949-5.667-.3c-13.37-.709-26.757-.98-40.126-1.688l-.195-.01-.17-.094c-3.646-2.004-9.043-4.23-13.082-5.102l-.236-.05-.174-.167c-2.756-2.644-4.935-5.737-7.686-8.375l-1.09-1.047 1.46-.389c2.224-.591 4.429-1.281 6.673-1.791-5.488-9.103-8.517-19.455-9.798-29.971l-.218-1.79c-2.248-2.977-4.044-6.696-5.307-10.106-1.57-4.24-2.596-8.76-2.93-13.292l-5.058 7.48 4.037-28.622 11.641-19.69 1.725 2.093c2.251-3.247 5.51-6.303 8.458-8.772 3.117-2.609 6.514-5.079 9.986-7.195 1.25-.762 5.077-3.076 6.565-2.867l.106.015.058-.135c.832-1.92 4.123-4.576 5.766-5.824a61 61 0 0 1 10.943-6.602c1.81-.845 3.693-1.605 5.615-2.208l-3.972-1.368 22.59-5.339 30.906 5.371-8.116 1.623q1.435.576 2.847 1.206c4.642 2.071 15.064 7.501 18.48 12.393 3.665.467 13.263 7.728 16.142 10.068 3.146 2.556 6.782 5.76 9.367 9.074l2.433-4.995 16.129 25.82.14 27.61-6.207-8.957c-.535 7.96-2.351 17.365-7.318 23.54" style="fill:#fefefe;fill-rule:evenodd"></path><path d="m366.715 312.137-2.375 4.875c-5.555-7.971-22.12-19.537-25.812-19.937 7.705 8.163 15.004 16.771 20.874 26.937l-17.5 14c8.355 1.854 17.396 3.646 25.063 7.187 1.91 11.747 1.966 26.213 1.25 33.25 4.297-4.937 7.286-13.604 7.75-26.125l6.063 8.75-.125-24.625zm-91.687-31.002 3.812 1.313c-10.855 2.447-23.047 11.668-24.437 14.875 2.352.321 14.731-8.03 30.812-8.562l11.25 17.687 11.126-17.875c10.958 1.813 21.041 4.876 31 9.189-2.027-4.395-13.535-11.565-24.313-15.376l6.563-1.312-26.25-4.562zm-48.189 34.187 1.687 2.047c5.547-8.94 22.454-19.753 24.813-19.422-.748 1.21-14.523 15.208-19.688 26.188l17.875 14c-9.014 1.774-17.823 3.805-25.5 7.25-1.559 10.842-1.742 23.292-.28 33.093-4.058-4.849-8.744-15.157-8.907-26.406l-4.438 6.563 3.5-24.812zm8.75 105.503c3.48.75 9.333 3 13.313 5.188 13.375.708 26.75.979 40.126 1.687-8.78-3.209-17.263-6.936-25.376-11.312 1.959-8.75 4.105-17.375 6.063-26.125-7.708 4.625-15.604 9.75-23.313 14.375-7.45-7.542-14.381-16.333-20.999-24.875 1.625 13.335 5.689 23.321 10.313 30.656-2.584.5-5.23 1.344-7.813 2.031 3.062 2.938 4.624 5.437 7.686 8.375m130.127-8-7.563-2.938c6.06-8.95 10.712-26.633 10.437-30.437-1.914 1.225-6.888 10.963-21.156 25.25l-22.907-14.625 5.75 26.063-21.625 10.75 33.374-.25c5.915-1.619 11.757-4.49 17.36-7.526zM308.64 335.987c-3.288-10.122-7.325-18.993-11.862-27.926-5.662 9.933-9.075 17.867-12.362 28.05-10.45-.02-20.652.46-31.479 2.69 8.67 6.273 16.34 12.421 25.01 18.694-4.642 9.996-5.715 20.81-7.855 31.139 9.156-5.286 18.302-10.964 26.623-17.92 8.25 7.23 16.747 12.277 25.999 17.17-.923-11.045-3.485-20.063-6.854-30.389 8.67-6.273 15.714-12.172 23.633-18.695-9.2-1.23-20.903-2.584-30.854-2.813m-18.359 27.316v-22.594h3.342v8.899h6.597v-8.899h3.342v22.594h-3.342v-9.877h-6.598v9.877z" style="fill:#000;fill-rule:evenodd"></path><path d="M259.064 395.82c-13.163-9.147-24.817-23.141-33.24-39.879q-.049.838-.087 1.676c-.316 6.828-.16 13.968.85 20.735l.286 1.918c6.213 8.01 12.574 16.047 19.666 23.293 4.204-2.532 8.362-5.143 12.525-7.744M268.063 401.185c-1.16 4.917-2.33 9.83-3.44 14.759 5.854 3.129 11.884 5.912 18.035 8.397a1154 1154 0 0 1 29.318-.055l17.327-8.614-3.58-16.232c-9.748 4.909-20.635 7.816-32.421 7.94-8.568.09-17.1-2.12-25.24-6.195M333.623 394.873l13.691 8.742c5.278-5.326 10.16-10.937 14.65-16.947 1.3-1.742 2.55-3.515 3.833-5.268.364-.496.902-1.255 1.453-1.867l.119-1.17c.346-3.402.421-6.927.418-10.344a164 164 0 0 0-.502-12.773c-7.399 15.665-18.955 29.977-33.662 39.627" style="fill:#c5c6c6;fill-rule:evenodd"></path><path d="M224.34 378.077c-2.247-2.978-4.043-6.697-5.305-10.106-1.57-4.242-2.596-8.762-2.931-13.293l-2.677 3.958a83 83 0 0 0-.057 3.074c0 18.404 6.118 35.49 16.46 49.325 1.502-.424 3.006-.853 4.527-1.198-5.488-9.103-8.517-19.455-9.798-29.971zM368.213 387.107a101 101 0 0 1-3.681 11.735c-1.362 3.57-3.023 7.36-5.093 10.632l5.33 2.07c10.571-13.798 16.898-30.893 17.011-49.334l-5.095-7.353c-.535 7.96-2.351 17.365-7.318 23.54l.071.992c.15 2.071-.726 5.693-1.225 7.718M338.68 296.237c3.666.467 13.264 7.728 16.143 10.068 3.146 2.556 6.783 5.76 9.367 9.074l1.205-2.475a84 84 0 0 0-8.35-9.506 85.04 85.04 0 0 0-37.162-21.265l-2.528.505q1.434.576 2.846 1.206c4.642 2.071 15.064 7.501 18.48 12.393M253.622 296.985c.832-1.92 4.123-4.576 5.766-5.824a61 61 0 0 1 10.943-6.603c1.81-.844 3.693-1.605 5.615-2.207l-.843-.29a84.2 84.2 0 0 0-37.167 21.275 83.2 83.2 0 0 0-10.043 11.928l.556.675c2.251-3.247 5.51-6.303 8.458-8.772 3.117-2.609 6.514-5.079 9.986-7.195 1.25-.762 5.077-3.076 6.565-2.867l.106.015zM300.22 349.608h-6.598v-8.899h-3.341v22.594h3.342v-9.877h6.597v9.877h3.342v-22.594h-3.342z" style="fill:#fff;fill-rule:evenodd"></path><path d="M297.342 279.137c-23.21 0-44.212 9.248-59.406 24.199-15.178 14.936-24.566 35.574-24.566 58.374 0 22.845 9.426 43.66 24.658 58.746 15.184 15.04 36.15 24.39 59.314 24.39 23.2 0 44.314-9.382 59.626-24.467 15.304-15.078 24.813-35.861 24.813-58.67 0-22.762-9.477-43.375-24.736-58.31-15.312-14.989-36.457-24.262-59.703-24.262m-64.56 18.96c16.532-16.268 39.358-26.33 64.56-26.33 25.229 0 48.2 10.088 64.857 26.392 16.626 16.273 26.952 38.739 26.952 63.55 0 24.845-10.359 47.485-27.03 63.91-16.645 16.398-39.584 26.596-64.78 26.596-25.168 0-47.967-10.177-64.496-26.548C216.262 409.24 206 386.58 206 361.71c0-24.839 10.235-47.33 26.782-63.614" style="fill:#000;fill-rule:evenodd"></path><path d="M297.342 444.845c22.094 0 42.295-8.508 57.395-22.347-4.026 2.001-8.19 3.784-12.486 4.96l-.107.03-37.169.278 7.001-3.48a1148 1148 0 0 0-29.318.055q3.31 1.335 6.662 2.56l5.33 1.949-5.667-.3c-13.37-.709-26.757-.98-40.126-1.688l-.194-.01-.17-.094c-2.063-1.134-4.685-2.338-7.305-3.328 14.871 13.288 34.557 21.415 56.154 21.415" style="fill:#fff;fill-rule:evenodd"></path><path d="M365.715 294.546c8.978 8.79 16.192 19.277 21.099 30.848a92.9 92.9 0 0 1 7.372 36.319 93.5 93.5 0 0 1-7.396 36.455c-4.919 11.63-12.146 22.192-21.14 31.052a97.8 97.8 0 0 1-31.445 20.784 97 97 0 0 1-36.861 7.259 96.5 96.5 0 0 1-36.752-7.244 97 97 0 0 1-31.286-20.763c-8.95-8.863-16.122-19.43-20.999-31.046a94.25 94.25 0 0 1-7.34-36.497 93.65 93.65 0 0 1 7.322-36.366c4.867-11.56 12.03-22.056 20.969-30.852a96.7 96.7 0 0 1 31.281-20.596c11.69-4.767 24.183-7.18 36.805-7.18a97.9 97.9 0 0 1 36.918 7.2 97.6 97.6 0 0 1 31.453 20.627" style="fill:none"></path><path d="M362.74 297.585c8.579 8.397 15.47 18.41 20.16 29.469a88.6 88.6 0 0 1 7.034 34.659 89.2 89.2 0 0 1-7.06 34.798c-4.703 11.12-11.611 21.211-20.208 29.68a93.5 93.5 0 0 1-30.076 19.88 92.7 92.7 0 0 1-35.246 6.94c-12.064 0-23.976-2.332-35.134-6.924a92.7 92.7 0 0 1-29.912-19.852c-8.555-8.473-15.408-18.564-20.07-29.67a89.9 89.9 0 0 1-7.01-34.852 89.3 89.3 0 0 1 6.99-34.716c4.65-11.049 11.492-21.067 20.032-29.472a92.45 92.45 0 0 1 29.905-19.689c11.185-4.561 23.122-6.865 35.199-6.865 12.115 0 24.092 2.319 35.316 6.886a93.3 93.3 0 0 1 30.08 19.728" style="fill:none"></path><path d="M387.597 325.062a93.85 93.85 0 0 1 7.44 36.65 94.4 94.4 0 0 1-7.464 36.787c-4.961 11.731-12.255 22.39-21.326 31.327a98.7 98.7 0 0 1-31.72 20.964 97.9 97.9 0 0 1-37.183 7.323 97.4 97.4 0 0 1-37.076-7.308 97.9 97.9 0 0 1-31.56-20.945c-9.027-8.94-16.266-19.604-21.185-31.321a95.15 95.15 0 0 1-7.407-36.826 94.6 94.6 0 0 1 7.389-36.696c4.91-11.661 12.14-22.256 21.157-31.128a97.6 97.6 0 0 1 31.556-20.777c11.787-4.807 24.4-7.243 37.126-7.243a98.8 98.8 0 0 1 37.239 7.262 98.5 98.5 0 0 1 31.727 20.808c9.057 8.865 16.337 19.451 21.287 31.123m-55.258-46.418a92.8 92.8 0 0 0-34.995-6.823c-11.961 0-23.8 2.285-34.878 6.803a91.6 91.6 0 0 0-29.63 19.508c-8.458 8.323-15.239 18.255-19.845 29.195a88.55 88.55 0 0 0-6.923 34.386 89.1 89.1 0 0 0 6.944 34.522c4.617 10.999 11.411 21.004 19.885 29.396a91.9 91.9 0 0 0 29.637 19.67 91.4 91.4 0 0 0 34.81 6.86 91.9 91.9 0 0 0 34.923-6.877 92.7 92.7 0 0 0 29.803-19.698c8.515-8.39 15.363-18.392 20.021-29.406a88.4 88.4 0 0 0 6.993-34.467 87.8 87.8 0 0 0-6.967-34.327c-4.644-10.95-11.474-20.876-19.972-29.194a92.5 92.5 0 0 0-29.806-19.548" style="fill:#e30016;fill-rule:evenodd"></path><path d="M332.66 277.857a93.3 93.3 0 0 1 30.08 19.728c8.579 8.397 15.47 18.41 20.16 29.469a88.6 88.6 0 0 1 7.034 34.659 89.2 89.2 0 0 1-7.06 34.798c-4.703 11.12-11.611 21.211-20.208 29.68a93.5 93.5 0 0 1-30.076 19.88 92.7 92.7 0 0 1-35.246 6.94c-12.064 0-23.976-2.331-35.134-6.924a92.7 92.7 0 0 1-29.912-19.851c-8.555-8.474-15.408-18.565-20.07-29.672a89.9 89.9 0 0 1-7.01-34.851 89.3 89.3 0 0 1 6.99-34.716c4.65-11.049 11.492-21.067 20.032-29.472a92.45 92.45 0 0 1 29.905-19.689c11.185-4.561 23.122-6.865 35.199-6.865 12.115 0 24.092 2.319 35.316 6.886m54.154 47.537c-4.907-11.571-12.12-22.059-21.1-30.848a97.6 97.6 0 0 0-31.452-20.628 97.9 97.9 0 0 0-36.918-7.199c-12.622 0-25.115 2.413-36.805 7.18a96.7 96.7 0 0 0-31.281 20.596c-8.939 8.796-16.102 19.291-20.97 30.852a93.65 93.65 0 0 0-7.322 36.366 94.25 94.25 0 0 0 7.341 36.497c4.877 11.617 12.05 22.183 20.999 31.046a97 97 0 0 0 31.286 20.763 96.5 96.5 0 0 0 36.752 7.244 97 97 0 0 0 36.861-7.26 97.8 97.8 0 0 0 31.445-20.783c8.994-8.86 16.221-19.422 21.14-31.052a93.5 93.5 0 0 0 7.396-36.455 92.9 92.9 0 0 0-7.372-36.32" style="fill:#a89e84;fill-rule:evenodd"></path><path d="M382.117 327.386a87.8 87.8 0 0 1 6.966 34.327 88.4 88.4 0 0 1-6.992 34.467c-4.659 11.014-11.506 21.016-20.021 29.406a92.7 92.7 0 0 1-29.803 19.698 91.9 91.9 0 0 1-34.923 6.877 91.4 91.4 0 0 1-34.81-6.86 91.9 91.9 0 0 1-29.638-19.67c-8.473-8.392-15.267-18.397-19.884-29.396a89.1 89.1 0 0 1-6.944-34.522 88.55 88.55 0 0 1 6.923-34.386c4.606-10.94 11.387-20.872 19.846-29.195a91.6 91.6 0 0 1 29.629-19.508c11.078-4.518 22.917-6.802 34.878-6.802 12 0 23.878 2.299 34.995 6.823a92.5 92.5 0 0 1 29.806 19.548c8.498 8.317 15.327 18.242 19.971 29.193m-19.377-29.801a93.3 93.3 0 0 0-30.08-19.728c-11.224-4.567-23.2-6.886-35.316-6.886-12.077 0-24.014 2.304-35.2 6.865a92.45 92.45 0 0 0-29.904 19.69c-8.54 8.404-15.381 18.422-20.033 29.471a89.3 89.3 0 0 0-6.989 34.716 89.9 89.9 0 0 0 7.01 34.851c4.662 11.107 11.515 21.198 20.07 29.671a92.7 92.7 0 0 0 29.912 19.852c11.158 4.593 23.07 6.924 35.134 6.924 12.1 0 24.052-2.345 35.246-6.94a93.5 93.5 0 0 0 30.076-19.88c8.597-8.469 15.505-18.56 20.208-29.68a89.2 89.2 0 0 0 7.06-34.798 88.6 88.6 0 0 0-7.035-34.66c-4.69-11.057-11.58-21.071-20.159-29.468" style="fill:#a99981;fill-rule:evenodd"></path><path d="M389.084 361.713a88.4 88.4 0 0 1-6.993 34.467c-4.658 11.014-11.506 21.016-20.021 29.406a92.7 92.7 0 0 1-29.803 19.698 91.9 91.9 0 0 1-34.923 6.877 91.4 91.4 0 0 1-34.81-6.86 91.9 91.9 0 0 1-29.637-19.67c-8.474-8.392-15.268-18.397-19.885-29.396a89.1 89.1 0 0 1-6.943-34.522 88.55 88.55 0 0 1 6.922-34.386c4.606-10.94 11.387-20.872 19.846-29.195a91.6 91.6 0 0 1 29.629-19.508c11.078-4.518 22.917-6.802 34.878-6.802 12 0 23.878 2.299 34.995 6.823a92.5 92.5 0 0 1 29.806 19.548c8.498 8.317 15.328 18.242 19.972 29.193a87.8 87.8 0 0 1 6.967 34.327m-26.344-64.128a93.3 93.3 0 0 0-30.08-19.728c-11.224-4.567-23.2-6.886-35.316-6.886-12.077 0-24.014 2.304-35.2 6.865a92.45 92.45 0 0 0-29.904 19.69c-8.54 8.404-15.381 18.422-20.033 29.471a89.3 89.3 0 0 0-6.989 34.716 89.9 89.9 0 0 0 7.01 34.851c4.662 11.107 11.515 21.198 20.07 29.671a92.7 92.7 0 0 0 29.912 19.852c11.158 4.593 23.07 6.924 35.134 6.924 12.1 0 24.052-2.345 35.246-6.94a93.5 93.5 0 0 0 30.076-19.88c8.597-8.469 15.505-18.56 20.208-29.68a89.2 89.2 0 0 0 7.06-34.798 88.6 88.6 0 0 0-7.035-34.66c-4.69-11.057-11.58-21.071-20.159-29.468" style="fill:#b6a489;fill-rule:evenodd" data-source="https://football-logos.cc"></path><path d="M382.091 396.18c-4.658 11.014-11.506 21.016-20.021 29.406a92.7 92.7 0 0 1-29.803 19.698 91.9 91.9 0 0 1-34.923 6.877 91.4 91.4 0 0 1-34.81-6.86 91.9 91.9 0 0 1-29.637-19.67c-8.474-8.392-15.268-18.397-19.885-29.396a89.1 89.1 0 0 1-6.943-34.522 88.55 88.55 0 0 1 6.922-34.386c4.606-10.94 11.387-20.872 19.846-29.195a91.6 91.6 0 0 1 29.629-19.508c11.078-4.518 22.917-6.802 34.878-6.802 12 0 23.878 2.299 34.995 6.823a92.5 92.5 0 0 1 29.806 19.548c8.498 8.317 15.328 18.242 19.972 29.193a87.8 87.8 0 0 1 6.967 34.327 88.4 88.4 0 0 1-6.993 34.467m-19.35-98.595a93.3 93.3 0 0 0-30.081-19.728c-11.224-4.567-23.2-6.886-35.316-6.886-12.077 0-24.014 2.304-35.2 6.865a92.45 92.45 0 0 0-29.904 19.69c-8.54 8.404-15.381 18.422-20.033 29.471a89.3 89.3 0 0 0-6.989 34.716 89.9 89.9 0 0 0 7.01 34.851c4.662 11.107 11.515 21.198 20.07 29.671a92.7 92.7 0 0 0 29.912 19.852c11.158 4.593 23.07 6.924 35.134 6.924 12.1 0 24.052-2.345 35.246-6.94a93.5 93.5 0 0 0 30.076-19.88c8.597-8.469 15.505-18.56 20.208-29.68a89.2 89.2 0 0 0 7.06-34.798 88.6 88.6 0 0 0-7.035-34.66c-4.69-11.057-11.58-21.071-20.159-29.468" style="fill:#c6b497;fill-rule:evenodd"></path><path d="M386.814 325.394a92.9 92.9 0 0 1 7.372 36.319 93.5 93.5 0 0 1-7.396 36.455c-4.919 11.63-12.146 22.192-21.14 31.052a97.8 97.8 0 0 1-31.445 20.784 97 97 0 0 1-36.861 7.259 96.5 96.5 0 0 1-36.752-7.244 97 97 0 0 1-31.286-20.763c-8.95-8.863-16.122-19.43-20.999-31.046a94.25 94.25 0 0 1-7.34-36.497 93.65 93.65 0 0 1 7.322-36.366c4.867-11.56 12.03-22.056 20.969-30.852a96.7 96.7 0 0 1 31.281-20.596c11.69-4.767 24.183-7.18 36.805-7.18a97.9 97.9 0 0 1 36.918 7.2 97.6 97.6 0 0 1 31.453 20.627c8.978 8.79 16.192 19.277 21.099 30.848m8.222 36.319a93.85 93.85 0 0 0-7.44-36.651c-4.95-11.672-12.23-22.258-21.286-31.123a98.5 98.5 0 0 0-31.727-20.808 98.8 98.8 0 0 0-37.24-7.262c-12.726 0-25.338 2.436-37.125 7.243a97.6 97.6 0 0 0-31.557 20.777c-9.016 8.872-16.247 19.467-21.156 31.128a94.6 94.6 0 0 0-7.39 36.696 95.15 95.15 0 0 0 7.408 36.826c4.919 11.717 12.157 22.38 21.184 31.321a97.9 97.9 0 0 0 31.561 20.945 97.4 97.4 0 0 0 37.076 7.308c12.749 0 25.39-2.48 37.184-7.323a98.7 98.7 0 0 0 31.719-20.964c9.071-8.937 16.365-19.596 21.326-31.327a94.4 94.4 0 0 0 7.463-36.786" style="fill:#9db195;fill-rule:evenodd"></path><path d="M31.229 455.023c89.204-20.357 178.856-30.836 268.663-30.805 88.102.031 176.263 10.163 264.202 30.992l6.167 1.461-1.563 6.14-26.062 102.375-1.486 5.837-5.87-1.282c-78.31-17.096-157.134-26.561-236.367-27.066-79.236-.504-159.005 7.942-239.22 26.666l-5.959 1.391-1.495-5.946L26.552 462.6l-1.548-6.155zm268.663-18.381c-86.748-.03-173.408 9.869-259.706 29.109l22.646 90.087c79.093-17.97 157.834-26.085 236.13-25.586 78.277.498 155.993 9.595 233.074 26.042l23.012-90.395c-85.057-19.657-170.193-29.227-255.156-29.257" style="fill:#000;fill-rule:evenodd"></path><path d="M555.048 465.9c-85.057-19.658-170.193-29.228-255.156-29.258-86.748-.03-173.408 9.869-259.706 29.109l22.646 90.087c79.093-17.97 157.834-26.085 236.13-25.586 78.277.498 155.993 9.595 233.074 26.042z" style="fill:#fc0000;fill-rule:evenodd"></path><path d="M334.705 610.162c8.342.039 12.459-6.09 12.521-13.8l.047-5.729c.062-7.582-2.372-13.55-11.283-13.69-2.741-.043-5.78.962-7.553 3.08v-14.845l17.054.142v-6.143h-22.713v26.747h5.74c1.642-2.854 2.874-4.422 6.187-4.328 4.908.141 6.174 4.719 6.174 9.609v4.72c0 6.295-2.547 9.489-6.242 9.35-4.619-.175-6.316-4.332-6.316-8.87v-.51h-6.286v.945c0 7.328 2.733 13.275 12.67 13.322M313.007 567.121v42.315h6.563v-50.4h-5.497c-2.647 3.051-6.339 4.429-10.237 5.476v4.538a38.7 38.7 0 0 0 9.17-1.929M288.311 604.806c-6.51-.006-6.008-6.132-6.008-11.432v-17.431c0-5.3.154-11.95 6.477-11.947 6.524.004 6.291 6.34 6.263 11.666l-.094 17.619c-.028 5.325-.207 11.53-6.638 11.525m-12.626-10.977c.058 12.29 4.521 16.333 12.626 16.333 8.431 0 13.115-4.507 13.163-15.208l.093-20.881c.047-10.507-5.106-15.714-13.256-15.62-8.104.092-12.769 4.926-12.72 15.432zM248.043 604.773v4.71l24.201.094v-5.332h-16.708l13.125-19.605c2.835-4.234 4.802-8.668 4.802-13.053 0-7.523-3.002-13.233-12.1-12.994-10.71.28-12.522 7.073-12.522 14.346v1.598h6.138v-1.307c0-4.474.664-9.634 6.435-9.634 5.256 0 5.91 4.21 5.88 8.183-.026 3.163-1.529 6.253-3.582 9.351z" style="fill:#00f;fill-rule:evenodd"></path><path d="M432.507 287.083c14.485.375 15.26-11.727 15.26-21.72v-.849h-8.017v.765c0 6.326.736 15.34-7.15 15.354-6.287.01-7.964-3.177-7.964-11.218V245.46c0-6.877.248-12.195 8.175-12.287 7.946-.092 6.94 7.973 6.94 15.07v.594h7.902v-.764c0-10.13.111-20.201-15.231-21.045-10.999-.605-15.97 7.469-15.97 17.838v24.463c0 10.361 5.114 17.47 16.054 17.753M156.15 233.728h22.462v-5.98H148.23l-.567 58.022h8.488v-27.364h19.23v-5.495h-19.23z" style="fill:none"></path><path d="M448.905 464.596c.14-1.17-2.343-2.773-3.402-2.892l-1.529-.172-7.109 58.503 1.997.265c1.895.252 3.552-1.387 3.713-2.729zm1.57-9.997c5.761.7 7.368 3.924 6.846 8.257l-7.013 58.215c-.29 2.399-.982 4.7-2.605 6.235s-3.6 1.926-5.44 1.664l-14.42-2.053 9.441-73.922zM474.247 465.594l-5.411-.864.93-7.546 18.841 2.863-1.023 7.64-5.693-.958-9.835 66.737-8.113-1.322zM254.674 483.835l-1.05.015-1.101 21.785 4.743-.14zm2.294-37.943 10.86 74.413-8.316.28-1.2-7.398-6.54.255-.762 7.502-8.164.355 6.018-75.198zM356.843 455.846c.051-1.14-.765-2.973-2.625-3.072-2.648-.142-3.42 2.538-3.465 3.663l-.829 20.189c-.092 2.23 1.62 3.126 4.237 3.247 4.51.21 6.485 2.267 7.706 4.347 1.102 1.878 1.708 4.703 1.601 6.69l-1.22 22.787c-.291 5.441-6.76 9.215-11.901 8.916-4.952-.287-10.648-3.789-10.4-9.089l1.008-21.434 8.265.23-.958 20.834c-.054 1.182 1.614 2.696 2.76 2.758s2.848-1.134 2.908-2.317l1.105-21.87c.072-1.42-.239-3.136-2.3-3.267-3.575-.226-5.693-1.234-8.084-3.622-2.054-2.051-3.025-5.094-2.856-8.235l1.066-19.942c.364-6.808 5.335-10.877 11.699-10.668 5.138.168 10.621 4.338 10.414 10.155l-.74 20.78-8.314-.33zM284.665 445.092l5.654 32.894.738-.004-.39-32.708 7.876-.003.075 74.815-8.092-.107-5.425-32.556-.856.007.333 32.742-8.063.006.249-75.056zM214.918 523.135l-5.632-31.608-1.23.08 2.241 31.757-8.007.782-4.634-75.016 7.953-.292 9.409 37.954 1.413-.067 4.429-38.746 7.814-.486 4.82 74.267-7.96.548-1.913-32.133-1.042.033-1.856 32.57zM178.783 451.028c3.544-.386 6.042 2.72 6.442 6.117l3.245 27.5c.375 3.183-.442 7.142-2.488 8.586 2.261 1.174 3.644 3.497 3.907 6.099l2.587 25.63-7.713.666-2.61-24.951c-.126-1.203-2.295-2.395-4.333-2.173l-.765.083 2.713 27.833-7.736.572-7.872-74.37zm-.255 10.816c-.227-2.223-2.503-2.99-4.472-2.746l-1.516.187 3.45 31.613c.326-.035 1.283-.096 1.576-.128 2.35-.26 3.65-2.607 3.47-4.375zM150.143 487.991l8.535-.934.94 7.837-8.534.935 3.263 25.234 8.208-.946.941 7.837-16.19 1.883-9.145-74.24 16.47-1.731.847 7.555-8.44.888zM104.094 459.91l8.178-1.236 5.022 33.165 6.239-.96-5.116-33.071 7.895-1.128 11.412 73.87-8.083 1.504-4.815-33.467-6.52 1.007 5.66 33.044-8.46 1.518zM381.206 455.819l-5.651-.42.452-7.597 19.106 1.411-.585 7.276-5.94-.35-4.847 67.294-7.895-.43zM317.595 445.04l4.977 33.003.739.011.28-32.709 7.875.16-1.461 74.8-8.088-.273-4.755-32.66-.856-.011-.34 32.741-8.061-.16 1.79-75.034zM409.634 488.485l-1.045-.109-3.638 21.508 4.727.416zm6.712-37.416 2.09 75.172-8.29-.693-.327-7.488-6.526-.51-1.633 7.361-8.15-.602 14.763-73.98z" style="fill:#00f;fill-rule:evenodd"></path><text x="290.282" y="363.303">
              <tspan font-size="31.5" style="font-size:31.5px;font-family:&quot;Arial Narrow&quot;;fill:red">H</tspan>
            </text><path d="m516.087 489.352.863 10.99 10.727 2.533-10.184 4.216.905 10.986-7.157-8.383-10.168 4.255 5.761-9.397-7.19-8.356 10.718 2.576zm-439.067-.377 5.738 9.411 10.714-2.59-7.177 8.365 5.774 9.39-10.174-4.242-7.145 8.393.89-10.986-10.19-4.202 10.723-2.55z" style="fill:#00f;fill-rule:evenodd"></path><path d="M193.29 429.087V210.5c-13.087-4.58-25.915-10.143-38.03-16.79l-36.574 34.402a215.5 215.5 0 0 1 14.021 41.52 215.5 215.5 0 0 1 5.388 50.227c-.412 36.413-12.299 63.95-23.602 90.135-4.535 10.507-8.973 20.788-12.355 30.953a1210 1210 0 0 1 91.153-11.861m-17.91-170.68h-19.23v27.363h-8.488l.567-58.021h30.383v5.98H156.15v19.182h19.23zM193.29 547.391a1015 1015 0 0 0-76.926 10.401c14.907 20.756 44.437 32.69 73.657 44.498l3.27 1.32zM401.54 548.257v54.971q3.43-1.338 6.758-2.622c14.295-5.512 27.739-11.538 39.496-18.33 11.368-6.568 21.096-13.83 28.37-22.01q.753-.846 1.483-1.694c-25.32-4.28-50.689-7.733-76.106-10.315M401.54 428.77a1143 1143 0 0 1 91.891 12.001c-2.998-8.864-6.937-17.488-11.063-26.518-11.914-26.08-25.284-55.35-24.972-105 .082-13.146 2.02-26.82 5.555-40.876 3.228-12.835 7.78-26.041 13.456-39.499l-36.41-35.814a261 261 0 0 1-38.456 17.613zm46.227-163.406c0 9.992-.775 22.094-15.26 21.719-10.941-.284-16.054-7.392-16.054-17.753v-24.463c0-10.37 4.97-18.443 15.969-17.838 15.342.844 15.231 10.915 15.231 21.045v.764h-7.902v-.594c0-7.097 1.006-15.162-6.94-15.07-7.927.092-8.175 5.41-8.175 12.287v23.954c0 8.041 1.677 11.228 7.965 11.217 7.885-.013 7.15-9.027 7.15-15.353v-.765h8.016z" style="fill:#ad0000;fill-rule:evenodd"></path><path d="M228.662 293.889a97.6 97.6 0 0 1 31.556-20.777c11.787-4.807 24.4-7.243 37.126-7.243a98.8 98.8 0 0 1 37.239 7.262 98.5 98.5 0 0 1 31.727 20.808c9.057 8.865 16.337 19.451 21.287 31.123a93.85 93.85 0 0 1 7.44 36.65 94.4 94.4 0 0 1-7.464 36.787c-4.335 10.25-10.45 19.682-17.977 27.862q15.973.979 31.945 2.408V210.677a274 274 0 0 1-26.625 8.168c-26.743 6.754-54.071 9.477-81.056 9.229-23.115-.213-50.12-3.403-77.096-10.436a301 301 0 0 1-23.473-7.137v218.586a1178 1178 0 0 1 32.258-2.505c-7.566-8.226-13.695-17.726-18.026-28.043a95.15 95.15 0 0 1-7.407-36.826 94.6 94.6 0 0 1 7.389-36.696c4.91-11.661 12.14-22.256 21.157-31.128M298.913 542.675c-35.105-.223-70.315 1.31-105.622 4.716v56.218l4.419 1.783 9.918 4.031c29.866 12.114 60.272 24.45 89.8 41.82 15.796-9.29 33.937-18.23 52.356-26.49 17.618-7.9 35.481-15.171 51.757-21.525v-54.971c-34.127-3.467-68.34-5.363-102.628-5.582m-50.87 62.098 15.669-23.643c2.053-3.098 3.556-6.188 3.581-9.35.032-3.974-.623-8.184-5.879-8.184-5.77 0-6.435 5.16-6.435 9.634v1.307h-6.139v-1.598c0-7.273 1.813-14.066 12.522-14.346 9.1-.239 12.101 5.471 12.101 12.994 0 4.385-1.967 8.819-4.802 13.053l-13.125 19.606h16.708v5.331l-24.201-.094zm40.268 5.389c-8.105 0-12.568-4.043-12.626-16.333l-.094-19.944c-.049-10.506 4.616-15.34 12.72-15.433 8.15-.093 13.303 5.113 13.256 15.621l-.093 20.88c-.048 10.702-4.732 15.209-13.163 15.209m24.696-.727v-42.314a38.7 38.7 0 0 1-9.172 1.929v-4.538c3.9-1.047 7.591-2.425 10.238-5.476h5.497v50.4zm21.698.727c-9.937-.047-12.67-5.994-12.67-13.322v-.944h6.286v.508c0 4.539 1.697 8.696 6.316 8.87 3.695.14 6.242-3.054 6.242-9.348v-4.721c0-4.89-1.266-9.468-6.174-9.609-3.313-.094-4.545 1.474-6.187 4.328h-5.74v-26.746h22.713v6.142l-17.054-.142v14.845c1.773-2.118 4.812-3.123 7.553-3.08 8.912.14 11.345 6.108 11.283 13.69l-.047 5.729c-.062 7.71-4.18 13.839-12.521 13.8" style="fill:#fc0000;fill-rule:evenodd"></path><path d="M282.303 575.943v17.431c0 5.3-.502 11.425 6.008 11.432 6.432.006 6.61-6.2 6.638-11.525l.094-17.62c.028-5.324.261-11.661-6.263-11.665-6.323-.004-6.477 6.647-6.477 11.947" style="fill:#fc0000;fill-rule:evenodd"></path><path d="M290.282 363.303h3.342v-9.877h6.598v9.877h3.34v-22.594h-3.34v8.899h-6.598v-8.899h-3.342zM416.453 244.867v24.463c0 10.361 5.113 17.47 16.054 17.753 14.485.375 15.26-11.727 15.26-21.72v-.849h-8.016v.765c0 6.326.735 15.34-7.15 15.353-6.288.011-7.965-3.176-7.965-11.217V245.46c0-6.877.248-12.195 8.175-12.287 7.946-.092 6.94 7.973 6.94 15.07v.594h7.902v-.764c0-10.13.111-20.201-15.231-21.045-10.999-.605-15.97 7.469-15.97 17.838M156.15 285.77v-27.363h19.23v-5.496h-19.23v-19.183h22.462v-5.98H148.23l-.567 58.022zM82.758 498.386l-5.738-9.411-.847 10.99-.455.108-10.269 2.441 10.19 4.202-.889 10.986 2.939-3.452 4.206-4.941 10.174 4.241-5.774-9.389 7.177-8.366zM104.094 459.91l11.412 74.246 8.46-1.518-5.66-33.044 6.52-1.007 4.815 33.467 8.083-1.503-11.412-73.87-7.895 1.127 5.115 33.071-6.238.96-5.022-33.165zM138.162 455.598l9.145 74.24 16.19-1.884-.942-7.837-8.208.946-3.263-25.234 8.535-.935-.941-7.837-8.535.934-3.106-25.682 8.441-.887-.847-7.556zM164.16 452.62l7.872 74.37 7.736-.572-2.713-27.833.765-.083c2.038-.222 4.207.97 4.333 2.173l2.61 24.951 7.713-.665-2.587-25.631c-.263-2.602-1.646-4.925-3.907-6.099 2.046-1.444 2.863-5.403 2.488-8.587l-3.245-27.499c-.4-3.398-2.898-6.503-6.442-6.117zm11.83 38.278-3.45-31.613 1.516-.187c1.97-.243 4.245.523 4.472 2.746l2.508 24.55c.18 1.77-1.12 4.116-3.47 4.376-.293.032-1.25.093-1.575.128M197.656 449.13l4.634 75.016 8.007-.782-2.242-31.758 1.23-.08 5.633 31.609 5.805-.358 1.856-32.569 1.042-.033 1.913 32.133 7.96-.548-4.82-74.267-7.814.486-4.43 38.746-1.412.067-9.41-37.954zM248.864 446.1l-6.018 75.198 8.164-.354.762-7.502 6.54-.255 1.2 7.397 8.316-.28-10.316-70.683-.145-1-.399-2.73-4.888.127-1.706.044zm4.76 37.75 1.05-.015 2.592 21.66-4.743.14zM285.101 487.423l5.425 32.556 8.092.107-.063-61.98v-.85l-.005-4.253v-1.417l-.002-.562v-1.417l-.005-4.336-7.876.003.05 4.097.016 1.423.007.563.007.568.001.056.01.798.05 4.265.01.853.24 20.085-.738.005-3.513-20.44-.15-.871-.75-4.369-.141-.817-.01-.059-.1-.583-.1-.578-.252-1.465-.638-3.712-7.901.03-.007 2.095-.005 1.456-.002.575-.002.579v.06l-.004.813-.014 4.352-.003.868-.213 64.258 8.064-.006-.334-32.742zM309.397 457.371l-1.492 62.572 8.062.16.339-32.742.856.01 4.755 32.66 8.088.274 1.333-68.27.018-.914.09-4.59.017-.86v-.062l.003-.105-1.224-.024-1.505-.03-4.115-.084-1.03-.02-.004.344-.013 1.486-.005.586-.005.592v.06l-.007.83-.038 4.433-.008.884-.202 23.493-.738-.01-3.378-22.393-.127-.842-.635-4.216-.12-.787-.008-.057-.085-.56-.084-.556-.212-1.408-.33-2.185-7.9-.132-.092 3.868-.034 1.437-.013.567-.014.572-.001.058-.02.804-.102 4.299zM341.795 476.6c-.169 3.142.802 6.185 2.856 8.236 2.391 2.388 4.509 3.396 8.084 3.622 2.061.13 2.372 1.846 2.3 3.267l-1.105 21.87c-.06 1.184-1.762 2.379-2.908 2.317s-2.814-1.576-2.76-2.757l.958-20.835-8.265-.23-1.007 21.434c-.25 5.3 5.447 8.802 10.399 9.09 5.141.298 11.61-3.476 11.901-8.917l1.22-22.786c.107-1.988-.5-4.813-1.601-6.69-1.221-2.081-3.196-4.139-7.706-4.348-2.618-.121-4.329-1.018-4.237-3.247l.83-20.189c.045-1.125.816-3.805 3.464-3.663 1.86.1 2.676 1.933 2.625 3.072l-.923 20.75 8.314.33.74-20.78c.207-5.817-5.276-9.987-10.414-10.155-6.365-.209-11.335 3.86-11.699 10.668zM381.206 455.819l-5.36 67.183 7.895.431 4.847-67.294 5.94.35.585-7.276-19.106-1.41-.452 7.596zM408.273 450.33l-14.763 73.98 8.15.601 1.633-7.361 6.526.51.327 7.488 8.29.693-2.09-75.172zm.316 38.046 1.045.109.044 21.815-4.727-.416zM437.284 452.995l-9.442 73.922 14.421 2.053c1.84.262 3.818-.13 5.44-1.664 1.623-1.535 2.316-3.836 2.605-6.236l7.013-58.214c.522-4.333-1.085-7.557-6.847-8.258zm-.419 67.04 7.11-58.502 1.528.171c1.06.119 3.541 1.723 3.402 2.892l-6.33 52.975c-.16 1.341-1.818 2.98-3.713 2.73zM474.247 465.594l-10.304 66.55 8.113 1.322 9.835-66.737 5.693.958 1.023-7.64-18.841-2.863-.93 7.546zM502.896 499.975l3.938 4.577-5.761 9.397 10.168-4.255 7.157 8.383-.905-10.985 3.044-1.261 7.14-2.956-6.73-1.59-3.997-.944-.863-10.989-5.725 9.42-7.3-1.755-3.417-.82zM255.536 604.246l13.125-19.606c2.835-4.234 4.802-8.668 4.802-13.053 0-7.523-3.002-13.233-12.1-12.994-10.71.28-12.522 7.073-12.522 14.346v1.598h6.138v-1.307c0-4.474.664-9.634 6.435-9.634 5.256 0 5.91 4.21 5.88 8.183-.026 3.163-1.529 6.253-3.582 9.351l-15.67 23.643v4.71l24.202.094v-5.332zM275.591 573.885l.094 19.944c.058 12.29 4.521 16.333 12.626 16.333 8.431 0 13.115-4.507 13.163-15.208l.093-20.881c.047-10.507-5.106-15.714-13.256-15.62-8.104.092-12.769 4.926-12.72 15.432m6.712 19.49v-17.432c0-5.3.154-11.95 6.477-11.947 6.524.004 6.291 6.34 6.263 11.666l-.094 17.619c-.028 5.325-.207 11.53-6.638 11.525-6.51-.006-6.008-6.132-6.008-11.432M313.007 567.121v42.315h6.563v-50.4h-5.497c-2.647 3.051-6.339 4.429-10.237 5.476v4.538a38.7 38.7 0 0 0 9.17-1.929M322.778 559.178v26.746h5.74c1.642-2.854 2.874-4.422 6.187-4.328 4.908.141 6.174 4.719 6.174 9.609v4.72c0 6.295-2.547 9.489-6.242 9.35-4.619-.175-6.316-4.332-6.316-8.87v-.51h-6.286v.945c0 7.328 2.733 13.275 12.67 13.322 8.342.039 12.459-6.09 12.521-13.8l.047-5.729c.062-7.582-2.372-13.55-11.283-13.69-2.741-.043-5.78.962-7.553 3.08v-14.845l17.054.142v-6.143z" style="fill:#fff;fill-rule:evenodd"></path><path d="M91.722 573.969a1012 1012 0 0 0-29.451 6.414l-16.815 3.925-4.213-16.757-30.06-119.583 17.523-4a1283 1283 0 0 1 44.547-9.342c3.916-12.426 9.017-24.33 14.176-36.282 11.285-26.144 20.928-49.69 21.257-78.754.165-14.596-1.435-29.238-4.68-43.469a185.7 185.7 0 0 0-14.6-41.05l-6.693-13.533 68.404-64.344 13.184 7.784c18.505 10.925 39.1 18.772 59.859 24.184 22.561 5.883 46.616 9.288 69.946 9.503 24.764.227 49.606-2.319 73.64-8.388 22.25-5.62 43.515-14.21 63.23-25.984l13.525-8.076 67.04 65.942-5.702 12.871c-5.787 13.065-10.829 26.637-14.317 40.506-2.77 11.017-4.645 22.478-4.717 33.859-.115 18.225 1.91 35.965 6.947 53.5 3.93 13.683 9.477 26.233 15.37 39.135 3.396 7.433 6.76 14.83 9.683 22.42l.242-.08 2.427 7.471q.456 1.36.888 2.731a1174 1174 0 0 1 44.346 9.605l17.385 4.119-34.658 136.14-16.574-3.617a1243 1243 0 0 0-30.22-6.208 166 166 0 0 1-4.468 5.236c-10.04 11.29-22.605 20.38-35.636 27.908-13.86 8.007-28.719 14.543-43.639 20.297-19.208 7.407-38.319 15.136-57.105 23.56-18.248 8.183-36.66 17.135-53.731 27.575l-10.605 6.486-10.633-6.474c-28.545-17.38-59.403-29.933-90.268-42.476l-9.926-4.034-7.618-3.103c-31.348-12.766-67.206-26.802-87.29-55.617" style="fill:none"></path><path d="M475.467 309.323c-.288 45.691 12.207 73.044 23.342 97.418 4.91 10.746 9.57 20.949 12.976 32l.008-.001q.93 2.863 1.768 5.68a1162 1162 0 0 1 50.533 10.79l6.167 1.462-1.562 6.14-26.062 102.374-1.487 5.837-5.87-1.281a1250 1250 0 0 0-37.321-7.558 149 149 0 0 1-8.258 10.129c-8.615 9.688-19.852 18.124-32.836 25.625-12.595 7.276-26.895 13.692-42.047 19.535-17.779 6.856-37.906 14.933-57.664 23.793-19.574 8.778-38.802 18.337-55.008 28.249l-4.702 2.876-4.723-2.876c-29.61-18.03-61.046-30.783-91.896-43.296l-9.918-4.031-7.618-3.103c-32.785-13.248-65.927-26.642-83.439-53.335q-1.44-2.197-2.805-4.395a1022 1022 0 0 0-37.351 7.987l-5.96 1.39-1.495-5.945-25.687-102.188-1.547-6.155 6.224-1.42a1271 1271 0 0 1 50.913-10.534q.75-2.652 1.583-5.358c3.88-12.581 8.935-24.294 14.115-36.294 10.633-24.634 21.816-50.539 22.184-83.119.166-14.707-1.351-30.282-4.962-46.118a197 197 0 0 0-15.492-43.558l-2.969-6.002 4.882-4.592 46.247-43.502 4.955-4.66 5.852 3.456c19.378 11.44 41.068 19.735 62.763 25.392 25.515 6.652 50.971 9.669 72.702 9.868 25.426.234 51.22-2.343 76.52-8.733 22.768-5.749 45.074-14.585 66.267-27.241l6.006-3.586 4.979 4.897 45.75 45 4.473 4.4-2.524 5.698c-6.45 14.56-11.526 28.732-14.947 42.333-3.222 12.811-4.987 25.052-5.06 36.553z" style="fill:none"></path><path d="M97.84 402.838c10.633-24.634 21.815-50.54 22.184-83.12.166-14.706-1.352-30.282-4.963-46.117a197 197 0 0 0-15.491-43.558l-2.97-6.002 4.883-4.593 46.247-43.501 4.954-4.66 5.853 3.455c19.377 11.44 41.068 19.736 62.762 25.392 25.516 6.652 50.972 9.67 72.703 9.869 25.426.233 51.22-2.343 76.52-8.733 22.767-5.75 45.074-14.586 66.267-27.242l6.005-3.586 4.98 4.897 45.75 45 4.472 4.4-2.524 5.699c-6.45 14.559-11.525 28.731-14.946 42.332-3.222 12.812-4.988 25.052-5.06 36.553-.287 45.691 12.208 73.044 23.343 97.418 4.91 10.746 9.57 20.949 12.976 32l.008-.001q.93 2.863 1.768 5.68a1162 1162 0 0 1 50.533 10.79l6.167 1.462-1.562 6.14-26.062 102.374-1.487 5.837-5.87-1.281a1250 1250 0 0 0-37.321-7.558 149 149 0 0 1-8.258 10.129c-8.615 9.688-19.852 18.124-32.836 25.625-12.595 7.276-26.895 13.692-42.047 19.535-17.779 6.856-37.906 14.933-57.664 23.793-19.574 8.778-38.802 18.337-55.008 28.249l-4.702 2.876-4.723-2.876c-29.61-18.03-61.046-30.783-91.896-43.296l-9.918-4.031-7.618-3.103c-32.785-13.248-65.927-26.642-83.439-53.335q-1.44-2.196-2.805-4.395a1022 1022 0 0 0-37.351 7.987l-5.96 1.39-1.495-5.945-25.687-102.188-1.547-6.155 6.224-1.42a1271 1271 0 0 1 50.913-10.534q.75-2.652 1.583-5.358c3.88-12.581 8.935-24.294 14.115-36.294zM62.27 580.383a1012 1012 0 0 1 29.452-6.414c20.084 28.815 55.942 42.851 87.29 55.617l7.618 3.103 9.926 4.034c30.865 12.543 61.723 25.096 90.268 42.476l10.633 6.474 10.605-6.486c17.07-10.44 35.483-19.392 53.731-27.575 18.786-8.424 37.897-16.153 57.105-23.56 14.92-5.754 29.779-12.29 43.638-20.297 13.032-7.528 25.598-16.618 35.637-27.908a166 166 0 0 0 4.468-5.236 1243 1243 0 0 1 30.22 6.208l16.574 3.618 34.658-136.141-17.385-4.119a1174 1174 0 0 0-44.346-9.605q-.432-1.371-.888-2.73l-2.427-7.473-.242.08c-2.922-7.59-6.287-14.986-9.682-22.42-5.894-12.901-11.44-25.45-15.37-39.133-5.037-17.536-7.063-35.276-6.948-53.501.071-11.381 1.946-22.842 4.717-33.86 3.489-13.868 8.53-27.44 14.317-40.505l5.702-12.871-67.04-65.942-13.525 8.076c-19.715 11.773-40.98 20.365-63.23 25.984-24.034 6.069-48.876 8.615-73.64 8.388-23.33-.215-47.385-3.62-69.946-9.503-20.759-5.412-41.354-13.259-59.859-24.184l-13.184-7.784-68.404 64.344 6.694 13.532a185.7 185.7 0 0 1 14.6 41.051c3.244 14.23 4.844 28.873 4.679 43.47-.329 29.064-9.972 52.61-21.257 78.753-5.159 11.951-10.26 23.856-14.176 36.282a1283 1283 0 0 0-44.547 9.343l-17.523 4 30.06 119.582 4.213 16.757z" style="fill:#ab9b81;fill-rule:evenodd" data-source="https://football-logos.cc"></path><!-- source: https://football-logos.cc --></svg>