<svg xmlns="http://www.w3.org/2000/svg" viewBox="14.17 165.97 566.94 509.95"><!-- Source: https://football-logos.cc --><path d="M301.131 165.97c102.506 0 190.705 62.152 229.92 151.284l3.292.291c13.047 20.826 20.728 43.26 28.99 67.94 10.216 30.51 16.306 31.872 17.618 42.51 2.062 16.72-16.434 30.12-32.204 38.468-21.188 119.084-124.005 209.456-247.616 209.456-122.656 0-224.825-88.989-247.096-206.71-16.104-25.968-39.78-60.06-39.862-77.824-.076-16.805 19.896-19.953 41.176-25.191C80.083 251.705 180.738 165.97 301.13 165.97" style="fill:#0056ac;fill-rule:evenodd" data-source="https://football-logos.cc"></path><path d="M307.997 178.844q1.205.035 2.407.082c17.21 18.024 32.963 37.704 47.048 58.328h-49.455zm25.452 2.105c46.757 6.42 89.218 26.565 123.314 56.304H376.22c-12.851-19.686-27.163-38.636-42.772-56.304m-41.865 56.304h-47.266c14.054-20.16 29.388-39.522 45.263-58.226q1-.05 2.003-.09zm-66.264 0H145.5c33.768-29.453 75.742-49.497 121.967-56.114-14.584 17.72-29.01 36.525-42.147 56.114m244.423 12.185a242.9 242.9 0 0 1 42.777 58.707h-98.36c-8.331-20.225-18.751-39.995-30.227-58.707zm-72.534 58.707h-89.212v-58.707h57.514c11.89 18.567 22.858 38.37 31.698 58.707m-105.625 0H203.5c8.807-20.146 19.898-39.446 31.925-57.76l.624-.947h55.534zm-105.036 0H89.742a242.9 242.9 0 0 1 42.778-58.707h84.865c-11.993 19-22.597 38.658-30.837 58.707m352.809 130.41c-1.986 27.957-8.662 54.6-19.218 79.131h-99.026c6.275-18.282 10.882-37.232 13.418-56.912 35.181-6.914 70.128-14.19 104.826-22.22m-115.8-104.803a328 328 0 0 0-4.042-11.788h73.393l-3.607.673zM404.55 517.686h-96.553v-33.115q5.938-1.084 11.916-2.19c32.997-6.101 65.807-12.147 98.417-18.45-2.773 18.565-7.498 36.468-13.78 53.755M307.997 353.29v-31.325h94.855A325 325 0 0 1 408 336.382zm-16.413 164.397h-95.506a296 296 0 0 1-4.319-13.046c5.584-.87 11.207-1.774 16.925-2.736 27.812-4.678 55.144-9.379 82.9-14.362zM183.713 374.3c2.941-17.626 7.593-34.918 14.166-52.336h93.705v34.1zm-4.166 143.386h-71.082c24.802-4.4 46.331-7.47 67.7-10.67a308 308 0 0 0 3.382 10.67M63.622 395.17c2.697-25.829 9.4-50.448 19.468-73.205h98.163c-6.5 18.266-11.022 36.477-13.775 55.08l-98.823 16.709Zm451.225 133.986a242.9 242.9 0 0 1-43.236 61.381H386.12c12.062-19.608 22.552-40.033 30.808-61.38zm-147.17 61.381h-59.68v-61.38h92.124c-8.745 21.383-19.818 41.812-32.445 61.38m-76.093 0h-59.1c-12.52-19.567-23.445-39.986-32.05-61.38h91.15zm-77.498 0h-83.435a242.9 242.9 0 0 1-43.235-61.38h96.247c8.125 21.357 18.473 41.776 30.423 61.38m245.646 11.47c-34.336 30.958-77.532 52.025-125.245 58.791 15.88-18.78 30.924-38.337 44.343-58.792zM312.065 662.89c-1.353.062-2.709.117-4.068.156v-61.04h52.041c-14.62 21.283-30.96 41.536-47.973 60.884m-20.481.063c-1.28-.05-2.555-.115-3.83-.187-17.008-19.356-33.232-39.555-47.694-60.76h51.524zm-26.46-2.546c-46.661-7.16-88.894-28.017-122.593-58.402h78.783c13.208 20.293 28.054 39.713 43.81 58.402M53.8 377.717c-16.19 3.27-32.207 5.597-25.486 22.619l25.784-4.05zm497.27 56.853-1.607 23.06c17.495-10.93 26.326-20.421 21.514-34.611zM93.701 505.614c154.01-27.363 310.502-57.7 464.512-89.24l-38.219-84.55-472.028 81.544Z" style="fill:#98e80a;fill-rule:evenodd" data-source="https://football-logos.cc"></path><path d="M273.085 263.041h-17.902v11.479h14.967c1.379 0 2.423.313 3.102.93.68.626 1.024 1.451 1.024 2.496q0 1.567-1.034 2.474c-.7.617-1.734.92-3.092.92h-14.967v14.779c0 1.87-.428 3.269-1.274 4.178s-1.932 1.358-3.259 1.358c-1.336 0-2.433-.46-3.28-1.379-.846-.92-1.273-2.309-1.273-4.157v-34.52c0-1.305.198-2.37.584-3.196a3.6 3.6 0 0 1 1.817-1.806q1.238-.564 3.166-.564h21.421c1.452 0 2.528.323 3.227.96.7.648 1.055 1.483 1.055 2.528 0 1.066-.355 1.911-1.055 2.56-.7.636-1.775.96-3.227.96M363.506 287.793c0 1.42-.345 2.967-1.055 4.627-.7 1.672-1.807 3.301-3.322 4.899-1.504 1.598-3.436 2.903-5.775 3.896q-3.525 1.504-8.21 1.504c-2.36 0-4.512-.22-6.455-.669-1.932-.448-3.697-1.149-5.274-2.099-1.578-.95-3.04-2.194-4.366-3.75a22.1 22.1 0 0 1-3.03-4.72 24.8 24.8 0 0 1-1.879-5.589c-.418-1.973-.627-4.083-.627-6.297 0-3.614.522-6.852 1.577-9.703 1.055-2.862 2.56-5.296 4.512-7.332a19.8 19.8 0 0 1 6.884-4.638c2.631-1.055 5.441-1.588 8.418-1.588 3.635 0 6.862.721 9.703 2.173 2.83 1.452 5.002 3.238 6.517 5.368 1.504 2.131 2.267 4.147 2.267 6.048 0 1.034-.376 1.953-1.107 2.747q-1.098 1.19-2.664 1.19c-1.16 0-2.036-.271-2.611-.824-.585-.544-1.232-1.494-1.943-2.841-1.19-2.225-2.58-3.886-4.177-4.993-1.609-1.097-3.583-1.65-5.922-1.65-3.74 0-6.706 1.42-8.92 4.25q-3.321 4.262-3.321 12.096c0 3.488.49 6.392 1.472 8.7.971 2.319 2.36 4.052 4.157 5.19s3.896 1.714 6.309 1.714q3.913 0 6.621-1.943c1.807-1.295 3.165-3.196 4.084-5.713q.58-1.77 1.441-2.883c.564-.752 1.483-1.118 2.748-1.118q1.63 0 2.788 1.129 1.16 1.128 1.16 2.82M159.788 578.557v-29.27c-5.448 4.185-9.116 6.272-11.006 6.272-.9 0-1.702-.363-2.394-1.076-.703-.726-1.043-1.55-1.043-2.494 0-1.098.34-1.9 1.021-2.417.692-.515 1.9-1.175 3.635-1.987 2.604-1.23 4.68-2.515 6.228-3.866a26.6 26.6 0 0 0 4.14-4.536c1.198-1.67 1.978-2.702 2.35-3.087.363-.384 1.045-.582 2.055-.582q1.713 0 2.735 1.318c.692.88 1.033 2.098 1.033 3.636v36.838c0 4.316-1.473 6.468-4.405 6.468-1.318 0-2.362-.439-3.163-1.318-.79-.878-1.186-2.174-1.186-3.899M267.491 561.83c-1.405 1.67-2.987 2.932-4.744 3.778-1.747.846-3.68 1.274-5.8 1.274-2.02 0-3.898-.395-5.645-1.175a13.5 13.5 0 0 1-4.536-3.284 14.7 14.7 0 0 1-2.944-4.92 16.9 16.9 0 0 1-1.032-5.898c0-2.22.385-4.306 1.153-6.294.78-1.988 1.878-3.701 3.317-5.162s3.153-2.592 5.13-3.416c1.987-.812 4.184-1.219 6.578-1.219 2.768 0 5.24.505 7.403 1.516 2.164 1 3.987 2.471 5.47 4.393 1.483 1.911 2.614 4.328 3.415 7.249.79 2.922 1.187 6.216 1.187 9.907 0 4.118-.418 7.754-1.253 10.895q-1.252 4.712-3.657 7.908c-1.592 2.142-3.515 3.724-5.744 4.767-2.23 1.044-4.756 1.56-7.59 1.56-2.79 0-5.206-.528-7.27-1.593-2.054-1.066-3.625-2.383-4.701-3.954-1.065-1.582-1.604-3.097-1.604-4.558 0-.9.33-1.702 1-2.406.658-.713 1.504-1.065 2.537-1.065q1.417 0 2.537.79c.758.517 1.329 1.308 1.713 2.362q.706 1.928 2.35 3.097a6.2 6.2 0 0 0 3.691 1.176c1.23 0 2.384-.308 3.481-.934 1.088-.615 2.022-1.505 2.79-2.636q2.325-3.443 2.768-12.158m-.735-9.852c0-1.45-.198-2.8-.594-4.031s-.955-2.295-1.67-3.196a8 8 0 0 0-2.58-2.13c-1-.517-2.087-.77-3.262-.77-2.043 0-3.767.88-5.184 2.626s-2.12 4.052-2.12 6.93c0 2.845.703 5.118 2.12 6.82q2.125 2.538 5.37 2.538c1.34 0 2.604-.352 3.823-1.044 1.208-.702 2.196-1.713 2.954-3.042.758-1.33 1.142-2.9 1.142-4.701M337.448 575.383h16.804c1.67 0 2.944.341 3.823 1.033.878.68 1.318 1.614 1.318 2.79 0 1.054-.34 1.943-1.044 2.668-.692.736-1.757 1.099-3.174 1.099h-23.68c-1.614 0-2.866-.45-3.767-1.34q-1.35-1.335-1.35-3.13c0-.77.285-1.802.867-3.076s1.22-2.274 1.9-3.01c2.856-2.954 5.425-5.49 7.72-7.6 2.297-2.12 3.944-3.503 4.921-4.173 1.769-1.242 3.23-2.493 4.394-3.746 1.175-1.252 2.065-2.537 2.68-3.866.604-1.318.912-2.602.912-3.877 0-1.373-.33-2.592-.978-3.679a6.8 6.8 0 0 0-2.68-2.526c-1.12-.604-2.35-.9-3.68-.9-2.81 0-5.019 1.23-6.623 3.7q-.328.478-1.087 2.637c-.505 1.438-1.065 2.548-1.702 3.316-.637.77-1.56 1.154-2.779 1.154q-1.614 0-2.669-1.055c-.713-.714-1.065-1.68-1.065-2.9 0-1.482.33-3.03 1-4.634.659-1.615 1.658-3.065 2.976-4.382 1.318-1.307 2.987-2.362 5.02-3.163 2.02-.802 4.403-1.209 7.127-1.209 3.273 0 6.074.516 8.391 1.548a12.5 12.5 0 0 1 3.965 2.834 13.1 13.1 0 0 1 2.658 4.163c.627 1.57.945 3.207.945 4.91q0 3.986-1.977 7.248c-1.318 2.186-2.669 3.889-4.042 5.119s-3.668 3.174-6.897 5.81-5.448 4.69-6.645 6.15c-.517.572-1.044 1.274-1.582 2.087M445.22 554.848c1.977 0 3.68-.582 5.107-1.736s2.142-2.822 2.142-4.986c0-1.647-.571-3.064-1.713-4.261-1.131-1.186-2.669-1.78-4.602-1.78-1.307 0-2.384.187-3.23.55-.845.362-1.515.845-2.009 1.439-.495.603-.967 1.373-1.406 2.317-.44.944-.835 1.834-1.208 2.668q-.314.676-1.154 1.055c-.56.264-1.197.384-1.933.384-.857 0-1.647-.34-2.36-1.043-.726-.691-1.077-1.625-1.077-2.779 0-1.109.329-2.284 1.01-3.525.681-1.23 1.658-2.405 2.965-3.515 1.297-1.12 2.91-2.01 4.833-2.69 1.934-.67 4.097-1.01 6.47-1.01q3.13 0 5.7.855c1.713.561 3.206 1.384 4.47 2.46 1.263 1.066 2.218 2.319 2.867 3.724.648 1.417.966 2.943.966 4.569 0 2.153-.472 3.987-1.406 5.524-.933 1.527-2.262 3.02-3.998 4.482 1.67.9 3.075 1.933 4.228 3.086 1.143 1.165 2.01 2.45 2.593 3.855.582 1.395.867 2.921.867 4.547 0 1.956-.395 3.844-1.175 5.668-.78 1.823-1.933 3.448-3.46 4.865-1.526 1.428-3.327 2.548-5.425 3.35-2.087.802-4.404 1.208-6.93 1.208-2.582 0-4.877-.461-6.92-1.383-2.043-.923-3.712-2.076-5.041-3.46-1.319-1.384-2.307-2.812-2.987-4.295-.682-1.483-1.011-2.702-1.011-3.668 0-1.241.395-2.241 1.208-3.01.802-.757 1.801-1.142 3.01-1.142.592 0 1.175.176 1.735.538.56.352.923.77 1.087 1.264 1.12 2.987 2.318 5.194 3.591 6.645 1.275 1.45 3.076 2.174 5.394 2.174 1.328 0 2.613-.33 3.844-.977 1.23-.66 2.251-1.626 3.053-2.911.802-1.296 1.208-2.78 1.208-4.481 0-2.504-.68-4.47-2.054-5.898q-2.06-2.142-5.733-2.142-.645 0-2 .132c-.9.088-1.471.12-1.734.12-1.176 0-2.087-.285-2.736-.878-.636-.593-.966-1.417-.966-2.46 0-1.032.385-1.868 1.164-2.505.77-.625 1.923-.944 3.438-.944zM102.173 469.573l-13.702-33.5 8.21 37.452c.455 2.071.466 3.682.043 4.83q-.634 1.723-2.25 2.002c-1.05.182-2.01-.19-2.902-1.097-.883-.91-1.553-2.406-2.013-4.503l-9.41-42.92c-.52-2.375-.433-4.042.248-5.026.692-.972 1.776-1.592 3.254-1.847l2.404-.416c1.442-.25 2.526-.24 3.264.012.73.254 1.358.84 1.88 1.746q.783 1.36 2.099 4.514l12.071 28.76-.96-30.683q-.114-3.362.038-4.883c.101-1.014.435-1.766 1.014-2.246.57-.479 1.578-.85 3.02-1.1l2.396-.414c1.478-.256 2.743-.043 3.796.628 1.047.684 1.832 2.2 2.352 4.576l9.41 42.92c.455 2.071.466 3.682.043 4.83q-.634 1.723-2.277 2.007c-1.032.179-1.983-.195-2.878-1.115q-1.328-1.383-2.01-4.49l-8.21-37.452 1.45 35.62c.093 2.317.124 4.016.104 5.107a7.2 7.2 0 0 1-.769 3.11c-.486.988-1.326 1.579-2.528 1.787-.909.157-1.726.01-2.48-.437-.745-.447-1.39-1.07-1.925-1.868a16.3 16.3 0 0 1-1.448-2.726c-.425-1.014-.871-2.078-1.334-3.178M150.714 422.159l-17.45 3.018 2.922 13.327 16.07-2.78c1.184-.205 2.148.021 2.89.666.745.658 1.255 1.593 1.526 2.83.272 1.239.205 2.285-.193 3.167-.409.87-1.214 1.416-2.406 1.623l-16.07 2.78 3.384 15.435 18.046-3.122c1.22-.21 2.225.035 3.014.725.8.7 1.336 1.708 1.627 3.035.282 1.289.207 2.376-.24 3.292-.44.903-1.267 1.466-2.487 1.677l-21.047 3.64c-1.683.292-3.019-.028-3.99-.962-.972-.932-1.714-2.587-2.232-4.95l-8.941-40.786c-.346-1.579-.46-2.896-.35-3.951s.467-1.877 1.07-2.453q.907-.865 2.549-1.149l20.45-3.538c1.238-.213 2.24.02 3.006.687.768.68 1.292 1.638 1.57 2.9.282 1.29.204 2.365-.221 3.25-.428.875-1.26 1.425-2.497 1.639M186.11 416.653l-8.45 1.461 8.64 39.41c.497 2.261.512 4.015.04 5.237-.471 1.222-1.277 1.926-2.41 2.121-1.138.198-2.195-.197-3.16-1.183-.964-.987-1.698-2.604-2.188-4.84l-8.64-39.41-8.449 1.462c-1.327.23-2.397-.018-3.218-.728-.833-.721-1.392-1.753-1.69-3.117-.308-1.402-.213-2.572.277-3.495.487-.937 1.37-1.509 2.643-1.729l24.617-4.259c1.344-.232 2.424.013 3.267.746.833.721 1.404 1.763 1.7 3.115.299 1.364.199 2.51-.277 3.456-.48.935-1.375 1.523-2.702 1.753M224.323 450.553l-3.318-6.493-15.544 2.69-.3 7.275c-.125 2.84-.33 4.777-.629 5.812-.291 1.033-1.014 1.657-2.162 1.855-.97.168-1.945-.188-2.914-1.069a6.04 6.04 0 0 1-1.878-3.254 11 11 0 0 1-.243-2.331 62 62 0 0 1 .14-3.447l2.062-36.92c.054-1.059.127-2.33.208-3.812.079-1.495.23-2.741.471-3.753.24-1.011.662-1.871 1.255-2.577q.89-1.059 2.48-1.333 1.616-.28 2.889.405c.848.455 1.6 1.1 2.244 1.931a21.4 21.4 0 0 1 1.767 2.75c.533.996 1.223 2.332 2.077 3.993l17.666 33.287c1.367 2.528 2.183 4.394 2.45 5.606a5.82 5.82 0 0 1-.358 3.641c-.51 1.176-1.283 1.86-2.325 2.04-.605.106-1.164.045-1.67-.196q-.753-.34-1.368-1.06c-.411-.48-.911-1.246-1.49-2.286-.58-1.04-1.084-1.95-1.51-2.754m-18.64-12.403 11.43-1.978-10.675-21.385zM236.57 404.463l8.657 39.485 15.705-2.717c1.247-.215 2.302.048 3.161.804.865.742 1.433 1.77 1.718 3.073.293 1.338.2 2.469-.277 3.417-.479.934-1.358 1.519-2.621 1.737l-18.705 3.237c-1.683.29-3.02-.03-3.99-.963-.972-.932-1.714-2.587-2.232-4.95l-9.161-41.783c-.485-2.211-.494-3.94-.034-5.173q.69-1.85 2.412-2.148c1.158-.2 2.22.18 3.182 1.153.962.975 1.696 2.592 2.186 4.828M273.947 391.088c3.97-.687 7.62-.138 10.97 1.655 3.342 1.795 6.206 4.656 8.587 8.61 2.383 3.954 4.196 8.766 5.442 14.45.92 4.193 1.352 8.065 1.304 11.64-.051 3.561-.59 6.748-1.641 9.539s-2.598 5.051-4.628 6.792c-2.042 1.73-4.567 2.861-7.576 3.382-2.99.517-5.82.299-8.49-.668-2.66-.956-5.06-2.548-7.19-4.76-2.13-2.215-3.982-5.015-5.559-8.375-1.577-3.358-2.809-7.078-3.7-11.146-.914-4.168-1.336-8.067-1.251-11.687.082-3.632.653-6.8 1.721-9.515 1.065-2.727 2.597-4.932 4.61-6.618 2.013-1.698 4.48-2.794 7.4-3.299m17.13 25.997c-.873-3.978-2.08-7.335-3.619-10.098-1.545-2.748-3.32-4.736-5.33-5.935q-2.998-1.8-6.268-1.236a7.75 7.75 0 0 0-4.02 1.98c-1.126 1.06-1.994 2.456-2.6 4.2-.598 1.742-.902 3.892-.917 6.439-.006 2.543.325 5.357.995 8.414.676 3.082 1.564 5.827 2.652 8.22 1.098 2.393 2.327 4.331 3.684 5.8q2.036 2.205 4.25 3.08a8.14 8.14 0 0 0 4.534.488c1.985-.343 3.647-1.365 5.004-3.055 1.358-1.69 2.199-4.09 2.533-7.203.346-3.102.044-6.798-.898-11.094M341.623 413.756l2.28 10.395c.3 1.378.447 2.506.44 3.36a5.6 5.6 0 0 1-.569 2.418c-.37.76-.878 1.515-1.544 2.273-1.927 2.169-3.868 3.855-5.827 5.033-1.957 1.19-4.2 1.998-6.72 2.434-2.947.51-5.76.329-8.461-.529-2.695-.871-5.168-2.371-7.405-4.527-2.244-2.142-4.2-4.871-5.873-8.2-1.68-3.315-2.986-7.128-3.927-11.422-.922-4.206-1.325-8.148-1.21-11.8.12-3.665.778-6.86 1.961-9.595 1.182-2.748 2.873-4.98 5.057-6.696 2.18-1.727 4.844-2.856 7.968-3.397 2.582-.447 4.96-.347 7.16.283 2.198.628 4.07 1.577 5.63 2.84 1.562 1.264 2.832 2.67 3.826 4.216.987 1.547 1.62 2.958 1.902 4.246q.455 2.064-.305 3.71c-.514 1.113-1.272 1.742-2.278 1.916-.561.097-1.137 0-1.725-.28-.596-.276-1.137-.72-1.632-1.33-1.426-1.956-2.576-3.408-3.482-4.38a9.3 9.3 0 0 0-3.272-2.278c-1.285-.551-2.799-.67-4.535-.37-1.79.31-3.295 1.03-4.51 2.145-1.216 1.114-2.147 2.6-2.78 4.44-.633 1.826-.95 4.005-.956 6.51q.007 3.775.97 8.171c1.395 6.366 3.5 11.075 6.31 14.156 2.816 3.066 6.058 4.288 9.744 3.65 1.8-.31 3.41-.93 4.83-1.872 1.43-.941 2.815-2.164 4.164-3.682l-1.93-8.805-6.001 1.038c-1.442.25-2.604.136-3.479-.355q-1.31-.736-1.793-2.954c-.266-1.213-.173-2.264.27-3.153.44-.903 1.2-1.44 2.259-1.625l8.787-1.52c1.077-.186 2.025-.205 2.83-.069q1.217.222 2.207 1.506c.668.855 1.206 2.217 1.62 4.099M350.788 384.705l8.656 39.485 15.705-2.716c1.247-.216 2.302.047 3.161.803.865.742 1.433 1.77 1.718 3.073.293 1.338.2 2.469-.277 3.417-.479.934-1.358 1.519-2.622 1.738l-18.704 3.236c-1.683.29-3.02-.03-3.99-.962-.972-.933-1.715-2.588-2.232-4.95l-9.161-41.784c-.485-2.211-.494-3.94-.034-5.173q.69-1.85 2.411-2.148c1.158-.2 2.22.18 3.183 1.153.962.975 1.696 2.592 2.186 4.828M388.164 371.33c3.97-.686 7.62-.138 10.97 1.656 3.342 1.794 6.205 4.655 8.587 8.61 2.383 3.953 4.196 8.766 5.442 14.449.92 4.193 1.352 8.065 1.304 11.64-.051 3.561-.59 6.748-1.641 9.54-1.053 2.79-2.599 5.05-4.629 6.79-2.042 1.731-4.566 2.862-7.575 3.383-2.991.517-5.82.299-8.49-.668-2.66-.956-5.06-2.548-7.19-4.76-2.13-2.215-3.982-5.015-5.56-8.374-1.576-3.359-2.808-7.079-3.7-11.147-.913-4.168-1.335-8.067-1.25-11.687.081-3.632.653-6.8 1.721-9.515 1.065-2.727 2.597-4.932 4.61-6.618 2.013-1.698 4.48-2.794 7.4-3.299m17.13 25.997c-.873-3.978-2.08-7.335-3.619-10.098-1.545-2.747-3.32-4.735-5.33-5.935q-2.998-1.8-6.268-1.236a7.75 7.75 0 0 0-4.02 1.98c-1.126 1.06-1.994 2.456-2.6 4.2-.598 1.742-.902 3.892-.917 6.439-.006 2.543.325 5.357.994 8.414.677 3.083 1.564 5.827 2.653 8.221 1.097 2.393 2.326 4.33 3.684 5.8q2.035 2.205 4.25 3.08a8.14 8.14 0 0 0 4.534.487c1.985-.343 3.647-1.365 5.004-3.055 1.358-1.69 2.198-4.09 2.533-7.203.346-3.102.044-6.798-.898-11.094M442.077 419.27l-11.69 2.022c-1.683.29-3-.032-3.957-.98-.957-.95-1.698-2.605-2.21-4.941l-8.943-40.787c-.523-2.387-.535-4.168-.025-5.344.508-1.176 1.595-1.914 3.241-2.2l12.393-2.143c1.825-.316 3.437-.425 4.85-.341a9 9 0 0 1 4.002 1.221c1.077.614 2.082 1.45 3.043 2.502.95 1.043 1.76 2.253 2.435 3.604a19 19 0 0 1 1.539 4.402c1.19 5.431.148 9.741-3.129 12.916 5.525 1.392 9.006 5.378 10.446 11.946.664 3.031.71 5.856.147 8.47-.56 2.628-1.645 4.677-3.251 6.161-1.017.883-2.245 1.607-3.697 2.147-1.45.553-3.182.996-5.195 1.345m-5.86-23.988-8.057 1.394 3.473 15.839 8.315-1.438q7.854-1.358 6.091-9.393c-.6-2.74-1.712-4.606-3.337-5.61-1.63-.99-3.787-1.259-6.485-.792m-12.862-20.522 3.077 14.034 7.096-1.227c1.923-.333 3.36-.857 4.297-1.557q1.404-1.05 1.765-3.373c.21-1.112.168-2.31-.114-3.599q-.9-4.11-3.253-5.1c-1.577-.66-3.769-.752-6.582-.265zM457.265 393.371l-5.722-26.096c-.484-2.21-.493-3.94-.034-5.172q.69-1.85 2.412-2.148c1.193-.206 2.268.184 3.215 1.174s1.669 2.596 2.153 4.807l5.852 26.69c.664 3.03 1.461 5.528 2.388 7.478q1.377 2.928 3.576 4.299c1.466.912 3.288 1.174 5.479.795 3.027-.524 4.914-2.03 5.668-4.533s.618-6.072-.398-10.709l-5.898-26.903c-.49-2.237-.512-3.977-.058-5.196.454-1.22 1.269-1.923 2.436-2.125 1.157-.2 2.22.18 3.182 1.153.962.975 1.695 2.592 2.185 4.827l5.722 26.097c.93 4.243 1.412 7.83 1.454 10.761.034 2.943-.515 5.621-1.664 8.049-.988 2.071-2.318 3.678-3.977 4.83-1.658 1.166-3.721 1.955-6.187 2.382-2.938.508-5.566.491-7.89-.038-2.316-.53-4.35-1.634-6.108-3.283-1.748-1.65-3.259-3.907-4.536-6.74-1.269-2.836-2.353-6.306-3.25-10.399M528.193 387.46c.72 3.285.772 6.344.152 9.165-.61 2.82-1.907 5.167-3.88 7.043-1.973 1.875-4.525 3.09-7.677 3.635-3.775.653-7.103.18-10.004-1.417-2.057-1.164-3.896-2.851-5.516-5.101q-2.428-3.357-3.183-6.805c-.291-1.327-.214-2.533.228-3.592.443-1.06 1.165-1.684 2.18-1.86.82-.141 1.589.12 2.319.754q1.085.972 2.165 3.047c.869 1.646 1.71 2.995 2.534 4.059a8.5 8.5 0 0 0 3.015 2.454c1.187.568 2.614.715 4.288.425 2.297-.397 3.991-1.476 5.093-3.24 1.1-1.764 1.407-3.784.908-6.057-.393-1.795-1.097-3.194-2.118-4.184a8.16 8.16 0 0 0-3.563-2.044q-2.035-.573-5.339-1.044c-2.941-.435-5.483-1.11-7.6-2.002q-3.18-1.357-5.503-4.24c-1.549-1.921-2.666-4.442-3.352-7.574-.654-2.981-.666-5.732-.026-8.255.641-2.51 1.916-4.58 3.814-6.206s4.318-2.687 7.255-3.195c2.35-.406 4.472-.341 6.361.185 1.901.535 3.555 1.377 4.988 2.558 1.43 1.169 2.573 2.466 3.428 3.878.846 1.414 1.434 2.833 1.75 4.273q.426 1.951-.207 3.693c-.42 1.16-1.123 1.833-2.093 2-.89.155-1.627-.045-2.228-.597-.6-.539-1.325-1.488-2.172-2.823-1.152-1.924-2.332-3.386-3.563-4.365-1.222-.982-2.914-1.28-5.069-.907-2.003.347-3.479 1.245-4.424 2.706-.955 1.463-1.242 3.06-.857 4.815.238 1.087.647 1.986 1.238 2.697a6.85 6.85 0 0 0 2.176 1.747c.851.43 1.69.757 2.507.943.817.187 2.149.442 4.011.762 2.313.347 4.434.792 6.37 1.363 1.943.555 3.65 1.348 5.15 2.373 1.498 1.013 2.793 2.415 3.892 4.178 1.1 1.776 1.954 4.028 2.552 6.755" style="fill:#0056ac;fill-rule:evenodd" data-source="https://football-logos.cc"></path><!-- source: https://football-logos.cc --></svg>