<svg xmlns="http://www.w3.org/2000/svg" viewBox="473.33 321.75 1720 2023.16"><!-- Source: https://football-logos.cc --><defs data-source="https://football-logos.cc"><clipPath id="a" clipPathUnits="userSpaceOnUse"><path d="M-1523.14 755.216h2000v-2000h-2000Z"></path></clipPath><clipPath id="b" clipPathUnits="userSpaceOnUse"><path d="M-1331.212 1475.95h2000v-2000h-2000Z"></path></clipPath><clipPath id="c" clipPathUnits="userSpaceOnUse"><path d="M-678.195 840.73h2000v-2000h-2000Z"></path></clipPath><clipPath id="d" clipPathUnits="userSpaceOnUse"><path d="M-1331.212 1475.95h2000v-2000h-2000Z"></path></clipPath><clipPath id="e" clipPathUnits="userSpaceOnUse"><path d="M-1164.243 1412.134h2000v-2000h-2000Z"></path></clipPath><clipPath id="f" clipPathUnits="userSpaceOnUse"><path d="M-1474.664 436.564h2000v-2000h-2000Z"></path></clipPath><clipPath id="g" clipPathUnits="userSpaceOnUse"><path d="M-549.868 704.387h2000v-2000h-2000Z"></path></clipPath><clipPath id="h" clipPathUnits="userSpaceOnUse"><path d="M-684.769 720.154h2000v-2000h-2000Z"></path></clipPath><clipPath id="i" clipPathUnits="userSpaceOnUse"><path d="M-769.055 690.918h2000v-2000h-2000Z"></path></clipPath><clipPath id="j" clipPathUnits="userSpaceOnUse"><path d="M-769.055 690.918h2000v-2000h-2000Z"></path></clipPath><clipPath id="k" clipPathUnits="userSpaceOnUse"><path d="M-1114.858 679.428h2000v-2000h-2000Z"></path></clipPath><clipPath id="l" clipPathUnits="userSpaceOnUse"><path d="M-1152.805 622.934h2000v-2000h-2000Z"></path></clipPath><clipPath id="m" clipPathUnits="userSpaceOnUse"><path d="M-956.815 650.565h2000v-2000h-2000Z"></path></clipPath><clipPath id="n" clipPathUnits="userSpaceOnUse"><path d="M-955.211 584.399h2000v-2000h-2000Z"></path></clipPath><clipPath id="o" clipPathUnits="userSpaceOnUse"><path d="M-956.815 650.565h2000v-2000h-2000Z"></path></clipPath><clipPath id="p" clipPathUnits="userSpaceOnUse"><path d="M-1273.596 687.658h2000v-2000h-2000Z"></path></clipPath><clipPath id="q" clipPathUnits="userSpaceOnUse"><path d="M-1442.061 586.216h2000v-2000h-2000Z"></path></clipPath><clipPath id="r" clipPathUnits="userSpaceOnUse"><path d="M-1482.842 695.14h2000v-2000h-2000Z"></path></clipPath><clipPath id="s" clipPathUnits="userSpaceOnUse"><path d="M-1519.453 703.319h2000v-2000h-2000Z"></path></clipPath><clipPath id="t" clipPathUnits="userSpaceOnUse"><path d="M-636.827 460.668h2000v-2000h-2000Z"></path></clipPath><clipPath id="u" clipPathUnits="userSpaceOnUse"><path d="M-757.564 444.527h2000v-2000h-2000Z"></path></clipPath><clipPath id="v" clipPathUnits="userSpaceOnUse"><path d="M-848.531 439.289h2000v-2000h-2000Z"></path></clipPath><clipPath id="w" clipPathUnits="userSpaceOnUse"><path d="M-929.29 359.44h2000v-2000h-2000Z"></path></clipPath><clipPath id="x" clipPathUnits="userSpaceOnUse"><path d="M-929.29 359.44h2000v-2000h-2000Z"></path></clipPath><clipPath id="y" clipPathUnits="userSpaceOnUse"><path d="M-1029.342 332.983h2000v-2000h-2000Z"></path></clipPath><clipPath id="z" clipPathUnits="userSpaceOnUse"><path d="M-1110.315 399.257h2000v-2000h-2000Z"></path></clipPath><clipPath id="A" clipPathUnits="userSpaceOnUse"><path d="M-1138.963 399.257h2000v-2000h-2000Z"></path></clipPath><clipPath id="B" clipPathUnits="userSpaceOnUse"><path d="M-1291.822 333.09h2000v-2000h-2000Z"></path></clipPath><clipPath id="C" clipPathUnits="userSpaceOnUse"><path d="M-1343.826 402.357h2000v-2000h-2000Z"></path></clipPath><clipPath id="D" clipPathUnits="userSpaceOnUse"><path d="M-1343.826 402.357h2000v-2000h-2000Z"></path></clipPath><clipPath id="E" clipPathUnits="userSpaceOnUse"><path d="M-1429.288 427.691h2000v-2000h-2000Z"></path></clipPath><clipPath id="F" clipPathUnits="userSpaceOnUse"><path d="M-1434.419 394.5h2000v-2000h-2000Z"></path></clipPath><clipPath id="G" clipPathUnits="userSpaceOnUse"><path d="M-1060.289 979.907h2000v-2000h-2000Z"></path></clipPath><clipPath id="H" clipPathUnits="userSpaceOnUse"><path d="M-1229.61 1082.686h2000v-2000h-2000Z"></path></clipPath><clipPath id="I" clipPathUnits="userSpaceOnUse"><path d="M-907.59 1080.602h2000v-2000h-2000Z"></path></clipPath><clipPath id="J" clipPathUnits="userSpaceOnUse"><path d="M-936.398 1013.365h2000v-2000h-2000Z"></path></clipPath><clipPath id="K" clipPathUnits="userSpaceOnUse"><path d="M-820.952 1287.762h2000v-2000h-2000Z"></path></clipPath><clipPath id="L" clipPathUnits="userSpaceOnUse"><path d="M-820.952 1287.762h2000v-2000h-2000Z"></path></clipPath><clipPath id="M" clipPathUnits="userSpaceOnUse"><path d="M-913.47 1103.637h2000v-2000h-2000Z"></path></clipPath><clipPath id="N" clipPathUnits="userSpaceOnUse"><path d="M-1015.072 1167.506h2000v-2000h-2000Z"></path></clipPath><clipPath id="O" clipPathUnits="userSpaceOnUse"><path d="M-1105.345 1146.395h2000v-2000h-2000Z"></path></clipPath><clipPath id="P" clipPathUnits="userSpaceOnUse"><path d="M-1127.472 1193.482h2000v-2000h-2000Z"></path></clipPath><clipPath id="Q" clipPathUnits="userSpaceOnUse"><path d="M-1178.193 1256.763h2000v-2000h-2000Z"></path></clipPath><clipPath id="R" clipPathUnits="userSpaceOnUse"><path d="M-1262.585 1222.45h2000v-2000h-2000Z"></path></clipPath><clipPath id="S" clipPathUnits="userSpaceOnUse"><path d="M-1001.443 1401.23h2000v-2000h-2000Z"></path></clipPath><clipPath id="T" clipPathUnits="userSpaceOnUse"><path d="M-1001.443 1401.23h2000v-2000h-2000Z"></path></clipPath><clipPath id="U" clipPathUnits="userSpaceOnUse"><path d="M-1135.275 1373.973h2000v-2000h-2000Z"></path></clipPath><clipPath id="V" clipPathUnits="userSpaceOnUse"><path d="M-996.205 1466.97h2000v-2000h-2000Z"></path></clipPath><clipPath id="W" clipPathUnits="userSpaceOnUse"><path d="M-1194.227 1250.082h2000v-2000h-2000Z"></path></clipPath></defs><path d="m0 0-1.816 30.946-49.172 9.995-14.538-25.228-29.343 5.239L1.336 153.554l32.55-9.781c2.94-23.196 21.111-158.31 21.111-158.31C46.82-10.422 0 0 0 0m-434.899-934.63c-35.916-16.996-63.869-27.151-78.033-31.854a31.8 31.8 0 0 0-20.417 0c-12.613 4.222-36.183 12.72-66.648 26.616-162.479 74.078-520.254 301.335-448.101 844.839 0 0 233.885 68.198 524.958 65.473C-232.067-26.831 1.818-95.029 1.818-95.029 72.314-626.186-267.716-855.261-434.899-934.63M-1070.011-2.886l-5.986 33.404h4.756s18.867-19.829 40.727-16.835c0 0 18.653 2.726 24.8 19.775 0 0-5.933 12.186-44.575 16.836-11.438 1.336-22.662 5.131-31.855 12.132-9.994 7.59-19.08 19.669-16.408 37.734 1.603 10.743 7.108 20.631 15.125 28.06 12.668 11.704 38.108 26.563 83.806 22.127V112.4l-24.212 14.11c-5.719 3.367-12.56 4.168-18.92 2.352-4.329-1.23-9.3-2.94-13.629-5.132-7.964-4.062-8.819-15.339-1.39-20.309 6.093-4.062 16.302-7.911 33.511-8.659 8.926-.374 17.852-2.245 25.869-6.253 11.865-5.826 24.96-16.997 25.12-37.681.16-21.913-13.522-41.902-33.618-50.614-12.934-5.612-31.48-9.674-57.563-8.071-2.779.214-5.077 2.298-5.558 4.971m231.64 37.948c-37.039-3.635-102.085-20.257-102.085-20.257-6.627 72.528-32.816 147.14-32.816 147.14l58.738 9.781c4.757-40.032 21.807-122.822 21.807-122.822l51.63 9.781zm-12.186 75.307c-5.238 42.437 30.518 81.827 79.903 87.92 49.332 6.146 93.64-23.357 98.877-65.793 5.291-42.491-30.518-81.828-79.85-87.974-49.385-6.094-93.692 23.409-98.93 65.847m198.716 93.639 69.695 3.421c33.351 2.351 50.134-7.27 58.364-15.874 7.323-7.697 9.354-18.974 4.544-28.434-9.514-18.653-37.788-23.891-37.788-23.891 17.424-3.528 27.953-10.475 33.993-15.98 4.917-4.598 8.605-10.583 9.941-17.21 3.367-16.035-7.322-27.793-18.76-35.49-11.277-7.589-24.639-11.437-38.215-11.812l-73.383-2.083c1.39 29.128-8.391 147.353-8.391 147.353m513.306-24.319C-129.181 176.055-81.079 169-81.079 169c-12.667-30.037-27.205-145.803-27.205-145.803-9.086 3.42-54.676 9.032-54.676 9.032 11.598 46.713 24.425 147.46 24.425 147.46M-408.817 55.852c-49.759 1.443-89.042 37.253-87.813 80.064 1.229 42.757 42.543 76.269 92.25 74.826s89.042-37.253 87.813-80.01c-1.23-42.758-42.544-76.27-92.25-74.88m232.068 3.742-3.154-24.318C-204.489 46.178-320.255 51.63-320.255 51.63c8.659 14.11 90.272 119.668 90.272 119.668l-66.381 3.634 1.336 24.533c61.892-5.452 140.78-19.776 140.78-19.776-27.952-21.379-95.296-112.132-95.296-112.132Zm-863.652 328.112C-850.397 478.084-523.14 482.2-523.14 482.2s327.257-4.116 517.262-94.494v-154.57s-294.602 66.168-517.262 62.801c-222.661 3.367-517.261-62.801-517.261-62.801zM102.458 210.369l-48.476 12.987c-11.064 2.94-18.76 12.987-18.76 24.425v158.631a16.21 16.21 0 0 1-11.117 15.393c-55.799 18.333-311.917 97.808-547.245 91.769-235.274 6.039-491.393-73.436-547.192-91.769a16.21 16.21 0 0 1-11.117-15.393V247.834c0-11.491-7.696-21.538-18.76-24.478l-48.53-12.987c-11.438-3.047-19.401-13.416-19.401-25.281v-295.189c0-13.148 6.627-25.494 17.637-32.71l55.532-36.558c8.017-5.237 12.774-14.216 12.72-23.837-.427-204.382 35.596-305.878 46.285-331.479 2.887-6.948 5.666-14.003 8.499-21.058 95.991-242.116 311.757-367.823 427.47-419.934 27.685-12.454 49.652-20.738 62.907-25.388a41.67 41.67 0 0 1 27.899 0c15.019 5.238 41.208 15.179 74.292 30.572C-316.888-915.442-111.704-790.162-18.76-555.69c2.779 7.002 5.559 14.003 8.499 20.952 10.636 25.494 46.712 126.99 46.284 331.532-.053 9.621 4.704 18.6 12.721 23.837l55.478 36.558c11.01 7.216 17.638 19.562 17.638 32.71v295.189c0 11.865-7.964 22.234-19.402 25.281" clip-path="url(#a)" style="fill:#0e50a7;fill-opacity:1;fill-rule:nonzero;stroke:none" transform="matrix(1.33333 0 0 -1.33333 2030.854 1006.954)"></path><path d="M0 0v635.219l170.603-34.099C198.556 156.279 0 0 0 0m-52.004 258.363c-2.512-86.157-44.842-162.372-109.193-210.848-24.425-18.386-52.004-32.817-81.774-42.277v-186.745l-81.293-38.321c-4.382-2.085-9.513-2.031-13.896.053l-69.909 33.191V4.917c-93.479 29.289-165.366 107.268-186.05 204.275v.107a276.6 276.6 0 0 0-5.986 57.242c0 10.262.588 20.363 1.657 30.304 4.383 39.711 17.21 76.804 36.665 109.567 20.844 35.061 49.278 65.045 83.057 87.653 21.593 14.591 45.323 26.136 70.657 34.046v128.968h165.098V527.79a269.4 269.4 0 0 0 37.947-15.339c49.492-24.318 90.54-63.174 117.637-110.956 22.609-39.818 35.49-85.89 35.49-134.954 0-2.726-.053-5.452-.107-8.178M-653.017 0s-198.556 156.279-170.55 601.12l170.55 34.099zm846.763 625.705s-233.885 68.199-524.958 65.473c-291.073 2.726-524.958-65.473-524.958-65.473-72.153-543.503 285.622-770.761 448.101-844.838 30.465-13.896 54.035-22.395 66.649-26.617a31.8 31.8 0 0 1 20.417 0c14.163 4.704 42.116 14.858 78.032 31.854 167.183 79.37 507.213 308.444 436.717 839.601" clip-path="url(#b)" style="fill:#fff709;fill-opacity:1;fill-rule:nonzero;stroke:none" transform="matrix(1.33333 0 0 -1.33333 1774.95 1967.933)"></path><path d="M0 0v-635.219S-198.556-478.94-170.55-34.099z" clip-path="url(#c)" style="fill:#0e50a7;fill-opacity:1;fill-rule:nonzero;stroke:none" transform="matrix(1.33333 0 0 -1.33333 904.26 1120.974)"></path><path d="M0 0v635.219l170.603-34.099C198.556 156.279 0 0 0 0" clip-path="url(#d)" style="fill:#0e50a7;fill-opacity:1;fill-rule:nonzero;stroke:none" transform="matrix(1.33333 0 0 -1.33333 1774.95 1967.933)"></path><path d="m0 0-12.026 36.344c-1.55 4.596-.588 9.62 2.352 13.522 19.882 26.136 37.948 77.231 43.88 95.029 1.282 3.688 4.062 6.628 7.589 8.284 14.752 6.842 44.629 27.953 56.547 36.505C94.494 112.72 56.867 44.628 0 0m-25.655 49.546c-19.134-14.431-86.477-20.631-106.413-22.181-3.528-.267-6.948 1.229-9.193 3.955l-59.326 73.917c-2.459 3.047-3.047 7.216-1.55 10.85l43.987 104.222c1.443 3.421 4.596 5.879 8.231 6.414l108.123 16.462c3.154.48 6.36-.428 8.765-2.566 23.892-21.058 50.08-70.55 56.761-83.591a10.3 10.3 0 0 0 1.015-6.681c-7.375-40.3-42.276-90.219-48.315-98.61-.588-.855-1.23-1.604-2.085-2.191m-99.091-40.674c-3.421-.427-6.52-2.245-8.498-5.077-6.841-9.727-23.944-32.603-35.168-35.543l28.808 45.377c2.031 3.207 5.398 5.291 9.193 5.612 18.332 1.657 74.024 7.376 101.442 18.92-1.122-1.122-20.577-19.508-95.777-29.289m-114.483-51.149c.748.695 1.817 1.069 3.046 1.016l59.754-3.635a4.36 4.36 0 0 0 3.367-2.031l5.024-7.91c-24.799.855-48.69 5.185-71.191 12.56m-27.098 19.402c-42.598 8.124-76.59 65.205-85.836 82.201-1.604 2.993-1.604 6.521 0 9.46l26.189 47.622c2.031 3.634 6.093 5.612 10.155 4.971l96.525-15.019a9.6 9.6 0 0 0 6.147-3.581l61.838-77.231a9.82 9.82 0 0 0 .695-11.331l-26.724-42.972a9.98 9.98 0 0 0-9.674-4.542zM-371.19 73.276c-4.918 2.94-11.225 7.002-16.943 11.277 0 .054-.054.054-.054.054v.053c-18.279 35.382-28.594 75.521-28.594 118.065 0 2.512.054 4.97.107 7.429 0 .481.054.909.054 1.336.053 2.138.16 4.276.267 6.361.32 5.024.748 10.048 1.336 14.965.107 1.229.267 2.405.481 3.634.16 1.497.374 2.993.588 4.436.267 1.711.534 3.474.855 5.184.214 1.444.481 2.94.748 4.383 1.55 8.445 5.345 16.302 10.743 22.982.107.161.214.268.321.428l.908 1.069c3.047 3.688 8.392 4.329 12.293 1.55l31.374-22.715a8.99 8.99 0 0 0 3.741-7.162c.267-16.087 2.672-72.367 21.379-111.117 1.282-2.618 1.336-5.665-.054-8.284l-26.883-50.4c-2.406-4.597-8.178-6.2-12.667-3.528m45.483 69.321c-20.737 30.946-18.172 95.51-17.531 107.322.107 1.176.535 2.352 1.337 3.26.587.695 1.229 1.39 1.87 2.085.588.694 1.283 1.389 1.978 2.084 1.176 1.283 2.458 2.512 3.794 3.741.214.161.375.321.535.481v.054c.16.106.321.214.427.374.856.748 1.764 1.55 2.619 2.298a35 35 0 0 0 1.604 1.336c.481.375.908.802 1.389 1.176.535.428 1.069.802 1.604 1.229.481.428 1.015.802 1.496 1.176a89 89 0 0 0 3.849 2.886 22 22 0 0 0 2.298 1.604s0 .053.053.053c.054.054.054.054.107.054.268.267.588.481.909.694.107.054.214.161.374.214.374.268.695.535 1.069.748.16.161.374.268.534.375.535.374 1.016.694 1.497 1.015.214.161.374.267.534.374l1.283.802c.214.16.427.267.588.374a121 121 0 0 0 4.81 3.047c1.657 1.015 3.314 2.031 5.024 2.993l2.245 1.283a74 74 0 0 0 2.779 1.549c.054.054.054.054.107.054 1.443.801 2.886 1.603 4.329 2.352.962.534 1.924 1.015 2.887 1.549l.641.321a361 361 0 0 0 10.208 5.078c1.123.534 2.192 1.069 3.26 1.549.161.054.321.161.482.215.908.427 1.763.801 2.618 1.229.321.16.695.32 1.016.427a230 230 0 0 0 7.429 3.26h.054v.054c.427.16.801.321 1.175.481.428.16.802.374 1.176.481.481.214.855.374 1.283.534l1.122.482c.481.16.963.374 1.39.534.588.267 1.176.481 1.71.695.374.16.695.32 1.016.427 1.122.428 2.031.802 2.833 1.123.427.16.801.267 1.122.374-1.711-.748-3.367-1.497-5.024-2.352-.802-.321-1.55-.695-2.352-1.122a134 134 0 0 1-4.756-2.512c-.963-.481-1.871-1.016-2.78-1.55-.748-.428-1.443-.802-2.084-1.229-.428-.214-.802-.482-1.176-.695a45 45 0 0 0-2.085-1.336l-1.763-1.123c-.428-.267-.802-.481-1.176-.748-2.085-1.336-4.062-2.726-5.986-4.062-.161-.16-.321-.267-.481-.374-.267-.161-.481-.321-.695-.481-.107-.107-.214-.161-.321-.267a115 115 0 0 1-4.863-3.635 18 18 0 0 1-1.069-.802c-.749-.587-1.444-1.122-2.085-1.656a332 332 0 0 1-3.901-3.154 154 154 0 0 1-4.33-3.688 61 61 0 0 1-3.367-2.993 212 212 0 0 1-9.193-8.658l-1.39-1.39a155 155 0 0 1-5.986-6.146c-.48-.481-.908-.909-1.336-1.39-.427-.481-.855-.908-1.282-1.336-.214-.267-.481-.481-.695-.748-.214-.214-.375-.428-.588-.642-.054-.053-.107-.16-.16-.213a3.4 3.4 0 0 1-.428-.482c-.107-.106-.214-.16-.267-.267a19 19 0 0 1-1.443-1.603 307 307 0 0 1-2.352-2.672c-1.016-1.176-1.817-2.138-2.352-2.78a5.27 5.27 0 0 1-1.175-2.458c-5.238-27.739 4.008-101.336 4.008-101.336m53.5 291.715c11.385-2.94 34.848-9.888 51.203-20.684 3.741-2.459 5.184-7.27 3.634-11.545l-28.113-77.124c-.908-2.512-2.779-4.543-5.184-5.612-14.912-6.788-70.337-32.55-91.127-52.699-3.635-3.474-9.247-3.902-13.202-.748l-42.491 34.045c-.053.054-.16.107-.213.214 23.944 58.632 68.893 106.52 125.493 134.153m67.665-6.361c2.244-.748 4.596-.802 6.894-.267 52.86 13.362 93.693 4.543 93.693 4.543-46.873 1.603-81.4-10.369-93.853-15.5-3.314-1.336-7.055-1.175-10.208.481l-41.262 21.86c14.645-1.122 36.451-8.231 44.736-11.117m120.149-6.413c32.976-14.645 60.342-50.615 71.085-66.168a17.4 17.4 0 0 0 2.191-15.339l-25.12-74.024c-2.031-5.826-7.002-10.209-13.095-11.332l-98.717-18.92c-5.719-1.069-11.544.802-15.606 4.971l-67.718 69.962a17.235 17.235 0 0 0-3.421 18.867l30.84 70.443a17.17 17.17 0 0 0 10.956 9.674c34.26 9.888 86.585 12.614 101.175 13.202 2.566.107 5.132-.321 7.43-1.336m68.091-171.352c41.475-49.225 46.286-88.134 46.286-88.134-9.941 30.732-50.027 78.139-59.701 89.31-1.336 1.55-1.763 3.634-1.069 5.558l29.289 86.371c7.696-17.745-11.117-74.024-15.873-87.653-.642-1.871-.214-3.902 1.068-5.452m-68.786 189.256 4.543 8.766a64 64 0 0 0 4.543-1.444c60.235-20.47 110.475-62.693 141.368-117.316-22.662 14.271-52.111 20.47-61.625 22.234-1.977.321-3.58 1.603-4.489 3.421-18.76 37.466-65.954 66.809-81.881 75.895-2.94 1.71-4.009 5.398-2.459 8.444m164.67-101.763c-27.097 47.782-68.145 86.638-117.637 110.956a269.4 269.4 0 0 1-37.947 15.34v129.289H-241.1V464.295c-25.334-7.91-49.065-19.455-70.657-34.046-33.779-22.608-62.213-52.592-83.057-87.653-19.455-32.763-32.282-69.855-36.665-109.567-1.069-9.941-1.657-20.042-1.657-30.304 0-19.615 2.085-38.803 5.986-57.242v-.107C-406.466 48.37-334.579-29.61-241.1-58.899V-250.4l69.909-33.19c4.382-2.085 9.513-2.138 13.896-.054l81.293 38.322v186.744c29.77 9.46 57.349 23.891 81.774 42.277 64.351 48.476 106.681 124.692 109.193 210.848.053 2.726.107 5.452.107 8.178 0 49.064-12.881 95.136-35.49 134.954" clip-path="url(#e)" style="fill:#0e50a7;fill-opacity:1;fill-rule:nonzero;stroke:none" transform="matrix(1.33333 0 0 -1.33333 1552.324 1882.845)"></path><path d="m0 0-4.543-20.256-14.805-.214-3.153-20.471-30.732 5.025 2.298 23.196-39.818 6.788 7.269 22.982 54.836 54.623L0 64.617-13.843.481Zm-97.06 28.167c-5.452-30.412-28.434-51.791-51.309-47.729-22.929 4.062-37.093 32.068-31.641 62.534 5.398 30.411 28.38 51.79 51.256 47.728 22.929-4.062 37.092-32.068 31.694-62.533m-88.028 67.824a132 132 0 0 0-2.19-5.558c-2.299-5.666-5.238-11.812-8.178-17.584a40 40 0 0 0-1.069-2.138c-.695-1.39-1.389-2.779-2.138-4.115-.321-.696-.695-1.337-1.015-1.979a238 238 0 0 0-3.742-7.001 115 115 0 0 0-1.55-2.833v-.053c-.214-.428-.481-.802-.748-1.176-2.672-3.474-7.322-4.917-11.384-3.367l-1.122.481-.322.16c-.053 0-.053.054-.106.107a9.6 9.6 0 0 0-1.817 1.176.83.83 0 0 0-.428.32c-.481.321-.962.749-1.443 1.23-1.283 1.122-2.405 2.406-3.314 3.635-2.298 2.939-2.352 7.108-.053 10.047l.053.054a56 56 0 0 0 3.581 3.955 23 23 0 0 0 1.604 1.603 107 107 0 0 0 3.527 3.368 57 57 0 0 0 1.924 1.71c9.674 8.659 21.967 17.958 28.167 22.501.427.321.802.642 1.176.856 1.176.908 2.031 1.496 2.459 1.816.267.161.373.268.373.268-.48-2.138-1.229-4.703-2.245-7.483M-322.019-.213-330.25 24.8h-37.948l-7.749-21.379h-19.562l51.844 110.742h25.281l35.916-115.499zm-80.759 103.794h-42.544V69.802h40.727V56.975h-39.711V18.654h39.711V3.421h-76.857l-2.512 112.346h81.186zM-536.983 2.512l-27.259 42.544h-2.993l2.993-43.452-38.695-1.817c.267 20.897-7.055 114.376-7.055 114.376h61.892c3.313 0 6.413-.107 9.193-.32.855-.054 1.657-.107 2.458-.214a91 91 0 0 0 4.65-.588c.641-.107 1.336-.214 1.924-.375a40 40 0 0 0 2.886-.587c.909-.214 1.817-.428 2.619-.695.107 0 .214-.054.321-.107.908-.267 1.817-.534 2.619-.855a23 23 0 0 0 2.298-.908c.16-.107.374-.161.535-.268a21.28 21.28 0 0 0 11.704-14.377c.214-.909.375-1.817.481-2.779v-.054c2.513-23.303-24.639-35.061-24.639-35.061l35.489-52.646zm-126.189-7.536-10.957 112.827 40.941 2.031s2.298-82.523 7.055-112.559zm-53.928-2.94-69.588 57.99 14.323-69.588-18.439-2.512-17.691 112.346 27.739 3.902 71.619-57.563-10.903 67.771h21.593l7.963-111.651zm-120.737-16.14s-29.022-15.34-53.928-12.186c-.749.107-1.497.213-2.245.374-10.957 2.138-20.096 10.101-24.479 20.523-.053.107-.053.161-.107.268-2.031 4.97-4.65 11.49-7.322 19.027a471 471 0 0 0-2.405 6.787c-.802 2.352-1.604 4.811-2.406 7.269-.373 1.229-.801 2.512-1.175 3.741a105 105 0 0 0-1.176 3.849 299 299 0 0 0-4.222 15.232c-.375 1.55-.802 3.154-1.123 4.757a110 110 0 0 0-.908 4.062c-.375 1.55-.695 3.1-.962 4.703a220 220 0 0 0-1.07 5.826c-.32 1.978-.641 3.902-.908 5.826 0 0 22.982 1.817 40.727 7.963 0 0 .053-.48.107-1.39q.08-.72.16-1.762c.107-1.497.321-3.475.535-5.88.213-2.031.48-4.383.801-6.948.054-.428.107-.855.161-1.337.213-1.336.374-2.672.587-4.115.428-3.153.962-6.521 1.55-9.994.321-1.871.642-3.742 1.016-5.666 2.94-15.446 7.429-32.496 14.27-44.308 3.848-6.734 11.278-10.529 18.974-9.94.534.053 1.069.16 1.603.213.856.16 1.764.32 2.673.534.748.161 1.496.375 2.244.589.054 0 .107.053.214.053 1.39.481 2.779 1.016 4.169 1.71.428.214.855.428 1.23.695.373.214.748.428 1.122.695.588.374 1.122.802 1.657 1.229.641.535 1.229 1.069 1.764 1.71a13 13 0 0 1 1.549 1.872s.054 0 .054.053a17.4 17.4 0 0 1 1.283 2.138c.053.106.107.213.107.267.374.748.694 1.55.962 2.351.053.054.107.107.053.214.321.855.588 1.817.748 2.78.214 1.015.375 2.137.428 3.26 0 0-6.574 57.349-15.233 80.758h24.372s22.929-93.479-5.451-107.802m363.173 187.652s-327.257-4.115-517.261-94.494V-85.515s294.6 66.167 517.261 62.8c222.661 3.367 517.262-62.8 517.262-62.8V69.054c-190.005 90.379-517.262 94.494-517.262 94.494" clip-path="url(#f)" style="fill:#fbef0c;fill-opacity:1;fill-rule:nonzero;stroke:none" transform="matrix(1.33333 0 0 -1.33333 1966.219 582.085)"></path><path d="M0 0c.16-21.913-13.522-41.902-33.618-50.614-12.935-5.613-31.481-9.675-57.563-8.071-2.779.214-5.077 2.298-5.558 4.97l-5.987 33.405h4.757s18.867-19.829 40.727-16.836c0 0 18.653 2.726 24.8 19.776 0 0-5.933 12.186-44.575 16.836-11.438 1.336-22.662 5.13-31.855 12.132-9.994 7.59-19.08 19.669-16.408 37.734 1.603 10.742 7.108 20.631 15.125 28.059 12.668 11.705 38.108 26.563 83.806 22.128V61.571l-24.212 14.11c-5.719 3.367-12.56 4.169-18.92 2.352-4.329-1.23-9.3-2.939-13.629-5.131-7.964-4.062-8.819-15.339-1.39-20.31 6.093-4.062 16.301-7.91 33.511-8.659 8.926-.373 17.852-2.244 25.869-6.253C-13.255 31.854-.16 20.684 0 0" clip-path="url(#g)" style="fill:#fff;fill-opacity:1;fill-rule:nonzero;stroke:none" transform="matrix(1.33333 0 0 -1.33333 733.158 939.183)"></path><path d="M0 0c-37.039-3.635-102.084-20.257-102.084-20.257-6.628 72.528-32.817 147.141-32.817 147.141l58.739 9.78c4.757-40.032 21.806-122.821 21.806-122.821l51.63 9.78z" clip-path="url(#h)" style="fill:#fff;fill-opacity:1;fill-rule:nonzero;stroke:none" transform="matrix(1.33333 0 0 -1.33333 913.025 960.205)"></path><path d="M0 0c-19.883-2.458-39.177 21.111-43.078 52.699-3.902 31.534 9.032 59.058 28.968 61.518 19.882 2.459 39.123-21.113 43.025-52.646C32.816 30.037 19.882 2.458 0 0m82.308 68.199c-5.237 42.436-49.545 71.939-98.877 65.793-49.385-6.093-85.141-45.483-79.903-87.921 5.238-42.437 49.545-71.94 98.93-65.846C51.79-13.629 87.6 25.708 82.308 68.199" clip-path="url(#i)" style="fill:#fff;fill-opacity:1;fill-rule:nonzero;stroke:none" transform="matrix(1.33333 0 0 -1.33333 1025.407 921.224)"></path><path d="M0 0c-19.883-2.458-39.177 21.111-43.078 52.699-3.902 31.534 9.032 59.058 28.968 61.518 19.882 2.459 39.123-21.113 43.025-52.646C32.816 30.037 19.882 2.458 0 0" clip-path="url(#j)" style="fill:#0e50a7;fill-opacity:1;fill-rule:nonzero;stroke:none" transform="matrix(1.33333 0 0 -1.33333 1025.407 921.224)"></path><path d="M0 0c-19.99.589-35.489 26.777-34.58 58.578.908 31.748 17.904 57.029 37.893 56.44 20.043-.533 35.543-26.777 34.634-58.524C37.039 24.693 20.043-.587 0 0m3.902 134.954c-49.707 1.443-91.021-32.068-92.25-74.826-1.229-42.81 38.054-78.62 87.813-80.064 49.706-1.389 91.021 32.122 92.25 74.88s-38.107 78.567-87.813 80.01" clip-path="url(#k)" style="fill:#fff;fill-opacity:1;fill-rule:nonzero;stroke:none" transform="matrix(1.33333 0 0 -1.33333 1486.478 905.904)"></path><path d="M0 0c-.909-31.801-17.905-57.081-37.947-56.494-19.99.588-35.489 26.777-34.581 58.578.909 31.748 17.905 57.029 37.894 56.44C-14.592 57.991.909 31.747 0 0" clip-path="url(#l)" style="fill:#0e50a7;fill-opacity:1;fill-rule:nonzero;stroke:none" transform="matrix(1.33333 0 0 -1.33333 1537.074 830.578)"></path><path d="M0 0c.909-30.946-26.189-30.465-26.189-30.465l-2.939 53.874C2.94 25.227 0 0 0 0m-30.732 40.032V86.21c29.61-.481 29.129-20.043 29.129-20.043-.428-27.525-29.129-26.135-29.129-26.135M53.233 1.39c-1.336 6.627-5.024 12.612-9.941 17.209C37.253 24.105 26.724 31.052 9.3 34.58c0 0 28.273 5.238 37.787 23.891 4.81 9.46 2.779 20.737-4.543 28.434-8.231 8.604-25.013 18.225-58.364 15.874l-69.695-3.421s9.781-118.225 8.391-147.353l73.383 2.083c13.575.375 26.937 4.223 38.214 11.812 11.438 7.697 22.128 19.455 18.76 35.49" clip-path="url(#m)" style="fill:#fff;fill-opacity:1;fill-rule:nonzero;stroke:none" transform="matrix(1.33333 0 0 -1.33333 1275.753 867.42)"></path><path d="M0 0c-.427-27.525-29.129-26.135-29.129-26.135v46.178C.481 19.562 0 0 0 0" clip-path="url(#n)" style="fill:#0e50a7;fill-opacity:1;fill-rule:nonzero;stroke:none" transform="matrix(1.33333 0 0 -1.33333 1273.615 779.198)"></path><path d="M0 0c.909-30.946-26.189-30.465-26.189-30.465l-2.939 53.874C2.94 25.227 0 0 0 0" clip-path="url(#o)" style="fill:#0e50a7;fill-opacity:1;fill-rule:nonzero;stroke:none" transform="matrix(1.33333 0 0 -1.33333 1275.753 867.42)"></path><path d="m0 0 72.795-7.964-3.153-24.318C45.056-21.379-70.71-15.927-70.71-15.927c8.658 14.11 90.272 119.668 90.272 119.668l-66.382 3.634 1.336 24.533c61.893-5.452 140.781-19.776 140.781-19.776C67.344 90.753 0 0 0 0" clip-path="url(#p)" style="fill:#fff;fill-opacity:1;fill-rule:nonzero;stroke:none" transform="matrix(1.33333 0 0 -1.33333 1698.128 916.877)"></path><path d="M0 0c-12.667-30.037-27.205-145.803-27.205-145.803-9.086 3.42-54.676 9.032-54.676 9.032 11.598 46.713 24.425 147.46 24.425 147.46C-48.102 7.055 0 0 0 0" clip-path="url(#q)" style="fill:#fff;fill-opacity:1;fill-rule:nonzero;stroke:none" transform="matrix(1.33333 0 0 -1.33333 1922.748 781.62)"></path><path d="m0 0 27.525 41.368c2.298-2.94 9.086-49.546 9.086-49.546zm74.185 83.698-32.55 9.781L-54.57-39.123l29.342-5.238 14.539 25.227 49.171-9.994 1.817-30.947s46.819-10.421 54.997-14.537c0 0-18.171 135.115-21.111 158.31" clip-path="url(#r)" style="fill:#fff;fill-opacity:1;fill-rule:nonzero;stroke:none" transform="matrix(1.33333 0 0 -1.33333 1977.122 926.855)"></path><path d="m0 0-36.611 8.178 27.525 41.368C-6.788 46.606 0 0 0 0" clip-path="url(#s)" style="fill:#0e50a7;fill-opacity:1;fill-rule:nonzero;stroke:none" transform="matrix(1.33333 0 0 -1.33333 2025.937 937.758)"></path><path d="M0 0s-29.022-15.34-53.928-12.186c-.748.107-1.497.213-2.245.374C-67.13-9.674-76.269-1.711-80.652 8.711c-.053.107-.053.161-.107.268-2.031 4.97-4.649 11.49-7.322 19.027-.802 2.191-1.603 4.489-2.405 6.787-.801 2.352-1.603 4.811-2.405 7.269-.374 1.229-.802 2.512-1.176 3.741a105 105 0 0 0-1.176 3.849 301 301 0 0 0-4.222 15.232c-.374 1.55-.802 3.154-1.122 4.757a110 110 0 0 0-.909 4.062c-.374 1.55-.695 3.1-.962 4.703a224 224 0 0 0-1.069 5.826c-.321 1.978-.641 3.902-.909 5.826 0 0 22.983 1.817 40.727 7.963 0 0 .054-.48.107-1.39q.08-.72.16-1.762c.107-1.497.321-3.475.535-5.88.214-2.031.481-4.383.801-6.948.054-.428.107-.855.161-1.337.214-1.336.374-2.672.588-4.115.427-3.153.962-6.521 1.55-9.994.32-1.871.641-3.742 1.015-5.666 2.94-15.446 7.429-32.496 14.271-44.308 3.848-6.734 11.277-10.529 18.973-9.94.535.053 1.069.16 1.604.213.855.16 1.764.32 2.672.534.748.161 1.497.375 2.245.589.053 0 .107.053.214.053a25.4 25.4 0 0 1 4.169 1.71c.427.214.855.428 1.229.695.374.214.748.428 1.122.695.588.374 1.123.802 1.657 1.229.641.535 1.23 1.069 1.764 1.71a13 13 0 0 1 1.55 1.872s.053 0 .053.053c.481.641.909 1.389 1.283 2.138.053.106.107.213.107.267.428.748.748 1.497.962 2.351.053.054.107.107.053.214.375.855.588 1.817.749 2.78.213 1.015.374 2.137.427 3.26 0 0-6.574 57.349-15.232 80.758H5.452S28.38 14.323 0 0" clip-path="url(#t)" style="fill:#0e50a7;fill-opacity:1;fill-rule:nonzero;stroke:none" transform="matrix(1.33333 0 0 -1.33333 849.102 614.223)"></path><path d="m0 0-69.588 57.99 14.324-69.588-18.439-2.512-17.691 112.346 27.739 3.901L7.964 44.575-2.94 112.346h21.593L26.617.695Z" clip-path="url(#u)" style="fill:#0e50a7;fill-opacity:1;fill-rule:nonzero;stroke:none" transform="matrix(1.33333 0 0 -1.33333 1010.085 592.703)"></path><path d="m0 0-37.039-2.299-10.957 112.827 40.941 2.031S-4.757 30.037 0 0" clip-path="url(#v)" style="fill:#0e50a7;fill-opacity:1;fill-rule:nonzero;stroke:none" transform="matrix(1.33333 0 0 -1.33333 1131.375 585.718)"></path><path d="M0 0c-3.848-21.646-24.105-10.475-24.105-10.475v36.397C5.024 30.893 0 0 0 0m14.324-20.15S41.475-8.392 38.963 14.912v.053c-.107.962-.267 1.87-.481 2.779a21.28 21.28 0 0 1-11.705 14.378c-.16.107-.374.16-.535.267-.694.321-1.496.641-2.298.908-.801.321-1.71.588-2.619.855-.107.054-.213.107-.32.107-.802.268-1.711.482-2.619.696s-1.871.427-2.887.587c-.587.16-1.282.267-1.924.374a91 91 0 0 1-4.649.588c-.802.107-1.604.161-2.459.214-2.779.214-5.879.32-9.193.32h-61.892s7.322-93.479 7.055-114.376l38.696 1.817-2.993 43.453h2.993L8.391-74.612l41.422 1.816z" clip-path="url(#w)" style="fill:#0e50a7;fill-opacity:1;fill-rule:nonzero;stroke:none" transform="matrix(1.33333 0 0 -1.33333 1239.053 479.252)"></path><path d="M0 0c-3.848-21.646-24.105-10.475-24.105-10.475v36.397C5.024 30.893 0 0 0 0" clip-path="url(#x)" style="fill:#fbef0c;fill-opacity:1;fill-rule:nonzero;stroke:none" transform="matrix(1.33333 0 0 -1.33333 1239.053 479.252)"></path><path d="M0 0v-33.779h40.727v-12.827H1.016v-38.321h39.711v-15.233H-36.13l-2.512 112.346h81.186V0Z" clip-path="url(#y)" style="fill:#0e50a7;fill-opacity:1;fill-rule:nonzero;stroke:none" transform="matrix(1.33333 0 0 -1.33333 1372.457 443.977)" data-source="https://football-logos.cc"></path><path d="m0 0 17.745 37.092L28.648 0Zm45.965 76.856H20.684L-31.16-33.886h19.562l7.75 21.379H34.1l8.23-25.013 39.551-1.123z" clip-path="url(#z)" style="fill:#0e50a7;fill-opacity:1;fill-rule:nonzero;stroke:none" transform="matrix(1.33333 0 0 -1.33333 1480.42 532.343)"></path><path d="M0 0h-28.648l17.745 37.092z" clip-path="url(#A)" style="fill:#fbef0c;fill-opacity:1;fill-rule:nonzero;stroke:none" transform="matrix(1.33333 0 0 -1.33333 1518.617 532.343)"></path><path d="M0 0c-.481-2.137-1.23-4.703-2.245-7.482a132 132 0 0 0-2.191-5.559c-2.298-5.666-5.238-11.811-8.177-17.584a41 41 0 0 0-1.069-2.138c-.696-1.389-1.39-2.779-2.139-4.115-.32-.696-.694-1.336-1.015-1.978a237 237 0 0 0-3.741-7.001 116 116 0 0 0-1.55-2.833v-.053c-.214-.428-.482-.803-.748-1.177-2.673-3.474-7.323-4.917-11.385-3.367l-1.122.482-.321.16c-.053 0-.053.053-.107.107a9.6 9.6 0 0 0-1.817 1.175.84.84 0 0 0-.427.321c-.482.321-.963.749-1.443 1.229-1.283 1.123-2.405 2.406-3.314 3.635-2.299 2.939-2.352 7.108-.054 10.048l.054.053a56 56 0 0 0 3.581 3.955 22 22 0 0 0 1.603 1.604 109 109 0 0 0 3.528 3.367c.641.588 1.282 1.176 1.924 1.71C-22.502-16.782-10.209-7.482-4.009-2.94c.428.321.802.589 1.176.856C-1.656-1.176-.802-.588-.374-.268-.107-.107 0 0 0 0" clip-path="url(#B)" style="fill:#0e50a7;fill-opacity:1;fill-rule:nonzero;stroke:none" transform="matrix(1.33333 0 0 -1.33333 1722.429 444.12)"></path><path d="M0 0c-4.169-23.517-11.01-41.956-15.286-41.154-4.276.748-4.329 20.416-.16 43.88C-11.277 26.242-4.382 44.682-.161 43.88 4.115 43.132 4.222 23.463 0 0m2.084 56.494c-22.875 4.062-45.858-17.317-51.256-47.729-5.452-30.465 8.713-58.471 31.641-62.533C5.345-57.83 28.327-36.451 33.778-6.04c5.399 30.466-8.764 58.472-31.694 62.534" clip-path="url(#C)" style="fill:#0e50a7;fill-opacity:1;fill-rule:nonzero;stroke:none" transform="matrix(1.33333 0 0 -1.33333 1791.767 536.476)"></path><path d="M0 0c-4.169-23.517-11.01-41.956-15.286-41.154-4.276.748-4.329 20.416-.16 43.88C-11.277 26.242-4.382 44.682-.161 43.88 4.115 43.132 4.222 23.463 0 0" clip-path="url(#D)" style="fill:#fbef0c;fill-opacity:1;fill-rule:nonzero;stroke:none" transform="matrix(1.33333 0 0 -1.33333 1791.767 536.476)"></path><path d="m0 0-24.907 2.031C-21.005 13.415 5.131 33.19 5.131 33.19 5.131 21.165 0 0 0 0m45.377 55.745L16.729 62.8-38.108 8.177l-7.269-22.982 39.819-6.788-2.299-23.196 30.732-5.024 3.154 20.471 14.805.214 4.543 20.256-13.843.48z" clip-path="url(#E)" style="fill:#0e50a7;fill-opacity:1;fill-rule:nonzero;stroke:none" transform="matrix(1.33333 0 0 -1.33333 1905.717 570.255)"></path><path d="M0 0c0-12.026-5.131-33.19-5.131-33.19l-24.907 2.031C-26.136-19.775 0 0 0 0" clip-path="url(#F)" style="fill:#fbef0c;fill-opacity:1;fill-rule:nonzero;stroke:none" transform="matrix(1.33333 0 0 -1.33333 1912.558 526)"></path><path d="M0 0c-46.873 1.603-81.4-10.369-93.853-15.5-3.314-1.336-7.055-1.175-10.209.481l-41.261 21.86c14.645-1.122 36.451-8.231 44.735-11.117 2.245-.748 4.597-.802 6.895-.267C-40.834 8.819 0 0 0 0" clip-path="url(#G)" style="fill:#fff;fill-opacity:1;fill-rule:nonzero;stroke:none" transform="matrix(1.33333 0 0 -1.33333 1413.718 1306.543)"></path><path d="M0 0c-22.661 14.27-52.111 20.47-61.625 22.234-1.977.321-3.58 1.603-4.489 3.421-18.76 37.466-65.954 66.809-81.881 75.895-2.94 1.71-4.009 5.398-2.459 8.444l4.543 8.765a64 64 0 0 0 4.543-1.443C-81.132 96.846-30.893 54.623 0 0" clip-path="url(#H)" style="fill:#fff;fill-opacity:1;fill-rule:nonzero;stroke:none" transform="matrix(1.33333 0 0 -1.33333 1639.479 1443.581)"></path><path d="M0 0c-.748-1.924-2.245-3.42-4.223-4.222-33.19-13.469-69.427-40.567-82.201-50.561-2.833-2.245-6.841-2.138-9.567.16l-22.875 19.188 22.608-8.178c2.565-.908 5.451-.481 7.482 1.283C-75.361-30.679-20.791-.16-8.178 6.788c1.657.962 2.887 2.512 3.475 4.383C6.2 45.163 27.472 65.954 28.808 67.237 23.41 60.235 4.864 12.56 0 0m35.649 82.095C19.294 92.891-4.169 99.84-15.553 102.779c-56.601-27.632-101.55-75.521-125.494-134.152.053-.107.16-.161.214-.214l42.49-34.046c3.955-3.153 9.567-2.726 13.202.748 20.79 20.15 76.215 45.911 91.127 52.699 2.405 1.069 4.276 3.1 5.184 5.612L39.284 70.55c1.55 4.276.107 9.086-3.635 11.545" clip-path="url(#I)" style="fill:#fff;fill-opacity:1;fill-rule:nonzero;stroke:none" transform="matrix(1.33333 0 0 -1.33333 1210.12 1440.802)"></path><path d="M0 0c-5.398-7.002-23.945-54.676-28.808-67.237-.748-1.924-2.245-3.42-4.223-4.222-33.19-13.469-69.427-40.566-82.201-50.561-2.833-2.245-6.841-2.138-9.567.161l-22.875 19.187 22.608-8.177c2.565-.909 5.451-.482 7.482 1.282 13.415 11.652 67.985 42.17 80.598 49.118 1.657.962 2.887 2.512 3.475 4.383C-22.608-22.074-1.336-1.283 0 0" clip-path="url(#J)" style="fill:#0e50a7;fill-opacity:1;fill-rule:nonzero;stroke:none" transform="matrix(1.33333 0 0 -1.33333 1248.53 1351.153)"></path><path d="m0 0-28.808-43.506L-10.048.427a13.3 13.3 0 0 1 .16 9.728c-13.094 35.702-18.385 90.539-19.668 105.291a13.15 13.15 0 0 1-2.619 6.788l-14.698 19.133 22.608-18.118c3.153-2.566 4.864-6.414 4.81-10.476-.588-45.43 14.271-85.622 20.631-100.587A13.01 13.01 0 0 0 0 0m11.705 11.117C-7.002 49.866-9.407 106.146-9.674 122.234a8.98 8.98 0 0 1-3.741 7.161l-31.374 22.715c-3.901 2.78-9.246 2.138-12.292-1.55l-.909-1.069c-.107-.16-.214-.267-.321-.427-5.398-6.681-9.193-14.538-10.743-22.982-.267-1.444-.534-2.94-.748-4.383-.321-1.71-.588-3.474-.855-5.184-.214-1.497-.428-2.993-.588-4.437-.214-1.175-.321-2.405-.481-3.634-.588-4.917-1.015-9.941-1.336-14.965-.107-2.138-.214-4.223-.267-6.36 0-.428-.054-.856-.054-1.336-.053-2.459-.107-4.971-.107-7.43 0-42.544 10.315-82.682 28.595-118.065v-.053s.053 0 .053-.053c5.719-4.276 12.025-8.338 16.943-11.277 4.489-2.673 10.261-1.069 12.667 3.527L11.651 2.833c1.39 2.618 1.337 5.665.054 8.284" clip-path="url(#K)" style="fill:#fff;fill-opacity:1;fill-rule:nonzero;stroke:none" transform="matrix(1.33333 0 0 -1.33333 1094.603 1717.016)"></path><path d="m0 0-28.808-43.506L-10.048.427a13.3 13.3 0 0 1 .16 9.728c-13.094 35.702-18.385 90.539-19.668 105.291a13.15 13.15 0 0 1-2.619 6.788l-14.698 19.133 22.608-18.118c3.153-2.566 4.864-6.414 4.81-10.476-.588-45.43 14.271-85.622 20.631-100.587A13.01 13.01 0 0 0 0 0" clip-path="url(#L)" style="fill:#0e50a7;fill-opacity:1;fill-rule:nonzero;stroke:none" transform="matrix(1.33333 0 0 -1.33333 1094.603 1717.016)"></path><path d="M0 0c-1.71-.748-3.367-1.496-5.024-2.352-.802-.32-1.55-.695-2.352-1.122-1.603-.802-3.206-1.603-4.756-2.512-.963-.481-1.871-1.016-2.78-1.55-.748-.428-1.443-.802-2.084-1.229-.428-.214-.802-.481-1.176-.695a52 52 0 0 0-2.245-1.39c-.588-.374-1.122-.694-1.603-1.069-.428-.267-.802-.481-1.176-.748-2.084-1.336-4.062-2.726-5.986-4.062-.16-.16-.321-.267-.481-.374-.267-.16-.481-.321-.695-.481-.107-.107-.214-.161-.321-.267a115 115 0 0 1-4.863-3.635 19 19 0 0 1-1.069-.801c-.748-.588-1.443-1.123-2.085-1.657-1.336-1.069-2.672-2.138-3.901-3.154a154 154 0 0 1-4.329-3.687 61 61 0 0 1-3.368-2.994 213 213 0 0 1-9.193-8.658l-1.389-1.389a155 155 0 0 1-5.986-6.147c-.481-.481-.909-.908-1.337-1.39h-.053a28 28 0 0 1-1.229-1.336c-.214-.267-.481-.481-.695-.748-.214-.214-.374-.428-.588-.642-.053-.053-.107-.16-.16-.213a3.5 3.5 0 0 1-.428-.481c-.107-.107-.214-.16-.267-.268a20 20 0 0 1-1.443-1.603c-.855-.962-1.657-1.87-2.352-2.672a201 201 0 0 1-2.352-2.78 5.27 5.27 0 0 1-1.175-2.458C-84.179-92.303-74.933-165.9-74.933-165.9c-20.737 30.946-18.172 95.51-17.53 107.322.107 1.176.534 2.352 1.336 3.26.588.695 1.229 1.39 1.87 2.085.642.695 1.283 1.389 1.978 2.084 1.229 1.283 2.512 2.512 3.795 3.741.214.161.374.321.534.482l.428.427c.855.748 1.763 1.55 2.618 2.298.535.481 1.069.909 1.604 1.337q.722.641 1.604 1.282c.427.428.908.802 1.389 1.122.481.428 1.016.802 1.497 1.176a89 89 0 0 0 3.848 2.886 22 22 0 0 0 2.298 1.604s0 .053.054.053c.053.054.053.054.106.054.428.267.856.588 1.283.908.374.268.695.535 1.069.749.16.16.374.267.535.374.534.374 1.015.695 1.496 1.015.214.161.374.268.535.375l1.282.801c.214.161.428.268.588.374a120 120 0 0 0 4.811 3.047c1.656 1.015 3.313 2.031 5.024 2.993l2.244 1.283a74 74 0 0 0 2.78 1.55c.053.053.053.053.106.053 1.443.802 2.887 1.603 4.329 2.352 1.016.534 2.031 1.068 3.101 1.603.16.107.267.214.427.267a359 359 0 0 0 10.208 5.078c1.123.534 2.192 1.069 3.261 1.55.16.053.32.16.481.214.908.427 1.764.801 2.619 1.229.32.16.695.321 1.015.428a234 234 0 0 0 7.429 3.26h.054c.427.16.801.374 1.176.534.427.161.801.374 1.176.481.48.214.855.374 1.282.535q.562.24 1.122.481c.482.16.963.374 1.39.534.588.267 1.176.481 1.71.695.375.16.695.321 1.016.428 1.122.427 2.031.801 2.833 1.122.427.16.801.267 1.122.374" clip-path="url(#M)" style="fill:#fff;fill-opacity:1;fill-rule:nonzero;stroke:none" transform="matrix(1.33333 0 0 -1.33333 1217.959 1471.516)"></path><path d="M0 0a5.23 5.23 0 0 0-4.971 1.443l-71.191 72.741a5.34 5.34 0 0 0-1.069 5.826l29.984 69.374-17.638-64.296c-.481-1.818 0-3.742 1.283-5.078l60.395-62.907a5.18 5.18 0 0 1 4.116-1.604l89.363 5.612zm135.863 110.742c-10.743 15.553-38.108 51.523-71.085 66.168-2.298 1.015-4.864 1.443-7.429 1.336-14.591-.588-66.916-3.314-101.176-13.202a17.17 17.17 0 0 1-10.956-9.673l-30.839-70.444a17.23 17.23 0 0 1 3.42-18.866l67.718-69.963c4.062-4.169 9.888-6.039 15.606-4.97l98.717 18.92c6.093 1.122 11.064 5.505 13.095 11.331l25.12 74.024a17.4 17.4 0 0 1-2.191 15.339" clip-path="url(#N)" style="fill:#fff;fill-opacity:1;fill-rule:nonzero;stroke:none" transform="matrix(1.33333 0 0 -1.33333 1353.43 1556.675)"></path><path d="m0 0-90.272-21.111a5.23 5.23 0 0 0-4.971 1.442l-71.192 72.742a5.34 5.34 0 0 0-1.069 5.826l29.985 69.374-17.638-64.297c-.481-1.817 0-3.741 1.282-5.077l60.396-62.908a5.17 5.17 0 0 1 4.115-1.603z" clip-path="url(#O)" style="fill:#0e50a7;fill-opacity:1;fill-rule:nonzero;stroke:none" transform="matrix(1.33333 0 0 -1.33333 1473.793 1528.527)"></path><path d="M0 0c-1.924 2.352-4.917 3.581-7.911 3.207-51.576-6.307-84.072-14.858-94.761-17.958-2.512-.695-4.49-2.512-5.505-4.864l-35.649-82.576c-1.123-2.672-.909-5.665.641-8.124l46.339-73.222-57.296 74.452a8.55 8.55 0 0 0-1.069 8.711l40.086 93.266c1.176 2.725 3.634 4.703 6.574 5.184l101.71 16.568c2.885.482 5.825-.48 7.803-2.672 17.21-19.187 47.889-71.993 49.759-75.253zm60.502-61.624C53.821-48.583 27.632.909 3.741 21.967c-2.405 2.138-5.611 3.046-8.765 2.565L-113.148 8.071c-3.634-.535-6.787-2.993-8.23-6.414l-43.987-104.222c-1.497-3.634-.909-7.803 1.549-10.85l59.327-73.917c2.245-2.726 5.665-4.222 9.193-3.955 19.935 1.55 87.279 7.75 106.413 22.181.855.587 1.497 1.336 2.084 2.191 6.04 8.391 40.941 58.31 48.316 98.61.428 2.298.054 4.65-1.015 6.681" clip-path="url(#P)" style="fill:#fff;fill-opacity:1;fill-rule:nonzero;stroke:none" transform="matrix(1.33333 0 0 -1.33333 1503.295 1591.31)"></path><path d="m0 0-50.721 63.281c-1.924 2.352-4.918 3.581-7.911 3.207-51.576-6.306-84.072-14.858-94.761-17.958-2.513-.695-4.49-2.512-5.506-4.864l-35.649-82.576c-1.122-2.672-.908-5.665.642-8.123l46.339-73.223-57.296 74.452a8.54 8.54 0 0 0-1.069 8.712l40.085 93.265c1.176 2.725 3.635 4.703 6.575 5.184l101.709 16.569c2.886.481 5.826-.481 7.804-2.673C-32.549 56.066-1.87 3.26 0 0" clip-path="url(#Q)" style="fill:#0e50a7;fill-opacity:1;fill-rule:nonzero;stroke:none" transform="matrix(1.33333 0 0 -1.33333 1570.924 1675.684)"></path><path d="M0 0c-3.848-76.964-41.475-145.056-98.342-189.684l-12.026 36.344c-1.55 4.597-.588 9.621 2.352 13.522 19.882 26.136 37.948 77.231 43.88 95.029 1.282 3.688 4.062 6.628 7.589 8.285C-41.795-29.663-11.919-8.551 0 0" clip-path="url(#R)" style="fill:#fff;fill-opacity:1;fill-rule:nonzero;stroke:none" transform="matrix(1.33333 0 0 -1.33333 1683.447 1629.934)"></path><path d="m0 0-19.615-37.199L-8.338-1.283c1.283 4.009.428 8.338-2.244 11.598l-51.417 62.801c-1.924 2.351-4.65 3.902-7.696 4.382l-75.147 11.599a12.67 12.67 0 0 1-10.957-3.742l-29.288-31.106 26.883 39.711c2.726 4.062 7.59 6.093 12.4 5.238 17.852-3.207 61.197-10.69 80.224-11.759 3.528-.213 6.788-1.87 8.979-4.649l55.318-69.268C1.764 9.674 2.298 4.329 0 0m11.491 14.644-61.838 77.232a9.6 9.6 0 0 1-6.147 3.58l-96.525 15.019c-4.062.642-8.124-1.336-10.155-4.97l-26.189-47.622c-1.603-2.939-1.603-6.467 0-9.46 9.246-16.996 43.238-74.078 85.836-82.202l79.315-10.422a9.98 9.98 0 0 1 9.674 4.543L12.186 3.314a9.82 9.82 0 0 1-.695 11.33" clip-path="url(#S)" style="fill:#fff;fill-opacity:1;fill-rule:nonzero;stroke:none" transform="matrix(1.33333 0 0 -1.33333 1335.258 1868.308)"></path><path d="m0 0-19.615-37.199L-8.338-1.283c1.283 4.009.428 8.338-2.244 11.598l-51.417 62.801c-1.924 2.351-4.65 3.902-7.696 4.382l-75.147 11.599a12.67 12.67 0 0 1-10.957-3.742l-29.288-31.106 26.883 39.711c2.726 4.062 7.59 6.093 12.4 5.238 17.852-3.207 61.197-10.69 80.224-11.759 3.528-.213 6.788-1.87 8.979-4.649l55.318-69.268C1.764 9.674 2.298 4.329 0 0" clip-path="url(#T)" style="fill:#0e50a7;fill-opacity:1;fill-rule:nonzero;stroke:none" transform="matrix(1.33333 0 0 -1.33333 1335.258 1868.308)"></path><path d="M0 0c-1.122-1.122-20.577-19.508-95.777-29.289-3.421-.428-6.521-2.245-8.498-5.077-6.841-9.728-23.945-32.603-35.168-35.543l28.807 45.377c2.031 3.206 5.399 5.291 9.193 5.611C-83.11-17.264-27.418-11.545 0 0" clip-path="url(#U)" style="fill:#fff;fill-opacity:1;fill-rule:nonzero;stroke:none" transform="matrix(1.33333 0 0 -1.33333 1513.7 1831.964)"></path><path d="M0 0c-24.8.855-48.691 5.185-71.192 12.56.748.695 1.817 1.069 3.047 1.015l59.754-3.634A4.37 4.37 0 0 0-5.024 7.91Z" clip-path="url(#V)" style="fill:#fff;fill-opacity:1;fill-rule:nonzero;stroke:none" transform="matrix(1.33333 0 0 -1.33333 1328.274 1955.961)"></path><path d="M0 0c-9.941 30.732-50.026 78.14-59.701 89.31-1.336 1.55-1.763 3.635-1.068 5.559l29.289 86.37c7.696-17.744-11.118-74.024-15.874-87.653-.642-1.871-.214-3.902 1.069-5.452C-4.81 38.909 0 0 0 0" clip-path="url(#W)" style="fill:#fff;fill-opacity:1;fill-rule:nonzero;stroke:none" transform="matrix(1.33333 0 0 -1.33333 1592.303 1666.776)" data-source="https://football-logos.cc"></path><!-- source: https://football-logos.cc --></svg>