<svg xmlns="http://www.w3.org/2000/svg" id="Ebene_1" data-name="Ebene 1" viewBox="0.04 0 101.85 110.12"><!-- Source: https://football-logos.cc --><defs data-source="https://football-logos.cc"><linearGradient id="linear-gradient" x1="74.7" x2="74.7" y1="30.4" y2="52.52" gradientUnits="userSpaceOnUse"><stop offset="0" stop-color="#ffe500"></stop><stop offset="1" stop-color="#fab900"></stop></linearGradient><linearGradient id="linear-gradient-2" x1="74.67" x2="74.67" y1="57.9" y2="32.56" gradientUnits="userSpaceOnUse"><stop offset="0" stop-color="#ffe500"></stop><stop offset=".3" stop-color="#ffe100"></stop><stop offset=".61" stop-color="#fdd400"></stop><stop offset=".92" stop-color="#fbc000"></stop><stop offset="1" stop-color="#fab900"></stop></linearGradient><style>.cls-2{fill:#ffdc00}.cls-3{fill:#f8b700}.cls-101,.cls-102,.cls-103,.cls-104,.cls-105,.cls-11,.cls-12,.cls-17,.cls-18,.cls-19,.cls-20,.cls-29,.cls-30,.cls-31,.cls-32,.cls-35,.cls-36,.cls-37,.cls-44,.cls-45,.cls-46,.cls-49,.cls-50,.cls-55,.cls-56,.cls-59,.cls-64,.cls-65,.cls-66,.cls-67,.cls-68,.cls-69,.cls-70,.cls-71,.cls-72,.cls-73,.cls-74,.cls-75,.cls-78,.cls-79,.cls-80,.cls-81,.cls-82,.cls-85,.cls-86,.cls-87,.cls-88,.cls-89,.cls-90,.cls-91,.cls-92,.cls-93,.cls-94,.cls-95,.cls-96,.cls-97,.cls-98{fill:none}.cls-11{stroke:#ffdc00}.cls-101,.cls-102,.cls-103,.cls-104,.cls-105,.cls-11,.cls-12,.cls-17,.cls-18,.cls-19,.cls-20,.cls-29,.cls-30,.cls-31,.cls-32,.cls-35,.cls-36,.cls-37,.cls-44,.cls-45,.cls-46,.cls-49,.cls-50,.cls-55,.cls-56,.cls-59,.cls-64,.cls-65,.cls-66,.cls-67,.cls-68,.cls-69,.cls-70,.cls-71,.cls-72,.cls-73,.cls-74,.cls-75,.cls-78,.cls-79,.cls-80,.cls-81,.cls-82,.cls-85,.cls-86,.cls-87,.cls-88,.cls-89,.cls-90,.cls-91,.cls-92,.cls-93,.cls-94,.cls-95,.cls-96,.cls-97,.cls-98{stroke-width:.3px}.cls-12{stroke:#ffdb00}.cls-17{stroke:#fed800}.cls-18{stroke:#fed700}.cls-19{stroke:#fed600}.cls-20{stroke:#fed500}.cls-29{stroke:#fdd000}.cls-30{stroke:#fdcf00}.cls-31{stroke:#fdce00}.cls-32{stroke:#fccd00}.cls-35{stroke:#fccb00}.cls-36{stroke:#fcca00}.cls-37{stroke:#fcc900}.cls-44{stroke:#fbc500}.cls-45{stroke:#fbc400}.cls-46{stroke:#fbc300}.cls-49{stroke:#fac100}.cls-50{stroke:#fac000}.cls-55{stroke:#fabd00}.cls-56{stroke:#f9bc00}.cls-59{stroke:#f9ba00}.cls-64{stroke:#f9b700}.cls-65{stroke:#f8b600}.cls-66{stroke:#f8b500}.cls-67{stroke:#f8b400}.cls-68{stroke:#f8b300}.cls-69{stroke:#f8b200}.cls-70{stroke:#f8b100}.cls-71{stroke:#f7b000}.cls-72{stroke:#f7af00}.cls-73{stroke:#f7ae00}.cls-74{stroke:#f7ad00}.cls-75{stroke:#f7ac00}.cls-78{stroke:#f6aa00}.cls-79{stroke:#f6a900}.cls-80{stroke:#f6a800}.cls-81{stroke:#f6a700}.cls-82{stroke:#f6a600}.cls-85{stroke:#f5a400}.cls-86{stroke:#f5a300}.cls-87{stroke:#f5a200}.cls-88{stroke:#f5a100}.cls-89{stroke:#f5a000}.cls-90{stroke:#f49f00}.cls-91{stroke:#f49e00}.cls-92{stroke:#f49d00}.cls-93{stroke:#f49c00}.cls-94{stroke:#f49b00}.cls-95{stroke:#f49a00}.cls-96{stroke:#f39900}.cls-97{stroke:#f39800}.cls-98{stroke:#f39700}.cls-101{stroke:#f39500}.cls-102{stroke:#f39400}.cls-103{stroke:#f29300}.cls-104{stroke:#f29200}.cls-105{stroke:#f29100}</style></defs><path d="M99.54 6.21 98.28 0l-.89.39-4.91 2.16C81.39 7.43 71 8.43 58.91 8.43c-13.08 0-23.14-1.81-33.63-6L19.73.16 18.39 6a101 101 0 0 0-1.89 13.05l-.18 1.8v.09c-.1 1.32-.15 2.91-.15 4.72 0 9.16 1.29 23.9 3.37 31.76 5.66 22.09 18.71 40.25 36.74 51.12l2.6 1.58 2.63-1.55c14.32-8.44 26.08-22.81 33.12-40.48 7.56-18.97 9.26-40.37 4.91-61.88M93.9 67.8c-7 17.51-18.62 31.74-32.79 40.09l-2.22 1.31-2.21-1.33C38.83 97.1 25.91 79.11 20.3 57.22 18.26 49.52 17 35 17 25.66c0-1.76.05-3.34.14-4.66v-.07l.18-1.81a100 100 0 0 1 1.87-13l1.11-4.89L25 3.12c10.6 4.28 20.74 6.1 33.93 6.1 12.23 0 22.68-1 33.89-6l4.9-2.15 1.07 5.25c4.3 21.4 2.61 42.68-4.89 61.48"></path><path d="M83.08 83.75A90.8 90.8 0 0 0 94.5 59.63a104 104 0 0 0 4.44-29.34 115.6 115.6 0 0 0-2.8-26v-.14l-1.61 3.08c8.81 43.5-9.31 81.45-35.62 96.94v2.49c12.25-6.87 20.33-17.06 24.17-22.91" class="cls-2"></path><path d="M92.8 3.27c-11.21 4.94-21.66 6-33.89 6C45.72 9.22 35.58 7.4 25 3.12l-4.7-1.89-1.14 4.93a100 100 0 0 0-1.87 13l-.18 1.81V21C17 22.32 17 23.9 17 25.66c0 9.38 1.3 23.86 3.34 31.56 5.61 21.89 18.53 39.88 36.38 50.65l2.21 1.33v-2.54l-.42-.23A75 75 0 0 1 34 83a86.7 86.7 0 0 1-10.67-22.9c-2.86-9.18-4.21-23.81-4.21-33.64a97 97 0 0 1 2.7-22.24 93.3 93.3 0 0 0 16.8 5.33 100 100 0 0 0 20.28 1.88 107.6 107.6 0 0 0 20.74-1.7 76.5 76.5 0 0 0 16.47-5.55l1.59-3.06Z" class="cls-2"></path><path d="M96.14 4.32a115.6 115.6 0 0 1 2.8 26 104 104 0 0 1-4.44 29.31 90.8 90.8 0 0 1-11.42 24.12c-3.84 5.85-11.92 16-24.18 22.91v2.54l2.22-1.31c14.16-8.35 25.8-22.58 32.78-40.09 7.5-18.83 9.19-40.08 4.87-61.43L97.7 1.12l-1.59 3.06Z" class="cls-3"></path><path d="M79.65 9.69a107.6 107.6 0 0 1-20.74 1.7 100 100 0 0 1-20.28-1.88 92.8 92.8 0 0 1-16.8-5.33 97 97 0 0 0-2.7 22.24c0 9.83 1.35 24.46 4.21 33.64A86.7 86.7 0 0 0 34 83a75 75 0 0 0 24.53 23.45l.42.23v-2.49C42.8 94.46 30.08 78 24.48 56.13c-2.26-8.51-3.66-26.72-3.07-34.82a111 111 0 0 1 2-14.18c12.07 4.87 23 6.41 35.54 6.41s23.7-1.07 35.62-6.31l1.58-3.05a76 76 0 0 1-16.5 5.51" class="cls-3"></path><path d="M58.91 13.54c-12.52 0-23.47-1.54-35.54-6.41a111 111 0 0 0-2 14.18c-.59 8.1.81 26.31 3.07 34.82 5.6 21.88 18.32 38.33 34.43 48Z" style="fill:#f00028"></path><path d="M58.91 104.17c26.31-15.49 44.43-53.44 35.62-96.94-11.92 5.24-23.09 6.31-35.62 6.31Z" style="fill:#0a0adc"></path><path d="M58.91 24.41h16.72v-6.94H58.91Zm0 70.52q2 1.35 4.16 2.61l2.24 1.32v-8.15l-.75-.42-1.36-.8 1.25-.59c17.22-8.16 21.67-17.08 22.37-23.13a17 17 0 0 0 .11-1.85 16.2 16.2 0 0 0-5.05-11.68c3.78-4.12 5.18-8.35 5.18-11.92a12.4 12.4 0 0 0-.85-4.59 10.48 10.48 0 0 0-9.91-6.63h-14v9.44h-3.39v6.93h3.42v43.47c-1.14-.72-2.28-1.5-3.41-2.33ZM75.79 36a3.92 3.92 0 0 1 4.1 3.27 5.4 5.4 0 0 1 .11 1.16c0 3.69-3.22 8.65-10.71 12.37v-7.33h5.76v-6.93h-5.76V36Zm.53 21a9.55 9.55 0 0 1 3.49 7 8 8 0 0 1 0 .85c-.45 4.45-4.4 9.31-10.48 13v-17c1.73-.85 4.67-2.42 6.99-3.8Z" style="fill:#0709b0"></path><path d="M58.91 17.47H48.76v21.08c-3.25.06-8.41.55-12.16 4.3-2.89 2.89-4.36 7.18-4.36 12.74 0 7.34 3 15.23 8.75 22.8a74 74 0 0 0 17.92 16.54v-8.32C48.39 78.89 39.15 67 39.15 55.66c0-3.5.86-6.12 2.54-7.8 2.07-2 5.06-2.36 7.07-2.4v30.75h6.93V45.47h3.19v-6.93h-3.19V24.41h3.2Z" style="fill:#c00020"></path><path d="M52.22 20.94h19.94l2.17-2.16H50.06v56.13l2.16-2.17Z" class="cls-2"></path><path d="M64 91.47h-.09a61.4 61.4 0 0 1-18.24-15.93c-5.12-6.74-7.82-13.62-7.82-19.88 0-3.86 1-6.8 2.93-8.72 2.87-2.85 7.06-2.81 9.07-2.79h.21L52.23 42H49.6c-3.56 0-7.34.5-10.32 3.23-2.18 2-3.63 5.66-3.59 10.39.07 6.66 2.91 14 8 20.76a68.7 68.7 0 0 0 17.94 16.2l.33.19ZM61.97 92.78l2.04 3.8v-5.11z" class="cls-3"></path><path d="M50.06 39.84c-2.81 0-8.62 0-12.54 3.93-2.64 2.64-4 6.61-4 11.82 0 7.06 2.94 14.67 8.49 22a74.9 74.9 0 0 0 21.7 18.81l.28.17-2-3.81-.33-.19A68.7 68.7 0 0 1 43.7 76.38c-5.1-6.76-7.94-14.1-8-20.76 0-4.73 1.41-8.41 3.59-10.39C42.26 42.5 46 42 49.6 42h2.63Z" class="cls-2"></path><path d="M52.23 42.01 71.58 42l2.17-2.16H50.06" class="cls-2"></path><path d="M52.23 42v30.74l-2.17 2.16h4.33V44.16h19.36v-4.32L71.59 42ZM54.39 39.84V23.1h19.94v-4.32l-2.17 2.16H52.23V42Z" class="cls-3"></path><path d="M76.07 32.56h.33a7.36 7.36 0 0 1 7.13 7.61c0 4.67-3.15 9.32-6.9 12.34-3.1 2.49-8.25 4.92-10.82 5.38L68 60.15c1.75-.88 5.85-3.07 8.49-4.71L80 52.3c4.23-4.14 5.76-8.44 5.76-12a10.9 10.9 0 0 0-.76-4.1 9.2 9.2 0 0 0-8.7-5.82H63.63l2.19 2.16Z" class="cls-3"></path><path d="m65.82 42-.01 42.05 2.18-3.79V42zM67.99 39.84V34.7l-2.17-2.14V42z" class="cls-3"></path><path d="M83.35 63.84c0 3.78-1.43 7.84-6.07 12.44a46.7 46.7 0 0 1-11.47 7.77l-2.18 3.8.26-.13c16.68-7.9 21-16.38 21.64-22.1a14 14 0 0 0 .1-1.7A15 15 0 0 0 80 52.3l-3.43.21s6.78 4.35 6.78 11.33" class="cls-3"></path><path d="M80 52.3c4.23-4.14 5.76-8.44 5.76-12a10.9 10.9 0 0 0-.76-4.1 9.2 9.2 0 0 0-8.7-5.82H63.63l2.19 2.16H76.4a7.36 7.36 0 0 1 7.13 7.61c0 4.67-3.15 9.32-6.9 12.34" style="fill:url(#linear-gradient)"></path><path d="M76.57 52.57c-3.1 2.47-8.2 4.87-10.76 5.33L68 60.15c1.75-.88 5.85-3.07 8.49-4.71Z" class="cls-3"></path><path d="M83.35 63.84c0 3.78-1.43 7.84-6.07 12.44a46.7 46.7 0 0 1-11.47 7.77l-2.18 3.8.26-.13c16.68-7.9 21-16.38 21.64-22.1a14 14 0 0 0 .1-1.7A15 15 0 0 0 80 52.3l-3.43.21s6.78 4.35 6.78 11.33" class="cls-3"></path><path d="M77.28 76.28c4.64-4.6 6.07-8.66 6.07-12.44 0-7-6.78-11.33-6.78-11.33l-.11 2.93c3.09 2.55 4.65 5.46 4.65 8.64a8 8 0 0 1 0 1C80.53 70.41 75.53 76.2 68 80.26l-2.18 3.79a46.7 46.7 0 0 0 11.46-7.77" class="cls-2"></path><path d="M83.53 40.18a7.36 7.36 0 0 0-7.13-7.61H65.82L68 34.7h7.8a5.21 5.21 0 0 1 5.37 4.3 7.7 7.7 0 0 1 .14 1.45c0 4.53-4 10.35-13.32 14.37l-2.18 3.08c2.57-.46 7.72-2.89 10.82-5.38 3.75-3.02 6.9-7.67 6.9-12.34" style="fill:url(#linear-gradient-2)"></path><path d="M63.63 44.17v43.68l2.18-3.8V42ZM65.82 42v-9.44l-2.19-2.16V42Z" class="cls-2"></path><path d="M34.27 41.27a19.37 19.37 0 0 0-5.16-10.53l-2.22-2.28A18.2 18.2 0 0 0 21.28 25c-.07 9.06 1.24 23.71 3.2 31.09.08.33.17.65.26 1a15.51 15.51 0 0 0 9.61-14.32c0-.48 0-1-.07-1.43a.3.3 0 0 0-.01-.07" style="fill:#a81e1c"></path><path d="M19.13 28a15 15 0 0 0-2.14.16c.2 9.3 1.44 22 3.31 29.08.08.29.16.57.23.86a15 15 0 0 0 2.13-.34c-2.27-8.71-3.41-20.85-3.53-29.76" class="cls-3"></path><path d="M22.66 57.74a15 15 0 0 0 2.07-.66c-.08-.32-.17-.63-.25-.95-1.75-6.58-3-19-3.18-28a15 15 0 0 0-2.14-.13c.09 8.91 1.23 21.05 3.5 29.74" style="fill:#f29100"></path><path d="M15.48 54.47A15.09 15.09 0 1 0 .39 39.39a15.08 15.08 0 0 0 15.09 15.08" class="cls-2"></path><path d="M22.08 25.82c1.53 2.36 1.68 3.74 1.68 6.77A15.08 15.08 0 0 1 8.68 47.67c-3 0-4.83-1.11-7.19-2.64" class="cls-11"></path><path d="M1.49 45.05c2.37 1.55 4.19 2.66 7.23 2.66A15.08 15.08 0 0 0 23.8 32.63c0-3-.16-4.44-1.71-6.8" class="cls-11"></path><path d="M1.5 45.06c2.37 1.57 4.21 2.7 7.27 2.7a15.08 15.08 0 0 0 15.08-15.08c0-3.06-.18-4.48-1.75-6.85" class="cls-12"></path><path d="M1.51 45.08c2.37 1.58 4.23 2.72 7.3 2.72a15.08 15.08 0 0 0 15.08-15.08c0-3.07-.19-4.51-1.78-6.88" class="cls-12"></path><path d="M1.52 45.1c2.37 1.6 4.25 2.75 7.34 2.75a15.08 15.08 0 0 0 15.08-15.08c0-3.09-.22-4.55-1.82-6.92" style="fill:none;stroke:#ffda00;stroke-width:.3px"></path><path d="M1.53 45.11c2.37 1.62 4.27 2.78 7.37 2.78A15.08 15.08 0 0 0 24 32.81c0-3.1-.23-4.59-1.85-7" style="fill:none;stroke-width:.3px;stroke:#ffda00"></path><path d="M1.54 45.13c2.37 1.64 4.29 2.81 7.46 2.81a15.08 15.08 0 0 0 15-15.08c0-3.12-.25-4.63-1.89-7" style="fill:none;stroke-width:.3px;stroke:#fed900"></path><path d="M1.55 45.15C3.92 46.8 5.86 48 9 48a15.09 15.09 0 0 0 15.08-15.1c0-3.13-.27-4.66-1.92-7" style="fill:none;stroke-width:.3px;stroke:#fed900"></path><path d="M1.56 45.17C3.93 46.83 5.89 48 9 48a15.08 15.08 0 0 0 15.12-15c0-3.15-.29-4.7-1.95-7.08" class="cls-17"></path><path d="M1.57 45.18c2.37 1.69 4.35 2.9 7.51 2.9A15.1 15.1 0 0 0 24.17 33c0-3.16-.31-4.73-2-7.11" class="cls-17"></path><path d="M1.57 45.2C4 46.9 6 48.12 9.13 48.12A15.08 15.08 0 0 0 24.21 33c0-3.18-.32-4.78-2-7.16" class="cls-18"></path><path d="M1.58 45.22c2.39 1.72 4.4 3 7.59 3a15.1 15.1 0 0 0 15.09-15.14c0-3.19-.34-4.81-2.06-7.19" class="cls-18"></path><path d="M1.59 45.23C4 47 6 48.21 9.22 48.21A15.08 15.08 0 0 0 24.3 33.13c0-3.21-.35-4.85-2.09-7.24" class="cls-19"></path><path d="M1.6 45.25C4 47 6 48.26 9.26 48.26a15.1 15.1 0 0 0 15.09-15.09c0-3.22-.38-4.88-2.13-7.27" class="cls-19"></path><path d="M1.61 45.27c2.39 1.77 4.46 3 7.7 3a15.08 15.08 0 0 0 15.08-15.05c0-3.24-.39-4.92-2.16-7.31" class="cls-20"></path><path d="M1.62 45.28C4 47.07 6.1 48.35 9.35 48.35a15.1 15.1 0 0 0 15.09-15.09c0-3.25-.41-4.95-2.2-7.35" class="cls-20"></path><path d="M1.63 45.3c2.37 1.81 4.5 3.09 7.77 3.09a15.08 15.08 0 0 0 15.08-15.08c0-3.27-.42-5-2.23-7.39" style="fill:none;stroke-width:.3px;stroke:#fed400"></path><path d="M1.64 45.32c2.39 1.82 4.52 3.12 7.8 3.12a15.1 15.1 0 0 0 15.09-15.09c0-3.28-.44-5-2.27-7.43" style="fill:none;stroke-width:.3px;stroke:#fed400"></path><path d="M1.64 45.33c2.4 1.85 4.55 3.15 7.85 3.15A15.08 15.08 0 0 0 24.57 33.4c0-3.3-.46-5.07-2.3-7.47" style="fill:none;stroke-width:.3px;stroke:#fdd300"></path><path d="M1.65 45.35c2.4 1.86 4.57 3.18 7.88 3.18a15.1 15.1 0 0 0 15.09-15.09c0-3.31-.48-5.1-2.34-7.5" style="fill:none;stroke:#fdd300;stroke-width:.3px"></path><path d="M1.66 45.37c2.41 1.88 4.59 3.2 7.92 3.2a15.08 15.08 0 0 0 15.08-15.08c0-3.33-.49-5.14-2.37-7.55" style="fill:none;stroke-width:.3px;stroke:#fdd200"></path><path d="M1.67 45.39c2.41 1.89 4.61 3.23 8 3.23a15.1 15.1 0 0 0 15.04-15.09c0-3.34-.51-5.18-2.41-7.58" style="fill:none;stroke-width:.3px;stroke:#fdd200"></path><path d="M1.68 45.4c2.41 1.91 4.63 3.26 8 3.26a15.08 15.08 0 0 0 15.07-15.08c0-3.36-.53-5.22-2.44-7.63" style="fill:none;stroke-width:.3px;stroke:#fdd100"></path><path d="M1.69 45.42c2.41 1.93 4.65 3.29 8 3.29A15.1 15.1 0 0 0 24.8 33.62c0-3.37-.55-5.25-2.48-7.66" style="fill:none;stroke-width:.3px;stroke:#fdd100"></path><path d="M1.7 45.44c2.41 1.94 4.67 3.31 8.06 3.31a15.08 15.08 0 0 0 15.08-15.08c0-3.39-.56-5.29-2.51-7.7" class="cls-29"></path><path d="M1.71 45.45c2.41 2 4.69 3.35 8.09 3.35a15.1 15.1 0 0 0 15.09-15.09c0-3.4-.58-5.32-2.55-7.74" class="cls-29"></path><path d="M1.72 45.47c2.41 2 4.71 3.37 8.13 3.37a15.08 15.08 0 0 0 15.08-15.08c0-3.42-.59-5.36-2.57-7.78" class="cls-30"></path><path d="M1.72 45.49c2.42 2 4.74 3.4 8.17 3.4A15.1 15.1 0 0 0 25 33.8c0-3.43-.62-5.4-2.61-7.82" class="cls-30"></path><path d="M1.73 45.5c2.42 2 4.76 3.43 8.21 3.43A15.08 15.08 0 0 0 25 33.85c0-3.45-.63-5.44-2.64-7.86" class="cls-31"></path><path d="M1.74 45.52C4.16 47.55 6.52 49 10 49a15.1 15.1 0 0 0 15.07-15.11c0-3.46-.65-5.47-2.68-7.89" class="cls-31"></path><path d="M1.75 45.54C4.18 47.59 6.55 49 10 49a15.08 15.08 0 0 0 15.11-15.06c0-3.48-.66-5.51-2.71-7.94" class="cls-32"></path><path d="M1.76 45.55c2.43 2.07 4.82 3.52 8.31 3.52A15.1 15.1 0 0 0 25.16 34c0-3.49-.68-5.54-2.75-8" class="cls-32"></path><path d="M1.77 45.57c2.43 2.09 4.84 3.54 8.35 3.54A15.08 15.08 0 0 0 25.2 34c0-3.51-.7-5.59-2.78-8" style="fill:none;stroke-width:.3px;stroke:#fccc00"></path><path d="M1.78 45.59c2.43 2.1 4.86 3.57 8.38 3.57a15.1 15.1 0 0 0 15.09-15.09 10.78 10.78 0 0 0-2.82-8" style="fill:none;stroke-width:.3px;stroke:#fccc00"></path><path d="M1.79 45.61c2.43 2.11 4.88 3.59 8.42 3.59a15.08 15.08 0 0 0 15.08-15.08c0-3.54-.73-5.66-2.85-8.09" class="cls-35"></path><path d="M1.79 45.62c2.44 2.14 4.91 3.63 8.46 3.63a15.1 15.1 0 0 0 15.09-15.09A10.83 10.83 0 0 0 22.45 26" class="cls-35"></path><path d="M1.8 45.64c2.44 2.15 4.93 3.65 8.5 3.65a15.08 15.08 0 0 0 15.08-15.08A10.88 10.88 0 0 0 22.46 26" class="cls-36"></path><path d="M1.81 45.66c2.44 2.17 4.95 3.68 8.53 3.68a15.1 15.1 0 0 0 15.09-15.09 10.92 10.92 0 0 0-3-8.21" class="cls-36"></path><path d="M1.82 45.67c2.44 2.19 5 3.71 8.57 3.71A15.08 15.08 0 0 0 25.47 34.3a10.9 10.9 0 0 0-3-8.25" class="cls-37"></path><path d="M1.83 45.69c2.44 2.21 5 3.74 8.6 3.74a15.1 15.1 0 0 0 15.09-15.09 10.92 10.92 0 0 0-3-8.28" class="cls-37"></path><path d="M1.84 45.71c2.45 2.22 5 3.76 8.64 3.76a15.08 15.08 0 0 0 15.08-15.08 11 11 0 0 0-3.06-8.33" style="fill:none;stroke-width:.3px;stroke:#fcc800"></path><path d="M1.85 45.72c2.45 2.24 5 3.8 8.67 3.8a15.1 15.1 0 0 0 15.09-15.09 11 11 0 0 0-3.1-8.36" style="fill:none;stroke-width:.3px;stroke:#fbc800"></path><path d="M1.86 45.74c2.45 2.26 5.05 3.82 8.71 3.82a15.08 15.08 0 0 0 15.08-15.08 11 11 0 0 0-3.13-8.41" style="fill:none;stroke-width:.3px;stroke:#fbc700"></path><path d="M1.87 45.76c2.45 2.27 5.07 3.85 8.74 3.85A15.1 15.1 0 0 0 25.7 34.52a11 11 0 0 0-3.17-8.44" style="fill:none;stroke-width:.3px;stroke:#fbc700"></path><path d="M1.87 45.77c2.46 2.3 5.1 3.88 8.79 3.88a15.08 15.08 0 0 0 15.08-15.08 11.08 11.08 0 0 0-3.19-8.48" style="fill:none;stroke-width:.3px;stroke:#fbc600"></path><path d="M1.88 45.79C4.34 48.1 7 49.7 10.7 49.7a15.1 15.1 0 0 0 15.09-15.09 11.13 11.13 0 0 0-3.23-8.52" style="fill:none;stroke-width:.3px;stroke:#fbc600"></path><path d="M1.89 45.81c2.46 2.32 5.14 3.93 8.86 3.93a15.08 15.08 0 0 0 15.08-15.08 11.17 11.17 0 0 0-3.26-8.56" class="cls-44"></path><path d="M1.9 45.82c2.46 2.35 5.16 4 8.89 4A15.1 15.1 0 0 0 25.88 34.7a11.22 11.22 0 0 0-3.3-8.6" class="cls-44"></path><path d="M1.91 45.84c2.46 2.36 5.18 4 8.93 4a15.08 15.08 0 0 0 15.08-15.09 11.2 11.2 0 0 0-3.33-8.64" class="cls-45"></path><path d="M1.92 45.86c2.46 2.38 5.2 4 9 4A15.1 15.1 0 0 0 26 34.79a11.22 11.22 0 0 0-3.37-8.67" class="cls-45"></path><path d="M1.93 45.88c2.47 2.39 5.22 4 9 4A15.08 15.08 0 0 0 26 34.84a11.3 11.3 0 0 0-3.4-8.72" class="cls-46"></path><path d="M1.94 45.89C4.41 48.31 7.18 50 11 50a15.1 15.1 0 0 0 15.06-15.12 11.3 11.3 0 0 0-3.44-8.75" class="cls-46"></path><path d="M1.94 45.91C4.42 48.34 7.21 50 11 50a15.08 15.08 0 0 0 15.1-15.07 11.36 11.36 0 0 0-3.47-8.8" style="fill:none;stroke-width:.3px;stroke:#fbc200"></path><path d="M2 45.93c2.48 2.44 5.29 4.13 9.11 4.13A15.1 15.1 0 0 0 26.15 35a11.37 11.37 0 0 0-3.51-8.83" style="fill:none;stroke-width:.3px;stroke:#fac200"></path><path d="M2 45.94c2.48 2.47 5.31 4.16 9.15 4.16A15.08 15.08 0 0 0 26.19 35a11.37 11.37 0 0 0-3.54-8.87" class="cls-49"></path><path d="M2 46c2.48 2.48 5.33 4.19 9.18 4.19a15.1 15.1 0 0 0 15.06-15.13 11.45 11.45 0 0 0-3.58-8.91" class="cls-49"></path><path d="M2 46c2.48 2.5 5.35 4.21 9.22 4.21a15.08 15.08 0 0 0 15.06-15.1 11.46 11.46 0 0 0-3.61-8.95" class="cls-50"></path><path d="M2 46c2.48 2.52 5.37 4.25 9.25 4.25a15.1 15.1 0 0 0 15.08-15.1 11.51 11.51 0 0 0-3.65-9" class="cls-50"></path><path d="M2 46a12.55 12.55 0 0 0 9.29 4.27A15.08 15.08 0 0 0 26.37 35.2a11.52 11.52 0 0 0-3.68-9" style="fill:none;stroke-width:.3px;stroke:#fabf00"></path><path d="M2 46a12.6 12.6 0 0 0 9.32 4.3 15.1 15.1 0 0 0 15.1-15.06 11.52 11.52 0 0 0-3.72-9.06" style="fill:none;stroke-width:.3px;stroke:#fabf00"></path><path d="M2 46a12.62 12.62 0 0 0 9.36 4.33 15.08 15.08 0 0 0 15.1-15.04 11.6 11.6 0 0 0-3.75-9.11" style="fill:none;stroke-width:.3px;stroke:#fabe00"></path><path d="M2 46.06a12.67 12.67 0 0 0 9.41 4.36 15.09 15.09 0 0 0 15.1-15.09 11.62 11.62 0 0 0-3.79-9.14" style="fill:none;stroke-width:.3px;stroke:#fabe00"></path><path d="M2 46.08a12.7 12.7 0 0 0 9.44 4.38 15.08 15.08 0 0 0 15.11-15.08 11.66 11.66 0 0 0-3.82-9.19" class="cls-55" data-source="https://football-logos.cc"></path><path d="M2 46.1a12.7 12.7 0 0 0 9.48 4.41A15.09 15.09 0 0 0 26.6 35.42a11.7 11.7 0 0 0-3.85-9.22" class="cls-55"></path><path d="M2.05 46.11a12.7 12.7 0 0 0 9.51 4.44 15.08 15.08 0 0 0 15.08-15.08 11.75 11.75 0 0 0-3.88-9.26" class="cls-56"></path><path d="M2.06 46.13a12.76 12.76 0 0 0 9.55 4.47 15.09 15.09 0 0 0 15.08-15.09 11.79 11.79 0 0 0-3.92-9.3" class="cls-56"></path><path d="M2.07 46.15a12.75 12.75 0 0 0 9.58 4.49 15.08 15.08 0 0 0 15.08-15.08 11.8 11.8 0 0 0-3.95-9.34" style="fill:none;stroke-width:.3px;stroke:#f9bb00"></path><path d="M2.08 46.16a12.77 12.77 0 0 0 9.62 4.53A15.09 15.09 0 0 0 26.78 35.6a11.85 11.85 0 0 0-4-9.38" style="fill:none;stroke-width:.3px;stroke:#f9bb00"></path><path d="M2.09 46.18a12.77 12.77 0 0 0 9.65 4.55 15.08 15.08 0 0 0 15.08-15.08 11.86 11.86 0 0 0-4-9.42" class="cls-59"></path><path d="M2.09 46.2a12.85 12.85 0 0 0 9.7 4.58 15.09 15.09 0 0 0 15.08-15.09 11.91 11.91 0 0 0-4.06-9.45" class="cls-59"></path><path d="M2.1 46.21a12.84 12.84 0 0 0 9.73 4.61 15.08 15.08 0 0 0 15.08-15.08 12 12 0 0 0-4.09-9.5" style="fill:none;stroke-width:.3px;stroke:#f9b900"></path><path d="M2.11 46.23a12.89 12.89 0 0 0 9.77 4.64A15.09 15.09 0 0 0 27 35.78a12 12 0 0 0-4.13-9.53" style="fill:none;stroke-width:.3px;stroke:#f9b900"></path><path d="M2.12 46.25a12.92 12.92 0 0 0 9.8 4.66A15.08 15.08 0 0 0 27 35.83a12 12 0 0 0-4.16-9.58" style="fill:none;stroke-width:.3px;stroke:#f9b800"></path><path d="M2.13 46.26A12.91 12.91 0 0 0 12 51a15.09 15.09 0 0 0 15.05-15.13 12 12 0 0 0-4.2-9.61" style="fill:none;stroke-width:.3px;stroke:#f9b800"></path><path d="M2.14 46.28A12.94 12.94 0 0 0 12 51a15.08 15.08 0 0 0 15.09-15.08 12.08 12.08 0 0 0-4.23-9.65" class="cls-64"></path><path d="M2.15 46.3a13 13 0 0 0 9.91 4.75A15.09 15.09 0 0 0 27.14 36a12.13 12.13 0 0 0-4.27-9.69" class="cls-64"></path><path d="M2.16 46.32a13 13 0 0 0 9.94 4.77A15.08 15.08 0 0 0 27.18 36a12.13 12.13 0 0 0-4.3-9.73" class="cls-65"></path><path d="M2.17 46.33a13 13 0 0 0 10 4.81 15.09 15.09 0 0 0 15.06-15.09 12.18 12.18 0 0 0-4.34-9.77" class="cls-65"></path><path d="M2.17 46.35a13 13 0 0 0 10 4.83 15.08 15.08 0 0 0 15.1-15.08 12.23 12.23 0 0 0-4.37-9.81" class="cls-66"></path><path d="M2.18 46.37a13.09 13.09 0 0 0 10.06 4.86 15.09 15.09 0 0 0 15.08-15.09 12.25 12.25 0 0 0-4.41-9.84" class="cls-66"></path><path d="M2.19 46.38a13.08 13.08 0 0 0 10.09 4.89 15.08 15.08 0 0 0 15.08-15.08 12.3 12.3 0 0 0-4.44-9.89" class="cls-67"></path><path d="M2.2 46.4a13.13 13.13 0 0 0 10.13 4.92 15.09 15.09 0 0 0 15.08-15.09 12.32 12.32 0 0 0-4.47-9.92" class="cls-67"></path><path d="M2.21 46.42a13.13 13.13 0 0 0 10.16 4.94 15.08 15.08 0 0 0 15.08-15.08 12.37 12.37 0 0 0-4.5-10" class="cls-68"></path><path d="M2.22 46.43a13.15 13.15 0 0 0 10.2 5A15.09 15.09 0 0 0 27.5 36.32a12.42 12.42 0 0 0-4.54-10" class="cls-68"></path><path d="M2.23 46.45a13.18 13.18 0 0 0 10.23 5 15.08 15.08 0 0 0 15.08-15.08 12.44 12.44 0 0 0-4.57-10" class="cls-69"></path><path d="M2.24 46.47a13.2 13.2 0 0 0 10.27 5 15.08 15.08 0 0 0 15.08-15.06A12.49 12.49 0 0 0 23 26.33" class="cls-69"></path><path d="M2.24 46.48a13.25 13.25 0 0 0 10.31 5.06 15.08 15.08 0 0 0 15.08-15.08A12.51 12.51 0 0 0 23 26.34" class="cls-70"></path><path d="M2.25 46.5a13.26 13.26 0 0 0 10.35 5.09A15.08 15.08 0 0 0 27.68 36.5 12.55 12.55 0 0 0 23 26.34" class="cls-70"></path><path d="M2.26 46.52a13.29 13.29 0 0 0 10.38 5.11 15.08 15.08 0 0 0 15.08-15.08A12.6 12.6 0 0 0 23 26.35" class="cls-71"></path><path d="M2.27 46.53a13.29 13.29 0 0 0 10.42 5.15 15.08 15.08 0 0 0 15.08-15.09A12.62 12.62 0 0 0 23 26.36" class="cls-71"></path><path d="M2.28 46.55a13.34 13.34 0 0 0 10.45 5.17 15.08 15.08 0 0 0 15.08-15.08A12.67 12.67 0 0 0 23 26.36" class="cls-72"></path><path d="M2.29 46.57a13.38 13.38 0 0 0 10.49 5.2 15.08 15.08 0 0 0 15.08-15.09A12.69 12.69 0 0 0 23 26.37" class="cls-72"></path><path d="M2.3 46.59a13.38 13.38 0 0 0 10.52 5.22A15.08 15.08 0 0 0 27.9 36.73a12.75 12.75 0 0 0-4.85-10.36" class="cls-73"></path><path d="M2.31 46.6a13.41 13.41 0 0 0 10.56 5.26A15.08 15.08 0 0 0 28 36.77a12.77 12.77 0 0 0-4.89-10.39" class="cls-73"></path><path d="M2.32 46.62a13.41 13.41 0 0 0 10.59 5.28A15.08 15.08 0 0 0 28 36.82a12.79 12.79 0 0 0-4.92-10.43" class="cls-74"></path><path d="M2.32 46.64A13.49 13.49 0 0 0 13 52a15.08 15.08 0 0 0 15-15.14 12.85 12.85 0 0 0-5-10.47" class="cls-74"></path><path d="M2.33 46.65A13.48 13.48 0 0 0 13 52a15.08 15.08 0 0 0 15.08-15.09 12.87 12.87 0 0 0-5-10.51" class="cls-75"></path><path d="M2.34 46.67A13.52 13.52 0 0 0 13.05 52a15.08 15.08 0 0 0 15.08-15 13 13 0 0 0-5-10.55" class="cls-75"></path><path d="M2.35 46.69a13.56 13.56 0 0 0 10.74 5.39A15.08 15.08 0 0 0 28.17 37a13 13 0 0 0-5.06-10.59" style="fill:none;stroke-width:.3px;stroke:#f7ab00"></path><path d="M2.36 46.7a13.55 13.55 0 0 0 10.78 5.43 15.08 15.08 0 0 0 15.08-15.08 13 13 0 0 0-5.1-10.63" style="fill:none;stroke-width:.3px;stroke:#f6ab00"></path><path d="M2.37 46.72a13.6 13.6 0 0 0 10.81 5.45 15.08 15.08 0 0 0 15.08-15.08 13 13 0 0 0-5.12-10.67" class="cls-78"></path><path d="M2.38 46.74a13.62 13.62 0 0 0 10.85 5.48 15.08 15.08 0 0 0 15.08-15.08 13.06 13.06 0 0 0-5.16-10.71" class="cls-78"></path><path d="M2.39 46.75a13.62 13.62 0 0 0 10.88 5.51 15.08 15.08 0 0 0 15.08-15.08 13.13 13.13 0 0 0-5.19-10.75" class="cls-79"></path><path d="M2.39 46.77a13.7 13.7 0 0 0 10.93 5.54A15.08 15.08 0 0 0 28.4 37.23a13.15 13.15 0 0 0-5.23-10.79" class="cls-79"></path><path d="M2.4 46.79a13.7 13.7 0 0 0 11 5.56 15.08 15.08 0 0 0 15.04-15.08 13.16 13.16 0 0 0-5.26-10.82" class="cls-80"></path><path d="M2.41 46.81a13.75 13.75 0 0 0 11 5.59 15.08 15.08 0 0 0 15.08-15.08 13.22 13.22 0 0 0-5.3-10.87" class="cls-80"></path><path d="M2.42 46.82a13.73 13.73 0 0 0 11 5.62 15.08 15.08 0 0 0 15.11-15.08 13.26 13.26 0 0 0-5.33-10.9" class="cls-81"></path><path d="M2.43 46.84a13.78 13.78 0 0 0 11.07 5.65 15.08 15.08 0 0 0 15.08-15.08 13.33 13.33 0 0 0-5.37-10.95" class="cls-81"></path><path d="M2.44 46.86a13.79 13.79 0 0 0 11.1 5.67 15.08 15.08 0 0 0 15.08-15.08 13.33 13.33 0 0 0-5.4-11" class="cls-82"></path><path d="M2.45 46.87a13.81 13.81 0 0 0 11.14 5.71A15.08 15.08 0 0 0 28.67 37.5a13.35 13.35 0 0 0-5.44-11" class="cls-82"></path><path d="M2.46 46.89a13.86 13.86 0 0 0 11.17 5.73 15.08 15.08 0 0 0 15.08-15.08 13.4 13.4 0 0 0-5.47-11.06" style="fill:none;stroke-width:.3px;stroke:#f6a500"></path><path d="M2.46 46.91a13.91 13.91 0 0 0 11.22 5.76 15.08 15.08 0 0 0 15.08-15.08 13.46 13.46 0 0 0-5.51-11.1" style="fill:none;stroke-width:.3px;stroke:#f5a500"></path><path d="M2.47 46.92a13.93 13.93 0 0 0 11.25 5.79A15.08 15.08 0 0 0 28.8 37.63a13.5 13.5 0 0 0-5.54-11.14" class="cls-85"></path><path d="M2.48 46.94a14 14 0 0 0 11.29 5.82 15.08 15.08 0 0 0 15.08-15.08 13.53 13.53 0 0 0-5.58-11.18" class="cls-85"></path><path d="M2.49 47a14 14 0 0 0 11.32 5.8 15.08 15.08 0 0 0 15.08-15.08 13.54 13.54 0 0 0-5.61-11.21" class="cls-86"></path><path d="M2.5 47a14 14 0 0 0 11.36 5.88 15.08 15.08 0 0 0 15.08-15.11 13.62 13.62 0 0 0-5.65-11.26" class="cls-86"></path><path d="M2.51 47a14 14 0 0 0 11.39 5.9A15.08 15.08 0 0 0 29 37.81a13.64 13.64 0 0 0-5.7-11.29" class="cls-87"></path><path d="M2.52 47A14.06 14.06 0 0 0 14 52.94a15.08 15.08 0 0 0 15-15.08 13.7 13.7 0 0 0-5.72-11.34" class="cls-87"></path><path d="M2.53 47A14.07 14.07 0 0 0 14 53a15.08 15.08 0 0 0 15.07-15.1 13.73 13.73 0 0 0-5.74-11.37" class="cls-88"></path><path d="M2.54 47A14.1 14.1 0 0 0 14 53a15.08 15.08 0 0 0 15.12-15 13.75 13.75 0 0 0-5.78-11.41" class="cls-88"></path><path d="M2.54 47.06a14.15 14.15 0 0 0 11.54 6A15.08 15.08 0 0 0 29.16 38a13.82 13.82 0 0 0-5.81-11.45" class="cls-89"></path><path d="M2.55 47.08a14.2 14.2 0 0 0 11.58 6A15.08 15.08 0 0 0 29.21 38a13.85 13.85 0 0 0-5.85-11.49" class="cls-89"></path><path d="M2.56 47.09a14.21 14.21 0 0 0 11.61 6.07 15.08 15.08 0 0 0 15.08-15.08 13.9 13.9 0 0 0-5.88-11.53" class="cls-90"></path><path d="M2.57 47.11a14.24 14.24 0 0 0 11.65 6.1A15.08 15.08 0 0 0 29.3 38.13a13.93 13.93 0 0 0-5.92-11.57" class="cls-90"></path><path d="M2.58 47.13a14.27 14.27 0 0 0 11.68 6.12 15.08 15.08 0 0 0 15.08-15.08 14 14 0 0 0-5.95-11.6" class="cls-91"></path><path d="M2.59 47.14a14.27 14.27 0 0 0 11.72 6.16 15.08 15.08 0 0 0 15.08-15.08 14 14 0 0 0-6-11.65" class="cls-91"></path><path d="M2.6 47.16a14.31 14.31 0 0 0 11.75 6.18 15.08 15.08 0 0 0 15.08-15.08 14 14 0 0 0-6-11.68" class="cls-92"></path><path d="M2.61 47.18a14.33 14.33 0 0 0 11.79 6.21 15.08 15.08 0 0 0 15.08-15.08 14.1 14.1 0 0 0-6.06-11.73" class="cls-92"></path><path d="M2.61 47.19a14.38 14.38 0 0 0 11.83 6.24 15.08 15.08 0 0 0 15.08-15.08 14.12 14.12 0 0 0-6.09-11.76" class="cls-93"></path><path d="M2.62 47.21a14.42 14.42 0 0 0 11.87 6.27A15.08 15.08 0 0 0 29.57 38.4a14.17 14.17 0 0 0-6.13-11.8" class="cls-93"></path><path d="M2.63 47.23a14.44 14.44 0 0 0 11.9 6.29 15.09 15.09 0 0 0 15.09-15.08 14.22 14.22 0 0 0-6.17-11.84" class="cls-94"></path><path d="M2.64 47.24a14.47 14.47 0 0 0 11.94 6.33 15.08 15.08 0 0 0 15.08-15.08 14.24 14.24 0 0 0-6.2-11.88" class="cls-94"></path><path d="M2.65 47.26a14.48 14.48 0 0 0 12 6.35 15.09 15.09 0 0 0 15.06-15.08 14.3 14.3 0 0 0-6.24-11.92" class="cls-95"></path><path d="M2.66 47.28a14.53 14.53 0 0 0 12 6.38 15.08 15.08 0 0 0 15.09-15.08 14.32 14.32 0 0 0-6.27-12" class="cls-95"></path><path d="M2.67 47.3a14.55 14.55 0 0 0 12 6.41A15.1 15.1 0 0 0 29.8 38.62a14.37 14.37 0 0 0-6.31-12" class="cls-96"></path><path d="M2.68 47.31a14.57 14.57 0 0 0 12.08 6.44 15.08 15.08 0 0 0 15.08-15.08 14.42 14.42 0 0 0-6.34-12" class="cls-96"></path><path d="M2.69 47.33A14.61 14.61 0 0 0 14.8 53.8a15.1 15.1 0 0 0 15.09-15.09 14.44 14.44 0 0 0-6.38-12.07" class="cls-97"></path><path d="M2.69 47.35a14.66 14.66 0 0 0 12.16 6.49 15.08 15.08 0 0 0 15.08-15.08 14.5 14.5 0 0 0-6.4-12.12" class="cls-97"></path><path d="M2.7 47.36a14.68 14.68 0 0 0 12.19 6.53A15.1 15.1 0 0 0 30 38.8a14.53 14.53 0 0 0-6.44-12.15" class="cls-98"></path><path d="M2.71 47.38a14.7 14.7 0 0 0 12.23 6.55A15.08 15.08 0 0 0 30 38.85a14.58 14.58 0 0 0-6.47-12.19" class="cls-98"></path><path d="M2.72 47.4A14.75 14.75 0 0 0 15 54a15.1 15.1 0 0 0 15.07-15.11 14.64 14.64 0 0 0-6.51-12.23" style="fill:none;stroke-width:.3px;stroke:#f39600"></path><path d="M2.73 47.41A14.77 14.77 0 0 0 15 54a15.08 15.08 0 0 0 15.11-15.06 14.64 14.64 0 0 0-6.54-12.27" style="fill:none;stroke-width:.3px;stroke:#f39600"></path><path d="M2.74 47.43a14.79 14.79 0 0 0 12.33 6.64A15.1 15.1 0 0 0 30.16 39a14.7 14.7 0 0 0-6.58-12.31" class="cls-101"></path><path d="M2.75 47.45a14.83 14.83 0 0 0 12.37 6.66A15.08 15.08 0 0 0 30.2 39a14.75 14.75 0 0 0-6.61-12.35" class="cls-101"></path><path d="M2.76 47.46a14.83 14.83 0 0 0 12.4 6.7 15.1 15.1 0 0 0 15.09-15.09 14.78 14.78 0 0 0-6.65-12.38" class="cls-102"></path><path d="M2.76 47.48a14.9 14.9 0 0 0 12.45 6.72 15.08 15.08 0 0 0 15.08-15.08 14.83 14.83 0 0 0-6.68-12.43" class="cls-102"></path><path d="M2.77 47.5a14.92 14.92 0 0 0 12.48 6.75 15.1 15.1 0 0 0 15.09-15.09 14.86 14.86 0 0 0-6.72-12.46" class="cls-103"></path><path d="M2.78 47.52a15 15 0 0 0 27.6-8.31 14.9 14.9 0 0 0-6.75-12.51" class="cls-103"></path><path d="M2.79 47.53a15 15 0 1 0 20.85-20.82" class="cls-104"></path><path d="M2.8 47.55a15.06 15.06 0 1 0 20.85-20.83" class="cls-104"></path><path d="M2.81 47.57a15.07 15.07 0 1 0 20.85-20.85" class="cls-105"></path><path d="M2.82 47.58a15.08 15.08 0 1 0 20.85-20.85" class="cls-105"></path><path d="M15.48 23.91A15.48 15.48 0 1 0 31 39.39a15.48 15.48 0 0 0-15.52-15.48m11.93 6.93A14.5 14.5 0 0 1 29.77 36a4 4 0 0 0-1.95-.83 5 5 0 0 0-5.14 2.69A5.32 5.32 0 0 0 19 36.62 5.57 5.57 0 0 0 15.32 39 4.84 4.84 0 0 1 12 37.3a4.76 4.76 0 0 1-.58-3.64c3.33-4.47 9.15-5.5 16-2.82Zm-20.5-3.37a14.65 14.65 0 0 1 19.57 2.2c-6.65-2.23-12.3-1-15.66 3.45a4.3 4.3 0 0 1-4.42-2.61 2.69 2.69 0 0 1 .51-3.04m-1.5 1.23a4.1 4.1 0 0 0 .26 2.1 5 5 0 0 0 4.89 3.11 5.3 5.3 0 0 0 .78 3.86 5.56 5.56 0 0 0 3.84 2 4.87 4.87 0 0 1 .23 3.72 4.77 4.77 0 0 1-2.86 2.32C7 45.14 3.21 40.61 2.11 33.34a14.6 14.6 0 0 1 3.3-4.64m4 24.06A14.68 14.68 0 0 1 1.56 34.7C3 41.59 6.83 45.87 12.38 46.56a4.29 4.29 0 0 1-.05 5.12 2.69 2.69 0 0 1-2.92 1.08M16.9 54c-.47 0-.94.07-1.42.07a14.4 14.4 0 0 1-4.23-.63A4 4 0 0 0 13 52.17a5 5 0 0 0 .23-5.8 5.3 5.3 0 0 0 3-2.59 5.62 5.62 0 0 0-.21-4.32A4.86 4.86 0 0 1 19 37.4a4.77 4.77 0 0 1 3.44 1.32c2.21 5.12.19 10.68-5.56 15.27Zm1.48-.22c5.27-4.64 7-10.16 4.86-15.3A4.29 4.29 0 0 1 27.7 36a2.7 2.7 0 0 1 2.4 2c0 .47.07.94.07 1.42a14.72 14.72 0 0 1-11.79 14.37Z" data-source="https://football-logos.cc"></path><!-- source: https://football-logos.cc --></svg>