<svg xmlns="http://www.w3.org/2000/svg" xml:space="preserve" id="Layer_1" x="0" y="0" version="1.1" viewBox="-0.01 -0.11 189.22 288.12"><!-- Source: https://football-logos.cc --><style data-source="https://football-logos.cc">.st0{fill:#0089c5}.st1{fill:#fff}</style><path d="M178.8 19.4V0h-18.3v14h-19.4V0h-18.3v14h-19.4V0H85.2v14H65.8V0H47.6v14H28.2V0H9.9v19.4C9.4 76.2 16 129.7 50.1 171.5c12.6 14.8 27.5 27.3 44.3 33 16.8-5.7 31.7-18.2 44.3-33 34-41.8 40.6-95.3 40.1-152.1" class="st0"></path><path d="M66.4 57.3v125.1c8.6 7.5 17.7 14.1 28 17.6 10.2-3.5 19.3-10.1 28-17.6V57.3zM164.8 4.3v14h-28v-14h-9.7v14h-28v-14h-9.7v14h-28v-14h-9.7v14H23.9v-14h-9.7v48.6h160.2V4.3z" class="st1" data-source="https://football-logos.cc"></path><path d="M123.3 48.6V22.7h20v4h-14.6v5.9h12.7v3.9h-12.7v12.1zM82.8 38.5c1.8 0 3.3-1.5 3.3-3.3s-1.5-3.3-3.3-3.3-3.3 1.5-3.3 3.3 1.5 3.3 3.3 3.3M115.7 38.7c1.8 0 3.3-1.5 3.3-3.3s-1.5-3.3-3.3-3.3-3.3 1.5-3.3 3.3 1.5 3.3 3.3 3.3M60.5 48.6H63l8.3-20.1v20.1h4.6V22.7h-7.5l-7.8 18-7.8-18h-7.5v25.9h4.6v-20l8.4 20zM89.9 48.6V22.7H110v4H95.4v5.9h12.7v3.9H95.4v12.1zM109.4 264.2l-9.2-.2-5.8-6.9-5.8 6.9-9.2.2 3.9 8.3-3.9 8.3 9.2.2 5.8 6.9 5.8-6.9 9.2-.2-3.9-8.3zM40.7 203.8c.5.4 1 .8 1.6 1.1s1.2.5 1.8.7c-4.7 11.4-8.5 20.5-11.6 29.2-1.1-.7-2.1-1.4-3.2-2s-2.2-1-3.3-1.6c3.2-6.5 5.7-13 8.5-19.4-6.4 4.4-12.7 8.8-18.9 13.4-.5-.4-.9-.7-1.5-.8.5-6.9.8-14.8 1.2-22.7-4.8 6.5-8.4 11.6-11.6 17.1-.6-.4-1.1-.9-1.7-1.2-.6-.4-1.2-.5-1.9-.8 5.8-7.2 12.2-15.7 19.1-25 .5.4 1 .8 1.5 1.1.6.3 1.2.5 1.8.7-.6 7.8-.9 15.8-1.2 23.7 5.8-4 12.6-8.3 19.4-13.5M56.6 237.8c-.4 1.6-.1 2.3 1.7 2.7l-.3 1c-1.2.2-3 .5-4.2.1-2.1-.5-3.3-2.2-3.5-4.4-1.7 1.7-4.2 2.3-6.4 1.7-3.6-1-5.7-3.6-4.7-7.5 1.1-4.2 4-4.7 9.8-4.6 1.2 0 2.4.1 3.5-.3.7-.3.9-.9 1.1-1.5.6-2.1-1.1-4.4-3.1-5-2.8-.8-5.6.6-6.1 1.3l-.3-.1.1-2.8c2.6-1.4 6.1-1.5 8.9-.8 3.7 1 7.9 3.7 6.7 8.1zm-4-9.2c-1.2.2-3.3.1-4.8.7-1.4.6-2 1.9-2.4 3.3-.4 1.6-.4 3.6 1.5 4.2 2.7.7 3.9-1.7 4.6-3.9zM68.8 244.9c-1-.3-2-.6-3-.8s-2.1-.3-3.1-.4l6.6-33.8c1 .3 2 .6 3 .8s2.1.3 3.1.4zM78.7 224c1 .1 2.1.3 3.1.3s2.1-.1 3.1-.2l-.1 3.4c1.4-2.2 4.1-3.7 6.7-3.7 2.8.1 5 1.5 5.9 4.2 1.6-2.4 4-4.1 6.9-4 5.2.1 7 3.2 6.9 8.1l-.3 14.5c-1-.1-2.1-.3-3.1-.3s-2.1.1-3.1.2l.2-12.3c.1-3-.2-6.3-3.2-6.4-3.2-.1-3.8 2-3.8 4.8l-.2 13.8c-1-.1-2.1-.3-3.1-.3s-2.1.1-3.1.2l.2-12.3c.1-3-.2-6.3-3.2-6.4-3.1-.1-3.8 2.8-3.9 5.3l-.2 13.3c-1-.1-2.1-.3-3.1-.3s-2.1.1-3.1.2zM117.7 235.2c-1.1-7 2.2-12.4 9.1-13.5 6.7-1.1 11.6 2.4 12.7 9 1.1 6.8-2.2 12.4-9.2 13.5-6.7 1.2-11.6-2.3-12.6-9m6.5-1.1c.4 2.9 1.8 8.9 5.6 8.2 3.4-.6 3.5-6.3 2.8-11.2-.7-4.3-2.4-7.8-5.4-7.4-3.5.6-3.8 5.1-3 10.4m9.2-19.4c.2 1.6-.8 3.1-2.4 3.4s-3.2-.9-3.4-2.4c-.2-1.6.9-3.1 2.5-3.4 1.5-.3 3.1.9 3.3 2.4m-15.2 2.4c-.2-1.5.9-3.1 2.4-3.4 1.6-.2 3.1.8 3.4 2.5.3 1.6-.8 3.1-2.4 3.4-1.5.2-3.1-1-3.4-2.5M163.9 233.8c-1.1.4-2.1.8-3.2 1.2-1 .5-2 1.1-3 1.6l-13.1-28.2 15.6-7.3c.2.6.3 1.3.6 1.9s.7 1.1 1 1.7c-2.6.9-5.4 1.8-9.7 3.9l4.1 8.8 4.3-2c1.6-.7 3.2-1.7 4.8-2.7.2.6.4 1.3.6 1.9.3.6.7 1.1 1 1.7-1.8.6-3.5 1.2-5.2 2l-4.3 2zM186.5 222.9c-1 .4-2.1.8-3.1 1.3s-2 1.1-2.9 1.7l-14.1-27.7 15.3-7.8c.2.6.4 1.3.7 1.8.3.6.7 1.1 1.1 1.6-2.6 1-5.4 2-9.6 4.2l4.4 8.7 4.3-2.2c1.6-.8 3.1-1.8 4.7-2.9.2.6.4 1.3.7 1.8.3.6.7 1.1 1.1 1.6-1.8.7-3.5 1.3-5.1 2.1l-4.2 2.2z" class="st0" data-source="https://football-logos.cc"></path><!-- source: https://football-logos.cc --></svg>