<svg xmlns="http://www.w3.org/2000/svg" xml:space="preserve" viewBox="0.9 0.9 228 228"><!-- Source: https://football-logos.cc --><style data-source="https://football-logos.cc">.st3{fill:#ffd100}.st4,.st5{stroke:#000}.st4{stroke-width:1.1967;stroke-linecap:square}.st5{stroke-width:.5984}</style><g id="Ebene_1" data-source="https://football-logos.cc"><circle cx="114.9" cy="114.9" r="113.4" style="fill:#ffd100;stroke:#000;stroke-width:1.1967"></circle><circle cx="114.9" cy="114.9" r="85.6"></circle><path d="M178.4 152.8c13.8-8.2 13.1-23.2 11-29.9-2.8-8.6-6.6-12.2-14.6-17.4-5.9-3.9-13.1-5.5-15-5.7l-1.4-.2c1 .1-34.3 0-34.3 0l17-12.9h12.3V75.1l-11.5-7.9H108V75l3.7 3.7L91.2 94l-7.4-7.4h4v-7.4l-11.5-12H20.9l.1 8.1c2.6 2.3 11 11.3 11 11.3h7.6l25 22.9V131h-9.4v8.6l12.2 12.2 36.7.1.1 29.9-9.1-.1v8l12.2 12.9h59.6c.2 0 1.2-.1 1.4-.1 25.1-6.4 23.8-27.7 21.8-35.1-2.2-7.8-11.7-14.6-11.7-14.6zm-29 26.5c0 2.5-1.2 2.1-1.4 2.3s-1.5 0-2 0-.7-.7-.7-.7v-19.7c0-.6.2-1 .8-1h2.3c.8 0 .6.6 1 1s0 15.6 0 18.1zm0-41c0 2.5-1.2 2.1-1.4 2.3s-1.5 0-2 0-.7-.7-.7-.7v-19.7c0-.6.2-1 .8-1h2.3c.8 0 .6.6 1 1s0 15.7 0 18.1z" style="stroke:#fff;stroke-width:1.1967"></path><path d="M22.5 68.5h53.6l-.2 5.6h-8.3l23.7 21.8 29.4-21.8h-10.8v-5.6h31.4v5.6h-10.1l-37.7 27.5v31.1h6.4v5.4H56.3v-5.7h10.2v-24.9L29.6 74.1h-7.1z" class="st3"></path><path d="M179.2 122.7c-.8-9.6-5.6-17.4-19.2-21-.8-.2-3.3-.4-3.3-.4H98.8v6.2h6.7V183h-9.4l.1 6.2h61.6c.4-.1 2.3-.2 2.6-.3 13-3.6 20-12.7 19.6-24.2 0-13.6-12.4-18.7-12.4-19.2 10.4-6.6 12.1-15.9 11.6-22.8m-28.1 56.5s-.1 3.4-3 3.4h-15.3v-34.3h15.5s2.8 1.1 2.8 4.1zm0-41s-.1 3.4-3 3.4h-15.3v-34.3h15.5s2.8 1.1 2.8 4.1z" class="st3"></path><path d="m35.7 61.4-8.4-7.1 4-4.7c.8-1 1.5-1.7 2.2-2.1s1.3-.7 1.9-.7 1.1.1 1.5.4.6.7.6 1.3c.1.6 0 1.2-.4 2 .8-.6 1.5-1 2.2-1.1s1.3.1 1.8.5c.4.3.7.8.8 1.3s.1 1.1 0 1.6-.4 1.1-.8 1.7-.9 1.3-1.6 2.1zm-3.4-5.8 2.3-2.7c.6-.7 1-1.3 1.2-1.7.3-.5.4-.9.4-1.3s-.2-.7-.5-.9-.6-.3-1-.3-.8.2-1.2.5-1 .9-1.7 1.8l-2.1 2.5zm3.8 3.3 2.6-3.1q.75-.75.9-1.2c.3-.4.5-.8.6-1.1s.1-.7.1-1c-.1-.3-.2-.6-.5-.8-.3-.3-.7-.4-1.1-.3-.4 0-.9.2-1.3.6-.5.3-1 .9-1.7 1.7l-2.5 2.9zM42.8 47.9l1.5-1.4c.4.3.9.5 1.4.6.5 0 1.1-.1 1.8-.4s1.4-.8 2.1-1.4c.6-.5 1.1-1.1 1.5-1.6s.6-1 .6-1.4 0-.8-.3-1c-.2-.3-.5-.4-.9-.4s-.9.2-1.5.5c-.4.2-1.3.7-2.6 1.5s-2.2 1.3-2.8 1.6c-.8.3-1.4.4-2 .4-.6-.1-1-.3-1.3-.7-.4-.4-.5-1-.5-1.6 0-.7.3-1.4.8-2.2s1.2-1.5 2-2.3q1.35-1.2 2.7-1.8c.9-.4 1.7-.6 2.4-.5s1.3.3 1.7.8L48 37.8c-.5-.4-1.2-.6-1.9-.4s-1.6.6-2.5 1.5c-1 .9-1.6 1.6-1.9 2.2-.2.6-.2 1.1.1 1.5.3.3.6.4 1.1.3s1.5-.6 3-1.6 2.6-1.6 3.2-1.9c.9-.4 1.7-.6 2.3-.5.6 0 1.2.3 1.5.7.4.4.6 1 .5 1.7 0 .7-.3 1.5-.8 2.3q-.75 1.2-2.1 2.4c-1.1 1-2.2 1.7-3.1 2.1s-1.8.6-2.6.6-1.5-.3-2-.8zM64.9 31l2-.8q.3 1.95-.6 3.6c-.7 1.2-1.7 2.2-3.2 3.1s-2.9 1.5-4 1.7c-1.2.2-2.3 0-3.3-.4-1-.5-1.7-1.1-2.3-2-.6-1-.9-2-.7-3 .1-1.1.6-2.1 1.3-3.1q1.2-1.5 3-2.7c1.4-.9 2.7-1.4 4-1.5 1.2-.1 2.3.1 3.2.8l-1.6 1.4c-.7-.5-1.5-.7-2.3-.6s-1.7.4-2.6 1c-1.1.7-1.9 1.4-2.4 2.2s-.7 1.6-.7 2.3c.1.8.3 1.4.7 2.1.5.8 1.1 1.4 1.8 1.7q1.05.6 2.4.3c.9-.2 1.8-.5 2.6-1 1-.6 1.8-1.4 2.3-2.2.5-1.1.7-1.9.4-2.9zM81 28.1l-1.5-4.4-8-3.9 2.5-.9 4.1 2.1c.8.4 1.5.8 2.2 1.2.3-.7.6-1.5 1.1-2.4l2-4.1 2.4-.8-4.2 8.1 1.5 4.4zM87.4 20.3c-.4-1.8 0-3.3 1-4.5s2.4-2.1 4.3-2.4c1.2-.2 2.4-.2 3.5 0q1.65.45 2.7 1.5c.7.7 1.1 1.6 1.4 2.7.2 1.1.1 2.1-.2 3.1-.4 1-1 1.8-1.9 2.4s-2 1.1-3.1 1.3c-1.3.3-2.4.2-3.5-.1q-1.65-.45-2.7-1.5c-.8-.8-1.3-1.6-1.5-2.5zm1.9-.4c.3 1.3.9 2.2 1.9 2.8s2.2.7 3.5.5c1.3-.3 2.4-.9 3.1-1.8s.9-2.1.7-3.5c-.2-.9-.5-1.6-1-2.2s-1.1-1-1.9-1.2-1.6-.2-2.5-.1c-1.3.3-2.3.8-3 1.7-.9 1-1.1 2.2-.8 3.8zM111.8 11.3l1.8-.1.3 6.3c.1 1.1-.1 2-.3 2.6-.3.7-.8 1.2-1.6 1.7-.8.4-1.8.7-3.2.8-1.3.1-2.3-.1-3.2-.4-.8-.3-1.4-.8-1.8-1.4-.4-.7-.6-1.6-.7-2.7l-.3-6.3 1.8-.1.4 6.3c0 1 .2 1.6.4 2.1.2.4.6.8 1.2 1 .5.2 1.2.3 2 .3 1.3-.1 2.3-.4 2.8-.9s.8-1.5.7-2.8zM117.1 22.2l.9-10.9 1.9.2 6.4 9.2.7-8.6 1.7.1-.9 10.9-1.8-.1-6.4-9.2-.7 8.6zM137.9 20.8l.3-1.3 5.6 1.3-.9 4q-1.5.6-3 .6c-1 .1-2 0-2.9-.2-1.3-.3-2.4-.8-3.4-1.5s-1.6-1.5-2-2.5c-.3-1-.4-2-.2-3q.3-1.5 1.5-2.7c.8-.8 1.7-1.3 2.8-1.5s2.3-.1 3.7.2c1 .2 1.8.6 2.5 1s1.3.9 1.6 1.5.5 1.2.6 2h-1.7c-.1-.6-.2-1.1-.4-1.5s-.6-.7-1.1-1-1.1-.6-1.8-.7c-.8-.2-1.5-.3-2.2-.2-.6.1-1.2.2-1.6.4s-.8.5-1.1.9c-.5.6-.8 1.3-1 2-.2 1-.2 1.8.1 2.5s.7 1.3 1.5 1.8c.7.5 1.5.8 2.4 1 .8.2 1.5.2 2.3.2.8-.1 1.4-.2 1.8-.4l.5-2zM150.9 29.3l4.7-9.9 5.6 2.7c1.1.5 2 1.1 2.6 1.6s1 1.1 1.2 1.7.2 1.1 0 1.6c-.2.4-.6.7-1.1.9s-1.2.3-2 .2c.8.6 1.4 1.2 1.6 1.9q.45 1.05 0 1.8c-.2.5-.6.8-1.1 1.1s-1 .4-1.5.4-1.2-.1-1.9-.3-1.5-.5-2.5-1zm2.5-.2 3.7 1.8c.6.3 1.1.5 1.4.6.5.2.9.3 1.3.3s.7 0 1-.2c.3-.1.5-.4.7-.7q.3-.6 0-1.2c-.2-.4-.5-.8-.9-1.1-.5-.3-1.1-.8-2.1-1.2l-3.4-1.6zm2.2-4.6 3.2 1.5c.9.4 1.5.7 1.9.8.5.1 1 .2 1.4 0 .4-.1.6-.3.8-.7.2-.3.2-.7.1-1-.1-.4-.4-.7-.8-1s-1.1-.7-2.2-1.2l-3-1.4zM166.8 31.2c1-1.5 2.3-2.3 3.9-2.5s3.2.3 4.8 1.4c1 .7 1.8 1.6 2.4 2.5.6 1 .8 2 .8 3-.1 1-.4 2-1 2.9s-1.4 1.6-2.4 2-2 .5-3.1.3-2.1-.6-3.1-1.3c-1.1-.7-1.9-1.6-2.4-2.6-.6-1-.8-2-.8-3q.15-1.5.9-2.7zm1.5 1.1c-.7 1.1-1 2.2-.7 3.3s1 2.1 2.1 2.8c1.1.8 2.3 1.1 3.4.9 1.2-.1 2.1-.8 2.9-2 .5-.7.8-1.5.9-2.2.1-.8-.1-1.5-.5-2.2s-1-1.3-1.7-1.8c-1.1-.7-2.2-1.1-3.3-1s-2.1.8-3.1 2.2zM178.5 46.5l3.1-3.5-.5-8.9 2 1.8.2 4.6V43c.8-.1 1.6-.2 2.6-.2l4.5-.3 1.9 1.7-9.1.3-3.1 3.5zM187.9 50.3l1.4 1.5c-.4.4-.6.9-.6 1.4s.1 1.1.4 1.8.8 1.4 1.4 2.1c.5.6 1.1 1.1 1.6 1.5s1 .6 1.4.7.8 0 1-.2c.3-.2.4-.5.4-.9s-.1-.9-.4-1.6c-.2-.4-.7-1.3-1.5-2.6s-1.3-2.3-1.5-2.9c-.3-.8-.4-1.4-.3-2s.3-1 .7-1.3c.4-.4 1-.5 1.6-.4.7.1 1.4.4 2.2.9s1.5 1.2 2.2 2.1q1.2 1.35 1.8 2.7c.4.9.5 1.7.5 2.4-.1.7-.3 1.3-.8 1.7l-1.4-1.5c.5-.5.6-1.2.5-1.9s-.6-1.6-1.4-2.5c-.8-1-1.6-1.6-2.2-1.9s-1.1-.2-1.5 0c-.3.3-.4.6-.3 1.1q.15.75 1.5 3c.9 1.5 1.5 2.6 1.8 3.2.4.9.6 1.7.5 2.3s-.3 1.1-.8 1.5c-.4.4-1 .5-1.7.5-.7-.1-1.5-.4-2.3-.9s-1.6-1.3-2.4-2.2c-.9-1.1-1.6-2.2-2.1-3.2-.4-1-.6-1.8-.5-2.7-.1-.5.2-1.2.8-1.7z" class="st4"></path><path d="m97.4 219.5-1.7-.3 1.6-8.5c-.5.2-1 .4-1.8.6-.7.2-1.3.3-1.9.4l.2-1.3c1-.2 1.9-.4 2.7-.8q1.2-.6 1.8-1.2l1.1.2zM105.8 214.6c-.7-.3-1.2-.6-1.5-1s-.4-.9-.4-1.4c.1-.8.5-1.5 1.2-2 .8-.5 1.7-.7 2.9-.6s2.2.4 2.9 1 1 1.3 1 2.1c0 .5-.2.9-.6 1.3s-.9.6-1.6.8c.8.3 1.5.7 1.9 1.2s.6 1.1.5 1.8c-.1.9-.5 1.7-1.4 2.3s-2 .8-3.4.7-2.4-.5-3.2-1.2-1.2-1.5-1.1-2.5c0-.7.3-1.3.8-1.8.5-.3 1.1-.6 2-.7zm-1.1 2.7c0 .4.1.8.3 1.1.2.4.5.7 1 .9.4.2.9.4 1.4.4.8.1 1.5-.1 2.1-.5q.9-.6.9-1.5c0-.7-.2-1.2-.7-1.7s-1.2-.7-2-.8-1.5.1-2 .5c-.7.5-1 1-1 1.6zm.9-5.1c0 .5.1 1 .5 1.3.4.4.9.6 1.6.6s1.2-.1 1.6-.4.7-.7.7-1.2-.2-.9-.6-1.3-.9-.6-1.6-.6c-.6 0-1.2.1-1.6.4-.3.4-.6.8-.6 1.2zM115.7 218.5l1.6-.2c.2.6.5 1 .9 1.3q.6.45 1.5.3c.5 0 1-.2 1.4-.4s.7-.5.9-.8.4-.8.6-1.3c.1-.6.2-1.1.2-1.7v-.3c-.3.5-.8.8-1.3 1.1-.6.3-1.2.5-1.9.5-1.1.1-2.1-.2-3-.8-.8-.6-1.3-1.5-1.3-2.6-.1-1.1.3-2 1.1-2.8q1.2-1.05 3-1.2c.9-.1 1.7.1 2.5.4s1.4.9 1.8 1.6.7 1.7.8 3.1 0 2.6-.4 3.4c-.3.9-.9 1.5-1.6 2s-1.6.8-2.6.8q-1.65.15-2.7-.6c-.9-.3-1.3-1-1.5-1.8zm6.6-5.3q0-1.2-.9-1.8c-.5-.4-1.2-.6-1.9-.6-.8 0-1.4.3-1.9.9-.5.5-.8 1.2-.7 2 0 .7.3 1.3.9 1.7s1.2.6 2 .5c.8 0 1.4-.3 1.9-.8s.7-1.2.6-1.9zM129.8 213.6c-.7-.1-1.3-.3-1.7-.6s-.7-.7-.8-1.3c-.1-.8.1-1.5.7-2.2s1.5-1.1 2.7-1.4q1.8-.3 3 .3t1.5 1.8c.1.5 0 1-.2 1.4-.3.4-.7.8-1.3 1.2.9.1 1.6.3 2.1.7s.9.9 1 1.6c.2.9-.1 1.8-.8 2.6s-1.7 1.3-3.1 1.6c-1.3.3-2.5.1-3.4-.3-.9-.5-1.5-1.2-1.7-2.1-.1-.7 0-1.3.3-1.9.4-.6.9-1 1.7-1.4zm-.7-2.2c.1.5.4.9.9 1.1.5.3 1 .3 1.7.2.6-.1 1.1-.4 1.5-.8s.5-.8.4-1.3-.4-.9-.9-1.1c-.5-.3-1-.3-1.7-.2-.6.1-1.1.4-1.5.8-.4.5-.5.9-.4 1.3zm.4 5.2c.1.4.3.7.6 1q.45.45 1.2.6t1.5 0c.8-.2 1.4-.5 1.9-1 .4-.5.6-1.1.5-1.7s-.5-1.1-1.1-1.4-1.3-.4-2.1-.2c-.8.1-1.4.5-1.8 1-.7.5-.8 1-.7 1.7z" class="st5"></path><path d="M117 45.5h8l-6.3 4.7 2.4 7.6-6.5-4.8-6.5 4.7 2.5-7.5-6.4-4.8h8l2.4-7.6z" class="st3"></path></g><!-- source: https://football-logos.cc --></svg>