<svg xmlns="http://www.w3.org/2000/svg" xml:space="preserve" width="251" height="251" viewBox="-0.638 -0.638 251 251"><!-- Source: https://football-logos.cc --><path fill="#DEAA18" fill-rule="evenodd" d="m34.784 38.227 7.201 9.548 2.118-1.697 15.673 20.369-3.177 2.971c-3.131 2.539-1.126 7.415.188 8.839 1.69 1.83 4.94 2.813 8.389 1.24 15.04-13.244 41.054-23.092 59.776-22.261 20.73.92 40.397 5.075 58.986 21.306 2.77 2.88 7.125 1.775 9.372-.425 2.172-2.13 2.699-7.09.317-9.123l-3.177-2.759 15.673-20.37 1.905 1.487 6.99-9.125-4.024-2.97-2.118 2.758-2.965-2.122 2.117-2.758-2.964-2.547-5.93 7.64 1.694 4.242-6.565 4.882-2.584-1.41 2.534-4.3-6.729-4.017-2.297 4.045-2.963-1.44 2.005-4.3-6.863-3.367-1.896 4.382-2.598-1.264.053-8.594 4.595-.135 3.021-9.511-3.853-1.295-1.21 3.589-3.76-1.22 1.256-3.619-3.809-1.282-1.36 3.592-3.701-1.113 1.251-3.761-3.92-1.32-3.12 9.59 3.753 2.89-5.184 7.222-2.514-.939 1.192-4.653-7.75-1.622-.823 4.771-3.23-.599.645-4.852-7.752-.792-.422 4.908-2.91-.222-2.802-8.243 4.603-1.793-.161-9.883-3.918-.022-.063 3.75-3.854.006-.054-3.78-4.183-.079.002 3.756-3.738.035-.076-3.762-4.179-.026-.003 9.87 4.446 1.8-2.7 8.272-1.513.138-.585-4.853-7.692.98.686 4.604-3.39.512-.747-4.652-7.76 1.54.893 4.782-3.297.857-5.133-7.14 3.793-2.865-3.378-9.278-3.844 1.247 1.195 3.48-3.671 1.22-1.173-3.518-3.998 1.296 1.076 3.5-3.46 1.166-1.233-3.495-4.078 1.322 3.27 9.346 4.602.228.303 8.805-2.355 1.06-2.128-4.64-6.841 3.403 2.217 4.271-3.123 1.613-2.324-4.115-6.67 3.822 2.645 4.083-2.904 2.078-7.316-4.81 2.488-3.984-6.134-7.995-3.007 2.25 2.154 2.964-3.022 2.374-2.484-2.738z" clip-rule="evenodd" data-source="https://football-logos.cc"></path><path fill-rule="evenodd" d="m34.612 37.739-.002-.003.169-.13zm180.785 0 .002-.003-.169-.13zm-85.421 5.75q4.119.19 8.149.682l-8.152-25.254h-10.019l-8.156 25.266a108 108 0 0 1 8.232-.693V31.043a4.987 4.987 0 0 1 4.973-4.973 4.987 4.987 0 0 1 4.973 4.973zm-58.738 7.574-2.242-4.183a118 118 0 0 0-6.806 4l4.276 2.933a113 113 0 0 1 4.772-2.75m-1.171-4.759 2.248 4.18a113 113 0 0 1 4.692-2.341l-.073-5.19a117 117 0 0 0-6.867 3.351m107.99 4.37 2.413-4.09a116 116 0 0 0-7.357-3.617l-.073 5.19q2.544 1.199 5.017 2.518m3.487-3.507-2.406 4.092q2.236 1.229 4.41 2.55l4.275-2.933a117 117 0 0 0-6.28-3.71m3.347.35 2.175-3.698a123 123 0 0 0-7.521-4.048l-1.879 3.854a119 119 0 0 1 7.225 3.892m3.225-3.077-2.177 3.696q1.561.934 3.09 1.913l3.83-2.627a124 124 0 0 0-4.743-2.982m-11.546-1.352 1.878-3.852a123 123 0 0 0-5.249-2.381l-.065 4.646q1.733.768 3.436 1.587m-33.647-4.226.772-4.674a117 117 0 0 0-7.648-.97l1.59 4.93q2.662.297 5.286.714m1.98-4.472-.771 4.672q2.47.424 4.903.952l3.089-4.163a116 116 0 0 0-7.22-1.461m3.7-.68.872-4.206a123 123 0 0 0-8.541-1.412l-.534 4.262c2.765.357 5.5.813 8.204 1.357m2.065-3.958-.87 4.204q1.608.338 3.197.721l2.772-3.734q-2.529-.65-5.099-1.191m-11.478 2.451.534-4.262q-2.759-.33-5.554-.536l1.428 4.424q1.804.16 3.592.374m-32.828 6.777-.748-4.676q-3.893.645-7.695 1.541l3.09 4.163q2.654-.576 5.353-1.028m.453-4.87.758 4.676q2.341-.362 4.713-.627l1.591-4.931q-3.564.336-7.062.882m3.544-1.85-.506-4.263q-4.398.54-8.693 1.382l.853 4.21q4.126-.808 8.346-1.33m.704-4.407.506 4.264q1.374-.157 2.758-.28l1.428-4.425q-2.356.175-4.692.441m-10.246 5.975-.853-4.208q-2.87.591-5.688 1.316l2.77 3.733q1.875-.45 3.77-.84m-27.798 9.466-1.855-3.867a123 123 0 0 0-8.004 4.268l2.172 3.7a118 118 0 0 1 7.687-4.1m-.757-4.394 1.856 3.866q1.387-.656 2.796-1.279l-.066-4.645a125 125 0 0 0-4.586 2.058m-7.98 9.115-2.173-3.703a122 122 0 0 0-4.955 3.114l3.831 2.627a121 121 0 0 1 3.297-2.038m127.051-3.171 1.914-3.01a127 127 0 0 0-5.565-3.317l-1.728 3.124a124 124 0 0 1 5.379 3.203m3.832-3.415-2.653 4.168q.773.5 1.536 1.01l6.187-4.244-2.467-3.856 6.961-9.015 4.332 3.35-2.362 3.06 1.967 1.518 1.508-1.954-.01-.008.846-1.098.011.009.006-.008 3.908 3.016.003-.005.46.367.006.006.617.493-7.886 10.127-.623-.386-.019.024-.238-.184-.087-.054-.218-.135.019-.023.005-.005-.728-.562-.13-.103-15.038 19.295q.772.608 1.533 1.227h.015v.013l.705.58.012.009.004.002c1.612 1.262 2.644 2.624 2.644 5.65 0 3.207-3.265 7.289-7.288 7.289a7.25 7.25 0 0 1-4.832-1.838l.876-1.049c1.152.94 1.57 1.501 3.956 1.501 2.388 0 5.901-3.3 5.901-5.902s-.945-3.7-2.396-4.776l.013-.016-.461-.379v-.01h-.016c-18.185-14.86-41.413-23.772-66.726-23.772-25.31 0-48.537 8.912-66.723 23.771h-.006v.004c-1.816 1.549-2.868 2.555-2.868 5.178 0 2.601 3.515 5.902 5.901 5.902 2.387 0 2.804-.56 3.957-1.5l.876 1.048a7.26 7.26 0 0 1-4.833 1.838c-4.022 0-7.287-4.082-7.287-7.288 0-3.134 1.106-4.484 2.82-5.785l-.006-.009.553-.456v-.005h.006q.758-.618 1.528-1.222l-15.042-19.3-.13.103-.728.562.005.005.018.023-.218.135-.087.054-.238.184-.02-.024-.622.386-7.886-10.127.617-.493.007-.006.458-.367.004.005 3.907-3.016.006.008.012-.01.847 1.099-.011.008 1.508 1.954 1.967-1.519-2.362-3.06 4.331-3.35 6.963 9.016-2.469 3.856 6.193 4.247q.97-.65 1.954-1.282l-2.63-4.163.371-.236-.009-.013a130 130 0 0 1 7.118-4.21l.005.01.557-.313 2.371 4.327q.814-.441 1.633-.872l-2.244-4.36.556-.298-.013-.025a129 129 0 0 1 7.245-3.465l.009.021.628-.28 1.984 4.512q.662-.288 1.328-.568l-.107-7.567-4.499-.076-.046-.134h-.002l-.421-1.226h.006l-3.132-9.257.005-.002-.04-.117 5.215-1.765 1.247 3.648 2.303-.78-1.238-3.66 5.23-1.77.004.01.014-.006.444 1.313-.014.005.791 2.338 2.354-.796-1.238-3.661 5.185-1.76 3.654 10.788-3.588 2.846 4.461 6.01q1.28-.333 2.571-.64l-1.125-4.81.823-.197-.002-.007c2.77-.64 5.54-1.192 8.35-1.622l.825 4.86q.909-.146 1.82-.28l-.7-4.895.664-.098v-.007l.627-.084.009-.001.073-.012v.001c2.162-.294 4.34-.538 6.535-.724l-.002-.015 1.384-.117.4 4.952.527-.04 2.334-7.229-4.237-1.513-.001-.142h-.002V6.092h.006v-.124h5.504l.013 3.855h2.431V5.958h5.523v.01h.015v1.386h-.015v2.469h2.485V5.958l5.475-.005.004 11.39-4.31 1.545 2.308 7.149c.612.042 1.218.092 1.828.143l.446-4.92.292.023v-.008l.546.05.546.042-.002.01q3.631.342 7.202.884l-.001.011.692.097-.747 4.893q.914.145 1.823.303l.875-4.873.785.142v-.005q4.082.732 8.071 1.713l-.001.003.292.07-1.173 4.811q.714.176 1.422.36l4.467-6.017-3.59-2.846 3.656-10.788 5.185 1.76-1.239 3.661 2.354.796 1.222-3.656.013.005.004-.009 5.23 1.77-1.238 3.66 2.304.78 1.247-3.648 5.214 1.765-.039.117.005.002-3.132 9.257h.006l-.422 1.226-.048.134-4.499.076-.106 7.58q.877.37 1.747.754l2.008-4.52.59.266.002-.008c2.23.993 4.43 2.05 6.591 3.162l.003-.008 1.229.648-2.28 4.386q.816.432 1.628.875l2.394-4.325.603.333.001-.001.614.34-.002.003a130 130 0 0 1 6.818 4.113m-13.288-1.978 1.645-3.168a127 127 0 0 0-5.838-2.816l-1.45 3.262q2.86 1.292 5.643 2.722M153.861 29.1l.847-3.475q-3.15-.746-6.354-1.336l-.631 3.519q3.097.57 6.138 1.291m-10.702-2.046.54-3.535q-3.195-.468-6.437-.775l-.323 3.558c2.09.198 4.163.452 6.22.752m-28.873-.859-.289-3.565a130 130 0 0 0-6.45.715l.507 3.541q3.094-.423 6.232-.69m-10.803 1.4-.6-3.525q-3.205.558-6.357 1.272l.814 3.481q3.044-.69 6.143-1.229m-29.254 8.928-1.435-3.267a129 129 0 0 0-5.856 2.798l1.631 3.167a125 125 0 0 1 5.66-2.698m-9.745 4.874-1.716-3.123a127 127 0 0 0-5.58 3.296l1.904 3.014a124 124 0 0 1 5.392-3.187m90.097 6.119 3.983-11.772c.876-2.59 3.713-3.993 6.304-3.117 2.591.877 3.994 3.714 3.117 6.305l-3.984 11.775a106 106 0 0 1 7.57 3.314l.372-26.55-9.49-3.212-15.81 21.303a106 106 0 0 1 7.938 1.954m-6.45-6.288-2.994 4.036a107 107 0 0 0-5.492-.897l-1.543-4.782c3.39.396 6.737.948 10.03 1.643m24.817 13.474.072-5.03a111 111 0 0 1 9.284 4.99l-4.145 2.843a106 106 0 0 0-5.21-2.803m2.916-34.05 1.234-3.644 2.604.88-2.884 8.523-3.561.04-11.437-3.87-2.69-2.128 2.892-8.547 2.56.866-1.245 3.648 4.97 1.683.002-.008.02.008 1.233-3.646 2.605.882-1.225 3.655zm-73.954 20.57 2.996 4.035c1.775-.337 3.569-.628 5.372-.876l1.544-4.785c-3.35.395-6.66.94-9.912 1.625m1.49 4.334L87.595 24.26l-9.49 3.212.372 26.533a106 106 0 0 1 7.566-3.307l-3.98-11.765c-.876-2.59.526-5.428 3.117-6.305s5.428.527 6.304 3.117l3.98 11.763q3.911-1.123 7.938-1.951m-26.3 9.13-.072-5.03a111 111 0 0 0-9.317 5.01l4.143 2.842q2.58-1.48 5.246-2.822m-2.917-34.035L72.95 17.01l-2.604.88 2.883 8.523 3.562.04 11.436-3.87 2.69-2.128-2.892-8.547-2.56.866.791 2.339.01-.004.444 1.313-4.969 1.683-.002-.008-.02.008-1.234-3.646-2.605.882 1.224 3.655zm44.243-9.45V7.354h-2.75v8.997l3.361 1.18h12.073l3.23-1.155V7.354h-2.702v2.469h.01v1.386h-5.246v-.007h-.021V7.354h-2.75l-.012 3.855zm61.057 47.076a108 108 0 0 1 6.864 4.435l7.61-9.84a4.974 4.974 0 0 1 6.653-1.13l4.407-5.653-3.654-2.819zm34.6-19.808-6.259 8.037-6.513-5.028-1.853-2.888 5.513-7.141 2.138 1.651-1.507 1.953-.008-.006-.847 1.098 4.152 3.206.004-.006.018.013 2.35-3.046zM63.665 62.718a107 107 0 0 1 6.866-4.437L48.646 43.27l-3.653 2.82 4.406 5.653a4.975 4.975 0 0 1 6.653 1.128zM35.925 38.47l6.26 8.037 6.514-5.028 1.852-2.888-5.513-7.141L42.9 33.1l1.508 1.953.008-.006.847 1.098-4.153 3.206-.004-.006-.017.013-2.35-3.046z" clip-rule="evenodd"></path><path fill="#F5EE3B" fill-rule="evenodd" d="M125 58.075c50.937 0 92.244 41.308 92.244 92.244S175.937 242.565 125 242.565s-92.244-41.309-92.244-92.246S74.063 58.075 125 58.075" clip-rule="evenodd"></path><path fill="#F41C0C" fill-rule="evenodd" d="M124.9 58.322V79.34H67.046C83.047 65.475 102.12 58.03 124.9 58.322" clip-rule="evenodd"></path><path fill="#FFF" fill-rule="evenodd" d="M67.668 79.397H183.21v71.9c0 31.685-25.995 57.607-57.77 57.607-31.774 0-57.77-25.922-57.77-57.607z" clip-rule="evenodd"></path><path fill="#314F92" fill-rule="evenodd" d="M124.901 58.11v21.019h57.855c-16.002-13.866-35.074-21.312-57.855-21.02m35.195 138.946c-2.257 1.27-4.303 2.752-6.56 4.023-8.186-9.312-8.916-21.286-16.295-28.995-5.845-6.104-17.675-7.634-23.913-13.337-7.248-6.624-9.925-15.973-16.719-23.06-6.34-6.617-12.815-9.346-19.253-15.87-4.176-4.233-8.538-11.645-9.735-17.572l.636-22.43c.63 10.37 5.91 22.4 12.274 30.688 6.27 8.167 15.553 11.153 22.64 18.623 6.141 6.476 9.354 16.333 15.872 22.43 7.053 6.597 17.889 7.82 24.546 14.816 7.878 8.276 8.886 21.093 16.507 30.684m9.334-9.566c-9.034-11.435-8.918-22.139-16.295-29.844-5.842-6.102-17.676-8.273-23.913-13.974-7.247-6.624-10.683-15.7-16.93-23.274-6.401-7.759-15.904-10.584-22.061-18.411-5.185-6.594-7.924-13.07-9.536-21.996l8.702-.343c.902 6.768 3.449 11.756 7.027 16.417 6.27 8.166 15.554 11.153 22.64 18.623 6.142 6.476 9.354 16.333 15.874 22.43 7.051 6.597 17.888 7.823 24.545 14.816 7.383 7.756 8.307 19.72 14.939 28.639z" clip-rule="evenodd" data-source="https://football-logos.cc"></path><path fill-rule="evenodd" d="M124.998 56.592c22.476 0 43.1 7.915 59.25 21.108h.012v.01c21.034 17.19 34.468 43.334 34.468 72.61 0 51.756-41.971 93.727-93.73 93.727-51.754 0-93.726-41.971-93.726-93.726 0-29.281 13.439-55.428 34.477-72.617V77.7h.004c16.15-13.193 36.771-21.108 59.245-21.108m59.262 41.302a227 227 0 0 1 2.904 15.18c.346 2.207.65 4.412.917 6.624h-3.821zm0 23.394h4.005a171 171 0 0 1 1.065 20.223 156 156 0 0 1-.726 14.102h-4.539c.126-1.54.195-3.09.195-4.654zm-.346 35.916h4.525c-1.086 10.05-3.177 19.867-6.351 29.744a162 162 0 0 1-1.729 5.093l-10.037-3.233c7.412-8.85 12.304-19.802 13.592-31.604m-14.72 32.91 10.621 3.423c-5.088 13.783-11.85 26.34-20.18 38.732a93 93 0 0 0-4.38-1.77c2.396-5.076 3.963-10.874 4.089-16.662l.329-15.05a60.7 60.7 0 0 0 9.521-8.672m-11.132 9.815-.304 13.86c-.126 5.74-1.542 11.087-3.993 16.166-9.2-3.255-18.61-4.874-28.69-4.886h-.195l-.487.002h-.349l-.1.003c-9.736.105-18.848 1.722-27.754 4.88-2.451-5.078-3.867-10.425-3.993-16.165l-.3-13.746c9.402 6.374 20.765 10.135 33.107 10.135 12.276.002 23.638-3.814 33.058-10.249m-33.963 26.726h.007l.09-.002h.405l.392-.001h.553c12.175.073 23.333 2.465 34.377 7.456-10.751 4.487-22.548 6.97-34.925 6.97-12.385 0-24.188-2.486-34.946-6.98 10.944-4.942 22.001-7.334 34.047-7.443m37.764 6.613-.758-.346c5.785-8.627 10.926-17.558 15.257-26.958l17.492 3.47a91.1 91.1 0 0 1-31.99 23.834m33.166-25.224-17.99-3.567a164 164 0 0 0 6.556-17.047 155 155 0 0 0 3.037-10.753l24.838 1.261a90.6 90.6 0 0 1-16.44 30.106m16.925-31.672-24.947-1.266c2.556-10.986 3.833-22.047 3.905-33.583q.026-4.203-.143-8.349l22.788-2.805a91 91 0 0 1 2.203 19.952 90.7 90.7 0 0 1-3.806 26.05m1.237-47.56-22.495 2.769a181 181 0 0 0-2.387-21.587q-.405-2.356-.87-4.706l12.595-6.031a90.4 90.4 0 0 1 13.157 29.555m-14.078-30.877-11.997 5.744c-.842-4.106-1.812-8.208-2.856-12.314v-9.782a91.3 91.3 0 0 1 14.853 16.352M65.75 97.659a226 226 0 0 0-2.958 15.415c-.346 2.207-.65 4.412-.918 6.624h3.876zm0 23.63h-4.06a171 171 0 0 0-1.066 20.222c.034 4.775.275 9.463.727 14.102h4.586a59 59 0 0 1-.188-4.653zm.336 35.915h-4.57c1.087 10.05 3.177 19.867 6.352 29.744a162 162 0 0 0 1.728 5.093l9.936-3.2c-7.354-8.824-12.181-19.768-13.446-31.637m14.57 32.946-10.516 3.387c5.09 13.783 11.85 26.34 20.18 38.732a93 93 0 0 1 4.38-1.77c-2.396-5.076-3.962-10.874-4.088-16.662l-.326-14.927a59.8 59.8 0 0 1-9.63-8.76m7.458 43.11.736-.338c-5.784-8.627-10.926-17.558-15.257-26.958l-17.454 3.462a91.1 91.1 0 0 0 31.975 23.833m-33.15-25.223 17.953-3.56a164 164 0 0 1-6.557-17.047 155 155 0 0 1-3.036-10.753l-24.794 1.259a90.6 90.6 0 0 0 16.435 30.1m-16.917-31.668 24.902-1.263c-2.557-10.986-3.834-22.047-3.906-33.583q-.026-4.203.145-8.349l-22.745-2.8a91 91 0 0 0-2.201 19.947 90.7 90.7 0 0 0 3.805 26.048m-1.238-47.552 22.45 2.764a181 181 0 0 1 2.388-21.587q.404-2.356.87-4.706l-12.561-6.015a90.4 90.4 0 0 0-13.147 29.544M50.876 97.95l11.962 5.728c.857-4.176 1.846-8.347 2.91-12.524v-9.58A91.3 91.3 0 0 0 50.876 97.95M70.56 77.7h108.88c-15.17-11.39-34.017-18.14-54.442-18.14S85.728 66.31 70.56 77.7m-1.845 2.967h112.578v70.255c0 30.96-25.33 56.288-56.29 56.288s-56.288-25.329-56.288-56.288z" clip-rule="evenodd"></path><path fill="#F41C0C" fill-rule="evenodd" d="M115.954 161.165c.22 1.136.338 2.312.338 3.512 0 10.165-8.245 18.41-18.41 18.41s-18.41-8.245-18.41-18.41c0-1.199.118-2.372.337-3.507 2.701 7.365 9.774 12.622 18.072 12.622 8.3 0 15.373-5.261 18.073-12.627m58.406-64.331a18.5 18.5 0 0 1 .337 3.512c0 10.166-8.245 18.41-18.41 18.41s-18.41-8.244-18.41-18.41c0-1.198.118-2.37.337-3.506 2.701 7.364 9.774 12.622 18.072 12.622 8.3 0 15.374-5.262 18.073-12.628" clip-rule="evenodd"></path><path d="M40.817 137.21h13.17v4.585h-7.085v7.05h6.493v4.606h-6.493v15.271h-6.085zm85.911 83.572v-3.35c0-1.563-.075-2.543-.212-2.932-.136-.384-.867-.58-1.342-.58-.54 0-1.305.234-1.449.704q-.217.71-.216 3.055v15.417q0 2.256.216 2.939c.146.463.894.691 1.401.691.485 0 1.226-.23 1.374-.691.146-.456.228-1.532.228-3.226v-3.657h6.085v.986q-.002 4.79-.548 6.796c-.366 1.335-1.178 2.509-2.43 3.512-1.251 1.004-2.798 1.512-4.63 1.512q-2.866-.002-4.72-1.284c-1.235-.853-2.06-2.032-2.46-3.538q-.602-2.266-.602-6.81v-9.023q.001-3.34.184-5.011a7.9 7.9 0 0 1 1.11-3.218 6.56 6.56 0 0 1 2.55-2.438c1.087-.586 2.338-.886 3.748-.886 1.922 0 3.506.463 4.752 1.375q1.87 1.375 2.46 3.427c.393 1.367.586 3.392.586 6.279zm74.738-83.464 3.633 31.402h-5.773l-.657-7.739h-2.876l-.712 7.74h-4.623l3.58-31.403zm-3.068 18.834-.988-12.968-1.152 12.968z"></path><path fill-rule="evenodd" d="M207.156 161.72h5.084v7.003h-5.084zm-71.676 72.763h5.084v7.005h-5.084zm-84.46-72.869h5.083v7.004H51.02z" clip-rule="evenodd" data-source="https://football-logos.cc"></path><!-- source: https://football-logos.cc --></svg>