<svg xmlns="http://www.w3.org/2000/svg" id="uuid-7079b71e-6492-45fa-98d5-24a8f43fef2b" version="1.1" viewBox="0 0 240.5 441.9"><!-- Source: https://football-logos.cc --><defs data-source="https://football-logos.cc"><style>.st0{fill:#f1cb2f}.st1{fill:#262425}</style></defs><path d="M119.6 1c0-.3.2-.7.3-1 .3 1.3.9 2.5 1.1 3.8h.2v.7q.45.9.6 1.8c0 .3.2.6.3.9 0 .3.2.6.3.9.7 2.1 1.4 4.3 2.1 6.4l.6 1.8c0 .3.2.6.3.9l.3.9c0 .3.2.6.3.9.4 1.2.8 2.4 1.1 3.6h23.8c-.5.3-1 .6-1.5 1l-2.1 1.5-1.2.9-1.2.9-.9.6-1.2.9c-.7.5-1.4 1-2 1.5l-1.2.9-2.1 1.5-1.2.9c-.7.5-1.4 1-2 1.5l-1.2.9c-.6.5-1.8.8-1.5 1.8.2.3.4.6.3 1h.2c0 .2 0 .5.1.7.1.3.2.6.4.9l.3.9c0 .3.2.6.3.9 0 .3.2.5.3.8l.6 1.8c.4 1.3 1 2.5 1.2 3.9h.2c.1.5.3 1.1.5 1.6 0 .3.2.6.3.9 0 .3.2.6.3.9l.6 1.8c.7 2 1.2 4 2 5.9l-.7-.7-.9-.6-1.2-.9-2.1-1.5c-1.1-.8-2.2-1.5-3.2-2.3-1.1-.8-2.2-1.5-3.2-2.4-.4-.2-.7-.5-1.1-.7-.3-.3-.6-.5-.9-.7l-2.4-1.8c-1.1-.8-2.2-1.5-3.3-2.4h-.8v.2c-.3.2-.7.5-1.1.7-1.1.8-2.1 1.6-3.2 2.4l-1.2.9c-1.1.8-2.1 1.6-3.2 2.3l-1.2.9c-.7.5-1.3 1-2 1.5-1.1.8-2.1 1.6-3.2 2.3-1.2.9-2.5 1.7-3.6 2.8.1-.3.2-.7.4-1.1h.2v-.9h.2c0-.3.1-.7.2-1 .2-.5.3-1.1.5-1.6h.2c.3-1.6 1-3.2 1.4-4.8l.9-2.7.6-1.8c.2-.5.3-1.1.4-1.6h.2c.2-1.5.9-2.8 1.3-4.3.3-1 .7-2 1-3-.3-.2-.5-.4-.8-.6-1.1-.8-2.2-1.5-3.2-2.3l-2.1-1.5-1.2-.9-2.1-1.5-1.2-.9c-1.1-.8-2.2-1.6-3.2-2.4L92.3 25l-1.2-.9c-.4-.2-.7-.5-1.1-.8-.3-.3-1-.7-1.3-.8h24c0-.1 0-.4-.1-.5h.3c.6-2.6 1.6-5 2.3-7.5 0-.3.2-.6.3-.9l.3-.9v-.8h.2c0-.3.1-.7.2-1l3-9c0-.3.2-.6.3-.9Zm-4.2 22.2c-.5 1.4-1.9 2.2-3.4 2.2H97.7c3.9 2.9 7.9 5.7 11.8 8.6 1.3.8 1.7 2.5 1.1 3.9l-4.5 13.8c3.9-2.9 7.8-5.7 11.8-8.6 1.1-.8 2.7-1 3.9-.1 4 2.9 7.9 5.8 11.9 8.7-1.4-4.2-2.7-8.3-4.1-12.5-.3-.8-.6-1.7-.7-2.6 0-.9.4-1.9 1.2-2.4l12-8.7h-13.7c-1 0-2.1 0-2.9-.7-.7-.5-1-1.3-1.2-2-1.4-4.5-2.9-9-4.3-13.5-1.6 4.6-3 9.3-4.6 14ZM2 256.8C41.4 194.9 80.7 133 120.1 71.2c39.4 61.9 78.7 123.8 118.1 185.6-38.7 59.5-77.4 119.1-116.1 178.7-.6 1-1.3 2-1.9 2.9-26.4-40.7-52.9-81.4-79.3-122-12.9-19.9-25.8-39.7-38.7-59.6ZM120.1 82.6c-29.4 45.2-58.8 90.5-88.2 135.7 4.9 3.9 10 7.6 15.1 11.1 12.1-18.5 24.1-37.1 36.2-55.7 12.3-18.9 24.5-37.9 36.9-56.8 24.3 37.5 48.7 75 73 112.4 5.2-3.5 10.2-7.2 15.1-11.1-29.4-45.2-58.8-90.5-88.2-135.7Zm-3.9 112.3c-.2 1.9-.2 4.2 1.4 5.6 1.6 1.3 4.4 1.1 5.5-.7 1-1.6 1-3.5.8-5.2-.4-3.3-1.6-6.6-3.8-9.1-2.3 2.6-3.5 6-3.9 9.4m-7.9-8.3c-1.1 1.9-1.7 4.1-1.9 6.2-.2 2.7-.3 5.6 1.2 8s5.7 1.8 6.5-.9c.5-1.7.2-3.6-.4-5.3-1.1-3.1-2.8-6.1-5.4-8m18.4 7.1c-.7 1.9-1.4 4-.8 6 .7 2.5 4.4 3.4 6.2 1.5 1.3-1.4 1.6-3.3 1.8-5.1.1-3.3-.4-6.7-2-9.5-2.4 1.8-4 4.4-5.1 7.2Zm-30.6 1.8c.1 2.5.5 5 1.7 7.2.7 1.2 1.9 2.4 3.3 2.4 1.7 0 3.5-1 3.9-2.7.4-1.6-.2-3.2-.8-4.6-1.6-3.2-4.1-6-7.3-7.8-.7 1.8-.9 3.7-.8 5.5m41.5-.6c-1.4 1.9-2.7 4-2.7 6.4-.1 2.9 3.9 4.7 6 2.9 1.5-1.2 2.1-3.1 2.6-4.9.6-3.1.8-6.4-.3-9.3-2.2 1.2-4.1 3-5.6 5Zm-49.8 9.5c.8 1.8 1.8 3.6 3.6 4.6 1.9 1.1 4.5-.3 5.2-2.3.5-1.9-.5-3.9-1.7-5.4-2.2-2.7-5.1-5-8.5-6-.5 3.1.2 6.2 1.4 9Zm61-6.5c-2.3 1.8-4.6 4-5.4 6.9-.8 2.7 2.4 5.4 4.9 4.4 1.6-.7 2.7-2.2 3.5-3.8 1.5-3.1 2.4-6.6 1.9-10-1.8.5-3.4 1.4-4.9 2.5m-71.7 4.9c0 2.9 1.3 5.6 2.7 8.1 1.1 1.8 2.5 3.5 4.5 4.3 2.6 1 5.6-1.9 4.8-4.5-.7-2.1-2.5-3.6-4.2-4.9-2.3-1.5-5-2.8-7.8-3m77.7 3.2c-1.6 1.2-3.3 2.6-3.9 4.6-.9 2.6 2.2 5.6 4.8 4.6 2.1-.8 3.5-2.6 4.7-4.4 1.4-2.4 2.6-5.1 2.6-7.9-3 .2-5.8 1.5-8.2 3.2Zm-34.9 2.2c-10-.2-19.9 3.8-27.1 10.6-7.4 6.9-12 16.7-12.4 26.9.2.1.4.4.6.5.2-2.8.5-5.7 1.2-8.4 1.4-5.4 4-10.4 7.5-14.7.8 2 1.7 4 2.6 5.9-1.1 3.3-2.1 6.7-2.7 10.2-.2.8-.1 1.7-.4 2.5-1.5 1.9-3.1 3.6-4.6 5.4 4.2 1 8.4 1.8 12.7 2.3-2.4-2.4-4.6-5.1-6.7-7.8.5-4.1 1.5-8.1 2.9-12 4.8-1.2 9.7-1.5 14.6-1.7 1.6 2.1 3 4.4 4.5 6.5-1.7 4.6-3.2 9.4-4.8 14.1-1.5.5-3 .9-4.5 1.5 10.9 1 21.8.3 32.7-.2-.5-.4-1.2-.7-1.3-1.4-1.5-4.6-2.9-9.2-4.4-13.8 1.3-2.1 2.6-4.2 4.1-6.3 1.5 0 3 0 4.5.4 2.5.6 4.7 1.9 6.8 3.3.8.5 1.1 1.4 1.6 2.2 1.2 2.4 1.8 5 1.9 7.7 0 .6.2 1.3-.2 1.8-.9 1.8-2.1 3.4-3.2 4.9 3.2-.5 6.4-1.1 9.5-2-1.5-1.6-3.2-3-4.7-4.6-.2-1.2-.2-2.5-.5-3.7-.4-2-1.2-3.9-2.2-5.6-.3-.6-.8-1.2-.6-1.9l1.2-9c5.7 6.6 9.3 15.1 9.6 23.9.2 0 .5-.2.7-.2-.4-9.2-4.2-18.2-10.5-24.9-7.2-7.8-17.7-12.6-28.4-12.6Zm-50.6 3.6c.7 2.9 2.4 5.4 4.4 7.5 1.4 1.4 3.1 2.9 5.1 3.2 2.4.4 4.7-2.2 4.2-4.6-.5-1.8-2-3-3.6-3.9-3.1-1.7-6.6-2.7-10.1-2.4Zm92.3 1.8c-1.7.8-3.4 1.9-4.2 3.6-1.2 2.4 1.2 5.8 3.9 5.2 2.1-.4 3.8-1.8 5.2-3.3 1.9-2.1 3.6-4.6 4.2-7.4-3.2-.3-6.4.5-9.2 1.8Zm-131.4 7.3c.6 8.2 1.2 16.4 2.6 24.5-7.7 2.4-15.5 4.7-23.2 7.1 5 5.3 10.4 10.2 16.2 14.5 14.6 10.8 31.6 18.1 49.2 22.3 18.3 4.4 37.3 5.8 56 4.9 15.2-.8 30.4-3.2 44.9-7.9 11.2-3.6 22-8.5 31.9-14.9 8.3-5.3 15.9-11.7 22.6-18.9-7.7-2.4-15.5-4.6-23.2-7.1 1.4-8.1 2.1-16.3 2.6-24.5-3 2.4-6.1 4.7-9.2 6.9-13.1 9.4-27.4 17.4-43 21.6-12.1 3.4-24.7 4.2-37.2 4.3-12 0-24.1-.7-35.8-3.7-9.4-2.3-18.5-6.1-27.1-10.7-9.7-5.2-18.7-11.6-27.4-18.4Zm33.4 1.3c1.6 3.4 4.5 6 7.7 7.8 1.6.8 3.6 1.4 5.2.4 1.6-1.1 2.5-3.5 1.4-5.2-1.1-1.6-2.9-2.4-4.7-2.9-3.1-.9-6.5-1.1-9.6-.1m99 2.4c-2 2-.5 5.9 2.2 6.2 1.7.2 3.3-.5 4.7-1.3 2.9-1.8 5.6-4.2 7-7.4-2.2-.7-4.6-.7-6.8-.4-2.5.4-5.3 1-7.1 2.9M12.2 248.5c5.7-1.8 11.4-3.5 17.1-5.2-.8-6-1.5-12.1-1.9-18.2-5.2 7.7-10.1 15.6-15.2 23.4m200.5-23.3c-.5 6.1-1.1 12.1-2 18.1 5.7 1.7 11.4 3.5 17.2 5.2-5.1-7.8-10.1-15.6-15.2-23.3m-152.9 8.3c1.6 2 3.6 3.6 5.9 4.8 2.1 1.1 4.5 2 6.9 1.6 2.6-.5 3.8-4.3 1.9-6.2-1.5-1.5-3.8-1.8-5.8-2-3 0-6.2.2-8.8 1.8Zm106.3-.3c-2.2 1.6-1.6 5.4.8 6.4 1.6.6 3.3.3 4.8-.2 3.3-1.1 6.4-3.1 8.6-5.9-1.9-1.2-4.2-1.6-6.4-1.8-2.6-.1-5.6 0-7.8 1.5M12.3 261.1c35.9 55.3 71.9 110.5 107.8 165.8 36.9-56.7 73.7-113.5 110.6-170.1-1.6 1.4-3 3-4.6 4.4-12.4 11.4-27.2 20.1-43 25.9-.5 3.6-1.6 7.3-3.9 10.2-2.4 3-6.1 4.9-9.8 5.6 1.5 3.8 2.8 7.9 2.7 12 0 3.6-1.1 7.3-3.5 10-3.1 3.5-7.5 5.5-11.9 6.6-1-5.3-3.1-10.6-6.9-14.5-3.1-3.2-7.5-5-11.9-5.6-1.8-.2-4-.3-5.4 1.2-1.6 1.9-1.9 4.6-1.9 7.1 0 7 3.9 13.5 9.4 17.7 4.5 3.4 10.1 5 15.7 5-.4 1.8-.8 3.6-1.2 5.5-1.1 3.8-2.4 7.7-5.2 10.6-2.2 2.3-5.3 3.6-8.5 3.7-2.9.2-5.6-.9-8.2-2-2.6-1.2-5.1-2.6-7.5-4 .6 2.7.9 5.4 1.2 8.2 1 11.4-.6 23.3-6.2 33.4-1.4-2.5-2.5-5.1-3.5-7.8-3.6-10.8-3.8-22.6-1.5-33.8-3.5 2-7 4.1-10.9 5.4-2.8 1-5.9.9-8.7 0-2.7-.9-4.9-2.9-6.5-5.3-2.6-4.1-3.7-9-4.6-13.7 6 0 12.2-2 16.8-5.9 5.7-4.8 9.3-12.5 8-20-.4-2.1-1.5-4.7-4-5-3.3-.4-6.6.5-9.6 1.9-3.1 1.3-5.7 3.7-7.6 6.5-2.4 3.5-3.8 7.6-4.6 11.8-3.9-1-7.7-2.6-10.7-5.3-2.9-2.5-4.6-6.3-4.8-10.1-.3-4.6 1-9 2.7-13.2-3.3-.6-6.5-2.1-8.8-4.5-3-3-4.3-7.2-4.9-11.3-17.7-6.5-34.2-16.6-47.4-30.2.7 1.5 1.8 2.8 2.7 4.3Z" class="st0"></path><path d="M107.4 210.9c3.8-1 7.7-1.9 11.7-2 5.7 0 11.4 1.2 16.5 3.5-2.8 1.1-5.5 2.1-8.3 3.1-.8.4-1.8.2-2.7.2-2.7 0-5.3-.1-7.9-.2-.6 0-1.1-.2-1.6-.5-2.6-1.4-5.2-2.7-7.7-4.1m1.8 16.2c1.3-4.2 4.1-7.6 7.4-10.4 2.9.1 5.8.1 8.7.3.8.4 1.4 1.1 2 1.7 2.6 2.5 4.8 5.4 5.9 8.9-1.4 2-2.7 4.2-4.1 6.3h-15.3c-1.6-2.3-3.1-4.6-4.7-6.9Zm-66 16.4c0-.1.3-.4.4-.6 3.5 1.9 7 3.6 10.5 5.4-.5.9-1.3 0-2 0-1-.1-1.6.8-2 1.5-1.3 2.4-2.5 4.9-3.8 7.4 4-.9 8-1.7 11.9-2.6.7-.2 1.7-.5 1.9-1.4 0-1.2-1.2-1.6-2-2.1l.4-.4c2.8 1.3 5.4 2.8 8.2 4.1 0 .1-.2.4-.2.6-1-.4-2.1-.6-3.2-.3q-5.7 1.05-11.4 2.4c1 4.6 1.9 9.2 2.9 13.8.2.9.4 1.9.9 2.8.6.6 1.4 1.1 2 1.7-.9 2.1-1.8 4.1-2.8 6.2-.5-.2-.9-.4-1.3-.6.7-2.2.2-4.6-.9-6.6-.2-.5-.7-.7-1.2-1-1.8-1-3.6-2.1-5.4-3 .2-.8 1-.3 1.5-.2.4.1.9-.2 1-.6.1-1-.1-2.1-.3-3.1-.6-2.8-1.1-5.6-1.7-8.3-.4.1-.8.2-1.1.3-1.2 2.4-2.5 4.7-3.6 7.2-.7 1.3.8 2.3 1.7 2.9v.3l-.3.1c-3.5-1.8-7.1-3.6-10.6-5.4.7-.9 1.5.3 2.4.3 1.3.2 1.9-1.1 2.4-2 2.6-5.1 5.3-10.2 7.8-15.4.8-1.5-.9-2.7-2.1-3.2Zm133.5 9.9c6.1-3.4 12.3-6.8 18.4-10.3 1 1.6 1.8 3.3 2.8 4.9.2.3.6.9 0 1-1.2-1-2.3-2.3-3.9-2.6-1.8-.4-3.4.9-4.9 1.6 3.2 5.6 6.2 11.3 9.4 16.9.5 1 1.8 1.4 2.8.9.5-.1 1.1-.9 1.5-.3-.2.3-.6.5-.9.7-3.3 1.8-6.6 3.7-9.9 5.5 0-.1-.2-.4-.2-.5.8-.6 2-1 2.1-2.2 0-.9-.5-1.6-.9-2.4-2.9-5.3-5.9-10.6-8.8-15.9-1.6.9-3.6 1.7-4.1 3.6-.5 1.4 0 2.9.3 4.4-.1 0-.4.1-.5.2-1.1-1.8-2.1-3.7-3.1-5.6Zm-70.2 3.5c.6-.4 1.5-.3 2 .2.7.6.3 1.6.4 2.3 0 .6.6 1 1.1 1.1.8.2 1.8.4 2.6.1 1-.6.5-2.1 1.3-2.8s2.2-.4 2.6.6c.4 1.2 0 2.7-1.3 3.1-1.7.5-3.5.4-5.3.3-1.4-.2-3.1-.3-4-1.6-.6-1-.5-2.6.6-3.3m56.9 4.3c.3-1.5.4-3 .8-4.5 4.9 5.8 9.5 11.9 14.4 17.7.9 1.1 2.1 2.2 3.6 1.9 0 .1.1.4.2.5-3.5.9-7 1.9-10.4 2.8-.4.2-.7 0-.9-.4 1-.3 3-.7 2.4-2.2-.9-1.4-2-2.7-3-4-2.6.8-5.3 1.4-8 2.2-.2 1.7-.9 3.5 0 5.1.8 1.1 2.2.5 3.4.4 0 .1 0 .4-.1.6-2.4.7-4.9 1.4-7.3 2-.6-.2-.1-.7.2-.9 1.4-.8 1.7-2.4 2-3.9 1-5.8 1.9-11.6 2.8-17.5Zm.7 4c-.5 2.9-.9 5.9-1.4 8.8l6.6-1.8c.5 0 0-.5 0-.7-1.7-2.1-3.3-4.3-5.1-6.3Zm-95.5 10.4c4.5-5.7 9-11.5 13.5-17.1.2.4.3.8.3 1.3 1.1 6.6 2.3 13.3 3.4 19.9.2 1.2.4 2.4.9 3.4.3.7 1 1 1.6 1.4l-.2.5c-3.6-1-7.3-1.8-10.9-2.8v-.6c.9.1 1.9.6 2.8.1.6-.5.4-1.4.3-2-.2-1.2-.3-2.5-.7-3.7-2.6-.8-5.3-1.3-8-2-1 1.3-2.4 2.6-2.6 4.3.2 1.3 1.7 1.6 2.7 2 0 .1-.2.5-.3.6-2.6-.8-5.2-1.2-7.7-2.1.5-.7 1.5-.4 2.2-.8 1.1-.5 1.8-1.5 2.6-2.4Zm4-2.7c2.3.5 4.6 1.1 6.9 1.7-.5-2.9-1-5.8-1.4-8.7-1.9 2.3-3.7 4.7-5.5 7m57.6-9.8c3.5-.3 7-.6 10.6-.9 2.1-.1 4.4-.1 6.4.8 2 1 3.5 3.2 3.3 5.5 0 2.4-1.7 4.5-3.9 5.5-2.1.9-4.3 1-6.5 1.2.2 2.5.4 4.9.6 7.4.1.7.1 1.5.8 2 .8.6 1.8.4 2.6.4v.6c-4 .3-8.1.8-12.1 1 .3-1 1.7-.5 2.4-1.2.8-.5.8-1.6.7-2.5-.5-5.5-1-11-1.4-16.5-.2-.8 0-1.9-.9-2.4-.8-.5-1.8-.3-2.6-.3zm8.8.6.9 10.2c1.3 0 2.7-.2 3.7-1.2 1.1-1.1 1.3-2.8 1.2-4.2-.1-1.5-.5-3.2-1.8-4.2-1.1-.8-2.6-.7-3.9-.6Zm-41.3-1.2c4.1.1 8.2.3 12.3.4v.6c-1.3-.2-3.3 0-3.4 1.7-.2 4.7-.3 9.5-.5 14.2 2.8-3.7 5.3-7.6 8-11.4.3-.5.8-1 .8-1.6 0-.8.1-1.8-.7-2.3-.7-.6-1.7-.5-2.5-.6v-.6c4 .1 8.1.3 12.1.4v.5c-.9.1-2.3-.1-2.9.9-.6 1.2-.3 2.7-.5 4-.1 5.2-.4 10.4-.5 15.5 0 1.2 1.2 1.9 2.2 1.9.4.1 1.3-.2 1 .7-4.2-.1-8.3-.3-12.4-.4v-.6c1-.1 2.1 0 2.8-.5.8-.6.7-1.8.8-2.6.1-4.4.3-8.7.4-13-2.8 3.9-5.5 7.9-8.3 11.8-.7.8-.6 2.1-.3 3.1.6 1.2 2.1 1.2 3.2 1.3 0 .1-.2.4-.3.5-4-.1-8-.2-12-.4 0-.1-.2-.4-.2-.6.9 0 2 .1 2.8-.5.6-.5.7-1.3.7-2 .2-5.6.4-11.1.6-16.7 0-.8.2-1.7-.4-2.3-.7-.8-1.8-.7-2.8-.8z" class="st0"></path><path d="M115.4 23.2c1.6-4.7 2.9-9.4 4.6-14 1.4 4.5 2.9 9 4.3 13.5.2.8.6 1.6 1.2 2 .8.6 1.9.7 2.9.7h13.7l-12 8.7c-.8.5-1.1 1.5-1.2 2.4 0 .9.4 1.7.7 2.6 1.4 4.2 2.7 8.3 4.1 12.5-4-2.9-7.9-5.8-11.9-8.7-1.1-.8-2.8-.7-3.9.1-3.9 2.9-7.8 5.7-11.8 8.6l4.5-13.8c.6-1.3.1-3.1-1.1-3.9-3.9-2.9-7.9-5.7-11.8-8.6H112c1.4 0 2.9-.8 3.4-2.2ZM1.1 254.7c39.7-62.4 79.3-124.7 119-187.1 4.3 7 8.8 13.9 13.2 20.9 19 29.9 38.1 59.9 57.1 89.8 16.6 26.2 33.3 52.3 49.9 78.5l.2-.3c-2.9 4.2-5.5 8.6-8.3 12.8-36.3 55.8-72.6 111.6-108.8 167.5-1.1 1.7-2.3 3.3-3.2 5.1h-.2c-.6-1.1-1.2-2.1-1.9-3.2C79.2 378.9 40.2 319 1.4 259.1c-.5-.8-1.1-1.5-1.4-2.4.2-.8.7-1.4 1.1-2.1Zm.9 2.1c12.9 19.8 25.8 39.7 38.7 59.6 26.4 40.7 52.9 81.4 79.3 122 .7-1 1.3-2 1.9-2.9C160.6 376 199.3 316.4 238 256.8 198.6 194.9 159.3 133 119.9 71.2 80.7 133 41.4 194.9 2 256.8" class="st1"></path><path d="M120.1 82.6c29.4 45.2 58.8 90.5 88.2 135.7-4.9 3.9-10 7.6-15.1 11.1-24.4-37.5-48.7-74.9-73-112.4-12.4 18.9-24.6 37.8-36.9 56.8-12.1 18.6-24.1 37.1-36.2 55.7-5.2-3.5-10.2-7.2-15.1-11.1 29.4-45.2 58.8-90.5 88.2-135.7Z" class="st1" data-source="https://football-logos.cc"></path><path d="M116.2 194.9c.4-3.4 1.6-6.8 3.9-9.4 2.2 2.5 3.3 5.8 3.8 9.1.2 1.8.2 3.7-.8 5.2-1.2 1.8-3.9 2-5.5.7-1.5-1.4-1.6-3.7-1.4-5.6m-7.9-8.3c2.7 2 4.3 5 5.4 8 .6 1.7.9 3.6.4 5.3-.8 2.7-5 3.3-6.5.9-1.5-2.3-1.5-5.3-1.2-8 .3-2.2.8-4.3 1.9-6.2m18.4 7.1c1.2-2.7 2.8-5.3 5.1-7.2 1.7 2.9 2.2 6.2 2 9.5-.1 1.8-.5 3.8-1.8 5.1-1.8 1.9-5.4 1-6.2-1.5-.6-2 0-4.1.8-6Zm-30.6 1.8c0-1.9.1-3.8.8-5.5 3.2 1.7 5.7 4.6 7.3 7.8.7 1.4 1.2 3 .8 4.6-.4 1.7-2.2 2.7-3.9 2.7-1.5 0-2.7-1.1-3.3-2.4-1.2-2.2-1.6-4.7-1.7-7.2m41.5-.6c1.5-2 3.4-3.8 5.6-5 1.2 3 1 6.3.3 9.3-.4 1.8-1.1 3.7-2.6 4.9-2.1 1.9-6.1 0-6-2.9 0-2.4 1.3-4.6 2.7-6.4Zm-49.8 9.5c-1.2-2.8-1.8-6-1.4-9 3.4 1 6.3 3.3 8.5 6 1.2 1.5 2.2 3.4 1.7 5.4-.7 2-3.3 3.3-5.2 2.3-1.8-1-2.8-2.8-3.6-4.6Zm61-6.5c1.5-1.1 3.1-2 4.9-2.5.5 3.4-.4 6.9-1.9 10-.8 1.5-1.9 3.1-3.5 3.8-2.5 1-5.7-1.7-4.9-4.4.8-2.9 3.1-5.1 5.4-6.9m-71.7 4.9c2.8.2 5.5 1.4 7.8 3 1.8 1.2 3.6 2.7 4.2 4.9.8 2.6-2.2 5.5-4.8 4.5-2-.8-3.4-2.5-4.5-4.3-1.5-2.4-2.7-5.2-2.7-8.1m77.7 3.2c2.4-1.6 5.2-3 8.2-3.2 0 2.8-1.2 5.5-2.6 7.9-1.2 1.8-2.6 3.6-4.7 4.4-2.6 1-5.7-1.9-4.8-4.6.6-2 2.3-3.4 3.9-4.6Zm-34.9 2.2c10.7 0 21.2 4.7 28.4 12.6 6.3 6.7 10.1 15.7 10.5 24.9-.2 0-.5.2-.7.2-.3-8.8-3.8-17.3-9.6-23.9l-1.2 9c-.2.7.3 1.3.6 1.9.9 1.8 1.8 3.7 2.2 5.6.3 1.2.3 2.5.5 3.7 1.5 1.6 3.2 3 4.7 4.6-3.1.9-6.3 1.5-9.5 2 1.1-1.6 2.3-3.2 3.2-4.9.3-.6.1-1.2.2-1.8-.1-2.6-.7-5.3-1.9-7.7-.4-.8-.8-1.7-1.6-2.2-2.1-1.4-4.3-2.8-6.8-3.3-1.5-.4-3-.4-4.5-.4-1.4 2-2.8 4.2-4.1 6.3 1.5 4.6 2.9 9.2 4.4 13.8.2.7.9 1 1.3 1.4-10.9.5-21.8 1.2-32.7.2 1.4-.6 3-1 4.5-1.5 1.7-4.7 3.1-9.4 4.8-14.1-1.5-2.2-2.9-4.4-4.5-6.5-4.9.2-9.9.5-14.6 1.7-1.4 3.9-2.4 7.9-2.9 12 2 2.7 4.2 5.4 6.7 7.8-4.3-.5-8.5-1.3-12.7-2.3 1.5-1.8 3.1-3.6 4.6-5.4.3-.8.2-1.7.4-2.5.6-3.5 1.6-6.9 2.7-10.2-.9-2-1.7-3.9-2.6-5.9-3.5 4.3-6.1 9.3-7.5 14.7q-1.05 4.2-1.2 8.4c-.2-.1-.4-.4-.6-.5.4-10.1 5-19.9 12.4-26.9 7.2-6.8 17.2-10.8 27.1-10.6Zm-12.5 2.7c2.6 1.4 5.2 2.7 7.7 4.1.5.3 1 .5 1.6.5 2.7 0 5.3.1 7.9.2.9 0 1.8.1 2.7-.2 2.8-1.1 5.5-2 8.3-3.1-5.2-2.3-10.9-3.6-16.5-3.5-3.9.1-7.8 1-11.7 2m1.8 16.2c1.7 2.2 3.2 4.6 4.7 6.9h15.3c1.4-2.1 2.6-4.2 4.1-6.3-1.1-3.5-3.3-6.5-5.9-8.9-.7-.6-1.2-1.3-2-1.7l-8.7-.3c-3.3 2.7-6.2 6.2-7.4 10.4Zm-39.9-15.3c3.5-.4 7.1.7 10.1 2.4 1.5.9 3.1 2.1 3.6 3.9.5 2.3-1.7 5-4.2 4.6-2.1-.4-3.7-1.8-5.1-3.2-2-2.1-3.7-4.7-4.4-7.5Zm92.3 1.8c2.9-1.3 6-2.1 9.2-1.8-.7 2.8-2.3 5.3-4.2 7.4-1.4 1.5-3.1 2.9-5.2 3.3-2.7.6-5.2-2.8-3.9-5.2.9-1.7 2.6-2.8 4.2-3.6Z" class="st1"></path><path d="M30.2 220.9c8.7 6.8 17.7 13.2 27.4 18.4 8.6 4.6 17.6 8.4 27.1 10.7 11.7 2.9 23.8 3.7 35.8 3.7 12.5 0 25.1-.9 37.2-4.3 15.6-4.2 29.9-12.2 43-21.6 3.1-2.2 6.2-4.6 9.2-6.9-.6 8.2-1.3 16.4-2.6 24.5 7.7 2.4 15.4 4.7 23.2 7.1-6.7 7.2-14.3 13.6-22.6 18.9-9.9 6.4-20.7 11.3-31.9 14.9-14.5 4.6-29.7 7.1-44.9 7.9-18.8 1-37.7-.5-56-4.9-17.6-4.2-34.6-11.5-49.2-22.3-5.9-4.3-11.2-9.2-16.2-14.4 7.7-2.4 15.5-4.6 23.2-7.1-1.4-8.1-2-16.3-2.6-24.5Zm13 22.6c1.2.5 2.9 1.6 2.1 3.2-2.5 5.2-5.2 10.3-7.8 15.4-.5.9-1.1 2.3-2.4 2-.8 0-1.7-1.2-2.4-.3 3.5 1.9 7.1 3.6 10.6 5.4h.3v-.5c-1-.6-2.4-1.6-1.7-2.9 1.1-2.5 2.4-4.8 3.6-7.2.4-.1.7-.2 1.1-.3.6 2.8 1.1 5.5 1.7 8.3.2 1 .4 2.1.3 3.1 0 .4-.6.8-1 .6-.5 0-1.3-.5-1.5.2 1.9.9 3.6 2 5.4 3 .4.3.9.5 1.2 1 1.1 2 1.7 4.4.9 6.6.5.2.9.4 1.3.6.9-2.1 1.8-4.1 2.8-6.2-.7-.5-1.4-1-2-1.7-.5-.8-.7-1.8-.9-2.8-1-4.6-1.9-9.2-2.9-13.8l11.4-2.4c1.1-.3 2.2 0 3.2.3 0-.1.2-.4.2-.6-2.7-1.4-5.4-2.8-8.2-4.1 0 .1-.3.3-.4.4.8.6 2.1 1 2 2.1-.2.9-1.2 1.1-1.9 1.4-4 .9-8 1.7-11.9 2.6 1.3-2.4 2.5-4.9 3.8-7.4.4-.7 1-1.6 2-1.5.7 0 1.5.9 2 0l-10.5-5.4c0 .1-.3.4-.4.6Zm133.5 9.9c1 1.9 2 3.7 3.1 5.6.1 0 .4-.1.5-.2-.2-1.4-.8-2.9-.3-4.4.6-1.9 2.6-2.7 4.1-3.6 2.9 5.3 5.9 10.6 8.8 15.9.4.8.9 1.5.9 2.4-.1 1.1-1.3 1.6-2.1 2.2 0 .1.2.4.2.5 3.3-1.8 6.6-3.7 9.9-5.5.3-.2.7-.3.9-.7-.4-.6-1 .1-1.5.3-1 .5-2.3.2-2.8-.9-3.2-5.6-6.3-11.3-9.4-16.9 1.6-.7 3.1-2.1 4.9-1.6 1.6.3 2.7 1.6 3.9 2.6.6-.2.2-.7 0-1-.9-1.6-1.8-3.3-2.8-4.9-6.1 3.5-12.3 6.9-18.4 10.3Zm-70.2 3.5c-1.1.7-1.1 2.3-.6 3.3.9 1.3 2.6 1.5 4 1.6 1.8.1 3.6.2 5.3-.3 1.3-.4 1.7-1.9 1.3-3.1-.4-1-1.8-1.2-2.6-.6-.8.7-.3 2.2-1.3 2.8-.8.2-1.8 0-2.6-.1-.5-.1-1.1-.5-1.1-1.1 0-.8.3-1.7-.4-2.3-.5-.5-1.4-.6-2-.2m56.9 4.3c-.9 5.8-1.9 11.6-2.8 17.5-.3 1.4-.6 3.1-2 3.9-.3.1-.9.7-.2.9 2.4-.6 4.9-1.3 7.3-2 0-.1 0-.4.1-.6-1.1 0-2.6.7-3.4-.4-.8-1.6 0-3.4 0-5.1 2.7-.7 5.3-1.4 8-2.2 1 1.3 2.2 2.6 3 4 .6 1.5-1.4 1.9-2.4 2.2.2.4.4.6.9.4 3.5-1 7-1.9 10.4-2.8 0-.1-.1-.4-.2-.5-1.6.3-2.8-.8-3.6-1.9-4.8-5.9-9.5-11.9-14.4-17.7-.4 1.5-.5 3-.8 4.5Zm-94.8 14.4c-.8.9-1.5 1.9-2.6 2.4-.7.4-1.7 0-2.2.8 2.5.9 5.1 1.3 7.7 2.1 0-.1.2-.5.3-.6-1-.4-2.5-.7-2.7-2 .2-1.7 1.6-3 2.6-4.3 2.6.8 5.3 1.3 8 2 .3 1.2.4 2.5.7 3.7 0 .7.3 1.5-.3 2-.8.5-1.9 0-2.8-.1v.6c3.6 1 7.3 1.8 10.9 2.8l.2-.5c-.6-.4-1.3-.7-1.6-1.4-.5-1.1-.7-2.3-.9-3.4-1.1-6.6-2.3-13.3-3.4-19.9 0-.4-.2-.9-.3-1.3-4.6 5.7-9 11.4-13.5 17.1Zm61.6-12.5v.6c.9 0 1.8-.2 2.6.3s.8 1.6.9 2.4c.5 5.5 1 11 1.4 16.5 0 .9.1 2-.7 2.5-.7.7-2.1.1-2.4 1.2 4-.2 8.1-.7 12.1-1v-.6c-.9 0-1.9.2-2.6-.4-.7-.4-.7-1.3-.8-2-.2-2.5-.4-4.9-.6-7.4 2.2-.2 4.5-.4 6.5-1.2 2.1-.9 3.9-3 3.9-5.5.2-2.3-1.2-4.5-3.3-5.5-2-1-4.2-1-6.4-.8-3.5.3-7 .6-10.6.9m-32.5-.6v.6c1 0 2.1 0 2.8.8.6.6.4 1.5.4 2.3-.2 5.6-.3 11.1-.6 16.7 0 .7-.1 1.5-.7 2-.8.6-1.9.5-2.8.5 0 .1.2.4.2.6 4 .2 8 .3 12 .4 0-.1.2-.4.3-.5-1.1-.1-2.6 0-3.2-1.3-.2-1-.4-2.2.3-3.1 2.8-3.9 5.5-7.9 8.3-11.8-.2 4.3-.3 8.7-.4 13 0 .9 0 2-.8 2.6-.7.6-1.8.4-2.6.5v.6c4 .1 8.2.3 12.3.4.2-.9-.6-.6-1-.7-1.1 0-2.3-.7-2.2-1.9 0-5.2.3-10.4.5-15.5.2-1.3-.1-2.8.5-4 .7-1 2-.8 3.1-.9v-.5c-4.2-.2-8.2-.3-12.2-.4v.6c.8.1 1.8 0 2.5.6.8.5.6 1.5.7 2.3 0 .6-.4 1.1-.8 1.6-2.7 3.8-5.2 7.7-8 11.4.2-4.7.3-9.5.5-14.2 0-1.7 2.1-1.9 3.4-1.7v-.6c-4.1-.1-8.2-.3-12.3-.4Z" class="st1"></path><path d="M63.6 222.2c3.1-1 6.5-.7 9.6.1 1.8.6 3.7 1.3 4.7 2.9 1.2 1.7.3 4.1-1.4 5.2-1.6 1-3.7.4-5.2-.4-3.2-1.8-6.2-4.4-7.7-7.8m99 2.4c1.9-1.9 4.6-2.5 7.1-2.9 2.3-.3 4.6-.3 6.8.4-1.4 3.1-4.1 5.6-7 7.4-1.4.8-3.1 1.5-4.7 1.3-2.7-.3-4.2-4.2-2.2-6.2M12.2 248.5c5.1-7.8 10.1-15.6 15.2-23.4.4 6.1 1.1 12.1 1.9 18.2-5.7 1.7-11.4 3.4-17.1 5.2m200.5-23.3c5.1 7.8 10.1 15.6 15.2 23.3-5.7-1.7-11.4-3.5-17.2-5.2.9-6 1.5-12.1 2-18.1m-152.9 8.3c2.6-1.6 5.8-1.9 8.8-1.8 2 .1 4.3.5 5.8 2 1.9 1.9.8 5.7-1.9 6.2-2.4.4-4.8-.5-6.9-1.6-2.3-1.2-4.3-2.8-5.9-4.8Zm106.3-.3c2.2-1.6 5.1-1.7 7.8-1.5 2.2.2 4.5.6 6.4 1.8-2.1 2.8-5.2 4.8-8.6 5.9-1.5.5-3.3.8-4.8.2-2.4-1-3-4.8-.8-6.4M12.3 261.1c-.9-1.5-1.9-2.8-2.7-4.3C22.8 270.4 39.3 280.5 57 287c.6 4.1 1.9 8.3 4.9 11.3 2.4 2.4 5.6 3.9 8.8 4.5-1.7 4.2-3 8.6-2.7 13.2.2 3.8 1.9 7.6 4.8 10.1 3 2.7 6.8 4.3 10.7 5.3.8-4.2 2.2-8.2 4.6-11.8 1.9-2.8 4.4-5.2 7.6-6.5 3-1.3 6.3-2.3 9.6-1.9 2.4.3 3.6 2.9 4 5 1.3 7.5-2.3 15.2-8 20-4.6 4-10.7 5.9-16.8 5.9 1 4.7 2 9.6 4.6 13.7 1.5 2.4 3.8 4.4 6.5 5.3 2.8 1 5.9 1 8.7 0 3.8-1.3 7.4-3.3 10.9-5.4-2.2 11.1-2.1 22.9 1.5 33.8.9 2.7 2 5.3 3.5 7.8 5.6-10.1 7.2-22 6.2-33.4-.2-2.7-.6-5.5-1.2-8.2 2.4 1.5 4.9 2.8 7.5 4 2.6 1.1 5.3 2.2 8.2 2 3.2 0 6.3-1.4 8.5-3.7 2.8-2.9 4.2-6.8 5.2-10.6.5-1.8.9-3.6 1.2-5.5-5.6 0-11.2-1.6-15.7-5-5.5-4.1-9.3-10.7-9.4-17.7 0-2.5.3-5.1 1.9-7.1 1.3-1.5 3.5-1.4 5.4-1.2 4.4.6 8.8 2.4 11.9 5.6 3.8 4 5.9 9.2 6.9 14.5 4.4-1.1 8.9-3.1 11.9-6.6 2.4-2.7 3.6-6.4 3.5-10 0-4.2-1.2-8.2-2.7-12 3.8-.7 7.4-2.5 9.8-5.6 2.3-2.9 3.4-6.6 3.9-10.2 15.8-5.8 30.6-14.5 43-25.9 1.6-1.4 3-3 4.6-4.4-36.9 56.7-73.7 113.5-110.6 170.1-35.9-55.3-71.8-110.5-107.8-165.8Z" class="st1"></path><path d="M139 263.7c1.3-.1 2.8-.2 3.9.6 1.3.9 1.7 2.6 1.8 4.2.1 1.5 0 3.1-1.2 4.2-1 1-2.4 1.1-3.7 1.2-.3-3.4-.5-6.8-.9-10.2Zm25.1 1.5c1.7 2.1 3.3 4.2 5.1 6.3.1.2.6.6 0 .7l-6.6 1.8c.5-2.9 1-5.9 1.4-8.8Zm-91.5 7.7c1.8-2.4 3.6-4.7 5.5-7 .4 2.9.9 5.8 1.4 8.7-2.3-.6-4.6-1.2-6.9-1.7" class="st1" data-source="https://football-logos.cc"></path><!-- source: https://football-logos.cc --></svg>