<svg xmlns="http://www.w3.org/2000/svg" xml:space="preserve" id="svg108" style="shape-rendering:geometricPrecision;text-rendering:geometricPrecision;image-rendering:optimizeQuality;fill-rule:evenodd;clip-rule:evenodd" version="1.1" viewBox="0 0 156.16 241.59"><!-- Source: https://football-logos.cc --><defs id="defs1" data-source="https://football-logos.cc"><style id="style1" type="text/css">.fil5{fill:#cc1324}.fil3{fill:#d59400}.fil6{fill:#d8b809}.fil1{fill:#e7e7e7}.fil0{fill:#ffde00}.fil4{fill:#fff7d5}.fil2{fill:#000}</style></defs><g id="Layer_x0020_1" data-source="https://football-logos.cc"><g id="_732525616"><path id="path108" d="m0 57.433 156.16-.002-78.09 184.156z" class="fil2" style="fill:#fff;fill-opacity:1"></path><path id="path1" d="m52.32 116.197-.075-1.133c-.226.452-.3.906.076 1.133" class="fil0"></path><path id="path2" d="M52.92 119.748c-.15-.454-.676-.53-1.125-.606-.376.454.449.379.373.832.3 0 .676.529.902 0z" class="fil0"></path><path id="polygon2" d="m52.995 121.031-.376.53.152-.001z" class="fil0"></path><path id="path3" d="M55.621 123.299c-.3-.756.076-1.965-1.126-2.19.677.905.526 1.51 1.126 2.19" class="fil0"></path><path id="path4" d="M53.82 122.467h-.225v.68c.301-.152.15-.453.226-.68" class="fil0"></path><path id="path5" d="M54.797 125.414c-.375-.302 0-.906-.451-1.058.076.378.15.908.45 1.058" class="fil0"></path><path id="path6" d="M56.747 125.64c-.076-.226-.3-.15-.525-.15-.15.377.224.527.525.453z" class="fil0"></path><path id="path7" d="M65.377 113.626c.075-.604-.675-.982-1.126-1.284-.6.68-1.575.907-2.026 1.36-.9.227-1.05 1.284-1.576 1.89-.975.906-2.177-.228-2.926.83-.226.075-.675.228-.901-.075-.3-.378.225-.454 0-.906.976-.908 1.802-.757 3.002-.757 0-.454.6-1.208.75-1.662l-1.576 1.134-1.501-.076c-.45.151-.224.604-.525.906-.375.453-.825-.15-1.126-.301.15-.757.6-1.284 1.201-1.813-.45.074-.676.754-.975.527-.376.832-.976 1.437-.6 2.269-.227.68.974 1.132 1.125 1.737-1.126.226-2.176.075-3.228-.303l.676.605c-1.276.832.6 1.284.075 2.266.451-.225.826.151 1.126.076 1.5.68 1.576 2.797 1.576 4.308.6.679 1.276-.303 1.726-.68.225.226.6.53.75.83-.075 0-.15.227-.3.152v.453c.375.076.751.15 1.2.302.75-.68.45-1.587.226-2.418.15-.68 0-2.191 1.275-2.417 1.052-.53.301-1.664.677-2.644-.376-.228-.45-.53-.375-.908.224-.227.449-.454.825-.377.75-.228.375-.907.224-1.437-.9.304-1.05 1.36-1.425 1.89-.225-.303-.826.075-.9-.53.224-.83.525-1.812 1.35-2.265.6.075 1.351-.455 1.802-.001l.524.53c-.601 2.115 1.575 2.267 2.476 3.777l-.3.227c-.976.68-.975 2.04-1.95 2.796-.9-.756-.076-1.588-.826-2.419-.676 0-.225.68-.375.907-.45.68.375.907.826 1.284a.87.87 0 0 1-.226.605c-.375.605-1.05 0-1.501-.152l.376 1.513c.15.15.599.075.524.453-.376.604-.9 1.134-1.424.378-.301.605-.227 1.358-.376 1.888 1.05.983-.751 1.134-.976 2.115 1.05.908 2.101 1.664 2.927 2.721.6-.378.3-1.058.376-1.587-.226-.982-1.952-2.72-.377-3.4.526.152.902.83 1.276.982v-.15c.526-1.286-.6-2.494.075-3.475.6-.455 1.127.376 1.202.906.3.378-.226.981.45.98.15-.603-.45-1.057.149-1.586-.523-.453.225-.83.3-1.51.3-.303.902 0 1.05.302.002.075-.073.151-.15.076l.15.226c-.598 1.436.077 2.418.152 3.778-.6.605-1.351-.226-1.951-.074-.076 1.131.375 2.342.75 3.399-.6.605-1.05-.68-1.65-.53.299.455.15 1.059.45 1.437.825 1.586.825 4.684 2.85 4.685.226.378 1.201.225.675.982-.224.301-.975.53-1.049.15-.9-.074-.076 1.134-.902 1.285l.601.605-.675 1.058c1.127.076 2.552-.755 3.227-1.813-.15-1.135-.45-2.117-.451-3.326-.374-.3-.826-.603-.975-1.132 0-.304-.074-.908.3-1.134-.3-1.134-1.425-1.89-1.501-3.022.6-.227 1.276.604 1.876.679-1.05-2.191.375-3.778.45-6.044-.674-.983.226-1.966-.524-2.948 0-.376.524-.604.9-.453.375.68.675 1.964.826 2.72.075-.528.15-1.133.6-1.511.15.075.225.303.375.302.15-.225.377 0 .525.151.15.454-.299.605-.225.982-1.126 1.588-1.952 3.024-1.952 5.063 1.276-.15 1.501-1.662 2.628-2.115-.6-1.74.225-3.777-.676-5.365-.3-.83-.225-1.284-.15-2.04-.376-1.209 0-2.494 0-3.93-1.5-1.133-3.152-.226-4.503-.15.75.378.526 1.133.75 1.661-.074.455-.599 1.21.075 1.512.676.756-.375 1.133-.825 1.21-.3-.304-.075-.833-.525-.984-.3-.604-.225-1.207.075-1.812-.374-1.284-1.799-1.36-2.25-2.343z" class="fil0"></path><path id="path8" d="M93.444 99.347c-.526-.226-1.426-.303-1.8 0-1.728-.076-3.228.755-4.205 2.116.226.227-.073.376-.15.604.827-.605 2.028 1.36 2.252-.227.675-.227.826.68 1.35.68.077.68.602 1.361-.075 1.89-.9-.529-.975.754-1.875.3-.75.984-1.576-.828-2.251.153-.225.227-.076.529.15.68l.15-.227.6.605c-.526.226-.15.83-.826.68-.675-.152-1.425-.605-1.425-1.436-1.276 1.284-.376 3.174 0 4.23l1.125-.98c.751-.38 1.652-.077 2.177.074-.15 1.738 1.725 2.268 2.326 3.628.226.68.375 1.436.825 2.115.6 0 1.501.076 2.101-.377.6-1.135-1.125-.906-1.274-1.738.299-1.36 1.425-.076 2.026 0 1.274-.303.225-1.286.374-2.04.376-.756-.3-1.436-.075-2.192.525-.453 1.277-.755 1.952-.982-1.277-1.738.45-3.099 1.2-4.383.075-.454-.75-.377-.374-.83-1.05-.606-1.652-1.588-3.078-1.89 0 .301-.675.454-.15.756.451.679 1.051 1.586.526 2.343-.375.604-.827 1.208-1.501 1.434-.751-.227-1.5.606-2.026-.076.45-.376.675-.905.826-1.434-.077-.907-1.202-.53-1.802-.755-.225-.833.3-1.514.676-2.269.3-.075.75.153 1.05.454-.718 1.304 1.387 1.011 1.498 2.315-.028-.88-.28-1.44-1.123-1.937z" class="fil0"></path><path id="path9" d="M98.697 105.09c.3-.303.45-.907.15-1.21-.226.681-1.351.831-1.125 1.588z" class="fil0"></path><path id="path10" d="M98.847 106.373c-.45.53-.75-.378-1.05-.454.6.303 0 .832.599 1.058.226-.301.677-.152.6-.603z" class="fil0"></path><path id="path11" d="M96.446 108.79v-.376h-.15l-.076.529c.151.15 0 .376.076.453v-.493c.05-.044.098-.114.15-.112" class="fil0"></path><path id="path12" d="M98.247 109.244c-.226 0-.676 0-.524.302.224 0 .597-.074.524-.302" class="fil0"></path><path id="path13" d="M87.44 109.622c-.974-.528-1.201 1.738-2.025.453.075.832-.226 2.343.224 3.25.45-.455.75-1.058 1.127-1.511 2.25.075-.226 1.737.224 2.568l.6-1.133c.225 0 .75-.228.977.227-.526 1.586 1.5 3.324-.377 4.533-.3.529.227.982-.374 1.284-.226.075-.6.226-.675-.074-1.427-1.21 1.425-1.965.299-3.552-.15 1.057-1.2.83-1.576 1.662a2.17 2.17 0 0 0-.374 1.586c-1.05 2.04-1.652 4.005-1.652 6.12.751.908.45 2.191 1.276 2.948.45.151.825.756 1.276.605.45-.908-.45-.454-.751-.908-.675-.755-.75-1.51-.676-2.418.902-.983-1.125-1.435-.373-2.342.75-.756 1.35.528 1.874.982-.149.908-.6 1.588-.149 2.418.525-.68-.6-1.888.675-2.116 1.35-.15.45 1.513.6 2.192.376 1.436 2.101 1.51 2.853 2.72 1.2.755.825 2.266 1.8 3.25l.15-.378c.225.15.901 0 1.125.3-.45 1.362-1.2 3.024-.225 4.307.45-.376 0-.906.301-1.208.526 0 1.275-.226 1.35.604 1.126.757.225-.982.902-1.435.376-.151.3.68.75.227.9-1.057-.6-1.586-1.05-2.418-1.278-2.191-2.402-4.76-4.503-6.498l.15-.303c-.976-1.662.15-3.4.45-4.91 1.875-.831 0 1.587 1.876 1.36-.3.756-.751 1.435-1.426 1.889.076.528-.375 1.284.301 1.737 1.275-.15 2.026-.226 3.002-.906.45-.604.6-1.512.525-2.19.3-.38 0-1.437.9-1.362.751.151.374.755.525 1.209 1.2-.528 1.05 1.133 1.276 1.738l.751-1.434c-.527-.756-.45-1.662-.227-2.493.451.075 1.426-.076 1.2.453.376-.604.602-1.511 1.278-2.191.824-.604 2.325-.68 3.076-.604.15-.68-.9-.832-1.275-1.284v.301c-.901.604-2.026-.075-2.777.908-.3-.227-.6-.605-.75-.983-.375 1.435-2.177 1.889-2.853 3.173l-.825-.832c.45-.226.601-.68.6-1.133-.375-.528.001-1.587-.525-2.266.15-.302.3-1.21.976-.907.225.151.3.377.375.605l.45-.378c0-.605-.374-1.285 0-1.813.376-.68.977-.001 1.202.377l-.301-1.36c-.675-.454-.074-2.19-1.426-1.36l.15 1.586c-.375 1.21-.975 2.569-2.176 3.023.75.454-.15.83-.45 1.134-1.202.755-2.477 0-3.452-.68-1.876-.983-.976-3.175-2.478-4.157-.374.454-1.124.378-1.499-.151.15-.074.149-.226.148-.453-.374-.076-.674.075-.974-.454 0-.454.3-.906.6-1.134z" class="fil0"></path><path id="polygon13" d="M92.318 81.289v.15h.3z" class="fil1"></path><path id="path14" d="M95.095 81.439c-.15-.226-.45-.077-.524.076.224-.076.525.075.524-.076" class="fil1"></path><path id="polygon14" d="m90.367 81.44-.3-.001.3.15z" class="fil1"></path><path id="path15" d="m101.698 80.23-.75-.906c-4.352-.077-9.456.076-13.507-.076-1.052.151-1.502 1.208-1.426 2.192.224.225.599.83.975.905.826.227 1.126-.377 1.5-.906.001-.378-.374-.68-.75-.605l.375.378c-.3.302-.6.68-.9.831-.375-.378-.825-.982-.676-1.511.45-.378.677-.83 1.202-.907.6.227 1.276.075 1.725.681l9.081-.075c.3-.454.825-.68 1.276-.757.45.302 1.2.152 1.425.832-.075.453.225 1.359-.525 1.587-.45-.077-1.125-.53-.826-1.134-.075 0-.224-.001-.3.075-.45.453 0 1.057.452 1.285.524-.076 1.123.227 1.574-.226-.075-.53.45-1.06.076-1.663z" class="fil1"></path><path id="path16" d="M64.326 81.59c-.075-.152-.375-.151-.375.075.15 0 .375.076.375-.075" class="fil1"></path><path id="path17" d="M66.653 81.59c-.075-.229-.226 0-.375 0l.225.15z" class="fil1"></path><path id="path18" d="M59.75 81.59h-.45c-.15.3.448.151.45 0" class="fil1"></path><path id="path19" d="M62.075 81.666c-.149 0-.376-.151-.45 0z" class="fil1"></path><path id="path20" d="M97.271 93.301c.447.526.895 1.5 1.637 1.882a1 1 0 0 1-.211.083c.074.074.15 0 .21-.083.5-.28.031-.87.164-1.277-.373-1.059.451-2.268-.15-2.947-3.826 1.889-9.005 2.643-13.432 2.495-.075.378.075.832.3 1.21.374-.152.825-.077 1.126-.379.75.076.225.756.674.983l.15-.152c.152-.227-.075-.454-.299-.68.224-.075.374-.453.75-.302.676.226 1.35-.302 1.95-.15-.374.604-.074 1.284.152 1.813l.75-.228.15.605c-.15.529-.676.454-1.126.528-2.026.381-.224-1.132-1.125-2.039-.9.604-.075 2.342-1.5 2.418l-1.203-2.04h-.299c.075.982-.6 1.586-.45 2.568 3.001.077 6.378-.83 9.155-1.132.225-.301.301.15.451.074.675-.603 1.8-.225 2.55-.755v-.15l.75-.076c.001-.076.226-.227 0-.302-.524.15-1.424.301-1.2-.453-.15.074-.3-.076-.375.075.15.226.301.453 0 .755-1.2 0-2.251.302-3.227.378.151-.68.075-1.662-.3-2.266-.376.15.15.378-.15.529-.224.302-.375-.002-.6-.077-.076.606-.076 1.284.45 1.89-.45.15-1.126.453-1.575.076.375-.53.073-1.285-.076-1.815-.15.076-.3.303-.45.302-.15-.075-.526-.3-.376-.527.825-.907 2.702-.53 3.977-1.059.225-.075.376.453.526 0l.225.227c.225.453.224.831.075 1.36 1.502.908.375-1.36 1.351-2.116.376-.002.526.452.6.754z" class="fil1"></path><path id="path21" d="M71.155 80.984c-.224-.454-.15-1.134-.825-1.36-4.579-.377-9.23-.075-14.408.076l-.3.53c-.15.68-.751 1.661.149 2.19.675.152 1.277.15 1.726-.226.15-.303.45-.832.075-1.134-.15 0-.449-.076-.45.075l.15.378c-.3.15-.3.755-.75.604-.3-.15-.375-.453-.6-.68.15-.68.074-1.359.9-1.586.6.528 1.35-.227 1.65.68 1.802.226 4.43-.151 6.38 0 1.276-.227 2.926.528 3.902-.68.45 0 1.201 0 1.576.378.375.755.15 1.435-.525 1.889-.375-.302-.825-.831-.602-1.133-.674-.076.001.528-.45.679.226.68.826 1.059 1.501.756.828 0 .601-.98.901-1.436z" class="fil1"></path><path id="path22" d="M65.152 93.528c-2.25-.302-4.652-1.057-6.603-1.813-.225 1.511.075 3.325-.226 4.91.226-.15.752 0 1.126.077 2.401.605 5.403 1.284 7.88 1.36l.075-.68c.374-1.285 2.25-1.436 1.727-3.022l-1.953-.227c-.6-.076-1.575-.227-2.026-.605" class="fil1"></path><path id="path23" d="M98.073 96.92c-1.791.38-3.751.924-5.378 1.066l1.5.227c1.276.606 2.101 1.06 3.376 1.814l.502.505z" class="fil1"></path><path id="path24" d="M59.073 103.728v5.093c.182.863 1.575-.136 2.102.724.6.075 1.2.301 1.726-.302.824-2.343 1.2-4.157 1.951-6.498.675-1.286 2.4-1.813 2.101-3.552-2.776-.227-5.179-.68-7.88-1.36.06.817.037 1.583.001 2.346z" class="fil1"></path><path id="path25" d="M67.779 113.25v-6.198c-1.5 1.21-1.951 3.024-2.477 4.534 1.051.38.9 2.419 2.476 1.663z" class="fil1"></path><path id="path26" d="M59.073 82.883v7.76c1.066.894 2.743.66 3.603 1.524l.225-.151c1.763.223 2.81 1.025 4.544.986V82.69c-.226-.107-.546.312-.867.184-1.125-1.21-2.4.756-3.301-.302-.526-.228-.826.453-1.352.378-.953-.81-1.833.033-2.852-.067" class="fil1"></path><path id="path27" d="m98.072 89.99-.001-7.401c-.542.228-1.084-.032-1.626-.167-.675-.227-1.426.529-2.1.075-.752-.68-1.202.604-1.953.151-.877-1.032-1.9.453-2.716.034v9.466c.423.358.782-.055 1.14-.056 2.712-.59 4.85-.891 7.256-2.101" class="fil1"></path><path id="path28" d="M87.72 77.575c.074.186.197.374.321.54l10.055-.076c.589-.329 1.915.43 2.101-.463z" class="fil1"></path><path id="path29" d="M69.43 77.574H56.887c-.068.272.32.574.384.766 3.603.227 7.13-.151 10.732 0 .617-.069 1.358-.075 1.425-.766" class="fil1"></path><path id="path30" d="M58.41 119.555s.192-.194.48-.413c.274-.21.673-.47 1.094-.583l.195.731c-.41.11-.935.494-1.24.799zm32.221-11.249s.265-.058.624-.083c.345-.025.821-.024 1.235.112l-.232.718c-.403-.132-1.052-.096-1.47-.008zM62.151 93.83c.75.304 1.8.303 2.624.605-.375.227-.299.681-.149.907l.075.152.525-.606c-.15.001-.074-.15-.075-.226.225-.227.826 0 1.126.15-.826.53-1.201 1.664-2.026 2.269-.676-.831-.076-3.098-1.425-2.722l-.302 1.664h.827c-.15.225 0 .604-.377.604l-1.725-.434c.301.024.328-.656.675-1.077-.375-.378.3-.907-.299-1.21-.226.076-.375.454-.151.68-.374.682-1.35.076-1.35.983l.3.378c-.3.377-.9.076-1.2-.15l-.225-.153c.75-.152.373-.982.75-1.36l-.301-.906c.526-.605 1.051.378 1.726.151.076.527.677.228.976.301zm5.705 1.51c-.3-.377-1.805-.83-1.652.379.6.68-.75.68-.45 1.436.45.528.975.3 1.575.227.602-.681-.223-1.437.527-2.041M55.733 77.115v.344l-.25.001c.169.372.804.816.363 1.26-.675.226-1.125.83-1.502 1.434-.223.831-.224 2.343.677 3.098.815.298 1.85.597 2.597.242l.001 6.402c-.589.445-.061 1.022-.346 1.667.675.605-.15 1.588.15 2.343.3 1.663-.601 3.25-.376 4.533.253.129.438.287.571.47v10.304c-.827.293-2.017.133-2.447.939-.6.152-1.426.3-1.577.604-1.65.832-1.875 3.626-2.926 5.365 0 .68-.15 1.057-.149 1.812l.51 4.674c3.05 5.514 5.302 9.732 8.42 15.2q.185.436.427.855H62.1a12 12 0 0 1-.325-.705c.602-.68 1.051.227 1.726-.074l2.177.075c-.3.679-1.351 1.284-.826 2.04 1.05-.606 1.576.68 2.477.68 1.126-.38 2.402-.454 3.377-1.436l2.551.983 4.578-1.89c.9-.603.15-1.662.6-2.266.15.151.374.076.6.075.226.831-1.05 2.871.677 3.099 1.5-.756 1.8 1.813 3.225.982 1.201.301 2.402-.378 3.152-1.058-.75-1.06-2.176-1.89-3-2.796 1.425.152 2.925.831 4.35.454-.298-.757-.524-1.058.3-1.663-.599-1.058-1.95-.756-2.625-1.738 1.276-1.361 1.95-3.022 2.552-4.76.45-.228.75.378 1.05.453.15 2.341 0 4.685.225 7.254.901.604 2.176.832 3.227.982.075.302-.075.755.375.906.675-.226 1.425-.604 2.027-.755.275.335.023.79-.1 1.16l1.023-.048c2.493-2.69 3.94-4.392 4.362-8.972l-.033-5.363c.675-1.512 1.801-3.097 2.178-4.533.748-.982 1.876-.756 3-.68 1.398.517 1.116-1.844 1.052-1.965-1.352-.528-.226-1.663.074-2.494-.6-.302-1.2-.603-1.576-1.132.15-.53.226-1.512-.3-1.587-.675.301-1.502 1.21-2.25 1.057-.226 0-.226.303-.452.227l-.224-.226-.6.529c-.676-.304-.3-1.21-.676-1.814-1.726-2.04 1.05-4.535.15-6.8 0-.756-.376-1.664-.675-2.493v-5.97c1.425-1.058.299-3.023.676-4.459.298-.981 0-1.738.674-2.643 0-.681-.526-1.135-.976-1.36-.149 0-.224.15-.375.075l.001-4.685c1.125 0 2.4.076 3.076-1.133.526-1.059.15-1.814 0-2.872-.45-.302-.825-1.134-1.426-1.058-.026-.33.054-.599.21-.805h-.195v-.344h-14.29v.345l-.447-.001c.095.115.177.276.24.503.15.755-.677.453-.902.907-.6 1.057-1.2 2.192-.6 3.476.74.97 1.991 1.35 3.035 1.07v8.915c-.405.17-.882.093-1.308.215-.301-.452-1.202 0-1.878-.152-.749-.68-1.2-1.963-2.401-2.04-.6-.302-1.8-.755-2.476-.68-1.276-2.342 2.777-3.928 1.726-6.422-.45-1.284-.75-2.644-2.326-3.4-.9.076-1.951-.68-2.928.076l-.148-.151c-1.052.756-2.552 1.36-2.628 2.795.301 1.36-.15 2.569.9 3.854.002.83.527 2.645-.824 3.25-1.35.377-3.453.528-4.203 2.267-.226.075-.45.83-.524 1.284l-.301.075-.006-.845v-8.973c1.183.07 2.497.045 3.233-1.29.3-.983-.076-1.889-.3-2.795-.653-.73-1.798-.968-1.193-1.94l-.615.001v-.344zm13.696.46c-.066.693-.809.697-1.425.765-3.602-.15-7.13.227-10.732.001-.063-.193-.454-.496-.384-.766zm18.29-.001h12.477c-.186.894-1.513.136-2.101.464l-10.055.075a2.5 2.5 0 0 1-.32-.539zm10.353 12.418c-2.405 1.208-4.544 1.51-7.257 2.103-.357 0-.716.413-1.14.056v-9.467c.816.42 1.838-1.068 2.717-.035.75.453 1.2-.832 1.95-.152.677.455 1.428-.3 2.102-.074.543.136 1.085.397 1.627.167zm-38.999-7.108-.001 7.759c1.065.895 2.744.66 3.604 1.526l.225-.152c1.764.221 2.808 1.025 4.544.986V82.69c-.227-.109-.548.312-.867.184-1.127-1.21-2.402.756-3.302-.304-.525-.226-.826.455-1.352.378-.952-.809-1.832.035-2.85-.065m20.112 52.202c-.45.227-.901-.303-1.276-.303l.069-1.66c.044 1.103 2.142.805 1.207 1.962m-12.53.832c.224.529-.225.754-.601.906-.75-.302-1.801.605-2.026-.453.075-.53-.15-1.814.675-1.663.377-.227.45-.68.15-.982-.9-.528-.75-1.284-.225-1.964l.15-.227c.526 1.36.902 3.098 1.876 4.383zm24.236-3.023c.227.985.975 2.117.75 3.174l-1.575-.227c-.15-1.813-.075-3.4-.074-5.289.15.754 1.05 1.51.899 2.342m-12.68-1.511c-.152-.606.226-1.058.074-1.662.828.528.076 1.133-.074 1.662m-17.337-1.286c.002.456-.448.834-.75.907.15.379.225.681.526.907l.525-.15c.3.605-1.05 1.208.075 1.435.3-.302.675.453.9-.227.15.303 1.501.831.975 1.36-.299.378 0 .906-.224 1.284-.226-.227-.45-.3-.75-.225-.226.754-1.052-.152-1.352-.152.9-2.644-3.226-3.25-.975-5.893.524.075.825.377 1.05.754zm13.057 1.965c.454.227.453.984.676 1.512.3 1.435-.225 2.116-1.35 2.872-.527-.001-1.05.528-1.651.453-.525-1.134.074-3.174-1.276-3.93 0-.906.374-1.889.75-2.795-.3-.303 0-.681 0-1.06 1.127-.527.6 1.36 1.426 1.512zm12.01-2.34c-.075 1.812-2.78 2.72-1.727 4.534l1.425.982c-.75 1.209-1.8-.454-2.7.15 0-1.208-.075-2.491.45-3.627l-.15-.226c-.001-.528.3-1.511.074-2.04.001-.53.45-.983.225-1.662.375 1.059 1.5 1.588 2.403 1.889m-12.308.527c-.602-.753-1.05-1.737-.452-2.568.001.679.3 1.737.452 2.568m-15.46-1.661-.674.905c-.525-.528-.6-1.511-.826-1.963.45.528.976.981 1.5 1.058m37.747.075c.077.227.225.68.524.603.376.077.601-.074.826-.377l1.427.83c.074 1.058-.376 2.269-.976 2.949-1.5-.757-1.876-2.192-2.477-3.627l-1.801-2.192c-.15-.454.376-.228.6-.301zm-35.497-2.268c.078.454-.673.907-1.2.983-.45 0-1.051.076-1.35-.378-.377-.377.224-.453.449-.83.752-.077 1.427.603 2.101.225m-3.677-.753v.302c-.299.076-.674-.075-.525-.453.226 0 .45-.077.525.151zm-1.95-.228c-.299-.152-.374-.68-.45-1.058.45.15.078.755.45 1.058m43.15-.227-.45 2.342c-.45-.075-.901-.529-1.277-.454-.15-.226-.825-.529-.826-1.057 1.577.302 1.502-4.685 2.252-1.058zm-44.124-2.72c-.078.227.076.528-.226.68v-.68zm1.801.83c-.602-.68-.451-1.283-1.126-2.19 1.2.227.825 1.436 1.126 2.19m-3.004-1.736.375-.53-.223.529zm26.265-.68c.076 1.887.675 4.08-.15 5.742-.226.001-.3-.68-.526-.981l.15-.152c-.825-1.662.076-3.325.301-5.062zm-25.962-1.135.15.227c-.226.53-.601 0-.902 0 .076-.453-.75-.377-.374-.83.45.075.975.15 1.126.604m11.556-1.737c-.6-.15-.828.227-1.35-.151.6-.227 1.274-.907 1.35.151m33.317-.605c.227-.528.6-1.058 1.126-1.36-.225.529-.675 1.133-1.126 1.36m-2.777-2.265c-.073.226-.374.452-.525.604l-.15-.15c-.375.604-.901 0-1.275-.077l-.225-.226c.674.152 1.35-.379 2.175-.151m-42.697 1.056c-.376-.224-.302-.679-.075-1.133zm33.694-.452c-.358-.12-.197-.334-.187-.566-.07-.079-.103-.146-.038-.188.03.063.039.126.038.188.172.196.562.458.187.566m-31.743-.755c-.302.376-.002.754-.151 1.134-.148-.076-.45-.076-.6-.379-.15-.528.376-.528.751-.756M77.01 129.19c.226 1.737-.826 3.931-.076 5.592-.074.453.225 1.284-.3 1.813l.601.68c-1.35.906-2.702 1.284-4.202 1.89.074-.228.149-.53.45-.53-.151-.378-.375-1.057-.75-.906-.375.226-.601.83-1.127.83.751-1.132 2.477-1.057 3.528-2.115 1.8-3.174-1.126-5.97-.826-8.992.376-.68-.15-2.267 1.201-1.964.45-.226.15-.604 0-.832-.226-.604-.75 0-.976-.15 0-1.587-.45-3.174-.675-4.76-.3-1.814-.15-3.175-.075-5.214.601-.605 1.801-.453 2.552-.227.45.53.975 1.587 1.8 1.285.375 1.208-.375 2.644-.6 3.777 0-.377-.6-.378-.975-.453-.227 1.285-1.05 2.04-1.578 3.097.45 1.663 1.502-.301 1.952-.68a3 3 0 0 1 .3-.604l-.3.605c-.877 2.358 1.178 5.43.076 7.858zm27.542-14.129-.678.604-.524.68c-.45-.454-.076-.757-.375-1.209-1.202-.302-1.2 1.209-2.327 1.21l-.45.301c.15-.756.524-2.04 1.501-2.494.6.454 1.275-.075 1.725-.528-.375.68.75 1.134 1.128 1.436zm-51.18-1.738c-.001.453-.3 1.136-.826 1.36.224-.302.149-1.662.826-1.36m42.024.606c-.527.074-.151-.532-.15-.755l1.05-.757c.225.53-.3 1.36-.9 1.512m-12.008 6.571c-.223 1.361-1.125 2.645-.6 4.307-1.126 2.267-.15 4.233-.601 6.575-.15 2.116-1.65 5.214.975 6.573-.075.379-.9.83-.224 1.284-.825.681-.825-.603-1.5-.83-.3-.304-1.727.452-1.427-.68l.826-.832c-.675-.377-.525-1.134-.376-1.663.977-2.794-1.876-5.213-.75-8.009l.75-2.115c.076.528 0 .832.6.982.301 0 .527-.302.827-.454-.45-.604-.075-1.208-.75-1.814l-.602.076c-.375-2.342-.75-4.23-.974-6.423 2.027-.678.975-3.777 3.302-3.852l1.275-1.285c.75 2.192.525 6.046-.75 8.16m-18.01-6.875c.075-.604-.675-.982-1.126-1.286-.6.682-1.575.909-2.026 1.362-.9.226-1.05 1.284-1.575 1.888-.976.907-2.176-.226-2.927.832-.226.075-.675.226-.9-.075-.3-.378.224-.454 0-.908.975-.906 1.8-.755 3-.756.002-.453.601-1.207.752-1.661l-1.577 1.134-1.501-.076c-.45.15-.224.603-.525.906-.375.453-.825-.151-1.126-.302.15-.756.601-1.285 1.202-1.814-.45.076-.677.756-.976.529-.376.831-.975 1.435-.6 2.267-.226.68.974 1.134 1.125 1.737-1.126.228-2.176.076-3.227-.301l.675.605c-1.276.83.6 1.284.075 2.266.452-.227.826.15 1.127.076 1.5.68 1.576 2.795 1.575 4.307.6.68 1.276-.302 1.726-.68.225.226.6.528.75.83-.075 0-.15.228-.3.15v.456c.376.074.752.15 1.2.301.751-.68.45-1.586.227-2.417.15-.68-.002-2.192 1.274-2.419 1.052-.528.302-1.662.677-2.644-.375-.226-.45-.529-.375-.907.224-.227.45-.453.825-.377.75-.228.376-.908.224-1.437-.9.302-1.05 1.361-1.425 1.89-.225-.302-.826.076-.9-.529.224-.83.526-1.814 1.35-2.268.602.077 1.351-.452 1.802.001l.525.529c-.601 2.115 1.575 2.266 2.475 3.779l-.3.226c-.976.68-.975 2.04-1.95 2.795-.9-.756-.076-1.586-.826-2.417-.675-.001-.224.68-.375.906-.45.68.375.906.826 1.285a.86.86 0 0 1-.226.603c-.375.605-1.05.001-1.5-.15l.376 1.51c.148.152.6.078.525.454-.377.604-.901 1.134-1.426.378-.3.605-.225 1.36-.376 1.89 1.05.98-.751 1.133-.976 2.115 1.05.907 2.102 1.662 2.927 2.72.6-.377.3-1.057.376-1.586-.226-.982-1.951-2.72-.376-3.4.525.15.901.83 1.276.981v-.15c.525-1.285-.602-2.493.075-3.477.6-.452 1.126.379 1.2.909.301.376-.225.981.45.98.151-.603-.449-1.057.15-1.586-.523-.453.225-.831.3-1.511.3-.302.902 0 1.05.303.002.075-.073.151-.149.074l.15.228c-.6 1.436.076 2.417.151 3.778-.6.605-1.351-.227-1.95-.076-.077 1.133.374 2.342.748 3.4-.599.604-1.05-.68-1.65-.529.3.455.15 1.058.45 1.436.826 1.587.826 4.685 2.852 4.684.225.378 1.2.227.675.982-.224.303-.975.529-1.05.152-.9-.075-.076 1.133-.901 1.284l.6.606-.675 1.058c1.127.074 2.552-.757 3.227-1.815-.15-1.133-.45-2.115-.451-3.324-.373-.303-.825-.605-.974-1.134 0-.302-.075-.906.3-1.132-.301-1.134-1.425-1.89-1.5-3.024.598-.225 1.274.606 1.874.68-1.05-2.19.376-3.777.45-6.044-.674-.982.226-1.965-.524-2.947 0-.377.525-.604.9-.453.375.68.676 1.965.826 2.72.075-.529.15-1.135.6-1.511.15.075.226.301.375.302.15-.227.377 0 .525.151.15.454-.299.605-.224.982-1.126 1.587-1.953 3.023-1.952 5.062 1.277-.15 1.5-1.66 2.627-2.114-.6-1.74.225-3.78-.675-5.365-.301-.831-.225-1.286-.15-2.04-.376-1.21 0-2.494-.001-3.93-1.5-1.133-3.152-.226-4.503-.152.751.378.526 1.134.75 1.663-.073.453-.599 1.21.077 1.511.674.756-.377 1.134-.827 1.21-.3-.303-.075-.832-.525-.983-.3-.604-.224-1.21.075-1.812-.374-1.283-1.798-1.36-2.25-2.343zm-5.253-3.325c-.9.758-.375 2.193-1.575 2.645l-1.126-.076.3-.378.15.075c.3-.302.825-.755.3-1.208-.825-.377-1.426.907-2.402.68-.45.529-.9.83-1.35 1.21.225-.606-.526-.832-.601-1.285.976-.908 2.4-.907 3.378-1.663 1.049.226 2.1-.528 2.925 0zm27.315-.68c-.299.228-.598.68-.599 1.134.299.53.6.377.975.453 0 .228 0 .378-.15.453.375.53 1.125.605 1.5.152 1.502.982.602 3.173 2.476 4.156.976.68 2.253 1.435 3.454.68.3-.303 1.2-.68.449-1.135 1.202-.453 1.802-1.811 2.178-3.022l-.151-1.586c1.35-.83.75.906 1.425 1.36l.3 1.36c-.224-.378-.825-1.058-1.2-.377-.375.528 0 1.208 0 1.812l-.451.379c-.075-.228-.15-.454-.375-.606-.675-.301-.825.606-.976.908.526.68.152 1.737.527 2.266 0 .453-.151.907-.6 1.133l.825.832c.675-1.284 2.475-1.739 2.85-3.173.15.377.45.756.751.983.75-.984 1.877-.303 2.777-.908v-.301c.376.453 1.427.604 1.275 1.284-.75-.076-2.25 0-3.076.604-.675.68-.9 1.587-1.276 2.19.224-.528-.75-.377-1.2-.452-.225.83-.3 1.737.225 2.493l-.752 1.436c-.224-.605-.075-2.267-1.274-1.738-.15-.454.225-1.058-.526-1.21-.901-.074-.6.983-.9 1.362.075.68-.076 1.586-.526 2.19-.976.68-1.725.756-3.002.907-.674-.453-.225-1.21-.3-1.738.676-.453 1.126-1.133 1.425-1.888-1.876.226.001-2.191-1.875-1.36-.3 1.51-1.425 3.247-.45 4.91l-.15.303c2.101 1.738 3.226 4.307 4.502 6.498.45.832 1.953 1.36 1.05 2.417-.448.454-.374-.378-.748-.226-.677.453.223 2.191-.901 1.435-.076-.83-.827-.604-1.35-.604-.302.302.148.832-.302 1.208-.975-1.283-.225-2.945.226-4.306-.227-.302-.9-.151-1.126-.301l-.151.377c-.975-.983-.6-2.494-1.8-3.249-.75-1.21-2.478-1.285-2.852-2.72-.15-.68.75-2.343-.601-2.192-1.276.227-.149 1.435-.674 2.116-.452-.83-.002-1.511.15-2.419-.526-.453-1.126-1.737-1.877-.981-.75.907 1.275 1.36.375 2.342-.075.907 0 1.663.676 2.417.3.455 1.201 0 .749.908-.449.152-.825-.453-1.275-.606-.824-.755-.525-2.039-1.275-2.946 0-2.115.6-4.08 1.65-6.12a2.17 2.17 0 0 1 .376-1.586c.375-.832 1.426-.605 1.576-1.664 1.126 1.588-1.726 2.344-.3 3.553.074.3.45.15.675.074.6-.301.075-.755.375-1.283 1.875-1.21-.15-2.947.375-4.534-.224-.454-.75-.227-.976-.226l-.6 1.133c-.45-.832 2.027-2.494-.225-2.569-.376.454-.676 1.056-1.125 1.511-.45-.906-.151-2.417-.226-3.25.826 1.286 1.051-.981 2.026-.453zm10.808-.375c.074.224-.301.299-.524.302-.151-.303.3-.303.524-.302m-1.803-.456c-.05 0-.098.066-.148.113v.49c-.077-.074.074-.301-.076-.453l.076-.527.15-.001zm-18.986-.905c.752.302 1.578-.152 2.552-.301-1.05.68-1.95 1.434-3.001 1.132-.976-.529-1.727-1.284-2.926-.756-.301-.301.149-.603.3-.83 1.2.074 1.874.981 3.075.755m-9.678 5.364c-1.575.755-1.428-1.286-2.476-1.662.524-1.513.976-3.325 2.476-4.534zm15.834-5.287.526 2.19c-.075.378-.15 1.058-.751 1.285l-1.2 1.057c-.227-.301-.676-.907-1.202-.53-.6.228-.001.607-.375.907 0 .983-.524 1.966-.975 3.023-.601-1.133-.976-2.72-1.426-4.08-.75.076-.45 1.21-.825 1.588-1.128-.53-2.478-.53-3.678-.227-.3-1.059.9-2.191 0-3.174v-1.285c.375 0 .675.68.976.228 1.65.15 2.4 1.661 4.202.83l3.377-2.342-.45-.832c.976-.906 1.274.908 1.801 1.362m15.234-1.589h.15c.075.452-.374.302-.6.605-.601-.227-.001-.756-.6-1.059.3.076.6.982 1.05.454zm-15.01-1.284-.15.529c-.3-.076-.152-.604-.152-.907.301-.15.375.303.302.378m14.857 0-.974.378c-.225-.756.899-.906 1.125-1.586.3.302.15.905-.151 1.208m-11.405-1.74c.527-.15.977-.073 1.35.303v.15c-.674-.226-1.726-.604-2.25-.377l.599-.83c0 .301.076.604.3.755zm-5.404-1.36c-.375.454.376.38.3.832l.151 1.888c-.376-.225-.902-.83-1.276-1.208.45-.453-.15-1.512.825-1.511M71.53 99.726c.152 2.34 1.426 4.685 1.726 6.876-.224.982-1.049 1.889-.75 3.021-.45.681.977 1.512 0 2.268.302.453-.45.832-.149 1.134-.9-.377-2.327.075-3.077.15h-.3c.225-.302-.301-.603.15-.754l-.225-.152.075-7.48c.751-1.663 1.35-3.401 2.25-5.064zm21.915-.38c-.527-.226-1.425-.302-1.802 0-1.726-.075-3.227.755-4.203 2.116.227.227-.075.378-.151.605.827-.606 2.027 1.36 2.252-.226.677-.228.826.678 1.352.68.075.678.6 1.359-.075 1.888-.902-.529-.976.756-1.876.303-.752.981-1.576-.831-2.252.15-.224.227-.075.53.15.68l.15-.225.602.603c-.526.227-.151.831-.828.68-.674-.151-1.425-.604-1.425-1.436-1.275 1.285-.375 3.174.001 4.231l1.126-.981c.75-.377 1.65-.075 2.175.075-.15 1.739 1.726 2.267 2.326 3.627.225.68.375 1.436.826 2.115.601.001 1.5.076 2.102-.377.6-1.133-1.125-.907-1.277-1.738.302-1.36 1.426-.076 2.026 0 1.276-.302.227-1.284.375-2.04.376-.756-.299-1.436-.074-2.192.526-.453 1.276-.755 1.95-.981-1.274-1.738.45-3.098 1.202-4.383.075-.453-.75-.378-.375-.832-1.05-.605-1.651-1.586-3.076-1.889 0 .302-.677.454-.15.756.45.681 1.049 1.586.523 2.343-.375.604-.824 1.208-1.5 1.435-.75-.227-1.501.605-2.027-.075.452-.378.676-.907.826-1.435-.074-.907-1.2-.53-1.801-.756-.224-.831.3-1.511.676-2.266.3-.078.75.15 1.05.452-.719 1.303 1.388 1.011 1.5 2.315-.029-.88-.28-1.44-1.125-1.937zm-4.955-.68c0 .302-.526.758-.826.906l-1.275 1.436-.451-2.115.976-.378c.45.226.974 0 1.576.15zm-29.418 5.063.001-3.547c.036-.763.06-1.531 0-2.348 2.7.682 5.103 1.134 7.88 1.361.3 1.738-1.427 2.267-2.102 3.551-.751 2.342-1.124 4.156-1.95 6.498-.527.605-1.127.379-1.727.303-.527-.862-1.92.138-2.102-.727l.001-.483v-4.607m39-6.81v3.612l-.5-.504c-1.276-.756-2.102-1.209-3.378-1.813l-1.5-.227c1.627-.143 3.588-.688 5.378-1.067m-32.92-3.39c-2.252-.3-4.654-1.057-6.605-1.813-.226 1.51.076 3.325-.225 4.912.225-.152.75 0 1.126.076 2.401.604 5.403 1.284 7.879 1.359l.075-.68c.375-1.284 2.251-1.436 1.726-3.021l-1.952-.227c-.599-.077-1.575-.229-2.025-.606m6.004-12.543c-.302.455-.074 1.435-.9 1.435-.676.303-1.276-.076-1.501-.756.45-.15-.226-.754.45-.679-.224.302.225.831.6 1.133.676-.454.902-1.133.526-1.889-.375-.378-1.127-.378-1.576-.378-.976 1.208-2.626.453-3.902.68-1.95-.151-4.578.227-6.38 0-.3-.907-1.05-.152-1.65-.68-.826.227-.75.907-.9 1.587.224.226.3.529.599.679.45.151.45-.453.752-.605l-.15-.377c0-.151.3-.075.449-.075.375.302.075.83-.074 1.134-.45.377-1.051.378-1.727.225-.9-.527-.3-1.51-.15-2.19l.3-.53c5.179-.15 9.83-.453 14.409-.074.676.225.6.905.825 1.36zM97.271 93.3c-.076-.303-.225-.754-.6-.756-.974.755.151 3.022-1.35 2.116.15-.528.15-.907-.074-1.36l-.227-.226c-.15.453-.3-.076-.524 0-1.275.527-3.152.15-3.978 1.056-.15.227.226.455.375.53.15 0 .301-.226.451-.302.15.528.45 1.284.075 1.813.45.378 1.124.075 1.575-.076-.524-.604-.524-1.284-.449-1.888.225.075.374.377.6.075.3-.152-.225-.378.15-.53.376.605.45 1.588.3 2.268.977-.076 2.027-.377 3.227-.378.3-.302.15-.528 0-.755.075-.152.225 0 .375-.077-.226.757.675.606 1.2.455.226.074 0 .226 0 .302l-.75.075v.151c-.75.529-1.876.15-2.551.756-.15.076-.225-.378-.45-.075-2.777.3-6.155 1.209-9.156 1.132-.15-.982.525-1.586.45-2.569l.301.001 1.2 2.04c1.426-.076.601-1.814 1.502-2.417.9.905-.901 2.416 1.126 2.039.45-.077.975 0 1.124-.529l-.15-.604-.75.225c-.225-.528-.524-1.208-.15-1.813-.601-.15-1.276.379-1.952.152-.374-.15-.524.227-.75.303.226.226.45.453.3.68l-.149.15c-.45-.227.075-.906-.676-.982-.3.302-.75.226-1.126.377-.225-.377-.375-.831-.3-1.21 4.428.153 9.606-.602 13.434-2.493.6.681-.226 1.89.15 2.947-.135.408.335.999-.166 1.279-.06.082-.135.158-.21.082a1 1 0 0 0 .21-.082c-.74-.385-1.188-1.356-1.637-1.882zM62.074 81.665h-.45c.076-.15.3 0 .45 0m-2.326-.077c.003.152-.6.303-.45 0zm6.905 0-.15.152-.225-.15c.15-.002.3-.229.375-.001m-2.327.002c0 .15-.224.074-.375.076 0-.227.3-.226.375-.076m20.186 12.997c.826 1.585-.974 2.72.151 4.156-.15 1.737 2.325 4.155-.375 5.061-.675-.905-1.952-2.04-1.05-3.247 0-.758.074-1.664-.451-2.494.674-1.058 1.65-2.04 1.501-3.477zm-10.805-1.739c.45 2.57.975 5.515 2.703 7.255 1.2 1.738 3.077 3.703 4.727 5.213-.075.378-.676.832-1.2.756-1.876 0-2.852-2.04-3.527-3.324-.525-.681-1.126-.379-1.652.074-.15.529-.225.83-.374 1.437.374.378.825.15 1.275.076.75.83 1.425 1.813 2.476 2.342-.749.454-1.575-.455-2.175-.228-.3-.604-1.125-.301-1.651-.679-1.2-3.779-2.178-7.103-1.802-11.41 0-1.133.376-2.116.375-3.25 1.501-.68.526 1.058.826 1.739zm5.103-3.478c.076 1.588 1.801 1.06 2.701 1.588-.676.605-2.402-.227-2.175 1.208.75.227 1.8.077 2.476-.15l.226-.831c1.05.075 1.725 1.208 2.025 1.888l.075.907c-1.952-.302-.15 2.494-1.876 1.964-.076.378-1.05.907-.226 1.135-.524 0-1.95-.757-2.251.225.226 1.135 1.952.227 2.102 1.512.15.756.15 1.737 0 2.645-.752-.907-1.2-.076-1.727.529l-.074.453c-1.05-1.21.975-2.871-.376-4.231-.375 0-.75.226-.9.529.45.68-.076 1.51-.15 2.04-.75-.53-1.427-1.586-1.877-2.343.902-.151 2.702-.378 2.327-1.889.15-1.058 0-1.738-.45-2.644-.45-.151-.75.377-.901.68.525.756.15 1.511.074 2.417-.524 0-.975.757-1.425.302l-.225.152c-.15-.454.375-1.511-.676-1.738-.074-1.36-.749-2.569-.673-3.853.674.226 1.5.226 2.175.302l.376-.755c0 .377.599.377.9 0 .525-.455-.226-.908-.076-1.36-.376-.228-.6-.152-.9-.228-.6.378-.074.906-.076 1.36-.825.076-1.8-.378-2.476-.528-.149-.605.826-.756.977-1.36.975.68 2.025.226 3.076.074zm.3-5.59v.529c-.45-.077 0-.453-.225-.605-.226 0-.676.302-1.05.075-.15.378-.526.983.149 1.135l1.2-.228.526 1.285c-.6 1.814-1.65-.378-2.4-.303-.377-.755.449-2.417-1.127-1.889-.224-.226-.3-.604.15-.755 1.127 0 2.101-.076 2.777.755m1.126-1.889c.076.91.826 1.813.375 2.947-.45-.228-.226-1.21-.526-1.814-.6-1.51-2.325-.83-3.302-1.284-.525.227-.825.377-1.276.302.077-.906 1.502-1.21 2.402-1.36.751.15 2.101.376 2.327 1.21zM71.53 93.754c-.225-.68.376-1.513-.074-2.191-1.427 1.209-1.052 2.569-1.127 4.155-2.025 1.134-1.875 3.703-2.551 5.288-2.776 1.967-2.552 5.744-3.752 8.54-.45.604-1.35 1.133-2.1 1.057l.599.303c.15.303.376.68.15 1.058.676-.38 1.426-.756 1.801-1.435.225-3.024 3.378-4.535 3.979-7.48-.526.528-.977-.077-1.127-.53.3-.756 1.276-.53 1.877-.982 1.575-2.794 2.475-5.14 2.325-7.783zm30.17-13.525c.373.605-.152 1.132-.075 1.662-.451.453-1.052.152-1.576.226-.45-.226-.9-.83-.452-1.283.076-.076.227-.077.301-.077-.3.605.376 1.06.825 1.134.752-.226.452-1.134.525-1.587-.225-.68-.974-.528-1.426-.83-.448.075-.973.302-1.275.755l-9.08.076c-.45-.605-1.125-.455-1.726-.681-.525.076-.75.53-1.2.908-.15.527.3 1.132.675 1.51.3-.152.6-.529.901-.831l-.377-.377a.636.636 0 0 1 .752.604c-.376.528-.676 1.132-1.502.907-.374-.076-.75-.68-.975-.907-.074-.983.376-2.04 1.426-2.192 4.053.152 9.155.001 13.507.076zM90.368 81.59l-.3-.152.299.001zm4.727-.152c.001.151-.302 0-.524.076.075-.15.375-.302.524-.076m-2.776-.001v-.151l.3.15z" class="fil2"></path><path id="path31" d="M80.236 81.892c-.226-.832-1.576-1.057-2.327-1.21-.9.153-2.326.454-2.4 1.36.45.077.748-.075 1.274-.302.977.454 2.703-.226 3.304 1.285.298.605.074 1.587.524 1.813.45-1.132-.3-2.04-.376-2.946z" class="fil3"></path><path id="path32" d="M73.707 92.849c-.3-.68.676-2.418-.825-1.739 0 1.134-.375 2.117-.375 3.25-.376 4.307.6 7.63 1.8 11.408.525.38 1.352.077 1.652.681.6-.227 1.426.68 2.176.226-1.05-.529-1.725-1.51-2.476-2.342-.45.076-.9.302-1.276-.074.15-.606.225-.908.375-1.437.525-.453 1.126-.755 1.65-.076.677 1.286 1.65 3.326 3.528 3.325.526.075 1.125-.377 1.2-.755-1.65-1.51-3.526-3.475-4.728-5.215-1.725-1.736-2.25-4.683-2.7-7.253z" class="fil3"></path><path id="path33" d="M83.613 107.96c-.525-.454-.826-2.268-1.801-1.36l.45.832-3.377 2.342c-1.8.831-2.552-.681-4.202-.832-.3.454-.6-.226-.976-.226v1.283c.902.983-.3 2.117 0 3.174 1.201-.302 2.552-.302 3.678.227.375-.377.074-1.512.825-1.587.45 1.36.825 2.946 1.425 4.08.451-1.058.976-2.04.977-3.022.375-.302-.225-.68.375-.906.525-.378.974.226 1.2.527l1.2-1.057c.601-.227.677-.907.751-1.284z" class="fil3"></path><path id="path34" d="M77.46 107.884c-1.201.228-1.877-.68-3.077-.756-.15.228-.6.53-.3.833 1.2-.53 1.951.226 2.926.755 1.05.302 1.952-.454 3.002-1.134-.975.15-1.8.604-2.551.302z" class="fil3"></path><path id="path35" d="M87.29 103.351c-.226-.152-.3-.452-.3-.756l-.6.832c.525-.227 1.575.151 2.25.378v-.151c-.375-.379-.824-.453-1.35-.303" class="fil0"></path><path id="path36" d="M95.395 113.929c.6-.15 1.125-.982.9-1.51l-1.05.754c0 .228-.375.832.15.756" class="fil0"></path><path id="path37" d="M104.55 115.062c-.374-.302-1.5-.756-1.125-1.435-.45.453-1.126.982-1.727.53-.975.452-1.35 1.737-1.5 2.491l.45-.301c1.126 0 1.126-1.511 2.326-1.21.3.455-.074.756.376 1.21l.525-.68z" class="fil0"></path><path id="path38" d="M86.014 115.743c.376-.107-.016-.37-.187-.566a.4.4 0 0 0-.038-.19c-.065.044-.03.112.038.19-.009.232-.168.446.187.566" class="fil0"></path><path id="path39" d="M95.02 115.138c-.825-.228-1.5.303-2.176.15l.226.227c.374.077.9.681 1.275.077l.15.15c.15-.15.45-.377.525-.604" class="fil0"></path><path id="path40" d="M97.797 117.405c.45-.228.9-.832 1.126-1.36-.526.301-.9.831-1.126 1.36" class="fil0"></path><path id="path41" d="m97.946 125.187-.301-.227c-.75-3.627-.675 1.36-2.252 1.058.001.528.676.831.826 1.057.376-.075.826.379 1.277.454z" class="fil0"></path><path id="path42" d="m95.92 128.663-1.876-2.114c-.226.076-.75-.15-.6.302l1.8 2.191c.6 1.435.975 2.872 2.476 3.627.6-.68 1.051-1.888.976-2.946l-1.425-.832c-.226.303-.451.455-.826.379-.3.073-.45-.38-.525-.607" class="fil0"></path><path id="path43" d="M85.94 129.722c-.9-.303-2.026-.832-2.402-1.89.225.68-.224 1.134-.225 1.663.226.529-.074 1.51-.074 2.04l.15.226c-.524 1.132-.45 2.419-.45 3.627.9-.604 1.95 1.059 2.7-.15l-1.425-.983c-1.052-1.814 1.651-2.72 1.727-4.533z" class="fil0"></path><path id="path44" d="M90.891 132.894c.15-.83-.75-1.586-.901-2.342.001 1.89-.074 3.476.076 5.29l1.576.226c.226-1.058-.524-2.191-.75-3.174" class="fil1"></path><path id="path45" d="M71.53 93.754c-.225-.68.376-1.51-.074-2.19-1.427 1.208-1.052 2.568-1.127 4.154-2.025 1.134-1.875 3.703-2.552 5.29-2.775 1.965-2.55 5.742-3.751 8.538-.45.604-1.35 1.133-2.1 1.057l.598.303c.151.303.377.68.15 1.058.676-.377 1.427-.754 1.802-1.435.224-3.022 3.378-4.534 3.977-7.481-.524.53-.975-.076-1.126-.53.3-.755 1.276-.527 1.878-.98 1.576-2.797 2.475-5.14 2.325-7.784" class="fil4"></path><path id="path46" d="M79.11 83.781c-.676-.831-1.65-.755-2.777-.755-.451.151-.375.529-.15.755 1.576-.53.75 1.133 1.126 1.889.75-.075 1.8 2.115 2.4.303l-.524-1.285-1.201.226c-.675-.15-.3-.755-.15-1.133.375.227.825-.077 1.05-.076.225.152-.225.529.226.606z" class="fil4"></path><path id="path47" d="M78.81 89.373c-1.05.151-2.101.604-3.076-.076-.151.604-1.127.756-.975 1.36.674.151 1.649.605 2.476.529 0-.453-.526-.982.074-1.36.3.075.526 0 .901.227-.15.454.599.906.074 1.36-.3.378-.9.377-.9 0l-.375.754c-.676-.074-1.5-.073-2.176-.3-.075 1.283.6 2.492.676 3.852 1.05.227.525 1.285.675 1.739l.225-.152c.45.454.9-.302 1.425-.301.075-.908.45-1.664-.074-2.42.15-.3.45-.83.9-.68.45.908.6 1.588.45 2.647.375 1.51-1.425 1.737-2.326 1.888.45.755 1.125 1.814 1.875 2.343.076-.53.6-1.361.151-2.041.15-.302.524-.53.9-.529 1.35 1.36-.675 3.023.376 4.232l.075-.454c.525-.605.976-1.436 1.725-.528.15-.908.15-1.89 0-2.645-.15-1.285-1.876-.379-2.1-1.512.299-.982 1.725-.227 2.251-.227-.827-.226.149-.755.224-1.133 1.726.528-.076-2.266 1.876-1.964l-.075-.907c-.3-.68-.975-1.813-2.025-1.889l-.226.831c-.674.227-1.726.379-2.476.152-.225-1.435 1.502-.605 2.176-1.21-.9-.529-2.626 0-2.702-1.586z" class="fil4"></path><path id="path48" d="m84.512 94.585-.226.001c.152 1.435-.824 2.417-1.499 3.476.525.83.45 1.737.45 2.493-.9 1.208.375 2.341 1.051 3.25 2.7-.909.225-3.327.375-5.064-1.125-1.435.677-2.568-.15-4.156z" class="fil4"></path><path id="path49" d="M81.887 101.99c-.975 0-.376 1.058-.825 1.511.375.378.9.983 1.276 1.21l-.15-1.89c.074-.452-.677-.377-.3-.83z" class="fil4"></path><path id="path50" d="M83.388 120.503c1.277-2.116 1.5-5.968.751-8.16l-1.276 1.284c-2.327.076-1.276 3.174-3.301 3.854.223 2.192.6 4.08.975 6.422l.6-.076c.676.606.3 1.21.75 1.815-.3.151-.524.453-.825.453-.602-.152-.525-.454-.6-.982l-.75 2.115c-1.127 2.796 1.724 5.214.75 8.01-.151.528-.301 1.284.375 1.663l-.826.83c-.3 1.134 1.126.378 1.425.68.675.228.677 1.51 1.502.832-.676-.455.15-.908.225-1.286-2.626-1.36-1.125-4.458-.976-6.572.45-2.344-.525-4.308.601-6.574-.527-1.663.375-2.947.6-4.307z" class="fil4"></path><path id="path51" d="M77.01 129.191c1.101-2.429-.953-5.502-.076-7.858l.3-.605c-.13.197-.222.396-.3.605-.45.378-1.5 2.343-1.95.68.525-1.06 1.35-1.813 1.575-3.1.375.076.975.077.975.453.225-1.133.976-2.569.6-3.777-.825.302-1.35-.756-1.8-1.285-.75-.226-1.95-.378-2.552.227-.075 2.04-.224 3.4.076 5.214.225 1.586.674 3.173.675 4.76.225.15.751-.453.975.15.15.226.45.605 0 .832-1.35-.302-.825 1.285-1.2 1.964-.301 3.023 2.626 5.818.826 8.992-1.052 1.058-2.777.982-3.528 2.115.525.001.751-.604 1.126-.83.376-.151.6.529.75.906-.3 0-.375.302-.45.53 1.5-.606 2.852-.984 4.203-1.89l-.6-.68c.524-.529.225-1.36.3-1.814-.752-1.658.298-3.85.074-5.589z" class="fil4"></path><path id="path52" d="M60.125 110.303c-.825-.53-1.876.227-2.927 0-.975.755-2.401.756-3.377 1.661.076.454.826.681.6 1.286.45-.379.9-.68 1.351-1.21.976.227 1.576-1.058 2.402-.68.525.454 0 .907-.3 1.21l-.151-.076-.3.378 1.125.075c1.201-.453.677-1.89 1.577-2.644z" class="fil0"></path><path id="path53" d="M53.37 113.325c-.675-.3-.6 1.059-.825 1.36.525-.225.826-.908.825-1.36" class="fil0"></path><path id="path54" d="M54.272 114.988c-.375.228-.9.227-.75.755.15.303.45.303.6.378.15-.378-.152-.757.15-1.133" class="fil0"></path><path id="path55" d="M60.425 126.397c-.676.378-1.351-.302-2.101-.227-.225.378-.826.453-.45.832.3.454.899.378 1.35.377.525-.075 1.276-.528 1.2-.982z" class="fil0"></path><path id="path56" d="M73.633 130.25c-.15-.83-.451-1.889-.45-2.57-.6.832-.15 1.814.45 2.57" class="fil0"></path><path id="path57" d="M60.875 130.1c-.225-.378-.525-.68-1.05-.757-2.25 2.646 1.876 3.25.975 5.893.3.002 1.127.908 1.352.152.3-.076.524 0 .75.227.225-.378-.076-.907.225-1.284.526-.529-.825-1.059-.977-1.36-.224.68-.599-.075-.898.226-1.126-.227.225-.831-.076-1.435l-.525.15c-.3-.226-.375-.528-.526-.906.3-.076.751-.454.75-.907z" class="fil0"></path><path id="path58" d="M78.21 131.382c.149-.529.9-1.133.074-1.661.15.603-.225 1.058-.074 1.661" class="fil0"></path><path id="path59" d="M66.655 135.917c-.976-1.283-1.351-3.021-1.876-4.383l-.15.227c-.526.68-.676 1.437.224 1.965.3.302.226.756-.15.982-.825-.151-.6 1.134-.675 1.662.225 1.058 1.276.15 2.025.454.376-.15.826-.378.602-.907z" class="fil0"></path><path id="path60" d="M79.186 135.086c.935-1.159-1.163-.86-1.207-1.963l-.069 1.661c.375 0 .825.53 1.276.302" class="fil0"></path><path id="path61" d="M64.478 118.009c-.076-1.058-.75-.378-1.352-.152.526.378.752 0 1.352.152" class="fil0"></path><path id="path62" d="m78.886 120.88-.225-.453c-.226 1.739-1.126 3.4-.3 5.063l-.15.15c.225.303.299.983.525.984.826-1.663.224-3.854.15-5.743" class="fil0"></path><path id="path63" d="M46.612 61.25s10.007-6.893 32.655-6.893c22.646-.002 35.024 6.762 35.024 6.762z" class="fil5"></path><path id="path64" d="M86.05 42.222c1.37-.32 2.897.37 4.057.211.367.264.842-.053 1.21.106-.156.372-.632.054-.946.265-1.317.212-2.055 1.485-2.53 2.546-.368 1.114.054 2.175.581 3.183l1.315 1.217c-2.317-.318-5.32-.21-7.743-.581-3.053.212-6.265.052-9.058.265-.157-.373-.264.105-.474.052-2-.16-3.897.266-5.792.53.262-.582 1.052-.902 1.42-1.59.529-.903.581-2.227.316-3.076-.579-1.378-1.79-2.492-3.265-2.44l-.052-.159c1.37-.264 2.317 0 3.791-.476l.107.158c.157-.37.42.158.58-.212 1.843 0 3.422-.211 5.318-.266 3.634.108 7.583-.212 11.165.267m-.813 2.863c-2.318-.955-4.9-1.909-7.373-2.864-1.002.532-2.107.743-3.055 1.326l-.106-.108c-1.264.478-2.739 1.38-3.95 1.644-.105.32-.526.425-.317.903 1.422 1.006 3.424 1.324 4.899 2.122 1 .212 2.001 1.006 3.002.795 2.266-1.166 4.898-1.75 6.951-2.917.265-.265.054-.636-.051-.901z" class="fil6"></path><path id="path65" d="M79.94 1.864c.475 1.061.106 2.493.053 3.766.421.848 1.738.318 2.476.583 2.106.37 4.213 1.326 4.687 3.765.106 1.697-.158 3.712-.79 5.196-.949 3.131-2.212 5.516-4.266 8.115a.634.634 0 0 0-.632.424c-.21 2.492-.738 4.666 1.159 6.47 1.896.795 3.95.318 5.582-.848 1.002-.583 1.634-1.75 2.476-2.334.526.318.948.265 1.58.266.843 2.226 2.264 5.143 4.845 5.886.79.107 1.423.21 2.213.158.106.16.21.158.316.054.105-.212.368 0 .526-.001 1.792-.424 3.687-1.22 4.845-2.758.79-.53 1.212-1.484 2.266-.743l.157-.105c.16.425 1.054-.105.896.583.422 1.008.79 2.122 1.369 3.235 1.317 2.387 3.372 3.713 6.057 3.555.211-.16.579-.265.843-.267 2.001-.636 3.792-2.069 5.373-3.5.42-.053.895.372 1.368.32.316 2.437.317 4.878 2.264 6.627.211-.16.318.424.633.318.58.478 1.317.106 1.95.373 2.053-.107 4.108-1.484 5.371-3.235.421.158.79.688 1.106.953-2.37 2.547-4.74 5.464-8.48 5.887-.631-.478-2.001-.318-2.422-1.166-.264-.107-.526-.585-.791-.903-.842-1.326-1.159-2.704-1.79-4.188-.264-.373-.632-.425-1.054-.266a9.27 9.27 0 0 1-5.634 2.493c-.474-.106-1.264-.053-1.633-.318-.211.158-.422-.106-.633-.213-.264.425-.263-.158-.578-.107-.265-.158-.738.107-.896-.318-.948-.318-2.264-1.326-2.58-2.44-.79-.848-1.212-2.44-1.58-3.552-.317-.267-.791-.265-1.054-.055-1.054 1.804-2.476 2.598-4.107 3.448-2.107 1.166-4.108-.107-6.004-.16-1.793-.688-3.11-2.81-3.215-4.243-.104-.104-.314-.265-.157-.37-.158-.478-.053-1.272-.789-1.325-1.001.21-1.054 1.484-1.53 2.226-1.21 1.803-3.21 2.864-5.213 2.864-2.843.16-4.424-2.44-5.53-4.772-.105-.372 0-.53-.157-.903-.317-.317-.686-.953-1.16-.528l-.42.476.104.052c-.894 2.494-2.212 5.622-5.477 5.73-.211-.162-.368.21-.474-.053-.738.21-1.316-.107-2.054-.267-1.527-.636-3.266-2.333-3.633-3.978-.212-.37-.79-.954-1.265-.53-.159.266-.633.691-.315 1.06-.37 2.016-1.582 4.19-3.636 4.88-2.58.584-5.318 1.007-7.689-.795-.948-.69-1.739-1.75-2.475-2.546-.369-.106-.948.107-1.054.583-.263 2.546-2.212 5.251-4.265 6.047-2.214.635-4.108.953-6.427-.107-.052-.318-.474-.106-.63-.318-1.054-.266-1.792-2.07-2.899-1.114-.947 2.334-1.527 5.568-4.37 6.31l-.106-.16c-.58.053-1.054.16-1.58.002-3.054-.9-5.11-2.917-7.374-5.514.053-.48.738-.69.897-1.008.58.846 1.685 1.378 2.422 2.227.473-.002.894.53 1.42.635 1.583.424 3.268.318 4.585-.637 1.369-1.642 1.684-3.553 1.736-5.515.105-.263.054-.583.159-.954l1.37-.37c1.896 2.067 5.267 4.347 8.215 3.553 3.002-.638 4.53-4.136 5.267-6.788.212-.53.842-.318 1.37-.425.948-1.166 1.422.425 2.107.797.21.369.842.847 1.264 1.006 1.42 1.272 3.317 1.855 5.424 1.484.21.108.686 0 .948-.265 1.212-.212 2.528-1.113 3.372-2.332l-.107-.055c.632-.635.632-1.111 1.107-1.802.474-.53.316-2.227 1.528-1.696.21-.16.577-.105.79-.107 1.842 2.228 4.897 3.976 7.531 3.182 2.213-1.59 2-4.401 1.528-6.575-2.054-2.07-3.634-4.667-4.584-7.213-.315-.371-.42-1.114-.631-1.539-.317-1.059-.737-2.703-.738-3.975.316-.372 0-1.01.21-1.38.37-1.697 1.74-2.917 3.372-3.288 1.053-.425 2.002-.265 3.003-.37 1.053-.743.315-1.91.315-2.812h-.158c.263-.37.316-1.006.475-1.379.947-.848 2.265-.794 3.211-.581.264.161.528.532.896.477zm-4.74 6.79c-.473-.901-1.738-.797-2.37-.901-1.317.158-2.317 1.06-2.739 2.28.106.37-.263.795-.105 1.059l-.106.161c.106 1.96.317 4.77 1.529 6.363.21 1.061 1.422 2.12 2.053 3.023.42.213.79 1.006 1.264.743.474-.213.475-.638.579-1.06-.053-1.7-.106-3.449-.159-4.827.106-2.229.002-4.296.054-6.84m9.85-.002c-.896-1.06-2.792-1.06-4.004-.637-.631.16-.315.85-.473 1.273l.053 3.235c.05 1.964-.106 4.561.104 6.416-.157.743-.157 1.38.106 2.176.21.264.369.16.737.158 1.633-1.219 2.739-2.756 3.266-4.56.579-1.062.948-2.12.896-3.234.526-.478-.264-1.114.262-1.593 0-1.163-.263-2.226-.947-3.234m-5.741 2.652c-.474-.477-.843-1.167-1.58-1.06-1.158.528-1.58 1.961-1.529 3.073-.683 2.812-.315 5.517 0 8.487.422.265.264.9.317 1.06.264.53.632 1.274 1.317 1.22.369.001.947-.053 1.211-.477 1.633-4.083 1.159-8.272.263-12.303z" class="fil6"></path><path id="path66" d="m0 57.433 156.16-.002-78.09 184.156zm36.477 20.3L78.277 180l42.428-102.266z" class="fil2"></path><path id="polygon66" d="M152.08 59.603 77.95 238.01l-.444-53.298 45.643-108.869H77.298v-16.24z" style="fill:#0045a6"></path><path id="polygon67" d="M3.326 59.603H79.93v16.24H34.07l44.21 107.046-.02 55.052z" style="fill:#fde607"></path><path id="path67" d="M93.583 45.668c-.474-1.166-1.263-1.379-2.422-1.538-.686.054-1.423.53-1.687 1.22-.316.583-.263 1.379.001 1.962.105.69.948 1.06 1.475 1.166.263-.158.422.583.632.055.475.21 1-.371 1.422-.532.63-.689.682-1.59.58-2.333" class="fil5"></path><path id="path68" d="M66.984 45.72c-.473-.212-.631-1.06-1.264-1.22-1.106-.425-2 0-2.738.796-.37.53-.369 1.697-.158 2.332.157.373.632.638 1.001.956.79.265 1.317.318 2.054-.053.526-.423 1.158-.9 1.21-1.591-.158-.478-.105-.689-.105-1.219z" class="fil5"></path><path id="path69" d="M116.702 49.594c-.789-.796-1.896-.849-2.95-.426-.842.903-1.105 1.697-.789 2.865.579 1.219 1.633 1.273 2.74 1.273.788-.32 1.157-.955 1.527-1.644.105-.742-.157-1.433-.528-2.068z" class="fil5"></path><path id="path70" d="M43.336 50.547c-.369-.795-1.106-.795-1.686-1.168-.21.265-.473-.105-.79.053-.474.53-.947.16-1.263.903-.475.635-.474 1.536-.317 2.227.317.848 1.266 1.431 2.107 1.433.58-.265 1.264-.16 1.686-.798.579-.795.578-1.905.263-2.65" class="fil5"></path><path id="path71" d="M82.708 45.617a54 54 0 0 0-4.845-1.856c-1.685.69-3.16 1.431-4.635 1.856.738.37 1.528.476 2.212 1.007.685.107 1.474.532 2.159.637.738.529 1.528-.425 2.212-.425 1.002-.532 1.897-.85 2.897-1.219m2.529-.532c.105.265.316.636.052.9-2.054 1.167-4.688 1.75-6.952 2.918-1 .211-2.002-.583-3.002-.795-1.475-.798-3.477-1.115-4.899-2.122-.21-.478.212-.583.317-.903 1.211-.265 2.686-1.166 3.95-1.643l.106.107c.948-.583 2.054-.796 3.055-1.326 2.474.955 5.055 1.909 7.373 2.864zm-50.116 8.22c-1.212-.53-2.265-1.326-3.582-1.644-.527 1.378-.841 2.863-1.158 4.243 1.159.741 2.263.846 3.212 1.59.263-.106.421.372.528-.053.209-1.433.84-2.756 1-4.136m90.062-1.38-.158-.902c-1.211.053-2.475 1.273-3.791 1.646.631 1.43.632 2.757 1.21 4.241 1-.372 2.002-1.008 3.003-1.326a1.07 1.07 0 0 0 .684-.423c.001-.212 0-.372-.158-.53-.105-.903-.633-1.964-.79-2.705m-49.194-1.167c-.58-.002-1.157.053-1.686-.053-4.422.478-8.532.53-12.744 1.38-1.317 0-2.792.477-4.003.53a389 389 0 0 0-8.744 2.014c-.737.212-1.368.48-1.948.478-1.949.795-3.686 1.006-5.74 1.909-.316.052-.896.318-1.212.212-.79.478-1.475.796-2.318.901l.053.213 2.633-.16.159.16c2-.267 4.054.16 6.057-.16.421-.104.895-.265 1.263-.211 5.162-1.591 11.007-2.705 16.169-3.448 1.897-.21 3.845-.69 5.742-.477 2.423-.318 4.95-.638 7.688-.424l.106-.107c.843.265 2.001-.105 2.95.053 2.264-.107 4.055.107 6.268.16.262.052.737.265 1 .105 4.003.162 8.427 1.008 12.535 1.697 2.106.425 3.95.585 5.9 1.326.472-.104 1 .16 1.474.265 1.527.69 3.423.583 4.897.69 1.686-.105 2.792 0 4.425-.105.264-.107.895.052 1.212-.053l.105.105c.157-.16.684.053.63-.212-.42-.213-.947-.318-1.315-.37-2.37-1.114-4.793-1.38-7.11-2.23-1.738-.423-3.477-.74-4.951-1.325v.107c-3.108-.741-7.11-1.537-10.376-1.804v-.105c-2.528-.37-5.267-.53-8.058-.794-.263.156-.58-.478-.842-.055-3.318-.265-7.268-.317-10.219-.212m-32.653-.21c.317.744.317 1.856-.261 2.65-.422.635-1.108.532-1.688.797-.841-.002-1.79-.585-2.105-1.432-.159-.691-.158-1.592.315-2.228.316-.743.791-.372 1.265-.903.315-.158.579.213.79-.053.58.371 1.315.373 1.684 1.168m73.368-.956c.368.637.632 1.324.526 2.069-.367.69-.737 1.324-1.526 1.644-1.106 0-2.16-.055-2.739-1.274-.316-1.166-.053-1.961.79-2.862 1.052-.425 2.158-.371 2.949.423m-77.527-1.06c-1.16.953-1.844 2.758-1.317 4.507.578 1.061 1.684 2.12 2.949 2.28-.053.478-.527.213-.842.478-1.37.478-2.95.954-4.32 1.644.211-1.38.896-2.97 1.16-4.401-.527-1.539-2.422-1.433-3.582-2.282.895-.688 2.264-.743 3.159-1.377.895-.16 1.792-.532 2.793-.85zm80.003 0c-.001.212.368 0 .58.264.947.107 1.895 1.008 2.948.903.052.265.473.21.368.476-.473.16-.736.425-1.264.532-.737.581-1.895.583-2.264 1.59.315 1.325.947 2.917 1.159 4.243l.158.052c-.37.16-.843-.265-1.054-.318-1.421-.477-3.002-1.06-4.53-1.43 1.16-.055 2.582-.904 3.003-2.07.79-.953.37-2.44.157-3.34-.473-.585-.842-1.22-1.527-1.539.685.265 1.529.425 2.266.636zm-62.308-.054c.159 2.705-2.685 1.804-4.424 2.547-1.527.158-3.107.741-4.792.581-.685-.263-.684-1.111-.633-1.536.053-.53.264-1.061.79-1.274 2.265-.37 4.846-.795 7.111-1.324.842-.212 1.528.265 1.948 1.006zm48.981-.21c.58.16 1.371.263 1.423 1.111.159.425.106 1.38-.42 1.646-1.212.476-2.582-.056-3.845-.16-1.476-.476-3.109-.32-4.425-.795-.526 0-.948-.584-1.158-1.009-.001-.477-.053-1.271.316-1.484 2.053-1.115 4.108.424 6.266.371zM66.984 45.72c-.475-.212-.632-1.06-1.265-1.22-1.105-.425-2.001 0-2.738.795-.368.53-.37 1.697-.157 2.333.157.372.632.637 1 .955.79.265 1.316.318 2.053-.053.526-.423 1.158-.9 1.212-1.591-.156-.476-.105-.69-.105-1.219zm26.6-.053c-.475-1.168-1.266-1.378-2.425-1.538-.684.054-1.421.53-1.685 1.219-.316.584-.263 1.38 0 1.963.106.69.95 1.06 1.476 1.166.263-.158.42.583.63.053.475.212 1-.372 1.424-.53.631-.689.684-1.59.579-2.333zM63.875 42.91c-1 .213-1.947 1.17-2.474 2.174-.58.956-.317 2.44.263 3.502.526.582 1.158 1.483 2.212 1.537-.685.318-1.635.37-2.529.37-1.37.371-2.582.479-4.003.691.685-.743 1.106-1.538 1.106-2.6-.316-.953-.79-1.961-1.79-2.333-2.265-.53-4.267.32-6.69.637l-.21.16c-.264-.16-.843.158-1 .158-1.16-.053-2.37.585-3.003 1.591-.316 1.06-.633 1.91.053 2.97.63 1.168 1.896 1.484 2.95 1.431-1.107.478-2.002.424-3.003.849-.685-.106-1.316.477-1.844.476.632-1.007 1.58-2.438 1.107-3.975-.369-.583-.738-1.593-1.58-2.014-.685-.745-1.792-.427-2.37-.638 3.265-1.166 7.214-1.909 10.428-2.917.737.16 1.317-.265 1.949-.37 3.422-.426 7.058-1.592 10.428-1.699zm.213-.053.368.055v-.106zm30.652.215c2.58-.055 5.794.952 8.321 1.324.58.212 1.317.107 1.896.37 1.739.267 3.108.743 5.004 1.114 1.685.32 3.266.955 5.003 1.379v.107c-1-.106-1.737.423-2.527 1.06-1.212.956-1.212 2.546-.949 3.977.527.267.158 1.06.79 1.113-.105.32.317.267.37.478-.738-.318-1.316-.105-1.949-.636-.526.37-.949-.423-1.58-.267-.633.002-1.318-.369-1.949-.635.79-.213 1.264-.954 1.58-1.644.263-1.272.105-2.226-.684-3.128-.685-.689-1.475-.689-2.37-.956-1.79-.158-3.688-.635-5.373-.795-.263-.211-.842-.158-1.159-.317-.422 0-.947.159-1.211.106-1 .425-1.844 1.273-2.106 2.28-.106 1.008.368 1.698.578 2.545-1.474-.371-2.897-.264-4.16-.53 1.107-.264 2.054-1.06 2.58-2.068.633-1.326.21-2.598-.368-3.818l-1.264-1.114.053-.105c-.159-.053-.526-.053-.738-.16.632.107 1.792.106 2.212.32zm-8.69-.85c1.37-.318 2.896.372 4.056.212.367.264.842-.054 1.21.106-.156.37-.632.054-.947.265-1.317.212-2.054 1.486-2.528 2.546-.37 1.114.052 2.175.578 3.181l1.317 1.219c-2.317-.318-5.319-.212-7.743-.581-3.055.212-6.265.052-9.058.265-.157-.372-.264.105-.474.053-2-.16-3.897.265-5.794.528.264-.581 1.054-.9 1.422-1.59.528-.902.581-2.226.317-3.076-.58-1.377-1.79-2.49-3.266-2.438l-.053-.16c1.37-.265 2.318 0 3.793-.478l.104.158c.159-.368.423.16.58-.21 1.845 0 3.424-.211 5.32-.265 3.634.107 7.583-.213 11.166.265zm-56.21-.837c-1.085.379-2.302.352-3.464.043a2 2 0 0 1-.163-.048zm-6.554 0c1.686 1.708 3.42 3.02 5.723 3.701.526.158 1 .051 1.58 0l.104.158c1.922-.502 2.812-2.143 3.476-3.872l1.596.013a16 16 0 0 1-.964 2.161c1.476-.369 3.056-.954 4.372-1.482-.578-.134-1.105-.399-1.62-.684l9.267.005c-.856.247-1.718.48-2.59.679-.421.369-1.212.21-1.738.635-4.793 1.22-8.796 2.705-13.43 4.614-.264.37-.475.794-.58 1.22.158 1.005.631 1.485 1.527 1.803 3.265-1.22 7.268-2.707 10.85-3.926 1.105-.425 2.37-.635 3.423-1.008 2.16-.583 4.635-1.271 6.953-1.696l.21-.211.104.16c3.919-1.087 8.04-1.804 12.267-2.277l29.584.005c.269.022.54.06.81.096.423 0 .845 0 1.213.105.526.055 1.107.16 1.58.16 5.688.796 11.64 2.28 17.065 3.658 2.581.585 5.108 1.804 7.637 2.442.58.476 1.686.528 2.265 1.008.843.052 1.631.634 2.475.688.42-.002.947-.425 1.211-.795.527-.742.053-1.433-.316-2.068-1.949-.795-3.633-1.433-5.53-2.176-1.58-.477-3.213-.795-4.74-1.589l-.053.21c-.263-.37-.79-.106-1.054-.424-1.315-.264-2.58-.741-3.792-1.166-.276.16-.76.02-1.118-.149l6.547.002c-.129.048-.254.102-.371.147.578.53 1.473.265 2.106.69.684.37 1.316.583 2.107.581-.251-.418-.457-.91-.658-1.423l1.57.005c.175.39.374.776.615 1.155.263.32.526.795.79.902.42.849 1.792.689 2.423 1.167 2.438-.279 4.294-1.615 5.947-3.216l1.94-.008c-1.695 1.799-3.594 3.36-5.939 4.07 1.001.85 1.106 2.227 1.002 3.184-.37 1.112-1.476 2.226-2.688 2.227.159 1.642 1.213 3.34 1.107 5.039-.837.53-2.246 1.891-3.332 2.695 0 0-23.565-.66-20.948-.788.052-.477-.368-.052-.527-.158-.052-.107.053-.105.053-.16a.88.88 0 0 1-.632-.052c-1.158-.213-2.792-.585-3.95-.69-1.475-.425-3.16-.476-4.635-.69-.37-.106-1.054-.211-1.37-.159-1-.317-2.37-.425-3.58-.37-6.953-.796-14.01-.743-21.227.105-.263.106-.525-.212-.684.107-1.528-.054-3.213.53-4.74.424v.107c-3.107.635-6.267 1.059-9.112 1.854.09.015.167.04.236.061a9 9 0 0 0 .41-.024c.148-.025.129-.012 0 0-.135.108-.25.074-.41.024-3.081.132-18.88.233-21.015.213l-.13.099c-.106 0-.158-.002-.264-.106-.096.004.043.007.394.008-.867-1.121-3.818-.909-3.027-2.925l1-3.764c-.684-.318-1.474-.32-1.895-1.06-.527-.16-.633-.798-.897-1.221-.052-1.06-.052-2.28.949-3.128-2.63-.824-4.764-2.858-6.665-4.906z" class="fil2"></path><path id="path72" d="M75.2 8.653c-.052 2.548.052 4.613-.052 6.842.053 1.379.104 3.128.157 4.825-.104.424-.105.85-.578 1.06-.475.265-.844-.53-1.265-.741-.631-.903-1.844-1.962-2.054-3.023-1.211-1.592-1.422-4.403-1.527-6.364l.105-.16c-.158-.264.21-.689.105-1.06.422-1.22 1.422-2.12 2.74-2.28.63.103 1.896 0 2.37.9m-1.422.475c-.737 0-1.632-.105-2.107.69-.789 1.857-.156 3.606.16 5.623.42 1.218 1.157 2.492 2.053 3.393-.106-.743.106-1.379-.104-2.07.42-2.702-.16-5.143-.002-7.635m11.272-.477c.684 1.01.948 2.069.949 3.235-.528.48.262 1.115-.264 1.593.052 1.112-.316 2.172-.896 3.233-.527 1.804-1.633 3.342-3.266 4.56-.368.001-.526.107-.737-.157-.263-.795-.263-1.433-.106-2.176-.209-1.856-.051-4.454-.104-6.416l-.053-3.235c.158-.423-.158-1.113.473-1.273 1.212-.423 3.108-.423 4.004.636m-.896 1.062c-.526-.795-1.316-.637-2.16-.53 0 3.233 0 6.31.211 9.544 1.686-2.544 3.161-5.884 1.95-9.014M78.73 16.82c-.106-1.645-.159-3.342-.739-4.88l-.315.637c-.58 3.393-.737 6.735.37 9.918.42-1.646.735-3.235.683-4.88.21-.21-.157-.633 0-.795m.578-5.513c-.474-.478-.842-1.168-1.58-1.062-1.158.53-1.58 1.963-1.528 3.075-.683 2.812-.315 5.516 0 8.486.423.266.264.901.316 1.061.264.53.633 1.273 1.317 1.22.37 0 .948-.052 1.212-.477 1.632-4.083 1.158-8.274.263-12.303zM53.501 38.351c-1.053-.477-2.213-1.326-3.107-2.176-.422 1.168-1.054 2.23-1.686 3.343 1.265-.318 2.58-.478 3.74-.849.262-.105.895-.054 1.053-.318m53.985.689c-.685-1.06-1.158-2.174-1.79-3.235-1.054.69-1.896 1.803-3.16 2.228l.263.213.157-.162c1.318.425 2.844.478 4.53.956zm-40.028-2.65c-.736-.638-1.685-1.488-2.317-2.28-.21.9-.896 1.855-1.475 2.649.896.055 1.737-.159 2.528-.053.316-.211.949-.158 1.264-.317m24.964.052c-.789-.797-1-1.75-1.474-2.492-.578.794-1.579 1.75-2.213 2.225 1.213.32 2.372.425 3.687.373zm-70.89-1.909c-.422-.902-1.423-1.22-2.266-1.379-1 .106-2.317.794-2.686 1.908-.105.795-.052 1.75.421 2.546.37.424.897.849 1.318 1.009 1.633.158 2.106.105 3.212-1.168.368-.901.686-1.964 0-2.916zM80.31 35.75c-1.001-.795-1.686-2.067-2.266-3.075-.525 1.166-1.369 2.28-2.212 3.182.58-.054 1.265.159 1.949.052.895-.052 1.844.161 2.529-.159m59.198-1.802c-.316-.584-.842-1.22-1.527-1.38-.948-.636-1.79.053-2.686.372-.42.478-.948.954-.947 1.695-.107 1.115.264 2.229 1.264 2.865.631.265 1.422.585 2.263.265a3.73 3.73 0 0 0 1.686-1.695c.158-.688.369-1.328-.053-2.121zm-112.183-.69c.105 1.325.737 2.441-.315 3.448-1.055.37-2.108.369-3.267.158-.525-.158-.315-1.113-.368-1.591-.053-.158-.264-.476.001-.636.737-.318 1.632-.583 2.212-1.168.104-.476-.16-.848-.632-.954-.843.213-1.581.689-2.422.849-.476-.796-.107-2.12-.582-2.968.949-.425 1.792-1.116 2.846-.638 1.368.636 2.054 2.227 2.527 3.5zm106.81-3.604c-.683-.583-1.684-.795-2.474-.795-2.002.635-2.581 2.917-3.054 4.666.156.689-.318 1.75.472 2.334 1.107.634 2.529.529 3.74.051-.262-.688.21-1.219.053-1.961-.579-.264-1.316-.689-2.054-.901a.725.725 0 0 1-.106-1.167c1.002-.212 2.002.318 2.845.796.42-1.115.421-1.964.579-3.023m-99.279-.583a2.88 2.88 0 0 0-1.738-1.593c-1.21-.21-2.423.16-3.055 1.22-.738 1.169-.315 2.44.369 3.396.474.37 1.107.9 1.738.636l.105.158c.738 0 1.633-.211 2.107-.796.526-.954.949-2.016.474-3.02m91.328-.903c-.632-1.059-1.686-1.643-2.898-1.484-.948.373-1.79 1.061-2.16 2.068-.315 1.271.317 2.494 1.317 3.235.317-.106.633.425.949.265 1.001-.053 1.844 0 2.476-1.007.79-.797.684-2.283.316-3.077m-106.286.32c-.368-.69-.632-1.273-1.211-1.909-1.581-1.326-3.476-1.538-5.477-1.326-.738.423-1.844.369-2.423.794.474.478 1.105.85 1.685 1.379v.318c.686 0 1.263 1.008 1.581 1.485l.104-.052c.738 1.008 1.738 2.067 2.318 3.075.212-.053.158.37.42.32.527-.373 1.213-.849 1.792-.636.631-.267 1.317-.004 2.107.105-.263-1.219-.422-2.547-.895-3.553zm124.51-3.767c-.317 0-.58-.054-.844-.267-1.632-.158-3.265-.316-4.846.478-2.421 1.168-3.002 4.138-3.37 6.312l1.369-.318c.948.104 1.739.158 2.686.688.79-.9 1.318-1.803 2.054-2.81 1.16-1.485 2.634-2.653 3.898-3.765zm-94.542-.37c-.315-.426-.737-.742-1.21-.849-.896-.21-1.844.105-2.529.637-1 .954-1.105 2.227-.63 3.287.472.797 1.105 1.008 1.737 1.433.842.158 1.632.105 2.158-.425.159.16.265-.211.475-.213.737-.795.948-1.962.685-2.968-.264-.318-.37-.796-.686-.901zm60.2-.426c-.738-.952-2.212-1.166-3.212-.581-.579.423-1.316.954-1.369 1.855-.264.9.053 1.75.683 2.44.685.742 1.74 1.007 2.635.795.633-.37 1.422-.636 1.633-1.432.157-.265.315-.743.262-1.008.106-.743-.051-1.54-.631-2.069zm-67.361-1.059c.526.636 1.21 1.061 1.369 1.855-.317.265-.107.532-.21.848-.843.425-1.476.162-2.371.478-.896.107-2.107-.211-2.685.743-.159.477.262.69.63.85 1.423-.055 2.898-.267 4.213-.53.843.953.948 2.225 2.318 2.862-1.158 1.486-3.16 1.591-4.898 1.379-2.686-1.061-3.792-4.296-4.055-7.106.052-.424.104-1.008.421-1.274.842-.53 1.686-.637 2.475-.423.948.106 1.843.053 2.793.318zm75.947-.477c.789 1.749-.001 3.87-.79 5.569-.632 1.696-2.265 2.915-3.793 3.022-1.474-.001-2.739-.32-3.95-1.273.052-.212 0-.637.421-.478.634-.688 1.476-1.59 1.687-2.599.948.16 2.158.213 3.16.48.42-.108 1.526.21 1.843-.531.105-.372-.211-.85-.58-.955-1.528-.055-2.633-.371-4.16-.373l-.159-.158-.104.158c0-.263.051-.848-.369-1.218l1.526-1.697c1.582-.16 3.689-.955 5.268.053zm-52.036-.266c-.475-.742-1.054-1.378-1.896-1.59-1-.106-1.79 0-2.633.848-.79.902-.844 2.123-.476 3.075.527 1.062 1.581 1.54 2.581 1.54.79-.002 1.581-.32 2.002-1.01.632-.743.737-2.014.422-2.863m27.387-.744c-.42-.689-1.58-1.22-2.422-1.112-1.053.264-2.054 1.06-2.37 2.225-.106 1.114.316 2.07 1.105 2.865.737.37 1.318.478 2.107.37.738-.21 1.528-.69 1.896-1.378.42-1.06.369-2.118-.316-2.97zm-38.026-3.021c1.422 1.326 1.634 3.339 1.791 4.932 0 1.75-.369 3.978-2.213 4.986-.526.052-1.054.423-1.528.635l-.158-.107c-.263.267-.632-.05-.843.214l-1.527-.265c.264-1.168.791-2.334.632-3.5 1.422-.796 2.897-.955 4.372-1.858.158-.37.053-.687-.264-.954-.158-.423-.474 0-.63-.105-1.318.478-2.845 1.008-4.109 1.484l-1.106-1.114c.104-2.597 3.054-3.287 4.898-4.188l.052-.213c.158.265.422.053.633.053zm47.98 1.538c1.16.37 1.58 1.643 1.634 2.545-.633.213-.737 1.379-1.529.903a19 19 0 0 0-2.475-.848c-.053-.213-.421-.32-.737-.16-.053-.532-.422-.106-.631-.425-.16.16-.475-.053-.581.212-.052.265-.42.53-.157.901 1 .85 2.527.903 3.844 1.593.158-.002.738-.002.633.37-.158 1.062.052 2.175.63 3.182-.158.53-.631.16-.946.425-1.634-.053-3.477-.373-4.478-1.91-.684-.797-.737-1.963-.948-2.917.369-.265-.316-.477.105-.741-.368-.955.37-1.805.317-2.705.526-.797.527-2.441 1.844-2.121.104-.213.527.105.737.105.948.53 2.001 1.008 2.738 1.591m-54.67-8.593c1.792 2.121 1.054 5.251.423 7.902.21.16-.106.583-.159.9-.158.638-.316 1.485-.579 1.964-.526 0-.896-.107-1.264-.054-.474-2.227-1.105-4.507-1.634-6.788-.209-.211-.315-.794-.788-.742-.212.158-.686.16-.738.583.316 1.008.368 1.751.633 2.865.052.583.472 1.219.473 2.014.053.849.79 2.015.264 2.598-1.107 1.487-1.738-.583-2.528-1.06-2.16-2.388-4.214-4.72-3.477-7.953 1-1.326 2.266-1.857 3.74-2.227 1.79-.373 3.95-1.221 5.635-.002zm61.464-.687c-.472-.265-1.263-.265-1.79-.478-1.265.16-2.845.53-3.16 1.91-.263.212.21.53-.212.635l.107.16c-.106.478 0 1.006-.316 1.538.158.954.21 1.857.316 2.758 0 .423.21.741.315 1.112.37 1.168.632 2.283 1.054 3.342.474-.053 1.37.318 1.422-.529 0-.585.262-1.115.21-1.54l.106-.158c.422-1.591.685-3.395 1.21-5.092.106-.16.475-.37.685-.317.317.16.58.423.633.795-.474 2.122-.843 4.084-1.369 6.1-.633 1.006.42 1.431 1.105 1.802 1.054-1.114 2.265-2.386 3.266-3.713.895-1.486 2.107-3.393 1.896-5.143-.79-2.494-3.266-2.812-5.478-3.182zM63.82 41.386c4.865-.554 9.87-.776 14.857-.862.316.213.685-.158.948.053.316-.106.685-.051.948-.106l.106.106c.105.002.157-.106.211-.106 4.31.1 8.246.341 12.514.898zm-29.647 0c.319-.844.588-1.695.896-2.453 1.105-.954 1.843.848 2.896 1.113.157.213.578.002.631.32 2.319 1.06 4.213.741 6.426.107 2.054-.797 4.004-3.502 4.266-6.047.106-.477.685-.688 1.054-.583.737.794 1.527 1.857 2.475 2.547 2.371 1.802 5.11 1.378 7.69.794 2.054-.69 3.266-2.863 3.634-4.88-.317-.372.158-.795.316-1.06.475-.423 1.053.16 1.264.53.369 1.644 2.107 3.343 3.634 3.978.738.16 1.317.476 2.055.266.105.263.263-.108.474.052 3.265-.105 4.581-3.233 5.476-5.727l-.104-.053.422-.477c.472-.425.84.212 1.157.53.158.37.053.53.158.903 1.107 2.332 2.687 4.93 5.53 4.772 2.002 0 4.004-1.061 5.215-2.865.474-.741.527-2.014 1.528-2.225.736.052.631.846.789 1.326-.158.103.052.265.158.369.105 1.433 1.423 3.553 3.213 4.243 1.897.052 3.897 1.326 6.005.16 1.631-.85 3.054-1.646 4.107-3.448.263-.211.737-.213 1.054.054.368 1.112.79 2.705 1.58 3.553.316 1.112 1.632 2.12 2.58 2.438.158.425.631.16.896.318.316-.051.316.532.578.107.21.105.422.37.633.213.369.265 1.159.212 1.633.317a9.28 9.28 0 0 0 5.635-2.493c.421-.159.79-.106 1.054.266.45 1.06.74 2.064 1.176 3.034h-1.57c-.18-.466-.356-.94-.555-1.39-.86.364-1.836 1.002-2.629 1.377l-6.548.014a3 3 0 0 1-.302-.172c-.37-.107-.896.053-1.16-.318-.736.265-1.37-.423-2.106-.32-.369 0-.422-.423-.737-.105-4.003-1.273-8.376-1.431-12.589-2.334l-.263.16c-2.476-.37-4.372-.583-7.005-.848-1.368.052-2.37-.053-3.529-.158-1.158.37-2.421-.32-3.582.052-.788-.212-1.525.106-2.316-.16-1.053.213-2.108.16-3.107.106-1.053.372-1.949 0-2.95.32-5.899.212-10.955 1.059-16.485 1.961-.37-.158-.58.478-.843.106-1.212.425-2.423.477-3.528.955l-.158-.105c-1.173.217-2.363.543-3.573.873l-9.265-.014c-.514-.29-1.015-.594-1.542-.807q-.117.414-.248.791zm-12.617-.002 1.734-.01a42 42 0 0 1-1.652-1.805c.052-.478.737-.689.896-1.007.58.847 1.685 1.379 2.422 2.227.425-.001.806.424 1.26.595l3.626-.008q.592-.21 1.119-.588c1.37-1.644 1.684-3.552 1.738-5.515.105-.264.052-.583.157-.954l1.37-.37c1.896 2.068 5.267 4.348 8.216 3.55 3.002-.635 4.53-4.135 5.267-6.787.21-.529.842-.316 1.37-.423.947-1.167 1.421.425 2.107.795.21.37.842.848 1.263 1.008 1.423 1.273 3.317 1.855 5.426 1.484.21.106.684 0 .947-.265 1.211-.212 2.527-1.113 3.37-2.332l-.105-.055c.632-.636.632-1.113 1.107-1.802.473-.53.315-2.227 1.527-1.696.21-.16.58-.106.79-.107 1.843 2.227 4.899 3.978 7.532 3.182 2.212-1.591 2.001-4.401 1.527-6.576-2.054-2.068-3.634-4.668-4.582-7.21-.317-.373-.422-1.116-.631-1.54-.318-1.062-.738-2.706-.737-3.977.314-.373-.002-1.008.208-1.379.37-1.698 1.74-2.917 3.372-3.288 1.052-.423 2-.265 3.002-.37 1.053-.743.315-1.911.316-2.812l-.159.001c.265-.372.317-1.01.475-1.38.949-.848 2.265-.796 3.212-.583.264.16.528.53.896.478.474 1.059.105 2.492.052 3.765.421.848 1.74.318 2.476.583 2.107.37 4.213 1.326 4.687 3.764.106 1.698-.158 3.713-.79 5.197-.946 3.13-2.212 5.516-4.266 8.116a.634.634 0 0 0-.632.423c-.21 2.492-.738 4.666 1.159 6.47 1.896.796 3.95.318 5.583-.85 1.001-.581 1.633-1.75 2.475-2.332.526.318.949.265 1.58.265.843 2.227 2.264 5.144 4.845 5.887.79.105 1.423.21 2.213.158.106.16.21.158.316.053.105-.211.368 0 .528.001 1.79-.425 3.685-1.222 4.843-2.759.79-.53 1.213-1.485 2.266-.743l.159-.105c.158.425 1.052-.107.894.583.422 1.008.79 2.122 1.369 3.235 1.317 2.385 3.372 3.713 6.057 3.553.212-.16.58-.265.843-.265 2.001-.636 3.792-2.069 5.373-3.5.421-.053.895.372 1.37.318.314 2.44.315 4.879 2.264 6.63.21-.16.316.423.631.317.58.478 1.317.106 1.95.373 2.053-.109 4.108-1.484 5.371-3.237.421.16.79.69 1.106.955-.824.885-1.648 1.816-2.533 2.664l1.94.006a49 49 0 0 0 2.016-2.299c.368-.053 1.053.214 1.474.002 1.527-.32 3.002-1.22 3.371-2.865.631-1.326-.368-2.28-.527-3.555 1.265-2.278 3.424-4.664 5.478-6.363.579-.688 2.58-.265 1.79-1.642-.474-.158-.737-.583-1.158-.372-.053-.425-.686-.478-1.052-.583-2.583-.583-4.847-1.168-7.165-.053-.894.423-1.897 1.219-2.422 2.015-.631.583-.79 1.643-1.368 2.44-.476 0-1.055-.531-1.424-.319-.106-.054-.156-.212-.262-.212-.158.16-.318.16-.422-.053-1.528.053-2.792.688-3.687 1.91-1.264 2.12-1.791 4.4-1.158 6.733.526.69 1.263.955 2 1.273.739.16 1.528-.053 2.213.212l-.527.689c-1.317.848-3.055 1.856-4.634 1.008-1.58-1.219-1.581-3.499-1.95-5.57.422-.688 1.423-.74 1.95-1.376.895-.743 1.315-2.069 1.21-3.183-.051-1.06-.683-2.386-1.737-3.182-1.212-.476-2.37-.9-3.372-.37l-.104-.106c-.58.213-1.16.478-1.686.954-1 .848-1.157 2.227-1.317 3.446.263.795.79 1.645 1.16 2.546-1.74 1.802-4.161 3.926-6.9 3.183-1.37-.636-2.37-1.697-3.108-2.97 0-.37-.474-.69-.21-1.114 1.106.373 2.475.796 3.687.636 3.001-.105 4.739-2.863 5.635-5.355-.053-1.486.948-2.547.316-3.925.422-.425-.263-.743-.105-1.06l-.264-.213c-.316-.476-.947-.687-1.264-.849-1.316-.21-2.474-.158-3.686-.05l-.105-.215c1.475-1.962 2.896-4.136 2.843-6.627.053-.212-.367-.425-.105-.637-.422-1.113-1.58-2.6-2.738-2.97 0 .053 0 .16-.054.211l-.21-.316c-1.685-.478-3.95-1.433-5.794-1.22h-.526l-.895.106c-1.476.636-2.793 1.908-2.95 3.499 0 .318-.264.743 0 1.008-.317.425-.157.954-.105 1.379.051 1.113.21 2.44.368 3.554-.843-.479-1.474-.744-2.37-1.222-.263-.21-.685-.37-.949-.263l-.156-.16c-.897-.055-1.844-.318-2.529.477-1.159 1.75-1.948 4.031-1.791 6.363l.21.16c-.314.901.317 1.75.422 2.438 1.001 2.547 3.739 3.5 6.215 3.66-1.053 1.007-2.422 1.962-3.95 2.016-.527.211-1.106-.107-1.632-.001-.16.052-.106-.158-.158-.158-2.055-.584-3.371-2.28-3.95-4.137-1.106-1.22.947-1.327 1.263-2.226.58-1.274 1.159-2.494.58-3.768-.105-.263-.369-.634-.37-.794-.946-1.433-2.686-2.28-4.37-1.909-1.686.476-2.318 1.274-2.95 2.705-.316.423-.212 1.112-.158 1.377-.316 1.273.738 2.281 1.264 3.237-1.212 1.59-3.423 3.5-5.794 2.756-1-1.484-.79-3.076-.683-4.56 2.737-2.864 4.423-6.682 5.37-10.288.212-.213-.21-.478.16-.69.42-1.537.21-3.34-.16-5.037C87 5.84 84.419 5.206 81.892 4.835l-.106.105-.317-.265c-.105-1.272.158-2.067-.473-3.234-.58-.902-1.317-1.222-2.16-1.22-.316-.424-.948-.107-1.316-.106-.791-.214-1.317.317-1.949.476-.21.425-1.37 1.326-1.21 2.333-.055.426.42 1.06-.106 1.591 0 .054.158.053.104.16.001.425-.367.265-.631.212-.737.37-1.58.213-2.212.638-1.264.05-2.214 1.113-3.108 1.907.158.107 0 .267-.105.37-1.474 2.547-.896 5.675.052 8.487.475 2.067 1.738 4.03 3.002 5.78l-.106.053c.685.69 1.16 1.75 2.056 2.44.262 1.643.474 3.66-.948 4.773-2.16.318-4.53-1.115-5.583-2.81 1.264-1.328 1.738-3.13 1.158-4.721-.632-1.484-1.949-2.334-3.371-2.6-.738.108-1.684 0-2.529.478-1.42.954-2.212 2.492-2 4.136.369 1.326 1.158 2.652 2.369 3.288-.314 1.008-.63 2.069-1.315 2.97-.528.848-1.423 1.379-2.16 2.016-.947.213-1.844.476-2.95.265-1.158-.212-2.423-.848-3.424-1.75l.001-.318c1.264.105 2.79-.371 4.002-1.061 1.528-1.22 2.74-3.023 2.58-4.985-.209-2.546-.262-6.152-2.948-7.107-.158-.158-.37.32-.526-.053-1.475.054-2.897 1.22-4.16 1.963l-.16-.105c.106-1.856.738-3.818.16-5.729-.106-.743-.317-1.591-.844-2.227-1.843-2.121-4.792-1.644-7.111-.954-.894.53-1.948.424-2.686.954-1.527.955-2.686 2.174-2.527 4.136.263.69.052 1.486.632 2.016l-.106.158c.632 1.328 1.423 2.652 2.476 3.873-.527.423-.896-.32-1.37.105-1.264 0-2.317-.265-3.475.742-.633.425-.791 1.22-.633 1.803l-.211.265c.423 2.97 1.054 5.78 3.582 7.85 1.79 1.271 4.582 1.113 6.426.106l.157.211c-.42.478-.526 1.168-.894 1.697-.896 1.431-2.424 2.545-4.056 2.44-2.213-.16-3.897-1.75-5.53-3.341.315-.37.58-.848.737-1.379.684-.69.316-1.909.262-2.65-.525-1.273-1.369-2.44-2.738-2.76-1.686-.424-3.266.053-4.423 1.327-.738.953-.896 2.281-.79 3.393.42 1.433 1.37 2.812 3 3.184.16 1.802-.42 3.075-.735 4.72-.475.9-1.317 1.378-2.213 1.485-1.422-.109-2.95-.48-3.95-1.963 1.21-.266 2.634.158 3.634-.903.79-.636.686-1.59.948-2.385-.316-2.282-1.054-5.039-3.214-6.31-1.369-.903-3.106-.213-4.317.105-.474-2.069-2.212-3.818-4.055-4.561-.423-.106-.791-.211-1.054-.053-.158-.318-.632-.054-.685-.32-1.106.213-1.843-.158-2.792.16-.473.16-1.105.213-1.422.478l-.632.053c-.21.425-.421.16-.843.317-.421.585-1.21.266-1.58.901.074.225-.163.188-.166.2 0 .005.04.02.167.067-.474.478.369-.158.157.424l.633.052c2.633 1.326 4.792 4.349 6.584 6.843-.474 1.113-.738 2.334-.527 3.498.21 1.486 1.844 2.654 3.107 2.972.738-.054 1.264.105 1.897.104.4.445.81.9 1.234 1.339z" class="fil2"></path><path id="path73" d="M19.899 28.485c-.37-.689-.633-1.272-1.211-1.908-1.581-1.326-3.477-1.538-5.477-1.327-.739.425-1.845.372-2.423.795.473.478 1.105.848 1.685 1.379l-.001.32c.684 0 1.263 1.008 1.58 1.485l.106-.054c.737 1.008 1.737 2.069 2.317 3.075.21-.053.158.372.421.32.527-.373 1.213-.849 1.792-.638.631-.265 1.316 0 2.106.107-.264-1.22-.422-2.545-.895-3.554z" class="fil6"></path><path id="path74" d="M34.857 29.07a2.88 2.88 0 0 0-1.739-1.592c-1.21-.212-2.423.158-3.055 1.22-.737 1.167-.314 2.439.37 3.394.473.37 1.107.901 1.737.638l.105.156c.738.002 1.634-.21 2.107-.794.527-.955.949-2.014.475-3.023" class="fil6"></path><path id="path75" d="M27.325 33.258c-.473-1.273-1.159-2.864-2.528-3.499-1.053-.477-1.897.211-2.845.636.475.849.106 2.173.581 2.97.841-.16 1.58-.637 2.421-.85.474.107.738.478.633.956-.58.583-1.474.848-2.213 1.166-.263.16-.052.477 0 .637.054.476-.158 1.432.369 1.59 1.158.212 2.212.212 3.267-.158 1.052-1.008.42-2.122.314-3.448z" class="fil6"></path><path id="path76" d="M21.531 34.532c-.42-.901-1.422-1.221-2.264-1.38-1 .106-2.317.795-2.687 1.91-.105.795-.052 1.75.422 2.545.369.425.895.85 1.317 1.008 1.633.16 2.106.107 3.212-1.166.368-.901.684-1.962 0-2.917z" class="fil6"></path><path id="path77" d="M79.784 37.342c-.79-.213-1.528.107-2.317-.16-1.053.214-2.107.16-3.107.107-1.055.37-1.95 0-2.95.318-5.899.212-10.955 1.06-16.486 1.963-.368-.16-.58.476-.841.106-1.212.423-2.424.477-3.53.955l-.159-.107c-2 .37-4.054 1.06-6.162 1.538-.42.371-1.21.211-1.737.636-4.793 1.219-8.796 2.705-13.431 4.614a3.7 3.7 0 0 0-.58 1.22c.159 1.007.632 1.485 1.528 1.803 3.265-1.22 7.268-2.705 10.85-3.926 1.105-.423 2.37-.636 3.423-1.006 2.16-.585 4.635-1.273 6.953-1.697l.21-.212.105.16c8.428-2.335 17.804-2.972 27.125-3.13.316.21.685-.158.948.052.315-.105.684-.052.948-.107l.104.107c.106 0 .16-.105.212-.105 4.582.105 8.743.37 13.325 1.008.422-.002.842-.002 1.21.104.527.054 1.107.16 1.58.161 5.69.796 11.64 2.278 17.065 3.657 2.582.585 5.109 1.805 7.638 2.441.58.476 1.685.53 2.265 1.008.842.053 1.633.636 2.475.689.422 0 .948-.423 1.21-.796.528-.74.053-1.431-.315-2.067-1.95-.795-3.634-1.433-5.53-2.174-1.58-.48-3.213-.797-4.74-1.591l-.054.212c-.263-.372-.788-.107-1.053-.425-1.315-.265-2.58-.743-3.79-1.166-.37.21-1.107-.107-1.424-.318-.368-.107-.894.053-1.159-.32-.737.267-1.368-.423-2.105-.316-.37-.001-.422-.425-.738-.108-4.003-1.272-8.374-1.43-12.587-2.333l-.264.16c-2.475-.372-4.372-.585-7.005-.848-1.37.05-2.37-.053-3.529-.16-1.16.37-2.424-.318-3.581.053z" class="fil6"></path><path id="path78" d="M94.741 43.07c-.421-.212-1.58-.212-2.212-.319.211.107.58.107.738.16l-.054.105 1.264 1.114c.58 1.22 1.001 2.494.369 3.818-.526 1.008-1.474 1.804-2.58 2.069 1.263.265 2.686.16 4.16.53-.21-.848-.684-1.537-.578-2.545.262-1.008 1.105-1.856 2.105-2.28.265.053.79-.107 1.212-.107.316.16.896.107 1.159.318 1.685.158 3.582.638 5.373.796.895.265 1.685.265 2.37.954.79.902.947 1.856.684 3.127-.316.692-.791 1.433-1.58 1.646.631.265 1.316.636 1.948.636.632-.158 1.054.637 1.581.265.632.532 1.211.318 1.948.638-.052-.213-.474-.16-.37-.478-.631-.055-.262-.848-.79-1.114-.263-1.433-.263-3.022.95-3.978.789-.635 1.527-1.166 2.528-1.06v-.108c-1.738-.423-3.32-1.059-5.004-1.376-1.896-.373-3.265-.849-5.005-1.114-.578-.265-1.314-.16-1.895-.372-2.528-.37-5.741-1.379-8.321-1.325z" class="fil6"></path><path id="path79" d="M63.877 42.91c-3.371.106-7.006 1.276-10.43 1.699-.631.105-1.21.53-1.947.37-3.213 1.009-7.163 1.752-10.428 2.918.579.212 1.684-.107 2.368.636.844.423 1.212 1.431 1.582 2.016.474 1.537-.475 2.97-1.107 3.976.528 0 1.16-.583 1.844-.476 1-.427 1.897-.37 3.003-.85-1.053.053-2.319-.265-2.951-1.431-.684-1.061-.368-1.91-.052-2.97.632-1.007 1.844-1.642 3.002-1.591.158 0 .737-.318 1-.158l.211-.16c2.423-.318 4.424-1.166 6.69-.636 1 .37 1.473 1.377 1.79 2.332 0 1.061-.422 1.857-1.106 2.598 1.421-.21 2.633-.318 4.004-.688.894 0 1.842-.053 2.526-.371-1.052-.054-1.685-.955-2.211-1.538-.58-1.061-.842-2.545-.264-3.5.527-1.009 1.475-1.963 2.476-2.175z" class="fil6"></path><path id="path80" d="m105.853 48.267-1.843-.32c-2.16.054-4.214-1.483-6.268-.37-.369.213-.316 1.007-.316 1.484.212.425.632 1.008 1.16 1.008 1.315.478 2.95.32 4.423.796 1.264.107 2.635.636 3.845.16.526-.266.58-1.22.421-1.646-.053-.846-.841-.954-1.422-1.112" class="fil6"></path><path id="path81" d="M56.872 48.478c-.42-.741-1.104-1.219-1.948-1.006-2.266.53-4.846.954-7.11 1.324-.527.213-.737.743-.791 1.273-.05.425-.052 1.274.633 1.539 1.685.158 3.265-.425 4.792-.583 1.74-.743 4.583.158 4.424-2.547z" class="fil6"></path><path id="path82" d="M119.178 48.533c-.737-.213-1.581-.373-2.264-.638.683.318 1.053.955 1.528 1.539.209.9.63 2.385-.16 3.34-.421 1.166-1.842 2.016-3.001 2.069 1.527.37 3.107.954 4.529 1.431.21.053.685.478 1.053.318l-.158-.054c-.211-1.324-.842-2.916-1.159-4.24.369-1.01 1.529-1.008 2.265-1.593.527-.105.79-.369 1.264-.53.106-.264-.315-.211-.368-.476-1.054.105-2.001-.796-2.95-.903-.21-.263-.576-.053-.579-.263z" class="fil6"></path><path id="path83" d="M39.175 48.533c-1 .318-1.896.69-2.791.848-.895.636-2.266.69-3.16 1.379 1.158.848 3.054.742 3.58 2.28-.263 1.432-.947 3.022-1.158 4.402 1.37-.69 2.95-1.166 4.318-1.644.317-.265.79 0 .843-.477-1.263-.158-2.369-1.22-2.95-2.282-.525-1.75.16-3.554 1.317-4.506" class="fil6"></path><path id="path84" d="M75.991 50.758c-.58 0-1.158.053-1.686-.053-4.424.476-8.532.53-12.745 1.379-1.316 0-2.792.478-4.002.53a400 400 0 0 0-8.744 2.017c-.737.212-1.368.477-1.948.475-1.95.796-3.686 1.009-5.74 1.91-.316.052-.896.317-1.212.212-.79.478-1.475.796-2.318.901l.052.213 2.634-.16.158.16c2.001-.266 4.055.16 6.058-.16.421-.106.895-.266 1.263-.211 5.161-1.591 11.007-2.705 16.169-3.448 1.897-.212 3.845-.69 5.742-.477 2.422-.318 4.95-.636 7.688-.425l.106-.104c.842.265 2.001-.109 2.95.053 2.264-.107 4.054.105 6.266.158.265.052.739.265 1.002.107 4.003.158 8.426 1.006 12.535 1.696 2.105.424 3.95.584 5.899 1.326.473-.107 1 .16 1.475.264 1.527.69 3.422.583 4.896.69 1.686-.105 2.792 0 4.426-.105.264-.108.895.052 1.211-.053l.105.105c.158-.16.685.051.631-.212-.42-.213-.947-.318-1.315-.37-2.37-1.114-4.793-1.38-7.11-2.23-1.738-.423-3.477-.742-4.951-1.324v.106c-3.108-.743-7.11-1.539-10.376-1.804v-.105c-2.528-.37-5.267-.53-8.058-.796-.263.16-.58-.476-.842-.053-3.32-.265-7.27-.318-10.219-.212z" class="fil6"></path><path id="path85" d="m125.183 51.926-.158-.901c-1.211.05-2.475 1.271-3.793 1.642.633 1.433.633 2.757 1.212 4.243 1-.372 2.002-1.006 3.003-1.326.262-.052.473-.158.684-.423 0-.213 0-.372-.158-.53-.105-.901-.631-1.962-.79-2.705" class="fil6"></path><path id="path86" d="M35.12 53.305c-1.211-.53-2.264-1.327-3.581-1.644-.527 1.378-.841 2.862-1.158 4.243 1.159.741 2.265.848 3.212 1.59.263-.106.421.372.528-.053.21-1.433.84-2.756 1-4.137" class="fil6"></path><path id="path87" d="M82.708 45.617a54 54 0 0 0-4.845-1.856c-1.685.69-3.16 1.431-4.635 1.856.738.37 1.528.476 2.212 1.007.685.107 1.474.532 2.159.637.738.529 1.528-.425 2.212-.425 1.002-.532 1.897-.85 2.897-1.219" class="fil6"></path><path id="path88" d="M110.751 10.616c-.472-.265-1.263-.265-1.79-.478-1.265.16-2.845.53-3.16 1.91-.263.212.21.53-.212.635l.107.16c-.106.476 0 1.006-.316 1.538.158.954.21 1.855.316 2.758 0 .423.21.74.315 1.112.37 1.167.632 2.28 1.054 3.34.474-.053 1.37.32 1.422-.529 0-.583.262-1.113.21-1.538l.106-.158c.422-1.591.685-3.395 1.21-5.092.106-.16.475-.37.685-.318.317.16.58.424.633.796-.474 2.12-.842 4.083-1.369 6.098-.633 1.008.42 1.431 1.105 1.803 1.054-1.113 2.265-2.386 3.266-3.712.895-1.486 2.107-3.394 1.896-5.143-.79-2.494-3.266-2.812-5.478-3.182z" class="fil6"></path><path id="path89" d="M49.289 11.304c-1.685-1.22-3.846-.37-5.636 0-1.475.373-2.739.903-3.74 2.227-.737 3.235 1.317 5.57 3.476 7.956.79.476 1.422 2.545 2.528 1.06.528-.582-.21-1.75-.263-2.598 0-.796-.421-1.432-.474-2.015-.263-1.113-.315-1.856-.631-2.864.052-.425.526-.423.737-.583.474-.053.578.53.79.743.526 2.28 1.159 4.56 1.633 6.788.368-.055.737.052 1.263.05.264-.475.422-1.324.58-1.96.053-.317.37-.744.159-.902.631-2.65 1.368-5.78-.422-7.902" class="fil6"></path><path id="path90" d="M103.957 19.896c-.738-.583-1.79-1.06-2.738-1.591-.212 0-.633-.318-.738-.107-1.317-.318-1.317 1.326-1.844 2.122.053.9-.684 1.75-.316 2.704-.421.265.264.478-.105.743.211.954.264 2.12.949 2.916 1 1.538 2.843 1.858 4.475 1.909.317-.265.79.107.948-.424-.58-1.006-.79-2.121-.632-3.182.105-.37-.473-.37-.631-.369-1.317-.69-2.845-.745-3.846-1.593-.261-.37.106-.636.159-.9.105-.266.421-.054.579-.213.21.32.58-.107.633.425.316-.16.684-.055.737.16.789.21 1.58.476 2.475.848.79.476.895-.69 1.527-.903-.052-.9-.474-2.174-1.632-2.545" class="fil6"></path><path id="path91" d="M55.977 18.358c-.21 0-.475.212-.632-.053l-.053.213c-1.842.9-4.792 1.59-4.898 4.188L51.5 23.82c1.264-.476 2.792-1.007 4.108-1.484.159.105.475-.318.633.105.315.265.42.583.264.955-1.475.901-2.95 1.06-4.373 1.855.158 1.168-.37 2.334-.63 3.5l1.526.266c.211-.266.578.054.843-.211l.157.104c.474-.21 1.001-.584 1.527-.636 1.845-1.008 2.213-3.234 2.213-4.985-.158-1.59-.37-3.605-1.79-4.931z" class="fil6"></path><path id="path92" d="M94.003 21.38c-.421-.688-1.58-1.218-2.422-1.113-1.053.265-2.054 1.06-2.37 2.227-.106 1.113.316 2.069 1.105 2.864.737.37 1.317.478 2.107.37.737-.21 1.528-.69 1.895-1.378.422-1.06.37-2.12-.315-2.97" class="fil6"></path><path id="path93" d="M66.616 22.123c-.475-.743-1.054-1.379-1.896-1.59-1-.106-1.79 0-2.633.847-.79.903-.844 2.122-.474 3.076.526 1.06 1.58 1.538 2.58 1.538.79 0 1.58-.318 2.002-1.008.631-.743.736-2.014.42-2.863" class="fil6"></path><path id="path94" d="M118.652 22.388c-1.58-1.008-3.687-.212-5.266-.052l-1.528 1.696c.422.372.37.956.37 1.22l.104-.159.157.158c1.528.002 2.635.32 4.161.372.369.106.687.583.58.956-.315.741-1.422.423-1.844.53-1-.267-2.211-.32-3.16-.48-.21 1.009-1.052 1.912-1.686 2.6-.42-.16-.367.265-.42.478 1.211.954 2.475 1.271 3.95 1.273 1.528-.105 3.16-1.326 3.791-3.023.791-1.696 1.582-3.82.79-5.569z" class="fil6"></path><path id="path95" d="M42.705 22.866c-.95-.265-1.843-.214-2.791-.32-.791-.212-1.633-.107-2.477.425-.315.266-.368.849-.42 1.272.264 2.812 1.368 6.045 4.056 7.108 1.737.21 3.739.105 4.897-1.38-1.369-.636-1.475-1.91-2.317-2.863-1.317.265-2.792.477-4.214.53-.368-.16-.79-.37-.631-.848.578-.954 1.791-.638 2.685-.743.895-.32 1.528-.053 2.37-.478.107-.318-.105-.581.211-.848-.157-.796-.843-1.219-1.37-1.855z" class="fil6"></path><path id="path96" d="M110.067 23.925c-.738-.954-2.213-1.166-3.213-.581-.58.421-1.316.952-1.37 1.853-.263.902.052 1.75.685 2.441.685.741 1.738 1.006 2.633.794.633-.37 1.423-.636 1.633-1.431.159-.266.316-.742.263-1.007.106-.743-.052-1.538-.631-2.069z" class="fil6"></path><path id="path97" d="M49.867 24.349c-.316-.424-.737-.742-1.211-.847-.895-.213-1.844.104-2.528.636-1.002.953-1.105 2.227-.633 3.288.475.793 1.107 1.006 1.739 1.433.842.158 1.632.105 2.159-.427.158.161.264-.21.474-.21.737-.796.947-1.964.685-2.97-.263-.32-.369-.796-.685-.903" class="fil6"></path><path id="path98" d="M144.407 24.72c-.316 0-.578-.052-.843-.264-1.632-.16-3.265-.318-4.846.477-2.421 1.166-3.002 4.136-3.37 6.31l1.369-.317c.948.105 1.738.16 2.686.688.79-.9 1.318-1.803 2.054-2.81 1.16-1.486 2.633-2.652 3.898-3.765z" class="fil6"></path><path id="path99" d="M126.184 28.168c-.632-1.06-1.686-1.644-2.897-1.485-.947.372-1.79 1.062-2.159 2.068-.317 1.272.315 2.494 1.317 3.236.315-.106.631.423.947.265 1.001-.053 1.844 0 2.476-1.007.79-.795.684-2.283.316-3.077" class="fil6"></path><path id="path100" d="M134.136 29.654c-.684-.583-1.685-.796-2.475-.796-2.002.636-2.581 2.918-3.056 4.665.158.69-.315 1.751.475 2.336 1.106.634 2.528.529 3.74.051-.265-.688.21-1.219.052-1.962-.579-.263-1.316-.688-2.054-.9a.725.725 0 0 1-.106-1.167c1.002-.212 2.002.318 2.845.796.422-1.114.421-1.964.579-3.023" class="fil6"></path><path id="path101" d="M139.509 33.948c-.317-.584-.843-1.22-1.528-1.378-.948-.638-1.79.052-2.686.37-.42.478-.948.954-.948 1.697-.105 1.113.264 2.228 1.265 2.864.63.266 1.42.583 2.263.264a3.72 3.72 0 0 0 1.686-1.695c.159-.69.369-1.328-.053-2.121z" class="fil6"></path><path id="path102" d="M52.935 62.87q-.285-.153-.923-.346-.638-.194-1.768-.213-1.065-.008-2.113.592-1.046.596-1.747 1.896-.7 1.3-.729 3.395.036 2.757 1.328 4.351 1.293 1.595 3.423 1.628.974-.011 1.614-.15.637-.136.944-.26l-.087-2.397a6 6 0 0 1-.695.346q-.52.236-1.396.26-1.166-.022-1.908-1.034-.744-1.011-.768-2.711.014-1.755.712-2.761.699-1 1.92-1.021.814.021 1.313.243.497.224.763.415z" class="fil2"></path><path id="path103" d="M59.205 69.475H56.91l1.214-4.767.029.002zm1.097 4.5h2.457L59.482 62.51h-2.63L53.46 73.975h2.31l.7-2.563 3.203-.002z" class="fil2"></path><path id="path104" d="M66.217 64.51h.615q1.386.018 2.028 1.027.642 1.01.635 2.803.006 1.596-.605 2.6-.611 1-1.911 1.03l-.761.002zm-2.396 9.465 3.318.002a5 5 0 0 0 2.406-.582q1.102-.587 1.773-1.833t.688-3.222q-.02-2.145-.67-3.433-.652-1.282-1.686-1.846a4.44 4.44 0 0 0-2.204-.552h-3.625z" class="fil2"></path><path id="polygon104" d="M75.985 73.977H73.59V62.512h2.395z" class="fil2"></path><path id="polygon105" d="M84.02 62.51h-6.548v2.068h3.857l-3.962 7.198.001 2.198 6.71.003v-2.07l-4.02.001 3.96-7.299z" class="fil2"></path><path id="path105" d="M96.284 62.87q-.285-.153-.923-.346-.638-.194-1.768-.213-1.065-.008-2.111.592-1.047.596-1.75 1.896-.7 1.3-.727 3.393.034 2.76 1.327 4.353 1.294 1.595 3.423 1.628.974-.011 1.614-.15.638-.137.944-.26l-.089-2.397a6 6 0 0 1-.693.346q-.52.234-1.396.26-1.165-.022-1.908-1.034-.743-1.011-.767-2.711.012-1.755.712-2.761.7-1 1.918-1.021.816.021 1.313.242.499.225.764.416z" class="fil2"></path><path id="polygon106" d="m99.678 73.967-2.103-.002v-2.462h2.104z" class="fil2"></path><path id="polygon107" d="M103.795 67.174V64.51h3.35l-.002-2.003-5.655.002v11.466h2.307v-4.798h3.215v-2.003z" class="fil2"></path><path id="polygon108" d="M109.378 73.988h-2.105l.001-2.464h2.105z" class="fil2"></path></g></g><!-- source: https://football-logos.cc --></svg>