<svg xmlns="http://www.w3.org/2000/svg" xml:space="preserve" id="D98" x="0" y="0" version="1.1" viewBox="-234 326.2 141.8 141.8"><!-- Source: https://football-logos.cc --><style data-source="https://football-logos.cc">.st0{fill:#fff}.st1{fill:#004f9f}</style><circle cx="-163.1" cy="397.1" r="70.6" class="st0"></circle><path d="M-163.1 468c-39.1 0-70.9-31.8-70.9-70.9s31.8-70.9 70.9-70.9 70.9 31.8 70.9 70.9-31.9 70.9-70.9 70.9m0-141.2c-38.8 0-70.4 31.6-70.4 70.4s31.6 70.4 70.4 70.4 70.4-31.6 70.4-70.4-31.6-70.4-70.4-70.4" class="st1"></path><path d="M-163.1 351.5c-25.4 0-46 20.6-46 46s20.6 46 46 46 46-20.6 46-46c-.1-25.5-20.6-46-46-46" class="st1" data-source="https://football-logos.cc"></path><path d="M-163.1 464.8c-37.2 0-67.4-30.2-67.4-67.4s30.2-67.4 67.4-67.4 67.4 30.2 67.4 67.4-30.3 67.4-67.4 67.4m0-132.3c-35.8 0-64.9 29.1-64.9 64.9s29.1 64.9 64.9 64.9 64.9-29.1 64.9-64.9-29.2-64.9-64.9-64.9" class="st1"></path><path d="m-213.9 416.8-2.6.8c-2.5.7-4.5-.4-5.4-3.3l-1-3.5c-.1-.5 0-.7.4-.8l9.5-2.8c.5-.1.7 0 .8.4l1 3.5c.9 2.9-.2 5-2.7 5.7m.5-5-.5-1.7-6.2 1.8.5 1.7q.6 1.95 2.4 1.5l2.6-.8c1.2-.3 1.6-1.2 1.2-2.5m-2.2 17.1-.5-1.1c-.4-.7-.3-1 0-1.3l1.1-1.1-1.7-3.5-1.5.2c-.5.1-.7-.1-1-.8l-.5-1c-.2-.4-.1-.6.4-.7l10.6-1.1c.5-.1.6.1.8.5l.5 1.1c.2.4.2.6-.1.9l-7.3 7.9c-.4.5-.6.4-.8 0m5.7-8.1-.1-.1s-1 .5-2.2.7l-2.6.4 1.1 2.3 1.8-1.8c1-1 2-1.5 2-1.5m6.7 12.4c-1.3.9-2.5 1.1-3.7.5-.1.2-.2.4-.2.6l-1.5 3.2c-.2.4-.5.5-.7.1l-.8-1c-.5-.6-.6-.9-.3-1.4l1.2-2.4c.4-.7.4-1.1-.2-1.8l-.4-.5-2.6 2c-.4.3-.6.3-.9-.1l-.8-1c-.3-.4-.3-.6.1-.9l7.9-5.9c.4-.3.6-.3.9.1l2.6 3.5c1.4 1.6 1.2 3.6-.6 5m-1.3-4-1.3-1.7-2.1 1.6 1.3 1.7c.5.7 1.2.8 1.8.3.7-.5.8-1.2.3-1.9m12.8 10.2-6.4 7.5c-.3.4-.5.4-.9.1l-.9-.8c-.4-.3-.4-.5-.1-.9l2.3-2.7c.6-.7 1.4-1.4 2.7-2.4l-.1-.1c-.9.6-1.9 1.1-2.8 1.4l-2.1.8c-.3.1-.5.1-.8-.1l-.6-.5c-.3-.3-.3-.4-.3-.8l.4-2.3c.2-1 .5-1.9 1-3l-.1-.1c-.8 1.5-1.3 2.2-1.9 3l-2.3 2.7c-.3.4-.5.4-.9.1l-.9-.7c-.4-.3-.4-.5-.1-.9l6.4-7.5c.3-.4.5-.4.9-.1l.8.7c.4.3.5.5.4.9l-1.3 5.9 5.6-2.2c.4-.2.6-.1 1 .2l.9.7c.4.5.4.7.1 1.1m5.3 1.9c2 1.1 2.7 2.3 2.6 4 0 .5-.2.6-.7.6l-1.3-.1c-.4 0-.6-.2-.6-.7 0-.7-.3-1.3-1.2-1.8-1.1-.6-1.8-.6-2.1.1-.4.8.5 1.4 1.5 2.1 1.5 1.1 3.3 2.5 2 5-1 1.9-3.3 2.4-5.8 1-2.2-1.1-2.9-2.6-2.7-4.3.1-.5.3-.6.7-.5l1.2.2c.5.1.6.2.6.7 0 .7.4 1.4 1.3 1.9 1.2.6 2 .7 2.4-.1.4-.7-.4-1.3-1.3-2-1.6-1.1-3.6-2.5-2.2-5.1.9-1.8 3-2.4 5.6-1m12.2 5.6-.3 1c-.1.4-.3.6-.8.4l-2.3-.7-2.4 7.8c-.1.5-.3.6-.8.4l-1.2-.4c-.4-.1-.6-.3-.4-.8l2.4-7.8-2.4-.7c-.5-.1-.6-.3-.4-.8l.3-1c.1-.5.3-.6.8-.4l7.1 2.2c.5.1.6.3.4.8m6.6 11.6-1.2-.2c-.8-.1-1-.3-1.1-.8l-.3-1.5-3.8-.6-.7 1.4c-.2.4-.4.5-1.2.4l-1.1-.2c-.5-.1-.5-.3-.3-.7l5.3-9.3c.2-.4.4-.5.9-.4l1.2.2c.4.1.6.2.7.6l2.1 10.5c.1.5-.1.6-.5.6m-3.3-9.5h-.2s-.2 1.1-.7 2.1l-1.2 2.3 2.5.4-.4-2.5c-.1-1.2 0-2.3 0-2.3m13.9 2.4.1 2.7c.1 2.6-1.5 4.3-4.5 4.3l-3.7.1c-.5 0-.6-.1-.7-.6l-.2-9.9c0-.5.2-.6.6-.7l3.7-.1c2.9 0 4.6 1.5 4.7 4.2m-4.7-1.8h-1.7l.2 6.5h1.7c1.4 0 2.1-.7 2.1-1.9l-.1-2.7c-.1-1.3-.9-2-2.2-1.9m13.7-3.8.2 1c.1.5 0 .6-.5.8l-2.4.5 1.8 8c.1.5 0 .7-.5.8l-1.2.3c-.5.1-.6 0-.8-.5l-1.8-8-2.4.5c-.5.1-.7 0-.8-.5l-.2-1c-.1-.5 0-.7.5-.8l7.3-1.6c.5-.1.7 0 .8.5m8.8-3.9 4.3 8.9q.3.6-.3.9l-1.1.5q-.6.3-.9-.3l-3.2-6.7-1 1.4c-.3.5-.6.5-1 .2l-.9-.7c-.4-.3-.4-.5-.1-.9l1.9-2.7c.2-.3.4-.5.7-.6l.8-.4c.4-.1.6 0 .8.4m4-3.5c2.2-1.5 4-1.4 5.1.3.7 1 .5 2 .3 2.7 1.1-.1 2.1.1 2.9 1.3 1.1 1.7.9 3.5-1.8 5.3-2.6 1.8-4.3 1.4-5.4-.1-.8-1.2-.5-2.3-.1-3.1-.9 0-1.8-.4-2.5-1.4-1.2-1.7-.6-3.6 1.5-5m1.2 1.8q-1.2.9-.6 1.8c.4.6 1 .5 1.9.2l.6-.2c.3-.5.4-1.1 0-1.7s-1.1-.6-1.9-.1m1.9 4.2c-.3.5-.5 1.1 0 1.9.4.6 1.1.7 2.2 0s1.2-1.4.8-2c-.6-.9-1.6-.4-3 .1m8.8-6.3c-2.1 2-3.9 2.1-5.6.4-1.6-1.6-1.4-3.8.6-5.7 2-2 4.2-1.9 6.1-.1l2.3 2.3c1.8 1.9 1.8 4.1-.2 6.1-1.6 1.6-3.2 1.9-4.8 1.2-.4-.2-.5-.4-.3-.9l.5-1.1c.2-.4.4-.5.9-.3.7.3 1.3.1 2-.6.9-.9.9-1.7 0-2.6l-.2-.2c-.3.4-.6.9-1.3 1.5m-3.4-3.6c-.9.9-1 1.6-.4 2.3.6.6 1.3.6 2.3-.3.7-.7 1-1.2 1.1-1.5l-.5-.5c-.8-.9-1.6-.9-2.5 0m4.2-8.5c1.5-2.2 3.3-2.7 4.9-1.5 1 .7 1.2 1.7 1.2 2.4 1-.5 2-.6 3.2.2 1.6 1.2 2.1 3 .2 5.6-1.8 2.6-3.6 2.9-5.1 1.8-1.1-.8-1.3-2-1.2-2.9-.9.3-1.8.3-2.9-.5-1.6-1.1-1.7-3.1-.3-5.1m1.8 1.2c-.6.8-.5 1.4.1 1.9.6.4 1.2.1 1.9-.4l.5-.4c.1-.5 0-1.2-.6-1.6-.7-.5-1.3-.3-1.9.5m3.3 3.3c-.1.5-.1 1.2.6 1.8.6.4 1.3.3 2.1-.8s.6-1.7 0-2.1c-.9-.7-1.6.1-2.7 1.1m3.7-11.2c.9-2 2.5-2.4 3.8-1.8l.7.3c.4.2.5.4.3.9l-1.5 3.3.3.1c.7.3 1.1 0 1.4-.7.3-.6.2-1 0-1.4-.2-.3-.2-.5.2-.8l.6-.5c.3-.3.6-.2.8.1.5.8.6 1.8-.1 3.1-.9 2.1-2.4 2.4-4 1.7l-1.3-.6c-1.6-.4-2.1-1.8-1.2-3.7m1.4.7c-.3.7-.2 1.2.4 1.5l.2.1 1-2.1-.2-.1c-.6-.4-1.1-.1-1.4.6m6.5-3.6.2.1c.5.2.6.4.4.8v.1c-.2.5-.4.6-.8.4l-.2-.1c-.5-.2-.6-.4-.4-.8v-.1c.1-.5.3-.6.8-.4m-5.8-9.1 7.3 5.1c.3.2.4.4.3.8l-.3 1c-.1.4-.2.5-.6.5l-8.9.7c-.4 0-.5-.1-.4-.5l.3-1c.2-.6.3-.8.7-.8l5.2-.2c.7 0 1.6.1 1.6.1v-.1s-.8-.3-1.4-.7l-4.3-2.8c-.3-.2-.4-.4-.2-1.1l.3-.9c-.1-.3 0-.3.4-.1m7.6 2h.2c.5.1.6.3.5.8v.1c-.1.5-.3.6-.8.5h-.2c-.5-.1-.6-.3-.5-.8v-.1c.2-.5.4-.6.8-.5m-107.2-49.7c1.4-1.8 2.8-2.3 4.4-1.9.5.1.6.3.5.8l-.3 1.3c-.1.4-.3.5-.8.4-.7-.1-1.4 0-2 .8q-1.2 1.5-.3 2.1c.7.5 1.5-.2 2.4-1.1 1.3-1.3 3.1-2.8 5.2-1.1 1.7 1.3 1.7 3.6-.1 5.9-1.5 1.9-3.1 2.4-4.7 1.9-.5-.2-.5-.4-.4-.8l.4-1.2c.1-.5.3-.6.8-.4.7.2 1.5-.1 2.1-.9.8-1.1 1-1.9.3-2.4-.6-.5-1.4.1-2.2 1-1.3 1.3-3.1 3.1-5.4 1.3-1.5-1.2-1.7-3.4.1-5.7m14.2-8.4c1.5 1.8 1.3 3.8-.4 5.4l-1.7 1.5 2 2.3c.3.4.3.6-.1.9l-1 .8c-.4.3-.6.3-.9-.1l-6.5-7.5c-.3-.4-.3-.6.1-.9l3.2-2.8c1.7-1.5 3.7-1.4 5.3.4m-2 1.7c-.6-.7-1.4-.7-2.1-.1l-1.5 1.3 1.9 2.2 1.5-1.3c.7-.7.8-1.4.2-2.1m5.3-8.5c2.6-1.5 4.8-.9 6.1 1.3l1.6 2.8c1.3 2.3.7 4.5-1.9 6s-4.8.9-6.1-1.3l-1.6-2.8c-1.3-2.2-.7-4.5 1.9-6m1.2 2.1c-1.1.7-1.5 1.6-.9 2.6l1.6 2.8c.6 1.1 1.6 1.2 2.7.6 1.2-.7 1.5-1.6.9-2.6l-1.6-2.8c-.6-1.2-1.6-1.3-2.7-.6m15.5-4.9c.5 1.5.2 2.8-.7 3.6.2.1.3.3.5.4l2.5 2.4c.3.3.3.6-.1.7l-1.2.4c-.8.3-1.1.2-1.4-.2l-1.9-1.9c-.6-.6-.9-.7-1.8-.4l-.6.2 1.1 3.1c.2.5 0 .7-.4.8l-1.2.4c-.4.1-.7.1-.8-.4l-3.1-9.4c-.2-.5 0-.7.4-.8l4.1-1.4c2-.4 3.8.4 4.6 2.5m-4.2.1-2.1.7.8 2.4 2.1-.7c.8-.3 1.1-.9.8-1.6-.2-.8-.8-1.1-1.6-.8m13.6-4.6.2 1c.1.5-.1.6-.5.7l-2.4.4 1.2 8.1c.1.5-.1.7-.5.7l-1.3.2c-.5.1-.6-.1-.7-.5l-1.2-8.1-2.4.4c-.5.1-.7-.1-.7-.5l-.2-1c-.1-.5.1-.7.5-.7l7.4-1.1c.4-.2.5 0 .6.4m11.1.2-3.9 9.9c-.2.4-.4.5-.8.5h-1.3c-.4 0-.6-.1-.8-.5l-3.3-10.1c-.1-.4 0-.6.4-.6h1.2c.8 0 1 .2 1.1.6l1.7 5.9c.2.9.3 1.9.3 1.9h.1s.2-1 .4-1.9l2-5.8c.2-.5.4-.6 1.2-.6h1.1c.7 0 .8.3.6.7m9.3 1.8-.2 1c-.1.5-.3.6-.8.5l-4.3-.9-.4 2 3.5.7c.5.1.6.3.5.7l-.2 1c-.1.5-.3.6-.8.5l-3.5-.7-.4 2.1 4.5.9c.5.1.6.3.5.8l-.2 1c-.1.5-.3.6-.8.5l-6.4-1.3c-.5-.1-.6-.3-.5-.8l2-9.7c.1-.5.3-.6.8-.5l6.2 1.3c.5.3.6.5.5.9m10.5 7.3c-.6 1.4-1.7 2.2-2.9 2.3 0 .2.1.4.1.6l.3 3.5c0 .4-.1.7-.6.5l-1.2-.5c-.7-.3-1-.5-1-1.1l-.1-2.7c0-.8-.2-1.1-1.1-1.5l-.6-.3-1.3 3.1c-.2.4-.4.5-.8.3l-1.2-.5c-.4-.2-.5-.4-.3-.8l3.8-9.1c.2-.4.4-.5.8-.3l4 1.7c2.2.9 3 2.7 2.1 4.8m-3.1-2.8-2-.9-1 2.4 2 .9c.8.3 1.4.1 1.7-.7.3-.7 0-1.3-.7-1.7m13.6 6-.6.9c-.3.4-.5.4-.9.2l-3.7-2.5-1.1 1.7 3 2c.4.3.4.5.2.9l-.6.9c-.3.4-.5.4-.9.2l-3-2-1.2 1.8 3.8 2.5c.4.3.4.5.2.9l-.6.9c-.3.4-.5.4-.9.2l-5.4-3.6c-.4-.3-.4-.5-.2-.9l5.5-8.2c.3-.4.5-.4.9-.2l5.2 3.5c.5.2.5.4.3.8m3.3 2.1 1 .9c.4.3.4.5 0 .9l-6.6 7.4c-.3.4-.5.4-.9 0l-1-.9c-.4-.3-.4-.5 0-.9l6.6-7.4c.4-.3.6-.3.9 0m9.1 10.8-7.6 6.3c-.4.3-.6.3-.9-.1l-.8-1c-.2-.2-.2-.4-.2-.7l1.7-5.4c.4-1.3 1.2-2.5 1.4-2.9l-.1-.1c-.3.4-1.2 1.5-2.4 2.6l-2.9 2.4c-.4.3-.6.3-.9-.1l-.7-.9c-.3-.4-.3-.6.1-.9l7.6-6.3c.4-.3.6-.3.9.1l.8 1c.2.3.2.4.2.7l-1.7 5.5c-.4 1.4-1.2 2.4-1.4 2.8l.1.1c.3-.4 1.1-1.5 2.4-2.6l2.9-2.4c.4-.3.6-.3.9.1l.7.9c.3.4.3.6-.1.9m-103.8 22.1c.2.4.7 1 1.3 1.6s1.2 1.1 1.6 1.3c-.4.2-1 .7-1.6 1.3s-1.1 1.2-1.3 1.6c-.2-.4-.7-1-1.3-1.6s-1.2-1.1-1.6-1.3c.4-.2 1-.7 1.6-1.3s1.1-1.2 1.3-1.6m109 0c.2.4.7 1 1.3 1.6s1.2 1.1 1.6 1.3c-.4.2-1 .7-1.6 1.3s-1.1 1.2-1.3 1.6c-.2-.4-.7-1-1.3-1.6s-1.2-1.1-1.6-1.3c.4-.2 1-.7 1.6-1.3s1.1-1.2 1.3-1.6" class="st1"></path><path d="M-163.1 358.7c-.3 0-.8.3-2.3 2.8-2.5 4.4-9.6 10.7-9.6 17.1 0 5.8 1.6 8.7 5.1 16.6 1.8 4 2.4 11.8 2.5 12.6.1.4.3 1.6-.7 1.6-.8 0-.9-.6-1.2-1.8-.3-1.4-.9-7-4.2-11.6s-9.4-9.7-17.3-8.7-11.6 6.7-10.9 12.2 4.6 6.8 7.1 8.1c2.4 1.2 2.6 3.1 2.7 4s.5.9 1.5.3c.8-.5 1.7-2 1.5-4.1-.1-1.4-.9-1.8-.9-5.7 0-2.6 2.7-4.1 5.4-4.1 1.6 0 7.2 2.3 10.4 10.1.3.7.3 1.1-.3 1.2s-2.3.3-2.3 2.8.7 3.4 2.1 3.4c1.5 0 .8 1 .6 1.6-.3.5-1.2 2.6-5.2 2.6s-5.7 3-5.7 5.3.8 1.2 1.7 1c1.6-.4 2.6.3 4.2.6s5.5-.7 7.2-2.7 3.1-5.2 3.1-7 .5-2 1-2 .9.2.9 1.9c0 5.8-2.6 7.6-2.6 11.1 0 2.7 1.4 4.1 3 5.8 1.3 1.4 2.6 2.8 3.5 2.8s2.2-1.4 3.5-2.8c1.6-1.8 3-3.1 3-5.8 0-3.4-2.6-5.3-2.6-11.1 0-1.6.5-1.9.9-1.9s1 .2 1 2 1.4 5 3.1 7 5.6 3 7.2 2.7 2.6-1 4.2-.6c.9.2 1.7 1.3 1.7-1s-1.7-5.3-5.7-5.3-5-2.1-5.2-2.6c-.3-.6-.9-1.6.6-1.6s2.1-.9 2.1-3.4-1.7-2.7-2.3-2.8-.5-.5-.3-1.2c3.1-7.8 8.7-10.1 10.4-10.1 2.6 0 5.4 1.5 5.4 4.1 0 3.9-.8 4.3-.9 5.7-.2 2.1.7 3.6 1.5 4.1 1 .6 1.4.7 1.5-.3s.3-2.8 2.7-4 6.4-2.6 7.1-8.1-3-11.2-10.9-12.2-14.1 4.1-17.3 8.7c-3.3 4.6-3.9 10.2-4.2 11.6-.3 1.3-.4 1.8-1.2 1.8-1 0-.8-1.2-.7-1.6.1-.8.7-8.6 2.5-12.6 3.5-7.9 5.1-10.8 5.1-16.6 0-6.4-7.1-12.7-9.6-17.1-2.1-2.6-2.7-2.8-2.9-2.8" class="st0" data-source="https://football-logos.cc"></path><!-- source: https://football-logos.cc --></svg>