<svg xmlns="http://www.w3.org/2000/svg" version="1.2" viewBox="-650.58 -197.29 422.35 422.35"><!-- Source: https://football-logos.cc --><defs data-source="https://football-logos.cc"><clipPath id="a"><path d="M28.969 164.95H94v64.879H28.969Z"></path></clipPath><clipPath id="b"><path d="M30 166h62v62H30Z"></path></clipPath><clipPath id="c"><path d="M30.492 197.2c0 16.973 13.758 30.727 30.727 30.727 16.59 0 30.109-13.145 30.707-29.59v-2.273c-.598-16.441-14.117-29.586-30.707-29.586-16.969 0-30.727 13.754-30.727 30.723m8.05.039c0-12.586 10.204-22.793 22.794-22.793 12.586 0 22.793 10.207 22.793 22.793 0 12.59-10.207 22.793-22.793 22.793-12.59 0-22.793-10.203-22.793-22.793"></path></clipPath><clipPath id="e"><path d="M38 174h46v46H38Z"></path></clipPath><clipPath id="f"><path d="M38.797 197.2c0 12.387 10.039 22.422 22.422 22.422s22.422-10.035 22.422-22.422c0-12.383-10.039-22.422-22.422-22.422S38.797 184.817 38.797 197.2"></path></clipPath><clipPath id="h"><path d="M47 183h28v32H47Z"></path></clipPath><clipPath id="i"><path d="M61.043 184.61s-.914-.05-1.195.035c-.242.078-.328.457-.418.54-.09.077-1.188.081-1.211.12l-.043.203c0 .102.015.352.078.352h.043l-.04.18c-.007.082-.066.578 0 .863.063.285.18.293.18.293l.102.031c.05.082.145.254.23.442l-.148.008c-1.363.09-2.199-.829-2.199-1.516 0 0-1.133.402-.543 1.48.262.477.848.75 1.3.778.493.027.907.004 1.595-.121a3 3 0 0 0-.114.386h-.004c-.14 0-.23.004-.238.098s-.035.43.008.906c0 0 .031.106.137.125.105.02.402.028.453.118.035.07-.031.496-.168.656-.094.113-.317.2-.637.183-.863-.05-3.676-.652-5.183-2.988 0 0 1.015-.68 1.015-1.558 0-.883-.316-1.461-1.476-1.735 0 0 .257.172.257.781 0 0-1.43.258-.918 2.012 0 0-.293-.101-.53-.414 0 0 .179-1.61-.884-1.89-1.488-.391-1.992 1.07-1.992 1.07s.39-.29.781-.051c0 0-.332 1.094 1.313 1.402 0 0-2.613.793-1.711 3.074 0 0 .078-.523.289-.902 0 0 1.672.953 1.941-.68 0 0 .801.192.91.801.11.61-.09 1.121-.59 1.34 0 0 3.188.496 5.52 1.937 0 0-3.21 1.203-6.015 1.223 0 0 .238-.75-.66-1.32-.25-.16-.82-.192-1.18-.032-.61.27-.973.723-1.035 1.02 0 0 .324-.277.683-.16 0 0 .059.832 1.031 1.332 0 0-1.312-.078-1.875.992-.558 1.07.094 1.793.094 1.793s.059-.563.461-.711c0 0 1.121.57 1.648-.691 0 0 .122 1.87 1.504 2.273 0 0-.293-.434-.242-.852 0 0 1.32-.3.692-1.593 0 0 1.636-.778 2.027 1.257 0 0 .86-.273.832-1.273 0 0 2.812-.8 5.996 2.504 0 0-2.637-.395-3.578 1-.668.992-.035 2.96-.035 2.96s-1.156 1.368-2.88 1.36c0 0 .571-1.273-.66-2.004-1.23-.73-1.972.422-1.972.422s.531-.113.762.238c0 0-.762.883.55 1.582 0 0-1.293-.41-2.101.262-.52.43-.473 1.211-.473 1.211s.262-.383.684-.32c0 0-.063.718.672.91a1.01 1.01 0 0 0 1.097-.371s-.32 1.453 1.192 2.12c0 0-.18-.21-.18-.71 0 0 .57-.117.8-.5.231-.379.141-1.02-.151-1.309 0 0 1.277-.285 1.976 1.075 0 0 .602-.258.645-1.11 0 0 2.922.383 3.812-.969 0 0-.62-.53-.39-1.593s1.43-.91 1.43-.91-.509.46-.4 1.511c.11 1.05.438 2-.472 2.66 0 0 1.531.211 1.863-1 0 0 1.082 3.063-1.128 5.293 0 0-.18-1.527-1.598-1.382-1.418.144-1.305 1.601-1.305 1.601s.25-.422.742-.445c0 0-.336.515.457 1.172 0 0-1.398 1.105-.8 2.582 0 0 .09-.563.468-.676 0 0 .649.613 1.356.195.71-.422.719-.843.719-.843s.675 1.437 1.91 1.757c0 0-.344-.523-.055-.855 0 0 .984-.602-.062-1.848 0 0 2.207-2.238 3.37-4.371 0 0-1.687-2.71-1.148-5.004 1.031 1.192 2.281 1.75 2.465 1.863.055.028.008.258.07.48.067.22.297.407.383.474.086.062.492.515.367.918-.168.53-.574.515-.574.515s1.016.547 1.563-.293c.547-.847.09-1.488.09-1.488s.98.121 1.62-.227c1.196-.644 1.09-1.379 1.09-1.379-.586.559-1.242.262-1.242.262.164-.062.43-.387.574-.683.145-.297.258-.934.336-1.34.075-.406.164-.707.575-1.344.414-.637 1.265-.758 1.265-.758-.316-.223-.847-.355-1.594-.223-.746.137-1.175.844-1.175.844-.598-1.031-1.051-1.664-1.223-2.02a.67.67 0 0 1 .023-.62c.149-.25.368-.543.79-.856.804-.594 1.648-.68 2.343-1.074 1.422-.8.887-2.254.887-2.254-.242.512-.55.906-1.285 1.203-.84.34-1.453.281-2.5 1.047-.707.516-1.11 1.238-1.11 1.238s-.144-.16-.254-.375c-.113-.218.008-.586.145-.812.34-.55.945-1.29 2.176-1.719.61-.21 1.46-.344 2.16-1.031.789-.781.566-2.082.566-2.082-.066.629-.851 1.094-1.394 1.344-.559.261-1.238.43-1.688.55a4.4 4.4 0 0 0-1.558.774 5 5 0 0 0-1.309 1.59c-.074-.137-.164-.25-.191-.36a1.15 1.15 0 0 1 .18-.925c.843-1.305 2.109-1.805 2.464-1.934.528-.195 1.434-.48 2.223-.914 1.719-.938 1.117-2.508 1.117-2.508-.457.82-1.414 1.309-2.457 1.7-.871.327-1.55.605-2.379 1.054-1.058.574-1.773 1.691-1.773 1.691-.02-1.246.762-2.062 1.187-2.382 1.012-.762 2.653-1.274 3.235-1.52.574-.25 1.84-.77 1.922-2.191.062-1.118-.758-1.782-1.743-1.977-.64-.125-1.187-.187-2.128-.07-.434.05-.797.136-.86.129-.11-.012-.523-.235-.7-.325-.343-.175-1.046-.414-1.53-.011-.586.484-.528.918-.512 1.336 0 0 .367-.485 1.082-.403q.217.03.387.102c-.098.062-.278.223-.442.621-.238.59-.52.645-.52.645s.356.199 1.009.148l.336-.07c-.114.355-.243.746-.583.894-.285.121-.628-.074-.628-.074s.293.777 1.093.73c.805-.043 1.196-.77 1.352-1.054.16-.282.363-1.211.363-1.211s.473.402.305 1.289c0 0 .332-.227.64-.57.31-.344.618-.7.938-.672.434.035.766.39.348.953-.426.578-1.586 1.031-2.383 1.363-.793.324-2.145 1.028-2.8 2.012-.653.98-1.161 2.426-.43 4.562.39 1.145 1.32 2.239 1.32 2.239s-.64-.137-.992.172c0 0 1.39.527 2.351 1.734s1.727 2.98.742 3.707c-.703.523-2.277-.57-2.64-.883-.535-.46-1.313-1.273-2.778-4.12-.855-1.661-1.457-4.161-1.457-4.161s1.348 1.125 2.211-.188c0 0-1.86-.347-1.941-2.082 0 0 .187.235.469.2.355-.043.984.12.941.742 0 0 .781-1.102-.308-1.985 0 0 1.367.262 1.519-1.011 0 0-.605.254-1.473-.285-.28-.18-.379-.383-.379-.383s1.141.199 1.442-.82c0 0-.992.023-1.434-.715 0 0 .176-.95-.074-1.653-.25-.7-1.191-.91-1.309-.93-.12-.023-.586-.402-.691-.82 0 0-1.031.32-1.21.848m-.946 1.035c-.04-.07-.117-.082.05-.164.067-.031.247-.121 1.07-.25l.075.035c0 .031-.086.117-.133.238-.082.215-.183.395-.48.457l-.117.016c-.29 0-.418-.254-.465-.332m.14 1.41.137-.07c.172-.023.754.008.934.539-.258.016-.73.04-1.293.074.07-.18.164-.422.222-.543m-1.082.254h.02c.11 0 .32-.004.426-.02.043.067.129.2.199.32-.227.017-.59.032-.828.044.058-.11.125-.242.183-.344m.766.805a2.73 2.73 0 0 1 1.379.238.53.53 0 0 1-.29.317c-.105.043-.23.07-.566.07h-.015a7 7 0 0 1-.508-.625m-.672.59c-.059-.075-.207-.262-.305-.442.133-.027.407-.055.563-.09q.154-.03.289-.047c-.055.165-.137.426-.148.586-.094 0-.313-.004-.399-.008"></path></clipPath><radialGradient id="d" cx="0" cy="0" r="30.726" gradientTransform="translate(61.199 197.2)" gradientUnits="userSpaceOnUse"><stop offset="0" stop-color="#127bc9"></stop><stop offset=".5" stop-color="#127bc9"></stop><stop offset=".625" stop-color="#127bc9"></stop><stop offset=".672" stop-color="#127bc9"></stop><stop offset=".711" stop-color="#127ac9"></stop><stop offset=".719" stop-color="#127ac8"></stop><stop offset=".734" stop-color="#1279c7"></stop><stop offset=".738" stop-color="#1279c7"></stop><stop offset=".742" stop-color="#1279c7"></stop><stop offset=".75" stop-color="#1278c6"></stop><stop offset=".758" stop-color="#1278c5"></stop><stop offset=".762" stop-color="#1277c5"></stop><stop offset=".766" stop-color="#1277c4"></stop><stop offset=".77" stop-color="#1276c4"></stop><stop offset=".773" stop-color="#1276c3"></stop><stop offset=".777" stop-color="#1276c3"></stop><stop offset=".781" stop-color="#1275c3"></stop><stop offset=".785" stop-color="#1275c2"></stop><stop offset=".789" stop-color="#1275c2"></stop><stop offset=".793" stop-color="#1274c1"></stop><stop offset=".797" stop-color="#1274c1"></stop><stop offset=".801" stop-color="#1273c0"></stop><stop offset=".805" stop-color="#1373c0"></stop><stop offset=".809" stop-color="#1372bf"></stop><stop offset=".813" stop-color="#1372be"></stop><stop offset=".816" stop-color="#1371bd"></stop><stop offset=".824" stop-color="#1371bd"></stop><stop offset=".828" stop-color="#1370bc"></stop><stop offset=".832" stop-color="#136fbb"></stop><stop offset=".836" stop-color="#136fbb"></stop><stop offset=".84" stop-color="#136fba"></stop><stop offset=".844" stop-color="#136eba"></stop><stop offset=".848" stop-color="#136db9"></stop><stop offset=".852" stop-color="#136db8"></stop><stop offset=".855" stop-color="#136cb7"></stop><stop offset=".859" stop-color="#136cb7"></stop><stop offset=".863" stop-color="#136bb6"></stop><stop offset=".867" stop-color="#136ab5"></stop><stop offset=".871" stop-color="#136ab5"></stop><stop offset=".875" stop-color="#1369b4"></stop><stop offset=".879" stop-color="#1369b3"></stop><stop offset=".883" stop-color="#1368b2"></stop><stop offset=".887" stop-color="#1368b2"></stop><stop offset=".891" stop-color="#1367b1"></stop><stop offset=".895" stop-color="#1366b0"></stop><stop offset=".898" stop-color="#1366af"></stop><stop offset=".902" stop-color="#1365ae"></stop><stop offset=".906" stop-color="#1365ae"></stop><stop offset=".91" stop-color="#1364ad"></stop><stop offset=".914" stop-color="#1363ac"></stop><stop offset=".918" stop-color="#1363ab"></stop><stop offset=".922" stop-color="#1362ab"></stop><stop offset=".926" stop-color="#1361aa"></stop><stop offset=".93" stop-color="#1361a9"></stop><stop offset=".934" stop-color="#1360a8"></stop><stop offset=".938" stop-color="#1360a8"></stop><stop offset=".941" stop-color="#135fa7"></stop><stop offset=".945" stop-color="#145ea6"></stop><stop offset=".949" stop-color="#145da5"></stop><stop offset=".953" stop-color="#145da4"></stop><stop offset=".957" stop-color="#145ca3"></stop><stop offset=".961" stop-color="#145ba2"></stop><stop offset=".965" stop-color="#145ba1"></stop><stop offset=".969" stop-color="#145aa0"></stop><stop offset=".973" stop-color="#14599f"></stop><stop offset=".977" stop-color="#14599e"></stop><stop offset=".98" stop-color="#14589e"></stop><stop offset=".984" stop-color="#14579d"></stop><stop offset=".988" stop-color="#14579c"></stop><stop offset=".992" stop-color="#14569b"></stop><stop offset=".996" stop-color="#14559a"></stop><stop offset="1" stop-color="#145599"></stop></radialGradient><radialGradient id="g" cx="0" cy="0" r="22.794" gradientTransform="translate(61.22 197.2)" gradientUnits="userSpaceOnUse"><stop offset="0" stop-color="#fee81b"></stop><stop offset=".5" stop-color="#fee81b"></stop><stop offset=".75" stop-color="#fee71a"></stop><stop offset=".754" stop-color="#fde61a"></stop><stop offset=".758" stop-color="#fde619"></stop><stop offset=".762" stop-color="#fde519"></stop><stop offset=".766" stop-color="#fde419"></stop><stop offset=".77" stop-color="#fde318"></stop><stop offset=".773" stop-color="#fde218"></stop><stop offset=".777" stop-color="#fde118"></stop><stop offset=".781" stop-color="#fde017"></stop><stop offset=".785" stop-color="#fde017"></stop><stop offset=".789" stop-color="#fddf17"></stop><stop offset=".793" stop-color="#fdde17"></stop><stop offset=".797" stop-color="#fddd16"></stop><stop offset=".801" stop-color="#fddc16"></stop><stop offset=".805" stop-color="#fddb16"></stop><stop offset=".809" stop-color="#fcda15"></stop><stop offset=".813" stop-color="#fcda15"></stop><stop offset=".816" stop-color="#fcd915"></stop><stop offset=".82" stop-color="#fcd815"></stop><stop offset=".824" stop-color="#fcd714"></stop><stop offset=".828" stop-color="#fcd614"></stop><stop offset=".832" stop-color="#fcd514"></stop><stop offset=".836" stop-color="#fcd414"></stop><stop offset=".84" stop-color="#fcd413"></stop><stop offset=".844" stop-color="#fcd313"></stop><stop offset=".848" stop-color="#fcd213"></stop><stop offset=".852" stop-color="#fcd113"></stop><stop offset=".855" stop-color="#fcd013"></stop><stop offset=".859" stop-color="#fccf12"></stop><stop offset=".863" stop-color="#fccf12"></stop><stop offset=".867" stop-color="#fbce11"></stop><stop offset=".871" stop-color="#fbcd11"></stop><stop offset=".875" stop-color="#fbcc11"></stop><stop offset=".879" stop-color="#fbcb11"></stop><stop offset=".883" stop-color="#fbca11"></stop><stop offset=".887" stop-color="#fbc910"></stop><stop offset=".891" stop-color="#fbc910"></stop><stop offset=".895" stop-color="#fbc810"></stop><stop offset=".898" stop-color="#fbc710"></stop><stop offset=".902" stop-color="#fbc60f"></stop><stop offset=".906" stop-color="#fbc50f"></stop><stop offset=".91" stop-color="#fbc40f"></stop><stop offset=".914" stop-color="#fbc40f"></stop><stop offset=".918" stop-color="#fbc30f"></stop><stop offset=".922" stop-color="#fac20e"></stop><stop offset=".926" stop-color="#fac10e"></stop><stop offset=".93" stop-color="#fac00e"></stop><stop offset=".934" stop-color="#fabf0d"></stop><stop offset=".938" stop-color="#fabf0d"></stop><stop offset=".941" stop-color="#fabe0d"></stop><stop offset=".945" stop-color="#fabd0d"></stop><stop offset=".949" stop-color="#fabc0d"></stop><stop offset=".953" stop-color="#fabb0c"></stop><stop offset=".957" stop-color="#faba0c"></stop><stop offset=".961" stop-color="#faba0c"></stop><stop offset=".965" stop-color="#fab90c"></stop><stop offset=".969" stop-color="#fab80c"></stop><stop offset=".973" stop-color="#fab70b"></stop><stop offset=".977" stop-color="#fab60b"></stop><stop offset=".98" stop-color="#f9b50b"></stop><stop offset=".984" stop-color="#f9b50b"></stop><stop offset=".988" stop-color="#f9b40b"></stop><stop offset=".992" stop-color="#f9b30a"></stop><stop offset=".996" stop-color="#f9b20a"></stop><stop offset="1" stop-color="#f9b20a"></stop></radialGradient><radialGradient id="j" cx="0" cy="0" r="15.234" gradientTransform="matrix(.95078 0 0 1.0492 61.219 199.13)" gradientUnits="userSpaceOnUse"><stop offset="0" stop-color="#ec1b24"></stop><stop offset=".25" stop-color="#ec1b24"></stop><stop offset=".344" stop-color="#ec1b24"></stop><stop offset=".383" stop-color="#ec1b24"></stop><stop offset=".398" stop-color="#ec1c24"></stop><stop offset=".406" stop-color="#ec1c24"></stop><stop offset=".414" stop-color="#eb1c24"></stop><stop offset=".43" stop-color="#eb1c24"></stop><stop offset=".438" stop-color="#ea1c24"></stop><stop offset=".445" stop-color="#ea1c24"></stop><stop offset=".453" stop-color="#e91c24"></stop><stop offset=".461" stop-color="#e81c24"></stop><stop offset=".477" stop-color="#e81c24"></stop><stop offset=".484" stop-color="#e71c24"></stop><stop offset=".492" stop-color="#e71c24"></stop><stop offset=".5" stop-color="#e61c24"></stop><stop offset=".508" stop-color="#e61c24"></stop><stop offset=".512" stop-color="#e51d24"></stop><stop offset=".516" stop-color="#e51d24"></stop><stop offset=".527" stop-color="#e41d24"></stop><stop offset=".539" stop-color="#e41d24"></stop><stop offset=".543" stop-color="#e41d25"></stop><stop offset=".547" stop-color="#e31d25"></stop><stop offset=".551" stop-color="#e31d25"></stop><stop offset=".555" stop-color="#e31d25"></stop><stop offset=".559" stop-color="#e31d25"></stop><stop offset=".563" stop-color="#e21d25"></stop><stop offset=".574" stop-color="#e21d25"></stop><stop offset=".586" stop-color="#e11d25"></stop><stop offset=".59" stop-color="#e11d25"></stop><stop offset=".594" stop-color="#e11d25"></stop><stop offset=".598" stop-color="#e01d25"></stop><stop offset=".602" stop-color="#e01d25"></stop><stop offset=".605" stop-color="#e01d25"></stop><stop offset=".609" stop-color="#df1d25"></stop><stop offset=".613" stop-color="#df1d25"></stop><stop offset=".625" stop-color="#df1d25"></stop><stop offset=".637" stop-color="#de1e25"></stop><stop offset=".645" stop-color="#dd1e25"></stop><stop offset=".652" stop-color="#dd1e25"></stop><stop offset=".66" stop-color="#dc1e25"></stop><stop offset=".668" stop-color="#dc1e25"></stop><stop offset=".676" stop-color="#dc1e25"></stop><stop offset=".684" stop-color="#db1e25"></stop><stop offset=".691" stop-color="#db1e26"></stop><stop offset=".699" stop-color="#da1e26"></stop><stop offset=".707" stop-color="#d91e26"></stop><stop offset=".715" stop-color="#d91e26"></stop><stop offset=".73" stop-color="#d81e26"></stop><stop offset=".738" stop-color="#d81e26"></stop><stop offset=".746" stop-color="#d71f26"></stop><stop offset=".754" stop-color="#d71f26"></stop><stop offset=".758" stop-color="#d61f26"></stop><stop offset=".762" stop-color="#d61f26"></stop><stop offset=".766" stop-color="#d61f26"></stop><stop offset=".777" stop-color="#d51f26"></stop><stop offset=".789" stop-color="#d51f26"></stop><stop offset=".793" stop-color="#d41f26"></stop><stop offset=".797" stop-color="#d41f26"></stop><stop offset=".801" stop-color="#d41f26"></stop><stop offset=".805" stop-color="#d41f26"></stop><stop offset=".809" stop-color="#d31f26"></stop><stop offset=".813" stop-color="#d31f26"></stop><stop offset=".824" stop-color="#d31f26"></stop><stop offset=".832" stop-color="#d21f27"></stop><stop offset=".84" stop-color="#d21f27"></stop><stop offset=".848" stop-color="#d11f27"></stop><stop offset=".855" stop-color="#d02027"></stop><stop offset=".863" stop-color="#d02027"></stop><stop offset=".879" stop-color="#cf2027"></stop><stop offset=".883" stop-color="#cf2027"></stop><stop offset=".887" stop-color="#cf2027"></stop><stop offset=".891" stop-color="#cf2027"></stop><stop offset=".895" stop-color="#ce2027"></stop><stop offset=".898" stop-color="#ce2027"></stop><stop offset=".902" stop-color="#ce2027"></stop><stop offset=".906" stop-color="#cd2027"></stop><stop offset=".91" stop-color="#cd2027"></stop><stop offset=".918" stop-color="#cc2027"></stop><stop offset=".926" stop-color="#cc2027"></stop><stop offset=".941" stop-color="#cb2027"></stop><stop offset=".945" stop-color="#cb2027"></stop><stop offset=".949" stop-color="#cb2027"></stop><stop offset=".953" stop-color="#cb2027"></stop><stop offset=".957" stop-color="#ca2027"></stop><stop offset=".965" stop-color="#ca2028"></stop><stop offset=".98" stop-color="#c92128"></stop><stop offset=".988" stop-color="#c92128"></stop><stop offset=".992" stop-color="#c82128"></stop><stop offset="1" stop-color="#c82128"></stop></radialGradient></defs><g stroke-width=".153" data-source="https://football-logos.cc"><g clip-path="url(#a)" transform="translate(-840.26 -1277.333)scale(6.5477)"><path fill="#fff" d="M28.969 197.2c0 17.812 14.438 32.254 32.25 32.254s32.254-14.441 32.254-32.254-14.441-32.25-32.254-32.25-32.25 14.438-32.25 32.25"></path></g><g clip-path="url(#b)" transform="translate(-840.26 -1277.333)scale(6.5477)"><g clip-path="url(#c)"><path fill="url(#d)" d="M30.492 166.48v61.449h61.434V166.48Z" style="fill:url(#d)"></path></g></g><g fill="#fff"><path d="M-592.266 13.873c0 84.433 68.443 152.85 152.85 152.85 84.432 0 152.849-68.417 152.849-152.85 0-84.406-68.417-152.85-152.85-152.85-84.406 0-152.85 68.444-152.85 152.85"></path><path d="m-311.2 121.518 5.346-6.65-3.223-2.61-8.62 10.692 12.1 9.77 3.222-3.99c-.947-.767-2.046-2.225-1.074-3.427 1.509-1.893 4.245.537 5.6 1.611 2.84 2.302 3.94 3.53 2.635 5.167-.537.64-1.074.844-1.662.767l-1.714-.92-3.325 4.143c3.632 3.12 6.804 2.123 9.54-1.279 3.376-4.169 3.427-7.494-2.148-11.995-4.527-3.658-7.674-4.553-10.384-1.177-.972 1.177-1.458 2.635-.998 4.093h-.102zm-4.808 28.748c3.453 3.709 6.445 2.992 9.694-.179 5.499-5.371.665-10.487-3.965-15.193-5.243-5.396-9.642-9.949-15.218-4.501-4.22 4.118-2.378 8.261 1.305 12.046 2.48 2.533 6.164 4.093 9.054 1.28 1.202-1.177 1.867-2.584 1.892-4.298 4.45 4.553 6.19 5.909 4.297 7.75l-1.713.512-1.586-1.1zm-5.141-12.303c-1.151-1.202-3.325-3.427-1.688-5.013 1.611-1.586 3.734.486 4.91 1.688 1.152 1.177 3.249 3.479 1.638 5.065-1.612 1.585-3.71-.563-4.86-1.74m.153 25.142c3.862-3.12 4.553-6.47 1.382-10.384-2.072-2.583-4.144-4.399-7.57-3.222l-.026-.053c1.815-2.48.946-4.63-.845-6.829-3.043-3.811-6.42-3.964-10.18-.92-3.785 3.043-4.347 6.368-1.278 10.153 1.765 2.226 3.683 3.53 6.497 2.277l.05.052c-1.867 3.07-.537 5.5 1.535 8.083 3.146 3.913 6.573 3.964 10.436.844m-14.783-18.34c1.432-1.176 2.992.385 3.81 1.408.845 1.074 2.098 2.915.64 4.118-1.458 1.176-3.018-.46-3.862-1.535-.819-.998-2.02-2.84-.588-3.99m7.059 8.747c1.841-1.484 3.76.997 4.757 2.25.972 1.203 2.097 3.019.512 4.298-1.586 1.279-3.12-.205-4.067-1.407-1.023-1.253-3.044-3.658-1.202-5.141m-20.845 7.852c.818-1.535 1.56-3.223 2.071-4.936l11.331 17.213 4.757-3.12-14.757-22.38-4.22 2.787c-.129 2.251-.973 4.323-1.945 6.241zm-6.752 18.108 2.353 4.476 3.99-2.123-2.353-4.476zm-8.901 9.72 6.087-2.686-4.553-28.262-5.115 2.25 3.734 20.36-.051.026-11.944-16.753-5.423 2.353zm-14.272.052 1.713 4.783 4.246-1.484-1.688-4.782zm-2.635 6.394-1.125-4.092-9.105 2.455-2.123-7.8 8.133-2.226-1.125-4.092-8.134 2.2-1.79-6.6 8.824-2.403-1.1-4.118-14.323 3.887 7.264 26.754zm-49.696-19.029.41 4.604 6.292-.562 2.046 23.019 5.652-.511-2.046-23.02 6.292-.562-.41-4.578zm-14.476 11.1.154-11.1-5.679-.076-.358 27.725 5.679.077.153-12.38 6.522.077-.153 12.38 5.678.076.358-27.725-5.704-.077-.128 11.1zm-21.203 15.193c5.243.87 8.491-1.023 9.694-8.338l-5.525-.895c-.435 2.149-.895 5.55-3.504 5.141-3.146-.537-3.044-3.632-1.893-10.64 1.177-7.008 2.072-9.975 5.243-9.438 1.663.282 2.072 1.74 1.458 5.372l5.5.92c1.201-5.831-.563-9.437-6.293-10.384-9.233-1.534-10.384 5.346-11.586 12.584-1.176 7.162-2.327 14.119 6.906 15.679m-17.75-14.605-5.192-1.56 5.908-10.717h.077zm-10.742 7.648 3.248-5.448 7.417 2.225-.307 6.318 5.73 1.713.844-28.671-7.162-2.149-15.142 24.426zm-15.576-18.032 1.355.588c3.99 1.74 2.583 4.195 1.279 7.213-.742 1.663-1.637 3.325-1.611 5.167l5.09 2.225c-.026-1.253 1.969-6.087 2.685-7.699 1.995-4.578-1.253-6.343-2.328-6.982l.026-.053c3.632.921 5.934-.972 7.34-4.22 1.919-4.323.64-7.648-2.89-9.182l-9.617-4.22-11.126 25.398 5.192 2.276zm4.808-10.972 2.302.997c1.662.742 2.276 2.097 1.202 4.502-.716 1.637-2.225 3.478-4.297 2.583l-2.302-1.023zm-21.382-16.216-2.353 3.964 5.448 3.223-11.766 19.899 4.885 2.864 11.766-19.873 5.448 3.222 2.327-3.964zm-30.82 11.74 12.328-16.088.077.052-6.471 20.59 5.933 4.578 16.881-21.997-4.22-3.248-11.663 15.244-.077-.053 5.96-19.617-6.087-4.68-16.881 21.996zm-8.825-7.597 18.902-20.283-4.17-3.888-18.875 20.283zm-8.415-7.903 3.197-2.84-6.266-7.058 6.036-5.371 5.602 6.317 3.197-2.839-5.602-6.318 5.116-4.527 6.062 6.855 3.197-2.839-9.847-11.075-20.718 18.39zm287.355-39.594c2.379 1.407 5.448.691 6.855-1.713 1.432-2.379.563-5.397-1.816-6.804-2.404-1.432-5.448-.716-6.88 1.688-1.407 2.379-.563 5.423 1.841 6.83m4.476-42.304 19.03 7.238v.077l-21.716-.282-2.66 7.034 26.038 9.898 1.893-4.988-18.032-6.855.025-.076 20.615.076 2.737-7.212-26.038-9.899zm2.481-8.67 27.06 6.623 1.356-5.55-27.086-6.599zm2.098-8.16 4.22.69 1.56-9.36 8.031 1.33-1.38 8.363 4.22.69 1.38-8.338 6.779 1.126-1.51 9.054 4.246.69 2.43-14.68-27.495-4.553zm14.91-29.004-.05 1.483c-.18 4.374-2.967 3.965-6.292 3.837-1.816-.077-3.683-.282-5.423.409l-.204 5.576c1.176-.486 6.42-.384 8.184-.333 5.013.204 5.474-3.504 5.678-4.732h.077c.486 3.734 3.07 5.192 6.624 5.32 4.758.179 7.392-2.225 7.545-6.113l.384-10.537-27.828-1.05-.23 5.705zm12.047.46-.102 2.532c-.077 1.816-1.126 2.865-3.786 2.762-1.764-.052-4.066-.793-3.964-3.069l.077-2.532zm-23.557-9.822 4.272-.256-.614-9.463 8.133-.511.538 8.44 4.27-.281-.536-8.441 6.855-.435.588 9.183 4.271-.282-.946-14.885-27.802 1.764zm-3.555-30.487 1.253 6.573 28.723 1.842-1.048-5.525-20.795-.87-.025-.076 19.106-7.954-1.125-5.832zm19.157-33.812-4.399 1.432 1.97 6.036-22.099 7.188 1.765 5.422 22.098-7.162 1.944 6.036 4.4-1.432zm-21.536-8.108.614 1.33c1.867 3.964-.818 4.885-3.836 6.292-1.637.767-3.402 1.432-4.63 2.839l2.379 5.064c.818-.972 5.525-3.3 7.136-4.041 4.527-2.123 3.248-5.602 2.864-6.804l.077-.026c2.123 3.095 5.115 3.197 8.312 1.688 4.323-1.995 5.55-5.346 3.914-8.876l-4.45-9.565-25.245 11.791 2.404 5.192zm10.896-5.116 1.075 2.302c.767 1.663.332 3.07-2.072 4.195-1.611.741-3.99 1.15-4.936-.895l-1.075-2.302zm-30.769-5.831c5.193 7.852 11.126 3.964 17.214-.053 6.138-4.04 12.02-7.903 6.829-15.781-5.167-7.852-11.05-3.99-17.188.052-6.087 4.016-12.02 7.903-6.855 15.782m3.479-2.302c-1.765-2.66.588-4.732 6.548-8.645 5.96-3.94 8.772-5.269 10.538-2.583 1.764 2.685-.589 4.731-6.548 8.644-5.96 3.914-8.773 5.27-10.538 2.584m-20.896-21.28 3.683 4.348 8.645-7.315 2.736 3.222c4.323 5.116 8.747 2.584 11.152.537 3.887-3.3 5.064-6.957 1.688-10.921l-6.65-7.878zm21.663-10.87 1.867 2.199c1.663 1.97.589 3.683-1.15 5.14-1.433 1.203-3.632 1.51-4.732.231l-2.046-2.43zm-18.44 3.094c5.959-6.42-2.763-13.888.818-17.776 1.33-1.406 2.839-1.406 4.195-.153 1.688 1.56.485 3.35-.921 4.885l4.066 3.786c4.246-4.016 3.965-7.75-.102-11.535-5.09-4.758-8.977-3.607-11.919-.41-5.678 6.062 2.532 14.119-.895 17.802-1.279 1.381-2.839 1.663-4.246.358-2.302-2.148-.844-3.862.947-5.805l-4.17-3.888c-3.503 3.325-5.422 7.34-.255 12.15 3.197 2.966 7.545 5.882 12.481.587m-26.549-19.132-2.992 4.118 3.657 2.686 3.018-4.118zm4.041-24.605-9.847 16.677c-1.56 2.66-3.402 3.555-5.55 2.276-1.79-1.074-2.353-2.967-.588-5.908l9.847-16.677-4.91-2.915-10.053 17.009c-2.686 4.527-1.765 8.926 3.632 12.123 6.01 3.53 10.23.921 12.328-2.66l10.078-17.009zm-38.262-1.764-1.484 3.657 8.568 3.504 1.484-3.632zm-22.176 6.036 5.32-19.669.077.026 1.867 21.613 7.264 1.97 7.264-26.908-5.14-1.381-5.04 18.62-.076-.026-1.97-20.512-7.442-2.021-7.264 26.882zm-17.878-15.09 1.483.204c4.323.613 3.632 3.35 3.172 6.624-.256 1.816-.665 3.657-.128 5.448l5.525.767c-.358-1.228.255-6.42.511-8.185.69-4.962-2.941-5.78-4.143-6.113v-.076c3.76-.102 5.473-2.532 5.96-6.062.664-4.706-1.459-7.57-5.32-8.108l-10.437-1.458-3.862 27.597 5.653.793zm1.662-11.92 2.533.333c1.79.256 2.736 1.407 2.378 4.041-.256 1.765-1.227 3.965-3.453 3.658l-2.506-.358zm-17.801-5.729-.23 19.362c-.052 3.095-1.203 4.783-3.71 4.731-2.071-.026-3.503-1.38-3.452-4.808l.256-19.387-5.73-.077-.23 19.771c-.077 5.243 2.916 8.594 9.182 8.67 6.957.103 9.336-4.27 9.387-8.44l.23-19.77zm-36.473 2.02.511 4.58 6.318-.717 2.634 23.096 5.678-.665-2.634-23.07 6.292-.716-.512-4.604zm-19.08 21.306 1.432-.409c4.245-1.125 4.68 1.663 5.55 4.86.46 1.765.818 3.632 1.995 5.064l5.397-1.458c-.819-.972-2.302-6.01-2.763-7.724-1.304-4.86-4.962-4.17-6.215-4.016l-.026-.052c3.428-1.586 4.042-4.502 3.12-7.929-1.227-4.578-4.322-6.368-8.082-5.37l-10.18 2.761 7.29 26.882 5.5-1.484zm-3.147-11.637 2.456-.665c1.739-.46 3.069.204 3.76 2.788.46 1.714.46 4.118-1.74 4.706l-2.43.665zm-1.841 25.22-1.637-3.965-8.773 3.58-3.095-7.519 7.852-3.197-1.611-3.99-7.852 3.223-2.609-6.369 8.517-3.478-1.61-3.965-13.813 5.653 10.564 25.781zm-26.83-9.566c-2.558-5.244-7.163-6.343-12.047-3.607-8.16 4.553-4.962 10.947-1.535 17.086 5.167 9.233 8.083 12.226 16.472 7.545 1.995-1.126 5.09-3.555 6.291-4.578l-6.905-12.328-7.674 4.296 2.072 3.735 2.711-1.51 3.018 5.397c-.614.691-1.38 1.382-2.2 1.842-2.864 1.586-4.322.64-8.593-6.957-2.635-4.732-5.013-9.003-1.918-10.742 2.634-1.458 4.117.332 5.345 2.609zm-9.311 27.879-15.883-22.892-4.68 3.248 15.857 22.892zm-7.059 4.655-2.762-3.274-7.264 6.138-5.244-6.215 6.471-5.473-2.762-3.274-6.471 5.473-4.45-5.243 7.033-5.934-2.762-3.274-11.382 9.617 17.98 21.28zm-32.022 31.434 4.092-4.63-12.098-17.06.051-.076 18.083 10.333 4.194-4.707-16.83-23.044-3.708 4.195 12.38 15.55-.052.053-17.34-9.95-4.477 5.04 11.766 16.215-.051.053-16.984-10.308-3.887 4.374zm-25.347 8.338-9.463-5.909-3.019 4.86 23.608 14.732 3.044-4.834-10.538-6.573 3.453-5.55 10.538 6.573 3.018-4.834-23.608-14.758-3.044 4.834 9.464 5.909zm6.931 23.914c2.123-4.885 1.1-8.517-5.729-11.51l-2.25 5.167c1.994.947 5.217 2.226 4.143 4.655-1.279 2.967-4.272 2.098-10.819-.767s-9.207-4.476-7.903-7.417c.69-1.56 2.2-1.586 5.601-.102l2.251-5.141c-5.397-2.61-9.336-1.765-11.689 3.58-3.76 8.62 2.686 11.433 9.438 14.4 6.675 2.916 13.172 5.755 16.957-2.864m-12.61 8.772c-8.414-2.506-11.253 8.645-16.317 7.136-1.842-.537-2.533-1.893-1.996-3.658.665-2.225 2.788-1.943 4.783-1.355l1.586-5.32c-5.473-2.02-8.696-.102-10.282 5.218-1.995 6.675.742 9.617 4.937 10.87 7.954 2.353 11.535-8.568 16.318-7.136 1.816.537 2.762 1.816 2.225 3.658-.895 3.018-3.07 2.48-5.627 1.713l-1.637 5.474c4.553 1.662 9.003 1.611 10.998-5.167 1.254-4.169 1.919-9.386-4.987-11.432m-1.023 36.78-20.104-3.326v-.076l21.331-4.016 1.228-7.443-27.495-4.552-.87 5.268 19.03 3.146v.077l-20.232 4.016-1.253 7.622 27.495 4.527zm-29.158 14.246 19.387.23c3.07.053 4.758 1.202 4.732 3.709-.026 2.072-1.407 3.504-4.834 3.453l-19.362-.256-.076 5.703 19.745.256c5.243.077 8.62-2.915 8.696-9.181.077-6.957-4.271-9.336-8.44-9.387l-19.771-.256zm18.134 24.503.614 5.396-12.252-1.227-.025-.077zm11.305 6.88-6.317-.844-.87-7.725 5.96-2.2-.69-5.984-26.831 10.538.844 7.468 28.544 4.348zm-7.315 21.408-.332-1.433c-1.049-4.271 1.765-4.63 4.987-5.422 1.765-.435 3.632-.742 5.09-1.867l-1.304-5.448c-1.023.793-6.088 2.148-7.801 2.583-4.886 1.177-4.297 4.86-4.17 6.113h-.05c-1.484-3.453-4.4-4.143-7.852-3.3-4.604 1.126-6.471 4.17-5.55 7.93l2.48 10.256 27.06-6.6-1.33-5.55zm-11.689 2.864-.614-2.48c-.409-1.766.307-3.07 2.89-3.684 1.714-.435 4.119-.358 4.656 1.867l.613 2.456zm28.288 10.793c-.92-2.25-3.478-7.698-10-5.038-3.555 1.458-5.601 3.453-4.63 7.417l-.05.026c-1.74-2.634-4.476-3.197-7.443-1.995-5.5 2.25-5.32 6.062-3.683 10.078l3.836 9.387 25.782-10.538zm-20.154 12.968-1.33-3.248c-.742-1.79.128-3.607 2.02-4.4 2.507-.997 3.965.282 4.425 1.433l1.432 3.53zm10.538-4.297-1.28-3.095c-1.073-2.634-.025-4.066 2.252-4.987 3.606-1.484 4.68 1.023 5.14 2.148l1.203 2.942zm8.415 21.817c-2.353 1.458-3.146 4.502-1.663 6.88 1.458 2.354 4.553 2.993 6.906 1.51 2.353-1.458 3.12-4.502 1.663-6.88-1.484-2.354-4.553-2.993-6.906-1.51"></path></g><g clip-path="url(#e)" transform="translate(-840.26 -1277.333)scale(6.5477)"><g clip-path="url(#f)"><path fill="url(#g)" d="M38.797 174.78v44.844h44.844V174.78Z" style="fill:url(#g)"></path></g></g><path fill="#fff" d="M-335.524-79.366h-209.35v1.56l.026 3.914c.025 5.473.05 15.525.05 23.198 0 86.351 30.744 145.817 106.12 205.231l.971.793.998-.818c73.89-61.385 102.668-118.907 102.668-205.205 0-1.535.05-23.505.076-27.112v-1.56z"></path><g clip-path="url(#h)" transform="translate(-840.26 -1277.333)scale(6.5477)"><g clip-path="url(#i)"><path fill="url(#j)" d="M47.344 183.77v30.738h27.855V183.77Z" style="fill:url(#j)"></path></g></g></g><!-- source: https://football-logos.cc --></svg>