<svg xmlns="http://www.w3.org/2000/svg" xml:space="preserve" viewBox="0 0 209.31 209.31"><!-- Source: https://football-logos.cc --><path fill="#fff" d="M209.306 104.653c0 57.798-46.855 104.653-104.653 104.653S0 162.45 0 104.653 46.855 0 104.653 0s104.653 46.855 104.653 104.653" data-source="https://football-logos.cc"></path><path fill="#2fa641" d="M5 104.654C5 49.616 49.616 5 104.653 5s99.653 44.615 99.653 99.653c0 55.037-44.615 99.652-99.653 99.652C49.616 204.306 5 159.691 5 104.654m10.179 0c0 49.416 40.058 89.474 89.474 89.474s89.475-40.058 89.475-89.474-40.058-89.475-89.475-89.475S15.18 55.237 15.18 104.654" data-source="https://football-logos.cc"></path><path fill="#2fa641" d="M91.335 96.51c1.026-1.362 1.924-2.71-5.18-9.379-8.726-8.192-23.389-22.929-14-40.522 6.374-11.942 18.35-9.567 23.365-6.992 3.465 1.779 11.763 7.213 19.756 1.347 8.915-6.543 22.139-1.64 25.015 6.206 2.806 7.656 3.656 19.63-7.745 31.494s-17.814 16.598-12.3 18.857c2.094.858 3.841-1.994 6.639-5.372 4.698-5.671 12.909-11.345 23.636-16.316 11.383-5.274 31.559 1.657 23.107 26.546-2.644 7.786-3.065 16.496-.265 21.785 3.97 7.496 3.175 20.46-6.614 24.43-9.62 3.9-21.005 2.872-27.885-2.084s-17.51-20.22-19.418-22.69c-1.91-2.471-3.96-6.304-8.804-7.33.913 7.442-.898 18.057-1.348 20.767-.449 2.71-3.623 11.738-7.119 19.194s-3.608 7.568-8.579 8.354c-4.97.787-14.976 3.561-16.708 4.283-1.247.519-4.746-.435-5.645-1.91s.786-2.696 2.148-3.383c1.363-.689 27.1-16.387 27.212-45.956 0-4.62-2.485-2.935-4.521-1.011-2.036 1.923-6.445 5.32-19.531 21.455-13.086 16.132-31.51 10.751-33.755 9.926-8.41-3.093-13.043-15.843-9.028-24.501 3.81-8.217 5.983-13.68 3.384-20.205-1.348-3.384-5.518-12.188-1.348-20.093s15.37-13.829 30.131-5.532c9.043 5.083 14.126 11.612 17.173 14.897s5.757 6.22 8.227 3.735" data-source="https://football-logos.cc"></path><!-- source: https://football-logos.cc --></svg>