<svg xmlns="http://www.w3.org/2000/svg" xmlns:xlink="http://www.w3.org/1999/xlink" viewBox="0 0 933.33 933.33"><!-- Source: https://football-logos.cc --><clipPath id="m" data-source="https://football-logos.cc"><path d="M330.624 750.636h416.568V570.085H330.624z"></path></clipPath><clipPath id="b"><path d="M0 1080h1080V0H0z"></path></clipPath><clipPath id="d"><path d="M868.238 524.378C859.851 343.179 706.172 203.09 524.97 211.477c-181.199 8.387-321.288 162.071-312.901 343.274 8.388 181.196 162.072 321.285 343.271 312.899 181.197-8.388 321.285-162.073 312.898-343.272"></path></clipPath><clipPath id="A"><path d="m515.521 480.436 23.405.755v248.386s-16.61-17.364-18.497-47.563"></path></clipPath><clipPath id="f"><path d="M211.718 868.003h656.874V403.52H211.718z"></path></clipPath><clipPath id="g"><path d="M211.718 539.563c0 181.394 147.046 328.44 328.437 328.44s328.437-147.043 328.437-328.44c0-181.391-656.874-181.391-656.874 0"></path></clipPath><clipPath id="z"><path d="M515.521 729.577h23.405V480.436h-23.405z"></path></clipPath><clipPath id="i"><path d="M349.348 634.846c-14.666-28.896-22.93-61.583-22.93-96.2 0-117.54 95.283-212.82 212.823-212.82 117.543 0 212.814 95.28 212.814 212.82 0 45.696-14.401 88.028-38.911 122.706z"></path></clipPath><clipPath id="x"><path d="M564.055 455.823s-43.013 3.268-53.167-.519c0 0-2.238-4.129-1.203-8.777 0 0 3.268-4.126 2.752-6.535-.517-2.412-3.787-9.467-.343-12.734 3.439-3.271 5.851-5.509 4.303-9.809-1.554-4.303-4.821-7.228 1.548-11.354 6.365-4.132 3.439-8.431 2.923-10.67-.516-2.235-4.129-7.057-3.271-14.454.862-7.399 10.67-18.237 19.099-20.304 8.431-2.065 21.169 2.58 24.091 7.573 2.926 4.987 6.884 9.119 7.055 16.173"></path></clipPath><clipPath id="l"><path d="M0 1080h1080V0H0z"></path></clipPath><clipPath id="c"><path d="M211.712 868.008h656.884V211.119H211.712z"></path></clipPath><clipPath id="n"><path d="M330.624 572.331s87.774 63.494 192.359 18.674c104.584-44.824 224.209-3.669 224.209-3.669s-42.329 167.739-207.037 163.209c0 0-165.545 9.314-209.531-178.214"></path></clipPath><clipPath id="w" data-source="https://football-logos.cc"><path d="M509.412 457.133h58.43v-96.969h-58.43z"></path></clipPath><clipPath id="s"><path d="M501.816 453.805H702.5V351.171H501.816z"></path></clipPath><clipPath id="v"><path d="M442.58 732.774h199.605V448.61H442.58z"></path></clipPath><linearGradient id="o" x1="0" x2="1" y1="0" y2="0" gradientTransform="scale(203.53023 -203.53023)rotate(83.517 3.285 -.352)" gradientUnits="userSpaceOnUse" spreadMethod="pad"><stop offset="0" stop-color="#f1b8a4"></stop><stop offset=".575" stop-color="#da2128"></stop><stop offset=".989" stop-color="#ec1c24"></stop><stop offset="1" stop-color="#ec1c24"></stop></linearGradient><linearGradient id="j" x1="0" x2="1" y1="0" y2="0" gradientTransform="scale(299.78168 -299.78168)rotate(82.737 2.105 -.087)" gradientUnits="userSpaceOnUse" spreadMethod="pad"><stop offset="0" stop-color="#ec1c24"></stop><stop offset=".554" stop-color="#ce2e2c"></stop><stop offset="1" stop-color="#a82b27"></stop></linearGradient><linearGradient id="a"><stop offset="0" stop-color="#fff"></stop><stop offset=".032" stop-color="#fff"></stop><stop offset=".989" stop-color="#6d6e70"></stop><stop offset="1" stop-color="#6d6e70"></stop></linearGradient><linearGradient xlink:href="#a" id="y" x1="0" x2="1" y1="0" y2="0" gradientTransform="scale(-42.7036 42.7036)rotate(-12.804 36.6 61.835)" gradientUnits="userSpaceOnUse" spreadMethod="pad"></linearGradient><linearGradient id="h" x1="0" x2="1" y1="0" y2="0" gradientTransform="scale(546.29196 -546.29196)rotate(73.342 1.51 -.289)" gradientUnits="userSpaceOnUse" spreadMethod="pad"><stop offset="0" stop-color="#fff"></stop><stop offset=".269" stop-color="#231f20"></stop><stop offset="1" stop-color="#231f20"></stop></linearGradient><linearGradient id="e" x1="0" x2="1" y1="0" y2="0" gradientTransform="scale(-729.91615 729.91615)rotate(75.99 -.573 -.45)" gradientUnits="userSpaceOnUse" spreadMethod="pad"><stop offset="0" stop-color="#cecfd1"></stop><stop offset=".005" stop-color="#cecfd1"></stop><stop offset=".237" stop-color="#231f20"></stop><stop offset="1" stop-color="#231f20"></stop></linearGradient><linearGradient xlink:href="#a" id="B" x1="0" x2="1" y1="0" y2="0" gradientTransform="matrix(27.5546 .37745 .37745 -27.5546 520.185 604.91)" gradientUnits="userSpaceOnUse" spreadMethod="pad"></linearGradient><g clip-path="url(#b)" transform="matrix(1.33333 0 0 -1.33333 -253.543 1186.083)"><path fill="#fff" d="M190.158 539.563c0 193.302 156.695 349.999 349.998 349.999 193.302 0 350.003-156.697 350.003-349.999 0-193.3-156.701-350.001-350.003-350.001-193.303 0-349.998 156.701-349.998 350.001"></path><path fill="#231f20" d="M203.46 539.563c0 185.956 150.741 336.697 336.694 336.697 185.954 0 336.695-150.741 336.695-336.697S726.108 202.866 540.154 202.866 203.46 353.607 203.46 539.563"></path><g clip-path="url(#c)" opacity=".57"><g clip-path="url(#d)"><path fill="url(#e)" d="M868.238 524.378C859.851 343.179 706.172 203.09 524.97 211.477c-181.199 8.387-321.288 162.071-312.901 343.274 8.388 181.196 162.072 321.285 343.271 312.899 181.197-8.388 321.285-162.073 312.898-343.272"></path></g></g><g clip-path="url(#f)" opacity=".66"><g clip-path="url(#g)"><path fill="url(#h)" d="M211.718 539.563c0 181.394 147.046 328.44 328.437 328.44s328.437-147.043 328.437-328.44c0-181.391-656.874-181.391-656.874 0"></path></g></g><path fill="#fff" d="M306.06 539.563c0 129.289 104.809 234.092 234.095 234.092 129.289 0 234.095-104.803 234.095-234.092 0-129.286-104.806-234.095-234.095-234.095-129.286 0-234.095 104.809-234.095 234.095"></path><path fill="#be1e2d" d="M319.992 539.563c0 121.595 98.568 220.166 220.163 220.166 121.598 0 220.163-98.571 220.163-220.166 0-121.592-98.565-220.163-220.163-220.163-121.595 0-220.163 98.571-220.163 220.163"></path><path fill="#ec1c24" d="M327.336 539.56c0 117.54 95.283 212.82 212.82 212.82 117.539 0 212.823-95.28 212.823-212.817 0-117.543-95.284-212.823-212.823-212.823-117.537 0-212.82 95.28-212.82 212.82"></path></g><g clip-path="url(#i)" transform="matrix(1.33333 0 0 -1.33333 -253.543 1186.083)"><path fill="url(#j)" d="M349.348 634.846c-14.666-28.896-22.93-61.583-22.93-96.2 0-117.54 95.283-212.82 212.823-212.82 117.543 0 212.814 95.28 212.814 212.82 0 45.696-14.401 88.028-38.911 122.706z"></path></g><g clip-path="url(#l)" transform="matrix(1.33333 0 0 -1.33333 -253.543 1186.083)" data-source="https://football-logos.cc"><g clip-path="url(#m)" opacity=".41"><g clip-path="url(#n)"><path fill="url(#o)" d="M330.624 572.331s87.774 63.494 192.359 18.674c104.584-44.824 224.209-3.669 224.209-3.669s-42.329 167.739-207.037 163.209c0 0-165.545 9.314-209.531-178.214"></path></g></g><g clip-path="url(#s)" opacity=".45"><path fill="#932923" d="M511.947 399.33c1.604-1.074 1.808-2.872 1.929-4.052.466-4.58-2.548-8.597-3.459-13.307-1.059-5.482 1.04-10.106 3.123-14.837 1.536-3.486 4.152-6.122 7.107-8.487 7.597-6.072 17.335-7.606 26.468-3.987 9.083 3.598 14.044 11.752 16.365 21.095 1.578 6.376-2.743 11.309-3.584 17.237-.058.449 1.03 1.436 1.283 1.33 22.676-9.75 42.016-24.109 61.475-40.255 1.38-1.153 2.713-3.852 5.19-2.548 30.196 15.919 54.47 36.61 74.365 65.851.864 1.262-.366 2.471-1.469 2.884-26.654 10.015-52.836 16.403-81.525 21.791-18.75 3.524-36.182 3.158-54.777 7.511-1.902.443-3.043 3.135-3.987 3.191-18.777 1.127-37.607 1.752-56.402-.209-2.465-5.309-3.592-11.027.369-16.748 1.23-1.776.259-4.56-.841-6.913-1.288-2.755-.536-5.836 1.422-8.349 2.026-2.61 5.945-4.3 4.276-7.845-1.362-2.904-2.654-5.491-1.973-8.717.519-2.466 2.728-3.356 4.645-4.636"></path></g><path fill="#fff" d="M517.456 404.836c1.601-1.071 1.805-2.873 1.926-4.052.466-4.58-2.551-8.597-3.46-13.304-1.058-5.485 1.044-10.109 3.127-14.839 1.533-3.486 4.152-6.123 7.104-8.485 7.594-6.075 17.335-7.606 26.471-3.99 9.083 3.598 14.044 11.752 16.362 21.095 1.581 6.376-2.743 11.312-3.58 17.237-.062.449 1.026 1.434 1.283 1.33 22.675-9.749 42.013-24.106 61.468-40.258 1.386-1.147 2.719-3.849 5.196-2.545 30.187 15.916 54.473 36.61 74.365 65.851.855 1.262-.366 2.471-1.471 2.884-26.652 10.015-52.834 16.403-81.523 21.791-18.75 3.521-36.185 3.155-54.777 7.509-1.905.448-3.043 3.137-3.993 3.193-18.774 1.124-37.604 1.749-56.402-.209-2.462-5.306-3.588-11.027.375-16.745 1.227-1.779.256-4.56-.843-6.916-1.292-2.754-.534-5.836 1.421-8.349 2.026-2.607 5.945-4.3 4.276-7.844-1.365-2.902-2.651-5.495-1.973-8.718.519-2.468 2.728-3.356 4.648-4.636"></path><g clip-path="url(#v)" opacity=".45"><path fill="#932923" d="M504.043 476.555c-12.242-.613-27.126-3.152-35.696 8.013-3.448 4.479-2.642 12.424-9.051 14.38-5.93 1.808-11.669-.614-14.595-6.152-2.719-5.14-2.687-10.998-.684-16.217 2.545-6.63 8.865-11.897 15.444-12.625 51.023-5.666 100.465 3.624 151.809-4.262 9.466-1.457 21.416-18.228 30.736-7.541 2.194 16.135-16.253 21.997-29.037 24.083-17.825 2.905-35.024-.514-52.483 1.79-3.592 63.479-.224 126.894-3.108 190.442-1.044 23.056-9.432 45.964-24.327 64.308-11.709-16.639-19.267-35.973-20.839-55.738-5.299-66.538.283-132.359-4.715-198.977-.027-.324-2.065-1.439-3.454-1.504"></path></g><path fill="#fff" d="M509.55 479.307c-12.239-.613-27.126-3.149-35.699 8.013-3.442 4.48-2.637 12.427-9.048 14.383-5.931 1.808-11.673-.614-14.598-6.155-2.713-5.143-2.681-10.997-.678-16.214 2.542-6.633 8.865-11.897 15.438-12.625 51.029-5.666 100.467 3.621 151.818-4.268 9.463-1.454 21.416-18.225 30.727-7.535 2.202 16.132-16.25 21.995-29.038 24.083-17.821 2.905-35.02-.513-52.482 1.79-3.586 63.48-.224 126.894-3.1 190.442-1.052 23.056-9.434 45.962-24.333 64.308-11.708-16.639-19.263-35.973-20.838-55.744-5.299-66.532.283-132.353-4.716-198.974-.023-.324-2.067-1.436-3.453-1.504"></path><g clip-path="url(#w)" opacity=".5"><g clip-path="url(#x)"><path fill="url(#y)" d="M564.055 455.823s-43.013 3.268-53.167-.519c0 0-2.238-4.129-1.203-8.777 0 0 3.268-4.126 2.752-6.535-.517-2.412-3.787-9.467-.343-12.734 3.439-3.271 5.851-5.509 4.303-9.809-1.554-4.303-4.821-7.228 1.548-11.354 6.365-4.132 3.439-8.431 2.923-10.67-.516-2.235-4.129-7.057-3.271-14.454.862-7.399 10.67-18.237 19.099-20.304 8.431-2.065 21.169 2.58 24.091 7.573 2.926 4.987 6.884 9.119 7.055 16.173"></path></g></g><g clip-path="url(#z)" opacity=".38"><g clip-path="url(#A)"><path fill="url(#B)" d="m515.521 480.436 23.405.755v248.386s-16.61-17.364-18.497-47.563"></path></g></g><g fill="#fff"><path d="M351.391 763.663c-5.283.771-10.561-1.265-14.316-5.04-6.724-6.761-6.082-16.48.513-23.037 6.703-6.668 16.145-6.869 22.982.006 3.585 3.605 5.425 8.949 4.963 14.004l13.241-13.17c-2.516-4.783-4.306-8.27-7.724-11.708-5.884-5.917-13.742-9.308-22.114-9.724-8.876-.474-16.527 2.877-22.838 9.154-5.803 5.773-9.195 13.517-9.33 21.72-.135 8.429 3.27 17.037 9.209 23.008 3.53 3.549 7.57 6.033 12.174 7.956zM396.663 791.637l-12.444 19.489 13.127 8.38 32.24-50.496-13.125-8.382-13.214 20.696-18.953-12.103 13.212-20.693-13.126-8.381-32.241 50.496 13.128 8.382 12.442-19.49zM447.072 819.483l-.152-.052.074-20.128 12.258 4.188zm-.285-32.844-.544-11.188-15.64-5.344 2.436 64.147 16.091 5.5 40.726-49.401-15.714-5.37-7.051 8.591zM503.623 824.248l1.502.165c5.057.55 10.641 2.116 9.936 8.595-.705 6.477-6.497 6.807-11.553 6.256l-1.5-.163zm37.626-29.156-19.272-2.099-17.111 21.318-.158-.016 2.495-22.912-15.486-1.684-6.485 59.566 23.148 2.52c11.771 1.282 21.31-3.356 22.693-16.075.897-8.215-2.912-15.825-11.202-18.246zM559.693 806.063l18.635-1.265-.893-13.16-34.172 2.317 4.061 59.783 15.533-1.055zM604.01 785.541l-15.182 3.476 10.428 45.541-12.546 2.871 2.944 12.857 40.273-9.222-2.943-12.857-12.546 2.874zM644.69 805.117c-4.406-9.343-.728-19.424 7.677-23.392 8.407-3.968 18.526-.397 22.938 8.945 3.524 7.473-.157 17.555-8.556 21.524-8.414 3.968-18.532.396-22.059-7.077m45.304-21.294c-8.272-17.532-26.68-23.957-44.069-15.751-17.396 8.206-24.135 26.5-15.857 44.035 7.727 16.383 27.527 21.099 43.122 13.741 15.592-7.359 24.537-25.64 16.804-42.025M718.326 799.036l11.84-10.113-2.085-46.38.124-.104 23.779 27.862 11.85-10.112-38.902-45.567-11.841 10.11 2.135 46.441-.121.104-23.831-27.922-11.85 10.111zM399.69 312.151l-.137.085-15.411-12.949 11.066-6.73zm-25.408-20.818-8.94-6.745-14.119 8.594 50.825 39.203 14.529-8.839-11.865-62.91-14.186 8.629 2.083 10.92zM430.013 251.411l-14.43 5.86 17.578 43.287-11.926 4.848 4.963 12.219 38.283-15.545-4.962-12.224-11.928 4.848zM498.686 271.111l4.416 22.697 15.287-2.979-11.443-58.808-15.288 2.975 4.691 24.103-22.074 4.291-4.688-24.1-15.288 2.976 11.442 58.811 15.287-2.978-4.416-22.697zM539.59 244.554l18.669-.127-.088-13.185-34.245.233.414 59.911 15.574-.106zM577.71 280.643l1.421-9.915 17.38 2.498 1.875-13.062-17.379-2.489 1.466-10.227 18.329 2.627 1.875-13.052-33.744-4.849-8.517 59.313 33.744 4.842 1.876-13.058zM640.584 247.539l-14.881-4.589-13.776 44.65-12.3-3.796-3.887 12.605 39.488 12.176 3.887-12.604-12.304-3.795zM676.446 262.125l-14.2-6.4-24.613 54.624 14.197 6.399zM705.489 325.28c-4.99 1.917-10.581 1.097-15.076-1.761-8.048-5.107-9.57-14.727-4.58-22.581 5.067-7.983 14.226-10.257 22.413-5.064 4.291 2.729 7.264 7.533 7.93 12.567l10.01-15.766c-3.51-4.108-6.022-7.117-10.116-9.718-7.042-4.471-15.459-6.045-23.714-4.603-8.758 1.492-15.485 6.452-20.251 13.964-4.388 6.91-5.987 15.211-4.311 23.245 1.727 8.248 6.947 15.893 14.055 20.408 4.229 2.68 8.72 4.211 13.628 5.069z"></path></g></g><!-- source: https://football-logos.cc --></svg>