<svg xmlns="http://www.w3.org/2000/svg" viewBox="1 1 179.55 250"><!-- Source: https://football-logos.cc --><path d="M94.051 161.448c68.325-16.093 135.498-23.83 201.622-23.968 69.64-.145 138.116 8.139 205.551 23.968v365.4L297.861 704.41 94.05 525.445Z" style="fill:#008741;fill-rule:evenodd" transform="translate(-40.474 -59.624)scale(.44097)" data-source="https://football-logos.cc"></path><path d="m242.095 639.355 55.045 47.403 189.115-166.711V173.389c-57.579-15.563-163.327-23.61-244.355-19.112Z" style="fill:#fde100;fill-rule:evenodd" transform="translate(-40.474 -59.624)scale(.44097)"></path><path d="m255.12 353.082 19.134-17.535c8.658-17.275 19.24-28.078 30.456-36.74 8.9-6.875 17.402-12.31 26.299-16.085 15.467-6.56 33.759-7.99 50.157-4.39 10.844 2.38 21.59 7.408 31.519 16.804 5.237 4.956 17.54 16.815 17.969 33.31.276 10.602-4.5 23.462-12.713 34.787-8.214 11.325-21.518 23.043-34.993 27.78l-3.383 42.47-46.549-49.828 11.043-19.031-51.98-9.09-22.164 15.752 3.383-16.578zm99.707-43.82c-1.262 3.41-3.78 5.044-7.767 6.787-4.642 2.028-9.865.592-13.373-1.66-1.595-1.024-3.276-2.683-1.745-4.364 1.618-1.779 2.046-3.13 1.77-4.122-.214-.772-1.475-1.536-2.312-1.908-1.126-.5-1.96-.2-3.416.377-2.983 1.184-7.98 4.133-10.955 5.707-4.389 2.323-8.426 4.846-11.222 7.05-4.241 3.342-9.125 6.413-15.707 7.281 4.82-4.581 9.72-9.048 15.241-13.626 4.872-4.04 10.565-7.983 15.968-11.143 4.71-2.754 12.445-5.689 17.882-6.658 3.611-.644 5.734-.19 8.819 1.785 4.824 3.087 8.83 9.055 6.817 14.493m65.554 30.16c-3.766 5.86-8.576 13.03-13.931 19.439-6.263 7.494-13.404 14.072-22.84 16.918-3.919 1.182-8.32-.807-8.4-4.545-.109-5.005 5.682-8.741 12.397-10.436 3.28-.827 5.888-.93 9.286-2.356 10.18-4.268 16.247-14.208 23.488-19.02M270.57 374.677l15.399 9.942-24.927 21.115 14.185-21.141zM260.766 410.483l20.314 1.791-11.156 9.295 18.386 2.686 4.476 14.944-9.571-11.294-18.386-3.236 3.58-8.676z" style="fill:#008741;fill-rule:evenodd" transform="translate(-40.474 -59.624)scale(.44097)"></path><path d="m297.815 380.176-5.995 2.073-10.338-8.359 14.266-6.631 27.635 3.454-39.144 27.286 18.125 27.149-13.232-9.879-6.616-16.855 24.74-21.139c.565-3.721-5.152-6.785-8.334-5.959-3.606.936-8.167 7.934-1.107 8.86M266.963 432.656l13.91 4.958-13.703 22.655.757 23.067-5.784-27.818 10.742-13.703zM283.972 446.91l-9.847 17.284 4.82 10.878-6.886 12.533 7.781 13.703 5.37-23.478-3.649-12.534zM293.337 445.464l-1.722 17.352 6.129 9.64-9.434 23.826 12.532 11.706-3.305-19.831 6.472-19.97-7.023-7.298zM304.285 439.749l1.79 14.804 8.814 9.915-3.718 41.454 9.09-17.077 1.652-27.268-8.845-11.707zM319.503 443.468l9.158 13.564.275 28.783 8.332-31.745z" style="fill:#008741;fill-rule:evenodd" transform="translate(-40.474 -59.624)scale(.44097)"></path><path d="m336.51 410.07-7.504 27.89 15.768 11.36-7.024 37.597 15.632-42.071-14.805-14.669z" style="fill:#008741;fill-rule:evenodd" transform="translate(-40.474 -59.624)scale(.44097)" data-source="https://football-logos.cc"></path><path d="m360.336 464.743 8.195-28.726-22.655-24.845 2.754 12.808 14.185 16.389-13.29 35.875zM348.518 271.318c13.717-2.007 25.658-1.732 35.743.197 14.195 2.717 25.09 9.595 33.241 16.363 14.87 12.346 19.865 27.456 20.763 39.574.413 5.577.317 11.993-.992 17.398-1.483 6.125-4.407 11.189-7.767 16.558-7.588 12.123-22.734 28.108-31.393 44.832-5.556 10.73-9.301 22-9.82 33.341-.547 11.977 2.158 23.57 6.142 34.361 5.503 14.908 13.674 28.122 30.55 37.252-16.802-19.763-25.329-46.707-25.393-68.22-.025-8.396.943-15.47 3.302-22.188 4.003-11.393 11.373-21.815 18.757-31.287 7.053-9.046 14.91-18.588 20.098-28.913 5.965-11.873 7.723-30.562 5.695-43.662-1.857-11.991-7.405-23.776-17.398-33.896-12.68-12.842-32.317-22.116-50.283-21.738-9.842.207-19.929 3.363-31.245 10.028" style="fill:#008741;fill-rule:evenodd" transform="translate(-40.474 -59.624)scale(.44097)"></path><path d="M343.143 272.42c-7.518-22.267-17.524-35.816-49.05-59.658 11.893-15.866 37.76-22.235 57.76-22.493 49.09-.633 93.417 25.848 113.95 75.564 4.99 12.083 8.739 26.091 8.987 42.101.19 12.29-2.302 29.54-9.379 45.626-4.67 10.615-11.361 20.987-18.244 30.258-14.718 19.824-29.12 35.919-30.468 68.302-.41 9.858.118 20.851 2.637 34.55-6.73-14.29-9.59-26.58-9.707-37.647-.253-24.142 12.222-41.358 26.383-61.885 6.437-9.33 15.797-23.41 21.695-34.41 5.763-10.748 8.103-20.855 8.737-32.224.523-9.382.264-17.89-1.417-27.156-2.78-15.318-9.472-30.001-18.134-42.4-11.828-16.93-28.824-30.947-48.31-38.574-17.643-6.907-37.164-7.464-55.776-5.227-8.24.991-16.86 2.627-25.842 4.926 30.683 26.935 28.32 46.123 26.178 60.348" style="fill:#008741;fill-rule:evenodd" transform="translate(-40.474 -59.624)scale(.44097)"></path><path d="M100.486 289.644h27.583l13.882-24.177h53.566l13.567 23.35h28.658l-68.616-119.042zm55.225-48.14 12.865-22.404 13.018 22.404zM218.263 314.942l-13.875 14.668c-15.888-9.748-29.248-10.226-41.56-6.383-11.567 3.609-22.09 12.762-30.854 28.477h63.901v23.885H130.95c8.095 17.482 19.109 28.38 33.262 31.871 15.398 3.799 38.235-3.396 48.628-17.358l15.012 15.562c-15.704 22.187-44.654 26.164-61.08 24.808-11.677-.964-21.537-5.377-29.569-11.152-21.65-15.568-29.194-37.692-29.804-50.269-.506-10.407 1.479-27.371 10.944-41.981 3.089-4.768 6.99-9.374 11.729-13.329 3.685-3.075 9.12-6.449 13.832-8.51 7.65-3.347 18.927-6.458 30.54-7.01 14.23-.677 28.003 2.692 43.82 16.72M122.248 441.772h22.56v52.61l60.045-50.295 18.592 16.526-53.573 45.198 64.177 52.857-16.802 19.832-72.44-58.619v27.77l-22.559-17.714Z" style="fill:#fde100;fill-rule:evenodd" transform="translate(-40.474 -59.624)scale(.44097)"></path><path d="M292.565 595.305c-1.838 1.788-5.42 2.325-8.233 1.903-4.73-.71-8.762-3.757-9.359-9.581-.36-3.513.687-6.839 3.35-9.225 2.187-1.958 5.112-2.944 8.022-3.01 4.778-.105 8.818 2.788 10.788 7.053 2.533 5.485 1.487 12.414-1.249 17.66-2.733 5.239-7.771 10.483-12.924 14.25l-3.013-3.98c4.132-3.01 8.273-7.142 10.787-11.29.52-.86 1.448-2.85 1.831-3.78m.9-5.22c.047-1.94-.081-3.95-.862-5.64-1.128-2.442-3.37-4.125-6.148-4.063-3.967.088-6.947 2.554-6.518 6.736.415 4.05 3.948 5.847 7.677 5.486 1.973-.192 3.842-1.16 5.26-2.12zM321.756 595.305c-1.839 1.788-5.421 2.325-8.234 1.903-4.73-.71-8.762-3.757-9.359-9.581-.36-3.513.687-6.839 3.35-9.225 2.187-1.958 5.112-2.944 8.022-3.01 4.778-.105 8.818 2.788 10.788 7.053 2.533 5.485 1.488 12.414-1.249 17.66-2.732 5.239-7.771 10.483-12.923 14.25l-3.014-3.98c4.132-3.01 8.273-7.142 10.787-11.29.52-.86 1.448-2.85 1.832-3.78m.899-5.22c.047-1.94-.081-3.95-.862-5.64-1.128-2.442-3.37-4.125-6.147-4.063-3.968.088-6.947 2.554-6.519 6.736.415 4.05 3.948 5.847 7.677 5.486 1.974-.192 3.842-1.16 5.26-2.12zM269.242 575.916h-3.486l-10.931 6.179 2.214 4.575 7.133-4.258v31.368h5.07zM353.569 575.916h-4.234l-18.42 24.398-.007.435h-.039l.014 1.712-.049 3.338.075-.03v.05h17.59v7.96h5.07v-7.96h5.423v-5.07h-5.423zm-17.257 24.833 12.187-15.842v15.842z" style="fill:#008741;fill-rule:evenodd" transform="translate(-40.474 -59.624)scale(.44097)" data-source="https://football-logos.cc"></path><!-- source: https://football-logos.cc --></svg>