<svg xmlns="http://www.w3.org/2000/svg" xml:space="preserve" viewBox="29.79 4.68 198.13 249.45"><!-- Source: https://football-logos.cc --><path d="M428.281 1206.29c-87.097-236.626-171.847-493.481-201.949-768.407-21.019-191.996 74.777-267.778 160.594-312.363 163.429-84.899 484.84-91.504 579.453-91.504 94.611 0 416.011 6.605 579.451 91.504 85.81 44.585 181.61 120.367 160.59 312.363-30.1 274.933-114.85 531.789-201.95 768.407-166.77 453.07-301.92 698.59-538.091 698.59-236.168 0-371.316-245.52-538.098-698.59" style="fill:#fff;fill-opacity:1;fill-rule:evenodd;stroke:none" transform="matrix(.13333 0 0 -.13333 0 258.667)" data-source="https://football-logos.cc"></path><path d="M1666.98 433.563c-29.63 270.664-113.51 524.75-199.74 759.017-160.58 436.23-287.95 672.63-500.861 672.63-212.899 0-340.281-236.4-500.863-672.63-86.223-234.244-170.106-488.318-199.743-759.017-18.25-166.637 56.235-229.618 139.438-272.836 131.512-68.325 376.023-83.34 504.137-86.344v215.031h39.672V73.762c6.386-.047 12.257-.074 17.359-.074 5.098 0 10.973.027 17.355.074v215.652h39.676V74.383c128.11 3.004 372.63 18.02 504.13 86.344 83.21 43.218 157.69 106.199 139.44 272.836" style="fill:#256350;fill-opacity:1;fill-rule:evenodd;stroke:none" transform="matrix(.13333 0 0 -.13333 0 258.667)"></path><path d="M1060.76 1182.07c-21.11 4.15-36.11 10.84-36.11 19.85 0 10.15 23.76 17.97 51.3 27.03 62.52 20.55 156.98 51.61 156.98 161.42 0 96.42-59.23 136.39-61.75 138.04l-8.73 5.73 1.09-10.39c11.14-107.5-45.42-124.8-105.31-143.1-1.33-.41-2.67-.82-4-1.24 40.42 25.39 84.48 55.37 84.48 132.46 0 43.84-32.28 122.6-118.89 147.35l-9.32 2.66 3.28-9.11c54.92-152.25-10.22-182.73-85.628-217.98-34.422-16.09-71.25-33.47-99.75-63.45 21 26.25 53.282 45.13 85.032 63.7 46.355 27.1 90.136 52.71 90.136 99.15 0 33.2-12.011 46.26-12.511 46.8l-4.875 5.14-3.168-6.33c-27.047-54.04-82.899-81.41-136.911-107.87-68.218-33.42-132.644-64.99-132.644-146.03 0-115.26 154.109-143.82 176.055-143.82zM966.379 1085.37c148.771 0 239.281 22.32 239.281 70.67H727.094c0-48.35 90.508-70.67 239.285-70.67M830 1063.05v-39.67h79.348V616.723h39.672v406.657h34.714V616.723h39.676v406.657h79.35v39.67zM423.074 544.309c3.563-4.418 5.344-12.766 5.344-25.067v-10.887c0-12.316-1.781-20.71-5.344-25.164-3.566-4.476-10.277-6.703-20.117-6.703h-14.375v74.43h14.375c9.84 0 16.551-2.211 20.117-6.609m-78.41 45.66V316.168h63.344c22.543 0 39.734 5.793 51.59 17.395 11.855 11.585 17.785 28.343 17.785 50.23v18.656c0 14.121-3.18 26.074-9.524 35.86-6.355 9.781-14.964 16.015-25.843 18.75 20.207 8.406 30.316 27.781 30.316 58.097v10.692c0 20.593-5.961 36.418-17.875 47.504-11.926 11.078-29.09 16.617-51.5 16.617zm83.453-159.16c3.567-4.395 5.348-12.766 5.348-25.067v-18.851c0-12.297-1.781-20.668-5.348-25.067-3.562-4.394-10.265-6.601-20.109-6.601h-19.426v82.215h19.426q14.766-.001 20.109-6.629M568.801 544.02c3.691-4.614 5.543-12.864 5.543-24.778v-20.031q0-17.87-5.637-24.871c-3.762-4.672-10.375-6.996-19.828-6.996h-14.375v83.574h14.375c9.59 0 16.223-2.309 19.922-6.898m-78.211 45.949V316.168h43.914v112.125h12.437c9.454 0 16.063-2.363 19.817-7.094q5.637-7.084 5.637-24.582v-56.16q-.001-16.53 2.335-24.289h45.079c-2.207 5.441-3.301 14.43-3.301 27.004v50.133c0 30.453-9.524 48.644-28.563 54.609q14.76 5.436 22.535 20.399 7.777 14.965 7.778 37.718v19.817c0 20.34-6.063 36.109-18.168 47.304-12.117 11.223-29.184 16.817-51.211 16.817zM634.129 316.168v273.801H741.59v-39.051h-63.543v-71.91h60.234v-39.055h-60.234v-84.73h63.543v-39.055zM758.883 316.168v273.801h43.918V316.168zM1041.76 545.859l18.66-128.629h-37.31zm-33.81-229.691 9.32 61.992h48.98l9.13-61.992h45.28l-47.03 273.801h-63.74l-47.218-273.801zM1208.57 544.309c3.56-4.418 5.34-12.766 5.34-25.067v-10.887c0-12.316-1.78-20.71-5.34-25.164-3.57-4.476-10.28-6.703-20.12-6.703h-14.38v74.43h14.38c9.84 0 16.55-2.211 20.12-6.609m-78.41 45.66V316.168h63.34c22.55 0 39.74 5.793 51.59 17.395 11.86 11.585 17.79 28.343 17.79 50.23v18.656c0 14.121-3.18 26.074-9.53 35.86-6.35 9.781-14.96 16.015-25.84 18.75 20.2 8.406 30.32 27.781 30.32 58.097v10.692c0 20.593-5.97 36.418-17.88 47.504-11.93 11.078-29.09 16.617-51.5 16.617zm83.45-159.16c3.57-4.395 5.35-12.766 5.35-25.067v-18.851c0-12.297-1.78-20.668-5.35-25.067-3.56-4.394-10.27-6.601-20.11-6.601h-19.43v82.215h19.43c9.84 0 16.55-2.211 20.11-6.629M1381.27 316.168v273.801h43.91V316.168zM1448.96 316.168v273.801h43.92V474.535l47.41 115.434h45.86l-54.99-119.699 56.93-154.102h-48.38l-46.83 138.934V316.168zM1319.95 355.223v234.746h-43.92V316.168h90v39.055zM946.23 568.215c-12.378 14.512-31.378 21.754-57.027 21.754h-56.746V481.082h-21.855v-29.758h21.855V316.168h56.746c25.649 0 44.649 7.266 57.027 21.773 12.372 14.512 18.559 36.707 18.559 66.637v97.172c0 29.793-6.187 51.953-18.559 66.465m-25.355-163.637c0-18.652-2.238-31.535-6.707-38.664q-6.708-10.692-24.965-10.691h-12.828v96.101h13.57v29.758h-13.57v69.836h12.828q18.257 0 24.965-10.695 6.705-10.693 6.707-38.473z" style="fill:#fff;fill-opacity:1;fill-rule:evenodd;stroke:none" transform="matrix(.13333 0 0 -.13333 0 258.667)" data-source="https://football-logos.cc"></path><path d="M1014.73 1201.91c0-3.69 1.14-6.96 3.01-9.91H889.508c-20.703 0-166.129 26.59-166.129 133.9 0 74.86 61.73 105.1 127.086 137.12 52.89 25.91 107.203 52.97 136.922 104.8 2.836-5.97 6.265-16.29 6.265-33.63 0-40.76-41.398-64.96-85.23-90.59-53.715-31.41-113.465-66.35-113.465-138.72 0-4.73.356-9.68.883-14.75 19.894 80.93 79.015 108.79 136.512 135.67 57.078 26.7 111.808 52.28 111.808 130.36 0 24.26-5.63 53.92-17.76 89.91 74-26.14 102.39-94.95 102.39-134.2 0-74.07-42.55-100.72-83.69-126.49-23.17-14.51-45.323-28.45-59.241-49.85 19.081 18.28 46.361 26.8 75.271 35.63 53.56 16.38 113.69 34.76 113.69 127.52 0 4.52-.5 9.67-.8 14.56 15.81-14.52 49-53.21 49-122.88 0-102.62-90.37-132.34-150.16-152-33.75-11.1-58.13-19.11-58.13-36.45" style="fill:#ee2722;fill-opacity:1;fill-rule:evenodd;stroke:none" transform="matrix(.13333 0 0 -.13333 0 258.667)" data-source="https://football-logos.cc"></path><!-- source: https://football-logos.cc --></svg>