<svg xmlns="http://www.w3.org/2000/svg" viewBox="0 0 275 387.19"><!-- Source: https://football-logos.cc --><path fill="#fff" d="m136.436 387.188-2.807-3.581c-4.84-6.243-24.926-18.246-52.755-34.896-9.679-5.808-20.667-12.39-32.427-19.553-24.973-15.245-36.782-34.847-42.348-48.593C.048 265.563 0 254.14 0 253.704v-97.425l4.259-.048c15.632-.146 28.361-13.02 28.361-28.701 0-15.632-12.729-28.507-28.361-28.652L0 98.83V0h275v253.704c0 .436-.049 11.858-6.098 26.861-5.518 13.746-17.376 33.348-42.35 48.593-12.729 7.743-24.488 14.761-34.895 20.957-23.812 14.228-41.043 24.488-48.399 31.071l-.193.146z" data-source="https://football-logos.cc"></path><g fill="#404094" data-source="https://football-logos.cc"><path d="M50.286 57.013c-1.307.338-2.372.581-3.194.823-.872.194-1.453.291-1.791.291-.823 0-1.209-.291-1.064-.872 0-.338.097-.774.29-1.258.193-.533.436-.968.678-1.452l1.21-2.759q.436-1.089.871-1.743c.29-.435 1.113-.871 2.517-1.258 1.355-.388 3.194-.678 5.469-.919 2.275-.242 4.356-.388 6.292-.388 8.421 0 14.761 1.404 19.117 4.114 4.356 2.759 6.534 6.485 6.534 11.131 0 5.565-3.388 10.696-10.212 15.294-6.775 4.598-14.713 6.921-23.764 6.921-1.791 0-3.146-.242-3.969-.726-.871-.484-1.936-1.162-3.194-2.081a29 29 0 0 1-3-2.275c-.678-.629-1.017-1.354-1.017-2.226 0-1.017.339-2.469 1.065-4.211s1.355-3.146 1.791-4.211l5.323-12.196zm5.033-.968c2.855.29 5.034.726 6.485 1.209 1.452.533 2.227 1.113 2.227 1.743 0 .484-.145.968-.388 1.549-.193.581-.387 1.016-.483 1.307l-5.372 13.165c3.048-.242 6.243-1.355 9.582-3.437 3.292-2.081 4.937-5.034 4.937-8.905 0-2.129-1.161-3.823-3.582-5.082-2.372-1.259-5.565-1.839-9.631-1.839-.58 0-1.161 0-1.839.097-.629.048-1.258.145-1.936.193M120.754 72.114l9.97 10.841c.436.532.629.968.629 1.403 0 .823-1.354 1.791-4.065 2.807-2.71 1.017-4.792 1.549-6.243 1.549-.968 0-2.033-.629-3.098-1.839-1.065-1.404-1.694-2.227-1.936-2.468l-8.566-10.115-3.533 8.615q-.436 1.089-.871 1.597c-.338.339-1.259.533-2.759.533q-3.267 0-6.825-.581c-2.371-.387-3.582-1.065-3.582-1.984q0-.799 2.469-6.534c1.597-3.775 2.904-6.728 3.92-8.905l4.066-9.244c-1.113.291-2.081.532-2.952.678-.871.145-1.742.193-2.565.193-.629 0-1.064-.145-1.355-.388a1.72 1.72 0 0 1-.387-1.113c.193-.968.678-2.226 1.403-3.872.774-1.597 1.404-2.565 1.937-2.807a5.1 5.1 0 0 1 1.645-.581c.582-.145 1.646-.29 3.098-.533 1.452-.242 3.63-.532 6.534-.822a80 80 0 0 1 8.083-.436c5.469 0 10.164.968 13.987 2.904q5.809 2.904 5.808 7.986c0 3.049-1.355 5.662-3.969 7.696-2.615 2.08-6.244 3.871-10.843 5.42m-16.552-14.811 1.064.097 2.517.339c1.742.193 3.098.436 4.018.727.968.338 1.403.87 1.403 1.693 0 .726-.291 1.646-.823 2.759-.58 1.162-.968 1.888-1.113 2.227l-.29.436c2.468 0 4.791-.532 6.92-1.548 2.178-1.065 3.292-2.372 3.292-3.873 0-1.209-.823-2.129-2.469-2.807-1.646-.628-3.485-.968-5.517-.968s-3.437.048-4.356.193c-.968.097-2.468.339-4.646.725M144.809 84.648c-2.13 0-4.404-.29-6.679-.822q-3.486-.799-3.485-2.468 0-1.017 1.307-4.356a203 203 0 0 1 2.711-6.534c.822-2.227 1.984-4.937 3.484-8.034a713 713 0 0 0 3.533-7.163l2.517-5.082c.483-.92 1.065-1.5 1.742-1.791.629-.29 1.742-.435 3.194-.435 1.646 0 3.242.097 4.839.29 1.55.145 2.905.436 3.971.823 1.111.388 1.644.968 1.644 1.743 0 .436-.193.968-.58 1.742a40 40 0 0 0-1.016 2.033l-7.696 17.859-3.92 9.777q-.654 1.67-1.598 2.033c-.63.24-1.985.385-3.968.385M183.43 57.013l2.662.532c1.743.484 2.953.871 3.631 1.114.677.29 1.015.677 1.015 1.209 0 .581-.193 1.209-.483 1.936-.436.871-.773 1.549-.919 1.936l-3.001 6.825-4.646 11.131c-.388 1.113-.871 1.888-1.354 2.372q-.726.725-2.76.726c-2.273 0-4.597-.146-7.065-.484-2.42-.339-3.679-.968-3.679-1.839q0-.799.727-2.323c.484-1.065.774-1.742.968-2.129l9.438-20.279.34-.678-1.501-.048h-6.195c-1.354 0-2.371-.048-3.146-.097-.775-.048-1.307-.193-1.597-.388-.341-.193-.582-.483-.679-.773-.097-.339-.193-.629-.193-.871 0-.727.29-1.694.872-3.001.531-1.307 1.063-2.178 1.597-2.662q.798-.725 1.596-.871c.582-.097 1.259-.145 2.083-.145l3.338.048 9.246.242 11.228.291 5.421.145c1.112 0 1.888.097 2.371.338.531.243.775.678.775 1.404s-.244 1.5-.631 2.322a77 77 0 0 1-1.112 2.13c-.291.629-.727 1.161-1.21 1.597-.483.387-1.211.628-2.226.628l-2.083-.048-7.453-.29zM214.211 76.082l-3.872 6.002c-.58.774-1.16 1.451-1.742 1.984-.532.483-1.354.726-2.371.726-1.065 0-2.322-.097-3.727-.388a26 26 0 0 1-3.533-.823c-.87-.291-1.549-.629-2.032-.968q-.726-.58-.727-1.451c0-.194.098-.388.291-.678.146-.291.29-.533.436-.678l2.468-3.582c-1.257-.097-1.888-.58-1.888-1.403a8.1 8.1 0 0 1 .679-3.243 12 12 0 0 1 1.742-2.759c.726-.919 1.451-1.404 2.178-1.597.773-.145 1.791-.242 3.145-.242h1.114l.531-.678 12.584-15.487a18.4 18.4 0 0 1 1.936-1.936c.728-.581 1.888-.871 3.582-.871.92 0 1.791.048 2.76.145.918.097 2.468.338 4.597.678 2.179.29 3.484.871 3.922 1.597.435.726.628 1.743.628 3l.29 15.729-.725 12.245c0 1.452-.483 2.468-1.452 2.904-1.018.484-2.712.726-5.18.726-2.273 0-4.017-.193-5.275-.581-1.209-.387-1.839-1.162-1.839-2.468l.146-1.549 1.017-7.89c-.92 1.21-1.694 2.129-2.322 2.662-.679.581-1.646.823-3.002.823h-4.356v.051zm10.454-9.05.485-3.34.967-5.614-3.484 5.372-2.564 3.533zM106.283 18.633h22.65l3.098 6.195-3.533.871c-.581-.871-1.113-1.548-1.646-2.033a9 9 0 0 0-1.887-1.161 9 9 0 0 0-2.323-.581c-.581-.097-1.549-.097-3.001-.097h-3.388v5.13h1.743c.678 0 1.162-.048 1.549-.194a2.2 2.2 0 0 0 .823-.532c.145-.242.242-.629.242-1.113v-1.065h3.533v8.76h-3.533v-1.258c0-.388-.048-.629-.146-.823a1.7 1.7 0 0 0-.483-.533 2.3 2.3 0 0 0-.726-.29 9 9 0 0 0-1.452-.097h-1.549v4.113c0 .484.098.823.194.968.145.194.29.339.581.388.242.097.774.145 1.5.145h1.113v2.71h-13.358v-2.71h.871c1.017 0 1.646-.097 1.937-.29.338-.194.484-.533.484-1.114v-11.18c0-.532-.049-.871-.194-1.016-.097-.193-.29-.29-.581-.387-.29-.098-.823-.146-1.646-.146h-.871zM163.103 18.633h2.76l2.709 6.97-3.678.774c-1.211-1.694-2.323-2.855-3.437-3.533a8.6 8.6 0 0 0-4.839-1.452c-1.259 0-2.47.243-3.533.726-1.114.533-1.984 1.259-2.663 2.227a6.34 6.34 0 0 0-.967 3.437c0 2.033.726 3.727 2.226 5.178s3.437 2.178 5.856 2.178c1.5 0 3.001-.291 4.405-.919 1.79-.774 3.289-1.839 4.597-3.146l3.05 1.598c-1.984 1.936-3.823 3.291-5.421 4.017-2.518 1.162-5.372 1.742-8.471 1.742q-3.848 0-6.969-1.306c-2.13-.871-3.775-2.129-5.034-3.678-1.209-1.597-1.839-3.34-1.839-5.179 0-1.888.582-3.582 1.79-5.131 1.211-1.5 2.905-2.71 4.986-3.582 2.08-.822 4.404-1.258 6.969-1.258s4.89.387 6.825 1.161zM133.918 33.152c1.016 0 1.839.243 2.565.726.726.533 1.064 1.162 1.064 1.839 0 .726-.338 1.355-1.064 1.839-.726.533-1.549.774-2.565.774s-1.887-.242-2.614-.774c-.726-.483-1.064-1.113-1.064-1.839 0-.677.338-1.307 1.064-1.839q1.09-.725 2.614-.726M176.752 33.347c1.016 0 1.839.29 2.564.774.727.532 1.065 1.113 1.065 1.839s-.339 1.355-1.065 1.839c-.726.532-1.549.773-2.564.773-1.018 0-1.888-.242-2.615-.773-.725-.484-1.063-1.114-1.063-1.839 0-.726.339-1.307 1.063-1.839a4.63 4.63 0 0 1 2.615-.774M84.988 100.959h7.501v2.129h-.58c-.388 0-.629.048-.727.097-.145.048-.242.193-.339.29-.048.145-.097.436-.097.823v4.792H88.52l-.581-1.065a9.5 9.5 0 0 1-2.129 1.016c-.774.194-1.5.339-2.323.339-1.403 0-2.662-.339-3.824-1.016-1.113-.678-2.032-1.646-2.71-2.855s-1.017-2.613-1.017-4.114.339-2.855 1.017-4.017c.629-1.21 1.597-2.13 2.758-2.808s2.469-1.017 3.872-1.017a9 9 0 0 1 1.985.243c.677.193 1.258.387 1.742.677l.388-.677h1.549l1.354 5.082-1.984.678c-.678-1.113-1.258-1.888-1.646-2.275-.387-.435-.871-.725-1.354-.968-.533-.193-1.017-.338-1.5-.338-.726 0-1.356.193-1.984.629-.581.387-1.064.968-1.404 1.742-.387.774-.532 1.693-.532 2.807 0 1.209.194 2.226.581 3.146.388.871.871 1.5 1.5 1.936s1.307.678 2.033.678c.533 0 1.064-.145 1.5-.338.483-.194.823-.436.968-.727.193-.242.29-.629.29-1.064v-.533c0-.387-.048-.629-.097-.774s-.193-.242-.338-.29c-.097-.097-.388-.097-.774-.097h-.871v-2.179.048zM107.105 93.796h7.454v2.129h-.629c-.436 0-.726.048-.872.097-.097.097-.193.193-.29.338-.048.146-.048.484-.048.969v6.146c0 .968-.048 1.646-.146 2.082q-.217.943-1.016 1.888c-.532.628-1.209 1.064-2.033 1.403s-1.791.533-2.952.533c-1.21 0-2.227-.242-3.098-.629q-1.306-.653-2.033-1.742c-.483-.726-.726-1.452-.726-2.226 0-.726.194-1.307.629-1.742.387-.484.92-.678 1.549-.678.338 0 .677.049.919.194.29.145.483.339.628.629.194.29.243.629.243.919v.726q0 .58.29 1.161c.145.291.387.484.678.678.339.145.678.242 1.113.242.533 0 .968-.145 1.355-.484.338-.291.58-.678.725-1.21.048-.29.097-.871.097-1.791v-6.389c0-.29 0-.532-.048-.629a.75.75 0 0 0-.29-.387c-.145-.048-.387-.097-.774-.097h-.726v-2.13zM123.852 93.796h7.453v2.129h-.678c-.387 0-.628.048-.773.097-.146.097-.243.193-.291.338s-.097.436-.097.871v8.47c0 .436.048.726.097.872.048.145.097.242.243.29.145.097.387.145.677.145h.823v2.082h-7.453v-2.082h.581c.436 0 .726-.048.871-.097.146-.048.243-.193.291-.29.048-.146.097-.436.097-.823V97.28c0-.435-.048-.773-.097-.919-.048-.145-.145-.242-.339-.338-.097-.048-.338-.097-.726-.097h-.678v-2.13zM140.984 93.796h7.502v2.129h-.677c-.339 0-.582 0-.679.048-.193.048-.29.193-.387.338s-.097.388-.097.726v9.39c.048.048.145.146.241.194s.29.048.582.048c.967 0 1.741-.145 2.371-.388.58-.242 1.112-.677 1.598-1.21.483-.581.87-1.354 1.257-2.323l1.984.677-1.984 5.663h-11.712v-2.082h.726c.292 0 .534-.048.679-.145s.29-.193.339-.338c.097-.146.097-.339.097-.678v-8.664c0-.387 0-.628-.097-.823-.049-.145-.146-.242-.29-.338a1.9 1.9 0 0 0-.631-.097h-.822zM168.861 93.796h3.437l4.599 11.809c.242.629.483 1.017.677 1.162s.532.242 1.065.242v2.082h-7.211v-2.082l.436-.048c.387 0 .677-.048.821-.145.147-.097.244-.242.244-.387s-.049-.387-.193-.823l-.485-1.355h-4.646l-.533 1.549c-.146.291-.193.532-.193.629s.048.242.097.339c.097.097.241.145.437.193.097.048.483.048 1.016.048v2.13h-5.904v-2.13c.387 0 .677-.048.822-.097q.289-.145.437-.29c.097-.146.241-.388.387-.775l4.742-12.051zm-.434 8.228h3.05l-1.501-4.163zM187.545 93.796h6.194l4.502 8.954v-5.47c0-.483 0-.773-.049-.871-.097-.193-.195-.338-.34-.387-.097-.097-.339-.097-.677-.097h-.774v-2.129h6.34v2.129h-.726c-.339 0-.582.048-.727.097-.146.097-.29.193-.339.338-.048.146-.048.436-.048.919v11.81h-3.195l-5.662-11.277v7.889c0 .484.048.726.097.872a.43.43 0 0 0 .29.29c.146.097.389.097.727.097h.726v2.13h-6.339v-2.13h.677c.338 0 .629 0 .726-.048a1.1 1.1 0 0 0 .34-.338c.097-.146.097-.388.097-.727v-8.76c0-.338 0-.58-.097-.726-.049-.145-.146-.29-.292-.338-.145-.097-.339-.097-.629-.097h-.821v-2.13z"></path><path d="m136.436 387.188-2.807-3.581c-4.84-6.243-24.926-18.246-52.755-34.896-9.679-5.808-20.667-12.39-32.427-19.553-24.973-15.245-36.782-34.847-42.348-48.593C.048 265.563 0 254.14 0 253.704v-97.425l4.259-.048c15.632-.146 28.361-13.02 28.361-28.701 0-15.632-12.729-28.507-28.361-28.652L0 98.83V0h275v253.704c0 .436-.049 11.858-6.098 26.861-5.518 13.746-17.376 33.348-42.35 48.593-12.729 7.743-24.488 14.761-34.895 20.957-23.812 14.228-41.043 24.488-48.399 31.071l-.193.146zM8.614 164.555v89.149c0 .097.098 10.503 5.615 24.007 7.405 18.102 20.423 32.911 38.718 44.091 11.713 7.163 22.7 13.745 32.379 19.553 26.475 15.825 43.898 26.279 51.932 33.636l.145-.145c7.937-7.115 25.506-17.616 49.852-32.137 10.404-6.146 22.166-13.164 34.798-20.907 43.849-26.765 44.332-67.711 44.332-68.098V8.614H8.614v81.939c8.277 1.017 15.875 4.743 21.829 10.745 6.969 7.066 10.792 16.359 10.792 26.232 0 9.922-3.823 19.214-10.792 26.28-5.953 6.002-13.552 9.729-21.829 10.745"></path><path d="m149.066 215.712-14.663-10.793 5.613-17.424h18.149l5.616 17.424zM189.964 227.279l-10.793 1.209-.29-17.615 9.921-9.439 8.422 8.567zM183.866 177.235l-15.053-3.098-8.905-12.196 8.663-7.695 17.28 11.906zM131.741 174.041l-14.568 2.758-4.211-9.97 16.455-12.535 9.922 5.856zM119.254 226.602l-11.229-.243-7.84-18.101 9.147-8.275 9.68 10.646zM161.698 247.026l-20.085.823-5.032-8.471 13.261-6.871 15.293 4.79zM140.743 257.093h-2.032l-15.634 79.663h13.165zM153.762 256.174h-3.824l-2.371 81.164 16.214-2.324zM162.957 254.77l-2.467.822 20.326 75.066 14.182-7.356zM170.169 251.816l-1.114.679 40.656 60.449 12.293-11.906zM178.688 247.896l-1.646 1.598 54.689 39.155 6.873-13.407zM182.946 243.832l-.145 1.597 62.095 14.181 2.517-16.312zM191.513 236.33l-.145 1.598 56.674-14.182-2.42-18.197zM200.128 223.068l.097.92 39.298-36.976-7.743-15.875zM204.436 202.064l.29 1.015 15.875-47.236-13.02-10.454zM198.772 173.267l-3.629-38.236-13.649-6zM185.075 155.939l-18.1-31.749-14.472-1.451zM121.238 124.723l39.01 18.149-24.587-19.94M44.091 293.149h-2.905v-27.2c-.677.969-1.596 1.936-2.71 2.904-1.162 1.016-2.178 1.743-3.049 2.227v-4.113a20 20 0 0 0 4.211-4.115q1.814-2.396 2.613-4.646h1.839v34.943zM51.931 285.116l2.807-.389c.243 1.936.678 3.34 1.355 4.212.678.87 1.5 1.306 2.565 1.306.871 0 1.646-.29 2.323-.919.678-.58 1.21-1.404 1.646-2.42.436-.969.774-2.324 1.064-4.066q.436-2.541.436-5.228v-.821c-.581 1.355-1.355 2.468-2.372 3.291-1.017.87-2.081 1.259-3.242 1.259-1.937 0-3.63-1.017-4.986-3.098-1.354-2.13-1.984-4.889-1.984-8.277 0-3.437.678-6.388 2.081-8.517 1.404-2.18 3.195-3.243 5.324-3.243 1.549 0 2.904.629 4.211 1.839 1.258 1.209 2.226 2.951 2.904 5.18.629 2.273.968 5.565.968 9.823 0 4.259-.338 7.985-.968 10.6-.678 2.661-1.646 4.647-2.952 6.05-1.259 1.355-2.807 2.032-4.549 2.032-1.839 0-3.34-.726-4.501-2.274-1.162-1.5-1.887-3.63-2.082-6.339zm11.858-15.391q0-3.63-1.306-5.808c-1.306-2.178-1.936-2.178-3.195-2.178s-2.419.773-3.387 2.322c-.919 1.55-1.404 3.582-1.404 6.05 0 2.228.436 4.019 1.355 5.372.919 1.404 2.033 2.081 3.339 2.081 1.355 0 2.469-.677 3.34-2.081.823-1.353 1.258-3.291 1.258-5.758M79.131 293.149v-8.325h-10.26v-3.92l10.792-22.553h2.372v22.553h3.146v3.92h-3.146v8.325zm0-12.245v-15.68l-7.405 15.68zM88.376 262.899v-4.113h15.246v3.34c-1.501 2.371-3.001 5.469-4.453 9.39-1.501 3.92-2.614 7.938-3.437 12.052-.581 2.951-.968 6.097-1.113 9.582h-2.953c0-2.758.388-6.05 1.064-9.921.726-3.873 1.694-7.6 3.001-11.229 1.306-3.582 2.71-6.63 4.162-9.1z"></path></g><!-- source: https://football-logos.cc --></svg>