<svg xmlns="http://www.w3.org/2000/svg" xml:space="preserve" id="svg2" x="0" y="0" version="1.1" viewBox="157.89 -25.51 111.46 143.03"><!-- Source: https://football-logos.cc --><style id="style4768" type="text/css" data-source="https://football-logos.cc">.st2{fill:#1b1819}.st3{fill:#a79448}</style><g id="g10" transform="matrix(1.33333 0 0 -1.33333 -19.427 705.253)" data-source="https://football-logos.cc"><g id="g12" transform="scale(.1)"><path id="path7890" d="M1371.3 4810.7c1.9 15.9 6.6 38.9 12 65.5 1.9 9.5 3.9 19.4 6 29.8l609.2 533.6 128.2-160.2-709.4-619.9c-49.6 41.2-54.6 78.2-46 151.2" class="st3" style="fill:#fff"></path><path id="path14" d="M1946.2 4578.6c-86-45.9-169.7-106.4-198.3-127.6-28.6 21.2-112.3 81.7-198.3 127.6-47.7 25.5-83.7 45.9-110.6 64.6l664 580.3c-11.5-27.1-21.6-62.4-21.7-104-.2-88.9 17.9-178.1 31.1-243.2 5.4-26.6 10.1-49.6 12-65.5 13.6-114.3-6.4-140.4-178.2-232.2" style="fill:#f7ee09"></path><path id="path16" d="M1950.4 4580.4c-2-.6-2.6-1.2-3.7-1.8-36.7-19.6-72.9-41.9-105.1-62.6v478.6l106.8 94.4z" class="st2" style="fill:#1b1819"></path><path id="path18" d="M1746.9 4912.9V4451c-18.1 13.5-58.4 43-106.8 74.5v293z" class="st2" style="fill:#1b1819"></path><path id="path20" d="M1545.4 4736.7v-156.2c-44.3 24.6-80.9 44.5-107 62.7z" class="st2" style="fill:#1b1819"></path><path id="path22" d="m2042.3 4633.6-.2 536.6 60.9 53.2c-11.5-27.1-21.6-62.4-21.7-104-.2-88.9 17.9-178.1 31.1-243.2 5.4-26.6 10.1-49.6 12-65.5 10.5-87.9 1.1-123.5-82.1-177.1" class="st2" style="fill:#1b1819"></path><path id="path24" d="M1397.4 4948.5c9.3 52.3 17.2 111.6 17.1 170.9-.2 77.6-35 133.3-49.8 154.5L1500 5443c22.5-10.5 78.6-31.9 125.9-39.9 61.5-10.4 121-10.8 123-10.8 4 0 61.3.5 121.8 10.8 21.4 3.6 44.2 10 65.2 16.8z" class="st2" style="fill:#1b1819"></path><path id="path26" d="m1578.5 4850.1-77.3 88.3c-.5.6-1.3.9-2.3.9-.7 0-1.4-.2-1.9-.7l-15.9-13.9c-1.2-1.1-1.3-3-.3-4.2l29.7-33.9-38.8-33.9-29.7 33.9c-.5.6-1.4 1-2.2 1-.7 0-1.4-.3-1.9-.7L1422 4873c-1.2-1-1.3-3-.3-4.2l77.3-88.3c1-1.1 3.1-1.2 4.2-.3l15.9 13.9c1.2 1.1 1.3 3 .3 4.2l-31 35.4 38.8 33.9 31-35.4c1-1.2 3-1.4 4.2-.3l15.9 13.9c1.1 1.2 1.2 3.1.2 4.3" class="st3" style="fill:#a79448"></path><path id="path28" d="m1602.3 4922.5-9.5 31.6.5.5 30.2-13.5zm81.6 17.6c-.1.9-.8 1.7-1.8 2.2l-120.4 53.2c-.3.1-.7.2-1.2.2-.7 0-1.5-.2-2-.7l-1.3-1.2c-.8-.7-1.1-2-.9-3l36.8-126.3c.4-1.3 1.4-2.1 2.6-2.1.7 0 1.4.3 2.1.8l14.7 12.9c2.8 2.5 2.4 5.4 1.9 7l-4.6 15.1 36.7 32.1 14.3-6.4c1.5-.7 2.6-1 3.6-1 1.2 0 2.3.5 3.6 1.7l14.8 12.9c.9.7 1.3 1.7 1.1 2.6" class="st3" style="fill:#a79448"></path><path id="path30" d="m1759.3 5030.3-20.1 2h-.3c-1.3 0-2.7-1.2-2.9-2.6-1.1-8.2-5.8-16.5-12.4-22.3-6.5-5.7-14.4-8.8-22.9-8.8-10.4 0-20.5 4.6-27.6 12.7-13.6 15.6-12.7 37.7 2.1 50.7.1.1.2.1.3.2.4.3.8.7 1.2 1 .3.3.7.5 1 .8 6.2 4.6 13.9 7.2 21.7 7.2 1-.1 1.9.3 2.5 1 .3.4.4 1 .5 1.5l.9 20.4c.1.9-.2 1.7-.8 2.3-.5.6-1.3.9-2.2.9h-1.7c-16 0-28.8-4.9-41.2-15.8-26.4-23.1-29.1-63.3-6-89.7 12-13.7 29.3-21.6 47.5-21.6 15.4 0 30.3 5.6 42.1 15.9 12.4 10.8 19.6 25 20.9 41 .1 1.5-1.2 3.1-2.6 3.2" class="st3" style="fill:#a79448"></path><path id="path32" d="M1699.4 5070.5h.3z" class="st3" style="fill:#a79448"></path><path id="path34" d="M1867.2 5101.8c-.3 1.4-1.5 2.4-2.9 2.7l-73.1 14.6v.3l-3 66.4c-.2 2.1-2.1 3.4-3.8 3.4-.9 0-1.6-.3-2.3-.9l-16.8-14.7c-.7-.6-1.3-2.2-1.2-3.2l2.8-64-31.4 35.9c-.7.8-1.8 1.3-2.9 1.3-.9 0-1.8-.3-2.5-.9l-15.6-13.7c-1.6-1.4-1.8-3.8-.4-5.4l76.1-87c.7-.8 1.8-1.3 2.9-1.3.9 0 1.8.3 2.5 1l15.6 13.7c.7.7 1.2 1.6 1.3 2.7.1 1-.3 2-.9 2.8l-35.6 40.7 68.7-15.2h.2c.7 0 2 .5 2.7 1.1l18.4 16.1c1.1.8 1.6 2.2 1.2 3.6" class="st3" style="fill:#a79448"></path><path id="path36" d="m1944.1 5170-12.7 14.5c-1 1.2-3 1.3-4.2.3l-37.3-32.6-16.3 18.6 30.7 26.9c1.2 1.1 1.3 3 .3 4.2l-12.7 14.5c-.5.6-1.4 1-2.3 1-.7 0-1.4-.2-1.9-.7l-30.7-26.9-15 17.1 37.3 32.6c.6.5.9 1.2 1 2 0 .8-.2 1.6-.7 2.2l-12.7 14.5c-.6.6-1.4 1-2.3 1-.7 0-1.4-.3-1.9-.7l-55.2-48.3c-1.2-1.1-1.3-3-.3-4.2l77.3-88.3c1-1.2 3-1.3 4.2-.3l55.2 48.3c.6.5 1 1.3 1 2.1-.1.9-.3 1.7-.8 2.2" class="st3" style="fill:#a79448"></path><path id="path38" d="m2049.9 5260-78.6 89.8c-1 1.1-3.1 1.2-4.2.3l-16-14c-1.2-1.1-1.4-2.9-.3-4.1l41.7-47.7-.6-.4h-.2l-97.9 4.6-3.2-2.9c-1.2-1-1.4-2.9-.4-4l78.7-89.6c.5-.6 1.3-1 2.3-1 .7 0 1.4.2 1.9.7l15.9 13.9c1.2 1.1 1.3 3 .3 4.2l-43.8 50.1.6.5h.2l99.1-6.8c.4 0 1.7.5 2 .8l2.1 1.9c.6.5 1 1.3 1 2.1.1.4-.1 1.1-.6 1.6" class="st3" style="fill:#a79448"></path><path id="path40" d="M1531.1 4994.9c-3.3 0-6.4-1.2-8.9-3.4-5.6-4.9-6.1-13.1-1.2-18.6 2.6-2.9 6.3-4.6 10.1-4.6 3.2 0 6.2 1.2 8.6 3.2 2.7 2.3 4.3 5.6 4.5 9.2s-.9 7-3.3 9.7c-2.4 2.9-6 4.5-9.8 4.5" class="st3" style="fill:#a79448"></path><path id="path42" d="M1584.9 5028.9c-2.5 2.8-6.1 4.5-9.9 4.5-3.3 0-6.4-1.2-8.9-3.4-5.6-4.9-6.1-13.1-1.2-18.7 2.6-2.9 6.3-4.6 10.1-4.6 3.2 0 6.2 1.2 8.6 3.2 2.7 2.3 4.3 5.6 4.5 9.2.3 3.7-.8 7.1-3.2 9.8" class="st3" style="fill:#a79448"></path><path id="path44" d="M1520.8 5256c6.4 0 11.5 5 11.5 11.6 0 6.4-6.4 11.1-13 11.1h-13.9V5256Zm-1.7 36.7c6.5 0 11 5.1 11 11.5s-4.5 10.8-11 10.8h-13.6v-22.3zm-30.1 35c0 1.3 1 2.4 2.4 2.4h29.2c15.2 0 26.9-10.2 26.9-23.6 0-9.8-8-17.5-14-20.3 6.8-2.2 16.6-9 16.6-20.8 0-14.3-12.2-24.6-27.8-24.6h-30.8c-1.4 0-2.4 1.1-2.4 2.4v84.5" class="st3" style="fill:#a79448"></path><path id="path46" d="M1568.2 5283.1c0 6.7 5.5 12.2 11.9 12.2 6.7 0 12.2-5.5 12.2-12.2 0-6.4-5.5-11.9-12.2-11.9-6.4.1-11.9 5.5-11.9 11.9" class="st3" style="fill:#a79448"></path><path id="path48" d="M1614.4 5327.7c0 1.7.7 2.5 2.5 2.5h12.4c1.7 0 2.5-.8 2.5-2.5v-35l32.1 36.2c.5.6 1.3 1.3 2.4 1.3h14.5c2.4 0 3.1-1.5 1.4-3.4l-34.4-38.6 36.9-43.9c1.3-1.6.8-3.3-1.7-3.3h-15.6c-1.3 0-2 .5-2.3.9l-33.3 41v-39.5c0-1.7-.8-2.5-2.5-2.5h-12.4c-1.8 0-2.5.8-2.5 2.5z" class="st3" style="fill:#a79448"></path><path id="path50" d="M2112.5 4876.3c5.4-26.6 10.1-49.7 12-65.5 13.5-114.3-6.5-140.3-178.3-232.1-86-45.9-169.7-106.4-198.3-127.6-28.6 21.2-112.3 81.7-198.3 127.6-47.7 25.5-83.7 45.9-110.6 64.6l664 580.2c-11.6-27.1-21.6-62.4-21.7-104-.1-89 18-178.1 31.2-243.2m-741.2-65.6c1.9 15.9 6.6 38.9 12 65.5 1.9 9.5 3.9 19.4 6 29.8l609.2 533.6 128.2-160.2-709.4-619.9c-49.6 41.2-54.6 78.2-46 151.2m-6.6 463.3 135.4 169.1c22.5-10.5 77.6-31.9 124.9-39.9 61.5-10.4 119.9-10.8 122-10.8 4 0 62.3.5 122.8 10.8 21.4 3.6 44.7 10 65.7 16.9l-538.2-471.5c9.3 52.3 17.3 111.6 17.2 170.9-.4 77.6-35 133.2-49.8 154.5m800.3 2.3-160.5 203.6-9.7-4.8c-.7-.4-74.2-36.2-129.5-45.6-59.3-10.1-118.4-10.4-118.4-10.4-4 0-59.5.6-117.4 10.4-55.3 9.4-128.1 45.3-128.8 45.6l-9.6 4.8-160.4-203.6 6.9-8.3c.5-.6 49.9-61.9 50.1-148.6.2-86.2-17.6-173.8-30.6-237.8-5.5-27.2-10.3-50.8-12.9-67.7-8.5-56.8-7.8-105.1 21.8-144.2 28.3-37.3 83.2-71.9 170.4-118.5 103.6-55.4 209-139.5 211.4-142.4 2.4 2.9 107.8 87 211.4 142.4 87.2 46.6 142.1 81.2 170.4 118.5 29.6 39.1 30.3 87.5 21.8 144.2-2.5 16.9-7.4 40.5-12.9 67.7-13 64-30.8 151.6-30.6 237.8.2 86.8 49.6 148.1 50.1 148.6z" class="st3" style="fill:#a79448"></path></g></g><!-- source: https://football-logos.cc --></svg>