<svg xmlns="http://www.w3.org/2000/svg" viewBox="60.33 114.05 659.97 880.14"><!-- Source: https://football-logos.cc --><path d="M91.69 313.065c20.25-49.662 60.25-111.662 110.124-159.873 36.452-35.236 78.728-57.948 125.761-57.948 117.718 0 213.15 134.762 213.15 301s-98.409 301-216.126 301q-8.523-.002-16.868-.623l-1.497-.133c7.662 4.27 14.837 7.739 19.766 12.306 11.9 11.025 14 27.826.35 38.676s-77 16.45-140.7-24.15c-65.67-41.857-117.6-115.151-130.2-174.3-10.813-50.759-16.8-112.352 5.25-178.152 9.492-28.324 20.353-45.99 30.163-55.59z" style="fill:#231f20;fill-opacity:1;fill-rule:nonzero;stroke:none" transform="matrix(1.33333 0 0 -1.33333 -.667 1121.186)" data-source="https://football-logos.cc"></path><path d="M108.584 305.589c22.583-49.67 60.778-103.571 101.953-143.373 37.357-36.112 76.734-54.422 117.038-54.422v.05c110.583 0 200.55 129.376 200.55 288.4 0 77.52-21.854 150.488-61.536 205.464-38.603 53.481-89.03 82.935-141.99 82.935-13.39 0-26.57-1.25-39.437-3.702l-.637-.497c-12.905-13.898-12.075-31.5-7.875-44.1 2.942-8.825 5.775-11.55 2.1-22.575l-1.366-3.673c14.186 9.553 31.053 16.448 50.191 16.448 43.743 0 75.625-36.02 90.737-57.49 18.544-26.348 32.372-59.216 40.51-95.198l.865.16 36.564 6.763 1.349-7.291-4.326-.8q2.479-1.005 4.302-3.166 1.824-2.16 2.368-5.105.95-5.135-2.407-9.461-3.36-4.325-10.54-5.654-7.38-1.365-12.138 1.49-4.755 2.856-5.708 7.994-.45 2.444.15 4.61.605 2.166 2.557 4.796l-10.742-1.987-.641-.09c4.428-22.024 6.75-45.098 6.75-68.47 0-64.77-17.829-127.245-48.913-171.412-15.112-21.47-46.994-57.489-90.737-57.489-43.744 0-75.626 36.02-90.737 57.49-23.344 33.168-39.212 76.664-45.667 123.702l-.12 2.1c-16.792-2.059-33.236 4.549-47.184 17.782-11.067 10.5-21.567 27.65-21.567 27.65h35.35l3.246.014c-6.067 4.768-22.982 19.442-40.346 46.887-5.719 9.04-12.17 22.863-16.067 38.566l-.05-4.356a167 167 0 0 1 .367-16.01c2.45-34.3 6.3-51.098 11.2-76.65 7.478-38.991 9.134-66.215.35-76.3-1.685-1.936-3.903-3.135-6.523-3.46l-1.425-.166z" style="fill:#e2e0de;fill-opacity:1;fill-rule:nonzero;stroke:none" transform="matrix(1.33333 0 0 -1.33333 -.667 1121.186)"></path><path d="M426.55 265.693v263.552l.659-.848c17.644-37.744 27.416-83.559 27.416-130.752 0-47.106-9.735-92.837-27.317-130.542zM370.169 600.038c12.778-8.477 23.309-19.523 31.12-29.285l.436-.56v-345.1l-.673-.855c-7.815-9.721-18.307-20.673-31.017-29.075l-.76-.52v406z" style="fill:#e7373f;fill-opacity:1;fill-rule:nonzero;stroke:none" transform="matrix(1.33333 0 0 -1.33333 -.667 1121.186)"></path><path d="M312 611.98V462l-.016-.444a446 446 0 0 1-1.734 3.113c-23.8 42.35-49.35 68.6-49.35 68.6s1.75 4.55-2.8 12.6c-1.67 2.955-4.755 8.645-9.047 15.202l-1.21 1.721c11.957 16.753 34.456 42.313 64.162 49.32zM312.01 183.175c-30.298 7.144-53.1 33.592-64.868 50.31-22.796 32.391-38.112 75.286-43.961 121.692l2.588.829c16.812 6.726 31.302 19.374 37.631 35.513 9.184 23.418.7 46.2-7.35 59.15s-18.2 23.8-18.2 23.8c5.95 5.25 10.85 8.75 10.85 8.75l83.248-70.631.052-.288V183.334Z" style="fill:#fff;fill-opacity:1;fill-rule:nonzero;stroke:none" transform="matrix(1.33333 0 0 -1.33333 -.667 1121.186)"></path><path d="M312 412.3V183.334l.01-.16a67.6 67.6 0 0 1 15.565-1.83 67.6 67.6 0 0 1 15.722 1.868l1.153.232v428.4l-1.28.263a67.7 67.7 0 0 1-15.595 1.837 67.6 67.6 0 0 1-15.57-1.832l-.005-.132V462l-.016-.444c18.464-33.429 23.466-52.012 23.466-52.012l-11.467-7.167-12.035 10.21z" style="fill:#e7373f;fill-opacity:1;fill-rule:nonzero;stroke:none" transform="matrix(1.33333 0 0 -1.33333 -.667 1121.186)"></path><path d="M201.601 643.031c-2.611-2.823-6.141-2.589-7.875-1.56-5.398 3.202-3.876 6.948-1.512 9.25 3.856 3.722 6.004 5.122 7.808 5.386 2.253.187 4.528-.337 4.878-4.713.35-4.375-.998-5.874-3.299-8.363M224.79 445.065c-3.194-2.006-7.289-4.325-11.892-6.338 4.309-6.394 9.104-14.91 11.615-24.056 1.097-3.997 1.624-8.428 1.624-13.025 0-5.532-.763-11.303-2.215-16.847l-.778-2.853c3.962 4.252 7.057 8.99 9.015 13.982 8.275 21.101-1.7 40.849-6.364 48.366z" style="fill:#d7b17a;fill-opacity:1;fill-rule:nonzero;stroke:none" transform="matrix(1.33333 0 0 -1.33333 -.667 1121.186)"></path><path d="M295.265 450.366c-10.202 4.464-17.087 13.606-28.493 28.754l-11.187 14.636c-10.25 13.078-16.94 15.188-28.985 15.188-14.956 0-30.295-13.524-30.449-13.66l-4.55 5.085s17.149 15.4 35 15.4c14.55 0 23.036-3.36 34.356-17.803C279.1 474.82 286.8 461.52 298 456.62zm-84.08-73.05c5.075 10.158 7.192 24.01 4.215 34.853-3.296 12.007-11.302 23.077-15.511 28.318-1.629 2.027-.496 3.597.589 3.869 6.912 1.735 13.44 5.116 18.15 7.99l1.01 1.003c-8.22 11.26-17.538 21.558-17.538 21.558s9.45 10.5 17.588 16.275c8.137 5.775 12.6 5.25 16.913 1.17 17.87-15.163 63.743-54.082 80.507-68.307-3.738 8.663-9.31 20.339-17.384 34.708-17.872 31.801-36.941 54.404-44.32 62.657-1.974 2.21-5.529 7.834-5.529 7.834.197 2.362-.197 5.464-.406 6.866l-2.1-.812c-13.083-3.536-40.018-12.378-68.058-30.913-23.493-15.529-40.999-32.118-51.338-43.027l-1.997-1.939c1.682-3.387 3.323-6.294 4.778-8.594 2.4-3.794 4.792-7.329 7.143-10.611l1.184 1.887c10.7 25.36 28.72 45.668 28.72 45.668l7.073-6.267c-.116-.13-6.475-7.377-13.672-18.352l1.18-1.708 26.068-29.673-7.1-6.237-23.947 27.26-1.56 1.673c-4.132-7.147-8.108-15.226-10.939-23.617l.062.05c8.177-10.163 15.35-17.044 19.918-21.023l42.143 13.706c.62-2.169 2.337-9.394.585-17.712-2.1-9.975-9.688-16.205-21.787-17.588-9.187-1.05-39.964-2.887-39.964-2.887 2.039-2.43 4.175-4.784 6.317-6.816 9.76-9.26 25.518-19.362 44.536-12.994 6.69 2.238 11.161 5.11 14.47 11.731" style="fill:#d7b17a;fill-opacity:1;fill-rule:nonzero;stroke:none" transform="matrix(1.33333 0 0 -1.33333 -.667 1121.186)" data-source="https://football-logos.cc"></path><path d="M121.752 468.863c-1.8 4.485-3.505 9.42-4.927 14.645l1.474 1.451c9.378 8.213 25.124 20.703 48.57 35.404 32.647 20.468 60.523 29.269 71.404 32.19l1.589.46a196 196 0 0 0 4.954-8.173l-1.762-.91c-14.317-4-40.993-13.179-68.954-31.661-21.807-14.415-38.54-29.61-49.477-40.743ZM114.402 494.374c-.914 5.3-1.454 10.769-1.454 16.262 0 15.399 2.42 31.703 14.602 44.332 38.15 39.551 68.021 35.573 84.13 27.386 8.548-4.344 16.247-12.668 22.358-20.888l-1.565-.706c-13.172-3.8-39.754-13.036-70.623-32.391-20.785-13.032-35.66-24.353-45.581-32.682zm30.21 32.245s-1.312 16.275 2.888 16.8c3.137.392 3.937-4.462 3.937-4.462l8.138.524s1.838 17.588 5.775 17.85c3.563.238 6.563-8.137 6.563-8.137l8.924 3.15s-.525 10.762 2.1 13.65 8.925 1.575 8.925 1.575l1.05 8.4c-16.8 7.35-20.212-13.125-20.212-13.125-13.65 13.912-19.687-9.975-19.687-9.975-2.625 6.563-9.713 15.75-14.438 4.987s-3.412-31.237-3.412-31.237z" style="fill:#d7b17a;fill-opacity:1;fill-rule:nonzero;stroke:none" transform="matrix(1.33333 0 0 -1.33333 -.667 1121.186)"></path><path d="M166.4 596.62c24.15 14.35 44.45 25.698 65.1 18.698 9.191-3.116 21.128-11.219 28.02-16.24l1.965-1.626c-8.662-7.987-15.826-16.47-21.335-23.835l-1.326 1.28c-6.124 7.232-13.429 14.031-21.674 18.222-13.38 6.799-30.762 11.132-52.633 2.13z" style="fill:#e2e0de;fill-opacity:1;fill-rule:nonzero;stroke:none" transform="matrix(1.33333 0 0 -1.33333 -.667 1121.186)"></path><path d="M98.211 522.345c-4.725-15.297-6.425-31.824-6.425-48.077 0-4.214.148-8.419.446-12.597 2.21-30.947 5.508-47.871 9.683-69.297l1.71-8.827c4.683-24.416 6.132-39.854 6.107-49.597-.032-12.43-.732-15.931-2.832-16.63-2.1-.7-5.736 2.704-13.018 13.602-6.34 8.427-13.932 22.158-21.235 43.95-10.62 31.687-14.29 62.254-14.29 90.033 0 31.587 4.747 59.568 9.416 81.49 12.405 58.231 64.828 128.17 124.65 166.299 33.056 21.07 63.646 27.642 83.487 29.446 25.262 2.297 40.066-2.52 42.6-4.534 2.98-2.37 4.549-5.08 4.66-8.055q.009-.176.009-.353c0-3.666-2.125-7.81-5.741-11.161-2.847-2.637-7.763-5.312-12.968-8.145-8.822-4.801-19.8-10.776-29.178-20.874-9.265-9.978-14.048-22.577-14.048-36.19 0-6.643 1.14-13.529 3.453-20.469l1.765-4.877c.958-2.522 1.436-3.78 1.436-5.12 0-1.172-.368-2.407-1.101-4.609-.715-2.144-2.136-4.924-3.447-6.784-7.677 5.393-18.44 13.107-27.804 16.282-20.971 7.109-40.355-.76-59.603-10.576-23.543-12.007-62.62-45.404-77.731-94.33m-16.749-8.666a230 230 0 0 0 3.654 18.696l-9.147 2.534a240 240 0 0 1-3.952-20.357zm-12.07-25.045q-.183-3.345-.293-6.815c-1.4-44.1 9.1-87.5 9.1-87.5l9.185 2.22c-.1.422-10.18 42.748-8.84 84.98q.113 3.537.304 6.94zm19.121 56.188c5.62 18.235 11.506 27.587 11.613 27.755l-7.928 5.142s-6.396-9.78-12.48-29.207zM249 660.67c2.45 11.2 30.45 32.9 32.9 46.9 1.538 8.79-7.7 12.6-15.05 9.8s-16.8-12.95-16.8-12.95c-9.45 21.7-28.7 12.6-30.45 1.75s2.8-32.2 2.8-32.2l9.363-.613c-1.616 7.6-3.9 24.7-2.834 31.308.17 1.056 1.988 3.632 4.49 3.502 8.056-.422 9.106-13.81 9.106-13.81l8.363-2.882 6.072 6.5c2.245 2.4 5.963 5.6 9.071 8.092 4.056 3.253 7.855 4.392 4.512-1.427-2.968-5.167-9.068-11.825-13.78-17.118-7.185-8.07-13.515-15.18-16.11-21.926zm4.139 58.493c.882.629 23.11 15.057 47.923.395l3.588 8.312c-30.8 18.2-57.05-1.05-57.05-1.05zM115.884 602.94c4.219 9.441 11.905 22.845 25.679 38.095 28.147 31.163 68.521 53.474 68.926 53.695l-4.54 8.289s-41.78-22.857-71.4-55.65c-29.4-32.55-32.899-57.4-32.899-57.4l7.875-4.55s8.589 5.632 11.07 6.92c20.268 10.522 44.68 23.608 53.163 31.543 2.977 2.785 6.514 7.854 9.335 12.184l1.081 1.543c1.054-1.644 2.718-3.286 5.326-4.59 6.93-3.465 17.529-1.485 23.1 9.1 3.5 6.65 1.28 19.601-5.25 22.05-8.4 3.15-13.51 1.257-21.7-6.65-10.15-9.8-10.257-19.479-18.2-26.6-8.66-7.766-37.712-23.177-52.79-31.01z" style="fill:#d7b17a;fill-opacity:1;fill-rule:nonzero;stroke:none" transform="matrix(1.33333 0 0 -1.33333 -.667 1121.186)"></path><path d="m295.214 632.408-3.487 41.196 8.303.704 1.374-16.217 16.413 1.389-1.373 16.217 8.305.703 3.487-41.196-8.304-.703-1.522 17.982-16.414-1.39 1.523-17.982zM343.806 653.982l-6.711 2.803q2.108 3.993 5.449 5.405t9.048.172q5.184-1.128 7.454-2.907 2.269-1.778 2.891-3.893.624-2.114-.473-7.16l-2.096-9.016q-.84-3.861-.86-5.776-.02-1.917.562-4.238l-7.632 1.66q-.135.839-.244 2.456-.042.731-.077.972-2.402-1.492-4.873-1.963-2.468-.47-5.031.087-4.52.984-6.591 4.002-2.07 3.018-1.256 6.765.54 2.478 2.145 4.163 1.604 1.684 3.96 2.254t6.538.468q5.638-.159 7.92.267l.169.777q.49 2.247-.409 3.445-.897 1.197-3.963 1.864-2.072.45-3.413-.122t-2.507-2.485m9.021-8.545q-1.59-.173-4.944-.162-3.358.01-4.487-.434-1.741-.744-2.1-2.393-.352-1.621.597-3.065.947-1.445 2.813-1.85 2.082-.454 4.273.51 1.624.74 2.392 2.156.518.924 1.121 3.7zM377.803 654.7l6.107-3.97-2.228-3.427q5.88 1.836 10.43-1.121 2.418-1.572 3.552-3.716 1.135-2.145.972-4.885 2.958.924 5.518.666a10.5 10.5 0 0 0 4.74-1.674q2.77-1.8 3.959-4.173 1.185-2.37.718-5.162-.358-2.056-2.696-5.652l-10.442-16.065-6.658 4.328 9.347 14.38q2.432 3.74 2.455 5.278-.001 2.021-1.916 3.267-1.398.908-3.182.855-1.788-.053-3.4-1.345-1.615-1.293-3.925-4.846l-7.853-12.082-6.658 4.328 8.963 13.788q2.385 3.67 2.725 4.968.338 1.296-.067 2.3-.405 1.007-1.681 1.835-1.537.999-3.304.967-1.767-.03-3.315-1.248-1.548-1.219-3.903-4.843l-7.947-12.223-6.657 4.328zM406.49 595.24l-5.503 5.725 21.623 20.781 5.094-5.3-3.07-2.95q3.48.732 5.207.305 1.725-.429 3.052-1.807 1.87-1.946 2.529-4.785l-6.675-3.002q-.442 2.332-1.625 3.564-1.145 1.19-2.602 1.381t-3.645-.998-7.706-6.494zM427.28 569.45l3.64 2.617q-2.9-.071-5.57 1.293a12.14 12.14 0 0 0-4.397 3.769q-1.76 2.45-2.085 5.171-.323 2.721 1.002 4.991 1.322 2.27 4.76 4.741l15.4 11.068 4.632-6.448-11.183-8.038q-5.133-3.69-6.037-4.875t-.906-2.607q-.005-1.42 1.03-2.859 1.18-1.644 3.02-2.293t3.524-.166q1.685.484 6.911 4.24l10.267 7.379 4.635-6.448-24.354-17.503zM447.443 533.672l-3.651 7.05 13.599 7.043q4.314 2.235 5.347 3.341 1.037 1.106 1.214 2.48.18 1.376-.558 2.8-.945 1.823-2.698 2.752-1.755.929-3.688.608-1.935-.321-6.4-2.633l-12.068-6.25-3.651 7.051 26.632 13.792 3.38-6.527-3.908-2.023q6.293-1.157 9.031-6.446 1.207-2.33 1.368-4.694.158-2.364-.631-4.029a8.8 8.8 0 0 0-2.244-2.909q-1.454-1.245-4.536-2.841zM468.663 517.585l3.108-7.562q-3.712-1.885-4.903-4.585-1.192-2.7-.093-6.34 1.166-3.857 3.393-5.318 2.228-1.46 4.42-.798 1.407.425 2.147 1.544.74 1.12.853 3.384.063 1.545-.194 6.9-.339 6.884 1.205 10.168 2.167 4.62 6.867 6.038 3.022.915 6.172 0 3.147-.913 5.498-3.714 2.348-2.799 3.722-7.35 2.244-7.428.109-12.17-2.136-4.743-7.537-6.58l-2.725 7.883q2.893 1.43 3.722 3.51.829 2.077-.183 5.427-1.045 3.458-3.065 4.982-1.301.983-2.838.517-1.405-.424-2.045-1.907-.815-1.887-.443-8.107t-.269-9.445q-.641-3.228-2.731-5.575-2.092-2.346-5.865-3.487-3.424-1.032-6.981-.047-3.557.987-6.054 4.002-2.495 3.015-4.054 8.168-2.265 7.502.018 12.58 2.284 5.077 8.746 7.882M493.927 436.7l.681 7.241q4.44-.827 6.782-3.596t2.852-8.59q.462-5.283-.56-7.98-1.025-2.696-2.858-3.919t-6.977-1.674l-9.233-.678q-3.935-.346-5.77-.895-1.836-.55-3.88-1.796l-.682 7.78q.76.377 2.273.963.685.258.904.363-2.138 1.85-3.321 4.069t-1.412 4.83q-.405 4.61 1.862 7.482 2.266 2.874 6.086 3.21 2.527.22 4.612-.81 2.085-1.032 3.33-3.113 1.242-2.08 2.389-6.103 1.523-5.43 2.61-7.483l.791.07q2.292.201 3.167 1.413.876 1.213.603 4.339-.186 2.113-1.13 3.22-.946 1.11-3.12 1.658m-5.476-11.153q-.64 1.464-1.625 4.673-.987 3.207-1.747 4.154-1.229 1.443-2.909 1.294-1.653-.144-2.75-1.48-1.096-1.334-.93-3.236.186-2.124 1.756-3.928 1.19-1.332 2.77-1.644 1.036-.219 3.866.03zM475.083 401.201l-.092 7.94 29.99.341.082-7.35-4.256-.046q3.037-1.851 4.004-3.344.964-1.494.987-3.407.03-2.7-1.43-5.22l-6.923 2.383q1.274 2.001 1.255 3.71-.02 1.652-.95 2.787-.93 1.139-3.34 1.769c-1.605.422-4.96.6-10.063.543zM504.126 369.106l-6.291.33.285 5.44-12.086.634q-3.67.192-4.284.07a1.74 1.74 0 0 1-1.04-.645q-.425-.526-.464-1.309-.057-1.091.595-3.2l-6.17-.368q-1.036 2.815-.854 6.298.113 2.135.92 3.811.81 1.675 1.993 2.416 1.186.74 3.149.947 1.393.181 5.597-.04l13.06-.684.189 3.604 6.29-.329-.188-3.604 5.964-.313 4.237-8.173-10.617.556zM493.752 356.927l2.19 6.935q4.166-1.743 5.872-4.943 1.706-3.198.982-8.996-.66-5.263-2.229-7.684-1.567-2.42-3.617-3.23t-7.174-.168l-9.168 1.28q-3.92.49-5.83.338-1.91-.15-4.17-.94l.97 7.749q.824.21 2.424.464.725.109.96.164-1.7 2.26-2.39 4.677t-.363 5.02q.573 4.59 3.395 6.922 2.82 2.332 6.625 1.857 2.516-.315 4.338-1.763c1.214-.963 2.08-2.213 2.6-3.742q.776-2.294 1.05-6.47.348-5.629.977-7.865l.79-.097q2.28-.287 3.393.714 1.11 1.002 1.503 4.116.262 2.105-.429 3.386-.69 1.284-2.7 2.276m-7.7-9.75q-.316 1.565-.606 4.91t-.834 4.43q-.898 1.666-2.571 1.876-1.647.206-3-.868t-1.59-2.968q-.264-2.115.89-4.21.884-1.552 2.361-2.19.967-.431 3.786-.785zM463.623 307.284l1.744 7.747 14.94-3.363q4.739-1.065 6.244-.886 1.505.181 2.525 1.118 1.021.939 1.374 2.502.45 2.004-.293 3.842a5.7 5.7 0 0 1-2.431 2.84q-1.688.998-6.592 2.103l-13.259 2.985 1.743 7.746 29.259-6.585-1.614-7.172-4.291.966q4.069-4.934 2.761-10.746-.576-2.557-1.975-4.472-1.4-1.91-3.076-2.677a8.7 8.7 0 0 0-3.59-.782q-1.912-.017-5.298.744zM470.475 299.886l-1.42-7.902q-2.328.253-3.946-.832-1.616-1.082-2.504-3.715c-.65-1.931-.786-3.505-.4-4.721q.416-1.235 1.671-1.66.856-.288 1.598.057.723.384 1.838 2.185 5.075 8.431 7.556 10.307 3.436 2.6 7.53 1.22 3.69-1.244 5.22-5.012 1.527-3.767-.54-9.9-1.97-5.841-4.829-8.039t-6.94-2.014l1.084 7.53q1.81-.102 3.122.877 1.314.979 2.11 3.344 1.005 2.985.613 4.554-.298 1.057-1.233 1.373-.801.27-1.617-.291-1.092-.763-4.48-6.316-3.391-5.552-6.172-7.27-2.797-1.68-6.374-.474-3.9 1.315-5.607 5.511t.441 10.564q1.95 5.782 5.429 8.36 3.48 2.58 7.85 2.264M236.422 311.68h-4.623l-.13-.42c-.567-1.825-1.596-3.461-3.06-4.864-1.484-1.423-2.925-2.42-4.286-2.962l-.374-.15v-7.06l.817.33c2.184.879 4.12 2.287 5.876 4.007v-23.213h6.375v34.332zM245.13 308.482c-1.754-2.088-2.642-4.972-2.642-8.57 0-3.372.844-6.124 2.508-8.183 1.695-2.096 3.689-3.16 5.925-3.16 1.092 0 2.1.263 2.999.78.405.232.787.53 1.155.867-.235-2.63-.624-4.479-1.178-5.411-.616-1.037-1.363-1.541-2.285-1.541-.855 0-2.023.325-2.293 3.137l-.059.61-6.321-.81.079-.593c.39-2.927 1.308-5.141 2.725-6.58 1.44-1.464 3.286-2.206 5.486-2.206 3.139 0 5.723 1.425 7.68 4.234 1.913 2.74 2.882 7.249 2.882 13.397 0 6.042-.932 10.455-2.768 13.115-1.883 2.728-4.325 4.112-7.256 4.112-2.624 0-4.857-1.076-6.637-3.198m4.6-12.84c-.619.876-.933 2.32-.933 4.298 0 1.98.285 3.39.845 4.19.522.746 1.144 1.108 1.9 1.108.789 0 1.496-.458 2.16-1.4.702-.993 1.057-2.47 1.057-4.388 0-1.737-.311-3.037-.926-3.865-.581-.784-1.242-1.164-2.021-1.164-.819 0-1.5.398-2.082 1.22M268.558 307.663c-1.701-2.616-2.528-6.986-2.528-13.355 0-6.493.827-10.91 2.53-13.504 1.73-2.643 4.042-3.982 6.87-3.982 2.814 0 5.118 1.352 6.85 4.016 1.701 2.619 2.528 7.003 2.528 13.401 0 6.414-.827 10.805-2.528 13.424-1.732 2.665-4.044 4.017-6.872 4.017-2.814 0-5.119-1.352-6.85-4.017m4.966-22.738c-.568 1.255-.857 4.388-.857 9.314s.289 8.066.857 9.33c.752 1.67 1.613 1.67 1.895 1.67.288 0 1.164 0 1.905-1.67.562-1.264.847-4.403.847-9.33 0-4.91-.285-8.042-.847-9.306-.741-1.67-1.617-1.67-1.905-1.67-.283 0-1.144 0-1.895 1.662M306.172 311.155h-18.379v-7.097h11.36c-2.213-3.578-4.031-7.56-5.374-11.897-1.456-4.704-2.256-9.482-2.377-14.202l-.015-.611h6.193v.595c0 2.967.412 6.32 1.222 9.964.811 3.652 1.973 7.116 3.452 10.299 1.477 3.18 2.95 5.661 4.376 7.37l.138.167v5.412zM236.025 359.985h-5.604l-9.331-33.346h6.343l1.914 7.283h8.447l2.009-7.283h6.358l-9.689 33.346zm-2.554-10.38 2.493-9.043h-4.871c.28 1.06 1.678 6.381 2.378 9.042M254.257 335.454h-5.613v-8.695h6.274v8.695zM260.496 359.985h-.595V326.64h9.442c1.986 0 3.646.327 4.933.972 1.291.649 2.406 1.623 3.312 2.896.892 1.254 1.633 2.96 2.204 5.07.568 2.099.855 4.591.855 7.406 0 3.119-.273 5.774-.814 7.89-.545 2.137-1.314 3.91-2.285 5.267-.983 1.375-2.086 2.37-3.275 2.962-1.201.594-2.897.883-5.182.883zm6.856-6.637c2.267 0 3.236-.142 3.65-.262.762-.216 1.393-.656 1.932-1.348.554-.713.973-1.721 1.244-3 .28-1.325.423-3.177.423-5.504 0-2.239-.14-4.063-.415-5.42-.268-1.32-.6-2.285-.986-2.866a3.45 3.45 0 0 0-1.426-1.247c-.593-.282-1.612-.425-3.028-.425h-2.93v20.072zM290.517 335.454h-5.615v-8.695h6.275v8.695z" style="fill:#231f20;fill-opacity:1;fill-rule:nonzero;stroke:none" transform="matrix(1.33333 0 0 -1.33333 -.667 1121.186)"></path><path d="M483.444 470.469q-4.968-.919-6.977-3.329-2.009-2.409-1.484-5.24.503-2.72 3.014-4.121 2.513-1.401 7.48-.482 4.635.858 6.54 3.133 1.903 2.275 1.396 5.023-.53 2.859-3.084 4.339-2.556 1.477-6.885.677" style="fill:#e2e0de;fill-opacity:1;fill-rule:nonzero;stroke:none" transform="matrix(1.33333 0 0 -1.33333 -.667 1121.186)"></path><path d="m439.26 245.08 35.188-21.703-14.916-24.186-5.977 3.686 10.542 17.092-8.267 5.1-9.095-14.747-5.976 3.687 9.094 14.744-14.97 9.232zM434.464 208.502q2.987-2.58 4.51-6.472 1.52-3.89.657-7.867-.864-3.977-3.745-7.314-4.454-5.154-10.637-5.565-6.186-.41-11.286 3.996-5.145 4.442-5.654 10.69-.512 6.248 3.847 11.295 2.697 3.123 6.553 4.74 3.855 1.619 7.853.744 3.995-.873 7.902-4.247m-5.639-5.883q-3.384 2.921-6.568 2.867-3.187-.055-5.224-2.414-2.036-2.357-1.617-5.508t3.843-6.108q3.34-2.881 6.517-2.838 3.179.044 5.213 2.403c1.358 1.57 1.9 3.412 1.628 5.518q-.411 3.16-3.792 6.08M410.769 181.581q2.422-3.116 3.149-7.23t-.902-7.844-5.11-6.435q-5.379-4.18-11.523-3.364-6.147.815-10.28 6.135-4.173 5.368-3.444 11.594t5.994 10.318a17.46 17.46 0 0 0 7.358 3.358q4.098.831 7.845-.813t6.913-5.719m-6.685-4.658q-2.743 3.53-5.877 4.101-3.135.573-5.597-1.34-2.46-1.91-2.668-5.081-.21-3.17 2.568-6.745 2.707-3.482 5.832-4.064 3.123-.582 5.584 1.33 2.46 1.913 2.68 5.09.22 3.181-2.522 6.709M374.306 140.576l-2.807 5.642 4.876 2.426-5.392 10.834q-1.638 3.29-2.046 3.766-.41.477-1.074.586-.666.113-1.367-.238-.978-.485-2.494-2.091l-3.353 5.19q1.939 2.287 5.063 3.841 1.913.953 3.77 1.073 1.858.12 3.084-.547 1.227-.667 2.372-2.275.843-1.125 2.72-4.894l5.825-11.707 3.233 1.608 2.805-5.64-3.23-1.607 2.66-5.347-5.032-7.71-4.736 9.518zM359.013 165.932l8.866-40.382-7.756-1.703-3.19 14.524q-2.685-4.862-7.591-5.94-5.345-1.173-9.696 1.928-4.348 3.102-5.938 10.346c-1.098 4.996-.749 9.105 1.038 12.326q2.686 4.834 7.788 5.954 2.51.552 5.225-.155 2.716-.708 5.017-2.771l-.942 4.296zm-4.272-16.955q-1.001 4.556-2.92 6.422-2.7 2.65-6.05 1.914-2.574-.566-3.907-3.159-1.33-2.595-.293-7.317 1.104-5.028 3.42-6.85 2.315-1.82 5.166-1.195 2.796.614 4.174 3.188 1.38 2.578.41 6.997M319.717 140.092l6.957-2.123q-1.702-4.182-4.886-5.92-3.182-1.737-8.986-1.069-5.27.608-7.704 2.15-2.435 1.546-3.266 3.588t-.24 7.172l1.191 9.18q.452 3.925.28 5.832-.168 1.91-.979 4.162l7.758-.893q.218-.823.488-2.42.116-.724.174-.96 2.243 1.723 4.653 2.437t5.015.414c3.065-.354 5.383-1.461 6.956-3.329q2.36-2.797 1.922-6.605-.29-2.52-1.72-4.356-1.428-1.835-3.718-2.637-2.287-.8-6.458-1.114-5.626-.402-7.854-1.053l-.092-.79q-.262-2.284.748-3.387 1.014-1.1 4.13-1.462 2.107-.242 3.383.462 1.276.703 2.248 2.72m-9.825 7.607q1.563.33 4.904.653 3.342.322 4.42.877 1.66.915 1.853 2.59.189 1.649-.897 2.992-1.088 1.342-2.985 1.56-2.118.244-4.2-.932-1.543-.897-2.167-2.383-.421-.97-.747-3.791zM299.251 164.943 285.371 126l-7.48 2.666 13.881 38.944zM286.08 170.108l-19.014-36.712-7.05 3.65 19.012 36.714zM232.17 192.2l-4.012 7.435q6.114 3.564 11.531 2.89 5.418-.678 10.177-5.35 5.89-5.782 5.73-13.528-.158-7.748-7.012-14.726-7.247-7.381-15.067-7.726t-14.03 5.752q-5.421 5.324-5.656 11.859-.152 3.878 2.33 8.42l7.278-4.387q-1.732-2.815-1.375-5.783.36-2.967 2.74-5.305 3.291-3.23 7.657-2.884 4.365.348 9.553 5.633 5.506 5.607 5.82 9.974.311 4.365-2.926 7.545-2.387 2.344-5.594 2.52-3.204.175-7.144-2.339M234.618 213.116l-32.888-25.054-4.813 6.317 32.89 25.054zM215.595 241.484l-3.845-2.305q2.897-.172 5.444-1.75a12.16 12.16 0 0 0 4.07-4.12q1.55-2.59 1.647-5.329t-1.411-4.89q-1.507-2.153-5.137-4.33L200.1 209.01l-4.083 6.81 11.811 7.082q5.423 3.25 6.42 4.358 1 1.108 1.12 2.521.123 1.418-.788 2.935-1.041 1.736-2.82 2.537-1.78.799-3.5.458-1.719-.344-7.238-3.653l-10.844-6.501-4.083 6.81 25.721 15.423zM209.148 253.076l-37.921-16.47-3.163 7.284 13.64 5.923q-5.289 1.701-7.29 6.308-2.18 5.02.026 9.885 2.208 4.865 9.01 7.82 7.037 3.055 12.296 1.35 5.26-1.704 7.34-6.495 1.025-2.358.853-5.158-.17-2.8-1.753-5.459l4.035 1.753zm-17.461.93q4.281 1.858 5.742 4.098 2.082 3.162.715 6.307-1.05 2.418-3.851 3.226-2.803.808-7.238-1.12-4.72-2.051-6.063-4.672-1.343-2.623-.18-5.3 1.14-2.627 3.933-3.484t6.942.945" style="fill:#231f20;fill-opacity:1;fill-rule:nonzero;stroke:none" transform="matrix(1.33333 0 0 -1.33333 -.667 1121.186)" data-source="https://football-logos.cc"></path><!-- source: https://football-logos.cc --></svg>