<svg xmlns="http://www.w3.org/2000/svg" viewBox="0 0 58.96 79.38"><!-- Source: https://football-logos.cc --><path d="M71.82 115.95v55.547h35.769l.201-.201 4.502-4.51.483-.475-.483-.474-4.502-4.51-.201-.194H82.19V115.95zm0 0" style="fill:#282b63;fill-opacity:1;fill-rule:nonzero;stroke:none;stroke-width:2.05820179" transform="translate(-71.82 -115.95)" data-source="https://football-logos.cc"></path><path d="m101.913 116.552-3.795 3.779v.006L84.595 133.86l-.482.474.482.475 13.523 13.515v.006l18.001 17.977-14.359 14.35-3.642-3.625v-.006l-3.023-3.015-.193-.201H80.253l1.15 1.15 16.715 16.73 3.167 3.16.475.474.482-.474 28.06-28.059.474-.483-.475-.474-31.516-31.5 3.602-3.602 10.588 10.573.475.474.466-.474 6.392-6.368.474-.482-.474-.475-17.447-17.43-.474-.474zm0 0" style="fill:#282b63;fill-opacity:1;fill-rule:nonzero;stroke:none;stroke-width:2.05820179" transform="translate(-71.82 -115.95)" data-source="https://football-logos.cc"></path><!-- source: https://football-logos.cc --></svg>