<svg xmlns="http://www.w3.org/2000/svg" xmlns:xlink="http://www.w3.org/1999/xlink" viewBox="0 0 190.5 190.5"><!-- Source: https://football-logos.cc --><g transform="matrix(.70413 0 0 .70413 -5.352 -5.352)" data-source="https://football-logos.cc"><circle cx="142.875" cy="142.875" r="135.274" style="display:inline;vector-effect:non-scaling-stroke;fill:#000;stroke:none;stroke-width:.255023;stroke-miterlimit:3;-inkscape-stroke:hairline;paint-order:markers stroke fill"></circle><circle cx="142.875" cy="142.875" r="131.676" style="display:inline;vector-effect:non-scaling-stroke;fill:#fff;stroke:none;stroke-width:.24824;stroke-miterlimit:3;-inkscape-stroke:hairline;paint-order:markers stroke fill"></circle><circle cx="142.875" cy="142.875" r="100.488" style="display:inline;vector-effect:non-scaling-stroke;fill:#000;stroke:none;stroke-width:.189444;stroke-miterlimit:3;-inkscape-stroke:hairline;paint-order:markers stroke fill"></circle><circle cx="142.875" cy="142.875" r="97.816" style="display:inline;vector-effect:non-scaling-stroke;fill:#fff;stroke:none;stroke-width:.184406;stroke-miterlimit:3;-inkscape-stroke:hairline;paint-order:markers stroke fill"></circle></g><g stroke="#000" style="display:inline" transform="matrix(.67457 0 0 .67692 -77.44 22.536)"><g id="a" fill="#da000c" stroke-linecap="square" style="fill:#fff"><path fill="#000" stroke="none" d="M196.571 116.303h64v43.993h-64z" style="fill:#000"></path><path d="M229.819 153.865H190.75l-8.66 5.7v6.04h47.729M213.469 128.594c5.625 0 10.219 4.689 10.219 10.469v14.78h7.343v-56H190.75v56h12.5v-14.78c0-5.554 4.515-10.47 10.219-10.47z" style="fill:#fff"></path><path fill="#000" stroke="none" d="M204.528 59.962h18.523v33.959h-18.523z" style="fill:#000"></path><path d="M223 88.656h-16.209v-5.75h-11.885v5.75h-8.062v-5.75h-4.813v10.438H223m-36.156-.038h34.97v4.538h-34.97z" style="fill:#fff"></path><path d="M200.719 47.625v35.281h6.072V73.22c0-3.63 2.562-6.6 6.146-6.781.116-.006.227 0 .344 0a6.78 6.78 0 0 1 6.781 6.78v9.688h5.782V47.625ZM198.531 42.844v4.781h29.25v-4.781zM194.781 33.688v9.156h35.094v-9.157h-5.406v4.657h-6.531v-4.657h-9.97v4.657h-6.53v-4.657ZM182.09 159.564H230M261 156.813h-32.437l-9.782 4.718v7.031H261" style="fill:#fff"></path><path stroke-linecap="butt" d="M218.771 161.52H262" style="fill:#fff"></path></g><use xlink:href="#a" style="fill:none" transform="matrix(-1 0 0 1 512 0)"></use><g fill="#da000c"><path fill="#000" stroke="none" d="M240.803 38.351h29.329v53.255h-29.329z"></path><path d="M238.75 38.375v44.563h9.313v-13.22c0-3.048 1.952-7.28 7.937-7.28s7.938 4.232 7.938 7.28v13.22h9.312V38.375Zm15.813 5h2.875v15.25h-2.875zm-8.25 3h2.906v11.156h-2.906zm16.468 0h2.906v11.156h-2.906zM235.594 31.969v6.343h40.812V31.97zM231.75 24.594v7.375h48.5v-7.375h-6.094v4.062h-6.875v-4.062h-7.844v4.062h-6.875v-4.062h-7.843v4.062h-6.875v-4.062zM222.75 97.844v4.594h66.5v-4.594z" style="fill:#fff"></path><path d="M220.031 82.906v14.938h71.938V82.906h-6.813v5.75h-9.062v-5.75h-12.156v5.75h-15.875v-5.75h-12.157v5.75h-9.062v-5.75z" style="fill:#fff"></path><path stroke-linejoin="round" d="M228.688 102.438v54.343h12.843v-20.344c0-9.582 6.397-14.093 14.469-14.093 7.759 0 14.469 4.51 14.469 14.094v20.343h12.844v-54.344Z" style="display:inline;fill:#fff"></path></g></g><g style="display:inline" data-source="https://football-logos.cc"><path d="m-1.902 118.55-.412.588-.412.588v3.0780000000000003l-1.03.982-1.03.982-.425 1.437-.425 1.437v.924l.416.416.415.416h.426l1.458-.645 1.459-.645.615-.864.615-.865-.072-3.449-.073-3.448-.422-.466-.421-.466h-.341ZM-13.045 125.4l-1.654.732-1.653.733-1.25 1.063-1.25 1.063-.532 1.236-.532 1.236-1.232 1.084-1.232 1.084h-.86l-.988.671-.988.671v.775h.354l1.345-.754 1.344-.755 1.438-.473 1.437-.474 1.553-.982 1.553-.982.556-1.123.555-1.122 1.746-.835 1.746-.835v-1.315l-.729-.35zM-34.931 142.098l-.897.608-.897.608-.492.189-.492.188-1.642 1.08-1.642 1.08-.32.51-.319.512.295.55.295.55 1.497-.183 1.497-.184.486-.435.487-.435 1.432-1.902 1.432-1.903v-.833h-.36zM-17.482 138.038l-1.42.608-1.419.608-.702.496-.702.496h-.742l-1.922 1.354-1.922 1.354-.221.583-.222.583-1.28 1.172-1.281 1.171-1.257 1.257-1.258 1.255v1.3250000000000002h.741l1.584-1.19 1.584-1.191h.545l.088-.208.088-.207 2.339-1.68 2.339-1.68 1.551-.482 1.552-.483 1.065-.673 1.066-.673h.548l.45-.943.45-.945-.388-.683-.389-.683-.432-.27z" style="fill:#ee0f11" transform="matrix(.33525 0 0 .33525 116.448 74.06)"></path><path d="m-91.347 62.914-1.21 1.346-1.21 1.346-1.509.718-1.51.717-1.851.616-1.852.615h-.001l-1.474.004-1.474.003-1.278.436-1.277.435-1.614-.29-1.614-.291-2.249-.174-2.25-.173-2.503 1.283-2.505 1.283-1.398 1.42v.001l-1.398 1.42v.482l-.623.987-.624.988-.975 2.91-.976 2.91-.487 1.057-.487 1.059-.674 1.587-.674 1.588-1.209 2.374-1.208 2.374v.396l-.698 1.526h-.001l-.698 1.527-.624.99-.625.989v1.484l-.68 1.975-.678 1.975-.225.926-.225.926-.808 3.043-.809 3.043-.007 1.379-.007 1.38.55 1.47.55 1.47 1.547 2.086 1.547 2.086.389.753.39.753 1.17 1.257 1.17 1.256h3.059l.833.883.834.883.87 1.097.871 1.097 1.246.721 1.246.721.724.805.723.805.004.463.004.463h-1.482l-.25-.231h-.001l-.251-.231-1.522-.147-1.521-.147v.528l.844 1.239.845 1.238.214.088.214.089v.534l1.183 1.762 1.183 1.76 2.628 2.682 2.627 2.683.48.757.48.757 1.507 2.005 1.508 2.005 1.187 1.132 1.186 1.13.662.436.661.436 1.42.977 1.42.976 1.45 1.666 1.452 1.666 2.227 2.315 2.227 2.315.498.157.497.158.39-.324.39-.323-.175-.558-.174-.558-.656-1.456-.656-1.455-.677-1.455-.677-1.455-1.012-1.347-1.012-1.347v-.349h1.66l1.75.284 1.75.284 1.058.267 1.059.267 1.455.678 1.455.678 1.32.888 1.319.887h1.708l.288-.539.29-.54-.536-.867-.536-.867-1.265-1.048-1.266-1.048-.66-.448h-.001l-.66-.448h-.001l-1.224-.867-1.224-.868-.933-.829-.933-.83-.294-.548-.294-.549.522-.28.521-.278 2.194.403 2.194.404 1.059.228 1.058.228 1.904.827 1.903.827h1.851l.24-.343.17-.24.168-.241.24-.343-.67-.7v-.001l-.672-.7-2.737-1.631-2.738-1.631-3.005-1.21-3.004-1.212-1.323-.52-1.323-.52-2.646-1.195-2.646-1.194-1.256-.554-1.257-.555-2.895-3.064-2.895-3.064-1.339-1.798-1.338-1.797v-.263l-1.037-1.379-1.037-1.377-.707-2.465-.706-2.465.16-3.885.16-3.885.147-2.29.147-2.291-.415-1.225-.416-1.224V98.16l.544-1.614.544-1.616.646-.951.647-.952v-.41l1.455-3.05 1.455-3.05v-.601l.352-.418.35-.418.48-1.72.48-1.72.524-1.142.525-1.143.659-.783.659-.783.345.286.344.286-.148 3.52-.147 3.522.167.667.168.667.588.154.588.154.473-.428.472-.428v-.469l.58-.783.578-.783h.639l.16.419.16.418v2.888l-.529 1.038-.529 1.037v1.574l-.247.65-.247.65.145.558.147.558h1.279l.545-.926.547-.926h.657l.307.673.307.674v10.26l-.246.646-.245.645-.17 3.407-.171 3.406.827 2.381.827 2.382.207 1.11.206 1.11.31.375.31.374 1.31.155 1.308.155.608.38.607.381 1.187.386.572.186.572.186 1.187.386.302.715.3.715.89.992.892.992h.835l.171-.684.172-.684-.168-1.763-.169-1.763-.167-2.544-.167-2.543.566-.566.565-.565h1.879l.715.372.714.372.549.62.548.62 1.107 1.903 1.108 1.901 1.122 1.053 1.122 1.053 1.612 1.476.84.771.772.707h.812l.325-.392.326-.392-.194-2.18-.193-2.18-.515-1.462-.134-.382-.381-1.082-.138-.563-.138-.563.584-.41.584-.408.433.149.433.15.674.65.698.675 1.372 1.327.701-.834.702-.834h1.64l.612.575.612.575.002.418.001.416.424.794.425.794.472 1.587.472 1.588.847 1.785.847 1.786.437-.008.438-.008.398-.327.396-.328.397-.656.397-.656.143-3.705.144-3.704.554-1.222.554-1.224.987-1.092.986-1.092h2.258l.756.993.756.992.606.53.606.528.501 2.117.502 2.117.072 2.315.073 2.314h.582l.648-1.08.649-1.08.619-.771.618-.773h1.522l.275.512.274.512v4.6l1.02-.163 1.02-.163.414.46.415.46.153.728.153.728.137.661.137.661h.549l1.6.794 1.599.793h1.585l.742-.793.742-.794h.428l1.73-1.79 1.73-1.79.331-.736.33-.736v-1.468l.43-1.256.427-1.257-.156-1.37-.156-1.371-.249-1.455-.205-1.207-.043-.248-.437-1.026h-.001l-.438-1.025v-.001l.171-1.015.172-1.015.774-1.068.774-1.068h1.09l.483-.259.484-.259.282-.81.282-.808-.247-.652-.248-.651-.205-.002-.205-.002-.572-.858-.571-.858-.319-1.269-.107-.424-.107-.426-.318-1.268.362-.556.362-.556.193-1.044.195-1.045.375-.535.375-.536v-2.566l1.39.085 1.388.085-.092-.524-.092-.525-.503-.706-.504-.708v-1.052l.432-.166.432-.166.825.631.825.63 1.058 1.46 1.059 1.459.857.469.858.47.851 1.745.852 1.745-.029 1.588-.028 1.587-.316 6.833-.317 6.832.177.177.177.177.234-.419.234-.418.559-.638.558-.638-.163 1.191-.162 1.19-.514 1.67-.513 1.669-1.234 2.564-1.234 2.564-.694 1.456-.695 1.455-1.052 1.427-1.052 1.427-1.19 1.171h-.001l-1.19 1.172-2.778 1.32h-.001l-2.778 1.322-.569.314-.568.313h-.001l-1.638 1.151-1.638 1.151-1.894.936-1.894.935-1.455.969-1.455.969-1.873.847-1.874.848h-.365l-1.006.635-1.007.636-4.565 2.126-4.565 2.126h-.001l-1.976 1.488-1.975 1.487-1.245 1.587-1.244 1.587-.583 1.374-.583 1.373-.012.564-.013.563.382.316.382.317.92-.437.92-.437 1.807-1.849 1.807-1.848 2.514-1.47 2.513-1.47 1.976-1.159 1.976-1.16h1.208v.68l-1.39 1.338-1.388 1.337h-.001l-1.28 1.02h-.001l-1.281 1.022-1.126 1.469-1.125 1.47-1.231 3.333-1.232 3.334v.816l.408.156.407.157.539-.327.538-.326 1.196-1.588 1.196-1.587 2.157-2.25 2.158-2.252 1.191-.955 1.19-.955 1.324-.73 1.323-.73 1.72-.48 1.72-.48.206.204.208.205-.157.375-.156.375-2.131 1.587-2.131 1.588-1.202 1.852-1.202 1.852-.892 1.361-.893 1.361-.654 1.61-.654 1.61v1.246l.176.176.177.177h.398l.435-.167.435-.168 2.54-2.937 2.539-2.937 2.263-1.939 2.261-1.937 1.521-.977 1.522-.977 1.548-.992 1.55-.992h.668l1.897-1.02 1.897-1.018 2.25-1.474 2.248-1.474 1.588-1.11 1.587-1.111.605-.552.605-.553 1.168-.673 1.17-.673 3.385-2.104 3.386-2.105 1.19-.972 1.191-.973 3.085-1.481 3.084-1.482.895-.865.896-.865.833-1.72.834-1.72.772-1.72.771-1.72.325-1.373.324-1.374-.174-1.801-.174-1.801-.666-3.572-.666-3.572-.389-1.323-.389-1.323-.301-1.058-.301-1.058-.318-.53-.319-.529-.542-2.249-.542-2.249-.388-2.778-.39-2.778-.156-4.498-.158-4.498-.505-1.984-.505-1.984-.517-1.323-.517-1.323-.303-.662-.303-.661-.884-1.399-.884-1.398-1.028-.876-1.03-.876-1.058-.65-1.058-.652-1.284-.481-1.285-.48-.866-.76-.864-.76-1.687-.776-1.687-.776-2.99-.427-2.989-.427-4.55 2.275-4.552 2.275-1.72 1.156-1.72 1.156-1.135.853-1.136.853-2.449 2.408-2.448 2.407-1.38 1.73-1.379 1.728-.46.834-.46.834-2.72 2.906-2.72 2.907-2.041.994-2.041.996-3.457.117-.117.004-3.34.113-1.475-.722h-.001l-1.475-.723-1.305-1.36-1.305-1.362-.422-.62-.42-.62-1.681-1.761-1.68-1.761-.99-1.218-.989-1.218v-.311l-1.489-2.198-1.49-2.199-.759-.806-.76-.807v-.252l-.002-.251-.872-.95-.871-.947-1.03-1.301-1.03-1.3-1.113-1.191-1.114-1.19-1.334-1.804-1.334-1.803-.442-1.372-.442-1.372-.557-1.19-.557-1.19-.068-.104zm.516 11.129.623.156.623.156.699 1.058.7 1.057v2.092l.793.565.794.565v1.005l-.378.869-.377.868-.416 1.373-.416 1.373v4.3l-.258.481-.257.481-.357.137-.357.137-.278-.445-.278-.445v-.001l-.187-.85v-.001l-.187-.851h-.473l-.443-.854-.441-.855.467-2.3.466-2.298-.825-1.443-.826-1.442v-2.65l.405-.97.406-.97.39-.15zm37.878 2.967h.985l.411.588.412.588-.009.67-.01.668-.328.592-.329.591-1.244 1.393-.588.657-.657.736-.87 1.19-.87 1.19-1.016.5-1.016.499-1.096.105-1.095.105-1.061-.497-1.062-.497-.724-.949-.725-.95v-.281l-1.455-2.256-1.455-2.255v-.982l.519-.47.518-.469.925.174.924.173.872.937.872.936 1.134.672 1.134.672h2.495l.975-.576.974-.575.824-1.283v-.001l.824-1.283.405-.156zm-69.084 11.035.653.297.654.299v3.668l-.86.705-.86.705-.57.972-.571.972-.58 1.084-.58 1.082-.77.455-.77.455-.173-.451v-.001l-.173-.45v-.001l.496-1.218.497-1.22-.057-1.587-.057-1.587.51-.835.51-.834.797-.176.795-.174.167-.758.166-.758.388-.322zm83.99 2.923.264.036.264.036-.085 1.651-.085 1.65-.35 1.455-.35 1.455-.142 2.78-.141 2.78-.789 1.59-.789 1.589-.501.454-.501.454-.581-.407-.58-.407v-1.963l.661-.974.661-.973V99.52l.526-2.25.524-2.25v-.001l.997-2.025zm-41.178 3.24h.966l.322.516.321.515-.288 1.535-.29 1.535-.167 3.154-.168 3.154-.334.111-.335.11-.684-1.492-.683-1.493-.197-2.698-.196-2.698.332-.838.333-.839.534-.286zm-12.408 4.439.719.18.717.18 1.113 1.113 1.112 1.112.178 1.186.178 1.185-.965 2.38-.964 2.38-.188 2.295-.187 2.294.189.705.188.704-.144.375-.143.374h-1.177l-.311-.595-.311-.595-.276-1.323-.275-1.323-.37-3.307-.37-3.308-.013-1.72-.013-1.72.268-.963.268-.963.388-.323zm-25.684.573.297.556.297.555.387 1.486.388 1.486-.134.348-.134.347h-.745l-.29-.35v-.001l-.292-.35-.173-1.861-.173-1.862.286-.177zm106.736 4.435.421.265.423.266.172 1.03.173 1.03.185.945.185.945-1.064 2.627-1.064 2.627-.158.728-.159.728h-.488l-.176-.285-.176-.285.08-2.56.08-2.559-.208-1.47-.209-1.47.299-1.107.298-1.107.693-.174zm-114.093 2.61.001.001.45.281.45.281.297.584.296.583.564.526.564.525v1.997l-.794.76-.794.76.008 1.34.008 1.34.283 1.984.283 1.984.04.503.04.502-.265.082-.264.082h-.003l-.695-.378-.697-.378-.6-1.133-.6-1.132-.355-.661-.355-.662-.002-.612-.002-.613-.298-.556-.298-.557.039-1.609.04-1.609.336-1.304.338-1.304.992-.803zm84.932 6.95.384.319.384.318v1.275l-.409.984-.409.984-1.234 1.256-1.235 1.257h-1.387l-.176-.176-.177-.176v-1.392l1.074-1.046 1.074-1.046.487-1.098.487-1.098.569-.18zm37.84 5.335h.682l.421.466.422.466.073 3.448.072 3.45-.615.864-.615.864-1.459.645-1.458.645h-.426l-.415-.416-.416-.416v-.924l.425-1.437.426-1.437 1.03-.982 1.03-.982v-3.078l.41-.588zm-11.143 6.85.727.349.729.349v1.315l-1.746.835-1.746.835-.555 1.122-.556 1.123-1.553.982-1.553.982-1.437.474-1.438.473-1.344.755-1.345.754h-.354v-.775l.988-.67.988-.672h.86l1.232-1.084 1.232-1.084.532-1.236.531-1.236 1.25-1.063 1.251-1.063 1.653-.733zm-4.437 12.638.433.27.432.27.39.684.387.683-.45.945-.45.943h-.548l-1.066.673-1.065.673-1.552.483-1.551.483-2.339 1.68-2.339 1.679-.088.207-.088.208h-.545l-1.584 1.19-1.584 1.19h-.741v-1.324l1.258-1.255 1.257-1.257 1.28-1.171 1.281-1.172.222-.583.221-.583 1.922-1.354 1.922-1.354h.742l.702-.496.702-.496 1.42-.608zm-17.45 4.06h.721v.833l-1.432 1.903-1.432 1.902-.487.435-.486.435-1.497.184-1.497.184-.295-.551-.295-.55.32-.511.319-.511 1.642-1.08 1.642-1.08.492-.188.492-.189.897-.608z" style="fill:#fcf9f8" transform="matrix(.33525 0 0 .33525 116.448 74.06)"></path><path d="m-9.737 104.186-.423-.265-.421-.265-.693.173-.693.174-.298 1.107-.299 1.107.209 1.47.208 1.47-.08 2.56-.08 2.558.176.285v.001l.176.285h.488l.159-.728.158-.728 1.064-2.627 1.064-2.627-.185-.945-.185-.944-.173-1.03zM-39.742 113.215l-.568.18-.569.18-.487 1.099-.487 1.098-1.074 1.046-1.074 1.046v1.392l.177.176.176.176h1.387l1.235-1.257 1.234-1.256.41-.984.408-.984v-1.275l-.384-.318zM-37.519 91.041l-.264-.036-.265-.036-.996 2.025-.997 2.025-.524 2.25v.001l-.526 2.25v2.654l-.661.973-.661.973v1.964l.58.407.58.406.502-.453.501-.455.79-1.589.788-1.59.141-2.779.141-2.78.35-1.455.35-1.455.086-1.65zM-79.225 94.208l-.534.286-.534.286-.333.838v.001l-.332.838.196 2.698.197 2.697.683 1.493.684 1.493.335-.11.334-.112.168-3.153.168-3.154.289-1.535.288-1.535-.321-.515-.322-.516h-.483zM-90.197 99.008l-.717-.18-.719-.18-.389.322-.388.323-.268.963-.268.964.013 1.72.013 1.72.37 3.307.37 3.307.275 1.323.276 1.323.31.595.312.595h1.177l.143-.374.144-.375-.188-.704-.19-.705.188-2.294.188-2.295.964-2.38.965-2.38-.178-1.185-.178-1.186-1.112-1.112zM-90.208 74.2l-.623-.157-.389.15-.389.149-.406.97-.405.97v2.648l.826 1.443.825 1.442-.466 2.3-.467 2.299.441.854.443.855h.473l.187.85v.001l.187.851.278.445v.001l.278.444.357-.137.357-.136.257-.48.258-.481V85.18l.416-1.373.416-1.373.377-.868.378-.87v-1.004l-.794-.565-.793-.565V76.47l-.7-1.057-.7-1.057zM-124.673 106.266l-.992.803-.993.803-.337 1.304-.337 1.304-.04 1.61-.038 1.608.297.557.298.556.002.613.002.612.355.662.355.661.6 1.132.6 1.133.697.378.696.377.263-.08.265-.082-.04-.503-.04-.503-.282-1.984-.283-1.984-.008-1.34-.008-1.34.793-.76.794-.76v-1.998l-.564-.524-.563-.526-.296-.583-.297-.584-.45-.28zM-117.317 99.22l-.286.178-.286.176.173 1.861.173 1.862.291.35.291.35h.745l.134-.346.134-.348-.388-1.486-.387-1.486-.297-.555zM-120.73 88.64l-.654-.297-.653-.298-.388.322-.388.322-.166.758-.166.758h-.001l-.795.175-.796.175-.51.834-.511.835.057 1.587.057 1.588-.496 1.218-.497 1.219.173.451.174.451.77-.455.769-.454.58-1.082.58-1.084.57-.972.571-.972.86-.706.86-.704v-1.834z" style="fill:#ee0f11" transform="matrix(.33525 0 0 .33525 116.448 74.06)"></path><path d="m-102.133-25.143-.53 1.269-.529 1.269-.33 2.314-.329 2.313.31 4.698.311 4.698.39 2.116.392 2.117.419 1.81v.001l.418 1.81-.139 1.497-.139 1.496v.001l-1.327 3.043-1.327 3.042-.485 1.72-.485 1.72.05 4.63.05 4.63.518 2.646.517 2.646.607 2.646.606 2.645-.025 3.308-.024 3.307-.423 2.577-.424 2.577.003 2.185.003 2.186.366 1.375.366 1.375 1.264 2.065 1.263 2.064.772.831.772.83 1.366.74 1.366.74.322.413.322.415.009.687.008.686-.555.504-.557.502-4.831.169-4.831.168-2.088.463-2.087.463-2.513.788-2.514.789-1.19.406-1.191.407-1.72 1.111-1.72 1.11-.699.709-.698.71-1.97 2.969-1.97 2.97-1.29 2.38-1.29 2.382-1.155 2.513-1.155 2.514-.925 2.513-.925 2.514-1.862 5.689-1.86 5.688-1.018 3.077-1.018 3.078-.255 2.082-.255 2.082.215 2.778.215 2.778.804 2.151.803 2.151 1.32 2.612 1.32 2.61v.001l1.806 2.543 1.808 2.544.926 1.262.926 1.263 1.323 1.644 1.323 1.643 2.335 2.753 2.334 2.752.476 1.058.477 1.059.302.943.302.944.082 10.302.081 10.3.592 2.514.593 2.514.843 1.718.843 1.718 1.456 1.457 1.456 1.456 2.513 1.235 2.513 1.236 1.995.41 1.995.409 2.37.271 2.371.272 5.885.002 5.885.002 7.936-.287 7.937-.286.901.298.902.297v.001l.653.986.653.988.124 1.052.124 1.052-.223.996-.222.996-.858 1.782-.857 1.782.011 2.117.013 2.116.445 1.72.446 1.72 1.565 3.175 1.564 3.175.406.961.406.961.313 2.14.313 2.137-.125 3.912-.124 3.912-.697 2.225-.697 2.226-.828 1.479-.829 1.478-2.26 3.44-2.261 3.44-1.24 2.645-1.24 2.646-.759 2.778-.759 2.778-.007 2.484-.006 2.484.746.56.746.558.077.002 2.749.076 2.825.079 2.25-.52 2.248-.52 1.137-.321 1.135-.322.618.58.618.58 2.082.815 2.083.815 1.455.205 1.456.205 1.984-.125 1.984-.125 1.367-.382 1.366-.382.725-.859.726-.86.482-1.058.482-1.058v-3.44l.001-3.439-.28-1.72-.28-1.72-.075-4.63v-.075l-.075-4.556-.49-2.428-.124-.614-.124-.614-.49-2.429-.012-3.163v-.011l-.012-3.175.475-4.101.474-4.102.657-2.116.657-2.117 1.498-2.646 1.498-2.646.883-1.72.882-1.72 1.02-3.042 1.021-3.043.686-2.513.685-2.514.18-.926.179-.926.63-1.256.63-1.257h1.398l2.592 2.63 2.593 2.631 2.386 1.537 2.386 1.536 1.194.753 1.194.752 3.235 1.39 3.235 1.392 1.654.568 1.655.569h.859l.859-.002.926-.556.926-.556.618-.567.618-.568.528-1.158.53-1.159.144-.891.145-.892-.324-1.654-.325-1.654-1.722-3.837-1.723-3.836-1.151-2.381-1.151-2.382-.619-1.085-.619-1.084-1.357-1.826-1.358-1.825-3.128-3.063-3.13-3.062-.991-.597-.993-.598v-.698l1.522-1.304 1.521-1.303 1.455-1.082 1.456-1.081 2.336-1.345 2.336-1.346h.179l2.038-1.205 2.038-1.204 3.209-2.293 3.21-2.292.264-.304.265-.304 1.555-1.127 1.554-1.126 2.765-2.374 2.765-2.374.497-1.16.498-1.16 1.174-3.511 1.174-3.51.153-2.91.154-2.911-.242-3.043-.242-3.043-.314-1.72-.313-1.72-.507-1.555-.508-1.557-.377-2.412-.059-.377-.318-2.036-.5-1.973-.172-.672-.673-2.646-.26-2.91-.26-2.911-.008-3.307-.009-3.308-.622-2.178-.621-2.178-.493-.732-.493-.732-.4-.842-.4-.842-1.604-1.936-1.603-1.937-1.44-.957-1.44-.956-2.645-1.473-2.646-1.472-1.043-.19-1.043-.19-.65-.648-.648-.649.157-2.553.158-2.553.513-2.117.513-2.117.93-2.514.93-2.513 1.253-3.91 1.253-3.91.294-.188.294-.189 1.455-.135 1.455-.135-.086-4.428-.086-4.428.29-2.384.29-2.384.39-1.522.39-1.523.547-1.454.548-1.456.38-1.402.38-1.402v-1.9l-1.448-1.649-1.448-1.65-1.045-1.951-1.045-1.952-.857-2.91-.856-2.91V.942l.848-3.44.846-3.44.498-2.38.498-2.382.318-2.513.319-2.514.124-1.264.125-1.265-.313-.377-.313-.377-.525.319-.525.319-1.968 2.44-1.97 2.439-2.444 2.565-2.445 2.565-1.856 1.478-1.856 1.477-1.229.648-1.228.648-.412-.342-.413-.343-.98-1.76-.98-1.761-1.378-1.852-1.379-1.852-1.056-1.08-1.056-1.078-1.158-.944-1.159-.944-2.91-1.467-2.91-1.468-2.117-.693-2.117-.694-3.572-.541-3.572-.54-5.58.161-5.581.162-2.49.554-2.488.555-.662.129-.661.128-1.259.396-1.258.395-1.255.664-1.255.664-2.382 1.342-2.381 1.342-1.93 1.174-1.932 1.174-1.885 1.43-1.886 1.427-1.078-.003-1.079-.003-2.171-1.41-2.172-1.409-2.273-2.063-2.272-2.064-1.642-1.992-.9-1.093-.74-.9-1.33-2.136-1.33-2.135-.418-.081zm55.465 7.917 2.326.792 2.325.792 1.034.176 1.033.176 1.613.765 1.612.766 1.323 1.073 1.323 1.074.762.72.761.722 1.413 1.864 1.413 1.865.934 1.793.935 1.792v.737l-.464.249-.465.248-1.579.292-1.578.292-.348.348-.348.348.168.439.168.438.966.269.966.268 1.272.001 1.273.002 1.902-.276 1.903-.274 1.323-.29 1.323-.292 1.587-.788 1.588-.79 1.72-1.405 1.72-1.406 1.313-1.34 1.313-1.341h.623l-.385 1.389-.385 1.389-.24.53-.242.528-.826 2.514-.827 2.513-.395.926-.395.926-.456.96-.454.959-1.406 2.394-1.405 2.394-.894.867-.894.866-.89-.026-.89-.024-1.557-.806-1.556-.805-2.392-3.257-2.393-3.257-.584-.084-.585-.085v.846l.679 1.646.679 1.646.654 1.323.654 1.323 2.05 2.38 2.05 2.382 1.314.736 1.313.737 1.387-.096 1.386-.097 1.506-1.17 1.506-1.17 2.135-2.836 2.134-2.837.273-.007.265-.007h.007l.472 1.918.473 1.919.831 1.984.832 1.984 1.038 1.72 1.038 1.72.76.869.758.869v.393l-.38.543-.38.542-.656 2.36v.001l-.657 2.36-.398 2.25-.397 2.248-.159 1.985-.159 1.984.243 1.985.243 1.984.188.463.188.463h-.898l-.704-.652-.704-.651-.679-.605-.68-.606-.787-1.058-.786-1.058-.848-1.656-.848-1.656-.238-.46-.24-.462-.41-1.058-.41-1.058-.273-1.455-.271-1.456-.157-1.764-.158-1.765-.424-.163-.426-.163-.416.415-.416.416.063 2.001.062 2 .528 2.224.528 2.223 1.537 3.11 1.536 3.108.982 1.452.982 1.451v.986l-.725 1.627-.001.001-.726 1.627-1.167 2.249-1.168 2.249-1.045 1.984-1.046 1.984-.891 2.757-.288.892-.603 1.866h-.001l-.717.748-.716.749h-.581l-1.436 1.454-1.435 1.453-.937.173-.937.173-1.72.844-1.72.844-1.587.864-1.587.864-3.704 2.412-3.705 2.411-1.134.847-1.134.847-1.65 1.807-1.648 1.808-1.136 1.532-1.136 1.532-1.477 1.454-1.476 1.453-.513.957-.514.957-.617.978-.617.978-1.289 1.323-1.289 1.324-1.521.569-1.521.569-.85-.001-.85-.002-.695-.461-.694-.462-1.87-1.27-1.872-1.272-1-1.375-.999-1.375-.496-.926-.497-.926-.717-.794-.717-.793-.778-1.16-.778-1.16-.756-1.221-.756-1.222-1.102-1.323-1.103-1.323-1.08-1.455-1.081-1.455-1.39-1.323-1.389-1.323-.91-.926-.909-.926-.938-1.656-.937-1.655-.789-2.048-.788-2.049-.58-.794-.578-.794-.632-1.19-.632-1.191-.953-.938-.953-.937-1.985-1.515-1.984-1.515-.947-.257-.946-.258-.734-.823-.734-.824-.466-1.493-.466-1.494-.301-1.26-.3-1.261.004-7.735.006-7.736.38-2.857.38-2.856 1.422-2.832 1.421-2.832 1.02-1.588 1.021-1.587 1.233-1.323 1.232-1.323 2.404-2.865 2.404-2.865 1.077-2.07 1.076-2.07V-.513h-.445l-2.782 2.778-2.781 2.779h-1.868l-1.62-1.732-1.62-1.732-.79-1.563-.789-1.564-.69-1.797-.692-1.799-.632-1.984-.632-1.985-.302-3.117-.302-3.117.17-.17.17-.171.394.51.393.51.925 1.363.924 1.364 2.582 2.429 2.582 2.429 2.25 1.498 2.248 1.5.758.33.758.331h3.09l.659-.3.659-.301 1.24-1.688 1.24-1.69 2.016-1.664 2.016-1.663 1.587-1.066 1.588-1.065 1.322-.685 1.323-.686 1.588-.681 1.587-.682 2.037-.515 2.037-.515 7.676-.301zM-99.482 5.308h1.204l1.336 1.257 1.335 1.257.153.673.154.672-1.548 1.973-1.548 1.973-.848 1.643-.849 1.644v.714l-.344.471-.344.471h-.001l-.313-.377-.313-.378-.4-1.135-.401-1.134.003-1.753.003-1.753.37-1.388.368-1.387.594-1.258.595-1.259.397-.463zm8.135 57.606.068.103.067.103.557 1.19.557 1.19.442 1.373.443 1.372 1.334 1.803 1.333 1.803 1.113 1.19 1.114 1.191 1.03 1.3 1.03 1.302.872.948.871.948.002.252v.252l.76.807.76.806 1.49 2.199 1.489 2.198v.311l.989 1.218.989 1.217 1.68 1.762 1.68 1.76.422.62.421.621 1.305 1.361 1.305 1.361 1.475.723 1.476.722 3.457-.117 3.457-.117 2.04-.996h.001l2.04-.994 2.72-2.907 2.72-2.906.46-.834h.001l.46-.834 1.38-1.729 1.378-1.728h.001l2.448-2.408 2.448-2.408 1.136-.853 1.136-.853 1.72-1.156 1.72-1.156 4.551-2.275 4.551-2.275 2.99.427 2.989.427 1.687.776 1.686.776.866.76.865.76 1.285.48 1.284.48 1.059.652 1.057.651h.001l1.028.876 1.03.876.884 1.398.884 1.398.302.662.303.661.517 1.323.517 1.323.506 1.984.505 1.985.157 4.498.157 4.498.389 2.778.388 2.778.542 2.249.543 2.249.317.529.319.53.301 1.057.301 1.059.39 1.323.389 1.323.665 3.572.666 3.571.174 1.802.175 1.801-.325 1.374-.324 1.373-.773 1.72-.772 1.72-.833 1.72-.833 1.72-.896.865-.895.865-3.084 1.482-3.085 1.481-1.19.973-1.191.972-3.386 2.105-3.386 2.104-1.169.673-1.168.673-.605.553-.605.552-1.587 1.11-1.588 1.111-2.249 1.474-2.249 1.474-1.897 1.019-1.897 1.019h-.669l-1.549.992-1.549.992-1.52.977-1.522.977-2.262 1.937-2.262 1.938-2.54 2.938-2.539 2.937-.435.168-.436.167h-.398l-.176-.177-.176-.176v-1.245l.653-1.61.655-1.61.892-1.362.892-1.36 1.202-1.853 1.202-1.852 2.131-1.588 2.132-1.587.156-.375.156-.375-.207-.205-.207-.204-1.72.48-1.72.48-1.323.73-1.323.73-1.19.955-1.19.955-2.158 2.251-2.158 2.25-1.196 1.588-1.195 1.588-.54.326-.538.327-.408-.157-.407-.156v-.816l1.231-3.334 1.231-3.334 1.126-1.47 1.125-1.468 1.282-1.021 1.28-1.021h.001l1.389-1.337 1.389-1.338v-.68h-1.207l-1.976 1.16-1.976 1.16-2.513 1.47-2.514 1.469-1.807 1.848-1.806 1.85-.921.436-.92.437-.382-.317-.382-.316.012-.563.013-.564.582-1.373.583-1.374 1.245-1.587 1.244-1.587 1.976-1.487 1.976-1.488 4.565-2.126 4.566-2.126 1.006-.636 1.007-.635h.365l1.873-.848 1.873-.847 1.455-.97 1.456-.968 1.894-.935 1.894-.936 1.638-1.15 1.638-1.152.569-.313.569-.314 2.778-1.321 2.778-1.321 1.19-1.172h.001l1.19-1.171 1.052-1.427 1.052-1.427.695-1.455.695-1.456 1.233-2.564 1.234-2.564.514-1.67.513-1.668.163-1.19.162-1.192-.558.638-.558.638-.234.418-.234.419-.177-.177-.177-.177.316-6.832.316-6.833.028-1.587.029-1.588-.851-1.745-.852-1.745-.857-.47-.857-.47h-.001l-1.058-1.458-1.059-1.46-.824-.63-.826-.63-.431.165-.432.166v1.052l.504.707.504.707.091.525.092.524-1.39-.085-1.388-.085v2.566l-.375.535-.375.536-.194 1.045-.194 1.045-.362.556-.362.556.425 1.692.426 1.693.571.858.572.858.205.002.205.002.247.652h.001l.247.651-.282.81-.282.809-.483.26-.485.258h-1.09l-.773 1.068-.774 1.068-.171 1.015-.172 1.015.438 1.026.438 1.025.249 1.456.248 1.455.156 1.37.156 1.371-.428 1.256-.428 1.257v1.468l-.33.737-.331.736-1.73 1.79-1.73 1.79h-.429l-.742.793-.741.794h-1.586l-1.6-.794-1.6-.794h-.548l-.138-.662-.137-.661-.153-.728-.153-.727-.414-.46-.415-.46-1.02.163-1.02.163v-4.6l-.274-.512-.273-.512h-1.522l-.619.772-.619.773-.648 1.08-.649 1.08h-.582l-.073-2.316-.073-2.315-.501-2.117-.502-2.116-.605-.53-.606-.528-.756-.992-.757-.993h-2.256l-.987 1.092-.986 1.093-.555 1.222-.554 1.224-.143 3.704-.144 3.704-.397.656-.397.656-.397.328-.397.327-.438.008-.437.008h-.001l-.847-1.786-.846-1.786-.473-1.587-.472-1.588-.424-.793-.424-.794-.002-.417-.002-.417-.612-.575-.612-.576h-1.639l-.701.835-.702.834-1.373-1.326-1.372-1.327-.432-.15-.433-.148-.584.409-.584.409.138.563.138.563.515 1.463.515 1.463.193 2.18.194 2.18-.325.393-.325.39h-.814l-1.612-1.476-1.61-1.477-1.123-1.053-1.123-1.053-1.107-1.902-1.108-1.902-.548-.62-.548-.62-.714-.372-.715-.372h-1.879l-.565.566-.566.565.167 2.544.167 2.543.169 1.763.168 1.763-.171.684-.172.684h-.836l-.89-.992-.89-.992-.302-.715-.3-.715-1.76-.572-1.759-.572-.607-.38-.607-.38-1.31-.156-1.308-.155-.31-.374-.311-.375-.207-1.11-.206-1.11-.828-2.382-.827-2.381.17-3.407.172-3.406.245-.646.245-.646V93.44l-.307-.674-.307-.674h-.656l-.546.926-.547.926h-1.279l-.146-.557-.146-.558.247-.65.247-.65v-1.574l.53-1.038.529-1.037v-2.888l-.16-.419-.161-.418h-.637l-.58.783-.578.783v.469l-.473.428-.473.428-.588-.154-.589-.154-.168-.667-.167-.668.148-3.52.147-3.522-.344-.285-.344-.286-.659.783-.659.783-.525 1.143-.524 1.142-.48 1.72-.48 1.72-.35.418-.352.418v.6l-1.455 3.05-1.455 3.05v.411l-.646.952-.647.951-.544 1.615-.544 1.615v5.555l.415 1.224.416 1.224-.147 2.29-.147 2.292-.16 3.885-.16 3.885.706 2.465.707 2.465 1.037 1.377 1.037 1.378v.263l1.338 1.798 1.339 1.798 2.895 3.064 2.895 3.064 1.256.554 1.257.554 2.646 1.195 2.645 1.194 1.323.52 1.323.521 3.005 1.21 3.004 1.212 2.738 1.63 2.738 1.631.671.7.671.701-.409.584-.409.584h-1.851l-1.904-.826-1.904-.827-1.058-.23-1.058-.228-2.194-.403-2.194-.403-.521.279-.522.279.294.549.294.548.933.83.932.829 1.225.867 1.223.867.662.448.662.448 1.265 1.049 1.265 1.048.536.867.536.867-.29.54-.288.54h-1.709l-1.319-.888-1.32-.888-1.454-.678-1.456-.678-1.058-.267-1.058-.268-1.75-.283-1.75-.284h-1.66v.349l1.012 1.347 1.012 1.347.677 1.455.677 1.455.656 1.455.656 1.456.175.558.174.558-.39.323-.39.324-.498-.158-.497-.158-2.228-2.315-2.227-2.314-1.45-1.666-1.452-1.666-1.42-.976-1.42-.977-.66-.436-.662-.435-1.186-1.132-1.187-1.13h-.001l-1.508-2.006-1.507-2.005-.48-.757-.48-.758-2.627-2.682-2.627-2.682-1.184-1.76-1.183-1.762v-.535l-.214-.088-.213-.088-.845-1.239-.845-1.238v-.528l1.522.147 1.52.147h.001l.252.23.25.232h1.482l-.004-.463-.004-.463-.723-.805-.724-.805-1.245-.721-1.246-.721-.871-1.098-.871-1.096-.834-.883-.833-.883h-3.058l-1.17-1.257-1.171-1.256-.39-.753-.389-.753-1.547-2.086-1.546-2.086-.55-1.47-.55-1.471.006-1.38.007-1.379.81-3.042.807-3.043.225-.926.225-.926.679-1.975.679-1.975v-1.484l.625-.99.625-.989.698-1.527.698-1.527v-.394l1.209-2.375 1.208-2.374.674-1.588.674-1.587.487-1.059.488-1.058.975-2.91.975-2.91.624-.987.623-.987v-.481l1.398-1.421 1.398-1.42 2.505-1.284 2.505-1.283 2.249.173 2.248.174h.001l1.613.29 1.615.29 1.277-.434 1.278-.436 1.474-.003 1.474-.004 1.852-.615 1.852-.616 1.51-.717 1.509-.718 1.21-1.346zm44.162 114.674.164.265.164.266-.17 1.132-.17 1.132-.916.813-.918.812-1.123.4-1.123.4-1.058.093-1.059.093-1.058-.151-1.058-.152-.926-.43-.926-.43-.561-.618-.56-.618-.168-.711-.169-.712.243-.15.242-.15 1.824.384 1.823.384 1.97-.27 1.97-.268.53-.335.529-.335 1.252-.422zm-13.22 4.095.728.58.727.58 1.588.837 1.587.837 3.534.125 3.533.125.342.813.342.813-.226.594-.226.594-.694 1.099-.694 1.1-.406 1.228-.406 1.228-.19 3.572-.19 3.572-.596 1.455-.596 1.455-.204 1.885-.203 1.885-.811 1.687-.811 1.687-.285 1.059-.284 1.058-.001 5.576-.002 5.577-.647.608-.648.609-.176.8-.175.799.941 1.879.942 1.879.642 1.455.642 1.455.484 2.382.483 2.38.013 4.376.013 4.375-.876 1.107-.876 1.107-.976.271-.976.272-1.456-.016-1.455-.015-.562-.227-.563-.228-.563-.79-.563-.792-.365-1.927-.365-1.927-.589-.477-.59-.478h-1.094l-2.177 1.48-2.178 1.478-1.148.016-1.15.017-.576-.184-.577-.185-.166-.76-.167-.76.177-1.014.177-1.013v-.001l.607-1.852.198-.606.408-1.246.305-1.138.306-1.137 1.263-1.396 1.264-1.394v-.001l.83-1.207.83-1.207.563-1.42.404-1.015.16-.403.474-1.588.474-1.587.71-2.646.709-2.646.51-1.699.51-1.698v-4.085l-.691-2.344-.692-2.345-.219-.794-.219-.793-.519-1.486-.519-1.485-.464-.896-.465-.896-.116-2.513-.116-2.514.284-.728.284-.727h.793l.383.727.382.728 1.225 1.19 1.224 1.19.704 1.39.704 1.389h.694l-.17-.727-.168-.728-.657-1.587-.656-1.588-.264-1.058-.265-1.058v-.001l-.635-2.016-.635-2.017v-3.487l.535-1.4.387-1.011.148-.387.169-.223.222-.292z" style="fill:#ee0f11" transform="matrix(.33525 0 0 .33525 116.448 74.06)"></path><path d="m-67.696-9.244-.56.393-.56.392-.7 1.195-.7 1.194-1.6 1.331-1.6 1.332-1.498.765-1.498.764-.835.627-.836.627-1.664 2.238-1.664 2.239-.742 1.384-.742 1.384v1.56l.416.416.416.415h1.3l1.554-.784 1.555-.785 1.513-.14 1.514-.14 1.087-.293 1.088-.292 1.195-.608 1.195-.608 1.752-1.819 1.753-1.819 1.092-2.17 1.091-2.171V-7.85l-.548-.697-.548-.698h-1.113zM-52.385-8.45l-.504.559-.505.559.044 2.76.044 2.759.575 1.894.576 1.894.796 1.158.797 1.157 1.61 1.186 1.61 1.185 1.405.642 1.405.643 1.92.897 1.918.896 1.191.436 1.19.436 1.985.205 1.984.206.73-.238.729-.237.17-.676.17-.676-.605-1.875-.604-1.875-.418-.664-.417-.663-1.431-1.654L-37.45.81h-.476l-1.781-.85-1.78-.85-1.585-1.054L-44.656-3l-1.146-1.057-1.147-1.056-.668-1.14-.668-1.142-.672-.528-.671-.528h-1.379zM-13.274 16.685l-.137.463-.138.463-.41 1.802-.409 1.803v4.371l.426 1.25.426 1.249.863.914.861.914h1.6989999999999998l.75-.75.751-.75.18-1.206.181-1.205-.475-1.021-.475-1.02-.997-1.336-.997-1.336-.423-1.822-.423-1.824-.256-.48-.257-.479h-.37zM-50.046 9.542l-.76.64-.76.64-.685 1.41-.683 1.41-.417 3.176-.418 3.175-.204 3.44-.205 3.439.08 2.223.08 2.224.409 1.022.409 1.021 1.169 1.03 1.169 1.029 1.247.594 1.248.594.794.198.794.197 1.99.027 1.989.027 3.038-.764 3.037-.763 2.337-1.096 2.337-1.096 1.415-1.07 1.415-1.068 1.032-1.37 1.03-1.372.937-1.323.936-1.323.281-.926.282-.926.175-1.131.175-1.133-.316-1.38-.318-1.383-.648-1.009-.65-1.01-.844-.784-.845-.784-1.031-.547-1.032-.547-3.492-.232-3.493-.233-2.222-.819-2.223-.819-1.156-.545-1.157-.545-1.357-.517-1.357-.518-.927-.235-.926-.236-.839-.006zm6.607 6.92.152.395.151.395-.513.709-.513.709-.614 1.323-.614 1.322-.345 1.983-.344 1.983.245 1.294.246 1.294.6 1.087.599 1.088 1.474 1.013 1.474 1.013 1.097.147 1.098.147.273.33.273.328-.708.465-.709.464-1.611.112-1.611.112-.866-.572-.865-.572-1.683-2.55-1.683-2.55-.326-1.023-.326-1.021.114-1.36.115-1.36.943-1.984.943-1.984 1.155-1.23 1.156-1.231.611-.138z" style="fill:#ee0f11" transform="matrix(.33525 0 0 .33525 116.448 74.06)"></path><path d="m-43.44 16.462-.61.138-.612.138-1.156 1.23-1.155 1.23-.943 1.985-.943 1.985-.115 1.36-.114 1.359.326 1.021.326 1.022 1.683 2.55 1.683 2.55.865.573.866.572 1.61-.112 1.612-.112.709-.465.708-.464-.273-.328-.273-.33-1.098-.147-1.097-.147-1.474-1.013-1.474-1.013-.6-1.087-.6-1.087-.245-1.295-.245-1.294.344-1.983.345-1.983.614-1.322.614-1.323.513-.709.513-.708-.151-.396z" style="fill:#fcf9f8" transform="matrix(.33525 0 0 .33525 116.448 74.06)"></path><path d="m-71.809 9.012-.846.439-.847.437-.926.723-.926.724-1.579.576-1.578.577-1.317.25-1.317.25-3.72.542-3.718.543-1.064.507-1.063.506-1.016 1.36-1.015 1.36-.658 1.488-.658 1.488.091 2.016.092 2.015v.001l1.429 2.88 1.43 2.882.65.858.651.858 1.756 1.258 1.756 1.26 1.048.474 1.048.475 2.935.22 2.935.218.912.47.912.47.805.612.806.611.914.412.914.411 1.36-.09 1.361-.09 1.55-.917 1.55-.917.86-1.433.86-1.432v-3.848l-.002-3.849-.41-2.381-.412-2.381-.24-.926-.24-.926-.511-2.779-.512-2.778-.336-1.93-.337-1.93-.8-.782-.798-.782h-.89zm-8.837 7.086 1.257.549 1.257.548v.6l-1.081 1.228-1.081 1.228-.399.93-.398.928-.402 1.322-.402 1.32.144 1.213.144 1.213.803 1.754.803 1.754.678.444.678.444 2.042.484 2.043.485 1.265.009 1.266.009 1.305-.662 1.305-.661h1.076v1.614l-.373.714-.373.715-.751.711-.752.71-.702.266-.704.266-1.28-.924-1.282-.924-.926-.41-.926-.409-.794-.255-.794-.257-2.526-.214-2.527-.215-1.073-.547-1.072-.547-1.37-1.581-1.37-1.582-.783-1.542-.782-1.541-.003-2.08-.003-2.078.82-1.718.82-1.718 1.098-.472 1.098-.473 2.514-.324z" style="fill:#ee0f11" transform="matrix(.33525 0 0 .33525 116.448 74.06)"></path><path d="m-72.533 23.513.64.6.64.602v1.424l-.55.699-.55.698-.519.279-.52.278-.915-.915-.915-.914v-1.04l.533-.677.532-.677.812-.179z" style="fill:#fcf9f8" transform="matrix(.33525 0 0 .33525 116.448 74.06)"></path><path d="m-32.556-10.17-.761-.72-.762-.722-1.323-1.073-1.323-1.074-1.613-.765-1.612-.766-1.034-.176-1.033-.175-2.326-.793-2.325-.792-7.676.301-7.677.302-2.036.515-2.037.515-1.587.681-1.588.682-1.323.685-1.322.686-1.588 1.065-1.587 1.065-2.016 1.664-2.016 1.664-1.24 1.689-1.24 1.688-.66.3-.658.301h-3.09l-.758-.33-.758-.332-2.249-1.498-2.249-1.499-2.582-2.429-2.582-2.428-.924-1.365-.925-1.364-.393-.51-.393-.51-.17.171-.17.17.3 3.118.303 3.117.632 1.985.632 1.984.691 1.799.691 1.797.79 1.564.788 1.563 1.62 1.731 1.62 1.733h1.869l2.781-2.779 2.782-2.778h.445V.862l-1.077 2.07-1.076 2.07-2.404 2.865-1.097 1.307-1.306 1.558-1.233 1.323-1.233 1.323-1.02 1.587-1.02 1.588-1.422 2.832-1.422 2.832-.38 2.856-.38 2.857-.006 7.736-.005 7.735.3 1.26.302 1.26.466 1.495.466 1.493.734.824.734.823.946.257.947.258 1.984 1.514 1.985 1.516.953.937.952.938h.001l.632 1.19.632 1.191.579.794.579.794.788 2.049.789 2.048.938 1.655.937 1.656.91.926.909.926 1.39 1.323 1.389 1.323 1.08 1.455 1.081 1.455 1.103 1.323 1.102 1.323.756 1.222.756 1.221.778 1.16.778 1.16.717.793.717.794.496.926.498.926.999 1.375.999 1.374 1.871 1.272 1.871 1.27.694.462.694.462.85.001.85.002 1.522-.57 1.521-.568 1.29-1.323 1.288-1.324.617-.978.617-.977.514-.958.513-.957 1.476-1.454 1.476-1.453 1.136-1.531 1.137-1.533 1.649-1.807 1.649-1.808 1.134-.847 1.134-.847 3.704-2.412 3.705-2.411 1.587-.864 1.588-.865 1.72-.844 1.72-.844.936-.172.936-.173 1.436-1.453 1.436-1.454h.58l.717-.748.717-.749.892-2.757.891-2.758 1.046-1.984 1.045-1.984 1.168-2.25 1.167-2.248.726-1.627.726-1.627v-.986l-.982-1.452-.982-1.452-1.537-3.108-1.536-3.11-.528-2.223-.528-2.223-.062-2-.063-2.001.416-.416.416-.416.426.163.425.162.156 1.765.158 1.765.271 1.456.273 1.455.41 1.058.41 1.058.24.461.238.461.848 1.656.848 1.656.787 1.058.786 1.058.68.606.679.605.704.651.704.652h.898l-.188-.463-.188-.463-.243-1.984-.243-1.985.159-1.984.159-1.985.397-2.249.398-2.249.657-2.36.656-2.36.38-.543.38-.542v-.394l-.759-.869-.76-.869-1.037-1.72-1.038-1.72-.832-1.984-.83-1.984-.474-1.919-.473-1.918-.271.007-.273.007-2.134 2.837-2.135 2.837-1.506 1.17-1.506 1.17-1.386.096-1.387.097-1.313-.737-1.314-.737-2.05-2.381-2.05-2.381-.654-1.323-.655-1.323-.678-1.646-.679-1.646v-.846l.585.084.584.085 2.393 3.257 2.392 3.257 1.556.805 1.557.805.89.025.89.025.894-.866.894-.866 1.405-2.394 1.406-2.394.454-.959.456-.96.395-.926.395-.926.827-2.513.826-2.514.241-.529.241-.53.385-1.388.385-1.39h-.623l-1.313 1.342-1.313 1.34-1.72 1.406-1.72 1.406-1.588.79-1.587.788-1.323.29-1.323.291-1.903.275-1.902.275-1.273-.001-1.272-.002-.966-.268-.966-.269-.168-.438-.168-.439.348-.348.348-.348 1.579-.292 1.578-.292.465-.249.464-.248v-.736l-.935-1.793-.934-1.793-1.413-1.864zm-35.14.926h2.226l.548.698.548.697v5.232l-1.091 2.17-1.092 2.171-1.753 1.82-1.752 1.818-1.195.608-1.195.608-1.088.292-1.087.293-1.514.14-1.513.14-1.555.785-1.554.784h-1.3l-.416-.415-.416-.416V6.62l.742-1.384.742-1.384 1.664-2.239 1.664-2.238.836-.627.835-.627 1.498-.764 1.498-.765 1.6-1.332 1.6-1.33.7-1.195.7-1.195.56-.392zm15.31.794h2.758l.67.528.673.528.668 1.141.668 1.14 1.147 1.057 1.146 1.057 1.584 1.054 1.585 1.055 1.78.85 1.78.85h.476l1.431 1.654 1.43 1.654.418.663.418.664.604 1.875.604 1.875-.17.676-.17.676-.728.237-.73.238-1.984-.206-1.984-.205-1.191-.436-1.19-.436-1.92-.896-1.919-.897-1.405-.643-1.405-.642-1.61-1.185-1.61-1.186-.797-1.157-.796-1.158-.576-1.894-.575-1.894-.044-2.76-.044-2.76.505-.558zM-71.808 9.012h1.779l.799.782.799.781.337 1.93.336 1.931.512 2.778.511 2.779.24.926.24.926.411 2.38.411 2.382.001 3.849v3.848l-.86 1.432-.859 1.433-1.55.918-1.55.917-1.36.09-1.36.09-.915-.412-.914-.411-.806-.612-.805-.612-.912-.47-.912-.47-2.935-.218-2.936-.22-1.047-.474-1.048-.476-1.756-1.258-1.756-1.258-.65-.859-.652-.858-1.429-2.881-1.43-2.881-.09-2.015-.092-2.016.658-1.489.658-1.488 1.015-1.36 1.016-1.36 1.063-.507 1.064-.506 3.719-.543 3.719-.543 1.317-.25 1.317-.25 1.578-.576 1.579-.577.926-.723.926-.723.847-.438zm21.763.53.84.006.84.006.925.236.927.235 1.357.518 1.357.517 1.157.545 1.156.545 2.223.819 2.223.819 3.492.232 3.492.233 1.032.547 1.031.547.845.784.845.784.649 1.01.648 1.01.318 1.381.316 1.381-.175 1.133-.175 1.131-.282.926-.281.926-.936 1.323-.937 1.323-1.03 1.372-1.032 1.37-1.415 1.07-1.415 1.068-2.337 1.096-2.337 1.097-3.037.763-3.038.763-1.99-.027-1.99-.027-.793-.197-.794-.197-1.248-.595-1.247-.594-1.17-1.029-1.168-1.03-.41-1.02v-.001l-.408-1.021v-.001l-.08-2.223-.08-2.224.205-3.44.204-3.44.418-3.174.417-3.175.683-1.41v-.001l.684-1.41.76-.64zm36.772 7.143h.74l.257.48.256.48.423 1.823.423 1.822.997 1.336.997 1.335.475 1.02.475 1.022-.18 1.205-.18 1.205-.752.751-.75.75h-1.699l-.861-.914-.863-.914-.426-1.25-.426-1.249v-4.371l.41-1.802.409-1.803.138-.463z" style="fill:#fcf9f8" transform="matrix(.33525 0 0 .33525 116.448 74.06)"></path><path d="m-99.481 5.308-.398.463-.397.463-.594 1.259-.594 1.258-.37 1.387-.37 1.388-.002 1.753-.003 1.753.4 1.134.4 1.135.314.378.313.377.344-.471.345-.471V16.4l.849-1.644.848-1.643 1.548-1.973 1.547-1.973-.153-.672-.153-.673-1.336-1.257-1.335-1.257h-.602z" style="fill:#fcf9f8" transform="matrix(.33525 0 0 .33525 116.448 74.06)"></path><path d="M-27.916 32.692h2.039l.04 2.28.041 2.278.43.764.429.764 1.033 1.587 1.033 1.588.018 1.236.019 1.235-.463.814-.463.813-.56.002-.56.002-.446-1.17-.447-1.17-1.17-1.08-1.171-1.078h-.459l-.396.463-.397.463-1.667 3.175-1.667 3.175-.854 1.323-.852 1.323-1.008 1.852-1.008 1.852-.824.933-.826.932-1.512 2.045-1.512 2.045-.592.702-.593.701-2.381 2.406-2.382 2.407-2.116.88-2.117.88-.794.366-.793.365-1.588.55-1.587.549-2.068.52-2.067.52-1.637-.032-1.637-.032-1.633-.324-1.633-.325-.748-.284-.748-.283-.764-.168-.764-.168-.956-.711-.956-.711-2.117-1.815-2.116-1.816-1.323-.657L-78.53 64l-1.954-2.027v-.001l-1.955-2.027-.857-1.852-.856-1.852-.185-1.71v-.001l-.185-1.71-.136-.22v-.001l-.136-.22-.675.674-.674.674h-.967l-.324-.595-.324-.596.032-1.863.031-1.863.68-1.804.678-1.804 1.17-1.757 1.171-1.757.748-.705.75-.706.396-.053.397-.054.595.032.596.03v1.243l-.37.768-.369.768-.167 1.456-.167 1.455.498.92.498.917 1.031.537 1.031.536 1.855 1.117 1.853 1.117 1.453.508 1.453.51 2.38 1.113 2.382 1.115 1.43.501 1.431.5h1.637l2.513-.521 2.514-.52 2.249-.567 2.249-.568 2.142-.626 2.141-.628.678-.533.679-.534h.52l1.286-1.15 1.285-1.15 1.19-.743 1.191-.743 1.352-1.15 1.352-1.15h.362l1.51-1.486 1.51-1.486 1.72-1.31 1.72-1.309 1.65-1.575 1.65-1.574.145-.722.145-.723.493-.926z" style="fill:#ee0f11" transform="matrix(.33525 0 0 .33525 116.448 74.06)"></path><path d="m-56.909 56.301-.647.163-.647.162-.704.554-.704.554v2.3049999999999997l.416.416.415.416h.544l.9-.9.9-.9-.004-1.018-.005-1.019-.232-.366zM-52.172 54.675l-.547.495-.547.495-.29.973-.292.972.432.837.433.836h1.218l.614-.655.616-.654-.37-1.369-.372-1.369-.447-.28zM-47.41 53.462l-.412.588-.412.589v1.364l.318.317.317.317h.396l.675-.884.675-.885v-.771l-.317-.317-.318-.318h-.461zM-42.235 50.527l-.522.079-.521.078-.366.554-.366.554.552.702.553.702.507-.272.508-.27.164-.658.166-.657-.338-.406zM-38.27 47.642l-.484.438-.484.437v.607l.317.317.318.317h.393l.412-.587.412-.588v-.941h-.442zM-72.46 61.01l-.609-.303-.61-.304-.527.138-.527.137-.266.692-.266.691.454.848.453.846.428.118.428.116.369-.038.369-.038.551-.74.552-.739-.4-.712zM-71.499 55.579l-.268.501-.268.501.554.704.554.704.564-.08.565-.081.08-.564.081-.565-.711-.56-.712-.56h-.22zM-77.9 57.164l-.76-.394-.761-.393-.414.414-.414.414v1.046l.391.757.392.756.336.136.336.135.445.02.444.022.416-.416.415-.416v-.902l-.413-.59zM-77.338 52.933l.004.463.004.463.194.288.194.286.514.281.513.28.346-.133.347-.133v-1.16l-.317-.317-.318-.318h-.74z" style="fill:#fcf9f8" transform="matrix(.33525 0 0 .33525 116.448 74.06)"></path><path d="M-25.877 32.693h-2.04l-.491.925-.493.926-.145.723-.146.723-1.65 1.575-1.65 1.575-1.72 1.31-1.72 1.308-1.51 1.487-1.509 1.486h-.362l-1.352 1.15-1.352 1.15-1.19.743-1.19.743-1.286 1.15-1.286 1.15h-.52l-.679.533-.678.534-2.141.627-2.142.627-2.249.567-2.249.567-2.514.52-2.513.52-.819.002h-.818l-1.43-.5-1.431-.502-2.381-1.114-2.381-1.114-1.453-.51-1.453-.508-1.853-1.117-1.855-1.117-1.031-.536-1.031-.536-.498-.919-.498-.92.167-1.454.167-1.456.37-.768.369-.768v-1.242l-.596-.03-.595-.032-.397.053-.397.054-.749.705-.748.705-1.17 1.757-1.17 1.756-.68 1.804-.679 1.804-.031 1.864-.032 1.863.324.595.324.595h.967l.674-.673.675-.674.136.22.136.22.185 1.71v.001l.185 1.71.856 1.852.857 1.852 1.955 2.028L-78.53 64l1.323.658 1.323.657 2.116 1.815 2.117 1.815.956.711.956.711.764.168.764.168.748.284.748.284 1.633.324 1.633.325 1.637.031 1.637.032 2.067-.52 2.068-.52 1.587-.55 1.588-.549.793-.365.794-.366 2.117-.88 2.116-.88 2.382-2.406 2.38-2.406.594-.701.592-.702 1.512-2.045 1.512-2.045.826-.933.824-.932 1.008-1.852 1.008-1.853.852-1.322.854-1.323 1.667-3.175 1.667-3.175.397-.463.396-.463h.459l1.17 1.078 1.171 1.08.447 1.169.447 1.17.56-.002.559-.002.463-.813.463-.813-.019-1.236-.018-1.235-1.033-1.588-1.033-1.587-.43-.764-.429-.764-.04-2.279zm-12.394 14.949h.885v.94l-.412.588-.412.588h-.393l-.318-.317-.317-.317v-.607l.484-.438zm-3.964 2.884.337.406.338.406v.001l-.166.657-.164.657-.508.272-.507.272-.553-.703-.552-.702.366-.554.366-.554.521-.079zm-38.808.29h1.36l-.084.575-.085.574-.265.066-.264.065-.33-.133-.332-.132v-.507zm3.705 2.117h1.481l.318.317v.001l.317.317v1.161l-.347.133-.346.133-.513-.28-.514-.281-.194-.287-.194-.288-.004-.463zm29.927.53h.922l.319.317.317.317v.771l-.675.884-.675.885h-.396l-.317-.317-.318-.317v-1.364l.412-.589zm-4.761 1.212.448.28.447.281.371 1.369.37 1.368-.615.655-.615.655h-1.217l-.433-.836-.432-.837.291-.972.291-.973.547-.495zm-29.929.11h.794v.794h-.441l-.176-.176-.177-.176v-.221zm10.602.794h.44l.71.56.712.56-.08.564-.08.565-.566.08-.564.081-.554-.704-.554-.704.268-.5zm14.59.722.232.366.233.367.003 1.019.005 1.018-.9.9-.9.9h-.543l-.416-.416-.416-.416v-2.305l.704-.554.704-.554.647-.163zm-22.512.075.76.394.761.393v.001l.413.59.413.588v.903l-.415.416-.416.416-.444-.02-.445-.021-.336-.136-.336-.135-.392-.757-.39-.757v-1.046l.413-.414zm5.742 4.027.61.303.61.304.399.712.4.712-.553.74-.551.74-.369.038-.369.038-.428-.117-.428-.117-.453-.847-.454-.848.266-.691.266-.692.527-.138z" style="fill:#ee0f11" transform="matrix(.33525 0 0 .33525 116.448 74.06)"></path><path d="M-81.043 50.817v1.013l.331.133.33.132.265-.065.265-.065.085-.574.084-.574h-.68z" style="fill:#fcf9f8" transform="matrix(.33525 0 0 .33525 116.448 74.06)"></path><path d="M-65.12 37.852h1.1909999999999998l.306.673.306.673.16 2.568.16 2.568-1.151 1.388-1.152 1.387-.802 1.126-.803 1.126-.688.081-.688.081-.565-.719-.566-.72-.162-.643-.161-.644.167-1.599.167-1.599.59-1.182.59-1.182 1.55-1.692zM-56.745 37.254l.64.16.64.161 1.371 1.372 1.372 1.372.417 1.436.418 1.435-.188 2.124-.188 2.123-.5.5-.498.498h-1.01l-1.216-1.353-1.217-1.353-.563-1.855-.564-1.854.15-1.99v-.001l.152-1.991.391-.392z" style="fill:#ee0f11" transform="matrix(.33525 0 0 .33525 116.448 74.06)"></path><path d="m-67.815 62.11.53.48.53.479v2.446l-.412.588v.001l-.412.588h-1.2149999999999999l-.7-.649-.7-.65v-.474l.001-.476.528-.865.528-.866.66-.301zm10.861 1.418.489.489.488.488.193 1.546.194 1.546-.585.474-.584.473h-.963l-.415-.416-.416-.416v-2.3689999999999998l.387-.749.387-.748.413-.16zm-6.437.828.608.308.607.308.496.667.495.668.152.934.151.935-.71.845-.712.846h-1.3170000000000002l-.773-.774-.774-.773v-1.688l.571-1.016.571-1.016.318-.123zM-50.54 61.944l.227.14.227.14v1.214l.298.855.299.857-.383.382v.001l-.383.382-.968.158-.968.157-.27-.713-.271-.712.004-.842.004-.843.213-.336.213-.335.879-.253zM-46.283 59.019h.665l.411.587.412.588V61.3l-.825.844-.825.844h-.688l-.27-1.256-.269-1.257.695-.728zM-41.177 55.023l.346.418.348.418-.298.654-.298.654h-1.351l-.145-.378-.145-.377.087-.615.087-.615.684-.08zM-38 52.188l.316.195.316.195-.17.442-.17.442h-1.001v-1.001l.355-.137zM-65.411 57.448l.981.03.982.03.596.22.595.219v1.783l-.484.438-.484.438h-1.454l-.773-.773-.774-.774v-.796l.407-.408zM-78.132 17.196l-1.257-.549-1.257-.549-2.513.325-2.514.324-1.098.472-1.099.472-.82 1.718-.82 1.718.004 2.079.003 2.079.782 1.541.782 1.542 1.37 1.582 1.37 1.58 1.073.548 1.073.547 2.527.214 2.526.215.794.256.794.256.926.41.926.408 1.28.924.001.001 1.28.923.704-.265.703-.266.752-.71.75-.711.374-.714.373-.715v-1.614h-1.076l-1.305.662-1.305.661-1.266-.009-1.265-.008-2.043-.485-2.042-.484-.678-.444-.678-.445-.803-1.753v-.001l-.803-1.753-.144-1.214-.144-1.213.402-1.32.402-1.321.398-.93.399-.929 1.08-1.228 1.082-1.228v-.3zM-31.962 19.129l1.587.22 1.587.219.446.55.445.55v.001l-.146.984v.001l-.145.984-.715.926-.714.926-.502.86-.502.86h-.68l-.023-.33-.024-.331.04-1.209.041-1.21-.546-1.436-.546-1.437v-.894l.198-.118zM-36.724 22.193l.727.573.727.572v1.486l-.844.826-.843.825h-1.176l-.685-.814-.685-.814.006-.575.006-.575.463-.602.464-.602.92-.15z" style="fill:#fcf9f8" transform="matrix(.33525 0 0 .33525 116.448 74.06)"></path><path d="M-34.05 115.904h1.585l.318.318.317.317v.662l-.748 1.138-.748 1.137-.464 1.255-.463 1.254-1.364 1.193-1.363 1.193h-1.404l-.427-.652-.427-.653v-1.973l2.594-2.594z" style="fill:#ee0f11" transform="matrix(.33525 0 0 .33525 116.448 74.06)"></path><path d="m-60.404 181.683-.391.514-.392.514-.535 1.4-.535 1.399v3.487l.635 2.017.635 2.016.265 1.058.264 1.059.657 1.587.656 1.588.169.727.169.728h-.694l-.704-1.39-.704-1.388-1.224-1.19-1.225-1.19v-.001l-.382-.728-.383-.727h-.793l-.284.727-.284.728.116 2.513.116 2.514.465.896.464.896.52 1.485.518 1.485.22.794.218.794.692 2.345.692 2.344v4.085l-.51 1.698-.511 1.698v.001l-.709 2.645-.71 2.646-.474 1.588-.474 1.587-.563 1.42-.563 1.419-.83 1.207-.831 1.207-1.264 1.395-1.263 1.396-.306 1.138-.305 1.137-.606 1.852-.607 1.852-.177 1.014-.177 1.015.167.76.166.76.577.183.577.185 1.149-.017 1.148-.016 2.178-1.479 2.177-1.479h1.0950000000000002l.59.478.588.477.365 1.927.365 1.927.563.791.563.792.563.227.562.227 1.455.015 1.456.016.976-.272.976-.27.876-1.108.876-1.107-.013-4.375-.013-4.375-.483-2.381-.484-2.382-.642-1.455-.642-1.455-.942-1.879-.941-1.88.175-.799.176-.8.648-.607.647-.61.002-5.576.001-5.576.284-1.058.285-1.059.811-1.687.81-1.687.204-1.885.204-1.884.596-1.456.596-1.455.19-3.572.19-3.572.406-1.228.406-1.228.694-1.1.694-1.1.226-.593.226-.594-.342-.813-.342-.813-3.533-.124-3.534-.125-1.587-.838-1.588-.837-.727-.58zM-47.185 177.588l-1.252.422-1.252.422-.53.335-.529.335-1.97.269-1.97.269-1.823-.384-1.824-.383-.242.15-.243.149.169.712.168.71.56.62.56.618.927.43.926.429 1.058.152 1.058.152 1.059-.094 1.058-.093 1.123-.4 1.123-.4.918-.812.916-.813.17-1.132.17-1.132-.164-.266z" style="fill:#fcf9f8" transform="matrix(.33525 0 0 .33525 116.448 74.06)"></path><path d="m-62.339 101.617.438.484.438.483v2.22l-1.224 1.12-1.223 1.117-.364.852-.364.85v4.021l-.274.512-.274.512h-1.54l-.411-.588-.412-.588.015-3.844.015-3.844.316-.926.316-.925 1.323-.723 1.322-.722.952-.006zm10.487 1.032.546.08.545.078.334.662.333.661.003 1.058.002 1.059-.215.774-.06.215-.275.989-.5.268-.5.267h-.727l-.487-.355-.486-.355.191-.77.191-.769.186-1.488.185-1.489.366-.442z" style="fill:#ee0f11" transform="matrix(.33525 0 0 .33525 116.448 74.06)"></path><path d="M-30.143 161.148h3.1109999999999998l.474.254.475.254 1.006 1.003 1.007 1.002 1.652 2.28 1.652 2.28 1.252 2.218 1.252 2.218.695 1.058.694 1.059.459 1.124.459 1.125.433 1.124.433 1.125.532 1.19.532 1.191.754 2.203.755 2.204v.951l-.826.165-.827.166-.166-.017-.165-.017-.661-.275-.662-.275-1.832-.39-1.833-.39-2.441-1.266-2.442-1.266-2.339-1.689-2.34-1.688-.397-.399-.399-.398-1.72-1.312-1.72-1.313-.396-.523-.397-.522-1.285-1.866-1.285-1.865.457-1.46.458-1.458.792-1.588.794-1.587 1.436-1.787 1.436-1.787.567-.528zM-66.02 147.124h2.0709999999999997l.846.873.846.872v1.014l-1.038 1.068-1.038 1.068-.623 1.564-.622 1.565-.655.483-.654.484-.794.134-.794.133-1.058-.39-1.059-.392-1.72.054-1.72.053-2.91-.21-2.91-.212-.677-.255-.677-.255-.478-.808-.477-.808.147-.913.148-.911.61-.51.61-.508.662-.005.661-.005 1.137.396 1.136.396.5-.267.499-.267.154-.487.155-.487.6-.322.602-.322.741.282.741.282 1.294-.46 1.294-.46.774.458.774.457h.555l1.174-1.19 1.173-1.19zM-113.034 152.881l1.185.453 1.185.452 1.565 1.177 1.564 1.176 1.769 1.952 1.768 1.952 1.357.927 1.358.927 2.204 1.33 2.205 1.332.922.304.921.304.939-.176.938-.176.631-.632.632-.632v-2.12l.556-.517.556-.518 2.156-.561 2.156-.562.634-.266.633-.265 1.831-.386 1.832-.385h2.866l1.923.28 1.923.28 1.308.41 1.307.411 1.9.901 1.898.901 4.07.195 4.07.194v5.995l.513.376.514.376h3.298l1.212-.926 1.214-.926h.064l.063.001v4.630999999999999l-.301.51-.302.512-1.154.345-1.153.345-1.19.009-1.191.009-1.985.52-1.984.52-.485.005-.485.005-1.764.766-1.764.766-2.646.414-2.646.414-2.116.15-2.117.15-13.626.065-13.626.065-.53-.083-.528-.08-1.191-.297-1.19-.296-1.5-.73-1.5-.728-.963-.655-.963-.654-.747-1.024-.746-1.023-.724-1.985-.724-1.984v-.002l-.216-4.498-.215-4.496v-.002l.222-1.797.224-1.796.423-.647.424-.646.67-.168z" style="fill:#fcf9f8" transform="matrix(.33525 0 0 .33525 116.448 74.06)"></path><path d="M-7.382 132.837h1.216v1.351l-.917.383-.918.383-.47-.036-.473-.036-.595-.115-.595-.114v-.736l1.124-.32 1.125-.32.251-.22zM-77.912 109.75l.638.16.639.16.322.708.322.707.228 1.746.228 1.747.57 1.266.57 1.265-.083.851-.082.851-.543.078-.544.078-.987-1.433-.986-1.432-.256-.893-.256-.892V113l-.32-1.195v-.001l-.32-1.195.43-.43z" style="fill:#ee0f11" transform="matrix(.33525 0 0 .33525 116.448 74.06)"></path><path d="M-52.953 77.01h.985l.411.588.412.588-.009.67-.01.668-.328.592-.329.591-1.244 1.393-.588.657-.657.736-.87 1.19-.87 1.19-1.016.5-1.016.499-1.096.105-1.095.105-1.061-.497-1.062-.497-.724-.949-.725-.95v-.281l-1.455-2.256-1.455-2.255v-.982l.519-.47.518-.469.925.174.924.173.872.937.872.936 1.134.672 1.134.672h2.495l.975-.576.974-.575.824-1.283v-.001l.824-1.283.405-.156z" style="fill:#ee0f11;fill-opacity:1" transform="matrix(.33525 0 0 .33525 116.448 74.06)"></path></g><path d="M135.922 266.43c-4.566-.27-8.993-.717-9.404-.95-.27-.153-2.282-2.874-4.244-5.742-.745-1.088-1.422-2.025-1.506-2.082-.083-.058-.41-.105-.728-.107l-.576-.002-.137.742-.202 1.095c-.035.195-.164.862-.286 1.484s-.222 1.461-.222 1.865c0 .663.044.769.448 1.084.247.191.836.43 1.31.53s.862.232.862.294c0 .15-.16.139-1.379-.097a142 142 0 0 1-7.86-1.721c-.492-.12-1.077-.261-1.299-.313s-.432-.183-.467-.29c-.046-.144.005-.166.197-.084.663.286 1.647.37 2.184.189.493-.167.574-.267.847-1.033.166-.466.565-1.992.887-3.391l.845-3.674c.636-2.767.941-4.404.874-4.694-.113-.492-.745-.998-1.472-1.176-.366-.09-.665-.22-.665-.29 0-.18.071-.17 1.6.219 1.877.477 4.175.98 6.467 1.415 5.16.98 6.624 1.475 7.791 2.636.767.763 1.102 1.509 1.102 2.454 0 1.005-.239 1.58-.903 2.179-.713.641-1.476.967-2.735 1.168-.577.092-1.05.218-1.05.281 0 .15.933 1.417 2.842 3.862 2.643 3.384 3.094 3.746 4.294 3.442.524-.133.833-.353 1.55-1.104a17 17 0 0 0 1.594-1.99 571 571 0 0 1 1.742-2.608c.575-.855 1.642-2.54 2.373-3.745.73-1.205 1.387-2.286 1.458-2.402s.423-.737.78-1.378c.359-.641.722-1.166.808-1.166s.26.207.387.46c.35.698 1.962 3.33 3.439 5.616 3.455 5.348 4.872 7.269 5.817 7.882 1.113.723 3.668.38 4.278-.574.238-.372.191-1.066-.406-6.036-.117-.971-.272-2.275-.346-2.897a95 95 0 0 0-.486-3.569c-.108-.638-.595-.92-1.771-1.024-.54-.048-.89-.124-.776-.17.114-.045 1.137-.184 2.275-.31a94 94 0 0 0 6.515-.976c.55-.102 1-.137 1-.077s-.233.152-.517.207c-.838.159-1.654.576-1.909.973-.215.336-.22.505-.065 1.81.095.793.226 1.663.293 1.935s.342 1.957.613 3.745c.866 5.73.84 5.673 2.55 5.526 1.447-.125 4.388-.845 5.222-1.278 1.576-.818 2.456-2.23 2.977-4.778.043-.214.158-.389.253-.389.176 0 .42 1.651.602 4.078l.084 1.103-1.57.384c-2.552.623-3.115.748-5.43 1.2-6.472 1.266-11.515 1.88-18.93 2.305-2.122.122-2.837.121-2.958-.003-.122-.124 0-.164.506-.164.915 0 1.673-.257 1.87-.634.144-.277.085-.451-.492-1.43-.362-.613-.81-1.322-.995-1.574l-.338-.46-3.74.004-3.742.004-.594.904c-.778 1.184-.947 1.654-.775 2.155.165.482.645.73 1.799.933.484.085.88.2.88.254 0 .114-.883.105-3.24-.035m8.817-4.913c.079-.132-2.816-5.222-2.977-5.235-.05-.004-.29.327-.535.735a111 111 0 0 1-2.243 3.548c-.439.66-.51.852-.358.952.254.165 6.013.165 6.113 0m-20.073-4.623c.894-.456 1.33-1.102 1.518-2.243.16-.975.13-1.355-.159-2.066-.282-.693-.706-1.078-1.7-1.548-.756-.357-3.308-.942-3.454-.792-.033.034-.182.784-.331 1.668s-.328 1.798-.396 2.031c-.195.666-.482 2.743-.391 2.836.148.152 2.224.456 3.215.47.792.012 1.108-.054 1.698-.356m55.103 3.762c.047-.077.177-.141.29-.141.314 0 1.321-.555 1.744-.96.43-.414.48-.874.186-1.687-.107-.293-.954-2.917-1.884-5.832s-1.762-5.38-1.85-5.48c-.13-.148-.376-.102-1.284.241-1.61.609-2.139.915-2.563 1.486-.495.664-.738 1.285-.854 2.175-.119.922-.382.948-.606.06-.093-.37-.292-1.1-.442-1.623s-.253-1.055-.228-1.182c.03-.15.366-.33.942-.504 3.653-1.11 6.454-2.053 8.548-2.876.72-.284 1.558-.602 1.862-.708.42-.146 3.245-1.324 4.412-1.84.076-.033.289.304.473.75s.513 1.218.731 1.714c.56 1.278.419 1.475-.472.654-1.028-.947-1.38-1.097-2.586-1.103-.845-.003-1.262.082-2.213.451-.645.25-1.221.504-1.28.564-.097.097.396 1.551.945 2.792.108.245.197.517.197.605s.144.523.32.967c.176.445.483 1.254.682 1.798l.697 1.907c1.116 3.05 1.516 3.984 1.818 4.24.37.316 1.207.321 2.057.015.45-.162.848-.263.885-.226s.041.09.01.115c-.191.154-5.321 2.11-6.4 2.44-.38.117-.814.269-.965.339-.362.166-2.966.99-3.13.99-.07 0-.089-.063-.042-.14zm-75.836-.359c-1.49-.284-2.546-.624-5.792-1.863-2.42-.924-6.842-2.78-7.56-3.173-.49-.268-.128-.255.665.025.945.333 1.691.362 2.083.08.355-.254.76-1.166 3.367-7.569.396-.971.87-2.103 1.055-2.515s.372-1.063.417-1.447c.077-.671.06-.717-.45-1.195-.291-.274-.734-.574-.984-.666s-.454-.22-.454-.281c0-.177.306-.132.758.11 1.025.55 5.087 2.205 8.292 3.38 3.081 1.128 4.472 1.912 5.31 2.993 1.396 1.8 1.212 3.387-.503 4.333-.47.26-.802.308-2.252.329-.936.013-1.73.053-1.765.09-.035.035.39.32.943.63 2.799 1.577 3.832 3.026 3.403 4.771-.188.767-.932 1.488-1.896 1.836-.904.327-3.264.394-4.637.132zm-.07-1.901c.742-.388 1.196-1.012 1.392-1.913.352-1.608-.498-3.014-2.456-4.065-.843-.452-2.083-.94-2.403-.945-.05-.001-.26.491-.469 1.093a39 39 0 0 1-.556 1.52c-1.012 2.433-1.134 2.996-.757 3.487.847 1.103 3.82 1.57 5.249.823m1.903-7.384c.79-.536 1.18-1.431 1.103-2.531-.072-1.019-.528-1.658-1.708-2.393-.74-.46-2.387-1.185-2.471-1.086-.02.022-.199.517-.399 1.1a23 23 0 0 1-.495 1.342c-.179.382-1.104 3.045-1.104 3.177 0 .108.789.439 1.655.695.265.078 1.015.13 1.665.114 1.032-.026 1.255-.079 1.754-.418m88.55 4.2c0-.053.302-.392.672-.753.458-.448.76-.903.95-1.433.514-1.436 1.19-8.266 1.368-13.813.058-1.828.13-2.579.244-2.579.089 0 .56.247 1.049.548 2.706 1.67 8.13 4.582 11.224 6.028 2.058.962 3.014 1.11 4.045.631.78-.362 1.784-1.215 2.049-1.74.39-.772.382-.786-3.056-5.75-3.788-5.47-3.865-5.564-4.557-5.537-.29.01-.857.191-1.26.4s-.76.352-.792.32c-.033-.034.293-.311.724-.617.984-.697 5.372-4.05 5.763-4.405.161-.145.497-.423.748-.617.25-.194.698-.559.994-.81.945-.802 2.626-1.965 3.55-2.457.844-.449.98-.477 2.276-.477 1.137 0 1.451.048 1.792.276 1.756 1.175 1.911 3.268.41 5.515-.376.563-.538.92-.435.957.09.033.532.074.983.091s.862.058.915.092 1.658.066 3.567.071l3.47.01.75-.434c.413-.239.75-.38.75-.312 0 .124-2.234 2.373-3.918 3.943-.944.88-.95.883-1.789.885-.992.002-4.19-.23-6.909-.5-2.05-.204-1.957-.219-2.754.427-.195.157-.235.275-.138.414.587.845 2.863 3.753 3.15 4.026.27.256.5.335.92.318.633-.025.941-.167 1.683-.777.285-.233.554-.387.598-.342.117.12-.214.43-1.886 1.756-2.4 1.903-3.555 2.775-5.71 4.306L213 244.834c-.887.632-4.105 2.687-5.635 3.6l-1.108.66c-.757.453-.856.267-.117-.22.897-.589 1.158-.917 1.111-1.396-.038-.395-.182-.515-1.538-1.282l-1.495-.846-.71.371c-.392.204-1.053.573-1.47.819a85 85 0 0 1-2.482 1.36c-.948.502-1.802.99-1.897 1.083-.103.1-.209.72-.258 1.506-.077 1.232-.06 1.366.219 1.724.246.317.412.389.9.389.33 0 .89-.127 1.243-.283.699-.306 1.035-.367.82-.148-.19.196-3.458 1.844-5.508 2.779-.303.138-.598.276-.655.306s-.103.01-.103-.043zm3.933-7.323c.15-.105.924-.532 1.72-.948 1.93-1.01 3.31-1.828 3.31-1.964 0-.062-.699-.51-1.552-.998a59 59 0 0 1-2.5-1.51c-.522-.344-1-.573-1.06-.51-.061.064-.18 1.292-.263 2.73s-.185 2.724-.225 2.86c-.075.256.028.53.2.53.054 0 .22-.085.37-.19m19.247-15.812c1.882-1.61 2.457-2.486 2.463-3.758.004-.99-.28-1.566-1.19-2.42-1.455-1.362-2.659-1.172-5.258.831-.552.426-.987.855-.965.954.051.234 3.853 5.135 3.984 5.135.054 0 .49-.334.966-.742m-128.45 22.474c-1.425-.643-5.692-2.86-7.658-3.978-1.953-1.11-1.865-1.053-1.758-1.162.044-.045.442.114.885.353.86.465 1.754.573 2.142.259.334-.27.922-1.307 2.625-4.628.34-.66.926-1.773 1.305-2.473 1.258-2.32 1.971-3.835 1.97-4.18 0-.484-.436-1.1-1.099-1.556-.313-.216-.643-.42-.734-.453s-.12-.11-.066-.169.55.168 1.103.506 2.649 1.458 4.658 2.49c3.348 1.717 4.091 2.178 2.726 1.69-.283-.1-.557-.227-.609-.28-.17-.174-.846-.101-1.244.135-.412.244-.47.356-3.297 6.339-2.508 5.309-2.45 5.143-2.034 5.865.189.329 1.481 1.255 2.038 1.461.08.03.113.09.074.134-.038.044-.501-.115-1.028-.353m-13.187-7.869c-4.596-1.683-9.242-5.051-11.419-8.278-3.317-4.918-2.88-9.23 1.125-11.12 1.486-.701 4.14-.7 6.525.003.764.226 1.508.476 1.655.558.147.08.732.383 1.3.671.57.288 1.283.694 1.586.903.304.208.955.658 1.448.999s1.768 1.522 2.834 2.624c2.028 2.097 2.397 2.336 3.15 2.043.207-.08.494-.147.636-.147.28 0 .173.229-1.237 2.614-.321.544-.687 1.165-.812 1.38-.292.502-.657.454-.596-.078.12-1.038-.802-4.078-1.502-4.957l-.714-.894c-.779-.976-2.056-1.995-3.386-2.705-2.472-1.317-4.952-1.037-7.096.804-1.882 1.616-3.18 4.055-3.18 5.974 0 1.5.873 3.123 2.525 4.69.98.93 1.605 1.364 2.898 2.01 1.566.784 1.36.868 2.614-1.074.61-.945 1.109-1.842 1.109-1.993 0-.15-.09-.45-.198-.666-.209-.413-1.146-1.345-1.472-1.464-.106-.038-.152-.114-.103-.168.048-.054 1.01.52 2.137 1.274 1.127.755 2.374 1.585 2.772 1.846.399.26 1.05.687 1.448.949s1.179.744 1.734 1.072c.556.328.986.622.956.653-.03.03-.406-.07-.835-.225-1.094-.394-1.556-.366-2.003.122-.394.43-1.26 1.823-1.638 2.636-.29.623-.416.62-2.26-.056zm-47.521-54.594a30 30 0 0 0-.588-1.52c-.565-1.363-1.515-3.993-2.221-6.146a60 60 0 0 0-.674-1.978c-.12-.292-.677-2.15-1.311-4.38-.2-.7-.476-1.654-.615-2.12a13 13 0 0 1-.351-1.555c-.145-1.04.123-.647.48.707.436 1.652 1.054 2.856 1.686 3.284.572.388 1.028.384 2.713-.025.96-.233 3.41-.794 5.603-1.282.91-.203 2.151-.49 2.758-.636a69 69 0 0 1 1.861-.424c1.213-.25 1.697-.554 1.9-1.191.184-.575.06-1.278-.794-4.53a30 30 0 0 1-.354-1.484c-.183-.96-.887-3.012-1.398-4.072-.89-1.846-2.736-3.504-4.914-4.415-.561-.235-.777-.476-.78-.873-.003-.275.297-.265 3.301.116.869.11 1.848.2 2.175.2.725 0 .714-.023 1.138 2.473.536 3.164 1.346 6.885 2.138 9.82.2.739.443 1.664.542 2.056.535 2.122 2.81 8.804 3.935 11.553.44 1.078.478 1.55.078 1.006-.11-.15-.29-.536-.399-.858-.344-1.013-1.133-2.133-1.717-2.44-.53-.276-.554-.276-1.557-.021-.56.142-1.794.495-2.742.783a979 979 0 0 1-7.79 2.349c-1.715.508-2.478.857-2.604 1.192-.25.67.062 2.45.724 4.128.22.56.248.742.11.742-.101 0-.251-.207-.333-.46zm227.236-7.23c-1.383-.405-2.555-.779-2.605-.83-.172-.177.257-.525.647-.525 3.375 0 7.16-4.197 7.16-7.94 0-2.022-1.037-2.962-2.551-2.313-.432.185-1.764 1.431-2.275 2.128-.114.156-.459.6-.766.99-.307.388-.952 1.215-1.434 1.836-1.09 1.407-3.175 3.544-4.022 4.123-1.532 1.048-3.115 1.3-4.43.703-1.521-.69-2.309-2.382-2.309-4.96 0-2.411.814-4.815 2.522-7.445 1.161-1.79 1.264-2.201.787-3.16-.412-.828-.372-.97.242-.872 2.273.365 5.696 1.046 5.801 1.154.171.175-.276.385-1.233.58-3.696.753-7.01 4.497-7.054 7.97-.015 1.183.214 1.859.81 2.395q.87.782 2.241.146c.598-.278 2.72-2.338 3.564-3.46.619-.823 2.08-2.716 2.43-3.146 1.383-1.707 3.137-3.036 4.347-3.293 1.747-.372 3.059.332 3.97 2.13.38.75.394.848.394 2.826 0 1.792-.042 2.181-.338 3.108-.493 1.547-1.475 3.426-2.545 4.872-1.321 1.784-1.49 2.406-.839 3.075.269.275.308.386.173.5-.123.103-.903-.07-2.687-.592m4.025-22.268c-1.022-.325-2.025-1.61-2.482-3.18-.3-1.026-.337-4.07-.08-6.557.091-.886.117-1.661.057-1.723-.06-.061-1.576-.13-3.368-.154-3.033-.04-3.28-.025-3.548.223-.346.32-.846 1.627-.846 2.212 0 .275-.07.418-.204.418-.216 0-.201-.414.076-2.1.12-.73.49-5.746.583-7.924.051-1.17.302-1.522.335-.47.012.37.096.947.187 1.281.292 1.07.011 1.035 8.1.988 6.538-.038 7.168-.062 7.507-.29.542-.364.816-1.022.912-2.187.047-.58.145-1.016.222-.994.309.087-.045 6.849-.564 10.787-.698 5.297-1.834 7.876-4.12 9.358-.608.394-2.01.552-2.767.312zm3.464-5.86c1.077-.327 2.023-1.504 2.39-2.971.28-1.122.396-2.192.246-2.287-.178-.113-.572-.136-4.385-.26l-3.254-.105-.088.549c-.33 2.05.108 3.705 1.218 4.6.796.642 2.598.862 3.873.474m-243.844-.82c-.467-3.013-.944-16.892-.588-17.117.18-.114.178-.124.219 1.4.038 1.445.275 2.45.696 2.953.402.479.964.56 5.448.793 5.275.274 9.695.343 10.035.157.548-.3.875-1.203.959-2.65.136-2.34.312-1.413.319 1.68.007 3.278.15 6.35.469 10.067.247 2.89.244 2.792.089 2.693-.069-.043-.165-.412-.213-.82-.155-1.303-.624-2.622-1.07-3.006l-.406-.35-4.022.013c-6.09.02-10.434.182-10.879.405-.589.296-.849 1.409-.752 3.217.043.795.027 1.477-.034 1.516s-.183-.39-.27-.95m16.888-18.908c-.136-1.855-.206-2.093-.786-2.687-.702-.72-.828-.749-6.466-1.47a514 514 0 0 1-6.412-.852l-1.379-.197-.521.596c-.834.952-1.347 2.1-1.439 3.224-.056.685-.135.974-.266.974-.104 0-.187-.147-.187-.332 0-.8.432-6.447.542-7.086.067-.389.202-1.548.299-2.577l.177-1.87 1.87-1.948c2.117-2.207 3.904-3.952 5.316-5.192.531-.467.996-.884 1.034-.928.19-.22 3.545-3.022 4.717-3.938.736-.576 1.311-1.09 1.28-1.143-.062-.101-.977-.42-2.963-1.034a334 334 0 0 1-3.034-.961c-2.147-.692-3.156-.78-3.746-.331-.493.375-1.126 1.48-1.517 2.647-.33.985-.735 1.365-.527.495.674-2.81 2.527-9.083 2.85-9.643.282-.49.334-.144.119.79-.44 1.913-.196 3.047.786 3.66.247.155 1.256.539 2.242.854s2.134.692 2.551.837 2.155.719 3.86 1.273A625 625 0 0 1 40.093 112c.531.175 1.014.363 1.073.419.187.176-.027.488-.63.919-.68.487-3.626 2.736-4.028 3.075-.152.128-.834.696-1.517 1.262a49 49 0 0 0-1.31 1.108c-.037.044-.749.682-1.58 1.419-3.274 2.901-9.972 10.007-9.627 10.213.06.035.48.105.935.156.455.05 1.665.216 2.689.369 7.39 1.098 8.303 1.206 8.906 1.052.789-.202 1.484-1.214 1.783-2.596.306-1.412.31-1.426.475-1.426.178 0 .18.348.008.99-.113.421-.488 4.338-.787 8.23-.047.603-.129 1.096-.182 1.096-.054 0-.14-.578-.193-1.284m213.636.189c-.003-1.55-.364-6.33-.611-8.09-.115-.816-.21-1.659-.211-1.872-.004-.674.243-.421.345.353.2 1.51.937 2.323 1.98 2.186.274-.036 1.616-.237 2.98-.447 2.74-.422 5.105-.777 7.929-1.19 2.423-.354 2.896-.45 2.896-.59 0-.342-10.818-4.296-14.11-5.157-1.318-.345-2.72-.76-2.855-.846-.255-.161-.127-.336.936-1.28 2.333-2.07 3.686-3.376 6.869-6.63 4.096-4.186 5.263-5.494 4.96-5.557-.12-.026-.948.187-1.837.474-.889.286-1.926.615-2.305.732-1.056.324-2.811.888-3.654 1.175-.417.142-1.41.46-2.206.705-.797.246-1.878.599-2.404.783-1.482.52-1.852 1.172-1.688 2.977.094 1.032-.094 1.206-.326.3-.263-1.028-.841-2.942-1.333-4.415a39 39 0 0 1-.548-1.731c-.138-.576.155-.331.564.47.458.899 1.034 1.407 1.747 1.543q.69.132 3.712-.98c.265-.097.886-.307 1.379-.465 6.985-2.248 8.577-2.812 8.959-3.175.391-.372.47-1.237.207-2.258-.296-1.144-.3-1.17-.135-1.202.138-.027.276.338 1.026 2.71.706 2.237 1.939 6.641 1.939 6.93 0 .16-2.99 3.248-4.62 4.772l-2.006 1.878a81 81 0 0 1-2.102 1.89c-.584.502-1.062.958-1.062 1.012 0 .115.09.148 4.55 1.652 1.858.627 3.874 1.337 4.481 1.578.607.24 1.382.536 1.724.657.341.12.68.277.751.347.072.07.235.127.362.127a.55.55 0 0 1 .377.18c.21.26.407 2.098.645 6.038.26 4.284.26 4.239.002 4.239-.156 0-.207-.174-.207-.715 0-1.053-.25-1.892-.694-2.328-.374-.368-.443-.383-1.4-.31-1.786.138-8.42.815-8.507.87-.047.028-1.015.126-2.153.217-2.246.18-3.042.337-3.408.672-.298.272-.66 1.526-.66 2.287 0 .318-.061.579-.137.579-.08 0-.139-.46-.14-1.095zm-7.08-33.066a43 43 0 0 0-.794-1.845c-.294-.646-.535-1.209-.535-1.252 0-.128-1.922-3.993-2.569-5.164-.57-1.034-.73-1.524-.498-1.524.058 0 .182.18.277.4.268.62 1.08 1.52 1.551 1.72.695.295.238.497 10.418-4.59 3.157-1.579 3.476-1.77 3.685-2.223.216-.465.214-.55-.03-1.45-.142-.525-.388-1.135-.546-1.355-.186-.257-.237-.433-.143-.493.08-.05.166-.07.19-.042.338.377 3.333 6.45 4.346 8.81.4.933.843 1.962.986 2.288.27.618.332 1.035.155 1.029-.057-.002-.28-.409-.495-.904-.216-.494-.602-1.107-.858-1.362-.62-.616-1.286-.618-2.68-.005l-1.861.816c-.456.2-1.014.446-1.241.55-.228.102-1.252.542-2.276.976-1.023.435-1.97.852-2.102.928-.133.075-.846.385-1.586.687-2.146.88-3.018 1.385-3.212 1.864-.202.502-.098 1.651.208 2.278.256.526.256.534.04.534-.095 0-.289-.303-.43-.672zM35.66 102.963c-.83-.182-2.105-.89-2.739-1.523-.991-.99-1.482-1.852-2.185-3.845-.421-1.196-.425-1.231-.427-4.032-.001-2.573.032-2.966.364-4.38.345-1.472.957-3.503 1.208-4.009.063-.127.433-.909.82-1.738 1.198-2.556 2.392-4.23 5.162-7.237.922-1 1.795-2.05 1.94-2.331.332-.644.384-1.4.124-1.805-.154-.24-.165-.381-.048-.605.204-.39.412-.369 1.053.105.296.219 1.39.985 2.43 1.703 1.737 1.198 1.88 1.328 1.726 1.581-.147.24-.329.275-1.45.275-.934 0-1.512.08-2.136.296-3.388 1.17-6.457 4.729-7.908 9.172-.363 1.112-.393 1.363-.395 3.391l-.002 2.19.477.99c.603 1.25 2.218 2.95 3.315 3.487 1.507.74 2.48.994 4.082 1.07 2.156.102 3.217-.195 4.93-1.38 1.932-1.336 4.412-5.434 5.348-8.84.35-1.273.44-1.91.512-3.633l.088-2.09.575.383.574.382-.064.86c-.29 3.897-1.147 6.53-3.537 10.877-1.011 1.84-2.743 4.461-3.473 5.256-.078.085-.499.571-.936 1.08-1.562 1.82-3.635 3.31-5.54 3.98-1.2.42-2.912.584-3.888.37m195.474-23.98c-.188-.04-.795-.258-1.35-.484-2.314-.942-4.57-2.936-7.765-6.86-2.668-3.278-3.284-3.983-5.605-6.415-.93-.975-1.692-1.817-1.692-1.872 0-.208.228-.076.827.48.9.836 1.38 1.05 2.223.99.243-.016.925-.666 2.32-2.21.489-.542 2.265-2.479 3.947-4.305 3.263-3.543 4.049-4.452 4.072-4.712.086-.96-.208-1.666-1.095-2.637-.692-.756-.832-.988-.597-.988.063 0 .885.812 1.827 1.804 6.74 7.104 9.762 11.393 10.975 15.577.358 1.234.388 1.524.383 3.603-.005 2.099-.031 2.33-.37 3.222q-1.144 3.025-3.83 4.32c-.955.46-1.144.5-2.481.528-.797.017-1.602-.002-1.79-.042m-1.176-5.314c2.622-1.093 4.798-3.229 5.86-5.753.252-.597.341-1.11.386-2.207.067-1.659-.115-2.474-.88-3.953-.472-.91-1.876-2.92-2.284-3.266-.235-.2-.13-.295-5.08 4.607-6.487 6.424-6.116 6.018-6.027 6.581.18 1.132 2.078 3.231 3.598 3.978.872.428 1.093.477 2.148.475 1.006-.002 1.336-.07 2.279-.462m-176.561.306c-2.432-.401-4.69-2.535-5.231-4.945-.185-.821-.184-3.113.002-4.162.747-4.21 3.558-8.725 7.718-12.396 2.276-2.007 4.878-3.65 7.105-4.484 4.472-1.676 8.234-1.336 10.459.943 3.173 3.253 2.202 9.191-2.447 14.958-.376.466-1.604 1.777-2.728 2.913-4.338 4.381-7.866 6.534-11.67 7.121-1.483.23-2.074.24-3.208.052m11.178-5.488c1.995-.87 4.602-3.41 5.12-4.989.083-.251.2-.524.262-.606s.186-.606.276-1.166c.387-2.402-.504-4.606-2.904-7.177-1.727-1.85-3.096-2.713-4.932-3.109-1.007-.218-1.246-.223-2.137-.053-2.665.51-5.756 2.998-7.105 5.717-.38.765-.861 2.549-.861 3.188 0 .668.42 2.143.846 2.97.907 1.757 3.059 3.763 5.152 4.8 1.665.825 2.372.987 4.012.92 1.026-.042 1.438-.132 2.27-.495m146.141-8.733c-3.479-3.115-8.427-6.756-12.389-9.114-2.002-1.193-2.13-1.267-2.806-1.63-.585-.314-.881-.736-.517-.736.076 0 .138.058.138.13 0 .175 1.779.86 2.237.86.204 0 .52-.07.704-.156.336-.157 1.292-1.566 2.797-4.119.446-.757.98-1.647 1.186-1.978s.516-.848.69-1.15c.321-.56.428-.739.813-1.358 1.67-2.686 2.604-4.407 2.604-4.802 0-.512-.961-1.534-2.018-2.146-.407-.235-.705-.485-.662-.555.09-.151.095-.15 2.611 1.309a102.6 102.6 0 0 1 14.685 10.368c1.656 1.41 1.607 1.3.943 2.12-.31.385-1.03 1.291-1.598 2.014-.99 1.259-1.044 1.303-1.292 1.073-.152-.141-.212-.303-.145-.395.243-.332.467-1.465.463-2.33-.01-1.72-1.227-3.602-3.51-5.423-1.335-1.066-3.545-2.646-3.7-2.646-.06 0-.66.842-1.333 1.872a887 887 0 0 1-2.008 3.053c-.43.65-.781 1.225-.781 1.28 0 .173.806.72 1.695 1.151 1.594.773 3.086.538 4.667-.735.555-.446.78-.5.887-.214.04.105-1.035 1.696-2.409 3.568-3.134 4.268-2.941 4.03-3.164 3.887-.15-.096-.118-.31.172-1.135.745-2.117.301-3.598-1.523-5.085-.39-.317-.775-.577-.854-.577-.08 0-.697.842-1.372 1.872a835 835 0 0 1-1.686 2.564c-.531.801-.818 1.57-.724 1.939.202.79 3.656 3.328 5.814 4.271 1.795.785 3.865.813 5.538.075.46-.203.73-.25.891-.158.191.11-.148.45-1.917 1.921-1.182.983-2.2 1.788-2.262 1.788-.063 0-.452-.303-.865-.673M81.6 54.78c-.043-.07.156-.303.442-.517 1.541-1.154 2.251-2.187 1.988-2.895-.107-.286-2.386-3.624-3.415-5.001-.174-.233-.893-1.228-1.598-2.21l-2.368-3.3c-1.345-1.874-1.613-2.03-2.835-1.64-.459.147-1.293.56-1.853.917-.56.358-1.057.651-1.104.651-.42 0 .974-1.04 4.259-3.178a295 295 0 0 0 1.31-.858c1.95-1.288 9.422-5.573 9.719-5.573.039 0 .07.08.07.177s-.442.4-.98.671c-1.408.71-2.505 1.653-2.659 2.282-.168.692-.067.994.8 2.381a836 836 0 0 0 3.33 5.3c3.598 5.671 3.274 5.214 3.86 5.442.618.241 1.249.016 4.198-1.5 4.656-2.391 5.525-3.065 6.67-5.17.397-.728.914-2.786.914-3.638 0-.465.05-.557.351-.635.427-.11.614-.007.614.335 0 .236.9 3.952 1.227 5.067.115.39.1.48-.097.548-.358.125-3.18 1.311-3.957 1.663-6.317 2.862-13.566 6.995-18.28 10.425-.29.211-.564.327-.606.256m111.2-7.214c-.412-.237-1.449-.745-4.352-2.133-.309-.147-.636-.267-.727-.267s-.397-.15-.68-.333c-.397-.257-.573-.508-.769-1.095-.251-.753-.79-2.2-1.128-3.023-.778-1.904-1.106-2.676-1.501-3.533-.25-.544-.633-1.388-.85-1.876-.374-.84-.43-.898-1.079-1.095-.376-.115-.764-.208-.862-.208-.19 0-.653.93-.812 1.63a3 3 0 0 1-.264.701c-.092.155-.268.569-.39.919s-.38 1.08-.574 1.625-.35 1.159-.351 1.366c-.001.606.594 1.185 1.657 1.612.529.213.962.448.962.522 0 .158-.206.113-1.793-.39-2.77-.878-7.674-2.152-9.824-2.551-.945-.176-.55-.357.57-.261 1.911.163 2.426-.093 2.944-1.468.51-1.352 4.083-12.414 4.177-12.932.09-.495.057-.575-.443-1.06-.4-.387-.79-.591-1.499-.785L174 22.599c-.147-.04-.204-.123-.135-.194.16-.165 5.129.913 8.111 1.759l2.069.585c2.966.836 6.958 2.391 8.599 3.35 1.87 1.093 3.236 2.71 3.6 4.264.167.715.162.89-.05 1.58-.317 1.027-.877 1.65-1.99 2.212-.873.44-.988.462-2.504.462-.874 0-1.883-.052-2.244-.115-.505-.088-.654-.072-.654.07 0 .103.283.917.628 1.811.8 2.066 1.043 2.75 1.802 5.057.34 1.033.73 2.145.867 2.473.236.564 1.038 1.514 1.279 1.514.061 0 .112.095.112.211 0 .275-.106.264-.69-.072m-4.65-13.408c.93-.41 1.618-1.11 2.054-2.095.672-1.516.458-2.906-.608-3.956-.512-.503-2.247-1.481-3.07-1.73a9 9 0 0 1-.827-.29c-.38-.173-1.329-.42-1.614-.42-.268-.002-.397.26-1.286 2.613-1.313 3.472-1.719 4.6-1.719 4.772 0 .097.295.255.655.35s1.306.357 2.103.583c1.807.515 3.389.578 4.311.173m-80.064 6.808c-.113-.115.184-.463.396-.463.39 0 2.148-1.034 2.542-1.493.698-.815.618-1.483-.548-4.522l-2.192-5.714c-.67-1.748-1.26-3.318-1.31-3.488-.061-.213-.31-.387-.806-.563-.96-.34-3.35-.342-4.214-.002-.676.266-1.083.16-.528-.137.486-.26 3.538-1.254 8.16-2.657.38-.115 1.31-.374 2.07-.576l1.378-.367 1.034.309c.569.17 1.376.422 1.793.56.417.14 1.378.451 2.137.694.758.243 1.503.497 1.654.565s.773.295 1.38.506c2.593.899 8.38 3.282 10.651 4.387 1.394.678 1.36.694 1.145-.502-.222-1.234-.863-4.889-1.046-5.967-.308-1.809-.765-2.493-1.87-2.798-.613-.169-2.049-.234-3.219-.146-1.33.101-1.087-.214.297-.385l2.935-.362c.948-.117 2.81-.315 4.136-.44 1.328-.125 2.708-.263 3.068-.306.54-.066.655-.04.655.146 0 .14-.119.225-.316.225-.43 0-2.834.544-3.135.709-.133.073-.404.33-.601.57-.303.37-.36.576-.36 1.31.001.48.06 1.095.133 1.367.072.272.265 1.385.428 2.473.164 1.088.374 2.456.468 3.038l.476 2.968c.168 1.049.426 2.58.573 3.404s.266 1.602.266 1.731c0 .42-.63.26-2.424-.613-.957-.467-1.763-.848-1.791-.848s-.379-.152-.78-.338c-1.652-.766-2.023-.93-3.21-1.422a299 299 0 0 1-1.516-.633c-1.348-.576-5.316-2.086-6.067-2.309-.151-.045-.896-.3-1.654-.569a88 88 0 0 0-2.62-.872c-.683-.212-1.613-.502-2.068-.645-2.054-.643-4.519-1.276-4.61-1.183-.099.102 1.033 3.414 1.248 3.654.067.074.121.222.121.329s.15.587.333 1.067.565 1.508.849 2.285a198 198 0 0 0 1.408 3.757c.204.518.917 1.09 1.496 1.201.5.097 2.646-.008 3.463-.168.265-.052.449-.03.449.053 0 .078-.233.183-.517.233s-.92.213-1.414.362-1.44.432-2.103.63c-3.108.922-5.505 1.7-5.914 1.919-.124.067-.263.083-.309.037z" style="fill:#ee0f11;fill-opacity:1;stroke-width:1.05512" transform="matrix(.70413 0 0 .70413 -5.352 -5.352)" data-source="https://football-logos.cc"></path><!-- source: https://football-logos.cc --></svg>