<svg xmlns="http://www.w3.org/2000/svg" viewBox="0 0 267.69 267.69"><!-- Source: https://football-logos.cc --><path d="M133.842 0C59.923 0 0 59.923 0 133.842s59.923 133.843 133.842 133.843 133.843-59.923 133.843-133.843S207.762 0 133.842 0" style="fill:#fff" data-source="https://football-logos.cc"></path><path d="M133.842 6.374c-70.399 0-127.468 57.07-127.468 127.468 0 70.4 57.07 127.47 127.468 127.47 70.4 0 127.47-57.07 127.47-127.47 0-70.399-57.07-127.468-127.47-127.468" style="fill:#00599c"></path><circle cx="133.843" cy="133.842" r="88.318" style="fill:#fff" transform="rotate(-65.152 133.842 133.845)"></circle><path d="M142.947 52.384v47.229l-9.105-27.959-9.104 27.959V52.384c2.99-.333 6.027-.51 9.104-.51 3.078 0 6.114.177 9.105.51m-18.21 162.868c2.991.334 6.028.51 9.105.51s6.115-.176 9.105-.51v-51.106l-9.105-6.613-9.104 6.614zm36.42-4.188a82 82 0 0 0 18.21-9.171v-77.426l-18.235 13.33v17.853l9.343 28.493-9.318-6.768zm36.42-25.843c11.38-14.075 18.21-31.965 18.21-51.402s-6.83-37.328-18.21-51.402zm-18.21-119.476a81.8 81.8 0 0 0-18.21-9.172v58.004h18.21zM70.108 82.417v102.804c-11.378-14.076-18.21-31.965-18.21-51.402s6.831-37.328 18.21-51.402m36.42-25.844a81.8 81.8 0 0 0-18.21 9.172v48.832h18.21zm-18.21 145.32a82 82 0 0 0 18.21 9.171v-33.689l-9.318 6.768 9.318-28.614.025-17.732-18.235-13.33z" style="fill:#00599c" data-source="https://football-logos.cc"></path><path d="m151.234 139.46 10.73 33.026-28.122-20.351-28.121 20.351 10.73-33.025-28.122-20.444h34.783l10.73-33.024 10.824 33.024h34.69z"></path><path d="m57.24 70.747 1.85 1.752c1.752-.876 3.309-1.947 5.06-3.796 4.381-4.575 4.673-9.15 1.753-11.972-3.017-2.92-6.813-1.558-10.9 0-2.92 1.07-4.965 1.363-6.425 0-1.363-1.362-1.557-3.212.195-5.159 2.141-2.239 5.256-2.433 7.495-.389l.972-1.07-4.087-3.991c-1.85 1.07-3.796 2.628-5.354 4.282-3.795 3.893-3.99 8.274-1.168 10.999 2.628 2.53 5.646 2.141 9.052.973 3.99-1.265 6.522-2.238 8.176-.681 1.46 1.363 1.168 3.407-.68 5.353-1.461 1.557-3.7 2.725-5.939 3.407zm22.777-16.352c-2.433-3.504-4.283-6.327-6.327-9.44 1.85 0 8.565 2.627 13.627 4.865.68-.486 1.85-1.265 3.114-2.044 1.07-.681 2.239-1.362 2.92-1.654v-.487c-5.937-1.752-14.113-4.477-17.033-5.742.39-1.655.974-3.991 1.655-6.522.584-2.044.875-3.115 1.363-3.893.291-.487.875-1.266 1.654-1.752l-.681-1.168-7.787 4.867.681 1.167c1.363-.779 1.947-.876 2.336-.291.195.291.195.972 0 1.946-.39 2.336-1.557 7.69-2.53 9.733l-1.363-2.238c-2.823-4.478-3.115-5.159-2.823-5.84.292-.682 1.07-1.168 1.752-1.655l-.779-1.07-9.44 5.84.68 1.167c.682-.39 1.46-.778 2.239-.778.78 0 1.168.584 3.99 4.964 2.921 4.672 4.965 8.175 7.787 13.14.487-.292 1.46-.973 2.434-1.558.973-.681 1.947-1.167 2.53-1.557m22.192-14.697.585 2.53c1.946.195 3.795.195 6.326-.389 6.23-1.46 8.955-5.159 7.981-9.052-.973-4.185-4.867-4.964-9.149-5.937-3.017-.78-4.866-1.558-5.353-3.504-.39-1.85.389-3.602 2.92-4.185 3.017-.78 5.742.778 6.52 3.698l1.363-.292-1.265-5.645c-2.044-.097-4.574.097-6.715.584-5.354 1.265-7.982 4.77-7.008 8.662.778 3.504 3.601 4.867 7.008 5.84 4.087 1.071 6.715 1.558 7.202 3.797.487 1.946-.778 3.504-3.407 4.088-2.141.486-4.671.194-6.813-.39zm28.032-1.753c-.584-5.741-1.07-9.733-1.46-15.28-.292-5.16-.292-5.84.292-6.327s1.558-.584 2.24-.682l-.099-1.362-11.095.779.097 1.362c.779 0 1.655 0 2.239.292.778.487.876 1.07 1.265 6.327.39 5.45.487 9.538.681 15.28.584-.096 1.752-.194 2.92-.291 1.168-.098 2.239-.098 2.92-.098m23.068-.194c-.097.487-1.168.682-2.336.487-4.672-.584-7.981-4.478-7.105-11.583.681-6.034 4.77-9.928 9.539-9.344 3.504.487 5.158 2.823 4.963 5.743l1.363.195.779-5.84c-2.044-.78-4.77-1.363-7.008-1.655-7.982-.973-14.99 2.92-15.865 10.706-1.071 7.981 4.769 12.557 11.485 13.433 3.31.389 5.645.097 9.246.583.39-3.504.877-7.203 1.46-10.706l-5.937-.779c0 2.823-.292 5.938-.584 8.76m27.935 3.017c0-4.185.68-11.777 1.363-16.352l-8.956-3.893-.68 1.168c1.46.682 1.849 1.168 2.044 1.655.097.584 0 1.265-.682 2.628-1.557 3.017-7.105 11.388-10.414 16.352.292.194 2.822.973 3.114 1.07 2.823-5.256 7.787-14.016 9.441-16.644 0 5.16-.681 13.822-1.557 20.05l2.238 1.17c3.797-3.992 10.805-10.22 14.795-13.336-1.168 2.92-5.256 12.07-7.883 17.423.292.194 4.769 3.212 5.158 3.407 1.947-5.646 5.84-15.087 7.398-18.104.68-1.363 1.07-1.85 1.654-2.142.39-.194 1.07-.097 2.53.585l.585-1.169-7.982-4.672c-3.212 3.31-9.052 8.37-12.166 10.804m23.554 18.59c1.266 1.266 2.239 2.143 3.504 3.408a203 203 0 0 1-2.822 7.007c.486.487 4.087 4.283 4.574 4.77h.195c1.947-6.619 6.23-18.785 8.468-24.43l-5.84-5.451-.876.973c1.168 1.168 1.46 2.044.973 2.628-.292.195-.584.486-.973.681-3.699 1.655-14.405 6.327-19.759 8.274l-.097.195c.39.389 1.07.973 1.46 1.265.39.389.778.68 1.07 1.07 1.753-1.07 3.991-2.238 6.62-3.504a101 101 0 0 1 3.503 3.115m1.363-1.07a44 44 0 0 1-3.017-3.018c3.503-1.655 7.105-3.406 9.538-4.38-.778 2.628-2.239 6.327-3.6 9.928-1.17-.876-1.85-1.557-2.921-2.53M63.86 199.129c-4.867-5.451-12.265-6.326-18.105-1.07-5.061 4.476-5.45 11.484-.68 16.74 4.865 5.451 12.263 6.424 18.103 1.265 5.159-4.671 5.45-11.68.681-16.935m-6.035 14.016c-4.38 3.894-8.273 4.185-10.803 1.363-2.92-3.213-.974-9.053 4.087-13.627 4.478-3.99 8.274-4.38 10.805-1.557 2.725 3.113 1.46 8.858-4.089 13.82M70.186 231.639c1.946-3.116 3.99-6.327 6.715-10.221 2.92-4.379 3.408-4.867 4.186-4.867.682-.096 1.558.488 2.141.877l.779-1.07-9.343-6.327-.682 1.166c.584.39 1.362.975 1.557 1.657.293.681 0 1.36-2.92 5.644-2.823 4.186-5.742 8.078-8.954 12.361 1.946 1.168 4.185 2.725 6.618 4.381 2.336 1.557 4.575 3.016 6.618 4.574l1.558-2.336c-2.92-1.265-5.061-2.433-6.813-3.601-1.363-.973-1.85-1.557-1.46-2.238M102.306 224.047c-6.813-2.531-13.822.193-16.45 7.592-2.335 6.326.682 12.652 7.3 15.086 6.814 2.53 13.822-.098 16.547-7.397 2.336-6.521-.681-12.85-7.397-15.281m1.265 15.183c-1.946 5.645-5.255 7.592-8.857 6.327-4.088-1.46-5.16-7.494-2.725-14.016 2.043-5.549 5.158-7.69 8.76-6.326 3.893 1.361 5.45 7.008 2.822 14.015M130.922 244.584c-1.753-3.797-3.99-10.025-5.256-14.6l-9.928-1.168-.098 1.362c1.558.097 2.142.293 2.434.681.389.487.584 1.07.486 2.725-.195 3.31-2.53 12.654-3.601 18.592.292 0 3.018.486 3.31.584.389-6.035 2.14-16.06 2.627-19.078 2.044 4.672 5.159 13.92 6.911 19.953l1.946.097c1.85-5.255 6.035-14.697 8.469-19.173.097 3.113.68 13.138.486 19.173.293 0 4.672-.29 6.035-.388-.487-5.938-1.363-15.574-1.168-18.883.097-1.557.195-2.14.681-2.629.292-.389.876-.584 2.531-.486v-1.362l-9.442.68c-1.557 4.283-4.574 10.416-6.423 13.92M175.792 233.877c-1.752-6.62-7.884-10.123-14.795-8.274-7.008 1.85-11.193 8.079-9.15 15.67 1.753 6.522 7.788 10.026 14.698 8.176 7.008-1.848 11.291-7.98 9.247-15.572m-8.663 13.724c-4.185 1.07-8.467-3.212-10.317-9.93-1.557-5.741-.097-9.245 3.602-10.218 3.893-1.07 8.467 2.725 10.317 9.83 1.557 5.742.097 9.344-3.602 10.319M201.78 223.656c-1.557-2.53-2.92-4.574-4.77-7.592-2.14-3.308-2.433-3.892-2.14-4.671.194-.584.875-1.07 1.557-1.557l-.682-1.168-6.813 4.281.682 1.17c.778-.488 1.556-.877 2.238-.78.681.098 1.168.487 3.31 3.893 1.848 2.92 3.406 5.647 4.574 7.494 2.336 3.7 1.363 6.424-1.655 8.274-2.725 1.654-5.645 1.559-8.078-2.043-1.46-2.14-2.53-3.894-4.186-6.424-2.725-4.478-3.017-5.062-2.725-5.84.292-.584 1.07-1.168 1.655-1.558l-.681-1.168-9.442 5.937.681 1.168c.682-.486 1.46-.875 2.142-.875.876.098 1.265.584 4.088 5.06 1.557 2.532 2.628 4.382 4.088 6.718 2.822 4.476 7.007 4.865 12.75 1.36 5.062-3.21 6.23-7.103 3.407-11.679M211.124 191.828c-1.85 1.17-3.601 2.824-5.16 4.479-5.157 5.937-5.546 13.627.39 18.785 6.035 5.256 13.14 3.017 18.396-3.018 1.46-1.654 2.628-3.406 3.7-5.256l-1.948-1.654-.195.098c-.389 1.85-1.265 3.6-2.53 5.158-3.114 3.602-8.468 4.185-13.919-.486-4.574-3.993-5.742-8.955-2.628-12.557 2.434-2.725 5.061-2.434 7.3-.682l.974-1.07z" style="fill:#fff" data-source="https://football-logos.cc"></path><!-- source: https://football-logos.cc --></svg>