<svg xmlns="http://www.w3.org/2000/svg" xml:space="preserve" id="Layer_1" x="0" y="0" version="1.1" viewBox="2.32 3 90.15 110.07"><!-- Source: https://football-logos.cc --><style data-source="https://football-logos.cc">.st47{fill:#165928}</style><g id="XMLID_300_" data-source="https://football-logos.cc"><g id="XMLID_507_"><g id="XMLID_522_"><linearGradient id="XMLID_22_" x1="38.468" x2="36.792" y1="13.161" y2="16.367" gradientUnits="userSpaceOnUse"><stop offset="0" style="stop-color:#d89b22"></stop><stop offset=".281" style="stop-color:#b0801c"></stop><stop offset=".592" style="stop-color:#8b6616"></stop><stop offset=".843" style="stop-color:#735612"></stop><stop offset="1" style="stop-color:#6b5011"></stop></linearGradient><path id="XMLID_534_" d="m34.8 15.2 5.1 3.6-5.1-7.1z" style="fill:url(#XMLID_22_)"></path><linearGradient id="XMLID_23_" x1="40.063" x2="38.206" y1="6.824" y2="12.76" gradientUnits="userSpaceOnUse"><stop offset="0" style="stop-color:#d89b22"></stop><stop offset=".306" style="stop-color:#d69922"></stop><stop offset=".484" style="stop-color:#cd9420"></stop><stop offset=".63" style="stop-color:#bf8a1e"></stop><stop offset=".757" style="stop-color:#ab7c1b"></stop><stop offset=".873" style="stop-color:#916a17"></stop><stop offset=".979" style="stop-color:#725512"></stop><stop offset="1" style="stop-color:#6b5011"></stop></linearGradient><path id="XMLID_533_" d="m43.1 9-8.3 2.7 3.3 1.1z" style="fill:url(#XMLID_23_)"></path><linearGradient id="XMLID_24_" x1="35.894" x2="35.494" y1="4.474" y2="11.536" gradientUnits="userSpaceOnUse"><stop offset="0" style="stop-color:#f6bc44"></stop><stop offset=".363" style="stop-color:#f4ba43"></stop><stop offset=".575" style="stop-color:#ebb33e"></stop><stop offset=".747" style="stop-color:#dda635"></stop><stop offset=".898" style="stop-color:#c99529"></stop><stop offset="1" style="stop-color:#b7851e"></stop></linearGradient><path id="XMLID_532_" d="m36.8 8.9-2-5.9v8.7z" style="fill:url(#XMLID_24_)"></path><linearGradient id="XMLID_25_" x1="-1568.029" x2="-1569.705" y1="13.16" y2="16.367" gradientTransform="matrix(-1 0 0 1 -1536.914 0)" gradientUnits="userSpaceOnUse"><stop offset="0" style="stop-color:#d89b22"></stop><stop offset=".183" style="stop-color:#d49821"></stop><stop offset=".378" style="stop-color:#c78f1f"></stop><stop offset=".577" style="stop-color:#b2811c"></stop><stop offset=".781" style="stop-color:#946c17"></stop><stop offset=".985" style="stop-color:#6e5211"></stop><stop offset="1" style="stop-color:#6b5011"></stop></linearGradient><path id="XMLID_531_" d="m34.8 15.2-5.2 3.6 5.2-7.1z" style="fill:url(#XMLID_25_)"></path><linearGradient id="XMLID_26_" x1="-1566.432" x2="-1568.289" y1="6.825" y2="12.759" gradientTransform="matrix(-1 0 0 1 -1536.914 0)" gradientUnits="userSpaceOnUse"><stop offset="0" style="stop-color:#d89b22"></stop><stop offset=".152" style="stop-color:#ce9420"></stop><stop offset=".412" style="stop-color:#b3811c"></stop><stop offset=".746" style="stop-color:#876315"></stop><stop offset="1" style="stop-color:#61480f"></stop></linearGradient><path id="XMLID_530_" d="m26.5 9 8.3 2.7-3.3 1.1z" style="fill:url(#XMLID_26_)"></path><linearGradient id="XMLID_27_" x1="-1570.6" x2="-1571.001" y1="4.474" y2="11.536" gradientTransform="matrix(-1 0 0 1 -1536.914 0)" gradientUnits="userSpaceOnUse"><stop offset="0" style="stop-color:#d89b22"></stop><stop offset=".386" style="stop-color:#d69922"></stop><stop offset=".61" style="stop-color:#cd9421"></stop><stop offset=".793" style="stop-color:#bf8b1f"></stop><stop offset=".953" style="stop-color:#ab7e1d"></stop><stop offset="1" style="stop-color:#a4791c"></stop></linearGradient><path id="XMLID_529_" d="M32.7 8.9 34.8 3v8.7z" style="fill:url(#XMLID_27_)"></path><linearGradient id="XMLID_28_" x1="36.657" x2="37.931" y1="18.534" y2="12.67" gradientUnits="userSpaceOnUse"><stop offset=".4" style="stop-color:#d89b22"></stop><stop offset=".665" style="stop-color:#d69a22"></stop><stop offset=".761" style="stop-color:#cf9521"></stop><stop offset=".829" style="stop-color:#c48d1f"></stop><stop offset=".884" style="stop-color:#b3811c"></stop><stop offset=".931" style="stop-color:#9d7219"></stop><stop offset=".972" style="stop-color:#826015"></stop><stop offset="1" style="stop-color:#6b5011"></stop></linearGradient><path id="XMLID_527_" d="m34.8 11.7 5.2 7.1-1.8-6z" style="fill:url(#XMLID_28_)"></path><linearGradient id="XMLID_29_" x1="39.03" x2="37.246" y1="10.261" y2="12.736" gradientUnits="userSpaceOnUse"><stop offset="0" style="stop-color:#fcca55"></stop><stop offset=".388" style="stop-color:#fac853"></stop><stop offset=".614" style="stop-color:#f4c04a"></stop><stop offset=".798" style="stop-color:#ebb33c"></stop><stop offset=".959" style="stop-color:#dda128"></stop><stop offset="1" style="stop-color:#d89b22"></stop></linearGradient><path id="XMLID_526_" d="m36.8 8.9-2 2.8L43.1 9z" style="fill:url(#XMLID_29_)"></path><linearGradient id="XMLID_30_" x1="-1569.841" x2="-1568.566" y1="18.534" y2="12.67" gradientTransform="matrix(-1 0 0 1 -1536.914 0)" gradientUnits="userSpaceOnUse"><stop offset="0" style="stop-color:#d89b22"></stop><stop offset=".16" style="stop-color:#cf9421"></stop><stop offset=".428" style="stop-color:#b5831d"></stop><stop offset=".767" style="stop-color:#8b6616"></stop><stop offset="1" style="stop-color:#6b5011"></stop></linearGradient><path id="XMLID_524_" d="m34.8 11.7-3.3 1.1-1.8 6z" style="fill:url(#XMLID_30_)"></path><linearGradient id="XMLID_31_" x1="29.697" x2="33.084" y1="10.693" y2="9.454" gradientUnits="userSpaceOnUse"><stop offset="0" style="stop-color:#fcca55"></stop><stop offset=".388" style="stop-color:#fac853"></stop><stop offset=".614" style="stop-color:#f4c04a"></stop><stop offset=".798" style="stop-color:#ebb33c"></stop><stop offset=".959" style="stop-color:#dda128"></stop><stop offset="1" style="stop-color:#d89b22"></stop></linearGradient><path id="XMLID_523_" d="m32.7 8.9 2.1 2.8L26.5 9z" style="fill:url(#XMLID_31_)"></path></g><g id="XMLID_508_"><linearGradient id="XMLID_32_" x1="63.692" x2="62.016" y1="13.16" y2="16.367" gradientUnits="userSpaceOnUse"><stop offset="0" style="stop-color:#d89b22"></stop><stop offset=".281" style="stop-color:#b0801c"></stop><stop offset=".592" style="stop-color:#8b6616"></stop><stop offset=".843" style="stop-color:#735612"></stop><stop offset="1" style="stop-color:#6b5011"></stop></linearGradient><path id="XMLID_521_" d="m60 15.2 5.2 3.6-5.2-7.1z" style="fill:url(#XMLID_32_)"></path><linearGradient id="XMLID_33_" x1="65.288" x2="63.43" y1="6.823" y2="12.761" gradientUnits="userSpaceOnUse"><stop offset="0" style="stop-color:#d89b22"></stop><stop offset=".306" style="stop-color:#d69922"></stop><stop offset=".484" style="stop-color:#cd9420"></stop><stop offset=".63" style="stop-color:#bf8a1e"></stop><stop offset=".757" style="stop-color:#ab7c1b"></stop><stop offset=".873" style="stop-color:#916a17"></stop><stop offset=".979" style="stop-color:#725512"></stop><stop offset="1" style="stop-color:#6b5011"></stop></linearGradient><path id="XMLID_520_" d="M68.4 9 60 11.7l3.3 1.1z" style="fill:url(#XMLID_33_)"></path><linearGradient id="XMLID_34_" x1="61.12" x2="60.72" y1="4.474" y2="11.536" gradientUnits="userSpaceOnUse"><stop offset="0" style="stop-color:#f6bc44"></stop><stop offset=".363" style="stop-color:#f4ba43"></stop><stop offset=".575" style="stop-color:#ebb33e"></stop><stop offset=".747" style="stop-color:#dda635"></stop><stop offset=".898" style="stop-color:#c99529"></stop><stop offset="1" style="stop-color:#b7851e"></stop></linearGradient><path id="XMLID_519_" d="M62.1 8.9 60 3v8.7z" style="fill:url(#XMLID_34_)"></path><linearGradient id="XMLID_35_" x1="-1593.25" x2="-1594.927" y1="13.159" y2="16.367" gradientTransform="matrix(-1 0 0 1 -1536.914 0)" gradientUnits="userSpaceOnUse"><stop offset="0" style="stop-color:#d89b22"></stop><stop offset=".183" style="stop-color:#d49821"></stop><stop offset=".378" style="stop-color:#c78f1f"></stop><stop offset=".577" style="stop-color:#b2811c"></stop><stop offset=".781" style="stop-color:#946c17"></stop><stop offset=".985" style="stop-color:#6e5211"></stop><stop offset="1" style="stop-color:#6b5011"></stop></linearGradient><path id="XMLID_518_" d="m60 15.2-5.1 3.6 5.1-7.1z" style="fill:url(#XMLID_35_)"></path><linearGradient id="XMLID_36_" x1="-1591.657" x2="-1593.514" y1="6.825" y2="12.759" gradientTransform="matrix(-1 0 0 1 -1536.914 0)" gradientUnits="userSpaceOnUse"><stop offset="0" style="stop-color:#d89b22"></stop><stop offset=".152" style="stop-color:#ce9420"></stop><stop offset=".412" style="stop-color:#b3811c"></stop><stop offset=".746" style="stop-color:#876315"></stop><stop offset="1" style="stop-color:#61480f"></stop></linearGradient><path id="XMLID_517_" d="m51.7 9 8.3 2.7-3.3 1.1z" style="fill:url(#XMLID_36_)"></path><linearGradient id="XMLID_37_" x1="-1595.821" x2="-1596.221" y1="4.474" y2="11.536" gradientTransform="matrix(-1 0 0 1 -1536.914 0)" gradientUnits="userSpaceOnUse"><stop offset="0" style="stop-color:#d89b22"></stop><stop offset=".386" style="stop-color:#d69922"></stop><stop offset=".61" style="stop-color:#cd9421"></stop><stop offset=".793" style="stop-color:#bf8b1f"></stop><stop offset=".953" style="stop-color:#ab7e1d"></stop><stop offset="1" style="stop-color:#a4791c"></stop></linearGradient><path id="XMLID_516_" d="M58 8.9 60 3v8.7z" style="fill:url(#XMLID_37_)"></path><linearGradient id="XMLID_38_" x1="61.88" x2="63.155" y1="18.534" y2="12.671" gradientUnits="userSpaceOnUse"><stop offset=".4" style="stop-color:#d89b22"></stop><stop offset=".665" style="stop-color:#d69a22"></stop><stop offset=".761" style="stop-color:#cf9521"></stop><stop offset=".829" style="stop-color:#c48d1f"></stop><stop offset=".884" style="stop-color:#b3811c"></stop><stop offset=".931" style="stop-color:#9d7219"></stop><stop offset=".972" style="stop-color:#826015"></stop><stop offset="1" style="stop-color:#6b5011"></stop></linearGradient><path id="XMLID_513_" d="m60 11.7 5.2 7.1-1.8-6z" style="fill:url(#XMLID_38_)"></path><linearGradient id="XMLID_39_" x1="64.252" x2="62.468" y1="10.261" y2="12.737" gradientUnits="userSpaceOnUse"><stop offset="0" style="stop-color:#fcca55"></stop><stop offset=".388" style="stop-color:#fac853"></stop><stop offset=".614" style="stop-color:#f4c04a"></stop><stop offset=".798" style="stop-color:#ebb33c"></stop><stop offset=".959" style="stop-color:#dda128"></stop><stop offset="1" style="stop-color:#d89b22"></stop></linearGradient><path id="XMLID_512_" d="M62.1 8.9 60 11.7 68.4 9z" style="fill:url(#XMLID_39_)"></path><linearGradient id="XMLID_40_" x1="-1595.063" x2="-1593.788" y1="18.535" y2="12.671" gradientTransform="matrix(-1 0 0 1 -1536.914 0)" gradientUnits="userSpaceOnUse"><stop offset="0" style="stop-color:#d89b22"></stop><stop offset=".16" style="stop-color:#cf9421"></stop><stop offset=".428" style="stop-color:#b5831d"></stop><stop offset=".767" style="stop-color:#8b6616"></stop><stop offset="1" style="stop-color:#6b5011"></stop></linearGradient><path id="XMLID_510_" d="m60 11.7-3.3 1.1-1.8 6z" style="fill:url(#XMLID_40_)"></path><linearGradient id="XMLID_41_" x1="54.921" x2="58.304" y1="10.692" y2="9.455" gradientUnits="userSpaceOnUse"><stop offset="0" style="stop-color:#fcca55"></stop><stop offset=".388" style="stop-color:#fac853"></stop><stop offset=".614" style="stop-color:#f4c04a"></stop><stop offset=".798" style="stop-color:#ebb33c"></stop><stop offset=".959" style="stop-color:#dda128"></stop><stop offset="1" style="stop-color:#d89b22"></stop></linearGradient><path id="XMLID_509_" d="m58 8.9 2 2.8L51.7 9z" style="fill:url(#XMLID_41_)"></path></g></g><g id="XMLID_301_"><path id="XMLID_506_" d="M47.3 35.9c-17.6 0-31.9 14.3-31.9 31.9s14.3 31.9 31.9 31.9 31.9-14.3 31.9-31.9c.1-17.6-14.2-31.9-31.9-31.9" style="fill:none"></path><path id="XMLID_505_" d="M92.1 68c0 24.7-20 44.7-44.7 44.7S2.7 92.7 2.7 68s20-44.7 44.7-44.7 44.7 20 44.7 44.7z" style="fill:#fff;stroke:#155a27;stroke-width:.75"></path><g id="XMLID_455_"><path id="XMLID_504_" d="M21.5 95c-.6.7-.8 1.4-.4 1.7.4.4 1 .1 1.6-.6.6-.6.8-1.3.4-1.7s-1-.1-1.6.6" class="st47"></path><path id="XMLID_503_" d="M15.3 85c-.3-.5-1-.4-1.8 0-.8.5-1.2 1-.9 1.5s1 .4 1.8-.1c.8-.4 1.2-.9.9-1.4" class="st47"></path><path id="XMLID_502_" d="M71.3 41.3c.4.4 1 .1 1.7-.6.6-.6.8-1.3.4-1.7s-1.1-.1-1.7.6c-.6.6-.8 1.3-.4 1.7" class="st47"></path><path id="XMLID_501_" d="M12.7 50.5c.2.2.6.5.8.7l.7.6.4-.8-.9-.2c-.3-.1-.7-.2-1-.3" class="st47"></path><path id="XMLID_500_" d="M42 32.6c.6-.1.7-.7.6-1.7-.1-.8-.5-1.4-1.1-1.4-.6.1-.8.8-.6 1.6.1 1 .5 1.6 1.1 1.5" class="st47"></path><path id="XMLID_499_" d="M40.4 102.8c-.1.3-.3.7-.4 1l-.4.9.9.2v-1c-.1-.3-.1-.8-.1-1.1" class="st47"></path><path id="XMLID_498_" d="M18.1 47.3c.3-.4.1-.9-.4-1.4l-1 1.5c.5.4 1.1.4 1.4-.1" class="st47"></path><path id="XMLID_497_" d="M17 45.5c-.5-.3-1.1-.3-1.4.1s-.1.9.4 1.4z" class="st47"></path><path id="XMLID_496_" d="m77.4 90.7.6-.7-.9-.4c-.3-.1-.7-.3-1-.5.2.2.5.6.7.8z" class="st47"></path><path id="XMLID_495_" d="M32.6 100.3c-.5-.2-1.1.3-1.4 1-.4.9-.3 1.5.2 1.8.5.2 1-.2 1.4-1.1.3-.7.3-1.4-.2-1.7" class="st47"></path><path id="XMLID_494_" d="M77.6 48.5c.3.5 1 .4 1.8-.2.7-.5 1.1-1 .8-1.5s-1-.4-1.7.1c-.9.6-1.2 1.2-.9 1.6" class="st47"></path><path id="XMLID_456_" d="M47.4 25.9C24.2 25.9 5.3 44.7 5.3 68c0 23.2 18.8 42.1 42.1 42.1 23.2 0 42.1-18.8 42.1-42.1S70.6 25.9 47.4 25.9m35.4 23.6 1.5 3.3-.9.4-.7-1.6-.7 1.7-1.9-.5.8 1.8-.9.4-1.6-3.5.6-.3 2.3.6.9-2zm-3.5 18.3c0 17.6-14.3 31.9-31.9 31.9S15.5 85.4 15.5 67.8s14.3-31.9 31.9-31.9 31.9 14.3 31.9 31.9M81 46.4c.9 1.4.2 2.6-.7 3.2-1.5.9-2.7.6-3.4-.6-.9-1.4-.3-2.6.8-3.3 1-.7 2.4-.6 3.3.7m-2.1-2.9-.8.6-1.1-1.2-2.9 2.5-.9-1.1 3.7-3.1zM74 38.3c1.3 1.1.8 2.5.1 3.3-1.1 1.3-2.4 1.3-3.5.4-1.2-1.1-.9-2.4-.1-3.4.9-1 2.3-1.4 3.5-.3m-4-3-1.5 4.8-1.3-.8 1-2.6c.1-.3.3-.7.4-1l-.8.8-2 1.9-1.3-.8 3.9-3.2zm-5-3-.8 5-1.4-.6.6-2.7c.1-.3.2-.7.3-1-.2.2-.5.6-.6.9L61.4 36l-1.4-.7 3.4-3.8zm-7.6-2.8 1.5.5.1 1.2v1c.2-.3.4-.6.6-.8l.7-.9 1.4.5-2.4 2.3-.5 1.7-1.4-.4.6-1.8zm-5.5 3.1 1.8-1.5-1.1-1.9.1-.7 3.6.6-.2.9-1.7-.3.9 1.5-1.5 1.3 2 .4-.2 1-3.8-.7zM45.1 29v-.7h3.6v1h-1.8l1.2 1.3-1.3 1.5h2v1H45v-.7l1.5-1.8zm-3.7-.3c1.7-.3 2.5.9 2.6 2 .3 1.7-.6 2.7-2 2.9-1.6.2-2.5-.8-2.7-2.1 0-1.3.6-2.6 2.1-2.8m-6 1.4.6 2c0-.2.1-.4.1-.7l.4-1.7 1.6-.5-.9 2.5 2.3 2.2-1.5.5-1.5-1.6-.2.5.4 1.4-1.3.4-1.4-4.6zm-3.2 1.1 1.9 4.4-1.3.6-1.9-4.4zm-2.6 1.2.5.9-1.1.6 1.9 3.3-1.2.7-1.9-3.3-1.1.6-.5-.9zm-7 4.5 1.1 1.5 1.1-.9-1.1-1.5 1.1-.9 2.9 3.8-1.1.9-1.2-1.5-1.1.9 1.2 1.5-1.1.9-2.9-3.8zm-3.4 3 4.4 2.4-1.1 1.1-2.4-1.5c-.2-.2-.6-.4-.9-.6.2.3.5.6.6.9l1.5 2.3-1 1.1-2.3-4.4zM14.9 45c1-1.4 2.4-1.1 3.3-.5 1.4 1 1.5 2.3.7 3.4-.9 1.3-2.3 1.2-3.4.4-1.1-.7-1.6-2-.6-3.3m-2.7 4.2 4.9 1-.7 1.3-1.1-.2-.6 1.1.8.7-.6 1.3-3.6-3.5zM8.6 70.5c0-1 .8-1.9 1.8-1.9s1.8.8 1.8 1.9c0 1-.8 1.9-1.8 1.9s-1.8-.8-1.8-1.9M11.8 87c-.8-1.4-.1-2.6 1-3.2 1.1-.7 2.5-.6 3.3.8.9 1.5 0 2.6-.9 3.2-1.5.8-2.7.4-3.4-.8m5 6.7 1.2-1.1c.3-.3.8-.7 1.2-1.1-.5.3-1.1.5-1.5.7l-1.6.6-.6-.8.9-1.4c.2-.3.6-.9 1-1.3-.5.3-1 .7-1.3 1l-1.3 1-.8-1 4-2.8 1.1 1.3-.9 1.3c-.3.5-.7 1-1 1.4.5-.3 1-.5 1.6-.8l1.4-.6 1 1.2-3.5 3.4zm3.7 3.7c-1.2-1.1-1-2.4-.1-3.4.8-1 2.2-1.4 3.4-.3 1.3 1.1.9 2.5.2 3.3-1.2 1.3-2.4 1.3-3.5.4m5.7 4.1.1-1.9c0-.5.1-1.2.2-1.7-.2.4-.6 1.1-1.1 1.9l-.5.9-1.1-.7 2.6-4.1 1.2.8-.1 1.9c0 .4-.1 1.1-.2 1.6.2-.4.6-1.2 1.1-1.9l.5-.8 1.1.7-2.6 4.1zm7.9 1.1c-.7 1.6-1.9 2-3.2 1.4-1.5-.6-1.6-2-1.1-3.2s1.7-2 3.2-1.3c1.6.7 1.6 2.1 1.1 3.1m.6 2.8 1.4-4.6 1.4.4-1.4 4.6zm5.8 1.4-.1-1.1-1.2-.2-.5 1-1.4-.3 2.3-4.5 1.7.3.5 5zm8.1.5-.6-2.7c-.1-.3-.1-.7-.2-1-.1.3-.1.8-.2 1.1l-.5 2.7h-1.5l1.4-4.9h1.8l1.5 4.8zm3.1-.2-.7-4.8 3.1-.5.1.9-1.7.3.1.9 1.6-.2.1.9-1.6.2.2 1.1 1.8-.3.2.9zm7.2-1.5-1.4.4-.5-1.8-2.3-2.5 1.5-.4.7 1c.2.3.4.5.6.8v-1l.1-1.2 1.4-.4-.7 3.3zm5.2-2.1-1.7-1.4-.1.5.6 1.4-1.3.6-2-4.4 1.3-.6.9 1.9v-.7l.2-1.7 1.5-.6-.5 2.5 2.5 1.9zm4.8-2.6-.5-.8c.2-.4.2-.9-.3-1.6-.5-.8-1.1-1.1-1.5-.8s-.5.9.1 1.8c.5.8.9 1 1.4 1l.5.7-1.8 1.1-.5-.8.6-.4c-.6-.1-1.1-.4-1.5-1.1-.7-1.1-.5-2.4.8-3.2 1.2-.8 2.5-.4 3.2.7.4.7.5 1.3.3 1.9l.6-.4.5.8zm2.9-2-.4-.5v-2.3l-2.2-.3-.5-.6 2.7-2.3.6.7-1.3 1.1 1.8.3v2l1.5-1.3.6.7zm4-3.6L72.4 92l1-1 3.5 3.4zm4-4.5-1-.4-.7 1 .7.9-.9 1.1-2.9-4.1 1.1-1.4 4.7 1.9zm1.5-2.1-.6-.3-.7-2.3-2.2.4-.6-.4L79 83l.8.5-.9 1.5 1.8-.3.6 1.9 1-1.7.8.5zm2.8-16.3c-1 0-1.8-.8-1.8-1.9 0-1 .8-1.9 1.8-1.9s1.8.8 1.8 1.9-.8 1.9-1.8 1.9" class="st47"></path></g><g id="XMLID_302_"><path id="XMLID_454_" d="m49.6 66.3-.7 1.1h1.2v-1.1c0-.3 0-.7.1-1-.2.4-.4.7-.6 1" class="st47"></path><path id="XMLID_453_" d="M56.1 66.2c.3-.1.5-.4.5-.7s-.2-.7-.6-.7c-.5 0-.6.3-.6.6-.1.4.2.7.7.8" class="st47"></path><path id="XMLID_452_" d="M43.9 64.9c-.4 0-.7.4-.7 1 0 .4.2.9.7.9.3 0 .5-.1.6-.2s.1-.2.1-.6c0-.6-.3-1.1-.7-1.1" class="st47"></path><path id="XMLID_304_" d="M67.4 68.9s-.5-.2.1-.5c1.1-.6 4.6-2.7 3.6-7.5-1.1-4.8-5.5-6.1-7.3-5.8-1.9.3-5.2 1.2-7.2 3.7s-2.9 1.3-2.9 1.3-.4-.9.8-2.1 5-4.9 5-9.1c0-2 .5-8.2-5.7-8.4-3.6-.1-5.6 2.2-6.4 3.4-.6.9-1.3-.1-1.3-.1s-.5-.8-2-2.3-5.4-1.5-6.9-.7-4.2 2.8-3.5 7.6 6.8 10.3 7.2 11 2.3 1.9 1.7 2.3c-.7.4-1.2-.1-1.2-.1s-6.5-5.4-10.6-5.6c-4.1-.3-7 3.9-7.2 7-.1 3.2 3.1 6.1 3.1 6.1s.7.7.6 1.1-1.8 3.2-1.9 4.5c-.1 1.5-.3 6.1 4.4 7.6 4.6 1.5 12.3-4.5 14.7-8.4s2-.7 2-.7.5 8.9-2.5 11.9c-2.9 2.9-4.6 3.6-5.3 4.3-.7.5-1.6 2.6-.8 3.6.8 1.1 3 .9 3.7.3.7-.7 3.2-2.7 4.5-5.7 1.3-3.1 2.6-14.1 2.6-14.1s0-1.9.6-1.5c.7.4 6.9 7.9 10 9 5.2 1.9 11.2.3 11.4-6.3.1-4.5-3.3-5.8-3.3-5.8m-28.2.9h-1.7v-4.6l-1.3.5-.3-1.1 1.8-.7h1.5zm5.9-.7c-.6.4-1.3.7-2.2.7h-.7v-1.1h.7c.3 0 .7-.1 1-.3.4-.2.6-.6.7-1-.3.2-.6.3-1.1.3-1.1 0-2-.7-2-1.8 0-1 .9-2.1 2.5-2.1s2.4 1 2.4 2.4c0 1.5-.6 2.4-1.3 2.9m7.4-.6h-.7v1.3h-1.6v-1.3h-2.7v-.9L50 64h1.9v3.4h.7v1.1zm3.4 1.4c-1.5 0-2.4-.7-2.4-1.6 0-.7.5-1.2 1.1-1.5-.6-.3-.9-.8-.9-1.3 0-1 1-1.6 2.3-1.6s2.2.6 2.2 1.5c0 .4-.2.9-1 1.3.7.2 1.2.8 1.2 1.5 0 1.1-1.1 1.7-2.5 1.7" class="st47"></path><path id="XMLID_303_" d="M55.8 67.3c-.4.1-.6.5-.6.9s.3.8.7.8c.5 0 .7-.4.7-.7 0-.6-.4-.9-.8-1" class="st47"></path></g></g></g><!-- source: https://football-logos.cc --></svg>