<svg xmlns="http://www.w3.org/2000/svg" xml:space="preserve" viewBox="16 12 796.67 823.42"><!-- Source: https://football-logos.cc --><path d="M761.082 556.164c11.28-35.635 15.569-74.086 11.412-113.633l47.515 39.966 44.22-49.606c5.527 52.572-.175 103.699-15.169 151.069zM238.911 556.164c-11.279-35.635-15.568-74.086-11.412-113.634l-47.515 39.967-44.222-49.607c-5.525 52.572.176 103.7 15.17 151.07z" style="fill:#fff" transform="translate(-85.665 -14.579)" data-source="https://football-logos.cc"></path><path d="M857.919 427.266s-30.358 34.057-38.755 43.475c-9.463-7.961-57.269-48.17-57.269-48.17l2.193 20.844c3.943 37.5.221 74.555-11.065 110.2l-2.552 8.063 104.101 32.888 2.549-8.054c15.82-49.988 21.04-101.946 15.516-154.505l-1.998-19.009zm-31.6 60.856 31.038-34.818a367 367 0 0 1 .505 19.155c0 34.183-4.88 67.937-14.466 100.848l-72.013-22.754c7.281-25.564 11.131-51.707 11.131-78.242 0-3.506-.149-7.023-.277-10.539l38.613 32.48zM127.356 432.007c-5.524 52.563-.302 104.521 15.518 154.506l2.55 8.054 104.099-32.888-2.552-8.063c-11.283-35.648-15.006-72.7-11.064-110.202l2.191-20.843-57.269 48.171-51.475-57.744zm14.775 40.451c0-6.37.172-12.757.506-19.155l36.503 40.949 38.615-32.481c-.127 3.515-.277 7.032-.277 10.537 0 26.536 3.852 52.68 11.129 78.244l-72.011 22.754c-9.587-32.909-14.465-66.662-14.465-100.848" style="fill:#15872e" transform="translate(-85.665 -14.579)"></path><path d="M887.904 548.395c-47.846 169.18-203.398 293.152-387.888 293.152-184.511 0-340.069-123.969-387.917-293.152l88.774-25.141c36.904 130.461 156.86 226.053 299.141 226.053 142.27 0 262.225-95.602 299.121-226.066z" style="fill:#fff" transform="translate(-85.665 -14.579)"></path><path d="m670.866 158.453 97.719 97.718c-30.147 40.013-48.017 89.796-48.017 143.753 0 26.863 4.431 52.693 12.6 76.797l.013-.004c4.844 14.289 7.469 29.579 7.469 45.486 0 53.941-30.13 100.849-74.479 124.805l-.007-.003a347.8 347.8 0 0 1-90.467 33.66v-.003c-29.853 6.581-56.176 23.926-75.681 47.046-19.521-23.12-45.844-40.466-75.698-47.046l-.001.003a347.8 347.8 0 0 1-90.467-33.66l-.007.003c-44.35-23.956-74.48-70.864-74.48-124.805 0-15.907 2.626-31.198 7.468-45.486l.015.004c8.17-24.104 12.6-49.934 12.6-76.797 0-53.958-17.872-103.74-48.018-143.753l97.705-97.709z" style="fill:#fff" transform="translate(-85.665 -14.579)"></path><path d="M584.75 489.521c0 46.782-37.943 84.728-84.733 84.728-46.806 0-84.751-37.946-84.751-84.728 0-46.806 37.945-84.747 84.751-84.747 46.79 0 84.733 37.941 84.733 84.747" style="fill:#fff" transform="translate(-85.665 -14.579)"></path><path d="M791.001 520.942c-17.56 62.084-55.579 118.039-107.06 157.55-53.155 40.799-116.761 62.361-183.928 62.361-67.181 0-130.786-21.562-183.94-62.358-51.481-39.508-89.504-95.46-107.066-157.544l-2.302-8.134-105.04 29.746 2.299 8.129c23.9 84.508 75.643 160.661 145.698 214.427C322.011 820.649 408.582 850 500.016 850c91.414 0 177.982-29.351 250.332-84.881 70.051-53.769 121.79-129.919 145.69-214.427l2.298-8.129-105.032-29.761zm-96.767 170.963c52.099-39.99 91.088-95.955 110.567-158.274l72.501 20.545c-23.863 77.781-72.313 147.691-137.25 197.531-69.368 53.244-152.376 81.387-240.036 81.387-87.678 0-170.69-28.143-240.061-81.384-64.937-49.84-113.388-119.749-137.256-197.534l72.509-20.532c19.48 62.315 58.471 118.28 110.571 158.263 56.133 43.081 123.297 65.851 194.233 65.851 70.923.001 138.091-22.769 194.222-65.853" style="fill:#15872e" transform="translate(-85.665 -14.579)"></path><path d="m206.715 512.802 6.227 56.857 36.56-7.994zM793.286 512.806l-7.182 57.259-35.618-8.377zM279.142 387.773l229.296-229.312h-47.796L273.296 345.808z" style="fill:#15872e" transform="translate(-85.665 -14.579)"></path><path d="M232.039 229.855h225.813v16.907H232.039z" style="fill:#15872e" transform="rotate(-45.001 284.516 334.431)"></path><path d="m505.668 732.202 233.093-233.056-10.18-37.633-246.659 246.638z" style="fill:#15872e" transform="translate(-85.665 -14.579)"></path><path d="M405.487 554.508h371.569v16.906H405.487z" style="fill:#15872e" transform="rotate(-45.004 530.81 659.028)"></path><path d="M490.316 314.7h19.426v90.455h-19.426z" style="fill:#15872e" transform="translate(-85.665 -14.579)"></path><path d="M408.927 489.521c0 50.199 40.863 91.068 91.091 91.068 50.211 0 91.072-40.868 91.072-91.068 0-50.225-40.862-91.086-91.072-91.086-50.229 0-91.091 40.861-91.091 91.086m12.679 0c0-43.233 35.175-78.407 78.411-78.407 43.217 0 78.393 35.173 78.393 78.407 0 43.206-35.176 78.388-78.393 78.388-43.236 0-78.411-35.182-78.411-78.388" style="fill:#15872e" transform="translate(-85.665 -14.579)" data-source="https://football-logos.cc"></path><path d="M416.63 463.708c12.897 18.248 45.628 30.04 83.387 30.04v-8.453c-34.56 0-65.297-10.636-76.485-26.465zM422.14 532.122c15.496 14.651 45.338 23.748 77.877 23.748 6.694 0 13.364-.38 19.809-1.129l-.977-8.397a164 164 0 0 1-18.832 1.073c-30.466 0-58.081-8.212-72.071-21.436zM411.261 484.426c3.247 24.612 41.403 43.196 88.756 43.196 5.023 0 10.049-.215 14.916-.641l-.736-8.42c-4.623.403-9.401.608-14.179.608-41.713 0-77.77-16.066-80.376-35.847z" style="fill:#15872e" transform="translate(-85.665 -14.579)"></path><path d="M496.356 491.634c17.259 29.903 23.414 61.843 15.298 79.442l7.677 3.54c9.358-20.287 3.206-54.535-15.668-87.207zM539.804 444.775a163 163 0 0 1 10.358 15.787c15.235 26.384 21.928 54.374 17.464 73.106l8.222 1.961c4.946-20.753-2.094-51.107-18.366-79.294a172 172 0 0 0-10.896-16.605zM518.073 462.693a168 168 0 0 1 7.631 11.995c20.855 36.093 24.943 75.37 9.11 87.518l5.145 6.706c19.726-15.13 16.741-57.471-6.934-98.453a176 176 0 0 0-8.02-12.605z" style="fill:#15872e" transform="translate(-85.665 -14.579)"></path><path d="m496.357 487.408 7.306 4.227c17.279-29.929 41.859-51.227 61.162-52.997l-.773-8.418c-22.251 2.04-48.832 24.488-67.695 57.188M442.531 456.335a172 172 0 0 0-8.927 17.737l7.76 3.352a163 163 0 0 1 8.488-16.862c15.235-26.385 36.16-46.193 54.591-51.693l-2.404-8.101c-20.431 6.094-43.235 27.386-59.508 55.567M466.994 470.459a175 175 0 0 0-6.906 13.247l7.657 3.581a167 167 0 0 1 6.57-12.602c20.864-36.123 52.813-59.302 71.241-51.667l3.236-7.809c-22.959-9.512-58.114 14.241-81.798 55.25M146.926 591.261c-1.473-3.279-2.724-6.828-3.452-10.358l12.441-4.729c.257 3.051 1.266 7.396 2.899 11.035 1.441 3.206 3.724 4.666 5.934 3.675 6.987-3.14-5.216-19.25 11.254-26.644 9.553-4.293 18.983.3 24.681 12.99 1.089 2.424 2.308 5.904 3.154 9.123l-11.8 4.441c-.464-3.134-1.246-6.211-2.558-9.133-1.665-3.708-3.867-4.603-5.72-3.771-6.061 2.721 4.36 19.63-10.684 26.386-9.624 4.323-20.386-.181-26.149-13.015M178.202 647.454l17.66-10.969-8.331-13.409-17.66 10.969-7.67-12.349 44.813-27.836 7.67 12.349-16.332 10.144 8.331 13.409 16.331-10.144 7.67 12.349-44.813 27.836zM214.415 694.82l4.777-7.654-10.531-12.382-8.271 3.543-9.316-10.956 51.328-21.076 10.784 12.683-28.494 47.928zm14.784-23.754c1.715-2.688 3.25-5.227 5.396-7.77l-.102-.119c-2.626 1.618-5.963 3.12-9.292 4.514l-5.571 2.378 5.874 6.908zM268.879 745.294l9.028-15.364c1.83-3.051 3.91-6.406 6.45-10.19l-.121-.099c-3.611 2.992-7.192 5.706-11.313 8.582l-13.295 9.371-10.452-8.701 5.768-13.403c2.019-4.623 4.449-9.619 7.308-14.152l-.121-.099c-3.711 3.725-6.682 6.439-9.652 9.15l-12.133 11.154-11.233-9.351 40.48-34.942 12.614 10.5-7.437 17.606c-1.509 3.523-3.199 6.894-5.488 10.989l.12.099c3.451-2.922 6.472-5.085 10.144-7.42l15.875-10.276 12.254 10.203-27.085 46.092zM311.988 773.041l1.105-21.608-.472-.277-9.681 16.612-12.56-7.32 26.565-45.577c4.411 2.209 10.055 5.409 15.795 8.753 11.614 6.769 15.695 14.664 9.792 24.794-3.148 5.402-9.217 8.83-15.586 7.651.153 2.533.249 4.851.239 7.195l.063 18.673zm14.055-39.482c-.81-.472-1.997-1.073-2.442-1.242l-5.707 9.79c.433.343 1.34.961 2.015 1.357 3.443 2.004 6.87 1.559 8.837-1.816 1.575-2.7 1.416-5.688-2.703-8.089M356.298 795.455c-15.391-6.135-19.238-18.438-13.046-33.974 6.308-15.826 21.626-21.753 35.348-16.285 12.778 5.092 20.194 16.041 13.105 33.829-6.366 15.971-21.467 21.983-35.407 16.43m16.366-38.323c-4.719-1.879-10.958-.158-14.632 9.061-3.328 8.351-2.667 14.502 3.867 17.107 4.211 1.677 11.031 1.03 15.168-9.351 3.416-8.569 2.059-14.241-4.403-16.817M415.211 813.411c-20.134-4.857-20.958-19.769-18.465-30.101 4.124-17.094 16.431-25.785 33.222-21.734 3.343.809 6.804 2.123 9.583 3.599l-4.675 12.379a32.5 32.5 0 0 0-8.006-3.137c-6.686-1.615-11.983 2.011-13.981 10.292-2.145 8.892.119 14.502 8.096 16.427 2.203.532 5.75.826 8.098.426l-1.372 13.016c-3.845.279-8.397-.177-12.5-1.167M464.841 820.54l-8.554-25.125-2.561 23.936-14.454-1.545 5.61-52.458 14.454 1.545-2.401 22.46 13.748-21.245 17.486 1.869-17.7 23.652 12.946 28.896zM537.433 820.414l-11.458-18.356-.545.043 1.565 19.165-14.489 1.182-4.293-52.581c4.884-.713 11.342-1.317 17.963-1.859 13.399-1.093 21.265 3.048 22.219 14.733.509 6.231-2.506 12.514-8.407 15.192 1.575 1.988 2.982 3.834 4.316 5.765l10.735 15.278zm-11.062-40.422c-.934.076-2.252.261-2.714.38l.921 11.293c.552.033 1.651.023 2.427-.04 3.976-.324 6.528-2.652 6.211-6.545-.254-3.117-2.093-5.475-6.845-5.088M586.167 813.543c-16.137 3.758-26.32-4.144-30.114-20.433-3.863-16.596 5.326-30.21 19.713-33.558 13.396-3.12 25.739 1.631 30.078 20.281 3.899 16.748-5.063 30.309-19.677 33.71m-8.453-40.803c-4.95 1.153-9.087 6.128-6.835 15.793 2.037 8.754 6.092 13.429 12.944 11.834 4.415-1.03 9.645-5.455 7.109-16.341-2.091-8.981-6.446-12.864-13.218-11.286M651.948 790.911l-15.863 6.432-35.909-42.364 14.486-5.874 17.391 21.453c1.852 2.285 3.84 4.682 5.914 7.72l.145-.056c-.654-3.279-1.057-5.31-1.502-10.358l-2.394-26.69 13.759-5.584zM678.691 778.321l-26.389-45.679 26.73-15.443 6.178 10.692-14.142 8.172 3.715 6.429 13.399-7.743 5.94 10.289-13.399 7.74 4.263 7.377 14.142-8.172 6.297 10.897zM736.789 740.374l-19.534-9.302-.436.33 11.633 15.308-11.573 8.796-31.923-42.001c3.731-3.229 8.849-7.215 14.139-11.237 10.702-8.133 19.561-8.876 26.653.456 3.784 4.979 4.626 11.897 1.096 17.329 2.397.829 4.573 1.628 6.736 2.536l17.273 7.096zm-31.081-28.109c-.746.568-1.757 1.433-2.084 1.78l6.858 9.021c.482-.267 1.4-.868 2.021-1.341 3.173-2.41 4.075-5.749 1.71-8.859-1.891-2.49-4.711-3.487-8.505-.601M765.474 716.891c-2.572 2.513-5.475 4.913-8.536 6.812l-8.727-10.051c2.78-1.294 6.512-3.738 9.361-6.525 2.516-2.457 3.101-5.102 1.407-6.835-5.352-5.478-16.272 11.527-28.889-1.387-7.32-7.492-6.257-17.923 3.692-27.647 1.902-1.856 4.748-4.2 7.479-6.102l8.235 9.546c-2.784 1.516-5.402 3.309-7.694 5.547-2.906 2.84-2.988 5.217-1.569 6.67 4.643 4.751 16.926-10.857 28.45.941 7.373 7.545 6.852 19.201-3.209 29.031M776.717 641.923l6.855 5.059 8.724-11.824 9.622 7.102-8.727 11.821 15.912 11.742-8.635 11.699-42.447-31.329 17.87-24.21 10.061 7.426zM823.654 630.64c3.976 2.49 5.217 7.875 2.727 11.847-2.486 3.976-7.872 5.217-11.847 2.727-3.976-2.486-5.214-7.872-2.727-11.847 2.49-3.975 7.875-5.213 11.847-2.727M845.896 606.354c-9.328 18.491-24.035 15.886-33.525 11.098-15.698-7.921-21.344-21.889-13.565-37.309 1.549-3.071 3.622-6.138 5.693-8.509l10.982 7.38a32.7 32.7 0 0 0-4.884 7.079c-3.097 6.138-.776 12.125 6.829 15.962 8.162 4.121 14.142 3.2 17.84-4.128 1.021-2.024 2.117-5.412 2.265-7.786l12.359 4.309c-.609 3.808-2.092 8.137-3.994 11.904M853.118 568.748c4.365 1.72 6.568 6.789 4.847 11.151s-6.789 6.564-11.151 4.844c-4.362-1.717-6.564-6.786-4.847-11.148 1.72-4.365 6.789-6.568 11.151-4.847" style="fill:#15872e" transform="translate(-85.665 -14.579)"></path><path d="m670.866 150-345.235.008-105.376 105.381 4.42 5.868c30.301 40.218 46.317 88.168 46.317 138.666 0 25.366-4.089 50.291-12.153 74.084-5.267 15.494-7.93 31.706-7.93 48.196 0 55.275 30.239 105.947 78.915 132.244a356.7 356.7 0 0 0 92.672 34.473c26.702 5.881 51.937 21.595 71.059 44.24l6.459 7.651 6.442-7.651c19.122-22.645 44.355-38.359 71.059-44.243a356.2 356.2 0 0 0 92.663-34.476c48.684-26.29 78.924-76.962 78.924-132.237 0-16.488-2.661-32.699-7.915-48.2-8.08-23.791-12.168-48.716-12.168-74.08 0-50.498 16.015-98.448 46.314-138.666l4.421-5.868L674.369 150Zm-3.501 16.906 90.256 90.257c-29.688 41.909-45.508 91.049-45.508 142.761 0 27.213 4.388 53.964 13.046 79.511 4.676 13.744 7.036 28.121 7.036 42.769 0 49.057-26.838 94.03-70.045 117.369a339.8 339.8 0 0 1-88.275 32.838c-27.387 6.033-53.268 21.136-73.862 42.771-20.61-21.635-46.493-36.738-73.878-42.774a339.4 339.4 0 0 1-88.27-32.841c-43.212-23.332-70.051-68.305-70.051-117.362 0-14.649 2.363-29.026 7.021-42.773 8.672-25.54 13.062-52.291 13.062-79.507 0-51.713-15.82-100.853-45.509-142.761l90.245-90.249z" style="fill:#15872e" transform="translate(-85.665 -14.579)"></path><path d="M542.99 246.467c0-11.857-9.619-21.474-21.476-21.474-11.861 0-21.463 9.617-21.463 21.474 0-11.857-9.615-21.474-21.479-21.474-11.857 0-21.469 9.617-21.469 21.474 0 2.074.309 4.071.857 5.968-.002.002-.016.005-.016.008 5.43 22.057 42.108 57.461 42.108 57.461s36.662-35.404 42.1-57.461c0-.003-.016-.007-.02-.008.548-1.897.858-3.894.858-5.968" style="fill:#15872e" transform="translate(-85.665 -14.579)"></path><path d="M500.051 235.642c-3.987-7.869-12.069-13.328-21.479-13.328-13.317 0-24.149 10.835-24.149 24.154 0 2.244.324 4.502.963 6.713 5.506 22.454 41.285 57.185 42.805 58.653a2.673 2.673 0 0 0 3.716 0c1.512-1.468 37.289-36.2 42.846-58.747.594-2.12.918-4.379.918-6.619 0-13.318-10.837-24.154-24.157-24.154-9.411-.001-17.491 5.459-21.463 13.328m2.672 10.825c0-10.363 8.427-18.795 18.791-18.795s18.798 8.432 18.798 18.795c0 1.737-.254 3.495-.753 5.224-4.517 18.38-32.102 46.994-39.508 54.441-7.423-7.446-35.006-36.046-39.507-54.329-.51-1.838-.763-3.596-.763-5.336 0-10.363 8.43-18.795 18.79-18.795 10.366 0 18.8 8.432 18.8 18.795a2.68 2.68 0 0 0 2.68 2.68 2.677 2.677 0 0 0 2.672-2.68" style="fill:#15872e" transform="translate(-85.665 -14.579)"></path><path d="M431.649 289.98c-.002 0 0 .02-.002.021a21.5 21.5 0 0 0-5.894 1.233c-11.146 4.058-16.89 16.384-12.835 27.529 4.058 11.144 16.378 16.89 27.525 12.833-11.148 4.056-16.893 16.384-12.838 27.53 4.062 11.141 16.384 16.89 27.529 12.835a21.5 21.5 0 0 0 5.31-2.843s.01.013.01.011c18.877-12.651 39.597-59.226 39.597-59.226s-45.805-22.359-68.402-19.923" style="fill:#15872e" transform="translate(-85.665 -14.579)"></path><path d="M431.372 287.316c.031 0 .063.015.094.013a24.2 24.2 0 0 0-6.627 1.387c-9.799 3.568-15.896 12.856-15.896 22.727 0 2.737.469 5.519 1.458 8.237 3.199 8.788 11.007 14.557 19.703 15.661-4.119 4.448-6.474 10.34-6.474 16.465 0 2.737.469 5.519 1.458 8.237 4.562 12.513 18.451 18.99 30.963 14.436a24.2 24.2 0 0 0 5.968-3.193c19.224-12.863 39.619-58.362 40.472-60.292a2.685 2.685 0 0 0-1.266-3.498c-1.897-.926-46.751-22.665-69.853-20.18m-15.935 30.531c-3.543-9.741 1.497-20.55 11.233-24.094a18.9 18.9 0 0 1 5.159-1.078c.035-.002.073-.027.107-.03 18.745-2.022 55.07 14.136 64.568 18.551-4.456 9.521-21.895 45.222-37.543 55.709-1.559 1.111-3.122 1.95-4.743 2.538-9.736 3.543-20.55-1.498-24.094-11.233a18.7 18.7 0 0 1-1.134-6.409c0-7.682 4.745-14.91 12.371-17.685a2.68 2.68 0 0 0 1.602-3.434c-.505-1.39-1.128-2.27-2.518-1.765-.304 0-.614.053-.916.163-9.739 3.542-20.54-1.497-24.092-11.233m15.925-30.531h.01z" style="fill:#15872e" transform="translate(-85.665 -14.579)"></path><path d="M574.336 291.235a21.5 21.5 0 0 0-5.894-1.233v-.021c-22.602-2.437-68.39 19.924-68.39 19.924s20.707 46.574 39.587 59.226c0 .002.007-.008.007-.008a21.7 21.7 0 0 0 5.303 2.84c11.151 4.055 23.474-1.694 27.535-12.835 4.052-11.146-1.694-23.474-12.845-27.53 11.151 4.056 23.467-1.689 27.529-12.833 4.057-11.145-1.698-23.472-12.832-27.53" style="fill:#15872e" transform="translate(-85.665 -14.579)"></path><path d="M498.876 307.496a2.68 2.68 0 0 0-1.273 3.498c.859 1.93 21.243 47.43 40.543 60.362a24.6 24.6 0 0 0 5.884 3.124c12.518 4.552 26.409-1.927 30.973-14.435a24.1 24.1 0 0 0 1.456-8.233c0-6.127-2.358-12.023-6.478-16.472 8.694-1.104 16.503-6.873 19.706-15.658a24 24 0 0 0 1.459-8.24c0-9.868-6.095-19.155-15.892-22.724l-.003-.002a24.2 24.2 0 0 0-6.627-1.387c-22.999-2.505-67.85 19.241-69.748 20.167m69.278-14.851c1.895.152 3.632.515 5.267 1.108 7.621 2.78 12.363 10.005 12.363 17.684 0 2.13-.363 4.296-1.133 6.411-3.55 9.734-14.357 14.773-24.095 11.232a2.67 2.67 0 0 0-3.434 1.602 2.6 2.6 0 0 0-.165.916 2.68 2.68 0 0 0 1.767 2.518c7.628 2.775 12.372 10.005 12.372 17.69 0 2.13-.363 4.292-1.133 6.406-3.546 9.734-14.36 14.775-24.098 11.233a19 19 0 0 1-4.646-2.491c-15.727-10.528-33.181-46.236-37.636-55.757 9.498-4.416 45.823-20.574 64.571-18.552" style="fill:#15872e" transform="translate(-85.665 -14.579)"></path><path d="m323.347 107.12 1.43-4.4 1.892-5.84 1.892-5.84 1.948-6 1.948-6 .896-2.805.897-2.804-3.245-2.378-3.244-2.378-6.4-4.66-6.4-4.66-6.49-4.717-6.491-4.718 20.064-.16 20.063-.16.243-.8.242-.8 1.912-5.92 1.913-5.92 3.422-10.56 3.422-10.56.525-1.52.525-1.52h.42l.212.88.213.88 3.846 11.84 3.846 11.84 1.136 3.52 1.136 3.52.881 2.56.882 2.56 20.06.082 20.06.083-1.381 1.045-1.381 1.044-9.233 6.713-9.232 6.713-4.39 3.2-4.389 3.2-1.176.8-1.176.8-.004.32-.004.32.788 2.24.789 2.24 3.88 12 3.88 12 1.413 4.32 1.415 4.32-.001.234v.233l-3.023-2.153-3.023-2.154-9.217-6.702-9.218-6.701-2.88-2.115-2.88-2.116-1.055-.735-1.055-.736-1.185.826-1.185.826-2.783 2.006-2.782 2.007-9.858 7.17-9.857 7.17-2.296 1.71-2.296 1.71h-.292zm118.494 4.122v-.332l.303-.735.303-.735 3.087-9.6 3.087-9.6 2.076-6.4 2.076-6.4.69-1.997.69-1.996-.636-.45-.636-.45-9.168-6.674-9.168-6.673-6.37-4.64-6.37-4.64 20.018-.083 20.018-.083.935-2.957.935-2.957 1.833-5.6 1.834-5.6 3.231-9.95 3.232-9.949V12h.548l1.84 5.68 1.839 5.68.903 2.72.904 2.72 3.398 10.478 3.399 10.477 20.01.083 20.009.082-13.865 10.078-13.865 10.077-2.16 1.595-2.16 1.594v1.04l1.095 3.328 1.096 3.328 3.374 10.4 3.373 10.4 1.563 4.8 1.562 4.8-.07.092-.07.092-11.322-8.215-11.321-8.216-1.6-1.175-1.6-1.175-3.172-2.346-3.171-2.347-.669.415-.668.415-11.68 8.477-11.68 8.478-2.24 1.648-2.24 1.648-1.68 1.212-1.68 1.211z" style="fill:#e5c974" data-source="https://football-logos.cc"></path><!-- source: https://football-logos.cc --></svg>