<svg xmlns="http://www.w3.org/2000/svg" xml:space="preserve" viewBox="15 15 450 450"><!-- Source: https://football-logos.cc --><g style="fill:#d71015" data-source="https://football-logos.cc"><path d="M250 25c124.243 0 225 100.757 225 225S374.243 475 250 475 25 374.243 25 250 125.757 25 250 25m0 4.276c121.882 0 220.724 98.842 220.724 220.724S371.882 470.724 250 470.724 29.276 371.882 29.276 250 128.118 29.276 250 29.276" style="clip-rule:evenodd;fill:#d71015;fill-rule:evenodd" transform="translate(-10 -10)"></path><path d="M250 105.463c79.812 0 144.537 64.725 144.537 144.537S329.812 394.537 250 394.537 105.463 329.812 105.463 250 170.188 105.463 250 105.463m0 4.276c77.451 0 140.261 62.81 140.261 140.261S327.451 390.261 250 390.261 109.739 327.451 109.739 250 172.549 109.739 250 109.739" style="clip-rule:evenodd;fill:#d71015;fill-rule:evenodd" transform="translate(-10 -10)"></path><path d="M210.974 289.016h24.254v9.533h29.964v-9.533h24.4c-5.136 19.526-5.821 41.282 0 66.297h-21.121v-9.278h-36.376v9.278h-21.121c5.404-21.684 4.768-43.832 0-66.297M233.409 280.833v-6.238h4.553v9.11l-2.459 2.941h-26.852l-2.493-3.088v-8.963h4.541v6.238h4.543v-6.238h4.541v6.238h4.542v-6.238h4.542v6.238zM266.89 280.833v-6.238h-4.553v9.11l2.46 2.941h26.851l2.493-3.088v-8.963H289.6v6.238h-4.543v-6.238h-4.541v6.238h-4.542v-6.238h-4.541v6.238zM160.207 195.95h24.254v9.533h29.964v-9.533h24.4c-5.136 19.526-5.821 41.282 0 66.297h-21.121v-9.278h-36.375v9.278h-21.121c5.403-21.684 4.767-43.832-.001-66.297M182.642 187.767v-6.238h4.554v9.111l-2.46 2.94h-26.851l-2.494-3.087v-8.964h4.542v6.238h4.542v-6.238h4.541v6.238h4.543v-6.238h4.541v6.238zM216.124 187.767v-6.238h-4.554v9.111l2.46 2.94h26.851l2.493-3.087v-8.964h-4.541v6.238h-4.542v-6.238h-4.542v6.238h-4.542v-6.238h-4.541v6.238zM261.447 195.95h24.254v9.533h29.964v-9.533h24.4c-5.136 19.526-5.821 41.282 0 66.297h-21.121v-9.278h-36.376v9.278h-21.121c5.403-21.684 4.768-43.832 0-66.297M283.882 187.767v-6.238h4.553v9.111l-2.46 2.94h-26.851l-2.493-3.087v-8.964h4.541v6.238h4.542v-6.238h4.542v6.238h4.542v-6.238h4.541v6.238zM317.363 187.767v-6.238h-4.553v9.111l2.459 2.94h26.852l2.493-3.087v-8.964h-4.542v6.238h-4.542v-6.238h-4.541v6.238h-4.543v-6.238h-4.541v6.238zM142.522 384.649c5.329 0 9.652 4.322 9.652 9.652s-4.322 9.651-9.652 9.651-9.652-4.322-9.652-9.651c.001-5.33 4.323-9.652 9.652-9.652M358.045 384.649c5.329 0 9.651 4.322 9.651 9.652s-4.322 9.651-9.651 9.651-9.652-4.322-9.652-9.651c.001-5.33 4.323-9.652 9.652-9.652" style="clip-rule:evenodd;fill:#d71015;fill-rule:evenodd" transform="translate(-10 -10)"></path><path d="m74.157 343.676 5.675-2.474q.462 4.004 2.405 7.369c.783 1.357 1.815 2.344 3.1 2.95q1.934.92 4.327-.464c1.203-.694 1.794-1.539 1.77-2.543-.017-1.008-.251-3.176-.678-6.515-.44-3.343-.362-6.021.227-8.046.593-2.018 2.117-3.74 4.569-5.155 2.243-1.296 4.406-1.824 6.496-1.603q3.132.35 5.702 2.506c1.718 1.444 3.233 3.303 4.551 5.585.917 1.588 1.557 2.874 1.911 3.861.363.983.901 2.698 1.616 5.132l-6.19 2.773c-.074-3.206-.818-6.025-2.219-8.453q-1.241-2.15-3.361-3.312c-1.406-.781-2.786-.786-4.113-.02q-2.024 1.168-2.044 3.03c-.02 1.245.179 3.442.591 6.577.408 3.147.334 5.707-.22 7.702s-2.04 3.696-4.453 5.089q-3.408 1.968-6.535 1.677-3.123-.282-5.6-2.277c-1.655-1.316-3.059-2.983-4.221-4.995q-2.446-4.234-3.306-8.394M99.542 312.884l2.308 7.103-35.457 11.52-2.308-7.103 14.325-4.654-4.621-14.223-14.325 4.654-2.308-7.103 35.457-11.521 2.307 7.103-15.535 5.049 4.621 14.223zM87.715 262.564l2.31 21.983-37.077 3.896-2.298-21.867 5.851-.615 1.518 14.44 9.128-.96-1.39-13.218 5.852-.615 1.389 13.218 10.394-1.092-1.53-14.554zM87.968 233.755l-.766 21.929-37.259-1.301.261-7.464 31.379 1.095.505-14.465zM73.736 215.155l10.46 2.609.855-3.43q1.859-7.463-3.158-8.713-2.215-.553-3.679.183c-.967.493-1.732 1.247-2.272 2.268q-.819 1.518-1.352 3.654zm-14.295-3.563 8.906 2.22.738-2.963q1.707-6.84-2.699-7.938c-1.865-.465-3.239-.148-4.121.962-.873 1.114-1.586 2.752-2.126 4.92zm28.658 14.842-36.173-9.019 3.151-12.637q1.166-4.663 4.022-7.666c1.903-2.003 4.63-2.561 8.162-1.68 2.117.528 3.726 1.617 4.843 3.281 1.11 1.654 1.589 3.635 1.447 5.929l.104.027c.549-1.579 1.358-2.909 2.416-3.985s2.267-1.811 3.64-2.202c1.365-.394 2.79-.406 4.257-.04 3.999.997 6.419 2.995 7.25 5.992q1.247 4.494.032 9.365zM77.596 189.99q-5.204-2.426-8.234-6.166c-2.031-2.49-3.181-5.314-3.465-8.472-.286-3.158.396-6.494 2.036-10.012 1.607-3.445 3.725-6.071 6.355-7.9 2.626-1.82 5.563-2.768 8.796-2.833 3.231-.064 6.55.698 9.947 2.281 3.413 1.592 6.153 3.655 8.217 6.18 2.056 2.52 3.253 5.387 3.572 8.581.327 3.196-.323 6.527-1.938 9.989-1.644 3.524-3.777 6.183-6.408 7.992-2.626 1.8-5.569 2.716-8.806 2.75s-6.595-.769-10.072-2.39m3.295-7.067c2.154 1.005 4.313 1.618 6.473 1.83 2.157.219 4.142-.121 5.947-.999 1.808-.886 3.219-2.418 4.239-4.604q1.524-3.27.807-6.216c-.484-1.953-1.499-3.694-3.054-5.205q-2.334-2.266-5.566-3.774c-2.09-.974-4.208-1.55-6.36-1.738-2.156-.18-4.129.177-5.924 1.079-1.808.906-3.2 2.417-4.185 4.531-.989 2.121-1.252 4.159-.777 6.11.464 1.954 1.459 3.695 2.982 5.231 1.526 1.527 3.328 2.78 5.418 3.755M100.269 155.588l-18.771-14.666 4.597-5.885 16.955 13.247c5.528 4.317 9.588 4.883 12.771.808 3.178-4.068 1.269-7.38-4.257-11.698L94.61 124.147l4.598-5.885 18.772 14.666c7.407 5.787 8.72 11.798 2.478 19.787-6.246 7.995-12.781 8.661-20.189 2.873M420.719 297.107l22.074 8.954-2.806 6.92-19.939-8.088c-6.5-2.635-10.56-2.065-12.503 2.727-1.94 4.783.804 7.445 7.302 10.082l19.939 8.087-2.807 6.921-22.075-8.954c-8.711-3.532-11.622-8.953-7.812-18.348 3.814-9.401 9.915-11.835 18.627-8.301M117.143 108.08l6.444 7.678 1.875-1.574c1.813-1.522 3.05-3.013 3.728-4.475.67-1.458.343-2.985-.996-4.581q-1.93-2.3-4.16-1.634c-1.487.445-3.153 1.45-5.015 3.011zm14.46 28.852-23.963-28.559 6.171-5.178.9-.755q2.918-2.448 5.058-3.93a17 17 0 0 1 4.524-2.239 8 8 0 0 1 4.794-.048q2.412.714 4.669 3.403c.938 1.118 1.569 2.355 1.881 3.696.318 1.349.292 2.705-.079 4.088-.369 1.375-.343 1.312-1.392 2.472.046.055 4.73-1.576 7.476.634l7.619 6.137c.987.788 3.441 1.576 4.428 1.775l-5.943 4.622c-.539.16-2.839-.121-3.669-.842l-6.665-5.782c-.76-.659-2.987-.648-4.765.065-1.383.554-2.833 1.723-3.444 2.236l-1.835 1.539 9.956 11.865zM163.027 112.388l-6.199 3.579-18.641-32.287 7.964-4.597 23.597 18.516.092-.053L155.899 73.4l6.198-3.579 18.641 32.287-7.901 4.562-23.658-18.481-.092.053zM208.033 92.681l-21.021 6.831-11.521-35.457 20.911-6.794 1.819 5.596-13.809 4.486 2.837 8.728 12.64-4.107 1.818 5.597-12.64 4.107 3.229 9.94 13.919-4.523zM222.739 51.608l20.664-1.445.411 5.87-13.214.924.64 9.156 12.574-.88.41 5.87-12.573.879 1.139 16.295-7.45.521zM249.405 67.905q.401-5.728 2.806-9.896c1.597-2.789 3.821-4.874 6.668-6.272q4.268-2.095 10.076-1.686c3.792.265 7.004 1.302 9.652 3.102 2.641 1.8 4.579 4.202 5.798 7.196 1.218 2.994 1.697 6.366 1.435 10.104-.263 3.755-1.208 7.054-2.824 9.886-1.616 2.823-3.864 4.968-6.731 6.409-2.868 1.45-6.21 2.037-10.02 1.771-3.88-.271-7.128-1.31-9.758-3.118-2.622-1.807-4.532-4.226-5.722-7.236-1.192-3.01-1.648-6.433-1.38-10.26m7.778.543q-.251 3.558.611 6.699c.568 2.092 1.598 3.824 3.064 5.194 1.475 1.37 3.411 2.139 5.817 2.308q3.599.252 6.091-1.475c1.651-1.151 2.912-2.723 3.766-4.716.852-1.993 1.362-4.179 1.528-6.549.161-2.301-.061-4.484-.657-6.561-.605-2.077-1.645-3.791-3.129-5.144-1.493-1.363-3.404-2.121-5.73-2.283-2.335-.163-4.333.321-5.983 1.464q-2.485 1.7-3.814 4.659c-.879 1.973-1.403 4.104-1.564 6.404M291.35 72.195q1.87-5.43 5.272-8.832c2.265-2.281 4.953-3.719 8.064-4.333s6.499-.285 10.169.979c3.595 1.238 6.428 3.07 8.521 5.494 2.085 2.422 3.336 5.244 3.737 8.451s-.009 6.588-1.229 10.131c-1.226 3.56-2.992 6.501-5.286 8.818-2.292 2.309-5.018 3.799-8.161 4.449-3.145.659-6.525.361-10.136-.883-3.678-1.266-6.545-3.11-8.618-5.537-2.065-2.425-3.284-5.255-3.655-8.47-.372-3.214.073-6.639 1.322-10.267m7.373 2.539c-.774 2.247-1.158 4.458-1.143 6.629.007 2.168.553 4.107 1.615 5.81 1.07 1.705 2.741 2.949 5.022 3.734q3.41 1.175 6.266.152c1.892-.685 3.517-1.877 4.857-3.581q2.01-2.56 3.172-5.93c.751-2.181 1.101-4.347 1.064-6.508-.047-2.163-.608-4.088-1.692-5.779-1.09-1.703-2.739-2.929-4.944-3.689-2.213-.762-4.268-.811-6.158-.134q-2.841.998-4.89 3.513c-1.36 1.68-2.418 3.603-3.169 5.783M338.089 69.847l24.977 14.421-2.942 5.095-9.258-5.345-15.699 27.19-6.468-3.734 15.698-27.191-9.25-5.341zM363.266 110.973l-7.073 8.137 2.667 2.318q5.805 5.044 9.198 1.143 1.498-1.725 1.507-3.362c-.001-1.085-.325-2.11-.99-3.054q-.98-1.417-2.643-2.863zm9.665-11.118-6.021 6.927 2.304 2.003q5.32 4.625 8.299 1.199c1.26-1.452 1.601-2.819 1.013-4.109q-.89-1.928-3.418-4.128zm-26.235 18.796 24.458-28.137 9.83 8.544c2.419 2.103 4.084 4.46 5.005 7.064.92 2.605.18 5.288-2.208 8.036-1.431 1.646-3.132 2.585-5.121 2.825-1.978.24-3.96-.233-5.941-1.402l-.07.081c1.157 1.207 1.976 2.531 2.454 3.962q.72 2.143.31 4.243c-.268 1.395-.905 2.67-1.897 3.812q-4.058 4.667-8.63 3.739-4.57-.93-8.359-4.223zM392.747 145.203l9.147-13.884-15.129 6.292zm-25.457-8.727 37.827-13.047 5.31 6.558-20.936 34.248-5.205-6.427 4.906-7.576-8.338-10.571-8.685 2.84zM400.87 187.422l-9.961-19.551 33.217-16.925 3.391 6.655-27.975 14.253 6.571 12.897zM409.588 215.309l-6.048-21.094 35.837-10.276 2.059 7.18-30.181 8.654 3.99 13.913zM419.727 259.396l-6.242.539c-.9-3.309-1.39-6.124-1.471-8.455q-.215-6.112 1.68-10.801c1.272-3.118 3.27-5.584 6.013-7.381 2.734-1.797 6.138-2.762 10.213-2.904 3.149-.11 5.986.263 8.509 1.11 2.533.855 4.671 2.136 6.432 3.855q2.644 2.58 4.086 6.298c.96 2.478 1.495 5.309 1.605 8.476.105 2.999-.312 5.828-1.261 8.488l-6.327-.313c1.245-2.378 1.809-5.088 1.703-8.13-.066-1.886-.464-3.591-1.184-5.098a11.34 11.34 0 0 0-2.993-3.85c-1.266-1.06-2.728-1.846-4.394-2.377-1.666-.52-3.456-.752-5.36-.686q-3.763.132-6.752 1.759a11.33 11.33 0 0 0-4.607 4.543c-1.081 1.945-1.571 4.216-1.481 6.804.051 1.45.255 2.948.603 4.503.345 1.548.762 2.754 1.228 3.62M409.701 286.685l2.294-21.823 37.076 3.897-.78 7.428-31.225-3.282-1.513 14.395zM404.942 340.28l-9.142-5.712-1.873 2.997q-4.073 6.523.31 9.263 1.936 1.208 3.555.962c1.072-.17 2.034-.651 2.862-1.456q1.248-1.19 2.415-3.058zm12.494 7.808-7.783-4.864-1.617 2.59q-3.737 5.978.114 8.384c1.63 1.019 3.035 1.141 4.217.357 1.175-.789 2.358-2.127 3.542-4.022zm-22.668-22.972 31.616 19.755-6.902 11.045q-2.549 4.074-6.194 6.048c-2.429 1.316-5.195 1.005-8.282-.925-1.849-1.155-3.043-2.689-3.592-4.616-.545-1.917-.387-3.948.456-6.088l-.09-.056c-1.01 1.332-2.19 2.347-3.529 3.043s-2.716 1.022-4.143.97c-1.42-.047-2.779-.476-4.062-1.278-3.495-2.184-5.179-4.832-5.043-7.938q.203-4.66 2.863-8.917z" style="fill:#d71015" transform="translate(-10 -10)"></path><path d="m196.11 439.234 6.768 1.72 5.606-22.484-7.362 3.439-2.446-5.609 12.684-5.865 6.426 1.601-7.669 30.758 6.768 1.721-1.427 5.377-6.69-1.684-.001.002-7.248-1.807.005-.018-6.941-1.746z" style="clip-rule:evenodd;fill:#d71015;fill-rule:evenodd" transform="translate(-10 -10)"></path><path d="M237.457 429.596c1.125-.304 2.147-.938 3.08-1.912q1.388-1.46 1.532-3.109c.122-1.402-.187-2.563-.936-3.495-.75-.933-1.821-1.455-3.231-1.579-1.462-.127-2.766.151-3.915.846-1.142.687-1.78 1.739-1.903 3.149s.32 2.574 1.32 3.501c1.001.919 2.346 1.788 4.053 2.599m4.903 2.681.005-.054-.009.106c4.568 2.634 6.661 6.088 6.286 10.371-.315 3.601-1.713 6.195-4.203 7.792-2.489 1.596-5.663 2.22-9.511 1.884-2.492-.218-4.686-.785-6.597-1.711-1.92-.928-3.377-2.244-4.381-3.958-1.003-1.705-1.396-3.759-1.185-6.172.343-3.919 2.882-6.789 7.626-8.608l.009-.106c-1.831-1.027-3.228-2.33-4.204-3.925-.97-1.586-1.379-3.338-1.215-5.226q.28-3.22 1.991-5.295c1.141-1.392 2.629-2.361 4.474-2.923 1.854-.562 3.917-.747 6.205-.547 2.26.198 4.309.698 6.149 1.511 1.833.813 3.253 1.938 4.262 3.385s1.431 3.153 1.258 5.132c-.156 1.782-.848 3.464-2.067 5.037q-1.833 2.37-4.893 3.307m-6.866 3.107c-1.571.586-2.805 1.319-3.712 2.195q-1.36 1.316-1.55 3.51c-.133 1.516.317 2.816 1.346 3.915q1.545 1.637 3.834 1.837c1.525.133 2.833-.208 3.922-1.015 1.09-.807 1.699-1.96 1.831-3.467.258-2.944-1.63-5.272-5.671-6.975M260.086 452.632l-.085-6.115c6.405 1.049 15.341-2.824 14.494-12.57l-.119-.093c-.701 1.378-1.604 2.43-2.704 3.175q-1.653 1.12-3.998 1.406c-3.437.423-6.23-.267-8.36-2.059-2.131-1.801-3.415-4.433-3.84-7.896-.334-2.721-.172-5.126.476-7.224q.989-3.148 3.533-5.116c1.704-1.312 3.926-2.141 6.647-2.475 4.7-.577 8.165.611 10.395 3.576 2.228 2.955 3.657 6.995 4.285 12.11 1.656 13.498-6.086 24.326-20.724 23.281m8.545-19.91c1.688-.207 2.861-1.025 3.521-2.442.658-1.426.861-3.137.613-5.16-.234-1.91-.851-3.43-1.86-4.562s-2.375-1.592-4.106-1.379c-1.609.198-2.748 1.001-3.401 2.4-.661 1.408-.876 3.013-.653 4.824q.362 2.94 1.87 4.784c1.002 1.232 2.346 1.74 4.016 1.535M302.826 406.312l1.531 5.339-13.803 3.958 2.035 7.677c1.208-.597 2.261-1.028 3.185-1.292 3.098-.889 6.049-.772 8.861.348 2.812 1.119 4.817 3.786 6.024 7.996.65 2.267.709 4.473.18 6.635q-.79 3.241-3.499 5.754c-1.798 1.673-4.185 2.94-7.146 3.79-2.721.78-5.609 1.238-8.672 1.375l-1.691-6.478c3.229.38 5.849.276 7.868-.303a11 11 0 0 0 3.559-1.734q1.558-1.155 2.228-2.888c.449-1.148.465-2.449.056-3.879q-.928-3.234-3.716-4.045-2.79-.812-6.281.189a22 22 0 0 0-6.138 2.815l-5.161-19.356z" style="fill:#d71015" transform="translate(-10 -10)"></path></g><path d="M226.766 460.04c-39.47-2.605-75.303-14.62-108.117-36.252-49.08-32.355-82.947-82.604-94.792-140.64-3.56-17.447-5.007-43.332-3.452-61.777 6.53-77.46 53.621-145.721 124.071-179.85 66.61-32.267 145.214-28.706 208.684 9.455 16.02 9.632 29.146 19.935 42.77 33.57 35.606 35.637 56.985 80.13 63.276 131.687 1.254 10.284 1.054 39.926-.34 50.186-2.977 21.914-8.265 41.55-16.177 60.068-26.695 62.48-81.37 109.586-147.15 126.78-21.23 5.548-47.755 8.161-68.773 6.774m7.497-19.06c5.486-3.396 6.296-11.856 1.565-16.357l-2.037-1.938 2.636-2.636c6.854-6.854 2.357-15.494-8.472-16.277-5.037-.364-7.687.262-10.113 2.392-3.952 3.47-4.137 9.587-.415 13.752l1.737 1.944-1.916 1.29c-3.019 2.035-4.733 5.05-4.732 8.323.002 7.319 5.591 11.444 14.932 11.024 3.433-.155 5.28-.565 6.815-1.516m25.81.485c4.449-2.02 6.855-4.285 8.846-8.33 4.569-9.28 1.913-24.469-4.986-28.52-4.547-2.668-13.69-.88-16.634 3.255-4.029 5.658-2.196 16.899 3.225 19.777 2.891 1.535 8.258 1.399 11.107-.282 2.278-1.344 2.31-1.346 2.31-.114 0 4.545-6.358 9.226-12.547 9.239-1.631.003-1.704.135-1.704 3.101v3.098l3.873-.014c2.478-.009 4.821-.444 6.51-1.21m-53.786-3.578c.978-3.522.885-3.693-2.446-4.492-1.703-.408-3.09-1.064-3.081-1.456s1.665-7.258 3.68-15.258 3.57-14.64 3.456-14.754c-.115-.115-1.641-.586-3.392-1.048l-3.184-.84-6.484 3.035c-3.566 1.67-6.484 3.145-6.484 3.279s.566 1.523 1.258 3.087c1.375 3.109 1.526 3.126 6.181.719 1.413-.73 1.851-.77 1.84-.169-.023 1.219-4.78 19.732-5.17 20.122-.19.19-1.624.022-3.188-.372-1.564-.393-3.076-.572-3.36-.396-.437.27-1.032 2.456-1.356 4.98-.064.496 17.464 5.5 20.34 5.807.41.044 1.035-.966 1.39-2.244m83.366-.896c7.521-1.905 11.672-6.497 11.652-12.89-.03-9.724-7.553-15.306-16.377-12.153l-2.247.803-.752-3.357c-.413-1.846-.656-3.44-.54-3.542.115-.103 2.858-.929 6.096-1.836 3.237-.908 6.21-1.76 6.606-1.895.888-.3-.454-5.399-1.515-5.752-.589-.196-19.942 5.228-20.471 5.738-.228.22 4.758 19.015 5.147 19.404.14.14 1.565-.38 3.167-1.156 3.53-1.709 8.044-2.182 10.163-1.066.925.487 1.914 1.865 2.455 3.42.848 2.44.824 2.714-.375 4.322-2.131 2.86-4.913 4.103-9.29 4.152-3.183.035-3.877.22-3.662.973.146.511.576 2.13.955 3.596l.69 2.666 2.91-.4c1.6-.22 4.025-.681 5.388-1.027m-152.975-43.81c3.757-1.706 5.515-4.525 5.515-8.842 0-3.946-1.154-6.037-4.64-8.41-2.567-1.746-6.906-1.854-9.93-.245-5.485 2.919-6.623 11.568-2.065 15.693 3.42 3.096 6.998 3.676 11.12 1.804m215.886-.213c2.01-1.014 3.156-2.156 4.198-4.182 4.352-8.461-4.16-17.14-13.133-13.391-2.707 1.13-4.812 4.183-5.188 7.524-.397 3.525.103 5.337 2.141 7.76 3.195 3.796 7.4 4.6 11.982 2.289m-95.439-9.187c26.73-3.05 52.768-14.042 74.066-31.267 7.509-6.073 19.03-18.032 24.66-25.597 14.46-19.429 23.61-41.343 27.469-65.787 1.569-9.939 1.563-32.779-.011-42.419-6.958-42.615-29.53-77.5-65.08-100.586-16.883-10.963-36.743-18.376-57.696-21.535-10.292-1.552-30.6-1.552-40.892 0-65.256 9.838-114.743 60.068-123.27 125.12-1.833 13.982-1.083 33.46 1.842 47.83 5.511 27.073 19.475 52.903 39.34 72.77 31.495 31.499 74.934 46.565 119.572 41.47m146.78-31.829c.954-.493 2.546-1.821 3.537-2.95 2.137-2.434 8.915-13.048 8.915-13.96 0-.63-30.51-19.986-31.502-19.986-.77 0-8.036 11.908-9.093 14.905-1.956 5.545-.613 10.428 3.57 12.98 3.75 2.288 5.952 2.192 11.157-.488.256-.131.465.862.465 2.207 0 5.859 7.527 10.097 12.95 7.292m-322.568-2.857c1.287-.357 3.304-1.496 4.483-2.531 2.984-2.62 3.641-5.488 2.873-12.534-.5-4.578-.452-5.91.248-7 2.176-3.39 6.36-1.9 8.684 3.09.822 1.768 1.498 4.12 1.502 5.227.003 1.107.163 2.014.355 2.014.193 0 1.726-.592 3.408-1.316 3.529-1.518 3.615-1.905 1.542-6.947-4.21-10.239-10.86-14.308-18-11.012-5.425 2.503-6.867 6.171-5.834 14.838.726 6.092.485 7.162-1.83 8.12-2.585 1.071-4.825-.207-6.639-3.786-.823-1.625-1.501-3.312-1.507-3.75-.026-2.218-1.015-2.554-3.975-1.347-3.326 1.356-3.344 1.707-.403 7.988 3.565 7.615 8.771 10.702 15.093 8.946m342.28-29.486c.755-1.924 1.245-3.705 1.09-3.957s-4.678-2.203-10.048-4.334c-15.634-6.206-18.155-8.019-17.2-12.368.512-2.33 2.992-4.943 4.773-5.028 3.287-.159 5.072.37 16.201 4.797 6.424 2.555 11.741 4.558 11.816 4.45.877-1.267 2.744-7.031 2.384-7.36-.262-.241-5.774-2.58-12.249-5.198-16.144-6.528-20.026-6.762-24.785-1.493-2.956 3.271-4.701 7.398-5.097 12.052-.389 4.566.819 7.581 4.01 10.015 1.601 1.221 25.5 11.57 27.421 11.874.17.027.928-1.526 1.683-3.45m-349.98-3.318c9.422-3.07 17.466-5.704 17.876-5.855.547-.202.409-1.268-.522-4.023-.696-2.062-1.462-3.749-1.703-3.749-.24 0-3.696 1.095-7.679 2.433-3.983 1.339-7.356 2.245-7.495 2.014-.877-1.452-4.014-12.83-3.635-13.183.254-.237 3.522-1.412 7.261-2.611s6.898-2.481 7.021-2.849c.38-1.141-1.794-6.87-2.608-6.87-1.46 0-35.065 11.194-35.065 11.68 0 1.63 2.033 6.906 2.657 6.895.413-.007 3.678-.948 7.256-2.092 4.36-1.394 6.59-1.85 6.759-1.382.14.385 1.161 3.402 2.271 6.706l2.018 6.007-6.918 2.287c-3.805 1.258-6.999 2.353-7.097 2.433-.26.213 1.88 7.74 2.2 7.74.15 0 7.98-2.512 17.402-5.581M63.11 276.664c9.323-.996 17.016-1.896 17.096-2 .079-.105-.355-4.791-.965-10.414s-1.123-10.587-1.141-11.031c-.024-.575-.884-.754-2.976-.62l-2.943.19v3.407c0 1.874.204 5.138.452 7.254l.453 3.847-2.002.302c-1.1.166-3.294.447-4.875.624l-2.875.322-.392-3.541a837 837 0 0 0-.746-6.485l-.354-2.943h-6.25l.437 5.944c.24 3.27.577 6.312.75 6.761.23.602-.768.933-3.788 1.257-2.255.241-4.256.283-4.447.093s-.653-3.45-1.027-7.242l-.681-6.894-3.127.42c-1.72.232-3.187.473-3.26.537-.159.136 1.565 17.105 2.035 20.035.4 2.494-.952 2.482 20.626.177m343.646-8.11.428-5.409 2.263.287c4.13.523 28.903 3.113 29.023 3.034.066-.043.205-1.874.31-4.07l.192-3.992-18.588-1.948c-10.223-1.072-18.616-1.918-18.65-1.88-.142.158-2.109 20-2.107 21.257 0 1.183.385 1.385 2.944 1.55 2.803.18 2.963.103 3.35-1.615.224-.992.6-4.238.835-7.213m3.398-18.709c-.004-.085-.422-1.523-.929-3.196-2.635-8.686.744-15.66 8.613-17.78 5.27-1.419 11.603.807 14.424 5.071 2.1 3.172 2.6 8.007 1.244 11.99l-.965 2.83h3.63c3.587 0 3.637-.024 4.103-2.013.883-3.765.418-11.12-.93-14.715-2.846-7.593-8.06-11.195-16.852-11.643-11.992-.61-18.452 4.307-20.408 15.536-.66 3.795-.064 11.812 1.008 13.547.279.45 7.081.81 7.062.373m-332.49-9.853c.222-3.12.403-8.138.403-11.153v-5.48h-6.074l-.448 7.167-.447 7.169-13.09-.378c-7.198-.207-14.273-.523-15.722-.7l-2.633-.324v4.066c0 2.235.07 4.103.155 4.149.37.2 20.755.941 28.718 1.043l8.736.112zm2.248-29.49c2.133-8.766 2.439-11.253 1.805-14.683-.932-5.04-4.524-7.777-10.209-7.777-2.503 0-3.185.305-5.204 2.324l-2.323 2.323-.857-2.422c-1.12-3.167-3.433-4.805-7.309-5.178-6.645-.638-9.011 2.142-12.157 14.28-1.158 4.47-2.024 8.209-1.924 8.31.28.28 34.653 8.754 35.746 8.812.715.039 1.34-1.503 2.432-5.99m322.969-5.764c2.819-.783 2.83-.964.54-8.734l-1.762-5.978 14.63-4.156c8.045-2.286 14.82-4.336 15.056-4.555.56-.521-1.398-7.523-2.104-7.523-.745 0-35.44 9.957-35.74 10.257-.488.489 5.765 21.341 6.4 21.338.36-.002 1.702-.294 2.98-.649m-317.02-24.464c6.367-3.929 10.439-13.178 8.952-20.336-1.751-8.44-11.197-15.332-21.11-15.407-9.892-.074-17.24 7.582-17.834 18.582-.212 3.915-.027 4.944 1.416 7.893 3.435 7.02 11.826 11.57 20.83 11.294 4.004-.123 5.145-.421 7.745-2.026m308.215-4.016 2.453-1.252-3.097-6.172c-1.704-3.395-3.097-6.391-3.097-6.66 0-.267 6.133-3.543 13.63-7.28 7.497-3.735 13.631-7.016 13.631-7.289 0-1.126-3.172-6.65-3.82-6.65-.384 0-5.19 2.337-10.676 5.193-5.488 2.857-12.841 6.627-16.341 8.377l-6.364 3.182 5.008 9.901c2.754 5.446 5.28 9.901 5.614 9.901s1.71-.563 3.06-1.251m-3.74-39.041 10.648-17.368-2.925-3.424c-1.695-1.984-3.273-3.29-3.752-3.107-.455.175-9.054 3.153-19.11 6.618-20.239 6.975-19.034 6.124-15.091 10.663l2.038 2.345 3.885-1.323c2.137-.727 4.234-1.189 4.66-1.025.425.163 2.405 2.428 4.4 5.033l3.629 4.736-2.246 3.383c-1.236 1.86-2.246 3.63-2.246 3.931 0 .53 4.857 6.906 5.261 6.906.11 0 4.992-7.816 10.849-17.368m-285.862 11.136c3.238-1.568 6.477-5.07 8.645-9.348 2.211-4.364 1.934-8.78-.764-12.152-1.798-2.248-22.171-18.737-23.15-18.737-.684 0-4.89 5.78-4.576 6.288.142.23 4.56 3.79 9.819 7.913 12.938 10.144 14.158 11.838 11.416 15.85-1.97 2.882-4.251 3.792-7.228 2.886-1.26-.383-6.752-4.181-12.205-8.44-5.452-4.257-10.085-7.747-10.295-7.755-.448-.015-4.897 5.596-4.859 6.13.057.8 20.073 15.945 22.782 17.238 3.63 1.732 7.014 1.773 10.415.127m22.456-25.576c.587-.707-.217-1.991-4.154-6.643l-4.88-5.767 1.615-1.343c4.454-3.7 6.068-3.607 11.045.641 4.8 4.098 6.428 4.316 10.4 1.394 1.506-1.107 2.749-2.17 2.762-2.363s-.974-.826-2.195-1.408-4.162-2.629-6.538-4.548c-3.673-2.968-4.716-3.499-6.97-3.549l-2.65-.058.587-2.31c.49-1.936.348-2.791-.88-5.266-1.86-3.75-4.777-5.745-8.398-5.745-3.623 0-6.154 1.4-13.384 7.406l-6.065 5.038 1.32 1.677c.725.923 6.189 7.474 12.142 14.558l10.822 12.88 2.347-1.86c1.291-1.022 2.675-2.252 3.074-2.734M361.6 119.94c2.815-2.214 3.944-4.41 3.948-7.682.002-1.641-.258-3.473-.578-4.072-.52-.97-.257-1.083 2.432-1.043 4.522.066 8.336-3.22 9.084-7.83.628-3.87-1.574-7.304-8.598-13.407-3.393-2.948-6.415-5.36-6.715-5.36-.667 0-24.805 27.729-24.586 28.244.245.577 9.867 8.864 11.927 10.271 4.404 3.01 9.908 3.38 13.086.88M150 104.554c1.669-.937 3.03-1.983 3.024-2.324s-2.758-5.359-6.117-11.152-6.025-10.626-5.926-10.74 4.038 2.824 8.751 6.53 9.605 7.52 10.872 8.475l2.302 1.736 3.274-1.905c1.8-1.048 3.663-2.161 4.139-2.474.687-.45-.958-3.738-7.988-15.965-4.868-8.468-9.203-15.778-9.633-16.243-.654-.71-1.295-.566-3.963.886-1.75.952-3.065 2.03-2.922 2.395s2.92 5.262 6.171 10.883 5.808 10.323 5.682 10.449-4.718-3.302-10.205-7.618c-5.487-4.315-10.363-7.995-10.837-8.177-.473-.182-2.684.69-4.913 1.936l-4.052 2.266 1.69 2.921c.93 1.607 5.176 8.972 9.436 16.367s7.843 13.448 7.963 13.451 1.583-.76 3.252-1.697m183.236-16.58c4.206-7.323 7.736-13.315 7.845-13.315s2.188 1.148 4.622 2.551c4.233 2.441 4.462 2.501 5.293 1.394 1.057-1.408 2.42-4.532 2.091-4.794-2.227-1.771-24.81-14.033-25.294-13.734-.37.23-1.21 1.468-1.865 2.752l-1.192 2.335 4.626 2.632 4.626 2.632-1.189 1.961c-3.308 5.458-14.335 24.796-14.328 25.126.011.462 5.63 3.7 6.497 3.743.34.018 4.061-5.96 8.268-13.283m-145.294-1.63c5.507-1.75 10.11-3.266 10.23-3.367s-.243-1.572-.807-3.269l-1.025-3.086-6.285 2.116c-3.456 1.165-6.593 2.117-6.97 2.117-.627 0-3.783-8.548-3.305-8.95.113-.096 2.925-1.072 6.248-2.169 3.322-1.097 6.04-2.061 6.04-2.143s-.45-1.47-1-3.085c-.683-2.003-1.272-2.834-1.853-2.61-2.606 1-11.534 3.537-11.735 3.336-.131-.131-.765-1.932-1.41-4.002l-1.17-3.764 6.715-2.092c4.698-1.463 6.705-2.372 6.68-3.022-.065-1.586-1.626-5.27-2.193-5.175-2.862.484-20.675 6.625-20.675 7.128 0 1.683 11.294 35.222 11.86 35.222.354 0 5.149-1.433 10.655-3.184m118.443-.13c6.648-3.096 10.907-10.904 10.907-19.995 0-9.995-6.96-16.71-18.064-17.425-3.903-.252-5.204-.073-7.894 1.084-5.707 2.455-9.975 8.734-11.388 16.756-2.07 11.754 6.24 20.94 19 21.003 3.275.016 5.096-.333 7.44-1.423m-83.637-7.951c.191-.191.093-3.798-.217-8.016s-.502-7.744-.426-7.835c.075-.09 2.828-.342 6.116-.558l5.979-.393v-6.559l-6.506.369-6.505.368v-4.048c0-4.678.143-4.784 6.505-4.813 2.045-.01 4.377-.193 5.183-.41 1.347-.36 1.435-.62 1.082-3.194-.211-1.542-.504-2.923-.65-3.07-.285-.284-20.343 1.094-20.692 1.422-.114.107.375 8.372 1.087 18.368.713 9.995 1.294 18.416 1.292 18.712-.004.569 7.157.251 7.752-.343m43.435-1.162c3.558-1.722 7.338-6.102 8.7-10.08 1.643-4.806 1.496-12.849-.308-16.835-3.088-6.82-8.775-10.223-17.086-10.223-8.166 0-12.772 2.63-15.964 9.113-2.47 5.015-3.098 12.225-1.535 17.602 1.715 5.898 6.678 10.365 13.01 11.71 3.842.817 10.1.206 13.183-1.287" style="fill:#fff;fill-opacity:1;stroke-width:.619579" data-source="https://football-logos.cc"></path><path d="M228.428 379.5c-13.62-1.322-27.853-4.676-39.456-9.299-48.278-19.234-81.676-62.593-87.98-114.222-.875-7.156-.858-24.657.03-32.054 3.594-29.947 16.39-57.495 36.798-79.222 18.64-19.844 41.096-33.3 66.641-39.933 58.528-15.195 119.459 8.287 152.57 58.799 14.269 21.768 21.77 45.527 22.596 71.578 1.037 32.683-8.383 62.832-27.683 88.603-22.172 29.607-55.7 49.514-92.227 54.76-8.527 1.224-23.867 1.71-31.289.99m-6-38.732v-4.647h35.936v9.294h10.91c9.728 0 10.867-.107 10.53-.988-.996-2.593-2.96-15.783-3.613-24.26-.565-7.328-.559-11.428.026-18.277.659-7.701 2.397-18.604 3.542-22.211.36-1.132-.128-1.178-12.37-1.178h-12.742v9.913h-29.12V278.5h-24.938000000000002l.42 2.013c4.366 20.893 4.36 45.94-.017 63.375l-.383 1.526h21.82zm4.444-65.152c.925-.837 1.133-1.973 1.133-6.195v-5.17h-4.957000000000001v3.097c0 3.03-.041 3.098-1.858 3.098s-1.86-.069-1.86-3.098v-3.098h-5.574999999999999v3.098c0 3.03-.042 3.098-1.86 3.098-1.817 0-1.858-.069-1.858-3.098v-3.098h-4.956v6.196h-4.338v-6.196h-4.956v4.686c0 3.48.279 5.068 1.084 6.176l1.084 1.49 13.892.02c12.075.017 14.04-.114 15.025-1.005m56.514-.501c.697-1.065 1-2.942 1-6.196v-4.669h-4.956v6.196h-4.337v-6.196h-4.957000000000001v3.098c0 3.03-.041 3.098-1.858 3.098s-1.86-.069-1.86-3.098v-3.098h-5.574999999999999v3.098c0 3.03-.042 3.098-1.86 3.098-1.817 0-1.858-.069-1.858-3.098v-3.098h-4.956v4.82c0 7.92-.74 7.572 16.072 7.572h14.144zM171.623 247.83v-4.646h35.936v9.293h10.884c10.072 0 10.861-.08 10.574-1.084-.601-2.097-2.212-11.049-2.836-15.757-1.149-8.674-1.444-19.857-.729-27.597.633-6.851 2.69-19.258 3.574-21.562.302-.788-1.417-.914-12.417-.914h-12.768v9.913h-29.12v-9.913h-24.938l.407 2.013c2.688 13.302 3.713 25.084 3.273 37.64-.308 8.798-1.81 20.652-3.277 25.867l-.392 1.394h21.829zm100.992 0v-4.646h35.935v9.293h21.84l-.414-2.013c-2.857-13.866-3.14-16.843-3.122-32.683.018-14.793.127-16.301 1.7-23.681.925-4.335 1.681-8.03 1.681-8.21s-5.576-.327-12.391-.327h-12.392v9.913h-29.74v-9.913H263.28c-11.557 0-12.41.076-12.093 1.084 1.661 5.304 3.005 17.253 3.296 29.317.336 13.962-.19 21.244-2.245 31.092l-1.132 5.421h21.51zm-96.549-65.151c.926-.838 1.134-1.974 1.134-6.196v-5.17h-4.957000000000001v3.097c0 3.03-.041 3.098-1.859 3.098-1.817 0-1.859-.069-1.859-3.098v-3.097h-5.576v3.097c0 3.03-.041 3.098-1.859 3.098-1.817 0-1.858-.069-1.858-3.098v-3.097h-4.957000000000001v6.195h-4.337v-6.195h-4.957000000000001v4.761c0 4.037.206 4.98 1.348 6.196 1.329 1.415 1.53 1.434 14.976 1.434 11.812 0 13.78-.137 14.761-1.025m56.311-.369c.913-1.094 1.167-2.428 1.184-6.196l.02-4.801h-4.956v6.195h-4.338v-6.195h-4.956v3.097c0 3.03-.041 3.098-1.859 3.098-1.817 0-1.859-.069-1.859-3.098v-3.097h-4.956v6.195h-4.337v-6.195h-4.957000000000001v4.668c0 3.254.303 5.131 1 6.196l1.001 1.527h13.925c13.683 0 13.945-.024 15.088-1.394m45 .047c1.261-1.186 1.433-1.929 1.433-6.196v-4.848h-4.956v6.195h-4.337v-6.195h-4.957000000000001v3.097c0 3.03-.041 3.098-1.859 3.098-1.817 0-1.858-.068-1.858-3.098v-3.097h-5.577v3.097c0 3.03-.04 3.098-1.858 3.098s-1.859-.068-1.859-3.098v-3.097h-4.957000000000001v4.818c0 7.9-.675 7.573 15.64 7.573 13.224 0 13.761-.048 15.144-1.347m56.53-.285c1.036-1.316 1.285-2.518 1.285-6.196v-4.563h-5.576v3.097c0 3.03-.041 3.098-1.859 3.098-1.817 0-1.859-.068-1.859-3.098v-3.097h-4.956v6.195h-4.337v-6.195h-4.957000000000001v3.097c0 3.03-.041 3.098-1.859 3.098-1.817 0-1.858-.068-1.858-3.098v-3.097h-5.577v4.761c0 4.037.206 4.98 1.348 6.196 1.33 1.416 1.523 1.434 15.134 1.434h13.788zM252.788 71.07c-4.16-2.277-6.262-8.639-4.92-14.895 1.668-7.78 7.671-11.731 13.883-9.136 6.87 2.87 8.022 16.71 1.886 22.658-2.738 2.653-7.426 3.247-10.849 1.373M294.724 80.577c-5.01-1.787-6.901-4.95-6.477-10.834.476-6.608 4.502-12.947 8.926-14.058 4.31-1.081 9.198 1.18 11.068 5.122 2.143 4.517.002 13.534-4.13 17.385-1.373 1.28-5.462 3.316-6.538 3.255-.267-.015-1.549-.406-2.85-.87M362.054 100.312c-1.072-.53-2.52-1.569-3.217-2.311l-1.268-1.35 2.701-3.096 2.7-3.097 2.271 2.169c3.246 3.1 3.616 3.997 2.52 6.115-1.391 2.692-2.701 3.052-5.707 1.57M350.991 112.54c-1.022-.632-2.354-1.706-2.96-2.389-1.069-1.204-1.016-1.341 1.838-4.735 1.616-1.923 3.242-3.495 3.613-3.495.849 0 4.241 3.552 5.232 5.477.582 1.133.58 1.85-.011 3.277-1.31 3.164-4.399 3.911-7.712 1.865M379.837 130.938l-2.549-3.201 6.368-2.618c3.503-1.44 6.453-2.54 6.556-2.446.281.258-6.938 11.387-7.415 11.43-.226.02-1.558-1.405-2.96-3.165M398.097 343.46c-2-1.573-1.92-3.761.276-7.482l1.346-2.282 3.62 2.262 3.618 2.262-1.829 2.66c-1.72 2.5-3.44 3.916-4.756 3.916-.317 0-1.34-.601-2.275-1.336M383.8 335.84c-.836-.837-1.52-2.1-1.52-2.809 0-1.691 2.928-7.442 3.79-7.442 1.184 0 7.982 4.486 7.982 5.267 0 .415-1.139 2.048-2.53 3.63-2.993 3.399-5.276 3.8-7.721 1.354M68.773 206.06c-3.868-1.028-4.024-1.144-3.946-2.944.194-4.48 3.598-8.203 6.65-7.275 3.295 1.002 4.229 3.851 3.105 9.472-.44 2.199-.373 2.19-5.809.746M54.058 202.425c-4.417-1.104-4.677-1.707-2.66-6.152 1.312-2.888 3.347-3.862 5.575-2.67 1.999 1.07 2.59 3.284 1.826 6.845-.364 1.696-.708 3.052-.765 3.014s-1.846-.505-3.976-1.037M74.35 173.832c-5.557-1.696-10.772-6.364-11.511-10.302-.592-3.155 1.293-7.553 4.027-9.395 4.523-3.048 13.903-.818 18.478 4.392 2.353 2.68 2.913 4.504 2.448 7.969-.805 6.003-6.905 9.332-13.443 7.336M110.66 101.654c-1.57-1.836-2.853-3.477-2.853-3.646 0-.712 5.899-4.142 7.123-4.142 1.73 0 4.03 2.464 4.03 4.319 0 1.612-2.519 5.24-4.299 6.193-.961.515-1.615.07-4.002-2.724M254.743 420.676c-2.643-3.36-2.244-8.555.81-10.556 4.77-3.127 9.577 6.49 5.496 10.998-1.536 1.697-4.803 1.468-6.306-.442M225.51 418.125c-3.395-2.26-4.034-4.86-1.725-7.01 2.796-2.605 7.937-.846 7.937 2.716 0 1.621-2.74 5.314-3.944 5.314-.405 0-1.426-.459-2.268-1.02M223.358 435.745c-3.3-1.893-3.71-5.24-.977-7.974.996-.996 2.26-1.81 2.81-1.81 1.559 0 4.025 1.866 5.027 3.803 2.255 4.36-2.483 8.491-6.86 5.98" style="fill:#fff;fill-opacity:1;stroke-width:.619579" data-source="https://football-logos.cc"></path><!-- source: https://football-logos.cc --></svg>