<svg xmlns="http://www.w3.org/2000/svg" xml:space="preserve" viewBox="13.78 11.11 452.44 644.45"><!-- Source: https://football-logos.cc --><defs data-source="https://football-logos.cc"><clipPath id="a" clipPathUnits="userSpaceOnUse"><path d="M0 500h360V0H0Z"></path></clipPath></defs><g clip-path="url(#a)" transform="matrix(1.33333 0 0 -1.33333 0 666.667)" data-source="https://football-logos.cc"><path d="M0 0c-.04 1.148-.096 2.291-.147 3.436-.036.79-.064 1.582-.105 2.37-.08 1.546-.177 3.085-.278 4.623-.024.356-.041.716-.067 1.071A324 324 0 0 1-3 34.381h-320.014a325 325 0 0 1-2.403-22.881c-.025-.355-.043-.715-.067-1.071a334 334 0 0 1-.278-4.623c-.04-.788-.07-1.58-.105-2.37-.051-1.145-.107-2.288-.147-3.436-.04-1.156-.064-2.318-.092-3.479-.02-.804-.048-1.608-.062-2.416a346 346 0 0 1 0-11.904c.014-.808.042-1.615.062-2.422.028-1.158.052-2.318.092-3.472.04-1.151.096-2.297.148-3.446.035-.785.064-1.574.104-2.357.081-1.551.178-3.096.279-4.641.024-.349.041-.703.066-1.054 3.709-53.61 20.188-102.707 47.332-140.141 30.525-42.098 71.394-65.281 115.077-65.281 43.684 0 84.552 23.183 115.079 65.281C-20.785-137.898-4.306-88.801-.597-35.191c.025.351.043.705.066 1.054.102 1.545.199 3.09.279 4.641.041.783.069 1.572.105 2.357.051 1.149.107 2.295.147 3.446.04 1.154.063 2.314.092 3.472q.023.902.047 1.807v13.135q-.024.9-.047 1.8C.063-2.318.04-1.156 0 0" style="fill:#e32325;fill-opacity:1;fill-rule:nonzero;stroke:none" transform="translate(343.007 261.846)"></path><path d="M0 0c6.487-14.348 14.16-27.719 22.962-39.859.705-.971 1.421-1.922 2.137-2.873v212.586H0Z" style="fill:#231f20;fill-opacity:1;fill-rule:nonzero;stroke:none" transform="translate(41.959 126.373)"></path><path d="M0 0v-211.093c7.98-7.041 16.372-13.08 25.099-18.056V-39.05C13.689-28.499 4.956-15.108 0 0" style="fill:#231f20;fill-opacity:1;fill-rule:nonzero;stroke:none" transform="translate(92.156 267.394)"></path><path d="M0 0c8.188-2.629 16.572-4.408 25.098-5.283v182.762A91.8 91.8 0 0 0 0 184.623Z" style="fill:#231f20;fill-opacity:1;fill-rule:nonzero;stroke:none" transform="translate(142.355 27.164)"></path><path d="M0 0c8.525.877 16.909 2.656 25.098 5.285v184.623A91.7 91.7 0 0 0 0 182.764Z" style="fill:#231f20;fill-opacity:1;fill-rule:nonzero;stroke:none" transform="translate(192.552 21.88)"></path><path d="M0 0v-190.098c8.728 4.977 17.119 11.016 25.1 18.057v211.1C20.145 23.948 11.41 10.555 0 0" style="fill:#231f20;fill-opacity:1;fill-rule:nonzero;stroke:none" transform="translate(242.748 228.346)"></path><path d="M0 0v-212.58c.714.949 1.428 1.898 2.132 2.867 8.804 12.143 16.477 25.516 22.966 39.867V0Z" style="fill:#231f20;fill-opacity:1;fill-rule:nonzero;stroke:none" transform="translate(292.946 296.227)"></path><path d="M0 0c-30.526 42.097-71.396 65.281-115.079 65.281-43.684 0-84.552-23.184-115.078-65.281-23.23-32.036-38.64-72.619-44.928-117.259H44.929C38.641-72.619 23.229-32.036 0 0" style="fill:#fff;fill-opacity:1;fill-rule:nonzero;stroke:none" transform="translate(295.078 413.486)"></path><path d="M0 0c-.014-.809-.042-1.615-.062-2.422C-.091-3.58-.114-4.74-.154-5.895c-.04-1.15-.096-2.296-.148-3.445-.035-.785-.063-1.574-.104-2.357-.08-1.551-.177-3.096-.28-4.641q-.031-.525-.065-1.055C-4.46-71.002-20.939-120.1-48.083-157.533c-30.527-42.098-71.396-65.281-115.079-65.281-43.684 0-84.552 23.183-115.078 65.281-27.143 37.433-43.622 86.531-47.332 140.14-.024.352-.042.706-.065 1.055a355 355 0 0 0-.28 4.641c-.04.783-.068 1.572-.104 2.357-.051 1.149-.107 2.295-.147 3.445-.04 1.155-.064 2.315-.092 3.473-.02.807-.048 1.613-.062 2.422a347 347 0 0 0-.053 5.952q.001 2.987.053 5.952c.014.808.042 1.612.062 2.416.028 1.16.052 2.323.092 3.479.04 1.148.096 2.291.147 3.435.035.79.064 1.582.104 2.37.081 1.546.178 3.085.279 4.624.023.356.042.715.067 1.071 3.709 53.609 20.188 102.707 47.331 140.14 30.526 42.097 71.394 65.281 115.078 65.281s84.553-23.184 115.079-65.281C-20.939 132.006-4.46 82.908-.751 29.299c.025-.356.043-.715.066-1.071a320 320 0 0 0 .279-4.624c.041-.788.069-1.58.104-2.37.052-1.144.108-2.287.148-3.435.04-1.156.063-2.319.092-3.479.02-.804.048-1.608.062-2.416q.052-2.965.053-5.952Q.052 2.968 0 0m6.448-.184q.054 3.063.055 6.136-.001 3.075-.055 6.136c-.002.164-.01.326-.012.49C5.275 74.443-12.11 132.399-42.828 176.404c-32.057 45.924-74.792 71.216-120.334 71.216s-88.276-25.292-120.334-71.217c-30.715-44.004-48.102-101.96-49.262-163.825-.003-.164-.01-.326-.013-.49a358 358 0 0 1-.054-6.136q0-3.073.054-6.136c.003-.164.01-.33.013-.496 1.161-61.861 18.548-119.814 49.262-163.818 32.058-45.926 74.793-71.217 120.334-71.217 45.542 0 88.277 25.291 120.334 71.217C-12.111-120.494 5.274-62.541 6.436-.68c.002.166.01.332.012.496" style="fill:#231f20;fill-opacity:1;fill-rule:nonzero;stroke:none" transform="translate(343.161 244.047)"></path><path d="M0 0c0-38.021 30.82-68.84 68.838-68.84 38.019 0 68.84 30.819 68.84 68.84 0 38.016-30.821 68.835-68.84 68.835C30.82 68.835 0 38.016 0 0" style="fill:#fff;fill-opacity:1;fill-rule:nonzero;stroke:#231f20;stroke-width:2;stroke-linecap:butt;stroke-linejoin:miter;stroke-miterlimit:10;stroke-dasharray:none;stroke-opacity:1" transform="translate(111.161 301.492)"></path><path d="M0 0c.078-3.938-1.635-20.251-7.695-25.942-.881-.829-1.648-1.335-2.324-1.892-7.743-3.905-14.317-4.866-17.988-5.114-3.003-.049-3.661 1.044-3.661 1.044s-11.22 16.579-12.889 19.45c-.616 1.058-.878 1.937-.962 2.611 1.075 2.198 3.193 6.75 4.798 11.328 2.448 6.972 3.541 11.305 3.993 13.37.539.752 1.653 1.676 3.939 2.53 4.325 1.614 9.518 4.107 18.23 4.764.167.013.351-.657.535-.668C-7.148 16.651-.036.153-.036.153h.01C-.015.153-.006.298 0 0m-60.765-56.604c-8.275.228-12.304 1.3-14.244 2.181-1.072 1.084-12.653 12.928-14.102 19.931.078.584.204 1.149.412 1.661 1.163 2.876 12.754 19.297 12.754 19.297s1 1.328 2.592 2.146a135 135 0 0 1 12.686-.609c6.193 0 12.494.599 14.088.761.895-.697 1.421-1.397 1.421-1.397s11.593-16.423 12.757-19.298c.484-1.201.552-2.7.463-4.043-3.019-7.422-13.539-17.943-13.539-17.943q.037-.035.073-.074c-2.66-1.369-7.399-2.832-15.361-2.613M-120.886-.847c.054 3.032.341 4.08.468 4.405 2.041 4.156 6.959 13.494 11.956 17.767 1.097.505 2.241.756 3.137.69 8.712-.659 13.904-3.15 18.228-4.766.918-.34 1.645-.695 2.223-1.043.121-.736.969-5.338 4.256-14.715 1.753-5.001 4.123-9.962 5.066-11.868-.033-.713-.263-1.702-.992-2.956-1.671-2.871-12.891-19.43-12.891-19.43s-.294-.469-1.384-.766c-3.166.053-10.834.746-20.092 5.542a51 51 0 0 0-1.825 1.633c-6.078 5.675-8.216 21.568-8.15 25.507m23.44 56.915c5.334 3.717 11.23 5.411 14.709 6.144-.012-.051-.019-.09-.019-.09 10.265.149 19.138-4.051 21.95-5.538.36-.343.716-.961.799-2.073.18-2.404-.66-20.789-.66-20.789s.006-.758-.581-1.576c-1.928-1.086-8.23-4.668-12.158-7.216-3.72-2.411-8.677-6.343-10.635-7.924-1.33.092-2.587.645-2.587.645-5.943 2.67-16.226 4.808-18.496 4.942-.99.058-1.675.586-2.135 1.162-.901 3.249-2.943 12.256-.528 20.136 1.136 2.446 4.178 7.885 10.341 12.177m58.727 6.725c3.527-.789 9.11-2.495 14.185-6.029 8.217-5.722 10.888-13.478 10.888-13.478l.259-.296c2.291-8.737-.544-18.524-1.076-20.223a3 3 0 0 0-.295-.039c-2.273-.133-12.557-2.272-18.502-4.942 0 0-2.268-1.002-3.936-.533a.6.6 0 0 1-.394-.008c-2.13 1.709-6.795 5.387-10.339 7.685-3.53 2.286-8.969 5.408-11.44 6.809-.45.594-.956 1.403-.905 1.983.086 1.023.463 19.041.714 21.011.096.778.263 1.364.453 1.811 6.708 3.969 17.239 5.778 20.388 6.249M6.821 9.594c-.09 14.688-9.613 29.469-9.613 29.469-4.819 4.147-8.577 4.977-10.153 5.133-1.154 2.06-4.688 7.684-11.201 12.563-4.75 3.554-10.124 5.429-13.785 6.377-2.808 4.393-8.409 6.377-8.409 6.377-15.848 4.095-30.895-.534-30.895-.534-3.657-2.482-4.918-5.007-5.328-6.18-3.566-.793-9.827-2.663-15.266-6.736-5.897-4.414-9.354-9.441-10.812-11.882-1.652-.197-5.327-1.1-9.994-5.118 0 0-9.778-14.781-9.866-29.469 0 0 2.144-6.358 6.852-8.015.012-.296.021-.61.032-.956.131-6.277 2.202-17.028 5.54-23.104 1.43-2.603 2.662-4.38 3.268-5.209-.593-1.768-1.96-7.342 1.029-15.069 0 0 6.411-11.131 23.239-17.986 0 0 8.366.771 13.313 5.906 1.936-.799 6.097-1.904 14.463-2.064 8.687-.168 13.53 1.226 15.952 2.304 4.979-4.812 12.961-5.548 12.961-5.548 16.827 6.855 23.234 17.984 23.234 17.984 3.068 7.928 1.552 13.594.986 15.203.598.822 1.83 2.608 3.265 5.232C-1.105-15.756.551-4.57.726 1.778c4.337 1.916 6.095 7.816 6.095 7.816" style="fill:#070405;fill-opacity:1;fill-rule:nonzero;stroke:none" transform="translate(240.764 299.347)"></path><path d="M0 0c.078-3.938-1.635-20.251-7.695-25.942-.881-.829-1.648-1.335-2.324-1.892-7.743-3.905-14.317-4.866-17.988-5.114-3.003-.049-3.661 1.044-3.661 1.044s-11.22 16.579-12.889 19.45c-.616 1.058-.878 1.937-.962 2.611 1.075 2.198 3.193 6.75 4.798 11.328 2.448 6.972 3.541 11.305 3.993 13.37.539.752 1.653 1.676 3.939 2.53 4.325 1.614 9.518 4.107 18.23 4.764.167.013.351-.657.535-.668C-7.148 16.651-.036.153-.036.153h.01C-.015.153-.006.298 0 0Zm-60.765-56.604c-8.275.228-12.304 1.3-14.244 2.181-1.072 1.084-12.653 12.928-14.102 19.931.078.584.204 1.149.412 1.661 1.163 2.876 12.754 19.297 12.754 19.297s1 1.328 2.592 2.146a135 135 0 0 1 12.686-.609c6.193 0 12.494.599 14.088.761.895-.697 1.421-1.397 1.421-1.397s11.593-16.423 12.757-19.298c.484-1.201.552-2.7.463-4.043-3.019-7.422-13.539-17.943-13.539-17.943q.037-.035.073-.074c-2.66-1.369-7.399-2.832-15.361-2.613zM-120.886-.847c.054 3.032.341 4.08.468 4.405 2.041 4.156 6.959 13.494 11.956 17.767 1.097.505 2.241.756 3.137.69 8.712-.659 13.904-3.15 18.228-4.766.918-.34 1.645-.695 2.223-1.043.121-.736.969-5.338 4.256-14.715 1.753-5.001 4.123-9.962 5.066-11.868-.033-.713-.263-1.702-.992-2.956-1.671-2.871-12.891-19.43-12.891-19.43s-.294-.469-1.384-.766c-3.166.053-10.834.746-20.092 5.542a51 51 0 0 0-1.825 1.633c-6.078 5.675-8.216 21.568-8.15 25.507zm23.44 56.915c5.334 3.717 11.23 5.411 14.709 6.144-.012-.051-.019-.09-.019-.09 10.265.149 19.138-4.051 21.95-5.538.36-.343.716-.961.799-2.073.18-2.404-.66-20.789-.66-20.789s.006-.758-.581-1.576c-1.928-1.086-8.23-4.668-12.158-7.216-3.72-2.411-8.677-6.343-10.635-7.924-1.33.092-2.587.645-2.587.645-5.943 2.67-16.226 4.808-18.496 4.942-.99.058-1.675.586-2.135 1.162-.901 3.249-2.943 12.256-.528 20.136 1.136 2.446 4.178 7.885 10.341 12.177zm58.727 6.725c3.527-.789 9.11-2.495 14.185-6.029 8.217-5.722 10.888-13.478 10.888-13.478l.259-.296c2.291-8.737-.544-18.524-1.076-20.223a3 3 0 0 0-.295-.039c-2.273-.133-12.557-2.272-18.502-4.942 0 0-2.268-1.002-3.936-.533a.6.6 0 0 1-.394-.008c-2.13 1.709-6.795 5.387-10.339 7.685-3.53 2.286-8.969 5.408-11.44 6.809-.45.594-.956 1.403-.905 1.983.086 1.023.463 19.041.714 21.011.096.778.263 1.364.453 1.811 6.708 3.969 17.239 5.778 20.388 6.249zM6.821 9.594c-.09 14.688-9.613 29.469-9.613 29.469-4.819 4.147-8.577 4.977-10.153 5.133-1.154 2.06-4.688 7.684-11.201 12.563-4.75 3.554-10.124 5.429-13.785 6.377-2.808 4.393-8.409 6.377-8.409 6.377-15.848 4.095-30.895-.534-30.895-.534-3.657-2.482-4.918-5.007-5.328-6.18-3.566-.793-9.827-2.663-15.266-6.736-5.897-4.414-9.354-9.441-10.812-11.882-1.652-.197-5.327-1.1-9.994-5.118 0 0-9.778-14.781-9.866-29.469 0 0 2.144-6.358 6.852-8.015.012-.296.021-.61.032-.956.131-6.277 2.202-17.028 5.54-23.104 1.43-2.603 2.662-4.38 3.268-5.209-.593-1.768-1.96-7.342 1.029-15.069 0 0 6.411-11.131 23.239-17.986 0 0 8.366.771 13.313 5.906 1.936-.799 6.097-1.904 14.463-2.064 8.687-.168 13.53 1.226 15.952 2.304 4.979-4.812 12.961-5.548 12.961-5.548 16.827 6.855 23.234 17.984 23.234 17.984 3.068 7.928 1.552 13.594.986 15.203.598.822 1.83 2.608 3.265 5.232C-1.105-15.756.551-4.57.726 1.778c4.337 1.916 6.095 7.816 6.095 7.816z" style="fill:none;stroke:#231f20;stroke-width:1;stroke-linecap:butt;stroke-linejoin:miter;stroke-miterlimit:10;stroke-dasharray:none;stroke-opacity:1" transform="translate(240.764 299.347)"></path><path d="m0 0 4.174-12.847h13.509l-10.929-7.94 4.174-12.847L0-25.694l-10.929-7.94 4.174 12.847-10.928 7.94h13.508z" style="fill:#d2ac67;fill-opacity:1;fill-rule:nonzero;stroke:none" transform="translate(180 471.06)"></path><path d="m0 0 2.264 6.512 7.965-2.77-5.594 9.592 3.012 8.662 5.281-10.457 15.915 3.474-2.788-8.02-10.213-1.431L18.197.973 23.34-.815l-2.264-6.513z" style="fill:#231f20;fill-opacity:1;fill-rule:nonzero;stroke:none" transform="translate(67.495 329.315)"></path><path d="m0 0 9.327 14.27 4.014-2.624-5.538-8.472 3.261-2.132 4.73 7.237 3.771-2.466-4.73-7.236 7.632-4.988-3.789-5.797z" style="fill:#231f20;fill-opacity:1;fill-rule:nonzero;stroke:none" transform="translate(78.941 357.776)"></path><path d="m0 0 5.009 4.256q1.127-1.152 2.153-1.431 1.664-.448 3.249.737 1.183.884 1.408 1.917.226 1.032-.321 1.765-.519.695-1.539.787T6.356 6.954Q2.112 5.055-.447 5.252q-2.573.187-4.139 2.285-1.03 1.377-1.147 3.199t.962 3.722q1.08 1.899 3.872 3.985 3.425 2.56 6.176 2.63 2.75.07 5.17-2.455l-4.979-4.195q-1.11 1.051-2.183 1.104-1.075.053-2.245-.822-.964-.72-1.146-1.493-.183-.773.254-1.358.32-.427.977-.468.654-.062 2.345.727 4.205 1.925 6.368 2.298 2.164.372 3.76-.278 1.598-.65 2.691-2.112a7.1 7.1 0 0 0 1.418-3.881q.133-2.162-1.014-4.187-1.146-2.026-3.743-3.966-4.56-3.408-7.628-2.964Q2.255-2.533 0 0" style="fill:#231f20;fill-opacity:1;fill-rule:nonzero;stroke:none" transform="translate(111.784 375.912)"></path><path d="m0 0 6.377 2.622L9.346-4.6l6.969 2.864-2.969 7.222 6.404 2.633 8.485-20.638-6.406-2.633-3.432 8.348-6.969-2.864 3.432-8.348-6.377-2.621z" style="fill:#231f20;fill-opacity:1;fill-rule:nonzero;stroke:none" transform="translate(126.293 404.185)"></path><path d="m0 0 6.845.834 1.02-8.37 6.149 9.244 9.103 1.11-7.064-9.346 10.127-12.76-8.429-1.027-5.78 8.54-3.085-4.136.659-5.404-6.844-.835z" style="fill:#231f20;fill-opacity:1;fill-rule:nonzero;stroke:none" transform="translate(155.315 414.72)"></path><path d="m0 0 3.97-.509-.485-3.775-3.97.51zm-6.402.821 3.926-.503-.485-3.774-3.925.503zm-4.422-4.696L7.502-6.226l-.606-4.726-11.474 1.473-.451-3.518 10.643-1.366-.579-4.513-10.643 1.365-.559-4.363 11.805-1.515-.643-5.012-18.66 2.395z" style="fill:#231f20;fill-opacity:1;fill-rule:nonzero;stroke:none" transform="translate(196.726 420.939)"></path><path d="m0 0 5.978-2.392 3.214-14.582 4.586 11.461 6.034-2.414-8.289-20.717-6.034 2.415L2.282-11.75l-4.551-11.375-6.02 2.408z" style="fill:#231f20;fill-opacity:1;fill-rule:nonzero;stroke:none" transform="translate(212.947 412.603)"></path><path d="m0 0-7.282-9.777 1.354-1.009q1.734-1.291 2.752-1.453 1.02-.161 2.148.489 1.129.648 2.729 2.796Q3.819-6.11 3.674-4.368q-.147 1.74-2.294 3.341zm-2.51 8.172 8.214-6.12q2.43-1.81 3.435-3.583a7.96 7.96 0 0 0 1.06-3.732q.058-1.96-.72-3.924a16.6 16.6 0 0 0-2.142-3.794q-2.138-2.868-3.968-3.962t-3.785-1.299q-1.957-.204-3.55.433-2.182.866-3.66 1.967l-8.214 6.119z" style="fill:#231f20;fill-opacity:1;fill-rule:nonzero;stroke:none" transform="translate(243.555 391.72)"></path><path d="m0 0 4.639-5.122-16.54-14.977-4.638 5.122z" style="fill:#231f20;fill-opacity:1;fill-rule:nonzero;stroke:none" transform="translate(263.19 381.508)"></path><path d="m0 0 3.65-5.867-10.294-6.404q-3.241-2.017-5.291-2.494t-4.306.529q-2.258 1.008-3.945 3.721-1.785 2.87-1.991 4.929a6.6 6.6 0 0 0 .752 3.847q.96 1.788 3.06 3.31l4.243-5.122q-1.245-.793-1.724-1.377a2.4 2.4 0 0 1-.548-1.309q-.037-.489.35-1.11.61-.981 1.625-.986t2.745 1.071z" style="fill:#231f20;fill-opacity:1;fill-rule:nonzero;stroke:none" transform="translate(278.644 361.367)"></path><path d="m0 0 6.803 4.912-8.379-.271Zm-4.108-2.906-2.519 7.412-3.837-.154-2.265 6.666 23.826-.764 2.419-7.121-18.43-15.117-2.322 6.837z" style="fill:#231f20;fill-opacity:1;fill-rule:nonzero;stroke:none" transform="translate(276.983 331.86)"></path><path d="M0 0q-1.07.892-2.111.844Q-3.154.797-3.745.088a1.9 1.9 0 0 1-.451-1.524q.11-.849 1.211-1.77 1.117-.932 2.044-.884.927.047 1.535.773.585.7.483 1.602Q.974-.815 0 0m.231-9.534 1.73 2.549q.726-.46 1.343-.359.618.103 1.117.697.628.753.439 1.807-.187 1.05-2.046 2.856.201-1.726-.948-3.1Q.616-6.582-1.34-6.79t-3.639 1.196q-1.753 1.465-1.869 3.508t1.366 3.816q1.61 1.929 4 2.032 2.389.104 5.495-2.491 3.16-2.639 3.484-5.098.322-2.457-1.404-4.525-1.243-1.487-2.729-1.803-1.484-.316-3.133.621" style="fill:#fff;fill-opacity:1;fill-rule:nonzero;stroke:none" transform="translate(242.833 251.4)"></path><path d="m0 0-1.744 2.025 8.203 7.071 1.365-1.584q-.233-1.785.181-4.389a19 19 0 0 1 1.512-4.992q1.098-2.388 2.404-3.885L9.606-7.748q-1.972 2.41-3.074 5.736a20.7 20.7 0 0 0-1.077 6.713Z" style="fill:#fff;fill-opacity:1;fill-rule:nonzero;stroke:none" transform="translate(226.741 238.86)"></path><path d="M0 0q-.723 1.19-1.726 1.479-1 .291-1.79-.19-.751-.456-.919-1.297-.168-.84.579-2.064.755-1.242 1.648-1.498a2.07 2.07 0 0 1 1.702.238q.78.475.974 1.361Q.661-1.087 0 0m-2.852-9.1 2.459 1.856Q.145-7.91.763-8.016q.617-.102 1.281.301.839.509.999 1.567T2.025-2.785Q1.66-4.481.13-5.416q-1.666-1.012-3.585-.58-1.919.434-3.059 2.307-1.188 1.95-.639 3.921.548 1.972 2.521 3.172 2.146 1.306 4.443.635Q2.106 3.368 4.21-.09q2.141-3.516 1.654-5.947-.485-2.432-2.786-3.832-1.655-1.007-3.164-.828-1.507.179-2.766 1.597" style="fill:#fff;fill-opacity:1;fill-rule:nonzero;stroke:none" transform="translate(223.242 233.752)"></path><path d="m0 0-2.938-1.18L-6.98 8.889Q-8.042 6.874-9.964 5.34l-.974 2.424q1.013.806 1.98 2.3.966 1.5.956 2.975l2.384.955z" style="fill:#fff;fill-opacity:1;fill-rule:nonzero;stroke:none" transform="translate(216.022 218.842)"></path><path d="m0 0-.273 2.455 2.71.301.274-2.453zm-4.815-.537-.275 2.455 2.699.301.275-2.453zm-.536-16.037L-7.016-1.646 5.158-.289l.281-2.525-8.858-.989.368-3.308 8.243.92.281-2.516-8.244-.92.455-4.062 9.171 1.023.281-2.516z" style="fill:#fff;fill-opacity:1;fill-rule:nonzero;stroke:none" transform="translate(189.459 227.86)"></path><path d="m0 0-4.663 15.449 3.605-.293 3.263-11.42 4.937 10.75 3.527-.289L3.549-.289z" style="fill:#fff;fill-opacity:1;fill-rule:nonzero;stroke:none" transform="translate(170.78 211.842)"></path><path d="M0 0q-.735-2.442.128-4.076.861-1.635 2.771-2.209t3.511.306q1.602.884 2.354 3.385.743 2.473-.083 4.049-.827 1.574-2.801 2.168T2.326 3.35Q.746 2.481 0 0m-3.32.893q.66 2.197 1.833 3.472A7.1 7.1 0 0 0 .578 5.893a6.5 6.5 0 0 0 2.435.679q1.649.125 3.582-.457 3.496-1.052 5.002-3.656 1.505-2.601.449-6.115-1.049-3.484-3.723-4.823t-6.16-.291q-3.53 1.06-5.022 3.645Q-4.354-2.54-3.32.893" style="fill:#fff;fill-opacity:1;fill-rule:nonzero;stroke:none" transform="translate(151.83 223.709)"></path><path d="m0 0 5.937 10.977-4.313 2.332 1.209 2.234 11.548-6.244-1.209-2.237L8.87 9.391 2.935-1.586Z" style="fill:#fff;fill-opacity:1;fill-rule:nonzero;stroke:none" transform="translate(135.746 222.977)"></path><path d="m0 0 9.478 11.65 9.502-7.728-1.603-1.973-6.915 5.625-2.101-2.582 6.434-5.234-1.597-1.963-6.434 5.234-2.579-3.17 7.16-5.826L9.748-7.93Z" style="fill:#fff;fill-opacity:1;fill-rule:nonzero;stroke:none" transform="translate(118.515 235.361)"></path><path d="m0 0 9.529 8.057-3.166 3.744 1.941 1.64L16.78 3.416l-1.94-1.643-3.157 3.737-9.529-8.057Z" style="fill:#fff;fill-opacity:1;fill-rule:nonzero;stroke:none" transform="translate(110.108 244.607)"></path></g><!-- source: https://football-logos.cc --></svg>