<svg xmlns="http://www.w3.org/2000/svg" width="156.746" height="156.746" fill="none"><!-- Source: https://football-logos.cc --><g clip-path="url(#a)" transform="translate(-14.119 -13)" data-source="https://football-logos.cc"><mask id="b" width="158" height="158" x="14" y="13" maskUnits="userSpaceOnUse"><path fill="#fff" d="M171.122 13H14v157.122h157.122z"></path></mask><g mask="url(#b)"><path fill="#d10e1b" d="M92.561 13a78.375 78.375 0 0 1 77.932 70.75A78.373 78.373 0 1 1 62.528 18.954 78.3 78.3 0 0 1 92.561 13"></path><path fill="#fff" d="M92.563 14.458a77.11 77.11 0 0 1 75.64 62.064 77.116 77.116 0 0 1-46.117 86.292 77.112 77.112 0 0 1-84.042-125.77 76.86 76.86 0 0 1 54.519-22.586"></path><path fill="#092d73" d="M92.561 36.64a54.922 54.922 0 0 1 53.865 65.634 54.93 54.93 0 0 1-43.15 43.151 54.93 54.93 0 0 1-56.379-23.352 54.92 54.92 0 0 1-9.256-30.512 54.926 54.926 0 0 1 54.92-54.921"></path><path fill="#fff" d="M117.298 50.787c0-.917-.064-1.575-.085-2.491l-.017-.755c-.012-.525 1.014-.2 1.3.124a3.12 3.12 0 0 1 .547 2.335c0 .438.576.589-.272.873-.124.041-1.466.179-1.472-.085M125.374 60.219a10.6 10.6 0 0 1-1.49-2.206c-.037-.292.425-.345.257-1.016-.068-.276-.315-.884-.636-.884-.226 0-.069.688-.339.688-.429 0-3.735.5-4.09.166a2.84 2.84 0 0 0-1.889-.645c-.675 0-.608-.793-.607-1.572 0-.595-.2-.981.134-1.139.884-.413 3-.171 4.025-.134a1.72 1.72 0 0 1 1.192.651c.489.538.745.981 1.145.254.078-.141.293-.861.385-.861a14.2 14.2 0 0 1 2.859-1.62c.248-.087.579 1.347.693 1.665.329.914 1.068 2.2 1.267 2.89.456 1.589.048 1.772-1.041 2.885-.858.877-.828-.177-2.312-1.462-.407-.352-.5.185-.015 1.071q.337.616.779 1.16c.173.2-.172.307-.316.108M129.888 65.341a9.7 9.7 0 0 0-.335-2.588 1.8 1.8 0 0 0-.544-1.248 2.9 2.9 0 0 0-1.291-.395 9.2 9.2 0 0 0-2.253-.392c-.81 0-1.927.2-3.033.179-1.01-.021-1.4-.309-1.962.595-1.177 1.883-.566 2.087-.566 4.564 0 1.807.438.34 1.606.4a18 18 0 0 0 6.4-.574c.744-.185 1.987-.173 1.979-.543M130.957 66.717c-.12-.264-.428-.623-.428-.07.1.433.278.843.525 1.212.187.423.188.345.618.345.474 0-.464-.935-.715-1.487M115.351 133.172c2.874 1.068 3.845 1.493 4.242 2.135.262.423.164.834-.422.867a4.3 4.3 0 0 0-2.932.949c-.6.413-1.971 1.461-2.936 2.057-.6.422-1.297.687-2.026.771-2.057 0-1.25-2-2.811-.36-1.08 1.138-4.733 3.536-6.676 2.185a9.3 9.3 0 0 1-2.362-1.9 2.42 2.42 0 0 1-.539-1.944c.17-.181.315-.114.788-.084q1.033-.203 2.026-.554a27 27 0 0 0 3.49-.834c-.015-.1-.4-.033-.947.015-1.648.144-5.107.6-5.6.563a8 8 0 0 0-3.894.613c-.328.223-.757.215-.486-.161.353-.444 2.51-.836 3.318-.954.465-.068.045-.26-.29-.268-.878-.017-.2-1.105.622-1.607.347-.211.757-.477 1.084-.189.117.1.276-.2.6-.564q.696-.76 1.5-1.406c1.032-.793 2.332-2.468 1.385-1.74-.361.278-.759.652-1.235 1.078-.439.392-1.107.925-1.514 1.221a6.5 6.5 0 0 1-2.473 1.422c-.43.02-.236-.706-.448-1.316a4.9 4.9 0 0 0-1.063-1.652c-2.549-2.845-.965-5.83.53-8.383 1.186-2.029 2.106-3.662 1.787-6.226 4.107.745 4.771 2.074 5.566 3.753.29.614.507 1.259.646 1.923.086.527.4.228.293-.242-.186-.858.151-1.091.781-1.405a7.4 7.4 0 0 1 2.782-.318c1.386-.026 2.378.068 2.36.28-.015.187-.568.7-1.038 1.532a3.8 3.8 0 0 0-.317.779c-.217.657-.048.859.377.234.281-.421.706-1.354 1.149-2.071.249-.437.344-.946.269-1.444 0-.333-.774-.2-1.39-.2-.747 0-1.375.126-1.4-.245-.043-.66.863-1.5 1.788-2.667.221-.28.414-.934.787-.6a11.8 11.8 0 0 1 3.467 4.947c.241 1.254.366 2.528.373 3.805a5.115 5.115 0 0 1-2.257 4.983 9 9 0 0 1-1.773 1.007 2.47 2.47 0 0 0-1.157.891c-.288.406-.446.89-.454 1.388-.022.3-.1 1.16.362.648.739-.65 1.56-1.199 2.443-1.633.864-.469 1.494-.852 2.3-1.309.446-.252 1.264-.535 1.311-1a7.5 7.5 0 0 1 .576-2.085 4.9 4.9 0 0 1 .781-1.491.877.877 0 0 1 .756-.169.86.86 0 0 1 .5.7 9.4 9.4 0 0 1-.644 1.876c-.332 1.08.422.794.73-.206.09-.3.666-1.078.492-1.456-.83-1.808-1.926-2.786-2.575-4.482a6.32 6.32 0 0 1 .174-4.254c.39-1.2 2.16-3.516.981-6.55-.365-.941.512-.7 1.524-.741 1.285-.053 2.5.541 2.67 1.093.638 2.082 1.167 2.2 1.085 1.24a7.1 7.1 0 0 1 1.064-3.574c.9-1.415 2.869-3.225 3.011-3.55.209-.476-.869.088-.944-.349-.088-.513.183-1.608.183-2.578 0-.732.056-1.481.088-1.86.07-.835.318-.407 2.031-.324a6.2 6.2 0 0 1 1.8.153c.61.276 1.127.723 1.487 1.287.692 1.187 1.159 1.8.805-.721-.185-1.317.063-6.582-5.089-5.9a6.124 6.124 0 0 1 7.175-2.275c1.653.546 1.012.1.268-.165a21 21 0 0 1-2.254-.973c-1.561-.878-2.39-.78-2.449-3.24a31.5 31.5 0 0 1 .2-4.848q1.107.552 2.119 1.26c.057.032 2.131 1.133 1.278.23-.769-.732-2.7-1.256-2.111-3.64a10.6 10.6 0 0 1 1.824-3.5c.25-.2.83.011 1.464.172.492.125 1.214.248 1.65.373.183.052.277.585.441 1 .29.745.668.746.454.026-.261-.876-.443-1.83-.751-2.77-.229-.7.117-.686.63.191.339.728.314.957.557 1.572.076.191.519 1.655.621.764.058-.5.36-.684 1.618.447.379.507.691 1.06.926 1.648q.188.632.276 1.284c.145.375-.953 1.947-1.246 1.745-.2-.133-.365-1.376-.632-1.878-.25-.472-.42-.5-.219.205.27 1.264.449 2.545.535 3.834.041.268.211 2.042.427 1.952.663-.277.918-1 1.655-1.08a26 26 0 0 1 2.743-.493c-.169 2.268.569 5.347.438 7.247a2.97 2.97 0 0 1-2.154 2.68 5.96 5.96 0 0 1-2.629.57c-.839-.222-1.713-1.979-1.115-2.84.547-.787.428-1.169.229-1.064-.322.168-1.189 1.345-1.369 1.234-.822-.979-1.064-.665-.442.313 1.429 2.25 1.475 1.968 1.6 2.7.254 1.507-1.03 3.2-2.188 4.5-.622.7-1.466 1.011-1.333 1.6a4.6 4.6 0 0 1-.38 2.973c-.576.715-.814 1.426-.5 1.426.88 0 1.3-.482 2.1-.164 1.725.69 2.946 1.1 3.144 1.6-1.076 1.05-1.19 1.68-2 4.225-.58 1.816-3.734 3.908-6.6 3.538-.738-.1-.653-.834-1.261-.523-1.452.741-3.055 3.168-3.945 4.591-.48.768-.678.935-1.5 2.119-.424.615-.765 1.288-.686 1.513.07.2.243.039.88.058.678.023 2.669 2.931 2.225 2.988-1.215.155-3.811.417-4.833 1.353-1.263 1.155-1.459 1.856-4.862 1.856-.913 0-.753-.951-1.679-.951a1.46 1.46 0 0 0-1.287.706c-.114.414.527.793 1.47 1.09m10.982-13.53q.694-.622 1.3-1.329c.415-.437.708-1.368 1.146-1.8.6-.6 2.529-3.047 1.758-4.013-.381-.476-1.822-.279-2.511-1.652-.007.535.053 1.553.053 1.723 0 .761.012 1.3.012 2.08a16 16 0 0 1-.052 2.108 3.1 3.1 0 0 1-.548 1.258c-.146.2-1.271 1.349-1.159 1.629m4.128-3.2c0 .834.729-.932.884-1.206q.425-.802.761-1.644c.231-.426.4-.882.5-1.356 0-.2-.318.175-.376.292-.372.747-.461 1-1.16 2.224a6.8 6.8 0 0 0-.611 1.691m-22.91 18.964c.082.187.774-.221.854-.242.4-.1 1.836-.551 2.053-.2.231.371 1.272.056.52-.264-.263-.181-.25-.156-.219-.427.046-.393-.947.008-1.114.077-.267.109-.651.264-.9.388-.4.2-1.218.573-1.2.67m-3.049-1.94c-.29.111.376.436.838.436.42.078.807.279 1.111.578.588.589 1.619-.655 1.885-1.186.777-1.557-.266-2.277-.9-3.3q-.358 1.015-.872 1.96a8.4 8.4 0 0 1-2.058 1.513m-.4 1.691c-.129 0-.163-.011-.163.165 0 .478 1.271-.047 1.41-.225.151-.124.318-.333-.056-.333-.171 0-.781.393-1.192.393"></path><path fill="#fff" d="M132.731 75.573c-1.432.661-3.362 1.2-4.288.816a3.56 3.56 0 0 1-1.446-1.363 14 14 0 0 0-1.364-2.032c-.189-.152-1.224-1.605-1.56-1.722.927-.1 1.779-.834 2.266-.9 1.388-.181 3.473-1.266 4.815-1.266a9.6 9.6 0 0 0 2.5-.2c.3-.17-1.079-.293-.509-1.33.12-.219.425-.128.521-.381a5.23 5.23 0 0 1 1.618-2.055 3.96 3.96 0 0 1 2.665-.658c.14.007.65 4 .811 4.769.369 1.766-.373 3.554-1.624 3.554-.082-.85-1.035-2.936-1.5-3.113-1.452-.639-.6.254-.036.727a2.87 2.87 0 0 1 .618 2.183l.066 2.046c.028.853-.2-.017-1.024.054-.896.102-1.759.4-2.527.875M67.588 49.733l.033-1.95c.013-.76-.676-.45-1.082-.2-.623.39-.568.935-.568 1.478 0 .833-.693 1.71.535 1.677.358-.009.972.126 1.049-.088q.051-.46.033-.92M61.663 54.282c-.836-1.2-.77-1.229-2.064-1.779-.41-.175-.7-.495-.977-.393-.24.09-.4.713-.56 1.091-.537 1.274-1.134 2.437-1.48 3.157-.4.827.224 2.146.907 2.826.484.482.692.731 1.247.112.76-.848 1.3-1.656 1.49-1.516a1.51 1.51 0 0 1-.4 1.411c-.665.814-.987 1.83-.082.74a4.7 4.7 0 0 0 1.15-1.775c.141-.7-.28-.688-.24-.924.1-.397.35-.738.7-.95.253-.026.045.335.411.535.382.114.782.151 1.178.108 1.088-.035 1.813.334 2.518.227a4.5 4.5 0 0 0 1.055-.438c1.056-.509 1.572.186 1.65-1.09q.011-.198.011-.464c-.005-.715.142-1.088-.079-1.378-.3-.4-1.79-.31-3.28-.309a2.6 2.6 0 0 0-2.077.824c-.554.88-.86.332-1.077-.014M63.641 66.976c.4-2.539-.868-3.286-3.088-4.4a13.4 13.4 0 0 0-5.09-.248 2.01 2.01 0 0 0-.894 1.557c-.13.674-.492 1.066.021 1.263.962.37.4 1.954 1.317 2.445 1.44.374 2.94.453 4.412.231q.721-.288 1.475-.467l.964-.215c.117-.027.884.086.884-.163M54.132 70.934c2.4 0 2.774.442 4.9.68 1.648.185 1.329 1 .486 2.107-1.287 1.692-4.3 3.574-6.214 3.3-.693-.1-3.131-.769-3.94-.206-.719.5-.7-1.27-.969-1.906-.106-.254-.53-.12-.306.75.048.187-.349.322-.632.115a5.7 5.7 0 0 1-1.539-2.33 7.2 7.2 0 0 1 .1-3.818c.125-.436.6-2.752 1.6-2.15 1.11.663 4.708 1.393 4 2.716-.274.512-.35.715-.043.8q1.281.072 2.558-.062M47.57 97.496c-.041.079-.139.383-.06.47.1.111 1.148-1.252 1.042-1.428-.319-.531-.928.855-.982.958m2.687-2.115a.64.64 0 0 1-.316.395c-.034.024-.306.117-.316.039-.058-.448.65-.549.632-.434m-.1 9.996c-2.223-2.045-3.8-.927-2.978-5.783.116-.687-.184-.774-.708-.753-.816.033-2.137.481-2.966.481-2.4 0-2.59-2.891-2.6-5.059q.103-1.65.423-3.271c.047-.595 1.489-.67 2.841-.289 1.61.427 1.838.835 1.867 1.958.07 1.06.25 2.11.537 3.132.053.378.192.738.408 1.053.288.279.487.239.153-.654-.476-1.274-1.107-4.6-.3-5.6a67 67 0 0 1 1.982-2.246c.169-.177-.169-.432-.443-.065-.668.9-.817-1.074-1.068.043-.227 1.007-.419 1.557-.543 1.594-.287.085-.134-.874-.134-2.171 0-.359.02-1.278.088-2.07.1-1.161.011-1.766-.337-1.216-.581.917.218 3.323-1.8 1.885a2.19 2.19 0 0 1-.832-1.846c.031-1.769 1.474-2.729 2.972-3.039.181-.038-.015 1.008-.055 1.836-.015.312.03.878.347.147.371-.854 1.187-3.069.961-.771-.122 1.243.385 1.909.5.85.005-.7.158-1.392.448-2.03.37-.24.786-.398 1.222-.466.433-.13 1.386-1.042 1.721-.9.253.108.223.577.347 1.062.116.455.189.81.288 1.409.068.391 0 .794-.192 1.141-.42.921.383 1.074 1.222-.27.337-.539 1.206 1.447 1.206 2.008 0 3.374.1 5.913-1.79 7.755-1.067 1.04-1.782 1.32-1.143 1.376.45.04 2.018 0 3.446.052 2.95.11 2.372.375.972 1.224-3.576 2.17-3.007 9.113-6.067 9.491M89.182 136.28c-.16-.121-1.537.031-2.422-.026-.3-.019-.513-.69-.808-.722a10 10 0 0 1-1.923-.389c-4.3-1.058-9.075-2.245-13.442-4.606a3.7 3.7 0 0 1-.717-.665c-.086-.1-.071-.264.068-.258.178.006.613.292.61.14a3.49 3.49 0 0 0-2.451-3.214c-.153-.035-.189.4-.412.483-.569.215-.523-.23-.242-.691.147-.241.058-.189.514-1.046a8.55 8.55 0 0 0 1.474-4.216 8.4 8.4 0 0 0-.9-2.836 16 16 0 0 1-.6-2 13.1 13.1 0 0 1 0-4.291c-2.312 0-3.723 1.451-5.249 3.267-.791.941-.87.361-.6-.051.412-.479.623-1.1.589-1.731a6.1 6.1 0 0 0-.993-2.705 6.63 6.63 0 0 0-3.55-3.176l-.039 1.339c-.016.563-.425.511-.425.055a8 8 0 0 1 .024-2.023c.126-.126 1.525.473 1.719.279.988-.989.327-3.267-.023-4.906a5.6 5.6 0 0 0-1.933.872c-1.319.653-4.741 3.222-4.646 5.02.058 1.093.983 3.616 2.2 3.934.379.128 1.772-1.013 2.267-1.872.43-.749.333-.034.216.961s-.254 2.267-.254 2.968c0 1.145.314 3.64-.459 2.767-.673-.761-1.646-1.366-1.941-2.135-.084-.217-.343-.064-.413-.428a4.1 4.1 0 0 0-.5-1.646c-.148-.239-.34-.385-.632-.8a26.7 26.7 0 0 1-2.009-3.843c-.18-.67-1.793-2.722-1.017-.657.296.836.677 1.64 1.135 2.4.476.571.259 1.3-.2.553-.158-.256-.039-.254-.389-.3-1.6 0-4.036 1.28-4.168 2.019-.014.506 1.452 3.308 3.451 5.363a5.64 5.64 0 0 0 2.578 1.262c1.662.214 2.29.482 1.462.582a8.7 8.7 0 0 0-3 .88c-.624.35-1.163 1.211-1.016 1.666a.92.92 0 0 0 .617.646 4.35 4.35 0 0 1 1.854.692c.318.256 1.1 1.129 1.529 1.475 1.279 1.022 1.962 1.432 2.746 1.456 1.165.035 2.373-.9 3.974-2.075.547-.4 2.4 1.439 3.477 2.649.249.28.23.249-.154.582-.45.391-.452.324-1.123-.446-.3-.344-.6-.784-.876-.842-.395-.082-.892.63-1.228 1.155-.362.565-.858 1.432-.68 1.8.1.213.747.286.989.368 2.964 1.218 3.139 1.237 5.268 3.442.341.353 3.261-.041 3.642-.541.132-.171-.4-.428-.345-.65.04-.173.292-.125.48-.106a4.36 4.36 0 0 1 1.9.84c.226.219-.862.587-1.333 1.02-1.236 1.14-1.945 1.71-3.005 2.639-.431.378-.017.68.675.935a9.7 9.7 0 0 1 1.721.9c1.513.9 3.147 1.815 4.435 1.708.984-.021 1.509-.315 1.663-.732s-.862-1.492-.8-1.917c.03-.226.737.213 1.125 1.006.37.671.933 1.216 1.614 1.566a11.8 11.8 0 0 0 4.5 1.383 2.21 2.21 0 0 0 1.962-.5 11 11 0 0 0 1.016-1.6c.252-.458.952-1.354.48-1.413-.959-.118-.607-.492-.058-.5 1.215-.008 2.732.021 3.059-.049.141-.031.117-.381-.048-.472m-13.841-.639c.144-.145.392-.81.617-.45.089.142-.5.984-.6 1.026-.287.116-.194-.385-.017-.576m.853-1.418c0-.361.5-.236.64-.138.056.039.017.181-.011.219-.093.122-.252.271-.41.187-.116-.062-.219-.122-.219-.268m-.874-.992c.147.08.9.258.6.5-.151.123-1.076-.319-1.076-.541 0-.073.235-.086.476.043"></path><path fill="#fff" d="M89.042 134.537c.864-2.527 2.42-3.924 2.511-5.729.153-3-1.047-4.257-2.2-6.05a9.87 9.87 0 0 1-1.867-5.688 14.8 14.8 0 0 0-5.129 3.329c-.91 1.1-.628 2.976-.729 4.735-.03.528.12.917-.167.914-.216 0-.31-.335-.313-1.548-.006-1.693-.217-2.637-.877-3.178-1.187-.973-3.409-.593-5.522-.593.358.667.593 1.237.873 1.8.077.155.471 1.191.054.87a4 4 0 0 1-1.015-1.341c-.373-.634-.959-1.053-.954-1.619 0-.266.384-.369.611-.482.451-.226.052-.594-.064-.8-.239-.424-.364-.978-.642-1.464-1.8 2.887-2.583 4.106-2.583 7.781 0 1.571 1.347 2.752 2.243 3.719a19.5 19.5 0 0 0 3.3 2.941 1.9 1.9 0 0 1 .341-1.628c.47-.572 1.114-.814 1.656.161a9.8 9.8 0 0 0 2.42 2.351c.758.458 2.6 1.516 3.752.642.326-.247 1.941.828 1.164-.129-.116-.143-.73-.44-1-.665-.189-.158-.263-.308-.492-.22-.1.04-.2.425-.486.206-.64-.49-.621-1.055-.986-1.874-.233-.523-.264-.365-.607-1.06-.233-.474-.046-.658.217-.318.553.714.75 1.228 1.371 1.954.533.624 2.313 1.161 3.076 1.592a8 8 0 0 1 2.04 1.387m-7.213-6.537c-.49-.591-1.159-1.592-1.012-1.592.093 0 .667-.068.717.013.19.505.29 1.039.295 1.579M90.28 136.551c.818.506.617.215 1.044 0a.9.9 0 0 1 .71.175c.164.12.027.583-.043.767s-.268.207-.492.132a2.55 2.55 0 0 1-1.335-.838c-.02-.037-.269-.439.116-.235M93.425 138.504c-.027-.537-.123-1.032-.179-1.469a12 12 0 0 1-.1-1.567c0-.517-.345-.466-.345.11.002 1.03.1 2.057.294 3.069.047.252.365.486.333-.143M124.987 124.135a19.3 19.3 0 0 1 1.711-2.542c.851-.981 1.468-1.368 2.244-2.145.116-.115 2.28.656 2.93.656 1.541 0 3.271-.174 4.368.524.466.3-.05.406-1.008 1.183a18.7 18.7 0 0 1-4.448 3.041 12 12 0 0 1-3.56-.035c-1.062-.132-2.389-.163-2.238-.681M83.358 111.959h-1.2v-6.02a6.4 6.4 0 0 1-1.135.65 9 9 0 0 1-1.265.487v-.912a7.7 7.7 0 0 0 1.76-.9c.418-.272.78-.622 1.067-1.03h.771zm3.253-1.779 1.153-.084c.062.369.262.702.56.93.314.203.684.304 1.06.288.333.008.664-.061.968-.2.265-.123.498-.305.682-.532.203-.27.355-.575.448-.9.119-.374.18-.764.18-1.156 0-.041 0-.1-.007-.188a2.6 2.6 0 0 1-.983.731 3.2 3.2 0 0 1-1.349.28 3.12 3.12 0 0 1-2.054-.693 2.24 2.24 0 0 1-.839-1.826 2.3 2.3 0 0 1 .876-1.885 3.37 3.37 0 0 1 2.2-.714 3.8 3.8 0 0 1 1.742.4 2.77 2.77 0 0 1 1.2 1.152c.31.678.45 1.422.41 2.166a5.7 5.7 0 0 1-.4 2.348 2.9 2.9 0 0 1-1.21 1.33 3.75 3.75 0 0 1-1.884.457 3.2 3.2 0 0 1-1.873-.5 2.02 2.02 0 0 1-.873-1.408m4.911-3.4a1.62 1.62 0 0 0-.548-1.29 1.95 1.95 0 0 0-1.324-.478 2.06 2.06 0 0 0-1.392.514 1.68 1.68 0 0 0-.594 1.333 1.47 1.47 0 0 0 .564 1.2 2.12 2.12 0 0 0 1.388.459c.497.02.985-.143 1.37-.459a1.59 1.59 0 0 0 .536-1.274m2.5 1.381c-.029-.75.092-1.498.357-2.2a2.76 2.76 0 0 1 1.06-1.285 3.2 3.2 0 0 1 1.766-.451c.473-.01.942.075 1.381.25.381.155.718.402.981.719.272.341.477.729.605 1.145a6 6 0 0 1 .221 1.818 5.7 5.7 0 0 1-.353 2.186 2.8 2.8 0 0 1-1.058 1.286 3.2 3.2 0 0 1-1.777.454 3.01 3.01 0 0 1-2.217-.8 4.29 4.29 0 0 1-.967-3.129m1.233 0c-.098.88.1 1.768.563 2.522a1.85 1.85 0 0 0 2.152.465c.24-.109.453-.267.626-.465a5.92 5.92 0 0 0 0-5.044 1.81 1.81 0 0 0-1.4-.625 1.7 1.7 0 0 0-1.322.552 4.04 4.04 0 0 0-.618 2.6m6.357 1.78 1.26-.084c.063.435.296.827.648 1.09.361.25.792.377 1.231.365a2.17 2.17 0 0 0 1.464-.515 1.7 1.7 0 0 0 .6-1.365 1.54 1.54 0 0 0-.136-.706 1.54 1.54 0 0 0-.439-.57 2.33 2.33 0 0 0-1.511-.467 2.6 2.6 0 0 0-1.046.208 1.9 1.9 0 0 0-.732.537l-1.126-.114.946-3.953h4.858v.9h-3.9l-.527 2.067a3.8 3.8 0 0 1 1.847-.484 3.37 3.37 0 0 1 2.159.7 2.19 2.19 0 0 1 .88 1.794 2.45 2.45 0 0 1-.773 1.807 3.5 3.5 0 0 1-2.565.933 3.7 3.7 0 0 1-2.177-.588 2.15 2.15 0 0 1-.963-1.559M66.514 90.493h7.853V92.6l-5.245 4.182H74.2v1.192h-7.66v-1.106l.224-.165 6.093-4.464-.009-.642h-6.334zM76.215 98.032l-.009-7.538h7.68v4.444l-.382.126-.8.263 1.285 2.713h-1.266l-1.145-2.338-4.089 1.285v1.045zm1.276-6.281v4.191l5.392-1.682v-2.509zM86.488 90.491h-1.13v7.55h1.13zM88.346 98.041l-.007-6.428v-.724l.715.187 5.586 1.371v-1.959h1.138v7.55H94.64v-4.219l-5.167-1.364.007 5.583zM98.308 90.491v7.79l-.076.128-.953 1.425h-1.16l1.081-1.629v-7.714zM107.181 91.68h-5.725v2.444h5.768v4.027h-6.9v-1.119h5.748v-1.788h-5.768V90.56h6.874zM109.482 98.151v-7.613h1.13v3.12l6.277-2.7v1.338l-2.581 1.185 2.4 4.668h-1.336l-2.113-4.163-2.643 1.186v2.978zM119.647 90.491h-1.13v7.633h1.13z"></path><path fill="#092d73" d="m128.762 143.358 1.987-1.557c.781-.611 1.59-.818 2.239-.017.7.861.359 1.637-.435 2.281l-1.936 1.589zm3.892 8.342 1.715-1.389-2.659-3.263 1.766-1.43a1.73 1.73 0 0 1 1.23-.492c.449.085.859.31 1.172.643.156.146.315.3.475.48s.321.342.484.5.32.31.477.448q.22.197.478.341l1.816-1.471a1.6 1.6 0 0 1-.543-.28 5 5 0 0 1-.524-.459 11 11 0 0 1-.482-.512l-.4-.45a6 6 0 0 0-.595-.557 3.7 3.7 0 0 0-.744-.495 1.69 1.69 0 0 0-1.45.068l-.019-.024a2.87 2.87 0 0 0-.348-3.278 2.93 2.93 0 0 0-3.185-.86c-.42.133-.811.346-1.149.628l-4.292 3.476zM114.844 160.364l2.195-.886-.119-2.392 3.789-1.5 1.534 1.794 2.25-.909-7.722-8.5-2.222.9zm1.639-9.793 3.039 3.594-2.7 1.109zM101.369 163.153l2.315-.326-1.222-8.7 3.156-.444-.278-1.972-8.626 1.212.278 1.972 3.155-.444zM80.943 159.379c-.489 3.138 3.179 4.646 5.759 4.2a3.8 3.8 0 0 0 2.458-1.574 3.3 3.3 0 0 0 .471-1.32 2.9 2.9 0 0 0-.029-1.078 2.7 2.7 0 0 0-.355-.85 3.55 3.55 0 0 0-1.2-1.105 28 28 0 0 0-2.813-1.126c-.642-.282-1.438-.624-1.319-1.471a1.326 1.326 0 0 1 1.3-.977q.285-.021.569.019.394.054.771.185a1.64 1.64 0 0 1 1.219 1.694l2.115.255a3 3 0 0 0-.136-1.539 3.1 3.1 0 0 0-.787-1.2 4 4 0 0 0-1.264-.795 6.7 6.7 0 0 0-1.559-.41 5.4 5.4 0 0 0-1.443 0c-.472.058-.93.199-1.352.419a3.2 3.2 0 0 0-1.048.882c-.3.403-.49.879-.547 1.378a2.98 2.98 0 0 0 1.363 2.969c1.023.571 2.387.928 3.4 1.533.433.259 1.054.706.974 1.274-.11.779-1 1.089-1.687 1.094-1.223.008-2.809-.622-2.727-2.1zM65.521 152.718c.692-1.713 2.146-3.231 4.172-2.412 1.974.8 2.222 2.9 1.5 4.69-.7 1.743-2.239 3.168-4.22 2.369-1.927-.779-2.166-2.875-1.45-4.646m-2.022-.917a5.56 5.56 0 0 0 2.875 7.4c2.979 1.2 5.706-.529 6.827-3.3 1.172-2.9.375-6.012-2.539-7.243-3.387-1.432-6.035.359-7.164 3.151M44.025 145.031l1.586 1.278 5.423-6.61-3.579 8.094 1.6 1.289 7.106-5.111-5.275 6.591 1.544 1.242 6.77-8.378-2.505-2.02-6.727 4.966 3.2-7.808-2.385-1.921z"></path><path fill="#d10e1b" d="m150.084 111.914-2 4.77a5.4 5.4 0 0 0-.373 1.368 3.114 3.114 0 0 0 1.615 3.493 2.644 2.644 0 0 0 3.209-.414 2.32 2.32 0 0 0 1.528 2.119c1.974.933 3.237-.3 3.959-2.025l2.074-4.576zm3.63 4.086-1.066 2.544a1.85 1.85 0 0 1-.8.975 1.4 1.4 0 0 1-1.28-.093 1.6 1.6 0 0 1-.591-.436 1.2 1.2 0 0 1-.253-.539 1.7 1.7 0 0 1 0-.61q.06-.329.191-.636l1.026-2.514zm3.864 1.762-.948 2.269a3.3 3.3 0 0 1-.284.535 1.4 1.4 0 0 1-.374.393.96.96 0 0 1-.49.165 1.3 1.3 0 0 1-.627-.148 1.25 1.25 0 0 1-.756-.8 1.7 1.7 0 0 1 .118-1.084l1.051-2.358zM162.392 109.754l.371-2.212-6.885-1.054a2.84 2.84 0 0 1-1.707-.74 2.05 2.05 0 0 1-.314-1.745c.041-.376.166-.738.364-1.06.156-.235.372-.425.626-.55.25-.118.523-.18.8-.18q.439-.003.872.066l6.9 1.048.343-2.228-6.9-1.06a4.33 4.33 0 0 0-3.448.613 4.52 4.52 0 0 0-1.557 3.033 4.58 4.58 0 0 0 .583 3.365 4.29 4.29 0 0 0 3.089 1.676zM153.408 88.748l-.057 7.4 2.02.016.039-5.1 8.907.073.018-2.3zM154.785 56.477l-9.475 5.442 1.16 2.02 9.474-5.443zM138.033 51.507l1.522 1.847 2.893-2.382 1.705.163-1.708 5.913 1.767 2.091 1.905-7.749 6.388.5-1.812-2.2-6.2-.4 3.5-2.88-1.53-1.855zM121.64 38.516l1.916 1.1 4.486-7.852 2.83 1.656.95-1.665-7.736-4.435-.967 1.687 2.891 1.687zM68.552 32.248a3.51 3.51 0 0 0 3.8 2.439 6.74 6.74 0 0 0 3.453-1.309 3.3 3.3 0 0 0 .652-4.959 2.5 2.5 0 0 0-.872-.646 3.6 3.6 0 0 0-1.113-.284 7.5 7.5 0 0 0-1.3-.011q-1.191.09-1.893.128a6 6 0 0 1-1.1-.015 1 1 0 0 1-.549-.2 1.1 1.1 0 0 1-.25-.441 1.05 1.05 0 0 1-.036-.593c.046-.18.13-.348.246-.493.12-.148.266-.274.431-.369q.253-.148.531-.24.387-.13.791-.182c.24-.032.483-.02.718.037a1.84 1.84 0 0 1 1.125 1.008l2.124-.7a3.4 3.4 0 0 0-.848-1.42 3.14 3.14 0 0 0-1.264-.735 4.1 4.1 0 0 0-1.519-.149 7 7 0 0 0-1.616.333 5.6 5.6 0 0 0-1.326.649 4.1 4.1 0 0 0-1.052.994c-.278.38-.47.815-.565 1.276a2.87 2.87 0 0 0 .12 1.5 2.57 2.57 0 0 0 1.68 1.749c.405.136.83.208 1.258.212q.712.013 1.42-.052a26 26 0 0 1 1.426-.085q.49-.02.974.056a1.6 1.6 0 0 1 1.147.922c.316.953-1.056 1.712-1.77 1.948-1.177.39-2.3.12-2.69-1.072zM69.293 22.906l1.662-.489.644-3.08-1.112.4-.623 1.92-1.637-1.15-1.114.291zM82.875 22.681l1.845-.228q.397-.05.795-.036c.24.006.475.058.694.153.21.097.39.248.522.438.158.244.253.524.276.814.048.287.024.581-.07.856-.083.216-.22.406-.4.551a1.8 1.8 0 0 1-.638.317 5 5 0 0 1-.779.157l-1.846.227zm-1.27 9.285 2.374-.292-.478-3.889 2.5-.307a4.5 4.5 0 0 0 1.69-.508 3.3 3.3 0 0 0 1.06-.924c.255-.355.43-.76.514-1.189.17-.87.06-1.772-.316-2.575a3 3 0 0 0-.787-1.037 3.25 3.25 0 0 0-1.254-.64 4.5 4.5 0 0 0-1.76-.084l-4.873.6zm14.53-6.489c.063-.472.182-.934.354-1.378a3.8 3.8 0 0 1 .68-1.137c.283-.32.638-.567 1.037-.719a3.2 3.2 0 0 1 2.76.382c.342.255.616.59.8.974.191.403.308.836.347 1.28a6.05 6.05 0 0 1-.38 2.748 3.7 3.7 0 0 1-.677 1.107c-.283.317-.639.56-1.036.712a3.2 3.2 0 0 1-2.759-.381 2.66 2.66 0 0 1-.8-.967 3.7 3.7 0 0 1-.35-1.249 5.7 5.7 0 0 1 .025-1.369m-2.407-.333a6.7 6.7 0 0 0 .058 2.283c.137.701.411 1.368.807 1.963.398.585.916 1.08 1.52 1.449 1.37.796 3 1.021 4.536.628a5 5 0 0 0 1.855-.983 5.4 5.4 0 0 0 1.309-1.67c.348-.683.577-1.42.677-2.181a7 7 0 0 0-.053-2.33 5.5 5.5 0 0 0-.8-1.993 4.9 4.9 0 0 0-1.516-1.466 6.05 6.05 0 0 0-4.537-.628 4.9 4.9 0 0 0-1.857 1 5.5 5.5 0 0 0-1.313 1.7c-.35.7-.581 1.452-.683 2.228M107.647 32.826l2.212.769 1.337-4.044 2.21.769a1.74 1.74 0 0 1 1.072.793c.169.432.199.905.086 1.355a9 9 0 0 1-.15.667q-.091.348-.164.687a12 12 0 0 0-.122.652q-.048.298-.031.6l2.212.768c-.058-.2-.077-.41-.056-.617q.03-.354.106-.7.078-.353.174-.692t.163-.589q.101-.4.151-.812a3 3 0 0 0-.01-.8c-.036-.254-.12-.5-.246-.724a1.8 1.8 0 0 0-.559-.59l.009-.029a2.44 2.44 0 0 0 1.554-.591 4.15 4.15 0 0 0 1.028-1.616 2.98 2.98 0 0 0-.274-2.31 2.97 2.97 0 0 0-1.857-1.403l-5.422-1.885zm5.049-7.813 2.422.842a1.8 1.8 0 0 1 1.021.735c.092.191.142.4.147.612.004.212-.038.422-.122.617a1.5 1.5 0 0 1-.76 1 1.73 1.73 0 0 1-1.249-.046l-2.422-.842zM56.674 42.737l1.842-1.3-6.289-8.937-1.824 1.285zM47.056 51.212l1.627-1.543-2.555-2.664.07-1.819 5.841 1.3 2.046-1.94-7.8-1.5.153-6.179-2.109 1.956.005 6.151-3.118-3.286-1.629 1.586zM36.856 59.453a3.18 3.18 0 0 0 3.03.52 5.77 5.77 0 0 0 3.6-5.45 3.2 3.2 0 0 0-.513-1.345 3.4 3.4 0 0 0-.994-1.016 3 3 0 0 0-.993-.46 2.97 2.97 0 0 0-2.753.937c-.569.488-1.317 1.065-1.887 1.541-.52.433-1.346 1.094-2.043.62s-.424-1.531.007-2.165q.222-.329.506-.607a1.84 1.84 0 0 1 2.136-.337l1.17-1.721a3.45 3.45 0 0 0-1.532-.619 3.1 3.1 0 0 0-1.435.163 3.9 3.9 0 0 0-1.276.774c-.4.359-.754.766-1.054 1.212-.27.398-.484.832-.636 1.289-.155.45-.226.924-.21 1.4.015.503.132.999.342 1.456a2.936 2.936 0 0 0 4.365 1.012c.99-.675 1.817-1.567 2.825-2.21a1.235 1.235 0 0 1 1.9 1.557c-.638 1.329-1.91 2.588-3.275 1.66zM36.092 69.072l1.02-2.094-8.172-3.887 1.416-2.932-1.765-.854-3.784 8.02 1.815.778 1.351-2.98zM31.853 84.083l.531-2.3-2.032-1.262.884-3.967 2.406-.22.543-2.356-11.54 1.4-.548 2.471zm-7.116-6.947 4.66-.376-.629 2.861zM20.911 85.793l-.082 2.427 8.052 2.733-8.2 2.008-.072 2.511 11.034-3.37.07-2.182zM33.433 107.477l-.343-2.3-4.224.628-.343-2.3a1.7 1.7 0 0 1 .208-1.306 2.2 2.2 0 0 1 1.167-.684q.311-.091.664-.166c.235-.049.464-.1.688-.163s.436-.12.638-.184q.286-.09.545-.239l-.343-2.3c-.152.141-.33.252-.524.326a5 5 0 0 1-.67.221q-.352.09-.7.155c-.235.043-.432.084-.6.12a6.5 6.5 0 0 0-.795.231q-.38.135-.71.367c-.21.147-.39.332-.53.545a1.8 1.8 0 0 0-.267.759h-.03a2.5 2.5 0 0 0-1.249-1.111 3.4 3.4 0 0 0-1.708-.143 3.2 3.2 0 0 0-1.119.385c-.337.19-.63.448-.862.758a2.95 2.95 0 0 0-.5 1.064c-.1.426-.116.868-.046 1.3l.841 5.648zm-9.305-.969-.376-2.523a1.76 1.76 0 0 1 .181-1.234 1.47 1.47 0 0 1 1.083-.573 1.54 1.54 0 0 1 1.241.228c.314.295.506.697.54 1.127l.374 2.523zM38.319 119.855l-.871-2-4.381 1.935-1.823-4.151 4.395-1.936-.892-2.049-10.019 4.365.908 2.085 3.724-1.669 1.855 4.139-3.765 1.693.85 1.952zM131.033 40.459a3.514 3.514 0 0 0-.108 4.515 6.73 6.73 0 0 0 2.914 2.268 3.3 3.3 0 0 0 4.575-2.021c.112-.349.146-.718.1-1.081a3.6 3.6 0 0 0-.337-1.1 7.5 7.5 0 0 0-.668-1.12q-.695-.97-1.093-1.55a6 6 0 0 1-.557-.945 1 1 0 0 1-.111-.576c.046-.165.131-.317.247-.443.126-.158.295-.276.487-.339.178-.055.365-.07.549-.047.189.025.372.085.539.177q.258.138.482.328.313.263.567.581c.152.188.269.402.343.632a1.847 1.847 0 0 1-.28 1.489l1.705 1.448a3.4 3.4 0 0 0 .772-1.463 3.1 3.1 0 0 0-.029-1.461 4.1 4.1 0 0 0-.662-1.375 7 7 0 0 0-1.125-1.206 5.5 5.5 0 0 0-1.245-.8 4.1 4.1 0 0 0-1.4-.381 3.2 3.2 0 0 0-1.383.181 2.9 2.9 0 0 0-1.219.882 2.57 2.57 0 0 0-.62 2.344c.095.418.255.817.474 1.185q.359.615.782 1.186.5.685.814 1.173.272.408.459.861a1.6 1.6 0 0 1-.191 1.459c-.65.765-2.012-.011-2.585-.5-.945-.8-1.3-1.9-.484-2.855zM151.586 76.062l.413 2.357 3.692-.646 1.4.982-4.4 4.3.506 2.691 5.479-5.8 5.312 3.582-.492-2.807-5.2-3.406 4.462-.783-.413-2.357z"></path><path fill="#fff" d="M92.369 86.983 68.856 73.815l-.2-.115V47.8l.167-.12 5.517-3.956.1-.074h36.247l.1.074 5.517 3.956.167.12v25.9l-.2.115-23.518 13.168-.191.108z"></path><path fill="#d10e1b" d="M78.456 52.748v-8.306h-3.77l-5.246 3.761v4.544zM88.069 52.748h-9.612v8.439h9.612zM78.457 61.187h-9.013v8.659h9.013zM88.069 69.846h-9.612v8.432h9.608zM97.046 78.286H88.07v5.382l4.492 2.516 4.485-2.512zM106.511 69.847h-9.465v8.439h9.465zM115.679 61.188h-9.167v8.659h9.167zM106.511 52.748h-9.465v8.439h9.465zM106.512 44.442v8.306h9.167v-4.544l-5.246-3.761zM97.047 44.442H88.07v8.306h8.977zM97.047 61.187H88.07v8.659h8.977z"></path></g></g><defs data-source="https://football-logos.cc"><clipPath id="a"><path fill="#fff" d="M14 13h157.122v157.122H14z"></path></clipPath></defs><!-- source: https://football-logos.cc --></svg>